<?xml version="1.0" standalone="no"?>
<!DOCTYPE svg PUBLIC "-//W3C//DTD SVG 1.1//EN" "http://www.w3.org/Graphics/SVG/1.1/DTD/svg11.dtd" >
<svg xmlns="http://www.w3.org/2000/svg">
<metadata></metadata>
<defs>
<font id="festivo_letters_no15regular" horiz-adv-x="948" >
<font-face units-per-em="2048" ascent="1536" descent="-512" />
<missing-glyph horiz-adv-x="716" />
<glyph horiz-adv-x="0" />
<glyph horiz-adv-x="682" />
<glyph unicode=" "  horiz-adv-x="716" />
<glyph unicode="&#x09;" horiz-adv-x="716" />
<glyph unicode="&#xa0;" horiz-adv-x="716" />
<glyph unicode="!" horiz-adv-x="493" d="M225 336q0 6 4 6h7q10 0 10 -8q21 -3 48.5 -3t59 1.5t43.5 1.5v143q1 12 5 46.5t4 54.5v135l4 241l-1 46q-1 47 1 47q12 127 4 198q-1 17 2.5 59.5t-0.5 57.5h-6q-9 0 -9 8q0 10 9 10q4 0 6 -2q16 0 16 -14q4 -4 1 -57.5t-3 -57.5q4 -28 4 -43q0 -16 -1 -43t-1 -43 q0 -59 -6 -90q8 -70 -2 -172q-3 -25 -3 -55.5t1.5 -67t1.5 -55.5v-43q0 -7 -1 -21.5t-1 -21.5q0 -3 1 -7t1 -7q0 -7 -2 -21.5t-2 -21.5q-6 -68 -2 -193q0 -11 -10 -21q-4 -4 -5 1q-8 -8 -16 -11q-37 -2 -45.5 -2.5t-44.5 2t-47 2.5q-8 0 -17 9l-4 4q-4 4 -4 8zM420 -59 q0 141 -6 204q-8 0 -8 7v2q0 7 8 10q8 0 14 -6q8 -5 8 -17q-3 -28 1 -97t1 -101q-3 -19 -24 -19q-14 0 -39.5 -3t-30.5 -3q-13 -1 -35 0.5t-30 1.5q-37 0 -60 2q-7 0 -10 6v6l-6 11q0 6 6 6h6q3 0 4 -1t2.5 -4t3.5 -5q28 -3 60 -3t72 1.5t63 1.5z" />
<glyph unicode="&#x22;" horiz-adv-x="600" d="M459 907q69 0 108 -2q11 0 11 10q-1 75 12 428q0 7 -6 7h-2q-9 3 -9 10q0 8 9 8q2 -2 10 -2q16 -3 16 -23q-14 -304 -12 -423v-9v-4q3 0 0 -8q0 -6 -2 -8q-10 -7 -19 -4q-57 6 -120 0q-18 -4 -21 12q0 3 1 5t1 5q0 11 8 11h2q9 0 9 -9q0 -4 4 -4zM293 915q3 49 5.5 169.5 t6.5 183.5h2q4 -117 10 -164v-29q-1 -18 -2.5 -53t-2.5 -62t-1 -49q0 -9 -6 -18q-3 -8 -14 -8q-82 -4 -123 -4q-9 0 -12 6q-1 3 -5 5t-4 5v4q0 8 11 12h2q8 0 8 -8q0 -4 4 -4q37 -2 94 2h19q8 3 8 12z" />
<glyph unicode="#" horiz-adv-x="1157" d="M672 -57l-2 2q0 3 -1 5t-1 3q0 4 4 4q1 0 3 1t3 1q6 0 6 -8q0 -2 2 -2q17 -4 62 -1.5t59 1.5q6 0 6 6q5 47 12 137.5t15 162.5t22 134l8 10q4 7 9 7q20 0 74.5 3.5t80.5 2.5q6 0 6 6v112l-2 2q-8 0 -8 7v4q0 6 6 6h13q1 -1 3 -1t3 -1q8 0 8 -10t-1.5 -51.5t-0.5 -65.5 q4 -11 -6 -17q-1 0 -2 -1t-2 -1q-3 -6 -9 -6q-68 3 -153 -8q-5 0 -8 -6q-14 -47 -25 -184q0 -5 -1 -15t-1 -18l-8 -78l-8 -68l-4 -67q-3 -24 -25 -21h-33q-9 0 -30.5 -2t-30.5 -2q-11 0 -39 4q-7 4 -4 13zM295 -53q0 8 8 8h4q10 0 10 -10l2 -2q23 -1 61 1.5t54 2.5q6 0 6 6 q4 46 18.5 144.5t18.5 152.5q1 5 7 56.5t12 74.5q3 18 26 18q0 -1 33 -0.5t35 0.5q9 0 6 -8q0 -8 -8 -8q-43 0 -66 2q-5 0 -8 -6q-6 -26 -9.5 -56.5t-6 -69t-4.5 -56.5l-7 -27q-2 -2 -2 -8q-1 -4 -1 -22t-3 -27q0 -3 -1 -6.5t-1 -6.5q-1 -26 -8 -74.5t-8 -68.5q0 -7 -8 -18 q-4 -7 -11 -11q-49 -8 -118 -4q-10 0 -21 8q-1 0 -2 1t-2 1q-6 3 -6 13zM938 745q-3 -13 -7 -36.5t-7 -36.5q-3 -10 -13 -10q-11 0 -8 10l12 78l9 12q2 6 10 10q21 3 70.5 -1t70.5 -1q6 3 6 8q-1 14 1.5 61.5t-1.5 67.5h-2q-6 0 -6 8q0 11 10 11h7q3 0 5 -2t5 -2q6 0 6 -7 v-4q0 -3 -1 -8t-1 -8q-1 -3 0.5 -9.5t1.5 -8.5q0 -6 -2.5 -32t-2 -32t2.5 -33q1 -3 0 -8t0 -8q2 -5 -0.5 -6.5t-9.5 -1.5q-18 -8 -74 -5t-74 1q-4 0 -8 -7zM594 1040q0 -2 -2 -2h-8q-9 0 -9 9q5 51 18.5 153t18.5 150q0 4 -4 4t-6 -2q-8 0 -8 10t10 10h14q12 4 15 -4t0 -16 q-6 -39 -16 -132.5t-19 -140.5q0 -10 2 -12q1 -4 0 -9t-3 -10.5t-3 -7.5zM981 1149l-10 -100q-4 -11 -13 -11q-12 0 -8 11l8 77q2 18 15.5 102.5t13.5 127.5q0 4 -4 4h-4q-6 0 -6 8q0 10 10 10l2 -2q18 0 21 -12v-23q-1 -34 -11.5 -97t-13.5 -95zM561 741l-6 -63 q-3 -10 -14 -10q-5 0 -7.5 2t-1.5 6l11 67q0 21 22 21q43 0 66 2q8 0 8 -10q-4 -11 -12 -11q-25 0 -60 3q-6 0 -6 -7z" />
<glyph unicode="$" horiz-adv-x="1034" d="M551 -262h-12q-24 5 -29 12q-4 4 -4 14v7q0 2 2 2q4 0 6 2q10 0 10 -13q0 -4 4 -4q54 -3 119 13q6 3 6 8q-3 21 0 61t0 64q0 12 11 30l8 5l45 16q3 1 21 10l23 11.5t19.5 10t21 12.5t17.5 12t18.5 14.5t14.5 15.5q50 59 80 123q27 63 29 110h-3q-2 0 -2 11q0 39 -10 84 l-6 41q-5 37 -8 43q0 6 5 7q2 0 3 -3l8 -23q30 -97 26 -163.5t-46 -159.5q-8 -17 -23 -33q-8 -8 -25.5 -27t-23 -24.5t-20 -19.5t-22.5 -19t-23.5 -15.5t-30.5 -17t-35.5 -15.5t-46.5 -18q-6 -3 -6 -8q3 -17 3 -39t-1.5 -50t-1.5 -42q0 -1 1 -3t1 -3q2 -2 2 -4 q4 -12 -10 -15q-14 -4 -115 -20zM954 926q1 16 4 50.5t3 50t-3 50.5q0 6 -2 8q-6 15 -6 29q-3 39 -12 74q-2 4 0 6q2 0 3 -2q1 -1 1 -2q6 -11 19 -47q26 -88 20 -144q-1 -6 -4.5 -33.5t-3.5 -45.5q0 -24 -17 -31q-4 -3 -13.5 -4t-16.5 -4q-6 -1 -23 -4t-26.5 -4t-24.5 -2 t-28.5 0.5t-26.5 5.5q-7 3 -13 0q-5 -1 -47 4q-13 0 -16 12q0 8 -2 10l2 2q0 2 4 2l10 -4q4 0 4 -4q9 -3 30.5 -3t25.5 -1q7 0 19.5 -2t19.5 -2t21 -1t22 -1l32 6q11 0 13 2q10 0 12 2q20 3 20 27zM461 1065q-4 -7 -8 -35q-1 -3 -4 -2q-5 5 -5 6h2l-2 4q-3 19 0 29q0 2 1 4 t2 5t2 5q11 23 41 44t65 28q7 2 16 -4q6 -2 3 -5q-2 -1 -5 -1q-4 -2 -16 -2q-28 -4 -52 -22t-36 -42q-1 -2 -2 -5l-1.5 -4.5t-0.5 -2.5zM455 412v-45q0 -5 -0.5 -16t-0.5 -19.5t1 -14.5q0 -13 -11 -6q-8 5 -8 21q3 34 0 74q-2 0 -4 2q-8 3 -8 10q0 8 8 8h4q15 -3 19 -14z M676 1516v-25q0 -8 -10 -8l-2 2q-9 3 -9 12v16q0 3 -2 3q-4 0 -4 4v4q0 8 6 8h7q14 0 14 -16z" />
<glyph unicode="%" horiz-adv-x="1431" d="M1386 459l-6 28q0 3 2 5q1 0 3.5 -1.5t3.5 -1.5q24 -55 30 -127q14 -158 6 -237q-10 -43 -24 -70.5t-41 -64.5q-13 -16 -29 -29q-21 -17 -33 -22l-65 -17q-3 0 -5 -1t-5 -1l-39 -8q-60 -4 -80 4q-3 0 -6 1t-6 1q-20 0 -47.5 11.5t-40.5 13.5l-13 6q-2 0 0 2q8 0 10 -2 q5 0 33 -4l25 -4q99 -28 235 18l11 6q63 51 85 116t17 157q0 79 -6 120v39q0 3 -1 6.5t-1 6.5l-6 8q-2 4 -7 41zM905 672l-2 -8q-3 -15 -16 -25q-5 -2 -7 0t-1 6l6 21l14 43q9 24 26.5 71t20.5 56l33 84q7 13 17.5 40.5t17.5 40.5q15 30 32.5 90t26.5 83q10 23 29 76t33 83 q0 6 -5 6h-20q-9 3 -6 13q3 8 14 8q10 0 12 -2q8 0 19 -8q10 -3 6 -15q-3 -13 -11.5 -30.5t-10.5 -24.5q-6 -15 -18.5 -46.5t-22 -57t-15.5 -50.5q-17 -66 -33 -104q-9 -21 -26.5 -61t-31 -73t-23.5 -65l-37 -102zM414 -78q-8 5 -8.5 12.5t6.5 12.5q2 0 2 2q0 4 4 4 q2 -2 10 -2q4 0 4 -4q0 -2 2 -2q70 -7 162 -4q5 0 8 6q1 5 6 13.5t8 14.5q3 7 16.5 45t24.5 56q0 1 1 2.5t2 4.5t2 5q19 59 34 92l37 96q1 3 0 7.5t0 7.5q15 24 21 49q2 4 5 3.5t3 -5.5v-21q0 -25 -8 -38v-3q-52 -138 -111 -276q-3 -8 -6.5 -24.5t-9 -27t-15.5 -16.5 q-2 -2 -2 -6q-3 -9 -18 -6q-16 1 -47 0t-47 0q-8 1 -20.5 2.5t-23 2.5t-20.5 1q-8 0 -12 -4q-2 -2 -10 0zM371 731q110 -3 178 25l26 12q5 3 6.5 1t0.5 -9l-7 -10q0 -3 -2 -5h-12q-4 -4 -12 -8l-39 -12q-46 -12 -80 -12q-8 -1 -23 0.5t-20 1.5q-11 1 -36 3t-34.5 3.5 t-24 6.5t-26.5 13q-4 1 -3.5 5t5.5 4q24 -3 37 -9q19 -6 66 -10zM688 1157q4 -16 8 -61q3 -16 -4 -39q-9 -21 -12 -43h2l-2 -4q0 -2 -2 0q3 58 -10 141l-9 76q0 10 -2 12l-4 16q0 6 4 2q1 -4 9 -12l14 -33q3 -7 3 -21.5t3 -21.5q2 -2 2 -12zM1096 391q12 7 32 10q10 3 13 -6 q4 -7 -4 -10q-27 -4 -36.5 -15t-21.5 -42q-1 -4 -5 -11.5t-5 -9.5q-1 -4 -1 -13.5t-1 -14.5q-4 -46 -4 -58q0 -9 -8 -6q-6 3 -6 10q-3 78 22 133q10 24 25 33zM336 1174q17 16 51 28q7 3 10 -6t-6 -12q-50 -16 -63 -49q-3 -6 -3.5 -17t0.5 -27t1 -20v-61h-4l-7 2q-6 3 -6 12 v37q0 50 4 65q1 3 1 9.5t1 9.5q6 14 21 29z" />
<glyph unicode="&#x26;" horiz-adv-x="1153" d="M948 311q0 33 4 111q0 100 4 131q0 1 2 4t3 6q3 3 4 10.5t4 10.5q3 6 10 6q15 0 49 -2.5t51 -1.5q6 0 6 6q16 92 -2 166l-1 2q-1 2 -1 6v8q0 9 9 6q6 -6 8 -12l8 -16q11 -62 4 -109q-5 -65 -10 -74q-6 -6 -15 -6q-10 1 -47 3.5t-57 2.5q-6 0 -6 -6q-6 -66 -6 -217 q-3 -40 0 -82q0 -6 -5 -7q-2 0 -3 3q-5 5 -5 8q-2 0 -2 2q-6 14 -6 41zM666 1008v4q0 8 8 8h6q4 0 4 -4q0 -2 2 -2q64 -10 164 6q4 4 4 8q-2 8 -1 48.5t-7 72.5q-4 28 -4 41q-2 2 -2 14q0 5 3 5.5t5 -3.5q26 -59 24 -106q0 -7 1.5 -31.5t0.5 -38.5q0 -17 -22 -26 q-92 -23 -170 -11q-13 0 -16 15zM391 -43q-25 6 -47 18q-2 0 -1 1t3 1l23 -6q68 -18 71 -18h4q4 0 12 -1t11 -1q18 0 22 -2q32 -6 48 -8q19 0 55 4q4 0 6 -2q10 0 12 2l58 18q48 12 77 25l13 6q2 2 22 14.5t29 20.5q4 4 8 0q5 -1 5 -4t-5 -5q-99 -71 -143 -79q-10 0 -12 -2 q-11 -2 -33.5 -8.5t-40.5 -9t-39 -1.5q-3 0 -6 2t-6 2t-8.5 -1t-8.5 -1q-22 3 -62.5 15t-58.5 16q-2 0 -4 2t-4 2zM471 555q63 29 139 35q11 0 11 -10q0 -11 -11 -11q-30 3 -57 -6q-75 -17 -107 -47q-15 -15 -38 -47q-5 -5 -5 -10q-1 -19 -7 -57t-7 -58q0 -6 -5 -7 q-2 0 -3 3q-6 9 -6 27q4 20 4 24q0 32 4 41l6 29q6 21 19 37q5 9 30 34q16 16 33 23zM1135 76q-3 0 -5 2q-12 0 -6 6q0 7 9 4h2q10 0 12 -2q20 -3 16 -29l-20 -106q-3 -22 -25 -25q-39 -7 -87 5t-81 32l-8 4q0 4 2 2l39 -6q23 -3 39 -10q61 -16 92 -10q5 0 8 6q5 20 11.5 56 t11.5 56q4 12 -10 15zM537 1135q-56 -4 -82 -57.5t-19 -125.5q0 -2 -4 -2q0 2 -2 4q-4 0 -4 9q-10 23 -10 38q3 49 24 86q12 20 25 33l8 6q12 12 33 15l12 4q2 1 12 -2l5 -2q2 -2 2 -4q2 0 0 -2z" />
<glyph unicode="'" horiz-adv-x="319" d="M307 1348h-4q-8 0 -8 10t10 10q2 -2 4 -2q7 0 15 -8v-2q6 -6 6 -10q0 -13 -3 -44t-3 -47q0 -105 -7 -172q-4 -50 -4 -77q-4 -69 -2 -101q0 -19 -18 -22q-67 -3 -131 0q-12 4 -15 14v4q0 10 9 10h4q5 0 8 -6q0 -2 2 -2q39 -2 115 -2q6 0 6 6q-1 23 4 142q0 10 1 21 t2.5 24.5t2.5 21.5q3 40 5 115t5 112q0 5 -4 5z" />
<glyph unicode="(" horiz-adv-x="499" d="M477 1421q8 8 25.5 19t19.5 12q3 1 3.5 4t-1.5 4l-12 21q-7 10 2 24q2 5 5 5t5 -5l6 -14q3 -6 11 -17t8 -16q0 -7 -6 -12t-17.5 -10.5t-15.5 -8.5q-13 -7 -24.5 -17.5t-19.5 -20.5t-14.5 -26.5t-11 -27t-7 -30.5t-4 -29.5t-2.5 -32.5t-1 -30v-31v-27q0 -27 2 -41 q0 -64 -6 -193.5t-6 -195.5q0 -28 3 -78.5t3 -75.5q0 -17 -1 -53t-1 -53v-27q0 -32 -5 -92t-5 -86q0 -22 4 -76q3 -27 5 -79t5 -76q0 -5 -3 -5.5t-5 3.5q-5 8 -8.5 18t-5 16.5t-4 21.5l-3.5 21q-6 66 -6 175q0 11 1 30t1 31v2q0 1 2 2t2 2v2q8 84 8 184q0 24 -3 73t-3 73v86 q0 47 6.5 146t6.5 153q0 17 -2 49t-2 45q0 24 5 70.5t5 72.5v21q0 31 30 74q6 8 31 26zM424 -324q-7 3 -20.5 7.5t-20.5 7.5q0 1 -1 3t-1 3q0 2 6 2q2 -2 6 -2h2q21 0 27 -2q17 -8 35 -12q5 0 8 6q5 17 13 35t12.5 27.5t17.5 33t16 29.5q0 6 -4 10l-18 10q-7 7 -4 14 q5 8 14 5l18 -15q19 -12 11 -31q-4 -12 -16 -30.5t-17 -28.5l-16 -43q-2 -3 -4.5 -10.5t-4.5 -11.5t-4.5 -8.5t-6 -6.5t-7.5 -2h-2q-23 3 -39 10z" />
<glyph unicode=")" horiz-adv-x="487" d="M432 276v-61q0 -15 -1 -47t-1 -47q0 -19 2 -58t2 -59q0 -23 -2 -33l-14 -84q-3 -24 -12 -39q-63 -118 -207 -167l-19 -5q-2 0 -4 -2q-10 -6 -16 0q-10 10 -19 31q-7 10 4 10q12 4 15 -4l6 -14q0 -7 8 -4q119 31 181.5 109t62.5 227q0 24 -2 66.5t-2 62.5q0 29 2 43v22 q0 7 -1 23t-1 26q0 60 6 113q2 2 2 12q-16 168 -16 209q0 9 4 23t4 22q0 7 -1 18.5t-1 18.5q0 3 1 10.5t1 10.5q2 2 2 12q-2 14 -2 37q0 22 3 62.5t3 60.5q0 33 -6 103t-6 106q0 29 1 86.5t1 89.5q0 78 -13 123l-8 55q-1 5 2 6t4 -4q37 -68 37 -215q0 -27 -2 -84t-2 -86 q0 -27 3 -81t3 -81q0 -22 -1 -64t-1 -63v-63q0 -80 -4 -103q0 -51 2 -158.5t2 -171.5z" />
<glyph unicode="*" horiz-adv-x="868" d="M874 1055l-8 -6q-94 -37 -180 -84q-9 -3 -12 2q-3 10 4 12q25 14 52.5 27t64.5 29t55 24q7 0 4 8l-6 23q-8 19 -8 38q3 8 -4 25v25h2q2 0 2 -2q10 -20 22 -60t17 -53q1 -1 -5 -8zM346 684l-33 16l-8 5q-9 9 2 12q10 3 21 0l20 -12q8 0 10 2q49 68 101 120q3 9 10 -2 q6 -6 0 -12q-18 -18 -33.5 -36.5t-35.5 -44.5t-29 -38q-6 -12 -19 -12q-1 0 -3 1t-3 1zM629 719l6 4q9 3 14 -2l21 -19q2 -2 10 -2q37 19 70 52q4 4 0 8l-15 24q-9 10 0 19q3 10 13 0l16 -31q1 -3 8 -10q2 -2 0 -10q-4 -6 -11.5 -12.5t-17.5 -14t-16 -12.5l-29 -19 q-7 -7 -18 -10q-11 -7 -23 2zM582 1350l12 -86q0 -2 -2 -2l-4 -2q-14 -4 -17 10q-5 44 -8 53l-4 33q0 11 10 8t13 -14z" />
<glyph unicode="+" horiz-adv-x="1073" d="M682 176q2 2 2 8q0 13 -1 26t-1 19v23q2 2 2 12q-3 25 0 60v118q0 11 9.5 23t21.5 16q6 3 11.5 3.5t14 -0.5t13.5 -1q4 0 15 2t19 2q19 1 63 1.5t77 1.5t61 4q6 0 6 6q0 9 2.5 46t2 45t-2.5 46q0 2 -2 2q-6 0 -6 4v10q0 2 4 6q6 0 6 -4q2 -2 3 -3.5t1.5 -2t1.5 -1l3 -1.5 q10 -3 10 -10q3 -21 1 -72.5t1 -72.5q0 -10 -6 -13q-12 -4 -15 -4q-45 -6 -117 -7t-104 -3q-8 -1 -22 0.5t-19 1.5q-9 0 -26 -10q-4 -4 -4 -11q-2 -92 -2 -266q0 -10 2 -12q0 -6 -3 -9t-6 -3.5t-10 -1t-10 -0.5q-47 -8 -117 -4h-43q-12 3 -12 16v2q0 10 8 10h4q6 0 6 -6 q0 -2 2 -2q29 -4 152 2q4 0 4 4zM195 487q0 5 4 5h12q4 0 4 -5q28 -3 164 -8q10 0 10 -10t-10 -10q-143 5 -170 8q-9 0 -14 20zM702 954q0 -18 -2 -77t-2 -93q0 -8 -8 -8t-8 8q0 13 1 39.5t1 42.5q-1 7 0.5 39t-2.5 45q-2 0 -4 2q-8 0 -8 13v4q0 8 6 8q12 -4 14 -6l6 -6 q1 -3 3.5 -5.5t2.5 -5.5z" />
<glyph unicode="," horiz-adv-x="497" d="M424 2q3 55 0 107q0 4 -1 12.5t-1 13.5q0 3 1 4t1 4q0 2 -2 2q-8 0 -8 9q0 8 6 8q9 0 12 -6v-4q8 -8 8 -17q5 -101 4 -131v-43q0 -7 -4 -27l-6 -28q-3 -13 -24.5 -84t-26.5 -113q0 -6 -4 -10v-2q0 -4 -8 -4q-16 -1 -48.5 1t-50.5 1q-11 -3 -22 8l-2 2q-8 8 -8 12 q0 7 10 7t10 -11l2 -2q12 4 48 1.5t48 -1.5q7 0 7 6q4 28 11 56t17 59.5t15 50.5q1 4 8 26.5t8 33.5v59z" />
<glyph unicode="-" horiz-adv-x="788" d="M717 481q4 19 2.5 79t-0.5 79h-2q-8 -3 -8 6v2q0 12 10 12h2q11 0 14 -12q3 -25 3.5 -51t-0.5 -61t-1 -48q0 -22 -16 -32q-3 0 -5 -1t-3 -1h-41l-41 4q-15 0 -44 -2t-44 -2q-38 3 -115.5 1t-112.5 1q-13 1 -36 3.5t-32 2.5t-32 -2q-6 0 -10 4q-1 3 -3.5 5t-2.5 5v12 q0 2 2 4h6l8 -2q4 -4 4 -6t2 -2q28 0 104 -4.5t121 -1.5q44 1 132.5 1t132.5 1q6 0 6 6z" />
<glyph unicode="." horiz-adv-x="485" d="M416 -70q-5 -8 -17 -8q-134 -4 -190 10q-9 0 -12 13q0 8 10 8h6q4 0 8 -4q0 -2 2 -2q105 -11 174 -4q6 0 6 6q0 3 3.5 37t4 44.5t2 36.5t-0.5 43t-6 33q0 2 -3 2l-2 2v9q0 8 9 8q11 0 14 -8q12 -32 8 -101q-5 -89 -8 -106q-2 -6 -8 -19z" />
<glyph unicode="/" horiz-adv-x="864" d="M752 1071l30 78q13 28 30.5 79.5t21.5 61.5q15 44 22 56q4 4 -2 4h-23q-8 0 -8 10q3 10 15 10l32 -4q9 0 9 -6q2 -2 -2 -17l-7 -10l-28 -73q-36 -99 -41 -111l-41 -113q-10 -31 -21 -55l-14 -39q-1 -7 -4 -14.5t-7.5 -17t-6.5 -13.5q-2 -5 -9.5 -29.5t-13.5 -38.5 l-74 -188q-9 -21 -32.5 -75.5t-36.5 -86.5l-15 -39q-7 -16 -17 -48t-17 -48q-11 -38 -37 -98q-7 -20 -19.5 -59t-19.5 -58l-78 -195q-4 -10 -8 -6q-2 0 -4 -2q-3 -1 -3.5 -3.5t-3.5 -2.5q-31 3 -88.5 0t-89.5 0q-12 3 -6 12q4 4 -2 7v6q0 2 2 4h8q5 2 7.5 -1t1.5 -7 q-4 -4 2 -4q10 0 54.5 2.5t54 2t54.5 -2.5q6 0 9 6q27 82 59 159q19 47 49.5 135t40.5 115q82 229 164 406q1 4 13.5 32t17.5 44q13 43 41.5 121t40.5 114z" />
<glyph unicode="0" horiz-adv-x="923" d="M356 -45l-4 4h10l17 -4l41 -6h6q1 0 4 -1t4 -1h6q11 -1 32 -6.5t34 -6.5q55 -4 103.5 8.5t107.5 37.5q10 4 18.5 8t17 10.5t14 10.5t14.5 12.5t12 12t13 14t13 13.5l6 11l17 22l6 10q3 8 11.5 20.5t10.5 16.5q2 2 2 13l5 16q12 38 16 94q0 22 -4 72q0 21 3.5 69.5 t2.5 73.5q0 11 -2 34t-2 36q0 9 -2.5 31.5t-1.5 35.5q0 4 1 12.5t1 12.5q-11 131 -2 268q0 82 -10 160l-7 49q0 2 -2 4q-2 4 -2 17t-4 45v2q-1 4 1.5 4t2.5 -2q18 -31 27 -80q16 -139 12 -416q0 -65 2 -98q10 -117 2 -211q0 -12 -1 -30.5t-1 -26.5t2 -26t2 -26 q0 -27 -14 -104q-7 -27 -14 -39q-3 -5 -10 -19t-11 -20t-10.5 -17t-14 -20t-16.5 -18q-55 -58 -106 -78q-41 -17 -67.5 -25.5t-67.5 -14.5t-82 -1l-39 6q-8 2 -19 3.5t-18.5 3.5t-13.5 6q-4 4 -11 4q-1 0 -2 1t-2 1q-22 3 -37 12zM412 995q0 -20 1.5 -71t0.5 -80 q-2 -88 -2.5 -106t2 -109t2.5 -109q0 -13 1 -31.5t1 -29.5q4 -32 4 -85v-67q0 -11 -10 -4q-9 13 -11 27v39q0 5 2.5 16t2.5 16q-1 12 -4 50.5t-3 60.5v43q-3 37 -3 82t1.5 103t1.5 91l1 59q0 58 -1 58q-4 85 2 113q3 11 5.5 16.5t9.5 14.5t8 10l12 12q5 5 17 8l4 4l24 15 l15 6h2h6l6 -4l4 -4q2 -1 -2 -4q-26 -1 -56 -24t-38 -46q-6 -16 -6 -70z" />
<glyph unicode="1" horiz-adv-x="665" d="M360 -68l-4 11q0 10 9 10h2q8 0 8 -8q0 -2 2 -2q63 -6 207 6q6 0 6 6q-4 47 2 127.5t6 97.5q0 14 -2 39t-2 39q0 28 -1 80t-1 74q-1 22 0.5 61.5t1.5 52.5q1 59 0 121t-3 135t-3 109q-1 45 -3.5 156.5t-2 148t3.5 150.5q0 4 -4 4h-4q-10 0 -7 8q0 8 9 8h2q14 0 14 -6 q2 -2 2 -4q4 -20 4 -27q0 -22 -4 -84q-1 -19 4 -125q3 -31 2 -96.5t2 -103.5q0 -5 -1 -14.5t-1 -14.5q0 -20 2 -58t2 -57q1 -11 0 -30.5t0 -30.5q0 -8 2 -26t2 -27q1 -70 -0.5 -192.5t-1.5 -160.5q0 -7 6 -112q0 -6 -6 -105q-4 -98 -4 -143q0 -3 -2 -5t-2 -5q-7 -7 -8 -7 q-142 -13 -205 -6q-4 1 -12 1t-12 1q-5 0 -5 4zM160 1024q23 14 69 31q9 3 9 -6q0 -10 -9 -13l-57 -26q-15 -12 -29 2q-7 11 -10 28q0 12 8 15q11 3 13 -4v-23q0 -4 6 -4z" />
<glyph unicode="2" horiz-adv-x="880" d="M569 461l-10 -12q-45 -48 -86 -138q-3 -10 -16 -10q-9 0 -6 10q18 33 61.5 95t54.5 79q24 36 82 108t99 134q3 6 24 33q21 26 42.5 72t33.5 92l16 67q2 14 2 45q0 38 -10 80l-6 41q0 3 -1 10.5t-1 10.5q0 5 2 5.5t4 -3.5q29 -63 29 -117q0 -107 -39 -207q-5 -17 -19 -35 q-24 -54 -77 -125l-11 -14q-9 -20 -31.5 -53t-43.5 -51l-11 -13q-9 -15 -31.5 -38.5t-31.5 -39.5zM850 -55q12 78 12 131q0 35 -6 65l-6 25q0 6 -2 8q0 6 6 6l10 -6q8 -15 13.5 -48t5.5 -44q0 -145 -29 -160q-3 -1 -5 1.5t-5 2.5q-6 2 -45 2q-25 0 -79.5 -3t-82.5 -3 q-19 0 -54 1t-55 1q-35 0 -101 -2t-97 -2q-1 0 -2 1t-2 1q-7 0 -19.5 -1t-19.5 -1q-16 0 -50.5 2t-52.5 2h-18q-6 0 -12.5 4.5t-6.5 10.5q0 4 -2 6q-3 10 7 10t10 -12v-2q0 -4 4 -4q14 2 43 2q17 0 46 -1t44 -1h18l207 4q20 0 56 -1t55 -1q36 0 107.5 3t107.5 3zM139 895 q-2 2 -4 8q-3 8 6 8h6q3 0 7 -4h2q55 -10 112 -10q49 0 90 8q9 3 9 10q0 206 96 246q7 4 10 -4q6 -6 0 -6q-42 -19 -64 -80t-22 -143q0 -9 -2 -16t-7.5 -12t-10 -9t-13.5 -6t-14.5 -3.5t-16.5 -2t-16 -0.5h-16.5h-14.5q-42 0 -124 12q-9 0 -13 4z" />
<glyph unicode="3" horiz-adv-x="919" d="M885 281v41q3 53 -2 81q-2 14 -2 39l-7 41q-8 38 -8 41l-6 45q0 5 2 5.5t4 -3.5q35 -82 39 -247v-16.5v-20.5t-0.5 -21t-1 -23t-1.5 -21.5t-3 -22.5t-5 -19t-6.5 -18.5t-8.5 -14.5q-8 -8 -11 -14q-32 -60 -65.5 -100.5t-79.5 -69.5q-22 -11 -37 -16q-7 -3 -22 -7.5 t-23 -7.5l-16 -6q-16 -4 -17 -4t-4 -1t-4 -1h-33q-28 -4 -41 -4q-1 0 -35 1t-53 5q-65 11 -100 27q-7 2 -1 6q2 1 5 0q3 0 9 -1t9 -1l19 -2q7 -1 14.5 -2.5t14.5 -3t10 -2.5l14 -4q74 -11 131 -2q4 0 12.5 1t12.5 1h8q15 -2 39 8q10 4 23 7.5t23.5 7t20.5 9.5q68 37 119 115 q45 70 49 92q15 38 15 103zM170 895q-1 4 -4 5l-2 1q-6 6 2 6h4q2 0 6 -4h2q97 -14 207 -2q7 0 10 8q3 21 4 63.5t4 65.5q6 49 35.5 83.5t75.5 41.5q2 0 4 -2l2 -2l4 -6l2 2l-2 2h2v-4q2 -2 2 -6q-2 0 -4 -2q-3 0 -7 -1t-7 -1q-12 0 -14 -2q-58 -24 -76 -111q-4 -15 -4 -82 q0 -22 -6 -43q-3 -21 -25 -24q-24 -5 -55 -2q-8 3 -17 0q-39 -6 -135 6q-7 7 -8 10zM881 817l-9 -16q-32 -78 -57 -101q-8 -3 -10 2q0 9 2 11q29 37 45 78q23 51 31 102q4 31 0 123q-4 63 -13 98l-4 43q-1 5 2 6t4 -4l11 -20q4 -10 7 -21t4.5 -24.5t3 -23t2.5 -26t1.5 -24 t1 -26t0.5 -23.5q8 -75 -22 -154zM410 403q4 -20 4 -58.5v-47.5q0 -4 -3 -5t-5 1q-9 9 -9 18t0.5 25t0.5 28.5t-1 22.5q0 6 -4 2q-10 0 -10 10v2q0 12 10 9h4q3 -1 6 -3q4 -1 5 -1q2 0 2 -3zM442 559l-4 8q0 4 4 4q7 0 9 -2h2q4 0 4 -4q2 -2 4 -2q7 -3 16.5 -4t21 -1 t17.5 -1q3 0 4 -1t1 -4t1 -5q6 -6 -2 -6q-21 8 -45 8h-16q-14 -4 -17 10z" />
<glyph unicode="4" horiz-adv-x="952" d="M930 193q21 78 4 213q0 2 -2 2q-4 0 -4 4q0 3 -1 6t-1 6l2 2q4 0 6 -2q4 -4 4 -6l6 -6q6 -2 10 -13q13 -134 -4 -202q-3 -23 -24 -23q-15 -3 -30 -3.5t-34 0.5t-26 1q-9 0 -9 -8q-3 -31 0 -94.5t0 -104.5q0 -6 -4 -26q-3 -21 -26 -21q-116 -11 -201 8q-11 0 -14 13v2 q0 6 8 6h8l2 -2q0 -2 2 -2q100 -15 197 -4q8 0 8 8q3 33 0.5 119.5t3.5 119.5q0 9 6 9q3 0 9 -2.5t12 -2.5q15 -1 47.5 1t44.5 2zM823 713v-17q4 -33 4 -149q0 -8 -8 -8t-8 8v28q0 23 -3 69t-3 69q0 11 1 30t1 31q-2 18 -2 57q0 23 3 66.5t3 52.5q10 218 2 393q0 5 -4 5 q-12 0 -12 12q0 11 10 8q11 0 20 -6q4 -4 4 -10q0 -3 -1 -5.5t-1 -5.5q-2 -28 -1.5 -42t3 -45t3.5 -44q0 -18 -5 -96q0 -10 1.5 -25.5t0.5 -25.5q-3 -8 0 -16q1 -15 -1.5 -45t-2.5 -41q0 -3 1 -7l1 -4q0 -1 -6 -55q-1 -21 1.5 -91.5t-1.5 -90.5zM139 188q-2 2 -2 7 q0 10 10 10q9 3 13 -8v-2q0 -5 4 -5q97 8 209 5q31 -2 82 -2q8 0 8 -9q0 -8 -8 -8q-20 0 -56 -1t-53 -1q-18 0 -52 1t-52 1q-13 0 -41 -2.5t-45 -1.5q-17 0 -17 16zM453 545l8 26q6 6 6 -2v-22q0 -10 -10 -10q-7 0 -4 8z" />
<glyph unicode="5" horiz-adv-x="919" d="M879 274v41q-4 56 0 74q3 34 -3.5 94t-7.5 80q0 33 -6 60l-2 8q-3 13 -6 38t-6 38q0 8 6 2q14 -27 23 -67.5t11.5 -64t6.5 -81.5l4 -58q1 -13 -0.5 -38t-1.5 -35q0 -17 -1 -48.5t-1 -46.5q-1 -8 0.5 -31.5t-2.5 -31.5l-4 -17q-1 -10 -17 -47q-26 -56 -77 -120l-21 -17 l-16 -16l-10 -8q-3 -2 -14 -11t-19 -12q-85 -39 -197 -39q-103 0 -153 21q-3 2 -41 18h-2v2q2 0 17 -3t23 -3q7 -1 14.5 -2.5t14.5 -3t10 -2.5q27 -6 56 -6q83 -3 147 6q75 10 101 25l12 8q4 3 11 11t11 11q20 12 29 21q27 27 43 53q1 2 14.5 22t17 26.5t12 22.5t12 29 t5.5 27q2 8 7 71zM418 1108q-1 -19 4 -127q0 -2 -2 -2l-6 -2q-4 -4 -9.5 0t-5.5 10v80q0 5 -1 25.5t0 32.5t5 16q3 3 12.5 3t19.5 -1t18 0q225 17 364 2q7 0 10 8q22 87 2 188q-2 0 -2 2v11q0 6 7 6t10 -6l6 -15q21 -99 -2 -192l-6 -12v-5q-3 -6 -13 -6q-160 17 -395 -6 q-16 0 -16 -10zM180 612v4q-7 11 8 11q2 -2 5 -2q8 0 8 -9q2 -2 4 -2q31 0 90 -1t94 -1q8 0 14 6q7 8 17 13.5t24.5 12t22.5 11.5q7 7 18 9q2 2 11 2q4 0 6 -2l2 -7q3 -9 -6 -12q-7 -3 -22.5 -7t-22.5 -7q-12 -5 -37 -25q-17 -14 -35 -14q-28 0 -90 2t-94 2q-9 0 -9 4l-2 2 q0 3 -2.5 5t-3.5 5zM401 352q-1 -8 -1 -16.5t0.5 -18.5t0.5 -14q0 -5 -2.5 -7.5t-7.5 1.5q-10 10 -10 29q0 12 1 33t1 32q0 4 -4 4q-10 3 -10 15q0 11 12 8q12 -2 18 -8q3 -4 3.5 -14t-0.5 -25.5t-1 -18.5z" />
<glyph unicode="6" horiz-adv-x="927" d="M893 289v41q2 6 2 24q0 85 -8 148q0 15 -2.5 31.5t-8 39t-6.5 29.5q0 5 3 5.5t4 -3.5q12 -22 18 -47q16 -49 16 -221q0 -183 -82 -287l-32 -31q-82 -85 -202 -101.5t-226 36.5q-2 0 -2 1.5t4 0.5l28 -4q7 0 21 -8q3 0 13 -2t18 -2q35 -9 53 -9q54 -16 132.5 10.5 t129.5 69.5q9 14 34.5 38.5t42.5 45t32.5 72t17.5 123.5zM676 885q-7 7 -8 10q-2 3 2 4q12 0 14 -2q65 -10 109 -10h14.5h15.5t14.5 0.5t15 1.5t13 2.5t11.5 5t8 7.5t6 10t2 14q0 84 -16 166q-3 36 -11 69l-16 49q0 3 -2 5h2l33 -84l16 -50q12 -62 12 -122v-48 q-4 -26 -18 -32q-40 -13 -102 -13q-45 0 -86 9q-21 0 -29 8zM410 1044v-16q0 -21 4 -69.5t4 -73.5q0 -8 -8 -8q-9 -3 -9 6q-1 15 -5.5 71t-4.5 88t30 66t75 45q8 3 18 -4q3 -8 -4 -8q-92 -10 -100 -97zM395 434q0 107 101 129q7 2 16 -4q4 -7 -4 -10q-96 -12 -96 -90 q0 -8 2 -29t2 -33q0 -15 -1 -47t-1 -47v-14q0 -5 -3 -5.5t-8 3.5q-8 8 -8 26v4q0 12 1 37t1 41q0 7 -1 19.5t-1 19.5z" />
<glyph unicode="7" horiz-adv-x="868" d="M723 870q27 66 64.5 150t70.5 141q0 4 -2 6v17q-4 11 -1 84.5t3 81.5q0 6 -4 2h-2q-8 0 -8 8q0 9 8 6h8q6 1 10 -3.5t4 -10.5q0 -15 -1.5 -48.5t-1.5 -63.5t3 -58q2 -15 -8 -39q-42 -65 -59 -123l-16 -37l-7 -10q-2 -2 -2 -6q0 -1 -4 -17q-6 -12 -19 -47t-26 -53l-6 -14 q-7 -30 -31 -86.5t-32 -87.5v-5l-11 -41q-4 -13 -10 -49t-14 -55q-19 -62 -27 -96q-6 -28 -11 -60.5t-10 -76t-8 -66.5l-16 -88q-4 -66 -4 -102q0 -3 1 -8.5t1 -8.5t-1 -6t-1 -6t2 -9.5t2 -9.5q0 -7 -1 -19t-1 -19q-4 -25 -18 -27q-6 -3 -14 -3.5t-19 0.5t-15 1h-81 q-19 1 -49 7t-42 7q-10 0 -10 6v4l-6 7q0 6 4 2h12q2 0 2 -2q57 -10 109 -13q12 0 33.5 -1.5t38 -1.5t30.5 3q9 3 9 11q0 5 -1 14.5t-1 13.5q0 2 2 2q-2 2 -2 4q0 15 -1 42.5t-1 45.5q0 24 3 49.5t8 55t7 45.5l20 153q7 51 33 140q7 24 18.5 73.5t18.5 75.5q21 72 47 133 q5 9 11 26t8 21q7 27 14 39zM145 1139q0 1 -1 3t-1 3q-3 8 9 8l2 -2q5 0 8 -6q2 -2 4 -2q5 0 73.5 -0.5t73.5 0.5q11 0 31.5 -0.5t37.5 -0.5t32 1q7 0 21.5 1t21.5 1q5 0 7.5 -2.5t-1.5 -7.5q-4 -11 -17 -11q-68 -4 -90 0q-24 1 -66.5 -1t-66.5 -1q-28 4 -45 2h-18 q-12 0 -15 15z" />
<glyph unicode="8" horiz-adv-x="923" d="M340 -49v4q0 2 2 2q35 -9 68 -12l41 -6q71 -12 153 0q72 11 105 26q41 21 88 76q35 35 39 45l10 27q18 44 22 67q15 94 15 197v59q0 25 -6 49q-5 35 -5 41l-4 33q0 5 2 5q1 -1 2 -3l9 -18q0 -1 1 -3t1 -3q13 -30 14 -39q4 -19 5 -42.5t0.5 -54t0.5 -47.5q3 -52 -6 -98 q-14 -139 -63 -205q-56 -56 -103 -90q-14 -12 -37 -18q-95 -40 -198 -31q-76 9 -131 29q-19 6 -25 10zM827 725l-12 -14q-5 -5 -12 -2q-6 6 0 16q49 60 69.5 131.5t20.5 128.5q0 92 -8 131l-6 17v45l2 -2q20 -40 24 -52q4 -18 4 -92q4 -72 0 -94q-3 -48 -16 -88 q-18 -59 -29 -78q-5 -8 -18.5 -23.5t-18.5 -23.5zM494 553h2q12 6 22 -4q6 -6 -4 -12q-30 -13 -35 -17q-16 -8 -26 -28q-39 -51 -35 -158q0 -7 -1 -20.5t-1 -20.5q0 -4 -3 -5t-5 1q-9 9 -9 22q0 94 7 121q0 10 20 57q11 20 43 52q11 9 25 12zM422 1094q19 42 70 57 q7 2 16 -4q7 -10 -4 -14q-25 -8 -51 -31q-19 -15 -21 -21q-6 -12 -8 -22l-4 -17q-10 -76 -2 -137q2 -6 -4 -7q-3 0 -4 3q-3 5 -8 19t-7 18q-4 28 -4 41q3 64 31 115z" />
<glyph unicode="9" horiz-adv-x="935" d="M897 365q3 14 4 28.5t1 33t1 28.5q0 12 -2 16q-6 30 -2 109q0 8 -1.5 30t-0.5 35q2 4 2 17v40q0 6 3.5 61t-1.5 64q-1 13 0 36t0 34l-8 119q0 25 -2 31l-6 40l-2 19q-4 54 -9 68h-2v10q0 6 3 6q2 -1 2 -4q3 -3 5 -9.5t5 -9.5q8 -13 12 -30q1 -2 6 -39q6 -32 10 -94.5 t5 -77.5q4 -37 2 -54q0 -20 1 -54t1 -54q0 -31 -2 -94.5t-2 -98.5q0 -7 -1 -20.5t-1 -20.5q5 -97 4 -108q0 -17 -4 -46.5t-5 -41.5q-3 -87 -24 -166q-12 -44 -22 -67t-31 -50q-13 -22 -29 -39q-39 -28 -41 -30q-5 -3 -9.5 -10t-6.5 -9q-63 -47 -201 -47q-13 0 -37 3t-35 3 q-42 3 -82 12q-29 5 -61 23q-6 2 -3 5q2 1 5 1q20 -5 63 -10q24 -6 72 -10q9 -1 24.5 -2.5t28.5 -2.5t25 -1q39 0 127 18l16 4l35 12q2 0 8 6l19 19q37 28 51 47q41 51 57 98l10 45q1 4 8.5 36t8.5 50l6 52q0 7 1 20.5t1 20.5zM444 1122q33 26 66 35q2 0 4 -2q2 0 4 -2 q12 -9 21 -12v-2h-17q-10 -2 -19 -5t-19 -9.5t-14.5 -9.5t-16.5 -12.5t-13 -10.5q-6 -6 -8 -13q-7 -24 -9 -38t-2.5 -38t-2.5 -47q-3 -34 0 -69q0 -4 -3 -5t-5 1q-4 4 -4 8h-3q-6 10 -6 33v22q2 14 1.5 45t3 57t14.5 44q6 14 28 30zM399 549l-37 16q-2 2 -4 2q-12 4 0 4 q63 -15 74 -16l20 -1q21 0 21 1q4 1 15.5 3.5t19.5 2.5q3 0 33 6q10 3 10 -8q0 -9 -8 -12l-15 -6h-16l-25 -6q-42 -8 -88 14zM418 397q0 -77 8 -116q0 -2 -4 -2q0 2 -2 4q-12 18 -21 55v-2q0 1 -1 4t-1 4v49l-2 2q-6 0 -6 6q0 3 -2 5q0 6 6 6q13 0 15 -2l2 -2q8 0 8 -11z " />
<glyph unicode=":" horiz-adv-x="487" d="M414 616h-43q-27 -1 -78.5 0.5t-71.5 1.5q-17 0 -20 15v6q-1 3 0 5t3 3t5 0h4q8 0 8 -8q0 -2 6 -2q7 1 87.5 0.5t82.5 -0.5q9 0 9 8q12 108 -3 184q0 2 -2 2l-2 3v8q0 12 11 8h8q6 -6 8 -12l4 -29q3 -37 0 -72q0 -73 -4 -94v-12q3 -15 -12 -15zM207 -57q0 8 8 8h6 q5 0 8 -6q0 -2 2 -2q23 -5 87.5 -2t84.5 2q9 0 9 8q7 82 -2 192q0 2 -2 2q-5 0 -5 5v6q0 7 9 10q3 0 5 -2.5t5 -3.5h2q6 -6 6 -15q8 -65 4 -196q0 -13 -6 -19q-5 -8 -18 -8q-31 3 -91.5 0.5t-93.5 1.5q-5 0 -8 6l-2 2q-8 8 -8 11z" />
<glyph unicode=";" horiz-adv-x="501" d="M428 -68q1 6 1 15t-0.5 20t-0.5 15q-3 28 -3 55t1.5 56.5t1.5 45.5q0 4 -4 4q-8 -3 -8 7v2q0 10 8 10q6 0 8 2h4q6 0 6 -2q2 0 2 -4q1 -3 4 -6.5t3 -6.5q-5 -46 -5 -182q4 -42 -4 -55l-6 -14q-26 -103 -55 -177q-9 -18 -27 -18h-80q-9 0 -18 6q-6 6 -6 14q0 11 8 11h4 q8 0 8 -9q0 -4 4 -4h80q8 0 11 9q31 105 43 135q3 7 6 22.5t6 22.5q2 2 2 8q6 9 6 18zM213 625q-2 0 -2 2l-4 12q0 10 8 10h6q6 0 6 -6q2 -2 4 -2q32 -3 94.5 -3t73.5 -1q9 0 9 8q1 20 3.5 60.5t2.5 57.5t-2 60l-2 2q-7 0 -7 6v5q0 14 11 10q1 0 2 -1t2 -1q0 -4 4 -4 q7 -4 10 -17q7 -60 -6 -184q-4 -25 -23 -25l-26 4q-9 0 -71 0.5t-91 4.5q-2 0 -2 2z" />
<glyph unicode="&#x3c;" horiz-adv-x="796" d="M496 635q-8 -4 -25.5 -15.5t-26.5 -15.5q-5 -5 -8 -2q0 2 -2 2h-4q-4 2 -4 6t4 6t12 9q8 3 37 20l13 8q56 29 153.5 91t116.5 73q8 3 8 12q9 89 0 175l-2 2q-6 0 -6 4v2q0 9 6 12q2 2 10 2q8 3 8 -6v-2q-4 -4 0 -4v-2q2 -2 2 -8q5 -19 5 -109q1 -7 -5 -82q0 -10 -12 -10 l-22 -12q-33 -18 -68 -43q-32 -22 -92.5 -56.5t-83.5 -48.5q-3 -1 -7 -4t-7 -4zM778 133q-3 28 2 93.5t-4 84.5l-2 2q-6 0 -6 6v9q0 4 4 4q16 -3 25 -25q6 -27 1.5 -92.5t-1.5 -87.5q3 -10 -6 -16q-5 -5 -15 -2l-37 22q-9 3 -2 10t13 0l20 -12q8 -3 8 4z" />
<glyph unicode="=" horiz-adv-x="1124" d="M1049 719q1 14 -1.5 71.5t1.5 81.5q0 5 -5 5h-2q-8 3 -8 10q0 10 8 10h9q14 -3 14 -20q-2 -25 2 -93q0 -8 -1.5 -20.5t-1.5 -22.5t3 -20q0 -2 2.5 -7.5t2 -7t-2.5 -6.5q-3 -3 -7.5 -3t-10 1.5t-7.5 1.5q-7 0 -27.5 -3t-27.5 -3q-11 -1 -40 -1t-44 -1q-35 -5 -141 0 q-75 3 -261 2.5t-278 3.5q-7 0 -18 7q-1 3 -4.5 5t-3.5 5v4q0 10 10 10h2q8 0 8 -8l2 -2q39 -4 168 -4q12 0 38 -1t40 -1q40 -1 123 0t123 0q15 0 46 -2t48 -2q147 0 242 10zM958 252q15 1 82 -4q9 0 9 8q0 22 -1.5 72.5t-0.5 79.5q0 4 -5 4q-8 0 -8 8t8 8q5 0 5 -2 q14 0 14 -14q6 -68 6 -154q0 -9 -8 -20q-13 -10 -21 -7q-7 5 -75.5 1.5t-81.5 -3.5h-50q-14 0 -16 2t-8 2q-16 -4 -21 -4q-16 0 -43 1t-43 1q-50 0 -73 2q-14 -5 -190 -4.5t-210 0.5q-17 0 -20 15v6q-3 10 8 10h2q8 0 8 -8q4 -4 6 -4q40 1 121 0t121 0q16 0 68.5 1.5 t81.5 0.5q241 -5 335 2z" />
<glyph unicode="&#x3e;" horiz-adv-x="796" d="M467 289l35 20q207 118 278 162q6 3 6 12q0 18 -2.5 67.5t-1.5 78.5q0 4 -4 4q-10 0 -10 12q0 9 8 6h6q4 -4 4 -6l5 -4q8 -3 8 -10q-3 -23 2 -80.5t2 -83.5q-3 -9 -12 -12q-7 0 -9 -2q-21 -15 -41 -25q-7 -3 -15 -9t-15 -9l-21 -11q-28 -16 -33 -22l-12 -6l-14 -6 q-3 -3 -56 -35q-42 -27 -81 -47q-26 -14 -89 -43.5t-98 -51.5l-24 -12q-10 -5 -15 -10q-18 -16 -53 -37q-24 -14 -31 -20q-3 -2 -8.5 -6.5t-9.5 -7.5t-9 -4.5t-8.5 1t-5.5 10.5v29q0 6 -2 8v2q0 12 9 15q4 4 7 2.5t3 -6.5v-27q3 -9 8 -4l78 51q29 21 66 40.5t84 41.5t71 35z " />
<glyph unicode="?" horiz-adv-x="1001" d="M856 801l43 69l6 15q26 66 29 145q3 16 0 31q-3 11 -4 30.5t-4 28.5q0 1 -3 17t-3 24v2q-5 34 -7 39q0 9 7 2q3 -4 6 -12.5t6 -13.5q1 -8 9 -39.5t9 -51.5q9 -80 -12 -151q-7 -36 -27 -82q-17 -30 -90 -131q-14 -19 -27 -39.5t-31 -54t-24 -43.5q-4 -7 -20 -33t-22 -38 t-14 -35.5t-11 -47.5q-3 -17 2 -50t4 -46q-2 -6 -10 -14q-3 -1 -6.5 -4t-6.5 -3q-106 -12 -213 9q-8 3 -8 10q0 2 2 2q0 8 6 8h7l2 -2q0 -2 2 -2q111 -16 198 -6q8 0 8 8q3 22 -1.5 52.5t-4.5 41.5q0 6 4 14t5 11q0 2 -0.5 6t-0.5 7.5t1 6.5q7 19 17.5 39t25.5 45t22 39 q3 5 30.5 54.5t45.5 72.5q45 57 53 70zM211 920q0 8 8 8h8q2 0 2 -2q108 -24 211 -2q9 3 9 10q0 11 -0.5 35.5t-0.5 37t1.5 31t5.5 35.5q6 30 10 37q22 36 72 51q2 2 8 2q4 4 8 0l10 -8l2 -2q4 -4 -2 -4q-26 -4 -50.5 -19.5t-35.5 -33.5q-6 -14 -10 -41q-3 -22 -4 -63 t-4 -64q0 -22 -23 -25q-98 -12 -145 -6q-54 4 -72 12q-8 3 -8 11zM645 -49q16 137 6 203q0 2 -2 2q-4 -4 -4 2v4q0 10 8 10h2q12 0 15 -10q14 -63 -2 -189l-6 -22q-4 -25 -19 -25q-25 -4 -81.5 -3.5t-82.5 -2.5q-15 0 -26 8q-10 3 -13 13v6q-1 1 0.5 3.5t3.5 2.5h2q6 0 9 -6 q0 -2 2 -2q103 -9 178 -2q7 0 10 8z" />
<glyph unicode="@" horiz-adv-x="1996" d="M389 539v-17q0 -128 21 -223q0 -6 -4 -2q-28 74 -37 147v27q0 375 235 610l80 74q18 20 59 45l27 17l12 8h6l15 6q133 74 334 74q17 0 47.5 -4t42.5 -5l55 -6l55 -14q37 -8 90 -31q5 -1 4 -3t-6 -1q-60 13 -102 27q-68 18 -199 18q-64 0 -82 -4l-12 -2q-28 -4 -41 -4 q-53 -3 -103.5 -21t-99 -50.5t-81 -59t-79.5 -68.5q-13 -12 -20 -18q-5 -5 -10 -15q-11 -16 -48.5 -64t-53.5 -73l-25 -43q-67 -136 -80 -325zM1876 436l16 37q18 45 28.5 137.5t10.5 167.5q0 98 -24 187q-8 53 -25 112q0 2 2 2q53 -131 64 -278v-23q0 -147 -35 -293 q-55 -156 -159 -261t-243 -105q-89 0 -139 20l-31 15q-2 2 -4 2t0 2l37 -6q10 -1 25 -5t16 -4q36 -8 88 -8q61 0 109 19l37 20q93 51 133 105l28 43l17 18q34 45 49 96zM696 -289l-57 23q-1 2 0 3t2 -1l41 -10q49 -14 94 -17q68 -14 113 -14h12q2 0 6 -4q0 -4 4 0q16 4 23 4 h35q168 8 334 74q9 0 6 10q-3 27 -11 45q0 4 -1 12t-1 12q0 3 -2 11t-2 12q-5 39 -8 47h2q3 -7 12 -31t13.5 -37t9 -31t4.5 -30q0 -10 2 -12v-13q0 -14 -6 -14l-8 -4q-6 0 -8 -2q-27 -9 -37 -14q-115 -42 -357 -58q-13 2 -43 4.5t-55 6.5t-47 10zM1425 702 q-4 -35 -18.5 -123.5t-17.5 -142.5q0 -9 -9 -6q-9 6 -6 16l4 27q27 103 27 283q0 119 35 229q0 8 -6 8q-1 0 -4.5 1t-4.5 1q-15 0 -8 11q3 12 10 8q29 -10 29 -13q0 -12 -4.5 -34t-5.5 -33q-18 -92 -21 -232zM848 555v45q5 46 26.5 95.5t63 93.5t92.5 57q20 3 31 -8 q4 -5 1.5 -9t-7.5 -6q-176 -18 -191 -286q0 -4 -3 -5.5t-5 0.5q-8 8 -8 23zM971 211q-57 0 -113 27q-4 2 -3.5 4t5.5 2q4 0 11.5 -1t11.5 -1q20 0 41 -6q13 -5 51 -5q40 0 72 13l38 18q7 3 22.5 7t22.5 7l13 5q5 3 10 -2q3 -9 -2 -11l-2 -2q-2 -2 -19 -10q-92 -45 -159 -45z " />
<glyph unicode="A" horiz-adv-x="1034" d="M1001 63h-2v11l-6 37l-10 47q-6 23 -14.5 70.5t-10.5 56.5l-14 71l-18 60l-13 39l-6 34q-3 14 -7 42t-7 42q-28 134 -41 187q-22 87 -27 110l-8 48q-1 4 -2 9l-1.5 7.5t-0.5 3.5q-3 12 -6 35t-6 35l-29 120h2l-16 56l-10 73l-11 31q-6 25 -16 74q-2 5 2 9t8 3 q7 -2 10 -18q7 -56 37 -182l10 -66l17 -59q3 -12 41 -191q12 -62 39 -180.5t39 -183.5q9 -45 20 -115q3 -17 14 -48t15 -46q4 -18 18 -89.5t23 -109.5l10 -51l8 -49q0 -6 3.5 -17t4 -16.5t-5.5 -15.5q-15 -12 -37 -9h-20q-91 -10 -174 -2q-6 0 -10 4q-7 7 -7 11q0 1 -1 3 t-1 3q0 8 9 8q7 0 10 -8q83 -6 172 0q4 0 6 2h29q7 2 10 12q0 5 -2 14.5t-2 14.5q-2 2 -2 10q-1 3 -2 6.5t-1.5 5t-0.5 2.5v11l-9 34v4zM137 -70q-1 1 -0.5 6.5t0.5 6.5q3 6 8 6q7 0 7 -6v-2q49 -6 153 -2h23q7 3 23 2.5t18 3.5q6 7 9 17.5t5 25.5t4 22l4 17q3 29 12 55 l17 72q3 8 5 25t5 24q9 18 31 18q6 0 147 6q13 0 13 -10q3 -10 -9 -10q-153 -6 -163 -6q-7 -30 -19.5 -90t-19.5 -88l-4 -19q-1 -5 -3.5 -20t-4.5 -22.5t-7.5 -17t-13.5 -14.5q-7 -6 -20 -8t-25.5 -1.5t-26.5 -0.5h-22q-94 -4 -133 2q-13 3 -13 8zM502 578l8 32q3 12 7 34.5 t7 33.5q0 4 3 4t3 -4q0 -1 1 -3t1 -3q3 -21 0 -41l-12 -53q-3 -9 -12 -9t-6 9z" />
<glyph unicode="B" horiz-adv-x="1015" d="M217 -49v-4q24 1 74.5 -1t73.5 -1q19 1 103 1t126 3h76q75 4 106 18l12 4q21 3 37 19l4 4q3 2 11.5 7.5t11.5 8.5q5 5 20 17t21 20q22 28 39 74q24 45 31 84q31 114 22 188q-2 12 -6 44.5t-8 49.5l-4 15l-2 18l-2 15q0 5 3 5q2 -1 3 -3q19 -37 22 -50l4 -38l4 -43 q0 -12 5 -52q1 -10 -3 -41l-2 -14q0 -1 -1 -14t-5 -19q0 -51 -35 -127q-1 -3 -9.5 -23.5t-12 -28t-11.5 -21t-16 -23.5q-8 -11 -19 -21t-30 -23.5t-22 -16.5q-2 -4 -4 -7t-6 -5.5t-6.5 -4t-8 -3t-8.5 -2.5t-9.5 -2.5t-9.5 -2.5q-7 -6 -16.5 -9t-23.5 -5t-21 -4 q-44 -7 -80 -7q-17 0 -52.5 1.5t-63 1.5t-46.5 -3q-8 0 -27.5 -1t-31.5 -1q-44 -2 -131 2q-9 0 -24 -1.5t-26.5 -1.5t-19.5 3l-16 9q-8 3 -8 10q0 10 8 10q10 3 10 -8zM942 811q-14 -49 -47 -100q-8 -8 -14 -2q-8 6 0 14q2 3 7 13.5t10 18t11 13.5q4 17 17.5 57t20 73 t3.5 65q-5 68 -8 81l-6 37l-6 41l-10 56q0 4 2 4t2 -2l4 -9l18 -43q4 -17 19 -122q13 -96 -23 -195zM455 1120q-1 -17 1.5 -60.5t-1.5 -58.5q3 -9 0 -22q4 -70 4 -92q0 -10 -10 -10q-11 4 -11 12q1 37 -1 111t-1 114q0 24 19 27q8 1 24 1t28.5 1t22.5 4q14 2 48 2q2 0 2 -2 q2 0 2 -2l2 -8q0 -9 -9 -9q-22 0 -65 -3.5t-55 -4.5zM573 541h31q11 0 14 -9q8 -8 -4 -8q-2 -2 -18 -2q-19 0 -45.5 1.5t-45.5 1t-44 -4.5q-5 -70 0 -233q0 -11 -10 -11q-11 0 -11 11v37q0 108 2 188q0 21 21 27q15 3 31.5 3.5t41.5 -0.5t37 -1z" />
<glyph unicode="C" d="M418 324v-13q0 -6 -5 -7q-2 0 -3 3q-9 9 -9 27v41q0 31 5 39q-7 39 -7 108v4q0 12 -1 27t-1 27q0 15 2 47.5t2 50.5q0 13 -1 39.5t-1 42.5t1 48t1 48q0 19 -3 59.5t-3 61.5q0 157 135 172q10 0 19 -6q3 -8 -4 -8q-131 0 -131 -138q0 -20 3 -61.5t3 -65.5q0 -53 -2 -154.5 t-2 -148.5q0 -34 2 -94.5t2 -87.5q0 -11 -1 -30t-1 -31zM920 229q2 23 2 68v111h-11q-8 0 -8 10q0 5 2 7t6 1q7 0 9 -2q14 -3 14 -23v-63q0 -9 1 -28.5t1 -28.5q-5 -108 -29 -154l-35 -64q-10 -18 -24.5 -32t-39.5 -31t-36 -25q-76 -57 -197 -61q-24 0 -38 2q-9 1 -25.5 1 t-30.5 1t-26 4q-64 8 -107 31q-4 1 -3 3t5 1q5 -1 11.5 -2t10 -1.5t5.5 -0.5q12 0 14 -2q54 -14 90 -14q2 0 9.5 1t13.5 1q5 0 33.5 -3.5t44.5 -3.5q22 0 45 4.5t51.5 13t40.5 11.5q3 2 18.5 11t21 13t21 14.5t23 17t22 19t22.5 23t20 25.5t19 30.5t14.5 34.5t12.5 39 q2 4 7 41zM766 874q-67 0 -86 17q-4 4 -4 8q0 6 4 6h10q4 0 4 -4q39 -10 90 -10q45 0 123 10v66q0 93 -4 114q-1 16 -4 32t-7.5 36t-6.5 29q0 4 2 6l2 -4q40 -76 37 -211v-60q-3 -23 -23 -26q-47 -9 -137 -9z" />
<glyph unicode="D" horiz-adv-x="985" d="M958 520v33q0 25 -1 74t-1 73q0 4 -1 13t-0.5 14t3.5 8q-6 47 -6 146q0 21 1 60t1 60q0 22 -4 54q-3 8 -7 24.5t-7 24.5q-2 9 -6.5 40.5t-9.5 49.5q1 3 4 2q9 -9 12 -22q35 -100 35 -197q0 -16 -1 -48t-1 -50q-1 -30 2.5 -86t3.5 -80v-76q0 -34 -1 -90t-1 -82v-70 q0 -15 -2 -46t-2 -48q0 -67 -17 -128t-51 -113t-93 -84.5t-136 -36.5l-260 -15q-28 0 -76 1t-70 1h-24q-5 0 -8 0.5t-3.5 1.5t-2 2t-3.5 2q-2 2 -5.5 4.5t-5 4t-1.5 4.5v4q-3 8 6 8q8 0 8 -8q0 -1 1 -3t1 -3q35 -2 105 -2q142 0 238 8t153.5 19t95 37t53.5 48t37 66 q12 19 20.5 42.5t13 57t6.5 51.5t4 63t3 56q1 18 1 40.5t-0.5 50t-0.5 40.5zM453 942v174q0 11 3 18t12 9.5t13 3.5t19 0.5t18 -0.5l43 4q16 0 21 -8q4 -1 3.5 -4.5t-5.5 -3.5q-10 -1 -39 -4t-47 -3q-19 0 -23 2q-2 -31 -2 -86v-114q0 -12 -1 -31t-1 -27t1 -25t1 -26 q0 -21 -2 -66t-2 -69q0 -52 3 -149t3 -146v-108q0 -9 -10 -9q-8 0 -8 9q-2 16 -2 49q0 11 1 33t1 36q0 26 -2 73.5t-2 70.5q0 11 1 32t1 33q-2 47 -2 144q0 15 2 80t2 108z" />
<glyph unicode="E" horiz-adv-x="997" d="M948 -51q13 102 13 135q0 29 -7 76q-4 0 -4 4q0 2 -2 4q0 9 6 12q2 2 4 2q10 3 13 -12q10 -58 10 -98q0 -41 -8 -68q0 -3 1 -7t1 -7q0 -19 -6 -42.5t-13 -23.5t-10 8l-254 5q-50 1 -161.5 -8t-168.5 -9q-7 0 -34.5 -0.5t-45 -0.5t-39 2t-32.5 5q-5 5 -10 15q0 10 8 10 q10 0 10 -10v-2q33 2 98 2h76q44 0 132 7t132 7q3 0 291 -6zM457 1081q0 -33 -6.5 -97t-6.5 -97q0 -8 -10 -8q-8 0 -8 8v4q0 41 5.5 133t10.5 92q2 0 4 -2l1 6q1 6 4 6q23 -2 67 -2q24 0 75 1t79 1q22 0 66.5 -1t64.5 -1h43q20 0 53 -2t49 -2q15 88 15 131q0 39 -11 99 q-2 0 -6 4v6q0 9 8 6q27 -19 27 -127q0 -137 -39 -137q-13 0 -38 1t-36 1h-69q-18 0 -51.5 2t-49.5 2q-14 0 -40 -1t-40 -1q-28 0 -82 1t-81 1v-18q2 -2 2 -9zM461 524q-8 -84 -8 -221q0 -10 -11 -10q-10 0 -10 10v8q0 106 8 197q3 21 23 24q49 9 90 9q5 0 14.5 -1t14.5 -1 q1 0 3 2t3 2q25 0 61 -4q17 0 50 2t49 2t40.5 -1t36.5 -1q8 0 12.5 5.5t6.5 17t2.5 18.5t0 22.5t-0.5 16.5q0 66 -8 129q-4 0 -4 4v4q0 14 8 6q24 -19 24 -133q0 -41 -6 -84q-3 -23 -24 -23h-23q-39 2 -106 2q-8 0 -23 -2t-22 -2q-12 0 -33 2t-33 2q-21 0 -66 -1t-69 -1z " />
<glyph unicode="F" horiz-adv-x="987" d="M342 -84h-41q-74 0 -94 25q-6 6 4 6q14 0 16 -2q57 -11 92 -11q44 0 119 11q6 165 6 172q0 22 -3 86.5t-3 105.5q0 183 9 216t55 31q15 -1 24 -1q20 0 55 -1t54 -1q15 0 50 1t56 1q72 0 93 -4q12 82 12 125t-8 67q-2 2 -2 17q0 12 8 4q22 -13 22 -88q0 -32 -14 -123 q-3 -21 -23 -18q-94 4 -139 4q-35 0 -109.5 -2t-115.5 -2q-8 -35 -8 -99q0 -59 3 -174.5t3 -163.5q0 -23 -4.5 -72.5t-5.5 -74.5q0 -22 -21 -25q-32 -6 -90 -10zM965 1354q6 -55 6 -121q0 -7 -2 -18.5t-2 -18.5q0 -4 2 -14t2 -17q0 -2 -4 -30q-3 -21 -23 -21q-34 0 -100 3 t-103 3q-17 0 -46 -1t-44 -1q-17 0 -48 1t-48 1q-32 0 -94 -4q-4 -18 -4 -80q0 -21 1 -44t2.5 -51t2.5 -44q0 -10 -10 -10q-11 0 -11 10q-1 14 -2.5 39t-2.5 45.5t-1 38.5q0 92 13 113q3 7 16 4q2 -2 16 -2q16 0 47.5 2.5t40.5 3.5q11 0 34 -2t34 -2h35q10 0 14 -4q4 4 12 4 h17q9 0 26 1t25 1q38 0 92 -3t84 -3q8 57 8 118q0 45 -6 101q-4 0 -4 4t-2 4q0 10 8 10q1 0 2 -1t2 -1q12 0 15 -14z" />
<glyph unicode="G" horiz-adv-x="946" d="M784 -72l-4 4q-4 6 0.5 12.5t12.5 6.5q7 0 26 -5.5t31 -6.5q41 -3 68 6q-7 3 -7 16q3 6 3.5 11.5t-0.5 13.5t-1 12q0 8 2.5 24t2.5 23q0 9 -1.5 25t-1.5 28.5t3 22.5q-5 5 -5 12q-1 12 -1 29.5t-1 30.5q-2 41 -2 124q-4 78 -4 119q-1 34 5 118.5t3 133.5q-1 0 -2 -1 t-2 -1q-8 0 -8 8t8 11l15 2q8 0 8 -5q0 -3 1 -5t1 -5q1 -44 -5 -145.5t-3 -167.5q3 -52 4 -157.5t4 -162.5q1 -18 -2 -51.5t-2 -48.5q0 -3 1 -6t1 -4q4 -7 -6 -17q-9 -7 -19 -10q-66 -10 -110 10q-7 0 -9 -2t-4 -2zM406 479q0 -142 4 -184q0 -5 -3 -5.5t-4 3.5q-6 4 -10 22 v7q-6 70 -2 251q0 8 1 24t1 24q0 17 -4 45q0 8 2 24.5t2 24.5q-4 104 0 139q3 30 0 93.5t0 90.5q4 28 13.5 42.5t27.5 27.5l23 18l12 4l37 15l16 8q9 3 15 -6q2 -1 0.5 -4.5t-5.5 -3.5l-36 -13q-33 -11 -50 -28q-17 -12 -25 -28.5t-9 -47.5v-102q0 -33 -4 -99 q-1 -23 0.5 -63.5t1.5 -48.5v-121q0 -20 -2 -56t-2 -53zM918 991q0 49 -17 115q-4 28 -4 41q-3 8 -7 24.5t-7 24.5l-4 8q0 2 2 2q11 -19 28 -73q18 -51 19 -62q9 -65 0 -127q-1 -6 -1 -12t0.5 -12t0.5 -9q0 -21 -23 -24q-17 -2 -37 -3t-35 -1t-38.5 1.5t-34.5 2t-37 3 t-33 3.5q-14 0 -14 12q2 2 2 6q2 10 6 7q8 0 8 -9q132 -13 219 -6q-5 13 0 47q2 4 7 41zM342 -68v2q9 -4 28 -4h23q2 0 16.5 -3.5t22.5 -2.5q19 -5 82 0q11 2 39.5 7t42.5 8q18 7 38.5 24.5t27.5 26.5l2 2q1 1 14 -2q2 -2 2 -8q-39 -39 -74 -52q-57 -24 -106 -24 q-62 -6 -117 16q-3 0 -1 2q-1 2 -3 2q0 -2 -2 -2q-1 0 -27 4zM516 477l-22 2q-3 0 -3.5 6.5t1 13.5t4.5 7q7 0 10 -10q2 0 2 -2l14 1q14 1 28.5 -2.5t14.5 -13.5q0 -6 -6 -6q-4 0 -8 4h-35z" />
<glyph unicode="H" horiz-adv-x="1064" d="M756 -61v2q-3 8 6 8h6q2 0 8 -6q0 -2 2 -2q76 -2 217 -2q1 33 0 105t0 108t0 74t-3 85t-3 74q0 43 1 140.5t0.5 169t-3.5 145.5v104q3 48 -2.5 191.5t0.5 203.5h-4q-8 0 -12 11q0 10 10 10l8 -2q15 -3 12 -19q0 -1 2.5 -8t-2.5 -8q3 -40 1 -121.5t1 -124.5q2 -41 7 -450 v-152q0 -13 -1 -37t-1 -37v-71q0 -1 1.5 -27t6.5 -59q1 -7 1 -20.5t1 -20.5q0 -25 -1 -77t-1 -77v-106q0 -24 -17 -27q-8 -1 -23 1.5t-22 2.5q-18 0 -52 -1.5t-63 -1.5t-57 3q-11 0 -16 8q0 2 -2 4zM209 -68v2q0 11 8 11h2q8 0 8 -8q157 -4 215 0q0 3 -1.5 13.5t-1.5 20 t3 13.5v8q-3 28 -3 56.5t1.5 62t1.5 51.5q0 20 -0.5 80.5t-0.5 92.5t2.5 83t7.5 94q0 23 22 23q56 8 133 -3q4 -2 29 -2q10 0 10 -10q0 -8 -8 -8q-58 0 -168 4q-3 -18 -3.5 -63.5t-4.5 -67.5q0 -25 1 -93t1 -112q0 -26 -2 -76.5t-2 -70.5q11 -60 4 -101q0 -5 -6 -8 q-2 -1 -6 -3.5t-7 -2.5q-108 -9 -221 0q-5 0 -8 6q-6 6 -6 8zM453 1331q-6 -60 -2 -184q1 -14 1 -86.5t3 -114.5q4 -32 4 -53q0 -10 -10 -10q-11 0 -11 10l-6 233q-7 82 4 213h-8q-10 3 -10 13q4 11 12 8q1 0 3 -1t3 -1q17 -7 17 -27z" />
<glyph unicode="I" horiz-adv-x="524" d="M215 -66q-3 9 6 9h2q8 0 8 -9q14 -1 36.5 -3t40.5 -3t34 0q8 0 38 3t46 3h14l13 7q3 89 -4.5 267t-4.5 273v119q0 147 -2 231q0 20 0.5 56t0.5 65t-1 54q-3 62 -1 178.5t-1 165.5q-2 0 -4 2q-8 0 -8 8q0 5 2 7t6 1q4 0 6 -2q12 -3 15 -18q3 -40 3.5 -81t-0.5 -100t-1 -86 q2 -72 2 -225q0 -37 2 -112.5t2 -118.5v-2q-1 -10 -1 -23.5t0.5 -27t0.5 -17.5q0 -21 -2.5 -86t-1.5 -132.5t8 -148.5q6 -120 0 -239q0 -26 -18 -29q-8 -4 -26 -4h-22q-67 -10 -129 -2q-8 1 -20 0.5t-19.5 0.5t-13.5 5q-6 6 -6 14z" />
<glyph unicode="J" horiz-adv-x="991" d="M494 -78q-72 0 -121 21q-19 6 -25 10q-6 6 2 6h4q28 -4 35 -8q40 -12 98 -12q8 0 24.5 -1t23.5 -1q83 0 157 24q67 20 121 64q5 4 13.5 11.5t14 12t11.5 11t10 12.5q22 32 32.5 67t12 54t2.5 75q6 63 6 181q0 41 5 198q3 124 -3.5 356.5t-5.5 339.5h-4q-10 0 -10 11 q0 10 10 10h6q3 0 9 -6q1 -3 3.5 -5t2.5 -5q1 -40 5.5 -154.5t4.5 -173.5q0 -36 -1 -144t-1 -198v-45q-1 -12 -4 -12q3 -3 3.5 -4t-0.5 -3.5t-1 -5.5q5 -61 0 -76q3 -7 3 -16.5t-1.5 -23t-1.5 -21.5q0 -10 1 -37t0.5 -47.5t-3.5 -38.5q-1 -9 -1 -29t-1 -32q0 -7 -2 -20.5 t-2 -20.5q0 -11 -1 -31t-1 -33q0 -33 -25 -88l-6 -8q-5 -5 -12.5 -17t-12.5 -16q-34 -34 -84 -71q-12 -8 -27.5 -15t-26.5 -10.5t-30.5 -10t-29.5 -9.5q-24 -10 -43 -13q-13 -4 -38.5 -4h-31.5q-11 -1 -31 1t-32 1zM418 299v-2q0 -10 -6 -4q-8 3 -11 12l-6 33q-3 36 -3 104 t-3 95q-8 0 -8 10q0 6 8 6l4 -2q12 0 15 -14q5 -11 4.5 -83t-0.5 -83q0 -10 1 -22t2.5 -26.5t2.5 -23.5zM383 1126q-3 9 6 9q4 0 11 -2.5t10 -2.5q41 -6 139 -6q10 0 10 -10t-10 -10q-8 0 -29 -1t-36 -0.5t-29 3.5q-46 4 -58 8q-11 0 -14 12z" />
<glyph unicode="K" horiz-adv-x="1048" d="M201 -57v6q0 15 8 12h2q8 -3 8 -10q39 -5 116 -3.5t111 -2.5q6 122 -6 336q0 11 -1.5 40.5t-0.5 47.5q0 9 3.5 34t2.5 39q0 2 2.5 2t2.5 -2q6 -11 10 -36v-35q-2 -58 5 -211t-3 -217q0 -10 -6 -13h-2q-3 0 -7.5 -2t-7.5 -2q-13 0 -34.5 2t-32.5 2q-51 -4 -76 -2h-25 q-63 0 -69 15zM711 864q-12 -17 -26.5 -42t-22.5 -36q-11 14 2 35l41 70l20 24q2 4 7.5 14.5t8.5 14.5l68 94q1 2 29 41l53 86q10 14 26.5 43t28.5 43q31 41 47 92q-14 0 -26 3q-7 0 -4 8q8 8 16 8h14q10 0 13 -8l2 -8l1.5 -6t0.5 -3l-4 -10q-13 -30 -17 -37 q-14 -33 -20 -41l-19 -26l-6 -11q-9 -21 -22 -34l-2 -2q-7 -10 -41.5 -65.5t-57.5 -80.5q-3 -9 -12.5 -22t-11.5 -17q-9 -8 -11 -16l-10 -14q-19 -25 -20 -27q0 -1 -21 -37q-21 -27 -24 -33zM1020 -47q0 1 -1 4t-1 4q-3 0 1 1q13 5 19 -1q2 -3 6 -18q2 -2 -2 -9q0 -2 -4 -6 q-19 -8 -45 -8q-43 -6 -65 -4.5t-62.5 6.5t-62.5 6q-19 0 -25 15l-4 4q-3 8 6 8h2q10 -5 13 -8q28 0 89.5 -8t96.5 -5q25 0 31 3q10 3 8 16zM436 1364h6q15 -3 15 -18l2 -150q0 -20 -8 -33q-1 -3 -3 -3t-4 2t-2 5q-4 115 -2 179h-4q-8 0 -8 10q0 5 2 7t6 1z" />
<glyph unicode="L" horiz-adv-x="890" d="M465 422q0 -43 -4 -137q0 -7 -2.5 -10t-7.5 -1q-11 0 -11 11q0 18 2 22q4 62 4 86q0 60 -10 125q-1 18 -1 52t-1 51q-2 33 -2 98q0 216 -2 325q0 31 1.5 94.5t1.5 117.5t-3 100h-2q-8 0 -8 8q0 10 10 10q14 0 19 -8q3 -3 3 -6.5t-1.5 -9t-1.5 -9.5q0 -18 1.5 -58.5 t1.5 -75.5t-3 -64q-1 -1 -0.5 -68.5t0.5 -68.5q1 -13 -1 -34t-2 -30q0 -14 4 -70t1 -88v-82q0 -11 -0.5 -27.5t-0.5 -28.5t1 -23l6 -52q0 -5 -1.5 -24t-0.5 -29q0 -12 4 -33t4 -32q0 -5 1 -15.5t1 -15.5zM860 -63q23 82 -2 202q-2 2 -2 13q0 8 8 8q10 0 13 -8 q12 -85 14 -119q2 -36 -8 -76q-2 -4 -4 -13.5t-5.5 -15t-9.5 -8.5q-8 -2 -12.5 -2t-15.5 2.5t-15 3.5q-52 3 -110 0q0 -2 -37 -1l-37 1q-16 -1 -66.5 -4.5t-74.5 -3.5q-87 0 -271 4q-24 0 -24 23q0 6 4 6h4q8 0 8 -12q103 -5 327.5 2t315.5 -2z" />
<glyph unicode="M" horiz-adv-x="1351" d="M1282 -35q2 36 -2 107v61q0 29 -4 81t-4 75q0 9 2.5 30.5t1.5 34.5q-4 27 -4 129q0 20 4 56q2 1 1 35l-1 34q0 3 1 10.5t1 10.5q-6 75 -6 334q0 21 1.5 86.5t0.5 101.5q-4 129 6 192q-9 0 -12 3q-9 0 -6 8q0 6 8 6l8 -2q16 -3 16 -21q0 -16 -3.5 -57t-2.5 -63l2 -21 q2 -20 -2 -20q4 -17 5 -37.5t0.5 -33t-2 -40t-1.5 -35.5v-12q2 0 1 -20l-1 -21v-8q3 -53 1 -147.5t1 -135.5q3 -58 0 -163t0 -154q0 -8 1 -25t1 -25q0 -28 2 -88t2 -92q-1 -31 0 -93.5t0 -94.5q-3 -22 -22 -25q-50 -12 -82 -12q-42 -2 -127 10q-11 4 -14 13l-2 2q0 8 6 8 q2 -2 4 -2q6 0 6 -4q107 -25 193 -2q22 9 22 26zM207 -57q0 10 10 10q6 0 8 -2q122 -24 215 -2q0 12 2.5 51t1.5 59q-5 58 -4 68q0 14 -2 51.5t-2 67.5q-1 12 0.5 51.5t-2.5 48.5q-4 17 -4 82q0 16 -2 44t-2 44v23l2 -2l10 -29q6 -21 6 -41q4 -85 11 -145q1 -15 3 -61 t3 -66.5t2.5 -60.5t1 -66t-2.5 -59.5t-5 -63.5q-2 -6 -7.5 -11t-11.5 -4q-8 0 -51 -8t-68 -4q-71 12 -100 14q-8 0 -12 11zM651 111q0 4 4 4h4q8 0 11 -9l2 -2q61 -6 168 7q13 37 34 129l15 47q16 63 35 110q0 5 3 5t3 -5v-22q0 -3 -1 -6t-1 -4l-4 -13l-11 -43 q-12 -38 -26 -98l-29 -92q-3 -24 -24 -27q-19 0 -27 -2q-77 -9 -145 -2q-8 0 -8 10.5t-3 12.5zM535 1300l-5 17l-8 29q-2 2 -2 8q0 2 4 2q2 0 6 -4q12 -35 23 -84q12 -31 10 -43q8 -12 27 -78q5 -19 33.5 -128t46.5 -167l12 -49q3 -6 0 -15h-2l-18 66l-25 82q-20 56 -53 194 l-27 99l-4 20l-10 33q0 6 -0.5 8t-3 4t-4.5 6z" />
<glyph unicode="N" horiz-adv-x="1095" d="M795 -45q74 -16 231 -4q-3 25 -3.5 51t0.5 61t1 48q-4 202 -8 254q0 15 4 47q0 27 -2.5 89t-1.5 97q0 311 6 475q4 34 1.5 136.5t-1.5 136.5h-4q-8 3 -8 10q-3 9 6 6l6 -2q16 0 16 -19q2 -41 2 -120q0 -23 1 -70t1 -70l-6 -141q3 -79 -1 -235.5t-1 -225.5q1 -16 1 -33.5 t-0.5 -40.5t-0.5 -36q5 -182 8 -217q1 -28 -1.5 -104t1.5 -99q0 -19 -26 -19q-11 0 -53.5 -2.5t-52 -2t-50.5 2.5l-63 6q-16 0 -19 13l-2 6q0 6 6 6h6q7 0 7 -4zM201 -53q0 10 8 10q6 0 8 -2q2 0 2 -2q124 -28 217 2q-4 2 -2 21l2 20v27q1 7 1 23.5t1 23.5q0 13 3.5 45 t2.5 49q-1 6 -6 162q0 153 -2 227q0 2 3 2.5t5 -0.5q9 -15 9 -39q0 -67 4 -215q0 -49 2 -74q0 -14 2 -38.5t2 -36.5q0 -9 -2 -27.5t-2 -26.5q-6 -49 -6 -147q0 -8 -9 -8q-3 -1 -7 -5t-7 -4q-77 -26 -215 0q-11 4 -14 13z" />
<glyph unicode="O" d="M915 274q9 117 0 244q0 50 -1.5 110.5t-0.5 82.5q2 33 -2 98q-1 23 -3 135t-11 168q-4 4 -4 8q-5 48 -8 56q1 3 4 2l14 -31q23 -51 23 -176l4 -213v-94q6 -123 6 -138q0 -10 0.5 -57.5t0.5 -76t-2 -78t-6 -83.5t-12 -71t-20 -60q-8 -13 -21 -30.5t-18 -24.5 q-6 -8 -13.5 -15.5t-10.5 -10t-16 -11.5t-15 -10l-4 -2q-13 -13 -33 -25l-23 -12q-47 -26 -96 -37q-7 -1 -34 -7.5t-43.5 -9t-34.5 -1.5q-11 2 -46.5 5t-54.5 9l-41 19l-8 4q-2 2 0 4h14q20 -3 39 -11l4 -1q4 -1 7 -1q93 -20 151 -4l29 6q55 18 100 37q15 7 45 29 q5 3 13.5 8.5t16 11t13.5 11.5q56 47 76 108q8 21 8 54q3 15 7 41t7 40zM463 1126q43 15 61 19q2 0 2 -2h4q0 -2 7 -2l6 -6v-2q-67 -13 -90 -31q-14 -10 -31 -39q-4 -9 -5.5 -18t-1.5 -15t0.5 -19t0.5 -20q0 -48 -4 -227t0 -225q1 -16 3.5 -59t2.5 -60.5t-2 -59.5 q-3 -27 0 -51q0 -14 -10 -4q0 1 -1.5 3t-1.5 3q-6 14 -6 41q0 45 -2 76q-7 113 -2 338q5 216 4 254q-1 6 4 39q6 26 21 35v2l8 10q8 12 33 20z" />
<glyph unicode="P" horiz-adv-x="978" d="M932 791l4 40q18 150 -2 246q-4 28 -4 41l-4 37l-6 21l2 2q3 -5 7 -15.5t7 -15.5q15 -45 20 -66q11 -96 2 -215q-13 -108 -24 -143q-15 -43 -23 -59q-15 -27 -55 -58l-61 -47q-76 -40 -160 -51q-26 -4 -57 -5t-68 -0.5t-57 -0.5q-9 -104 -9 -271q0 -2 1 -59.5t-1 -62.5 q-1 -26 0 -75t0 -73q0 -21 -20 -24q-4 -1 -23.5 -6t-23 -6t-23 -4.5t-23.5 -2t-24 1.5q-35 2 -90 12q-8 0 -12 11v2q-3 6 6 6h4q6 0 6 -4q14 0 41 -3.5t35 -4.5q50 -4 80 4q40 13 53 6q-3 23 -3.5 46.5t0.5 57.5t1 49q1 13 -0.5 34.5t-1.5 29.5q2 47 2 149q0 8 -2 26t-2 26 q5 60 4 69q0 12 2 32t2 32q0 3 2 6t2 6q3 6 10 6q23 3 75 2t83 2q108 9 189 60q57 42 90 71q37 57 49 138zM453 1133q49 9 108 6q4 0 14 -13q0 -8 -6 -8q-22 1 -120 -4q3 -47 -1 -128.5t-4 -106.5q0 -11 -10 -11t-10 11q0 21 2 61t2 64q0 11 -1 34.5t-0.5 39.5t3.5 32 q0 20 23 23z" />
<glyph unicode="Q" horiz-adv-x="944" d="M911 324q5 7 1.5 61.5t-3.5 67.5q1 55 -0.5 162t-1.5 143q0 16 2 45t2 45q0 17 -2 55t-2 58q0 8 3.5 50.5t-1.5 47.5q0 1 -3 17t-3 24q0 20 -6 35l-2.5 7.5t-2.5 8.5t-1 8l-4 15v14q-2 2 1 3t5 -1q9 -14 10 -16l6 -21q6 -16 9 -51q0 -3 4 -19.5t4 -27.5q1 -17 0 -52 t0 -55v-51q0 -16 -1.5 -48.5t-1.5 -61.5t3 -54q2 -14 -2 -41q-4 -10 0 -61t4 -62q-4 -22 0 -117.5t4 -123.5q0 -131 -27 -199q-11 -41 -37 -70q-12 -12 -44.5 -38t-45.5 -46l-6 -2l-4 11q0 6 2 6q11 12 29 26.5t30 26.5q38 38 54 82q4 12 11.5 29t10.5 26q4 25 3.5 69 t2.5 75zM498 1145q3 0 7 1t7 1q8 3 16 0l12 -2h-1l4 -4l6 -8v-3h-4q-37 2 -84 -18q-1 0 -2 -1t-2 -1q-17 -13 -29 -27l-4 -6q-6 -13 -10 -63v-56q0 -13 -2 -40t-2 -41q0 -23 2.5 -78t1.5 -82q0 -16 -1 -50.5t-1 -54.5q0 -7 -3 -49t-3.5 -55.5t-2 -49.5t-1 -57t2.5 -50t5 -54 q-1 -3 -4 -2l-5 8q-8 8 -8 23q-2 14 -2 36v91q0 15 2 43t2 45q2 63 2 219q0 30 -4 84q-1 16 4 112q0 58 4 80q3 43 15 58q3 4 7 8t11 9t10 7l2 4q10 10 25 13q3 1 12.5 5t14.5 5zM670 -334q0 2 -2 4q-1 6 0 8t6 0q11 0 14 -8q117 -10 189 0l-13 33q-4 22 -2 25q2 4 5 4t5 -4 l21 -50v-16q-3 -7 -10 -10q-110 -9 -195 2l-10 4q-5 3 -8 8zM330 -37v2l39 -12q3 0 8 -1t8 -1v-2l53 -6q1 0 21 -4q8 0 8 -7v-2q0 -4 2 -6t2 -6h-2q-6 0 -8 2q-52 14 -53 14q-8 4 -20 5.5t-13 1.5q-3 1 -8.5 5t-8.5 5l-24 8z" />
<glyph unicode="R" horiz-adv-x="993" d="M725 -53q-3 6 6 6q14 -4 64 -8q86 -17 166 -4l-13 32q-7 10 -4 39q1 9 -1 18t-4 14t-7 15t-6 13l-19 39q-8 31 -27 82t-24 69l-37 109q-3 10 -20 53.5t-23 67.5q-4 8 -7 23t-5 22q-8 12 10 30l21 19q15 15 36 30q98 85 113 236q4 39 4 172q0 4 1 15t1 16q-3 23 -10 39 q-8 8 -2 18q-4 0 -4 10q0 27 -2 31q-2 1 0 2t4 0q0 -2 2 -4l16 -39q5 -12 9 -39q5 -8 3 -56t-1 -59q4 -37 2 -55q-3 -58 -19 -125q-12 -54 -35 -92q-36 -54 -96 -102q-31 -31 -45 -37q5 -15 12 -41t14 -47.5t15 -38.5l14 -39q12 -46 31 -94l39 -113q43 -102 64 -172 q14 -40 14 -55q3 -17 -23 -27q-82 -16 -147 2q-66 15 -70 15q-7 3 -10 10zM219 -51h2q9 0 37 -4q77 -18 172 -2q2 47 2.5 265t9.5 310q0 2 2 4l5 -4l4 -14q6 -18 6 -39q-9 -131 -6 -262q0 -4 -1 -12.5t-1 -12.5q4 -109 2 -160v-55q0 -1 -0.5 -2.5t-1.5 -5t-2 -6.5 q-9 -24 -25 -27q-42 -14 -127 -4q-69 11 -98 23q-4 4 -4 6q0 6 4 6zM471 1135q19 -1 50.5 0.5t41.5 1.5q16 0 25 -9q4 -4 1.5 -8t-7.5 -4h-37q-10 -1 -24 -1t-31.5 0.5t-26.5 0.5q0 -22 0.5 -68.5t0.5 -86.5t-1 -74q0 -10 -10 -10q-11 0 -11 10q0 37 1 115t1 118q0 6 7 10h8 z" />
<glyph unicode="S" horiz-adv-x="946" d="M891 166l16 67q9 84 -16 179q-2 2 -2 16q0 10 -2 12q-1 3 -2 6.5t-1.5 5.5t-0.5 3q-2 2 -2 8v2h2q3 -5 7 -16t7 -15q2 -5 7.5 -15t6.5 -16v-10l9 -41v-2q2 -14 2 -39q-1 -33 1 -41.5t-4 -37t-7 -33.5t-8.5 -31t-8.5 -31q-13 -39 -21 -53q-3 -5 -11 -14.5t-11 -14.5 l-10 -14l-13 -12q-3 -3 -4 -8.5t-4 -8.5l-8 -6q-30 -30 -49 -35q-22 -13 -23 -14q-23 -14 -30 -14h-4q-18 -8 -34 -12t-44 -7t-35 -4q-3 0 -6 -2t-6 -2q-7 0 -20.5 1t-20.5 1q-11 0 -35 -1t-35 -1q-3 0 -10.5 -1t-12.5 -0.5t-8 3.5h-16q-7 2 -24.5 6.5t-30.5 9.5t-21 11 q-2 2 0 4q8 0 10 -2q4 0 6 -1t3 -1q22 0 26 -2l33 -11q20 -4 92 0h43l47 7q12 3 34.5 3t31.5 3q7 3 23 8t24 8l22 16q7 4 19.5 9t17.5 8q8 6 15 13.5t16 20.5t12 17q38 42 49 61q8 18 19 60zM913 1122q2 -9 7 -26t8 -31.5t4 -28.5q6 -45 -6 -141q0 -24 -21 -27 q-8 -3 -16.5 -3.5t-22 0.5t-20.5 1q-9 0 -26.5 -1t-26.5 -1h-43q-8 0 -22 3.5t-19 4.5q-16 0 -31 9q-4 4 -4 8q0 6 4 6h4q3 0 8 -1t8 -1q22 -8 51.5 -11t50.5 -2.5t57 3t50 2.5q4 15 4 73q0 11 1 35t0.5 40t-3.5 32q-8 38 -8 41v6q-3 40 -14 70l-4 8q0 6 4 2q14 -31 26 -70z M492 1143q28 4 30 4q9 0 15 -6l4 -4q2 -2 2 -4v-3h-6q-5 0 -35 -10q-7 -3 -19.5 -6t-19.5 -6q-22 -10 -31 -27q-3 -4 -6 -11t-6 -11q-4 -28 -4 -39q0 -2 -3 -2.5t-5 0.5q-10 24 -5 37q2 19 21 45l18 16l13 10q22 14 37 17zM414 395q0 -10 -1 -36.5t-0.5 -45.5t3.5 -37 q0 -7 -6 -4q-2 0 -9 7q0 1 -1 2t-1 2q-4 4 -4 18q-1 18 0.5 51.5t1.5 44.5h-6q-8 0 -8 9q0 8 8 8h4q10 0 13 -6q1 -2 3.5 -6t2.5 -7z" />
<glyph unicode="T" horiz-adv-x="980" d="M946 1139l6 14q7 13 11 35v35q0 63 -9 127q-2 10 6 15q4 3 7 -1l6 -14q10 -65 10 -109v-22q0 -19 -1 -31.5t-5.5 -28t-15 -25t-27.5 -12.5q-23 0 -27 2q-2 2 -18 2q-22 3 -35 -2h-33h-69h-15q-23 6 -41 -10t-14 -39q0 -18 2 -22q0 -8 1.5 -37t0.5 -47q0 -78 1 -238.5 t1 -243.5q0 -21 -1 -61t-1 -61v-109q-2 0 -1 -58l1 -59q0 -36 -4 -98v-18q-1 -6 -2.5 -26t-4 -30t-8 -24t-16.5 -20.5t-28 -6.5l-17 -4h-18q-1 0 -3 1t-3 1q-18 -2 -26 -2t-28 2.5l-28 3.5q-42 4 -66 14q-6 3 -6 11q0 6 6 6h4q6 0 6 -6q18 -8 57 -11t46 -4q14 -5 57 0 q15 0 17 2q15 0 23.5 9t10.5 18.5t4 29.5t3 27q2 2 2 19q2 2 2 20q3 48 2 145.5t2 145.5v131q0 14 1.5 53t0.5 58q0 49 -3 152t-3 157v160q-6 45 15 69.5t64 14.5h19q12 0 37 1t39 1h63q3 0 7.5 -1t7.5 -1h28zM143 1145v2q0 11 9 8q11 0 14 -10l2 -2q47 -2 149 -2q9 0 9 -11 q0 -8 -11 -8h-34q-11 0 -35 2t-35 2q-42 0 -53 4t-15 15z" />
<glyph unicode="U" d="M492 -66h2q24 -2 32 -2t31 2t33 3h22q8 0 22 3.5t19 4.5q54 13 72 24q11 5 26 14.5t17 10.5q3 2 13 7t14 9q1 1 2.5 1.5t3 2t2.5 4.5q20 16 31 27q28 28 47 59q28 109 34 166q1 10 0 19t-3 18.5t-3 14.5v40q0 8 3 25.5t3 26.5q0 4 -2 16t-2 19q-1 16 4 98q1 19 -1 55.5 t-1 56.5v267q0 27 -1 84t-1 86q0 28 4 78.5t5 68.5q0 12 -1.5 34.5t-1.5 40.5t3 32q-5 0 -7 2q-8 0 -8 10q0 6 8 6l9 -2q7 -3 10 -10q0 -3 2 -7.5t2 -7.5q3 -55 -3 -154.5t-3 -152.5q2 -39 2 -114q0 -41 -1 -116t-1 -112q0 -19 1.5 -62t1 -77t-4.5 -66q5 -16 1 -80.5 t-3 -84.5q4 -36 4 -64q0 -20 -6 -41q-1 -1 -4 -10q-3 -10 -8 -39.5t-9 -44.5l-4 -6l-4 -13q-2 -4 -4 -12l-8 -10q-23 -38 -45 -55q-32 -32 -39 -37q-3 -3 -12 -6.5t-13 -6.5l-4 -4q-8 -6 -35 -18l-6 -2l-10 -6q-21 -13 -37 -15l-16 -2q-95 -22 -191 -10q-27 2 -74 14 q-5 3 -15 7.5t-15 7.5q-3 0 -3 2q0 3 5 4l51 -10q4 -2 27 -2q9 -1 24.5 -5t16.5 -4zM416 340q0 -7 -1 -18.5t-1 -18.5q0 -4 -3 -5t-5 1q-7 3 -7 18v68q0 7 -4 50.5t2 47.5q-3 4 -3.5 9.5t0.5 13.5t1 10q1 18 -0.5 78t2.5 80v18q5 133 0 176q-2 31 -2 86q0 33 0.5 92 t0.5 105.5t-1 85.5q-1 4 2 3q2 0 2 1q-6 3 -6 12q0 31 6 41q-2 0 -2 2v4q-1 8 0.5 24t1.5 26q-11 0 -14 8q0 8 8 8h2q16 0 19 -10q2 -17 2.5 -18t-2.5 -20l-2 -20q0 -5 1.5 -19t0.5 -22l-2 -2q4 -20 4 -62v-52q0 -14 0.5 -39t0.5 -46t-1 -40q0 -34 1 -115t1 -127l-6 -252 q-1 -38 4 -182z" />
<glyph unicode="V" horiz-adv-x="1046" d="M1016 1245l4 12t4 15l10 65l-14 4q-9 0 -6 9q3 8 10 8h10q19 -3 19 -23q0 -24 -7.5 -64t-16 -72.5t-21 -77.5t-15.5 -58q-17 -62 -28 -152q-13 -83 -64 -297q-6 -33 -24 -106t-25 -113l-10 -57l-6 -33q-6 -33 -29 -129q-3 -15 -10 -45.5t-11.5 -54t-7.5 -45.5l-16 -56 l-10 -34q-6 -21 -25 -21q-11 -1 -56 -4.5t-66.5 -4t-57 -0.5t-61 5t-46.5 14q-8 0 -8 9q-6 6 4 6q1 0 2 -1t2 -1q19 0 21 -2q20 -8 51 -11q44 -3 113 2.5t104 4.5q18 50 31 114l26 119q19 78 60 285l12 51l66 297q9 37 20 106.5t17 96.5q35 175 55 239zM489 885l15 -99 q0 -3 2.5 -14t2 -13.5t-2.5 -13.5v-4q-2 -6 -4 -6t-4 6q-5 41 -20 134.5t-19 119.5l-4 35q0 5 -2.5 14.5t-3.5 12.5l-7 24q-1 5 -6.5 56.5t-19.5 119.5q-2 2 -2 9v4q-4 28 -4 33q0 14 -4 30q-9 0 -9 10l-2 3q0 10 11 6h2q13 -3 16 -17q1 -5 1 -16t1 -19q0 -14 2.5 -29.5 t7 -37.5t6.5 -31q3 -16 6.5 -46.5t6.5 -45.5q7 -23 13 -64t12 -90.5t9 -70.5z" />
<glyph unicode="W" horiz-adv-x="1478" d="M1421 973l11 90q32 217 38 278h-14q-8 0 -8 11q0 8 8 8q1 0 4 -1t4 -1q21 0 21 -21l-4 -12q-1 -78 -25 -235.5t-26 -171.5q0 -30 -17 -121q-4 -28 -17.5 -100.5t-17.5 -114.5q-3 -28 -8 -58t-12 -67.5t-10 -55.5q-14 -78 -19 -98q-24 -93 -37 -192l-6 -50q-3 -7 -8 -45 q0 -20 -6 -41q-5 -34 -8 -41q-2 -8 -8.5 -13t-12.5 -1q-2 0 -4 2q-35 -5 -41 -4q-6 0 -8 2q-3 0 -8 -2t-8 -2h-107q-4 0 -25 -0.5t-29 0t-22.5 3t-25.5 7.5h-2q-14 -3 -17 8v5q-3 8 6 8h2q9 0 9 -6q18 -6 40.5 -7.5t52 0t44.5 0.5q40 -2 147 3q10 48 26.5 163.5t31.5 178.5 q27 111 63 342q43 273 53 352zM371 -70l-13 11q-2 0 -2 4q-2 0 -1 1t3 1q9 0 11 -2l12 -2q78 -15 131 -13l70 7q67 0 73 6q1 1 1 12t1 14q0 3 3 9l4 8q7 20 12 73q9 37 12 72q3 15 7 41.5t7 40.5q6 30 17.5 95.5t13.5 76.5q6 33 17 102q0 5 3 5t3 -5l4 -28v-29 q-3 -15 -7.5 -44t-7.5 -42q-25 -111 -38 -207q-20 -134 -35 -192q-3 -19 -25 -19q-7 0 -15 -1t-17.5 -2.5t-14.5 -2.5q-16 -4 -44 -4h-34q-9 0 -25.5 -1.5t-30 -1.5t-24.5 3q-13 1 -71 14zM1008 938l10 -98q3 -14 -4 -41v-4q-2 -6 -4 -6t-4 6q-19 172 -23 200l-4 35 q0 5 -2.5 14.5t-3.5 12.5l-6 24q-2 10 -8.5 45.5t-12.5 59.5v2h2l-2 14l-6 55q-2 2 -2 9v4q-4 28 -4 33q0 14 -4 30q-8 0 -8 10l-2 3q0 9 10 6h2q13 -3 16 -17q1 -5 1 -16t1 -19q0 -14 2.5 -30t7.5 -37t7 -31q3 -16 6 -46t6 -46q14 -56 29 -172zM459 938l10 -98 q3 -14 -4 -41v-4q-1 -6 -4 -6t-4 6q-19 172 -23 200l-4 35q0 5 -2.5 14.5t-3.5 12.5l-6 24q-2 10 -8.5 45.5t-12.5 59.5v2h2l-2 14l-6 55q-2 2 -2 9v4q-4 28 -4 33q0 14 -4 30q-8 0 -8 10l-2 3q0 9 10 6h2q13 -3 16 -17q1 -5 1 -16t1 -19q0 -14 2.5 -30t7.5 -37t7 -31 q3 -16 6 -46.5t6 -45.5q14 -56 29 -172z" />
<glyph unicode="X" horiz-adv-x="1034" d="M1044 1350q3 -14 -6 -35l-2 -8l-10 -25l-18 -43q-23 -49 -68.5 -137t-60.5 -119l-15 -35q-1 -3 -5.5 -15t-8.5 -18q-16 -49 -62 -143l-24 -53l-33 -74l8 -35l15 -37q5 -13 19 -45t18 -41l16 -38l6 -13q7 -22 27.5 -64t27.5 -67l9 -16q24 -54 34 -84l27 -55l68 -150l6 -12 q1 -3 7.5 -16.5t7 -17.5t-0.5 -17q-3 -10 -14 -12.5t-23.5 -1t-25.5 -1.5q-3 0 -10.5 -1t-10.5 -1q-29 -1 -84.5 -1t-79.5 -1q-2 0 -6 4l-6 6l-4 11q-4 5 -1.5 7.5t7.5 2.5q13 0 16 -12l2 -3q33 4 99 4.5t76 0.5q2 2 18 2q11 0 39 4q-2 15 -14 35l-7 10q-16 40 -69 151 l-23 49l-31 74l-16 37q-29 85 -61 145l-19 43q-36 87 -45 105l-18 45q-5 11 8 41l10 20l45 95q12 23 43 92l15 35l28 71q12 24 41.5 80.5t44.5 87.5q52 97 62 131q12 36 12 47l-18 4q-9 0 -9 9q3 10 15 10h10q13 3 20 -8q0 -4 2 -4zM135 -63v2q0 8 10 8h5q4 0 4 -6 q88 -11 178 -2q5 1 19.5 0.5t27 0.5t18.5 5q4 3 9 10.5t10.5 19t7.5 15.5l22 47l48 96l34 88q2 5 7 5t6 -5q6 -12 0 -26l-117 -248q-10 -20 -29 -23q-99 -15 -215 -6q-4 0 -8.5 1t-7.5 1q-4 0 -4 2q-3 0 -7.5 -1.5t-7.5 -1.5t-6 3q-7 3 -4 15z" />
<glyph unicode="Y" horiz-adv-x="1032" d="M934 1128l16 37q52 99 72 178q-20 0 -23 3q-13 0 -6 10q3 10 15 10q3 0 5 -1t5 -1q19 0 22 -14q3 -10 0.5 -20.5t-11 -26t-9.5 -17.5q-50 -120 -68 -158l-14 -24q-22 -62 -25 -70q-12 -22 -28.5 -66t-26.5 -65q-25 -54 -108 -260q-4 -10 -13 -29t-15.5 -34.5t-10.5 -32.5 q-1 -35 2.5 -141t-0.5 -142q-4 -98 -4 -151q0 -24 2.5 -83t1.5 -89q-3 -17 -15 -17q-3 0 -8 1t-8 1q-14 -1 -51.5 -6.5t-59.5 -5.5l-59 4q-1 0 -19 1t-26 5q-10 3 -10 15v2q0 9 8 6h2q6 0 6 -6q74 -13 223 6q0 28 -1.5 109.5t-0.5 123.5q3 109 0 250v57q-3 68 11 93 q5 13 17 39t15 32q7 16 18.5 52.5t18.5 52.5q71 151 88 194q7 18 22 57.5t26.5 67t23.5 53.5zM506 1106l6 -16q0 -3 -4 -3l-6 13l-4 6q-11 21 -21 49l-2 6q-1 9 -10 29l-51 153q-3 7 -1 11.5t-1 11.5v2q2 0 2 -2l22 -59q37 -95 70 -201zM934 1354h12q-3 -9 -12 0z" />
<glyph unicode="Z" horiz-adv-x="913" d="M489 287l-2 -2q-4 -11 -12 -11q-9 0 -6 9l70 149l120 250l27 66q4 9 14.5 28.5t14.5 32.5q11 21 28 63.5t29 63.5l31 61q19 35 53 106.5t39 82.5q0 24 2 81t2 81h-6q-8 0 -8 8q3 10 10 10h6q19 0 19 -14q3 -12 0 -27q-6 -103 -5 -121q0 -26 -8 -39q-23 -39 -55 -112 q-10 -26 -33.5 -65t-30.5 -54l-8 -16l-2 -13l-43 -92l-41 -94q-13 -34 -43.5 -94t-42.5 -88q-14 -38 -20 -48q-4 -6 -21 -45q-13 -23 -33.5 -68.5t-31.5 -66.5zM891 -61q20 126 6 200q-6 0 -6 6v5q0 10 10 10q9 0 12 -10q17 -68 0 -170q0 -3 -1.5 -18t-3 -25t-5.5 -13 t-13.5 -3.5t-24 0.5t-17.5 1q-50 5 -176 10h-105q-32 -1 -94.5 -1t-114 -1t-94.5 -4q-32 -4 -65 -4q-3 0 -14 -1t-19 -0.5t-14 3.5q-11 3 -15 17q-3 12 8 12h2q15 3 15 -10q38 -2 104 2q71 4 318 4q134 0 307 -10zM145 1153v4q0 12 9 12t12 -8l2 -8q32 4 67.5 4t79 -2 t68.5 -2q13 0 40.5 -1t43.5 -1q7 0 4 -8q0 -6 -10 -6h-88q-18 0 -52 1.5t-62 1.5t-52 -3h-47q-12 3 -15 16z" />
<glyph unicode="[" horiz-adv-x="509" d="M508 1452q11 77 -6 158q-2 0 -2 2v8q0 6 6 6t10 -4q0 -4 2 -6q0 -6 2 -6q8 -8 8 -19q0 -16 2 -49.5t1 -57.5t-7 -46q-7 -23 -26 -23q-18 -3 -55.5 -2t-53.5 -2q-8 -3 -8 -10q0 -37 -14 -205q-4 -25 -1.5 -93.5t1.5 -90.5q-4 -73 -4.5 -209t-0.5 -156q-1 -33 1 -94.5 t2 -83.5q-1 -25 1.5 -97.5t-1.5 -97.5q-5 -17 -1.5 -133.5t3.5 -134.5q0 -10 -11 -10q-8 0 -8 8v53q0 201 -2 285q0 51 -1 163t-1 171v141q0 7 1 20.5t1 20.5q-1 45 1 133.5t1 136.5q0 13 1 35t1 33q0 13 4 41q2 14 2 45q11 72 9 113q-3 9 6 24l4 6q2 5 10 2q2 -2 12 -2 q3 0 8.5 2.5t8.5 2.5q8 0 22.5 -0.5t26.5 -0.5t22 1q23 0 23 22zM150 -311v6q0 8 6 8q8 0 8 -8q0 -2 2 -4q0 -4 4 -4q29 2 88 -2h66q19 0 51.5 -1.5t58 -1.5t47.5 3q8 0 8 8q-1 18 1.5 78.5t-1.5 87.5l-2 2q-8 0 -8 8t8 8q3 0 5 -2q13 0 16 -16q4 -35 0 -144l-4 -26 q-6 -19 -29 -19q-70 -4 -108 -4q-139 4 -177 8q-5 0 -13.5 -1t-12.5 -1q-11 4 -14 17z" />
<glyph unicode="\" horiz-adv-x="899" d="M694 -53q24 1 81 -6t89 -4q6 3 6 10l-8 22l-28 90q-17 49 -50 136l-22 65q-33 83 -76 207q-43 129 -106 270q-44 101 -54 127l-49 133l-14 35q-6 15 -17.5 52.5t-19.5 56.5q-8 25 -37 101t-37 101l-12 27q0 6 4 6q5 0 8 -6q7 -20 72 -196l65 -173q11 -29 32 -87t32 -87 q10 -24 34.5 -82t37.5 -90q19 -48 131 -352q11 -27 31 -84.5t32 -87.5l47 -141l17 -39q1 -3 4.5 -7t3.5 -7q0 -1 -1.5 -4.5t-2.5 -6.5q-2 -4 -7.5 -6.5t-14 -3t-14.5 -1t-17 0t-15 0.5q-14 1 -56 6t-61 4q-22 0 -28 15q-4 12 -6 14v4h8q12 0 12 -8q4 -4 6 -4z" />
<glyph unicode="]" horiz-adv-x="507" d="M494 1253q0 14 1.5 53.5t0.5 59.5q-11 136 -4 240q0 4 -5 4h-2q-8 -3 -8 6q0 10 8 10h15q2 2 8 -4q1 -2 2 -4.5t1.5 -3.5t0.5 -2q-3 -43 -3 -93t1.5 -116t1.5 -105q0 -86 -4 -204q0 -34 -3 -211t-3 -269q0 -30 4 -108v-119q0 -38 -2 -112.5t-2 -110.5q1 -32 1 -67 t-0.5 -75.5t-0.5 -60.5q0 -30 2.5 -107.5t1.5 -117.5q0 -5 -1.5 -19t-0.5 -22q0 -10 -4 -14q-9 -9 -13 -9q-224 -16 -313 -6q-14 2 -27 15q0 1 -1 3t-1 3q-3 8 5 8t8 -8q2 -2 4 -2q124 -7 317 4q8 0 8 8q-3 69 -3.5 139.5t0.5 175t1 156.5q0 88 4 240q0 40 -4 119.5 t-4 119.5q1 97 6.5 299.5t6.5 306.5z" />
<glyph unicode="^" horiz-adv-x="1040" d="M348 702q-108 -9 -207 0q-5 0 -10 5v10q0 6 2 8q4 4 6 4h4q7 0 7 -8q-4 -4 2 -4q8 -1 21 0t20 0q104 0 143 2q9 0 12 6l19 37q20 32 36 51q6 9 19.5 31t23.5 35l11 14q16 28 18 31q22 48 53 108q10 10 13 0q9 -9 0 -18l-4 -4l-7 -11q-3 -16 -16 -34l-6 -15 q-21 -42 -31 -55l-37 -57q-9 -14 -25.5 -34.5t-28 -38t-17.5 -36.5q-1 -3 -4 -5t-3 -5q-2 -2 -2 -4q0 -1 -1 -3t-1 -3q-4 -7 -10 -7zM805 719l-2 2q0 6 4 6h4q8 0 8 -6q2 -2 4 -2q15 0 100.5 -3.5t94.5 1.5q10 0 4 6l-8 14q0 2 2 2v17q0 5 3 5.5t5 -3.5l10 -19l8 -24 q4 -5 0.5 -10t-8.5 -5q-21 -3 -42 -4t-45 0t-39.5 2t-46 3.5t-44.5 3.5q-7 0 -10 8q0 4 -2 6z" />
<glyph unicode="_" horiz-adv-x="854" d="M657 -221q13 0 27.5 -1t20.5 -1q7 -1 21.5 -1t21.5 -1q7 0 19 -1t19 -1l107 4q8 0 8 8q-3 67 4 123q0 6 -6 6h-8q-6 0 -6 6q0 3 1 5t2.5 2t2.5 -1h2q0 -4 4 0q20 5 25 0q5 -2 2 -10l-2 -2q-4 -4 -4 -6q0 -15 -2 -57.5t-1 -69.5q0 -20 -20 -23q-43 0 -61 2h-17 q-6 -3 -13.5 -3.5t-17.5 0.5t-14 1q-7 0 -20.5 1t-20.5 1h-22q-5 0 -21 4h-4h-12q-8 4 -52 3t-55 0q-4 0 -12 -2.5t-12 -2.5h-64q-36 1 -76.5 1t-88 -0.5t-70.5 -0.5q-44 -6 -142 5q-14 0 -20 12q-2 2 -2 8q-2 1 0 3t4 1q6 0 6 -6q2 0 2 -2q0 -4 4 -4q37 -1 109.5 0.5 t97.5 1.5q35 0 53 -2q29 0 91.5 1.5t115.5 1.5t96 -3z" />
<glyph unicode="`" horiz-adv-x="344" d="M238 1524q-1 3 -6 6.5t-7 5.5q-7 10 4 10t19 -8l2 -4q4 -4 10 -4q35 3 76 0q3 0 8 1t8 1h33q7 0 4 10l-6 14q-3 12 4 23v2q0 2 2 3q1 -2 2 -3l15 -35q6 -12 8 -22v-2q0 -4 -2 -4q-18 -4 -21 -2h-2q-3 0 -5 1t-5 1q-16 -3 -37 -3.5t-50.5 0.5t-39.5 1q-2 0 -2 -3 q-2 1 -4 3q-5 3 -8 8z" />
<glyph unicode="a" horiz-adv-x="1034" d="M1001 63h-2v11l-6 37l-10 47q-6 23 -14.5 70.5t-10.5 56.5l-14 71l-18 60l-13 39l-6 34q-3 14 -7 42t-7 42q-28 134 -41 187q-22 87 -27 110l-8 48q-1 4 -2 9l-1.5 7.5t-0.5 3.5q-3 12 -6 35t-6 35l-29 120h2l-16 56l-10 73l-11 31q-6 25 -16 74q-2 5 2 9t8 3 q7 -2 10 -18q7 -56 37 -182l10 -66l17 -59q3 -12 41 -191q12 -62 39 -180.5t39 -183.5q9 -45 20 -115q3 -17 14 -48t15 -46q4 -18 18 -89.5t23 -109.5l10 -51l8 -49q0 -6 3.5 -17t4 -16.5t-5.5 -15.5q-15 -12 -37 -9h-20q-91 -10 -174 -2q-6 0 -10 4q-7 7 -7 11q0 1 -1 3 t-1 3q0 8 9 8q7 0 10 -8q83 -6 172 0q4 0 6 2h29q7 2 10 12q0 5 -2 14.5t-2 14.5q-2 2 -2 10q-1 3 -2 6.5t-1.5 5t-0.5 2.5v11l-9 34v4zM137 -70q-1 1 -0.5 6.5t0.5 6.5q3 6 8 6q7 0 7 -6v-2q49 -6 153 -2h23q7 3 23 2.5t18 3.5q6 7 9 17.5t5 25.5t4 22l4 17q3 29 12 55 l17 72q3 8 5 25t5 24q9 18 31 18q6 0 147 6q13 0 13 -10q3 -10 -9 -10q-153 -6 -163 -6q-7 -30 -19.5 -90t-19.5 -88l-4 -19q-1 -5 -3.5 -20t-4.5 -22.5t-7.5 -17t-13.5 -14.5q-7 -6 -20 -8t-25.5 -1.5t-26.5 -0.5h-22q-94 -4 -133 2q-13 3 -13 8zM502 578l8 32q3 12 7 34.5 t7 33.5q0 4 3 4t3 -4q0 -1 1 -3t1 -3q3 -21 0 -41l-12 -53q-3 -9 -12 -9t-6 9z" />
<glyph unicode="b" horiz-adv-x="1015" d="M217 -49v-4q24 1 74.5 -1t73.5 -1q19 1 103 1t126 3h76q75 4 106 18l12 4q21 3 37 19l4 4q3 2 11.5 7.5t11.5 8.5q5 5 20 17t21 20q22 28 39 74q24 45 31 84q31 114 22 188q-2 12 -6 44.5t-8 49.5l-4 15l-2 18l-2 15q0 5 3 5q2 -1 3 -3q19 -37 22 -50l4 -38l4 -43 q0 -12 5 -52q1 -10 -3 -41l-2 -14q0 -1 -1 -14t-5 -19q0 -51 -35 -127q-1 -3 -9.5 -23.5t-12 -28t-11.5 -21t-16 -23.5q-8 -11 -19 -21t-30 -23.5t-22 -16.5q-2 -4 -4 -7t-6 -5.5t-6.5 -4t-8 -3t-8.5 -2.5t-9.5 -2.5t-9.5 -2.5q-7 -6 -16.5 -9t-23.5 -5t-21 -4 q-44 -7 -80 -7q-17 0 -52.5 1.5t-63 1.5t-46.5 -3q-8 0 -27.5 -1t-31.5 -1q-44 -2 -131 2q-9 0 -24 -1.5t-26.5 -1.5t-19.5 3l-16 9q-8 3 -8 10q0 10 8 10q10 3 10 -8zM942 811q-14 -49 -47 -100q-8 -8 -14 -2q-8 6 0 14q2 3 7 13.5t10 18t11 13.5q4 17 17.5 57t20 73 t3.5 65q-5 68 -8 81l-6 37l-6 41l-10 56q0 4 2 4t2 -2l4 -9l18 -43q4 -17 19 -122q13 -96 -23 -195zM455 1120q-1 -17 1.5 -60.5t-1.5 -58.5q3 -9 0 -22q4 -70 4 -92q0 -10 -10 -10q-11 4 -11 12q1 37 -1 111t-1 114q0 24 19 27q8 1 24 1t28.5 1t22.5 4q14 2 48 2q2 0 2 -2 q2 0 2 -2l2 -8q0 -9 -9 -9q-22 0 -65 -3.5t-55 -4.5zM573 541h31q11 0 14 -9q8 -8 -4 -8q-2 -2 -18 -2q-19 0 -45.5 1.5t-45.5 1t-44 -4.5q-5 -70 0 -233q0 -11 -10 -11q-11 0 -11 11v37q0 108 2 188q0 21 21 27q15 3 31.5 3.5t41.5 -0.5t37 -1z" />
<glyph unicode="c" d="M418 324v-13q0 -6 -5 -7q-2 0 -3 3q-9 9 -9 27v41q0 31 5 39q-7 39 -7 108v4q0 12 -1 27t-1 27q0 15 2 47.5t2 50.5q0 13 -1 39.5t-1 42.5t1 48t1 48q0 19 -3 59.5t-3 61.5q0 157 135 172q10 0 19 -6q3 -8 -4 -8q-131 0 -131 -138q0 -20 3 -61.5t3 -65.5q0 -53 -2 -154.5 t-2 -148.5q0 -34 2 -94.5t2 -87.5q0 -11 -1 -30t-1 -31zM920 229q2 23 2 68v111h-11q-8 0 -8 10q0 5 2 7t6 1q7 0 9 -2q14 -3 14 -23v-63q0 -9 1 -28.5t1 -28.5q-5 -108 -29 -154l-35 -64q-10 -18 -24.5 -32t-39.5 -31t-36 -25q-76 -57 -197 -61q-24 0 -38 2q-9 1 -25.5 1 t-30.5 1t-26 4q-64 8 -107 31q-4 1 -3 3t5 1q5 -1 11.5 -2t10 -1.5t5.5 -0.5q12 0 14 -2q54 -14 90 -14q2 0 9.5 1t13.5 1q5 0 33.5 -3.5t44.5 -3.5q22 0 45 4.5t51.5 13t40.5 11.5q3 2 18.5 11t21 13t21 14.5t23 17t22 19t22.5 23t20 25.5t19 30.5t14.5 34.5t12.5 39 q2 4 7 41zM766 874q-67 0 -86 17q-4 4 -4 8q0 6 4 6h10q4 0 4 -4q39 -10 90 -10q45 0 123 10v66q0 93 -4 114q-1 16 -4 32t-7.5 36t-6.5 29q0 4 2 6l2 -4q40 -76 37 -211v-60q-3 -23 -23 -26q-47 -9 -137 -9z" />
<glyph unicode="d" horiz-adv-x="985" d="M958 520v33q0 25 -1 74t-1 73q0 4 -1 13t-0.5 14t3.5 8q-6 47 -6 146q0 21 1 60t1 60q0 22 -4 54q-3 8 -7 24.5t-7 24.5q-2 9 -6.5 40.5t-9.5 49.5q1 3 4 2q9 -9 12 -22q35 -100 35 -197q0 -16 -1 -48t-1 -50q-1 -30 2.5 -86t3.5 -80v-76q0 -34 -1 -90t-1 -82v-70 q0 -15 -2 -46t-2 -48q0 -67 -17 -128t-51 -113t-93 -84.5t-136 -36.5l-260 -15q-28 0 -76 1t-70 1h-24q-5 0 -8 0.5t-3.5 1.5t-2 2t-3.5 2q-2 2 -5.5 4.5t-5 4t-1.5 4.5v4q-3 8 6 8q8 0 8 -8q0 -1 1 -3t1 -3q35 -2 105 -2q142 0 238 8t153.5 19t95 37t53.5 48t37 66 q12 19 20.5 42.5t13 57t6.5 51.5t4 63t3 56q1 18 1 40.5t-0.5 50t-0.5 40.5zM453 942v174q0 11 3 18t12 9.5t13 3.5t19 0.5t18 -0.5l43 4q16 0 21 -8q4 -1 3.5 -4.5t-5.5 -3.5q-10 -1 -39 -4t-47 -3q-19 0 -23 2q-2 -31 -2 -86v-114q0 -12 -1 -31t-1 -27t1 -25t1 -26 q0 -21 -2 -66t-2 -69q0 -52 3 -149t3 -146v-108q0 -9 -10 -9q-8 0 -8 9q-2 16 -2 49q0 11 1 33t1 36q0 26 -2 73.5t-2 70.5q0 11 1 32t1 33q-2 47 -2 144q0 15 2 80t2 108z" />
<glyph unicode="e" horiz-adv-x="997" d="M948 -51q13 102 13 135q0 29 -7 76q-4 0 -4 4q0 2 -2 4q0 9 6 12q2 2 4 2q10 3 13 -12q10 -58 10 -98q0 -41 -8 -68q0 -3 1 -7t1 -7q0 -19 -6 -42.5t-13 -23.5t-10 8l-254 5q-50 1 -161.5 -8t-168.5 -9q-7 0 -34.5 -0.5t-45 -0.5t-39 2t-32.5 5q-5 5 -10 15q0 10 8 10 q10 0 10 -10v-2q33 2 98 2h76q44 0 132 7t132 7q3 0 291 -6zM457 1081q0 -33 -6.5 -97t-6.5 -97q0 -8 -10 -8q-8 0 -8 8v4q0 41 5.5 133t10.5 92q2 0 4 -2l1 6q1 6 4 6q23 -2 67 -2q24 0 75 1t79 1q22 0 66.5 -1t64.5 -1h43q20 0 53 -2t49 -2q15 88 15 131q0 39 -11 99 q-2 0 -6 4v6q0 9 8 6q27 -19 27 -127q0 -137 -39 -137q-13 0 -38 1t-36 1h-69q-18 0 -51.5 2t-49.5 2q-14 0 -40 -1t-40 -1q-28 0 -82 1t-81 1v-18q2 -2 2 -9zM461 524q-8 -84 -8 -221q0 -10 -11 -10q-10 0 -10 10v8q0 106 8 197q3 21 23 24q49 9 90 9q5 0 14.5 -1t14.5 -1 q1 0 3 2t3 2q25 0 61 -4q17 0 50 2t49 2t40.5 -1t36.5 -1q8 0 12.5 5.5t6.5 17t2.5 18.5t0 22.5t-0.5 16.5q0 66 -8 129q-4 0 -4 4v4q0 14 8 6q24 -19 24 -133q0 -41 -6 -84q-3 -23 -24 -23h-23q-39 2 -106 2q-8 0 -23 -2t-22 -2q-12 0 -33 2t-33 2q-21 0 -66 -1t-69 -1z " />
<glyph unicode="f" horiz-adv-x="987" d="M342 -84h-41q-74 0 -94 25q-6 6 4 6q14 0 16 -2q57 -11 92 -11q44 0 119 11q6 165 6 172q0 22 -3 86.5t-3 105.5q0 183 9 216t55 31q15 -1 24 -1q20 0 55 -1t54 -1q15 0 50 1t56 1q72 0 93 -4q12 82 12 125t-8 67q-2 2 -2 17q0 12 8 4q22 -13 22 -88q0 -32 -14 -123 q-3 -21 -23 -18q-94 4 -139 4q-35 0 -109.5 -2t-115.5 -2q-8 -35 -8 -99q0 -59 3 -174.5t3 -163.5q0 -23 -4.5 -72.5t-5.5 -74.5q0 -22 -21 -25q-32 -6 -90 -10zM965 1354q6 -55 6 -121q0 -7 -2 -18.5t-2 -18.5q0 -4 2 -14t2 -17q0 -2 -4 -30q-3 -21 -23 -21q-34 0 -100 3 t-103 3q-17 0 -46 -1t-44 -1q-17 0 -48 1t-48 1q-32 0 -94 -4q-4 -18 -4 -80q0 -21 1 -44t2.5 -51t2.5 -44q0 -10 -10 -10q-11 0 -11 10q-1 14 -2.5 39t-2.5 45.5t-1 38.5q0 92 13 113q3 7 16 4q2 -2 16 -2q16 0 47.5 2.5t40.5 3.5q11 0 34 -2t34 -2h35q10 0 14 -4q4 4 12 4 h17q9 0 26 1t25 1q38 0 92 -3t84 -3q8 57 8 118q0 45 -6 101q-4 0 -4 4t-2 4q0 10 8 10q1 0 2 -1t2 -1q12 0 15 -14z" />
<glyph unicode="g" horiz-adv-x="946" d="M784 -72l-4 4q-4 6 0.5 12.5t12.5 6.5q7 0 26 -5.5t31 -6.5q41 -3 68 6q-7 3 -7 16q3 6 3.5 11.5t-0.5 13.5t-1 12q0 8 2.5 24t2.5 23q0 9 -1.5 25t-1.5 28.5t3 22.5q-5 5 -5 12q-1 12 -1 29.5t-1 30.5q-2 41 -2 124q-4 78 -4 119q-1 34 5 118.5t3 133.5q-1 0 -2 -1 t-2 -1q-8 0 -8 8t8 11l15 2q8 0 8 -5q0 -3 1 -5t1 -5q1 -44 -5 -145.5t-3 -167.5q3 -52 4 -157.5t4 -162.5q1 -18 -2 -51.5t-2 -48.5q0 -3 1 -6t1 -4q4 -7 -6 -17q-9 -7 -19 -10q-66 -10 -110 10q-7 0 -9 -2t-4 -2zM406 479q0 -142 4 -184q0 -5 -3 -5.5t-4 3.5q-6 4 -10 22 v7q-6 70 -2 251q0 8 1 24t1 24q0 17 -4 45q0 8 2 24.5t2 24.5q-4 104 0 139q3 30 0 93.5t0 90.5q4 28 13.5 42.5t27.5 27.5l23 18l12 4l37 15l16 8q9 3 15 -6q2 -1 0.5 -4.5t-5.5 -3.5l-36 -13q-33 -11 -50 -28q-17 -12 -25 -28.5t-9 -47.5v-102q0 -33 -4 -99 q-1 -23 0.5 -63.5t1.5 -48.5v-121q0 -20 -2 -56t-2 -53zM918 991q0 49 -17 115q-4 28 -4 41q-3 8 -7 24.5t-7 24.5l-4 8q0 2 2 2q11 -19 28 -73q18 -51 19 -62q9 -65 0 -127q-1 -6 -1 -12t0.5 -12t0.5 -9q0 -21 -23 -24q-17 -2 -37 -3t-35 -1t-38.5 1.5t-34.5 2t-37 3 t-33 3.5q-14 0 -14 12q2 2 2 6q2 10 6 7q8 0 8 -9q132 -13 219 -6q-5 13 0 47q2 4 7 41zM549 483l-2 17q-3 8 6 8q7 0 10 -10q2 0 2 -2v-1q-2 -2 -2 -12q0 -6 -6 -6q-5 0 -8 6zM342 -68v2q9 -4 28 -4h23q2 0 16.5 -3.5t22.5 -2.5q19 -5 82 0q11 2 39.5 7t42.5 8 q18 7 38.5 24.5t27.5 26.5l2 2q1 1 14 -2q2 -2 2 -8q-39 -39 -74 -52q-57 -24 -106 -24q-62 -6 -117 16q-3 0 -1 2q-1 2 -3 2q0 -2 -2 -2q-1 0 -27 4z" />
<glyph unicode="h" horiz-adv-x="1064" d="M756 -61v2q-3 8 6 8h6q2 0 8 -6q0 -2 2 -2q76 -2 217 -2q1 33 0 105t0 108t0 74t-3 85t-3 74q0 43 1 140.5t0.5 169t-3.5 145.5v104q3 48 -2.5 191.5t0.5 203.5h-4q-8 0 -12 11q0 10 10 10l8 -2q15 -3 12 -19q0 -1 2.5 -8t-2.5 -8q3 -40 1 -121.5t1 -124.5q2 -41 7 -450 v-152q0 -13 -1 -37t-1 -37v-71q0 -1 1.5 -27t6.5 -59q1 -7 1 -20.5t1 -20.5q0 -25 -1 -77t-1 -77v-106q0 -24 -17 -27q-8 -1 -23 1.5t-22 2.5q-18 0 -52 -1.5t-63 -1.5t-57 3q-11 0 -16 8q0 2 -2 4zM209 -68v2q0 11 8 11h2q8 0 8 -8q157 -4 215 0q0 3 -1.5 13.5t-1.5 20 t3 13.5v8q-3 28 -3 56.5t1.5 62t1.5 51.5q0 20 -0.5 80.5t-0.5 92.5t2.5 83t7.5 94q0 23 22 23q56 8 133 -3q4 -2 29 -2q10 0 10 -10q0 -8 -8 -8q-58 0 -168 4q-3 -18 -3.5 -63.5t-4.5 -67.5q0 -25 1 -93t1 -112q0 -26 -2 -76.5t-2 -70.5q11 -60 4 -101q0 -5 -6 -8 q-2 -1 -6 -3.5t-7 -2.5q-108 -9 -221 0q-5 0 -8 6q-6 6 -6 8zM453 1331q-6 -60 -2 -184q1 -14 1 -86.5t3 -114.5q4 -32 4 -53q0 -10 -10 -10q-11 0 -11 10l-6 233q-7 82 4 213h-8q-10 3 -10 13q4 11 12 8q1 0 3 -1t3 -1q17 -7 17 -27z" />
<glyph unicode="i" horiz-adv-x="524" d="M215 -66q-3 9 6 9h2q8 0 8 -9q14 -1 36.5 -3t40.5 -3t34 0q8 0 38 3t46 3h14l13 7q3 89 -4.5 267t-4.5 273v119q0 147 -2 231q0 20 0.5 56t0.5 65t-1 54q-3 62 -1 178.5t-1 165.5q-2 0 -4 2q-8 0 -8 8q0 5 2 7t6 1q4 0 6 -2q12 -3 15 -18q3 -40 3.5 -81t-0.5 -100t-1 -86 q2 -72 2 -225q0 -37 2 -112.5t2 -118.5v-2q-1 -10 -1 -23.5t0.5 -27t0.5 -17.5q0 -21 -2.5 -86t-1.5 -132.5t8 -148.5q6 -120 0 -239q0 -26 -18 -29q-8 -4 -26 -4h-22q-67 -10 -129 -2q-8 1 -20 0.5t-19.5 0.5t-13.5 5q-6 6 -6 14z" />
<glyph unicode="j" horiz-adv-x="991" d="M494 -78q-72 0 -121 21q-19 6 -25 10q-6 6 2 6h4q28 -4 35 -8q40 -12 98 -12q8 0 24.5 -1t23.5 -1q83 0 157 24q67 20 121 64q5 4 13.5 11.5t14 12t11.5 11t10 12.5q22 32 32.5 67t12 54t2.5 75q6 63 6 181q0 41 5 198q3 124 -3.5 356.5t-5.5 339.5h-4q-10 0 -10 11 q0 10 10 10h6q3 0 9 -6q1 -3 3.5 -5t2.5 -5q1 -40 5.5 -154.5t4.5 -173.5q0 -36 -1 -144t-1 -198v-45q-1 -12 -4 -12q3 -3 3.5 -4t-0.5 -3.5t-1 -5.5q5 -61 0 -76q3 -7 3 -16.5t-1.5 -23t-1.5 -21.5q0 -10 1 -37t0.5 -47.5t-3.5 -38.5q-1 -9 -1 -29t-1 -32q0 -7 -2 -20.5 t-2 -20.5q0 -11 -1 -31t-1 -33q0 -33 -25 -88l-6 -8q-5 -5 -12.5 -17t-12.5 -16q-34 -34 -84 -71q-12 -8 -27.5 -15t-26.5 -10.5t-30.5 -10t-29.5 -9.5q-24 -10 -43 -13q-13 -4 -38.5 -4h-31.5q-11 -1 -31 1t-32 1zM418 299v-2q0 -10 -6 -4q-8 3 -11 12l-6 33q-3 36 -3 104 t-3 95q-8 0 -8 10q0 6 8 6l4 -2q12 0 15 -14q5 -11 4.5 -83t-0.5 -83q0 -10 1 -22t2.5 -26.5t2.5 -23.5zM383 1126q-3 9 6 9q4 0 11 -2.5t10 -2.5q41 -6 139 -6q10 0 10 -10t-10 -10q-8 0 -29 -1t-36 -0.5t-29 3.5q-46 4 -58 8q-11 0 -14 12z" />
<glyph unicode="k" horiz-adv-x="1048" d="M201 -57v6q0 15 8 12h2q8 -3 8 -10q39 -5 116 -3.5t111 -2.5q6 122 -6 336q0 11 -1.5 40.5t-0.5 47.5q0 9 3.5 34t2.5 39q0 2 2.5 2t2.5 -2q6 -11 10 -36v-35q-2 -58 5 -211t-3 -217q0 -10 -6 -13h-2q-3 0 -7.5 -2t-7.5 -2q-13 0 -34.5 2t-32.5 2q-51 -4 -76 -2h-25 q-63 0 -69 15zM711 864q-12 -17 -26.5 -42t-22.5 -36q-11 14 2 35l41 70l20 24q2 4 7.5 14.5t8.5 14.5l68 94q1 2 29 41l53 86q10 14 26.5 43t28.5 43q31 41 47 92q-14 0 -26 3q-7 0 -4 8q8 8 16 8h14q10 0 13 -8l2 -8l1.5 -6t0.5 -3l-4 -10q-13 -30 -17 -37 q-14 -33 -20 -41l-19 -26l-6 -11q-9 -21 -22 -34l-2 -2q-7 -10 -41.5 -65.5t-57.5 -80.5q-3 -9 -12.5 -22t-11.5 -17q-9 -8 -11 -16l-10 -14q-19 -25 -20 -27q0 -1 -21 -37q-21 -27 -24 -33zM1020 -47q0 1 -1 4t-1 4q-3 0 1 1q13 5 19 -1q2 -3 6 -18q2 -2 -2 -9q0 -2 -4 -6 q-19 -8 -45 -8q-43 -6 -65 -4.5t-62.5 6.5t-62.5 6q-19 0 -25 15l-4 4q-3 8 6 8h2q10 -5 13 -8q28 0 89.5 -8t96.5 -5q25 0 31 3q10 3 8 16zM436 1364h6q15 -3 15 -18l2 -150q0 -20 -8 -33q-1 -3 -3 -3t-4 2t-2 5q-4 115 -2 179h-4q-8 0 -8 10q0 5 2 7t6 1z" />
<glyph unicode="l" horiz-adv-x="890" d="M465 422q0 -43 -4 -137q0 -7 -2.5 -10t-7.5 -1q-11 0 -11 11q0 18 2 22q4 62 4 86q0 60 -10 125q-1 18 -1 52t-1 51q-2 33 -2 98q0 216 -2 325q0 31 1.5 94.5t1.5 117.5t-3 100h-2q-8 0 -8 8q0 10 10 10q14 0 19 -8q3 -3 3 -6.5t-1.5 -9t-1.5 -9.5q0 -18 1.5 -58.5 t1.5 -75.5t-3 -64q-1 -1 -0.5 -68.5t0.5 -68.5q1 -13 -1 -34t-2 -30q0 -14 4 -70t1 -88v-82q0 -11 -0.5 -27.5t-0.5 -28.5t1 -23l6 -52q0 -5 -1.5 -24t-0.5 -29q0 -12 4 -33t4 -32q0 -5 1 -15.5t1 -15.5zM860 -63q23 82 -2 202q-2 2 -2 13q0 8 8 8q10 0 13 -8 q12 -85 14 -119q2 -36 -8 -76q-2 -4 -4 -13.5t-5.5 -15t-9.5 -8.5q-8 -2 -12.5 -2t-15.5 2.5t-15 3.5q-52 3 -110 0q0 -2 -37 -1l-37 1q-16 -1 -66.5 -4.5t-74.5 -3.5q-87 0 -271 4q-24 0 -24 23q0 6 4 6h4q8 0 8 -12q103 -5 327.5 2t315.5 -2z" />
<glyph unicode="m" horiz-adv-x="1351" d="M1282 -35q2 36 -2 107v61q0 29 -4 81t-4 75q0 9 2.5 30.5t1.5 34.5q-4 27 -4 129q0 20 4 56q2 1 1 35l-1 34q0 3 1 10.5t1 10.5q-6 75 -6 334q0 21 1.5 86.5t0.5 101.5q-4 129 6 192q-9 0 -12 3q-9 0 -6 8q0 6 8 6l8 -2q16 -3 16 -21q0 -16 -3.5 -57t-2.5 -63l2 -21 q2 -20 -2 -20q4 -17 5 -37.5t0.5 -33t-2 -40t-1.5 -35.5v-12q2 0 1 -20l-1 -21v-8q3 -53 1 -147.5t1 -135.5q3 -58 0 -163t0 -154q0 -8 1 -25t1 -25q0 -28 2 -88t2 -92q-1 -31 0 -93.5t0 -94.5q-3 -22 -22 -25q-50 -12 -82 -12q-42 -2 -127 10q-11 4 -14 13l-2 2q0 8 6 8 q2 -2 4 -2q6 0 6 -4q107 -25 193 -2q22 9 22 26zM207 -57q0 10 10 10q6 0 8 -2q122 -24 215 -2q0 12 2.5 51t1.5 59q-5 58 -4 68q0 14 -2 51.5t-2 67.5q-1 12 0.5 51.5t-2.5 48.5q-4 17 -4 82q0 16 -2 44t-2 44v23l2 -2l10 -29q6 -21 6 -41q4 -85 11 -145q1 -15 3 -61 t3 -66.5t2.5 -60.5t1 -66t-2.5 -59.5t-5 -63.5q-2 -6 -7.5 -11t-11.5 -4q-8 0 -51 -8t-68 -4q-71 12 -100 14q-8 0 -12 11zM651 111q0 4 4 4h4q8 0 11 -9l2 -2q61 -6 168 7q13 37 34 129l15 47q16 63 35 110q0 5 3 5t3 -5v-22q0 -3 -1 -6t-1 -4l-4 -13l-11 -43 q-12 -38 -26 -98l-29 -92q-3 -24 -24 -27q-19 0 -27 -2q-77 -9 -145 -2q-8 0 -8 10.5t-3 12.5zM535 1300l-5 17l-8 29q-2 2 -2 8q0 2 4 2q2 0 6 -4q12 -35 23 -84q12 -31 10 -43q8 -12 27 -78q5 -19 33.5 -128t46.5 -167l12 -49q3 -6 0 -15h-2l-18 66l-25 82q-20 56 -53 194 l-27 99l-4 20l-10 33q0 6 -0.5 8t-3 4t-4.5 6z" />
<glyph unicode="n" horiz-adv-x="1095" d="M795 -45q74 -16 231 -4q-3 25 -3.5 51t0.5 61t1 48q-4 202 -8 254q0 15 4 47q0 27 -2.5 89t-1.5 97q0 311 6 475q4 34 1.5 136.5t-1.5 136.5h-4q-8 3 -8 10q-3 9 6 6l6 -2q16 0 16 -19q2 -41 2 -120q0 -23 1 -70t1 -70l-6 -141q3 -79 -1 -235.5t-1 -225.5q1 -16 1 -33.5 t-0.5 -40.5t-0.5 -36q5 -182 8 -217q1 -28 -1.5 -104t1.5 -99q0 -19 -26 -19q-11 0 -53.5 -2.5t-52 -2t-50.5 2.5l-63 6q-16 0 -19 13l-2 6q0 6 6 6h6q7 0 7 -4zM201 -53q0 10 8 10q6 0 8 -2q2 0 2 -2q124 -28 217 2q-4 2 -2 21l2 20v27q1 7 1 23.5t1 23.5q0 13 3.5 45 t2.5 49q-1 6 -6 162q0 153 -2 227q0 2 3 2.5t5 -0.5q9 -15 9 -39q0 -67 4 -215q0 -49 2 -74q0 -14 2 -38.5t2 -36.5q0 -9 -2 -27.5t-2 -26.5q-6 -49 -6 -147q0 -8 -9 -8q-3 -1 -7 -5t-7 -4q-77 -26 -215 0q-11 4 -14 13z" />
<glyph unicode="o" d="M915 274q9 117 0 244q0 50 -1.5 110.5t-0.5 82.5q2 33 -2 98q-1 23 -3 135t-11 168q-4 4 -4 8q-5 48 -8 56q1 3 4 2l14 -31q23 -51 23 -176l4 -213v-94q6 -123 6 -138q0 -10 0.5 -57.5t0.5 -76t-2 -78t-6 -83.5t-12 -71t-20 -60q-8 -13 -21 -30.5t-18 -24.5 q-6 -8 -13.5 -15.5t-10.5 -10t-16 -11.5t-15 -10l-4 -2q-13 -13 -33 -25l-23 -12q-47 -26 -96 -37q-7 -1 -34 -7.5t-43.5 -9t-34.5 -1.5q-11 2 -46.5 5t-54.5 9l-41 19l-8 4q-2 2 0 4h14q20 -3 39 -11l4 -1q4 -1 7 -1q93 -20 151 -4l29 6q55 18 100 37q15 7 45 29 q5 3 13.5 8.5t16 11t13.5 11.5q56 47 76 108q8 21 8 54q3 15 7 41t7 40zM463 1126q43 15 61 19q2 0 2 -2h4q0 -2 7 -2l6 -6v-2q-67 -13 -90 -31q-14 -10 -31 -39q-4 -9 -5.5 -18t-1.5 -15t0.5 -19t0.5 -20q0 -48 -4 -227t0 -225q1 -16 3.5 -59t2.5 -60.5t-2 -59.5 q-3 -27 0 -51q0 -14 -10 -4q0 1 -1.5 3t-1.5 3q-6 14 -6 41q0 45 -2 76q-7 113 -2 338q5 216 4 254q-1 6 4 39q6 26 21 35v2l8 10q8 12 33 20z" />
<glyph unicode="p" horiz-adv-x="978" d="M932 791l4 40q18 150 -2 246q-4 28 -4 41l-4 37l-6 21l2 2q3 -5 7 -15.5t7 -15.5q15 -45 20 -66q11 -96 2 -215q-13 -108 -24 -143q-15 -43 -23 -59q-15 -27 -55 -58l-61 -47q-76 -40 -160 -51q-26 -4 -57 -5t-68 -0.5t-57 -0.5q-9 -104 -9 -271q0 -2 1 -59.5t-1 -62.5 q-1 -26 0 -75t0 -73q0 -21 -20 -24q-4 -1 -23.5 -6t-23 -6t-23 -4.5t-23.5 -2t-24 1.5q-35 2 -90 12q-8 0 -12 11v2q-3 6 6 6h4q6 0 6 -4q14 0 41 -3.5t35 -4.5q50 -4 80 4q40 13 53 6q-3 23 -3.5 46.5t0.5 57.5t1 49q1 13 -0.5 34.5t-1.5 29.5q2 47 2 149q0 8 -2 26t-2 26 q5 60 4 69q0 12 2 32t2 32q0 3 2 6t2 6q3 6 10 6q23 3 75 2t83 2q108 9 189 60q57 42 90 71q37 57 49 138zM453 1133q49 9 108 6q4 0 14 -13q0 -8 -6 -8q-22 1 -120 -4q3 -47 -1 -128.5t-4 -106.5q0 -11 -10 -11t-10 11q0 21 2 61t2 64q0 11 -1 34.5t-0.5 39.5t3.5 32 q0 20 23 23z" />
<glyph unicode="q" horiz-adv-x="944" d="M911 324q5 7 1.5 61.5t-3.5 67.5q1 55 -0.5 162t-1.5 143q0 16 2 45t2 45q0 17 -2 55t-2 58q0 8 3.5 50.5t-1.5 47.5q0 1 -3 17t-3 24q0 20 -6 35l-2.5 7.5t-2.5 8.5t-1 8l-4 15v14q-2 2 1 3t5 -1q9 -14 10 -16l6 -21q6 -16 9 -51q0 -3 4 -19.5t4 -27.5q1 -17 0 -52 t0 -55v-51q0 -16 -1.5 -48.5t-1.5 -61.5t3 -54q2 -14 -2 -41q-4 -10 0 -61t4 -62q-4 -22 0 -117.5t4 -123.5q0 -131 -27 -199q-11 -41 -37 -70q-12 -12 -44.5 -38t-45.5 -46l-6 -2l-4 11q0 6 2 6q11 12 29 26.5t30 26.5q38 38 54 82q4 12 11.5 29t10.5 26q4 25 3.5 69 t2.5 75zM498 1145q3 0 7 1t7 1q8 3 16 0l12 -2h-1l4 -4l6 -8v-3h-4q-37 2 -84 -18q-1 0 -2 -1t-2 -1q-17 -13 -29 -27l-4 -6q-6 -13 -10 -63v-56q0 -13 -2 -40t-2 -41q0 -23 2.5 -78t1.5 -82q0 -16 -1 -50.5t-1 -54.5q0 -7 -3 -49t-3.5 -55.5t-2 -49.5t-1 -57t2.5 -50t5 -54 q-1 -3 -4 -2l-5 8q-8 8 -8 23q-2 14 -2 36v91q0 15 2 43t2 45q2 63 2 219q0 30 -4 84q-1 16 4 112q0 58 4 80q3 43 15 58q3 4 7 8t11 9t10 7l2 4q10 10 25 13q3 1 12.5 5t14.5 5zM670 -334q0 2 -2 4q-1 6 0 8t6 0q11 0 14 -8q117 -10 189 0l-13 33q-4 22 -2 25q2 4 5 4t5 -4 l21 -50v-16q-3 -7 -10 -10q-110 -9 -195 2l-10 4q-5 3 -8 8zM330 -37v2l39 -12q3 0 8 -1t8 -1v-2l53 -6q1 0 21 -4q8 0 8 -7v-2q0 -4 2 -6t2 -6h-2q-6 0 -8 2q-52 14 -53 14q-8 4 -20 5.5t-13 1.5q-3 1 -8.5 5t-8.5 5l-24 8z" />
<glyph unicode="r" horiz-adv-x="993" d="M725 -53q-3 6 6 6q14 -4 64 -8q86 -17 166 -4l-13 32q-7 10 -4 39q1 9 -1 18t-4 14t-7 15t-6 13l-19 39q-8 31 -27 82t-24 69l-37 109q-3 10 -20 53.5t-23 67.5q-4 8 -7 23t-5 22q-8 12 10 30l21 19q15 15 36 30q98 85 113 236q4 39 4 172q0 4 1 15t1 16q-3 23 -10 39 q-8 8 -2 18q-4 0 -4 10q0 27 -2 31q-2 1 0 2t4 0q0 -2 2 -4l16 -39q5 -12 9 -39q5 -8 3 -56t-1 -59q4 -37 2 -55q-3 -58 -19 -125q-12 -54 -35 -92q-36 -54 -96 -102q-31 -31 -45 -37q5 -15 12 -41t14 -47.5t15 -38.5l14 -39q12 -46 31 -94l39 -113q43 -102 64 -172 q14 -40 14 -55q3 -17 -23 -27q-82 -16 -147 2q-66 15 -70 15q-7 3 -10 10zM219 -51h2q9 0 37 -4q77 -18 172 -2q2 47 2.5 265t9.5 310q0 2 2 4l5 -4l4 -14q6 -18 6 -39q-9 -131 -6 -262q0 -4 -1 -12.5t-1 -12.5q4 -109 2 -160v-55q0 -1 -0.5 -2.5t-1.5 -5t-2 -6.5 q-9 -24 -25 -27q-42 -14 -127 -4q-69 11 -98 23q-4 4 -4 6q0 6 4 6zM471 1135q19 -1 50.5 0.5t41.5 1.5q16 0 25 -9q4 -4 1.5 -8t-7.5 -4h-37q-10 -1 -24 -1t-31.5 0.5t-26.5 0.5q0 -22 0.5 -68.5t0.5 -86.5t-1 -74q0 -10 -10 -10q-11 0 -11 10q0 37 1 115t1 118q0 6 7 10h8 z" />
<glyph unicode="s" horiz-adv-x="946" d="M891 166l16 67q9 84 -16 179q-2 2 -2 16q0 10 -2 12q-1 3 -2 6.5t-1.5 5.5t-0.5 3q-2 2 -2 8v2h2q3 -5 7 -16t7 -15q2 -5 7.5 -15t6.5 -16v-10l9 -41v-2q2 -14 2 -39q-1 -33 1 -41.5t-4 -37t-7 -33.5t-8.5 -31t-8.5 -31q-13 -39 -21 -53q-3 -5 -11 -14.5t-11 -14.5 l-10 -14l-13 -12q-3 -3 -4 -8.5t-4 -8.5l-8 -6q-30 -30 -49 -35q-22 -13 -23 -14q-23 -14 -30 -14h-4q-18 -8 -34 -12t-44 -7t-35 -4q-3 0 -6 -2t-6 -2q-7 0 -20.5 1t-20.5 1q-11 0 -35 -1t-35 -1q-3 0 -10.5 -1t-12.5 -0.5t-8 3.5h-16q-7 2 -24.5 6.5t-30.5 9.5t-21 11 q-2 2 0 4q8 0 10 -2q4 0 6 -1t3 -1q22 0 26 -2l33 -11q20 -4 92 0h43l47 7q12 3 34.5 3t31.5 3q7 3 23 8t24 8l22 16q7 4 19.5 9t17.5 8q8 6 15 13.5t16 20.5t12 17q38 42 49 61q8 18 19 60zM913 1122q2 -9 7 -26t8 -31.5t4 -28.5q6 -45 -6 -141q0 -24 -21 -27 q-8 -3 -16.5 -3.5t-22 0.5t-20.5 1q-9 0 -26.5 -1t-26.5 -1h-43q-8 0 -22 3.5t-19 4.5q-16 0 -31 9q-4 4 -4 8q0 6 4 6h4q3 0 8 -1t8 -1q22 -8 51.5 -11t50.5 -2.5t57 3t50 2.5q4 15 4 73q0 11 1 35t0.5 40t-3.5 32q-8 38 -8 41v6q-3 40 -14 70l-4 8q0 6 4 2q14 -31 26 -70z M492 1143q28 4 30 4q9 0 15 -6l4 -4q2 -2 2 -4v-3h-6q-5 0 -35 -10q-7 -3 -19.5 -6t-19.5 -6q-22 -10 -31 -27q-3 -4 -6 -11t-6 -11q-4 -28 -4 -39q0 -2 -3 -2.5t-5 0.5q-10 24 -5 37q2 19 21 45l18 16l13 10q22 14 37 17zM414 395q0 -10 -1 -36.5t-0.5 -45.5t3.5 -37 q0 -7 -6 -4q-2 0 -9 7q0 1 -1 2t-1 2q-4 4 -4 18q-1 18 0.5 51.5t1.5 44.5h-6q-8 0 -8 9q0 8 8 8h4q10 0 13 -6q1 -2 3.5 -6t2.5 -7z" />
<glyph unicode="t" horiz-adv-x="980" d="M946 1139l6 14q7 13 11 35v35q0 63 -9 127q-2 10 6 15q4 3 7 -1l6 -14q10 -65 10 -109v-22q0 -19 -1 -31.5t-5.5 -28t-15 -25t-27.5 -12.5q-23 0 -27 2q-2 2 -18 2q-22 3 -35 -2h-33h-69h-15q-23 6 -41 -10t-14 -39q0 -18 2 -22q0 -8 1.5 -37t0.5 -47q0 -78 1 -238.5 t1 -243.5q0 -21 -1 -61t-1 -61v-109q-2 0 -1 -58l1 -59q0 -36 -4 -98v-18q-1 -6 -2.5 -26t-4 -30t-8 -24t-16.5 -20.5t-28 -6.5l-17 -4h-18q-1 0 -3 1t-3 1q-18 -2 -26 -2t-28 2.5l-28 3.5q-42 4 -66 14q-6 3 -6 11q0 6 6 6h4q6 0 6 -6q18 -8 57 -11t46 -4q14 -5 57 0 q15 0 17 2q15 0 23.5 9t10.5 18.5t4 29.5t3 27q2 2 2 19q2 2 2 20q3 48 2 145.5t2 145.5v131q0 14 1.5 53t0.5 58q0 49 -3 152t-3 157v160q-6 45 15 69.5t64 14.5h19q12 0 37 1t39 1h63q3 0 7.5 -1t7.5 -1h28zM143 1145v2q0 11 9 8q11 0 14 -10l2 -2q47 -2 149 -2q9 0 9 -11 q0 -8 -11 -8h-34q-11 0 -35 2t-35 2q-42 0 -53 4t-15 15z" />
<glyph unicode="u" d="M492 -66h2q24 -2 32 -2t31 2t33 3h22q8 0 22 3.5t19 4.5q54 13 72 24q11 5 26 14.5t17 10.5q3 2 13 7t14 9q1 1 2.5 1.5t3 2t2.5 4.5q20 16 31 27q28 28 47 59q28 109 34 166q1 10 0 19t-3 18.5t-3 14.5v40q0 8 3 25.5t3 26.5q0 4 -2 16t-2 19q-1 16 4 98q1 19 -1 55.5 t-1 56.5v267q0 27 -1 84t-1 86q0 28 4 78.5t5 68.5q0 12 -1.5 34.5t-1.5 40.5t3 32q-5 0 -7 2q-8 0 -8 10q0 6 8 6l9 -2q7 -3 10 -10q0 -3 2 -7.5t2 -7.5q3 -55 -3 -154.5t-3 -152.5q2 -39 2 -114q0 -41 -1 -116t-1 -112q0 -19 1.5 -62t1 -77t-4.5 -66q5 -16 1 -80.5 t-3 -84.5q4 -36 4 -64q0 -20 -6 -41q-1 -1 -4 -10q-3 -10 -8 -39.5t-9 -44.5l-4 -6l-4 -13q-2 -4 -4 -12l-8 -10q-23 -38 -45 -55q-32 -32 -39 -37q-3 -3 -12 -6.5t-13 -6.5l-4 -4q-8 -6 -35 -18l-6 -2l-10 -6q-21 -13 -37 -15l-16 -2q-95 -22 -191 -10q-27 2 -74 14 q-5 3 -15 7.5t-15 7.5q-3 0 -3 2q0 3 5 4l51 -10q4 -2 27 -2q9 -1 24.5 -5t16.5 -4zM416 340q0 -7 -1 -18.5t-1 -18.5q0 -4 -3 -5t-5 1q-7 3 -7 18v68q0 7 -4 50.5t2 47.5q-3 4 -3.5 9.5t0.5 13.5t1 10q1 18 -0.5 78t2.5 80v18q5 133 0 176q-2 31 -2 86q0 33 0.5 92 t0.5 105.5t-1 85.5q-1 4 2 3q2 0 2 1q-6 3 -6 12q0 31 6 41q-2 0 -2 2v4q-1 8 0.5 24t1.5 26q-11 0 -14 8q0 8 8 8h2q16 0 19 -10q2 -17 2.5 -18t-2.5 -20l-2 -20q0 -5 1.5 -19t0.5 -22l-2 -2q4 -20 4 -62v-52q0 -14 0.5 -39t0.5 -46t-1 -40q0 -34 1 -115t1 -127l-6 -252 q-1 -38 4 -182zM100 1421q-6 0 -8 2q0 3 5 2q3 -1 3 -4z" />
<glyph unicode="v" horiz-adv-x="1046" d="M1016 1245l4 12t4 15l10 65l-14 4q-9 0 -6 9q3 8 10 8h10q19 -3 19 -23q0 -24 -7.5 -64t-16 -72.5t-21 -77.5t-15.5 -58q-17 -62 -28 -152q-13 -83 -64 -297q-6 -33 -24 -106t-25 -113l-10 -57l-6 -33q-6 -33 -29 -129q-3 -15 -10 -45.5t-11.5 -54t-7.5 -45.5l-16 -56 l-10 -34q-6 -21 -25 -21q-11 -1 -56 -4.5t-66.5 -4t-57 -0.5t-61 5t-46.5 14q-8 0 -8 9q-6 6 4 6q1 0 2 -1t2 -1q19 0 21 -2q20 -8 51 -11q44 -3 113 2.5t104 4.5q18 50 31 114l26 119q19 78 60 285l12 51l66 297q9 37 20 106.5t17 96.5q35 175 55 239zM489 885l15 -99 q0 -3 2.5 -14t2 -13.5t-2.5 -13.5v-4q-2 -6 -4 -6t-4 6q-5 41 -20 134.5t-19 119.5l-4 35q0 5 -2.5 14.5t-3.5 12.5l-7 24q-1 5 -6.5 56.5t-19.5 119.5q-2 2 -2 9v4q-4 28 -4 33q0 14 -4 30q-9 0 -9 10l-2 3q0 10 11 6h2q13 -3 16 -17q1 -5 1 -16t1 -19q0 -14 2.5 -29.5 t7 -37.5t6.5 -31q3 -16 6.5 -46.5t6.5 -45.5q7 -23 13 -64t12 -90.5t9 -70.5z" />
<glyph unicode="w" horiz-adv-x="1478" d="M1421 973l11 90q32 217 38 278h-14q-8 0 -8 11q0 8 8 8q1 0 4 -1t4 -1q21 0 21 -21l-4 -12q-1 -78 -25 -235.5t-26 -171.5q0 -30 -17 -121q-4 -28 -17.5 -100.5t-17.5 -114.5q-3 -28 -8 -58t-12 -67.5t-10 -55.5q-14 -78 -19 -98q-24 -93 -37 -192l-6 -50q-3 -7 -8 -45 q0 -20 -6 -41q-5 -34 -8 -41q-2 -8 -8.5 -13t-12.5 -1q-2 0 -4 2q-35 -5 -41 -4q-6 0 -8 2q-3 0 -8 -2t-8 -2h-107q-4 0 -25 -0.5t-29 0t-22.5 3t-25.5 7.5h-2q-14 -3 -17 8v5q-3 8 6 8h2q9 0 9 -6q18 -6 40.5 -7.5t52 0t44.5 0.5q40 -2 147 3q10 48 26.5 163.5t31.5 178.5 q27 111 63 342q43 273 53 352zM371 -70l-13 11q-2 0 -2 4q-2 0 -1 1t3 1q9 0 11 -2l12 -2q78 -15 131 -13l70 7q67 0 73 6q1 1 1 12t1 14q0 3 3 9l4 8q7 20 12 73q9 37 12 72q3 15 7 41.5t7 40.5q6 30 17.5 95.5t13.5 76.5q6 33 17 102q0 5 3 5t3 -5l4 -28v-29 q-3 -15 -7.5 -44t-7.5 -42q-25 -111 -38 -207q-20 -134 -35 -192q-3 -19 -25 -19q-7 0 -15 -1t-17.5 -2.5t-14.5 -2.5q-16 -4 -44 -4h-34q-9 0 -25.5 -1.5t-30 -1.5t-24.5 3q-13 1 -71 14zM1008 938l10 -98q3 -14 -4 -41v-4q-2 -6 -4 -6t-4 6q-19 172 -23 200l-4 35 q0 5 -2.5 14.5t-3.5 12.5l-6 24q-2 10 -8.5 45.5t-12.5 59.5v2h2l-2 14l-6 55q-2 2 -2 9v4q-4 28 -4 33q0 14 -4 30q-8 0 -8 10l-2 3q0 9 10 6h2q13 -3 16 -17q1 -5 1 -16t1 -19q0 -14 2.5 -30t7.5 -37t7 -31q3 -16 6 -46t6 -46q14 -56 29 -172zM459 938l10 -98 q3 -14 -4 -41v-4q-1 -6 -4 -6t-4 6q-19 172 -23 200l-4 35q0 5 -2.5 14.5t-3.5 12.5l-6 24q-2 10 -8.5 45.5t-12.5 59.5v2h2l-2 14l-6 55q-2 2 -2 9v4q-4 28 -4 33q0 14 -4 30q-8 0 -8 10l-2 3q0 9 10 6h2q13 -3 16 -17q1 -5 1 -16t1 -19q0 -14 2.5 -30t7.5 -37t7 -31 q3 -16 6 -46.5t6 -45.5q14 -56 29 -172z" />
<glyph unicode="x" horiz-adv-x="1034" d="M1044 1350q3 -14 -6 -35l-2 -8l-10 -25l-18 -43q-23 -49 -68.5 -137t-60.5 -119l-15 -35q-1 -3 -5.5 -15t-8.5 -18q-16 -49 -62 -143l-24 -53l-33 -74l8 -35l15 -37q5 -13 19 -45t18 -41l16 -38l6 -13q7 -22 27.5 -64t27.5 -67l9 -16q24 -54 34 -84l27 -55l68 -150l6 -12 q1 -3 7.5 -16.5t7 -17.5t-0.5 -17q-3 -10 -14 -12.5t-23.5 -1t-25.5 -1.5q-3 0 -10.5 -1t-10.5 -1q-29 -1 -84.5 -1t-79.5 -1q-2 0 -6 4l-6 6l-4 11q-4 5 -1.5 7.5t7.5 2.5q13 0 16 -12l2 -3q33 4 99 4.5t76 0.5q2 2 18 2q11 0 39 4q-2 15 -14 35l-7 10q-16 40 -69 151 l-23 49l-31 74l-16 37q-29 85 -61 145l-19 43q-36 87 -45 105l-18 45q-5 11 8 41l10 20l45 95q12 23 43 92l15 35l28 71q12 24 41.5 80.5t44.5 87.5q52 97 62 131q12 36 12 47l-18 4q-9 0 -9 9q3 10 15 10h10q13 3 20 -8q0 -4 2 -4zM135 -63v2q0 8 10 8h5q4 0 4 -6 q88 -11 178 -2q5 1 19.5 0.5t27 0.5t18.5 5q4 3 9 10.5t10.5 19t7.5 15.5l22 47l48 96l34 88q2 5 7 5t6 -5q6 -12 0 -26l-117 -248q-10 -20 -29 -23q-99 -15 -215 -6q-4 0 -8.5 1t-7.5 1q-4 0 -4 2q-3 0 -7.5 -1.5t-7.5 -1.5t-6 3q-7 3 -4 15z" />
<glyph unicode="y" horiz-adv-x="1032" d="M934 1128l16 37q52 99 72 178q-20 0 -23 3q-13 0 -6 10q3 10 15 10q3 0 5 -1t5 -1q19 0 22 -14q3 -10 0.5 -20.5t-11 -26t-9.5 -17.5q-50 -120 -68 -158l-14 -24q-22 -62 -25 -70q-12 -22 -28.5 -66t-26.5 -65q-25 -54 -108 -260q-4 -10 -13 -29t-15.5 -34.5t-10.5 -32.5 q-1 -35 2.5 -141t-0.5 -142q-4 -98 -4 -151q0 -24 2.5 -83t1.5 -89q-3 -17 -15 -17q-3 0 -8 1t-8 1q-14 -1 -51.5 -6.5t-59.5 -5.5l-59 4q-1 0 -19 1t-26 5q-10 3 -10 15v2q0 9 8 6h2q6 0 6 -6q74 -13 223 6q0 28 -1.5 109.5t-0.5 123.5q3 109 0 250v57q-3 68 11 93 q5 13 17 39t15 32q7 16 18.5 52.5t18.5 52.5q71 151 88 194q7 18 22 57.5t26.5 67t23.5 53.5zM506 1106l6 -16q0 -3 -4 -3l-6 13l-4 6q-11 21 -21 49l-2 6q-1 9 -10 29l-51 153q-3 7 -1 11.5t-1 11.5v2q2 0 2 -2l22 -59q37 -95 70 -201zM934 1354h12q-3 -9 -12 0z" />
<glyph unicode="z" horiz-adv-x="913" d="M489 287l-2 -2q-4 -11 -12 -11q-9 0 -6 9l70 149l120 250l27 66q4 9 14.5 28.5t14.5 32.5q11 21 28 63.5t29 63.5l31 61q19 35 53 106.5t39 82.5q0 24 2 81t2 81h-6q-8 0 -8 8q3 10 10 10h6q19 0 19 -14q3 -12 0 -27q-6 -103 -5 -121q0 -26 -8 -39q-23 -39 -55 -112 q-10 -26 -33.5 -65t-30.5 -54l-8 -16l-2 -13l-43 -92l-41 -94q-13 -34 -43.5 -94t-42.5 -88q-14 -38 -20 -48q-4 -6 -21 -45q-13 -23 -33.5 -68.5t-31.5 -66.5zM891 -61q20 126 6 200q-6 0 -6 6v5q0 10 10 10q9 0 12 -10q17 -68 0 -170q0 -3 -1.5 -18t-3 -25t-5.5 -13 t-13.5 -3.5t-24 0.5t-17.5 1q-50 5 -176 10h-105q-32 -1 -94.5 -1t-114 -1t-94.5 -4q-32 -4 -65 -4q-3 0 -14 -1t-19 -0.5t-14 3.5q-11 3 -15 17q-3 12 8 12h2q15 3 15 -10q38 -2 104 2q71 4 318 4q134 0 307 -10zM145 1153v4q0 12 9 12t12 -8l2 -8q32 4 67.5 4t79 -2 t68.5 -2q13 0 40.5 -1t43.5 -1q7 0 4 -8q0 -6 -10 -6h-88q-18 0 -52 1.5t-62 1.5t-52 -3h-47q-12 3 -15 16z" />
<glyph unicode="{" horiz-adv-x="565" d="M406 688l-5 -4q-7 -7 -10 2q-6 6 2 14q19 16 33 41q7 13 18 54q15 41 17 55q2 20 1.5 29.5t-3.5 27.5t-4 27q0 37 -2 55q-9 33 -11 60q0 7 -1 20.5t-1 20.5l-1 2q-1 2 -1 6v8l-6 27q-2 2 -2 10q0 3 -1 10.5t-1 11.5q-2 2 -2 13v4l-2 6v6q-4 20 -4 29q0 5 1 16t1 18v15 q-3 19 6 39l10 22l11 21q3 15 10 22q20 20 84 47q8 3 8 13q10 78 0 139v12q-1 3 -3.5 6t-2.5 6v5q0 4 4 4q6 0 8 -2q0 -1 1 -3.5t1 -3.5q7 -7 10 -16q13 -62 2 -145q0 -24 -16 -31q-4 -3 -13 -4t-14 -4l-8 -6l-8 -4q-31 -13 -41 -31q-27 -35 -31 -86q-1 -14 4 -80q2 0 1 -9 l-1 -9q0 -13 2 -17l11 -57q5 -42 8 -49q6 -22 10 -93l6 -77q2 -21 -8 -60q-3 -21 -12 -39l-12 -39q-3 -7 -23 -32q-17 -21 -20 -23zM455 133v-16v-51q0 -5 -3.5 -6t-5.5 3l-4 9q-8 13 -8 39v6q0 42 10.5 116t12.5 93q9 97 -11 176q-4 43 -10 67q0 1 2 2l6 -12 q31 -75 33 -133q3 -71 -6 -145q-15 -115 -16 -148zM518 -295q-69 10 -123 35q-4 2 -3 4t5 0l41 -8l29 -6q9 -1 24.5 -5t16.5 -4h18l35 -8q8 0 8 8q10 96 2 150l-2 2q-6 0 -6 8v4q0 9 10 6h2q13 -4 15 -16q8 -68 -2 -156q0 -15 -6 -18q-18 -11 -64 4z" />
<glyph unicode="|" horiz-adv-x="430" d="M199 -375l-2 2q0 8 10 8h8l2 -2v-2q71 -12 123 -6q8 3 8 10q4 49 5.5 106.5t2 98.5t1.5 107.5t1 101.5q1 50 -0.5 144.5t-1.5 128.5q0 44 -4 134t-4 140q1 24 3.5 82.5t2.5 87.5q0 53 -2 84q-4 30 -4 88v72q-1 14 -1 41t-1 43q-5 120 -4 141l4 51q0 3 4 19q2 2 2 8 q4 0 2 46l-2 46q2 46 2.5 52t-2 46.5t-2.5 42.5q0 4 -4 4q-6 3 -6 9q0 2 -2 2q0 8 8 8q4 0 6 -2q15 0 15 -15q4 -57 0 -241q0 -31 -3.5 -96t-4 -101.5t5.5 -103.5q4 -50 4 -74q0 -22 1 -71t1 -77q0 -9 1 -27.5t1 -27.5q0 -11 -2 -29t-2 -30q0 -9 -1 -26.5t-1 -26.5 q0 -17 1 -36.5t2.5 -43.5t2.5 -37q0 -5 -1.5 -15t-1.5 -18t3 -16q1 -11 0 -35t0 -37q1 -1 0.5 -36t-0.5 -36q-1 -16 1 -42.5t1 -39.5q-2 -4 -2 -16q7 -87 4 -217q-1 -37 -1 -111.5t-1 -111.5q0 -8 -1 -26t-1 -26l-4 -86q-3 -21 -23 -24q-42 -9 -90 -4q-36 0 -53 10 q-4 4 -4 8z" />
<glyph unicode="}" horiz-adv-x="561" d="M573 639q4 46 -2 70q0 1 -1 3t-1 3q-8 3 -8 12v2q0 7 8 4l2 -2q0 -2 7 -2q5 5 9 -8q1 -1 1 -2q6 -29 2 -88q0 -23 -17 -33q-6 -4 -16.5 -9.5t-16.5 -9t-14 -10t-14 -14.5l-14 -20l-9 -13q-38 -55 -38 -123l8 -55q0 -4 -2 -10.5t-2 -9.5q1 -9 16 -78q3 -4 3.5 -8.5 t-0.5 -10.5t-1 -8q0 -8 3.5 -22t4.5 -19q14 -60 13 -78q0 -7 -1 -19.5t-1 -19.5q0 -60 -5 -86l-16 -55l-16 -37q-15 -26 -27 -43l-33 -41l-24 -28q-77 -62 -164 -70q-39 -4 -49 0q-14 3 -17 16v4q-4 11 9 11q8 3 12 -8v-5q3 -6 8 -6q97 6 156 47q49 34 92 101l16 30 q29 47 33 64q4 14 5.5 29.5t1.5 26t-0.5 29.5t-0.5 28q0 5 1 13.5t1 12.5q0 40 -8 76l-4 16q-3 33 -12 68l-5 14q-4 9 -4 39q-4 28 -4 41q-1 7 -3 21.5t-3 26.5t0 24q4 49 23 80q18 42 41 65q21 21 57 43q17 10 20 31zM449 922v-2q0 -4 -3.5 -4t-5.5 2q-8 13 -8 34q0 1 1 21 t5 31q16 117 17 131q0 29 2 45q2 14 2 47q0 10 1.5 29.5t1.5 35t-3 29.5l-2 4q-6 21 -6 41v8q-3 30 -13 58v2q-2 2 2 2v-2l17 -39q3 -8 7.5 -24t6.5 -23q6 -15 10 -50q0 -11 -3 -33.5t-3 -35.5q0 -4 1 -11t1 -10v-16q0 -4 -1 -13t-1 -14l-10 -106q-2 -14 -6.5 -43t-7 -51 t-2.5 -43z" />
<glyph unicode="~" horiz-adv-x="1120" d="M1051 537q11 11 20 26.5t13.5 27.5t12 34t11.5 34q3 10 -2 13l-19 12q-6 3 -6 12q3 8 13 4l6 -4q3 -1 10 -8q15 -12 12 -35q-7 -33 -20 -51l-6 -14q0 -2 -17 -41q-6 -10 -14.5 -19t-22 -21.5t-20.5 -19.5l-27 -24q-21 -12 -39 -17q-80 -26 -131 -26h-61q-6 0 -13 1 t-15 2.5t-13 2.5q-7 1 -19.5 1t-19.5 1l-29 8l-42 14t-53 16t-48 9h-59q-88 -20 -117 -59q-1 0 -14 -23v-4q-6 -6 -15 -6l-162 20q-11 3 -14 13v6q0 2 2 4h6l8 -2l150 -23q7 -3 10 7q7 16 25 34q20 20 55.5 35.5t69.5 16.5q1 0 19.5 1t19.5 -1l36 -13l39 -12l29 -8 q5 -4 27 -4q13 0 41 -4q15 -3 44.5 -7.5t43.5 -7.5q44 -3 84 0q13 0 55 11q80 19 109 38l10 13l14 18q2 2 11 8t12 11z" />
<glyph unicode="&#xa1;" horiz-adv-x="505" d="M442 -78v-14q0 -13 2 -17q6 -60 -47 -57q-4 2 -16 2h-8q-5 0 -16 -0.5t-21.5 -0.5t-20.5 1q-9 0 -27 2t-26 2h-37q-14 3 -14 17v2q0 6 1.5 7.5t6.5 0.5h2q8 0 8 -8l2 -2q102 -4 140 -4h18q7 2 16.5 2.5t15.5 2t9 7.5q0 5 -2 15.5t-2 15.5v8q-3 40 -3 113.5t-3 113.5 q-2 82 -2 246q0 44 -2 129t-2 129q2 41 2 123q0 32 -13 116q-2 0 -2 3l-2 6q-3 8 7 8h2q12 -3 12 -14q0 -21 6.5 -58.5t7.5 -54.5q0 -14 -1 -40t-1 -38t-1 -36t-1 -36q-1 -24 1.5 -69t2.5 -66q0 -16 1.5 -69t0.5 -82q-4 -124 2 -201q4 -49 4 -205zM207 1061v4q0 8 8 8h2 q5 0 8 -6q0 -2 2 -2q70 -9 179 2q7 0 10 8q16 72 -4 189q0 2 -2 2l-2 2q0 6 -2 8q0 11 10 8l2 -2q12 -4 14 -16q8 -57 8 -140q0 -24 -6 -51q-3 -23 -24 -26q-3 0 -10 -1t-11 -1q-83 -9 -166 0q-3 1 -5 3.5t-5 2.5q-6 3 -6 8z" />
<glyph unicode="&#xa2;" horiz-adv-x="1005" d="M676 72q33 9 57 22q23 13 47 37q3 3 9.5 5t9.5 5q5 3 12.5 12t9.5 11q3 3 9.5 7t9.5 7q7 3 10 10l10 15q87 120 66 278q0 2 -2 2q-4 0 -4 4v11q0 6 6 6t10 -4v-2q1 -3 4 -7.5t4 -7.5q13 -63 -3 -133.5t-48 -130.5q-24 -42 -45 -59q-20 -15 -23 -19q-7 -7 -22.5 -17.5 t-22.5 -17.5q-47 -38 -102 -49q-8 -3 -8 -10q4 -70 4 -104q0 -9 -6 -15v-2q-3 -6 -9 -6q-15 1 -48 -2t-48 -2l-39 6q-10 3 -14 10l-4 5q-4 0 -4 4q0 6 4 6h10l2 -2q0 -2 2 -2q58 -17 127 -6q8 3 8 10q0 10 -1.5 44.5t-0.5 53.5q0 17 23 27zM459 440v-10q0 -6 -5 -7 q-2 0 -3 3q-8 4 -11 20q0 9 -1 29t-1 29q-3 37 0 115t0 118q-1 13 -3 40t-3 49t0 40q2 31 21 64q18 22 28 28q38 20 68 25q8 0 8 -6q6 -6 -2 -6q-43 -6 -72 -25q-7 -3 -10 -10q-21 -27 -24 -74.5t4 -91.5q4 -78 4 -111q0 -16 -1 -64.5t-0.5 -85.5t3.5 -69zM686 795q0 6 8 6 h11l2 -2q0 -2 2 -2q12 -3 26 -4.5t24.5 -2t27.5 0t24.5 0.5t27.5 1.5t25 2t28 3.5t26 3q9 0 6 8q-3 19 -2 59.5t-2 61.5l-7 26q-4 28 -4 35q0 11 -2 13q-3 23 -12 49h-2q-1 5 1 5q1 1 2 -1q1 -1 1 -2q1 -3 4 -7.5t4 -7.5q8 -15 19 -59q15 -44 16 -59q1 -11 -0.5 -52.5 t2.5 -58.5q2 -7 -6 -16l-2 -2l-12 -11q-20 -3 -115 -8q-5 0 -25.5 -1.5t-29.5 -0.5q-3 0 -8.5 1t-8.5 1q-32 5 -41 10q-6 7 -8 11zM666 1348v-29q0 -8 -11 -8q-8 3 -8 14q0 19 2 25q0 4 -4 4h-6q-6 0 -6 8q0 6 4 7q1 0 2 -1l10 -2q17 0 17 -18z" />
<glyph unicode="&#xa3;" horiz-adv-x="1261" d="M1149 86l18 37q32 74 23 156q0 4 -4 4q-8 0 -8 8q0 2 2 2q0 9 8 6l12 -6q6 -6 8 -12q15 -101 -30 -185q-15 -28 -37.5 -53.5t-41 -41t-50.5 -40.5q-3 -2 -13 -8.5t-14 -9.5t-13 -8t-15.5 -8t-16 -6t-19.5 -5q-24 -8 -69 -8q-15 0 -29.5 3t-32 8t-28.5 7l-13 2h-8 q-3 3 -6.5 4t-7.5 1t-6 1q-49 13 -62 23l-8 4h2q16 -4 21 -4q6 0 22 -4l15 -4q13 -5 45 -10q6 0 41 -5q40 -10 67 -8q5 0 14.5 3t14.5 3h10q22 0 59 21l41 27l54 36q33 30 55 70zM588 584q0 -36 -3 -100.5t-3 -100.5q0 -10 -11 -6q-10 3 -10 14q0 67 4 88l6 64l-3 29 q-4 30 1 30q7 14 82 14q19 0 55 1.5t58 0.5q7 0 10 9q13 82 -2 131q0 2 -2 2l-2 2v8q0 6 8 6q2 0 4 -2q12 0 15 -18q12 -74 -7 -150l-10 -12q-6 0 -8 2l-12 4q-22 -3 -77.5 -3.5t-84.5 -4.5q-8 0 -8 -8zM807 938q-3 8 6 8h8q2 0 2 -2h4q79 -21 207 -4q6 2 10 10q4 4 2 24.5 t-2.5 25.5t-4.5 26.5t-5 26.5l-8 49l-10 69q0 5 2.5 6t3.5 -3l16 -39q29 -114 23 -183q0 -18 -12 -18h-2q-5 0 -5 -2q3 -6 -8 -10q-99 -22 -215 6q-12 0 -12 10zM139 -66q-1 3 -3 6q-1 4 -1 5q-1 5 1 7t7 1h9l2 -2q0 -2 2 -2q101 -15 174 -4q8 3 8 10q4 43 25.5 65.5 t64.5 42.5q17 7 35 -2q3 -1 4 -3t0 -3.5t-4 -1.5q-12 -4 -14 -2h-13q-73 -29 -76 -94q-4 -25 -18 -31q-23 -8 -86 -8q-69 4 -100 10q-14 0 -17 6zM565 895q-8 0 -8 8q-2 23 -2 68q0 61 2 88q3 43 33 69q12 8 61 33h4q2 0 4 -2l7 -2q7 -7 8 -10q6 -6 -2 -6q-22 -5 -54 -19 q-42 -18 -45 -63q-1 -13 0.5 -38.5t1.5 -35.5v-82q0 -8 -10 -8zM682 -35l6 -4l-8 4h2z" />
<glyph unicode="&#xa4;" horiz-adv-x="1249" d="M1083 588v-17q-13 -119 -24 -159q0 -2 -2 -2v2l-4 4q-9 9 -6 24q13 69 16 172q3 83 -8 144q-2 0 -2 2q-2 37 -13 88q-3 15 9 24l8 9q11 14 23.5 26.5t27 25.5t22.5 21l95 103q5 5 2 12l-8 12q-5 8 -2 21q0 12 10 2l6 -8q10 -14 14 -29q3 -11 -2 -16q-1 -3 -2.5 -4 l-4.5 -3t-5 -4l-16 -20l-21 -21q-19 -23 -27 -30q-12 -12 -36.5 -35.5t-43 -42.5t-34.5 -37q-4 -4 -4 -14q41 -106 32 -250zM866 217l-16 -4q-82 -21 -180.5 -17t-169.5 35q-3 0 -2 3q1 2 4 2q35 -5 39 -5l41 -6q11 -4 55 -8q108 -11 215 16l12 3q8 3 19 -5q10 -10 -2 -10z M250 53q-19 3 -43 23q-6 6 0 12t12 0l23 -14q9 -3 14 2l92 90q9 10 24 28.5t26.5 31.5t23.5 24q7 5 16 2q4 0 5 -3t-1 -5q-18 -17 -45 -48.5t-41 -45.5l-92 -91q-6 -6 -14 -6zM600 778q29 22 62 25q13 3 18 -4l4 -6q2 -2 2 -7q2 0 1 -1t-3 -1q-26 0 -72 -20q-6 -2 -12 -8 q-26 -30 -31 -49q-17 -42 -2 -142q0 -6 -3.5 -9t-8.5 1q-6 3 -6 8q0 3 -1 7.5t-1 7.5q0 8 -2 32t-2 36.5t1.5 31.5t6.5 33q3 9 12 20.5t12 16.5q12 20 25 28zM1153 66q52 30 82 79q3 9 -2 11l-19 16q-3 3 0 12l7 6h2q42 -37 24 -55q-7 -2 -10 -12q-3 -6 -6.5 -11t-8 -10 t-7.5 -9t-9 -9l-9 -7.5t-11 -7.5t-10.5 -7t-11.5 -8t-11 -7q-11 -3 -12 -2l-2 2q-7 0 -11 4l-22 25q-7 3 0 10q6 2 14 -2l21 -16q5 -5 12 -2z" />
<glyph unicode="&#xa5;" horiz-adv-x="1032" d="M989 244q19 92 6 157l-2 2q-6 0 -6 7v2q-3 8 6 8q7 2 17 -4q6 -8 7.5 -19t0 -29t-1.5 -24q3 -21 0 -41q-3 -9 -4 -28.5t-4 -28.5q0 -22 -23 -19q-41 1 -176 -4q-11 0 -27.5 1.5t-29.5 1.5t-27 -3q-8 -3 -8 -10q-1 -26 0.5 -130.5t-2.5 -133.5q0 -3 -4 -15q-3 -7 -13 -10 q-15 -4 -31 -6.5t-28 -4t-31 0t-28 1.5t-31 3.5t-27 4.5l-30 6t-27 5q-8 3 -8 11q0 9 10 6l12 -2q123 -30 209 -12q8 3 8 10v252v10q3 23 21 31q28 4 39 4h233zM936 1155l-4 -16q-73 -214 -94 -269q-3 -10 -15 -10q-9 0 -6 10l23 68q2 7 20.5 58t26.5 79q19 54 41 105 q7 15 22.5 50.5t27.5 61.5t26 51q4 8 -5 11l-26 4v2q0 2 2 4v4q3 8 10 4l21 -4q22 -3 16 -25l-18 -45q-45 -91 -68 -143zM713 541q-4 -4 -6 -4h-7q-9 0 -6 8q0 8 6 8l11 8h2q45 3 134.5 1.5t137.5 2.5q8 0 8 8q0 14 1.5 38t2 38t0 34.5t-3.5 39.5l-2 2q-6 0 -6 6v4 q0 11 10 8q10 0 13 -10q10 -53 8 -90q0 -12 -3 -37t-3 -39q0 -22 -19 -22q-44 -3 -138 -1t-138 -1q-2 0 -2 -2zM160 240l-2 8q0 8 6 8q9 0 12 -8q4 -4 6 -4q89 4 148 -4q8 0 8 -9q0 -8 -8 -8q-51 2 -152 2q-6 0 -10 4zM170 559l-6 6q-2 2 -2 4q-4 11 6 11q8 0 12 -11 q4 -4 6 -4q38 2 46 2.5t45.5 -2t46.5 -2.5q10 0 10 -10q-3 -8 -10 -8q-78 4 -113 4h-33q-7 7 -8 10z" />
<glyph unicode="&#xa6;" horiz-adv-x="428" d="M209 766q0 2 -6 8q0 3 -2.5 6.5t-3.5 5.5q0 7 6 7h2q6 -3 10 -11q0 -4 4 -4q9 0 55.5 -3t55.5 1q8 3 8 10q-1 41 -1 122t-1 122v119v56t4 71q3 41 -2.5 135t0.5 139q0 4 -4 4h-4q-8 3 -8 11t8 8q2 -2 10 -2q17 -9 14 -27q-3 -49 1.5 -136.5t4.5 -109.5q-1 -26 -3 -81.5 t-3 -101t0 -85.5q1 -30 -1.5 -121.5t1.5 -122.5q3 -21 -18 -24q-19 -3 -57.5 0t-59.5 0q-6 0 -10 4zM354 -195q0 2 -1 43t1 43q0 19 3 159t-1 163q0 24 -4 78q-3 18 -0.5 54t-1.5 54q0 4 -4 4q-8 -3 -8 7v6q0 2 2 4q3 3 6 0q11 -3 17 -13.5t7 -26.5t0.5 -30.5t-2 -33.5 t-1.5 -27l3 -45t3 -55t0 -48q0 -23 -1 -70.5t-1 -72.5q-1 -51 0 -92.5t-1 -92t-8 -89.5q-3 -20 1 -54t4 -43q0 -19 -23 -22q-55 -3 -119 0q-14 3 -18 14v6q0 8 6 8q8 0 8 -8q0 -4 4 -4h117q8 0 8 8q-4 16 0 89t4 87z" />
<glyph unicode="&#xa7;" horiz-adv-x="886" d="M664 -279q116 46 149 256q3 8 0 17q-1 12 -0.5 22t-1.5 19.5t-8 15.5q-2 2 -2 6v4q0 17 -4 45q-1 4 0.5 4.5t3.5 -1.5l18 -41q26 -69 2 -158q-3 -9 -7 -28t-7 -27q-24 -71 -97.5 -123.5t-150.5 -57.5q-73 -3 -149 15q-50 13 -60 18h-2q-3 8 4 8q13 -3 66 -8l53 -12h29 q6 0 22.5 -1.5t24.5 -0.5q57 7 78 14q27 7 39 14zM817 496l-4 -17q-23 -111 -94 -182q-1 -2 -4 -1.5t-4 3.5q-6 8 0 14q8 8 21 24.5t18 22.5q10 13 28 64q20 57 21 70q2 28 1.5 42t-3.5 41t-4 41l-9 37q-4 28 -8 35v2q0 11 -2 13v4l-4 16q0 8 6 2q15 -25 21 -39q1 -2 6 -43 q1 -7 5 -28t5 -29t4 -29.5t2 -30.5t-2 -32zM614 1096q0 2 2 4h11q5 -3 8 -8q0 -2 2 -2q92 -15 160 -5q8 3 8 11q0 58 -10 92l-7 41l-6 37q0 5 2 5.5t4 -3.5q38 -77 35 -168q0 -23 -18 -29q-46 -11 -121 0q-9 0 -21.5 0.5t-17.5 0.5t-11.5 2t-10 5.5t-5.5 10.5q-4 4 -4 6z M489 1210h-8q-32 -8 -55.5 -29t-24.5 -51q0 -6 -4 -2q0 3 -2 5l-2 2q-7 7 -4 18q15 27 25 39q3 3 10 6t10 6l8 6q18 11 27 11q2 2 12 2q2 0 4 -2q2 0 4 -2l3 -5q0 -4 -3 -4zM430 625q19 19 49 26q7 2 17 -4l6 -8v-2h-2q-27 0 -33 -2q-17 -7 -31 -25l-2 -2q-17 -17 -24 -33 q-3 -8 -11 -4q-6 6 -2 17q5 9 33 37z" />
<glyph unicode="&#xa8;" horiz-adv-x="585" d="M641 1522q-88 -8 -197 2q-12 2 -16 14v4q-3 8 6 8h6q4 0 4 -4q2 -2 5 -2q151 -5 176 -4q8 0 8 8q1 18 3.5 67t2 63.5t-3.5 58.5l-2 2q-6 0 -6 8v2q0 6 1.5 7.5t6.5 0.5q4 0 6 -2q11 -4 14 -18q6 -66 -6 -207q0 -8 -8 -8zM92 1528h-6q-8 3 -8 10q0 8 8 8h6q2 0 6 -4 q0 -2 2 -2q83 -13 172 -4q7 4 7 10l1 2q1 2 1 6q13 119 2 183q0 2 -2 2q-5 0 -5 4v4q0 11 9 8h2q12 0 12 -10q3 -4 4 -8t1 -9t1 -8v-2q0 -27 2 -41q0 -13 -2 -35.5t-2 -33.5q-1 -8 0.5 -32t-2.5 -28q-2 -4 2 -16q-2 -2 -4 -8q-6 -8 -41 -8q-98 -4 -154 6z" />
<glyph unicode="&#xa9;" horiz-adv-x="1105" d="M1108 1010q3 -8 8 -52v-55q0 -102 -16 -160q-18 -64 -56 -131l-24 -32l-37 -45l-12 -11l-21 -14q-46 -43 -78 -59l-18 -9l-14 -6l-17 -10q-14 -6 -73 -25q-74 -24 -129 -24q-13 0 -41 4q-63 12 -76 16l-15 2l-12 4q-3 3 -4 3q-12 4 -16 10q-5 0 -5 3t5 1l16 -4h8 q2 -2 11 -2l24 -6q37 -11 78 -11q12 -1 24.5 -1t21.5 0.5t22.5 2.5t20 3t21.5 5t19 5t21.5 6t19.5 6q42 12 94 39q14 7 25.5 15.5t27 21t25.5 20.5l37 31l12 8q13 10 29 33q2 2 2 4l12 25q27 45 51 120q27 94 17 211l-6 47q-1 5 -2 12.5t-2 12t-1 8.5q-2 2 -2 8q-2 4 -2 17 q0 1 -1 3t-1 3l2 2h2q2 0 2 -2t2 -4q0 -1 3 -4l14 -29q2 -2 2 -12q2 -2 2 -4zM412 1229l-17 -12q-50 -35 -96 -101q0 -2 -2 -4l-4 -6l-4 -4q-20 -26 -31 -70q-29 -81 -22 -135v-8l6 -35l4 -16q0 -3 4 -19q2 -2 2 -4v-4q15 -35 16 -43q2 -5 -1 -6.5t-7 2.5q-2 2 -8 20l-16 37 q0 3 -1.5 6.5t-1.5 6.5l-1 2q-1 2 -1 6q0 6 -2 8l-4 18q-2 2 -2 13v4q-2 2 -2 12v6l8 64v8q2 2 2 4q0 10 2 12v4q2 11 4.5 19.5t3.5 11.5t1 6q0 1 1 4t1 4q12 48 22 60q2 2 2 4l6 10q2 6 17 21q46 62 94 96q3 3 10.5 7t10.5 7q8 4 14 10l12 9l8 4h4l29 10q2 2 8 2q2 2 8 2 q4 0 16.5 2t19 2t16.5 -1.5t18 -6.5q-12 -4 -37 -6t-37 -6l-12 -4h-4q-9 -4 -31 -17l-8 -6l-2 -2q-4 -4 -8 -4zM643 635h-16q-28 0 -37 4q-3 1 -4 3.5t0.5 5t5.5 3.5q6 2 33 2h22q19 0 25 2v2q4 0 6 2h6q29 13 47 31l8 6q24 15 37 45q2 2 2 4l6 11v2l7 12q1 4 3.5 15.5 t2.5 19.5q0 6 6 3q4 -2 4 -5q3 -18 -4 -45l-4 -8l-4 -13q-4 -4 -4 -6l-5 -8q-14 -25 -28 -35l-13 -10q-5 -5 -30 -25q-18 -9 -39 -12h-2l-2 -1q-2 -1 -6 -1h-7zM530 1040q-9 -15 -6 -49v-10q1 -12 1 -31.5t1 -31.5l6 -41q12 -27 0 -39q-8 -11 -13 13q-1 5 -3 17q-2 2 -2 13 q0 2 -2 4v10l-6 86v8q-3 39 14 72q3 6 17.5 8t19.5 4q1 1 18 -2q9 0 9 -8q0 -7 -9 -10l-14 -2q-4 -2 -16 -2q-6 0 -15 -9zM717 999h28q8 0 22.5 3t18.5 4h5q2 0 4 2q12 7 12 30v4q0 3 -6 27l-4 8v4l-2 2l-4 9l-5 6q-1 3 -4.5 7.5t-4.5 6.5t1 6q6 12 18 -10q7 -12 9 -14t2 -4 l4 -9q6 -12 8 -22q4 -16 4 -23q0 -4 1 -7l1 -3v-6q0 -4 -2 -6q0 -3 -1 -7.5t-1 -7.5l-10 -6q-19 -8 -35 -8q-7 0 -18.5 1t-18.5 1q-19 -3 -26 4q-6 2 -1 6q2 2 5 2z" />
<glyph unicode="&#xaa;" horiz-adv-x="778" d="M690 795v-35q0 -9 -8 -6l-8 6v2q-2 2 -2 4q0 3 1 5t1 5q0 12 -2.5 43.5t-1.5 48.5q10 129 0 224l-11 57l-4 33l-12 75l-2 5q0 5 2.5 5.5t3.5 -3.5q13 -19 19 -47q1 -7 8.5 -47.5t11.5 -65.5q4 -21 5 -48t0.5 -43.5t-2 -53.5t-1.5 -46q-1 -23 0.5 -64t1.5 -54zM285 498 q0 6 2 6h6q28 -4 37 -8l3 -1q3 -1 7 -1q46 -16 137 -5l15 5q17 7 36 10l15 6l26 18q11 4 21 0q4 0 4 -3t-2 -5q-69 -46 -178 -49q-32 -2 -105 16q-13 4 -24 11zM717 502q8 6 14 14t10 14.5t9 19t7 19t6.5 23t6.5 22.5q0 9 -6 9q-4 0 -16 4q-8 0 -5 8q0 4 9 4l20 -6 q9 0 12 -6q4 -12 4 -13q-2 -6 -8 -24.5t-9.5 -28t-9.5 -24t-13.5 -24.5t-16.5 -17q-17 -10 -39 -4q-42 10 -74 24q-2 2 0 4q16 -4 19 -4q35 -5 37 -6q7 -3 43 -8zM358 846q4 3 13.5 7t13.5 7q4 4 4 -2v-2q0 -1 1 -3t1 -3q0 -2 -2 -4q-9 -4 -31 -17q-9 -3 -14 -8 q-10 -11 -20 -39q0 -1 -1 -4t-1 -4q0 -6 -7 -6q-1 0 -3 1t-3 1q-12 9 0 25q3 14 17 28q11 14 32 23zM360 1169l-6 -6q-3 -8 -12 -8q-10 0 -4 6l2 4q9 20 41 33q6 0 6 -6q4 -7 -4 -10z" />
<glyph unicode="&#xab;" horiz-adv-x="1101" d="M1085 827v43q0 10 2 34.5t2 37t-1.5 30.5t-6.5 32q-2 2 -4 2q-2 -2 -2 0q0 8 -2 10q0 11 10 8q15 -3 15 -14q16 -66 4 -207q-3 -20 -19 -33q-92 -65 -221 -168q-8 -8 -14 0q-3 6 0 12q27 23 79 61t72 54l72 62q14 17 14 36zM621 92q-12 -3 -23 8l-23 17q-7 7 3 10 q9 3 12 0l12 -8q6 -6 6 4q-4 25 -2 37q0 3 2 10t2 10q1 9 -0.5 29t-1.5 29v45v30q0 9 -2 11l-2 2q-6 8 -10 20q0 7 10 4l4 -4q14 -14 17 -31q8 -63 -2 -153q-1 -9 1.5 -31t-1.5 -31q0 -6 -2 -8zM1079 96l-24 23q-6 6 2 6q6 3 12 0l14 -12q7 -7 7 2q2 86 -13 211q0 2 -2 2 q-4 4 -4 6q0 3 -1 7t-1 7v2q-2 2 0 2l12 -12q17 -17 17 -31l6 -78q0 -7 2 -18t2 -18q1 -20 -4 -86q0 -3 -3.5 -6.5t-4.5 -6.5q-8 -8 -17 0zM614 1006q3 -28 3 -56.5t-1.5 -62t-1.5 -51.5q0 -10 -10 -17q-8 -3 -8 4q0 15 3.5 60t2.5 71q-1 5 0.5 23.5t-2.5 23.5v7q-2 2 -4 0 l-2 -2q-8 -8 -8 2v2q0 11 8 16l2 4q2 1 5 2l4.5 1.5t2.5 0.5q14 -8 4 -16q-6 -6 -2 -6t4 -6zM469 670l-80 -66q-6 -3 -12 0q-6 6 0 12q2 3 4 5l108 94q9 3 9 -6q-2 -13 -15 -25z" />
<glyph unicode="&#xac;" horiz-adv-x="1077" d="M1006 330q4 46 2 69q0 7 1 20.5t1 20.5q0 4 -2 16t-2 19q0 18 1.5 53t1.5 65t-3 58q0 3 -2.5 9.5t-2.5 9.5q-4 20 -2.5 98.5t0.5 103.5q0 6 -4 2q-10 0 -10 11q0 10 10 10h6q15 0 15 -18q0 -133 4 -170q3 -59 3.5 -115t-0.5 -138t-1 -124q0 -1 -1.5 -4.5t-2.5 -6.5 q-4 -4 -8 -4q-11 0 -44 1.5t-51 2t-44.5 0t-47.5 -3.5q-2 0 -14 4q-7 4 -4 13v8q0 8 6 8q8 3 8 -6v-6q0 -6 6 -6q76 10 181 0zM147 690q0 6 7 6h2q8 0 8 -8q0 -4 4 -4q13 -4 71.5 0t71.5 4h109q63 -6 250 -6q8 0 8 -8t-8 -8q-7 0 -21.5 1t-21.5 1q-34 3 -70 0q-11 0 -32 2 t-33 2q-5 0 -14 -1t-13 -1q-11 0 -32 2t-32 2q-24 -1 -70 -3t-84.5 -3t-74.5 0q-2 0 -4.5 0.5t-4.5 1t-4.5 -0.5t-4.5 -3q-4 0 -4 4v8q0 3 -1.5 6t-1.5 6z" />
<glyph unicode="&#xad;" horiz-adv-x="788" d="M717 481q4 19 2.5 79t-0.5 79h-2q-8 -3 -8 6v2q0 12 10 12h2q11 0 14 -12q3 -25 3.5 -51t-0.5 -61t-1 -48q0 -22 -16 -32q-3 0 -5 -1t-3 -1h-41l-41 4q-15 0 -44 -2t-44 -2q-38 3 -115.5 1t-112.5 1q-13 1 -36 3.5t-32 2.5t-32 -2q-6 0 -10 4q-1 3 -3.5 5t-2.5 5v12 q0 2 2 4h6l8 -2q4 -4 4 -6t2 -2q28 0 104 -4.5t121 -1.5q44 1 132.5 1t132.5 1q6 0 6 6z" />
<glyph unicode="&#xae;" horiz-adv-x="1095" d="M1104 942q18 -99 -31 -244q-30 -71 -90 -145q-28 -36 -74 -70q-12 -10 -26.5 -18t-36.5 -17.5t-31 -13.5q-104 -55 -248 -43l-45 6q-20 3 -39 11l-20 10l-14 6v2l2 2q4 -1 16 -3.5t20 -2.5h7l22 -6h6q1 0 6.5 1t6.5 -1q65 -17 165 -2l52 16q88 31 141 66q13 9 25.5 19.5 t25.5 24.5t21 23t23.5 28t21.5 27q26 36 45 84q9 27 20 78l2 37l8 39q2 14 2 37q3 31 -6 65l-6 41v2q0 6 -1 13t-2.5 15t-2.5 13l-6 25q1 3 4 2q27 -58 37 -127zM330 1174l2 2q2 4 5 2t1 -7q0 -9 -10 -26q-21 -16 -29 -27q-2 -2 -2 -8q-2 0 -2 -2l-6 -12q-10 -14 -16.5 -31 t-12 -40t-10.5 -36q-2 -1 -1 -8t1 -8q0 -5 -2.5 -14t-3.5 -15q-1 -7 1.5 -26t-1.5 -23q0 -3 -1 -8t-1 -8q2 -13 6.5 -41.5t7.5 -42.5q2 -2 2 -7q0 3 -2 5q-4 10 -14 35.5t-15 39.5q-6 21 -6 41q0 42 12 82q3 10 8 29t10 34t11 27l14 23q1 3 33 47l10 10zM739 842q-3 10 4 12 q32 20 48 59q10 24 13 62t-5 69q-8 19 -11 39q0 5 4 6.5t9 -2.5q3 -3 4 -6.5t1 -8t1 -7.5l6 -16q17 -60 -0.5 -119t-60.5 -88q0 -2 2 -4q2 -11 15 -55.5t17 -71.5q0 -7 -3 -9.5t-6 0t-3 9.5q-3 24 -19 64.5t-20 58.5q-3 8 4 8zM553 739l2 -10q9 -18 6 -39q0 -8 -1 -26 t-1 -27q0 -8 -6.5 -14t-13.5 -5h-66l-16 5q-6 6 -8 12v4q-3 10 8 10h2q8 -3 8 -10l2 -2q11 1 32.5 0t33.5 0q8 0 8 8q0 13 1 44.5t1 47.5q0 5 3.5 5.5t4.5 -3.5zM707 639q7 0 9.5 -4.5t0 -9t-9.5 -4.5t-21.5 1t-21.5 1t-9.5 4.5t0 9t9.5 4.5t21.5 -1t21.5 -1z" />
<glyph unicode="&#xb0;" horiz-adv-x="636" d="M311 883q-5 3 -15 7t-15 7q-4 1 -3.5 4.5t5.5 3.5q21 0 39 -6q75 -19 153 19q52 21 90 65q4 6 16 16.5t15 18.5l12 29q23 44 23 98q0 30 -8 49q0 1 -4 16.5t-5 24.5l-8 29q2 0 2 -2q0 -1 25 -56q2 -7 6 -19.5t6 -22t2 -19.5q0 -14 -12 -60q-3 -20 -12 -38l-15 -37 q-2 -8 -8 -13l-10 -8q-9 -15 -49 -55q-7 -7 -19 -10l-4 -4q-2 -2 -24 -15l-23 -8q-11 -3 -16 -8q-22 -10 -39 -12q-34 -3 -64 0q-20 0 -41 6zM309 1210l-20 -34q-3 -7 -10 -7q-8 4 -5 13q9 29 29 49q14 14 45 20q4 4 8 0l6 -6v-2q0 -2 -4 -6q-16 -3 -39 -16q-6 -3 -10 -11z " />
<glyph unicode="&#xb1;" horiz-adv-x="1091" d="M854 471h147q8 0 11 8q6 47 -6 148q0 2 -2 2l-3 2v6q0 8 7 8h2q9 -3 12 -12q12 -62 12 -119q0 -40 -4 -45l-2 -2q-9 -13 -33 -16q-40 -1 -111 2t-108 2q-21 0 -57 -4q-6 -3 -10 -11q-10 -79 2 -147q0 -5 -4 -25q-3 -10 -15 -14q-90 -11 -141 4q-1 2 -8 1t-8 -1t-3 0.5 t-5.5 1.5t-6.5 2l-6 6v2q-4 4 -4 6q0 5 4 5h4q13 0 17 -2q72 -18 145 -7q8 3 8 11q-9 84 2 159q1 3 4 7.5t4 7.5q4 5 15 8q21 6 42 7.5t54 0t45 -1.5zM1004 -66q15 61 12 103q0 28 -10 51q0 1 -2 1t-3.5 1t-1.5 4v8q0 4 5 9q8 0 8 -5q18 -27 19 -77.5t-11 -89.5 q-1 -3 -4 -7.5t-4 -7.5q-1 0 -2 -1t-2 -1q0 -4 -7 -4q-1 0 -2 -1t-2 -1q-3 -1 -10 0.5t-10 1.5h-78q-19 0 -56 -1t-57 -1q-5 0 -14.5 1t-13.5 1q-62 -4 -90 -4h-160q-5 0 -23 -1.5t-28 -0.5h-106t-130 4q-12 2 -20 14q0 1 -1 3.5t-1 3.5q-3 8 6 8h2q8 0 8 -8l6 -7 q12 -3 27 0q12 0 16 2q14 1 43 -0.5t41 -1.5h84q36 -4 200 0t202 4q88 -3 170 0zM709 954q6 -54 2 -176q0 -8 -11 -8q-8 0 -8 8q0 29 -1 87t-1 85l-6 2q-4 0 -4 6v9q0 4 4 4q3 -3 13.5 -6t11.5 -11zM197 473q0 6 -2 8q0 7 2.5 10t7.5 1h4q8 0 8 -9l2 -2l172 -6q10 0 10 -10 q0 -8 -10 -8q-82 6 -168 6h-16q-7 0 -10 10z" />
<glyph unicode="&#xb2;" horiz-adv-x="663" d="M442 713l-43 -70q-3 -6 -12 -6h-4q-2 0 -4 2q2 2 2 4q59 101 125 172q42 42 49 51q11 15 39 60q34 55 37 63q22 37 31 70q5 19 2 49l-7 41q0 14 -2 18l-6 11q-3 4 -3.5 9t0 9t-0.5 10l-6 39q0 1 2 2q39 -80 39 -157q2 -40 -29 -101q-9 -18 -27.5 -47.5t-23.5 -38.5 l-18 -26l-17 -27q-4 -7 -14.5 -17t-15.5 -16q-16 -15 -41.5 -46t-40.5 -46zM154 352l-4.5 9t-4.5 12q-3 8 7 8q8 0 8 -8v-6q5 -5 8 -5q73 10 180 0q46 -3 141.5 0.5t135.5 -0.5q8 0 8 9q10 77 2 139q0 2 -2 2q-6 0 -6 4v2q0 10 8 10h4q12 -3 12 -14q4 -12 5 -24.5t0.5 -28.5 t0.5 -25q0 -36 -6 -74l-8 -10q-6 -6 -10 -6q-102 6 -193 0q-44 -3 -139 2.5t-133 -0.5q-8 -2 -14 4zM324 1067l-11 -14q-1 -4 -3.5 -3.5t-2.5 5.5q2 13 4 35t4 35.5t8 29.5t17 27q16 16 27 20q12 3 12 -6q0 -11 -10 -14l-19 -15q-7 -7 -10 -18q-6 -13 -10 -42t-6 -36v-4z M150 1047q0 4 4 4h2q6 0 6 -7v-2l2 -2q41 0 127 -4q9 0 6 -10l-2 -2q-3 -9 -12 -6q-2 2 -9 2l-102 4q-11 0 -16 8l-4 6q0 1 -1 4.5t-1 4.5z" />
<glyph unicode="&#xb3;" horiz-adv-x="653" d="M616 823q21 -27 21 -67q0 -160 -4 -189q-2 -4 -2 -16v-14l-19 -48q-9 -21 -20 -32q-30 -40 -88 -70q-6 -2 -23 -9.5t-30 -10.5q-68 -16 -111 -9q-36 5 -90 29q0 4 2 4q16 -4 20 -4h4q3 0 31 -4q11 -4 37 -8q79 -8 158 28q73 37 100 107l12 33l7 16q3 14 3 31.5t-1.5 39.5 t-1.5 34q4 76 -7 118q-8 19 -8 37q0 3 2 5t4.5 2t3.5 -3zM627 991q-9 -25 -41 -57q-7 -7 -11 0q-3 6 0 12l13 12q54 68 43 199q0 2 -4 14q-9 16 -9 39l-6 43q0 4 2 4t2 -2l9 -14l12 -31q31 -107 -4 -202q-5 -16 -6 -17zM319 1104l-4 -17q-2 -8 -2 -26q0 -7 -8 -10 q-7 0 -10 8q-2 17 8 55l2 12q3 21 12 39q25 35 35 45q2 2 4 2q2 2 2 0q2 -2 2 -10q0 -9 -10 -16l-4 -6q-6 -6 -6 -13l-6 -14l-4 -6q-1 -1 -4 -10zM139 1044v3q0 8 6 8h2q6 0 9 -6q0 -2 2 -2q19 -5 69 -5q7 0 4 -8q-3 -10 -14 -10h-10q-9 0 -37 4q-14 0 -18 2q-13 3 -13 14z M305 696q4 -10 5.5 -31.5t4.5 -31.5q0 -10 -6 -4q-2 2 -4 2t-2 4l-2 4q-6 15 -6 33v12q0 2 -2 2t-6 4v8q0 7 6 7q9 0 12 -9z" />
<glyph unicode="&#xb4;" horiz-adv-x="335" d="M244 1536q6 10 28 43.5t31.5 48t25.5 41.5t28.5 49.5t23.5 46.5q3 9 -4 9q-4 2 -19 2q-4 0 -5 3t1 5q10 10 17 8l16 -4h8q12 4 15 -4q1 -5 -13 -29q-3 -5 -8 -17.5t-8 -17.5q-12 -18 -48 -80t-61 -90q-6 -6 -10 -14q-2 -2 -4 -8q-9 -18 -31 -15h-133q-10 0 -16 13 q0 2 -4 6t0 8t6 4h8q9 0 6 -10q-4 -4 2 -4q65 3 135 0q10 0 13 6z" />
<glyph unicode="&#xb5;" horiz-adv-x="1067" d="M737 -176q0 9 8 6q4 0 11.5 -1t11.5 -1l41 -6q77 -15 158 0q8 3 8 10l6 156q0 15 -1.5 66t-0.5 79v154q0 98 2 147q1 37 -1.5 147.5t1.5 145.5q3 71 12 141q1 13 1 35.5t1 34.5q5 90 0 121l-2 2q-6 0 -6 6v4q0 9 10 12t13 0q4 -4 5 -8t0 -10.5t-1 -7.5q5 -56 4 -66 l-4 -63q0 -55 -10 -133q-5 -107 -5 -131q-4 -81 -2 -119q4 -36 4 -53q0 -29 -4 -91v-180q1 -24 0 -74.5t0 -76.5q0 -7 2.5 -50t2 -50.5t-2.5 -49.5l-6 -90q0 -24 -20 -27q-78 -25 -225 11q-11 4 -11 10zM227 -451q1 -1 -1.5 -2.5t-4.5 -1.5q-5 1 -12 9q-10 3 -10 12 q0 11 10 8h8q2 0 2 -2q120 -10 209 -10q6 0 6 8q-3 6 -3.5 13t0.5 17.5t1 14.5q0 150 10 317v5q0 19 19 16q4 0 12.5 -1t13.5 -1q20 0 41 -6q37 -10 68 -2l16 4q11 4 11 -6q0 -11 -11 -15l-18 -4q-61 -9 -123 23q-5 5 -8 -4q-4 -21 -4 -93q-6 -189 -6 -204q0 -7 1 -25 t0.5 -31t-3.5 -24q0 -20 -23 -23q-14 -2 -45 -2q-81 3 -156 12v-2zM446 385q0 -9 3 -32t4 -34q0 -5 -4.5 -7.5t-8.5 1.5l-4 4q0 2 -2 2q-2 2 -2 9v12q-1 6 -2.5 17t-2.5 20t-1 16q0 48 4.5 128.5t5.5 117.5q0 140 -2 197q-2 82 2 215q0 2 -4 6q0 1 1.5 2t0.5 2q-12 9 -12 14 q3 12 14 8h2q17 -3 17 -20q0 -57 -2 -90q-1 -60 1.5 -210.5t-1.5 -199.5q0 -15 -2 -44t-2 -44q-4 -68 -3 -90z" />
<glyph unicode="&#xb6;" horiz-adv-x="1148" d="M883 -412v2q0 11 12 11h6q4 0 4 -4q0 -3 2 -3q78 -9 152 0q8 3 8 11q3 58 -4 106q-3 17 -4 35.5t-1 41.5t-1 36q-2 70 2 213q6 316 6 649q0 277 6 410q0 18 1 52t1 52q0 11 -3 48.5t-2.5 48t3.5 44.5q0 5 -4 5q-12 0 -12 10t10 10q3 0 7 -1t7 -1q13 -6 13 -21 q0 -5 -2.5 -14t-2.5 -16q-1 -19 2 -54.5t3 -52.5q0 -57 -3 -174.5t-4 -154.5q0 -78 -2 -119q-1 -58 0 -171t0 -165q0 -37 -1 -107t-1 -106q-5 -360 -4 -416l6 -106q3 -18 3 -48t1 -38q0 -25 -18 -25h-29q-48 -6 -55 -6q-23 0 -59 4h-33q-10 3 -10 14zM535 -414v2q0 9 10 9h6 q1 0 4 -3v-2q104 -13 137 0q8 0 8 11l9 174q0 27 -2 97.5t-2 105.5l4 202q1 20 -0.5 56.5t-1.5 48.5q0 69 -2 102q-1 82 1.5 220.5t2.5 193.5v303q-4 53 4 80q3 20 26 20q15 3 33 0q10 0 10 -10t-10 -10q-27 0 -33 -2q-8 0 -8 -8q-5 -32 -4.5 -205t0.5 -199 q0 -22 -1.5 -90.5t-0.5 -106.5q0 -33 -1.5 -92t-1.5 -110.5t3 -102.5q5 -68 0 -243v-50q7 -142 -4 -378q0 -22 -21 -25q-31 -8 -67 -8l-86 8q-12 0 -12 12zM422 551q-38 8 -80 24q-5 0 -3 4q1 3 5 3h2l27 -4q4 0 39 -5l12 -4q8 -3 8 -12v-2q0 -6 -6 -6q-2 2 -4 2z" />
<glyph unicode="&#xb7;" horiz-adv-x="548" d="M457 571q35 54 18 136q-1 7 -0.5 12t0 9.5t-3.5 8.5q0 4 -4 8q-2 2 -2 9l-2 8q0 10 6 4q8 -10 12 -21.5t7 -30.5t4 -24q4 -28 4 -41q-6 -47 -19 -76q-10 -17 -26 -30l-41 -21q-35 -18 -80 -18q-35 0 -68 20q-3 3 -2.5 5.5t2 4t2.5 1.5q14 0 31 -7l24 -4q58 -7 125 37 q11 4 13 10z" />
<glyph unicode="&#xb8;" horiz-adv-x="352" d="M80 -479q-2 0 -4 2q-6 0 -6 4q0 2 -2 4q0 10 8 10h2q7 0 10 -8q0 -4 4 -4q24 3 69.5 0t69.5 0q50 13 70 20q35 9 57 31q29 30 38 77t-3 91q-6 18 -6 39v2q0 3 2 5t4.5 2t3.5 -3q30 -52 21 -119q-9 -57 -39 -98q-9 -16 -31 -25q-4 0 -8 -4q-21 -12 -68 -24 q-41 -14 -71 -12h-17q-4 -5 -41 -0.5t-47 4.5q-10 -3 -16 6z" />
<glyph unicode="&#xb9;" horiz-adv-x="425" d="M408 1049l4 41q1 25 -1 76t-1 79q0 10 1.5 43t0.5 53q0 6 -4 2h-2q-11 0 -11 11q0 10 11 10q2 -2 12 -2q10 -3 10 -8q1 -4 0 -7v-1v-13q0 -3 -1 -7t-1 -7q0 -5 1 -14.5t1 -14.5q-3 -40 -2 -127.5t-2 -124.5v-20v-23q-4 -17 -4.5 -39.5t1 -49.5t1.5 -34q-3 -54 1 -154.5 t3 -144.5q0 -17 1.5 -60t1.5 -80.5t-3 -65.5q0 -11 -8 -19q-5 -8 -17 -8q-16 0 -61.5 -1.5t-73.5 -0.5q-13 3 -16 10v2q-1 3 -3.5 5t-2.5 5q0 9 6 9q7 0 10 -9l2 -2q42 -2 139 2q9 0 9 9q-4 4 -2 92.5t2 95.5q1 52 -3 165.5t-1 180.5q1 16 -0.5 73t2.5 73zM94 1128 q-2 2 -2 13t8 14q4 4 7.5 2.5t3.5 -6.5v-23q3 -8 10 -4l8 4q10 3 10 -6q0 -8 -8 -16q-22 -9 -25 -6q-3 1 -3 5t-3 7q0 2 -3 7t-3 9z" />
<glyph unicode="&#xba;" horiz-adv-x="673" d="M664 877q10 132 -9 243q-3 12 -4 34.5t-4 33.5q-6 14 -10 41l-2 16q0 2 2 2l6 -6q4 -7 8 -16t6.5 -17t5 -20.5t4 -19.5t4 -21.5t3 -19.5t2.5 -21.5t2 -18.5v-14q3 -28 3.5 -62.5t0 -58.5t-2 -67.5t-1.5 -63.5q0 -3 1 -8t1 -8q2 -10 2 -14t-2.5 -13.5t-3.5 -13.5v-6v-18.5 t-4 -22.5l-6 -19q-21 -46 -54 -82q-2 -3 -5.5 -8t-6.5 -9t-6 -7q-14 -12 -72 -31q-2 0 -4 -2q-36 -16 -39 -16q-12 0 -16 -2q-3 0 -8.5 -1t-8.5 -1q-21 -7 -40 -7q-9 0 -29 4l-25 5q-54 6 -92 26q-4 1 -3.5 3.5t5.5 2.5h4q4 -2 17 -2l12 -4q1 0 4 -1t4 -1t17 -3t24 -3h2 q8 -1 24.5 -5t22.5 -5q54 -3 111 20q11 5 38 15t40 18q7 3 10 10q4 6 13.5 16t12.5 17q27 36 37 121q0 2 4.5 29t4.5 41v41zM315 1157q16 29 62 35q6 3 6 -4q0 -6 -6 -6q-5 0 -17 -4q-5 0 -14 -9l-16 -16q-1 -2 -3.5 -6.5t-2.5 -7.5q-4 -14 -4.5 -40t-0.5 -30q0 -3 -2 -9 t-2 -9q-1 -8 0.5 -26t1.5 -28q-2 -27 -2 -67v-35q0 -8 -2 -28.5t-2 -32.5q0 -11 -6 -5q-1 0 -6 5l-2 2q-2 0 -2 6q0 24 4 90q1 21 0 61.5t0 57.5q2 14 4.5 37t5 40t6.5 29z" />
<glyph unicode="&#xbb;" horiz-adv-x="1097" d="M874 311l44 35q27 23 81.5 66t81.5 67q6 6 6 15q0 22 -1 65t-1 64q0 5 -6 8q-4 0 -4 4q-1 2 -2 5l-1.5 4.5t-0.5 2.5q0 10 6 4l8 -6q17 -10 17 -27q0 -42 4 -120q0 -12 -8 -23q-10 -14 -15 -16q-53 -40 -82 -64l-6 -2l-12 -10q-17 -17 -27 -23q-7 -3 -10 -10l-8 -8 l-12 -10q-23 -17 -67 -54t-62 -51q-7 -7 -21.5 -16t-21.5 -16q-24 -18 -25 -19l-24 -20l-9 -6l-12 -11l-55 -53q-5 -5 -8 0q-5 6 -5 55v6q2 12 11 21q1 2 4.5 1t3.5 -5q0 -13 -4 -41q0 -10 6 -4q19 15 53.5 44.5t54.5 45.5q27 18 72.5 55.5t56.5 46.5zM135 123v12q0 3 4 15 l2 2q0 1 2 3t2 3q11 11 11 -4q-2 -14 -2 -41q0 -8 6 -2q18 15 66 58t83 73.5t72 58.5l117 94q2 0 2 -2v-10q0 -9 -11 -16q-4 -1 -20 -17l-12 -12l-8 -6l-54 -45l-57 -41q-2 -2 -6 -6.5t-7.5 -8t-7.5 -6.5q-93 -76 -127 -108q-3 -3 -9 -10.5t-10 -12t-10.5 -10t-10.5 -4.5 t-9 4q-9 12 -6 39zM612 530q-1 17 4 95q0 6 -4 10l-4 2q-8 8 -8 18q0 12 8 4l13 -10q4 -4 4 -12q1 -2 3.5 -6.5t2.5 -7.5v-54q-2 -6 -2 -24q0 -8 -8 -19q-9 -3 -9 4z" />
<glyph unicode="&#xbc;" horiz-adv-x="1439" d="M416 -43q3 8 10 8h2q9 0 6 -8q0 -4 4 -4q122 0 148 4q10 3 10 10q7 18 22.5 51.5t26.5 60.5t19 52q53 170 185 485q10 23 15 35q23 57 66 172.5t67 173.5q14 32 36 94.5t30 82.5l49 131q11 25 12 34q0 9 -8 9h-12q-8 0 -8 8q3 10 14 10q16 0 18 -2q22 -10 13 -31 q-16 -57 -58 -151q-6 -14 -11 -29t-10.5 -34t-8.5 -29l-33 -86q-18 -45 -89.5 -232t-113.5 -287q-15 -34 -40.5 -99t-28.5 -73q-43 -104 -64 -176q-14 -48 -49 -131q-3 -8 -11 -24t-8 -25q0 -3 -3 -8.5t-3 -7.5q-2 0 -2 -2q-3 -8 -12 -5q-2 3 -4 5t-10 2q-70 -12 -133 -4 q-3 1 -10 1t-11.5 1t-7.5 4q-8 3 -4 14zM471 582v-17q-2 -27 -2 -78q3 -20 -6 -38l-2 -7q-2 -4 -5 -3.5t-5 5.5q-2 85 2 195q2 43 2 121q-3 43 1.5 127t4.5 112q0 39 -4 121q-2 30 -1 120t-7 112l-3 2q-6 -3 -6 4v2q0 11 9 8q2 -2 6 -2q10 -8 14 -23q3 -30 4 -64t1 -75.5 t1 -64.5q4 -143 2 -217q-9 -119 -6 -238q1 -4 0.5 -52.5t-0.5 -49.5zM1184 -43q0 10 8 10h2q8 0 8 -8q0 -4 4 -4q68 0 127 6q9 3 6 10q-3 17 -3.5 39.5t0.5 53.5t1 40q0 12 11 19q2 0 4 2q4 8 8 4q34 -3 55 0q8 0 8 8q8 56 -2 127q0 2 -2 2l-2 2v6q0 11 8 11q2 2 5 2 q13 0 16 -6q3 -8 -6 -17v-2q0 -3 2 -7t2 -7q4 -28 4 -45q1 -13 -1.5 -37.5t-2.5 -34.5q0 -22 -19 -22q-13 -1 -32 0.5t-27 1.5t-8 -9q-3 -23 -3.5 -45t0.5 -50t1 -38q0 -20 -21 -26q-32 -6 -125 -6q-10 0 -16 6v2q-7 4 -10 12zM1350 608v-2q6 -54 2 -196q0 -9 -11 -13 q-8 0 -8 9v32q0 41 -1 145.5t-0.5 180t3.5 145.5q0 6 -6 6q-12 0 -12 15l2 2v4l2 2l12 -4q17 0 17 -16q3 -15 -1 -55.5t-1 -57.5v-4q3 -9 2 -10q-5 -21 -2 -60v-72q0 -42 4 -51h-2zM874 127v2q-3 8 7 8q7 0 10 -8q2 -2 4 -2q26 1 73.5 0t71.5 0q3 0 9.5 -1t9.5 -1 q10 0 10 -10q0 -9 -10 -9h-152q-2 0 -4 1t-5 2t-5 2q-2 2 -6 2q-10 3 -13 14zM285 377q-7 10 8 10h2q15 0 27 -6q42 -15 98 -12q8 3 8 -7q-6 -6 -4 -6q-19 -3 -41 0h-31q-13 1 -33.5 9.5t-27.5 9.5q-6 0 -6 2zM143 1116q-3 16 0 39q0 10 7 10q8 3 8 -4q0 -20 2 -26 q0 -5 4 -5l4 3q8 3 8 -7q0 -9 -8 -12q-6 -6 -12 -6q-10 0 -13 8z" />
<glyph unicode="&#xbd;" horiz-adv-x="1507" d="M381 -47q3 8 10 8q8 0 8 -8v-2q-4 -4 2 -4q8 0 74.5 3.5t77.5 -1.5q9 0 12 8q22 68 31 88q24 54 37 98q9 39 38 107.5t34 81.5q6 21 14.5 41t19 42.5t15.5 35.5l4 16q3 7 7 20t7 21l12 39q14 28 41 112q7 16 19 49t18 48l4 8q1 5 4 0v-12q0 -21 -6 -39q-19 -46 -30 -86 q-5 -18 -19.5 -51.5t-19.5 -49.5l-23 -80q-5 -14 -16 -38t-15 -33q-24 -50 -59 -144q-14 -29 -32.5 -87.5t-20.5 -65.5q-8 -25 -26 -69t-23 -58q-10 -19 -27 -19q-20 0 -73 -1.5t-81 -0.5q-10 0 -16 9v2q-3 10 -2 12zM457 614v-16q0 -7 -1 -18.5t-1 -18.5q0 -20 -6 -41 q-3 -3 -3 -4q-2 -7 -5 -4q-1 1 -1 4v135l4 242q0 25 -2 73.5t-2 69.5q0 8 1 23.5t1 23.5q6 81 2 260q0 3 -2 5q-8 0 -8 8v8q0 2 2 2t4 -2l9 -6q9 -6 12 -19q9 -45 2 -172t-4 -178q5 -35 1.5 -193.5t-3.5 -181.5zM991 -63q0 1 -1 3t-1 3q0 10 8 10q11 0 11 -10v-2q4 -4 6 -4 q159 11 469 0q7 0 10 8q10 61 -4 145q0 2 -2 2q-4 0 -4 4t-2 6q0 9 8 9q9 0 12 -7q4 -5 4 -30q1 -10 6 -36.5t5 -41.5q0 -31 -9 -55q-3 -21 -22 -21h-2q-94 4 -170 4q-19 0 -55 -1.5t-65.5 -1.5t-53.5 3q-21 1 -42.5 0t-47 -3t-39.5 -3q-10 0 -13 6q-1 2 -3.5 6t-2.5 7z M1481 791q0 4 -4 16q-2 2 -2 6q0 2 2 2l12 -20l16 -43v-15l4 -16q0 -4 2 -6q5 -12 5 -41v-2q0 -1 -1 -3.5t-2 -6.5t-2 -7q-9 -76 -44 -140t-93 -138q-63 -79 -104 -144q-8 -8 -17 -8t-6 8q31 52 51 72q15 20 44 59.5t44 59.5q41 58 46 68q69 102 61 217q0 20 -12 82z M1067 1241q-6 -15 -18.5 -49.5t-20.5 -52.5q-28 -56 -53 -131q-11 -25 -21 -33l-4 -6q-8 -3 -8 4q26 72 76 197.5t69 175.5q0 8 -6 8h-18q-9 0 -6 10t14 10h14q11 0 17 -6.5t2 -17.5q2 -2 -37 -109zM987 618q0 5 4 5h4q1 0 6 -5h3q68 -11 120 -8q5 2 6.5 -1t-2.5 -7 q-7 -10 -18 -10q-51 -3 -98 6q-14 3 -17 10l-4 6zM1178 698l-7 -20q-3 -5 -5 -16t-5 -15q-10 -10 -10 2q4 79 39 117l8 8q6 6 6 0l4 -2v-4h2q0 -2 -2 -2v-2q0 -6 -4 -10q-11 -13 -22 -39zM301 373q34 -9 80 -6q5 0 7.5 -3.5t-1.5 -7.5q-3 -10 -16 -10q-43 0 -76 8 q-12 3 -12 13q-2 2 -2 4q0 8 8 8h6q4 0 4 -4q0 -2 2 -2zM141 1110q-6 8 -6 43l2 2q2 2 4 2l11 6q2 0 2 -2q0 -5 4 -33l2 -2q6 6 6 -2v-6q0 -12 -10 -12q-12 -4 -15 4z" />
<glyph unicode="&#xbe;" horiz-adv-x="1556" d="M547 -55q89 -4 145 2q10 0 13 6q8 13 16 39.5t14 40.5q11 30 37 80q14 32 34.5 93t29.5 85q63 184 96 266l33 84q46 139 142.5 382t121.5 310q0 9 -6 6h-17q-4 -1 -6 1.5t0 7.5q3 12 14 12q22 4 31 -2q8 -3 4 -17q-8 -43 -28 -81l-35 -86q-23 -59 -68 -176t-69 -175 q-14 -31 -33 -90q-25 -73 -77 -210t-75 -201h-2v-5l-4 -14l-6 -20q-9 -24 -29.5 -85.5t-34.5 -93.5l-38 -86q-8 -26 -27 -69q-6 -21 -29 -21q-29 -4 -82 -4h-65q-11 0 -19 8l-2 2q-4 11 -2 13q3 8 11 8h4q6 0 6 -8q-1 0 0 -1t2 -1zM1540 119v129q0 4 -4 4q-6 3 -6 10v2 q0 11 10 8h4q15 0 15 -16q4 -16 1.5 -73.5t-1.5 -73.5q3 -13 -9 -13q-3 0 -9 1t-9 1q-13 1 -33.5 -0.5t-28.5 -1.5t-8 -8q-2 -1 -1 -32.5t1 -32.5q0 -5 1.5 -18t1.5 -19.5t-0.5 -16.5t-2.5 -19t-6 -18q0 -7 -10 -10q-12 -4 -14 -4q-14 1 -57 3.5t-66 2.5q-17 0 -17 15 q-2 2 -2 4q0 6 2 7.5t6 0.5h7q4 0 4 -4q0 -2 2 -2q15 0 61.5 -4.5t61.5 0.5q8 0 8 8q4 19 1.5 73t-1.5 70q0 20 22 23q46 4 76 4zM1464 449v-17q0 -21 -2 -35q0 -10 -10 -10t-10 10q0 8 1 25.5t1 26.5q0 19 -2 59t-2 61q0 19 -2 59.5t-2 59.5q4 148 2 223q-2 0 -4 2 q-7 3 -7 11v8q0 8 7 4q6 0 10 -4q11 -14 14 -51q0 -13 -2.5 -43t-1.5 -45q1 -17 -0.5 -73.5t2.5 -72.5q-1 -38 3 -106.5t5 -91.5zM657 1079v-16q0 -63 -9.5 -89.5t-43.5 -70.5q-8 -3 -10 2q-3 10 2 15l16 20q17 31 25 64q0 3 3.5 15.5t2.5 20.5l-6 29q0 80 -6 113 q-8 38 -8 41v4q0 5 3.5 5.5t4.5 -3.5l16 -39q4 -15 6 -33t3 -44.5t1 -33.5zM424 362q64 3 119 31q6 3 6 -6l-2 -4l-2 -2v-4h-4q-44 -22 -109 -31q-18 -2 -51 -2q-44 0 -68 8q-4 1 -12 5t-12 5l-17 7q-3 0 -3 2q0 3 5 4h7q19 0 38 -8q3 0 5.5 -1t5.5 -1q29 -7 94 -3zM981 117 q0 4 4 4h8q6 0 6 -6q0 -2 2 -2q5 0 68.5 -3.5t97.5 -3.5q9 0 9 -10q0 -8 -9 -8q-51 0 -161 4q-14 0 -17 12q0 7 -4 7q-4 4 -4 6zM352 1180q-9 -9 -15 -19.5t-10 -26.5t-5.5 -23t-3.5 -30.5t-3 -27.5q0 -9 -8 -9t-8 9q0 12 2 16q11 87 27 111q8 12 18 18q4 4 10 4q13 3 13 -6 v-4q0 -8 -7 -8q-6 0 -10 -4zM631 809q20 -41 26 -109q3 -20 -6 -38l-4 -13q0 -3 -2 -3q-3 0 -4 5q-5 83 -6 86l-8 41q0 5 -1 14.5t-1 14.5q-1 5 2 6t4 -4zM147 1026v4q0 6 7 6q6 0 6 -6q0 -2 2 -2q11 -4 51 -4q10 0 10 -10q0 -8 -10 -8h-2q-6 1 -17 1t-19.5 1t-14.5 4 q-13 3 -13 14zM322 672q-3 -12 -3 -33q0 -7 -8 -4q-8 0 -8 10q0 19 2 25q0 4 -4 4h-2q-8 0 -8 10q0 6 1.5 8t6.5 0l6 -2q17 0 17 -18z" />
<glyph unicode="&#xbf;" horiz-adv-x="1001" d="M379 -133l-8 2v2l20 -6q58 -20 121 -23q26 -7 63 -10q18 -2 46 2l16 4q32 5 35 6q83 28 125 60l16 14q47 39 75 82t38 102q10 45 10 68q0 5 -2 14.5t-2 14.5q0 8 0.5 24t0.5 26.5t-1 24t-4 25.5q0 2 -2 2q-4 0 -4 4v6q0 8 6 8q4 0 10 -6l6 -12q6 -9 6 -16q1 -7 1 -22.5 t1 -24.5v-60q2 -53 -18 -131q-1 -3 -6 -17t-10 -22q-67 -119 -201 -168q-29 -13 -68 -22q-71 -17 -174 14q-50 14 -96 35zM465 233l-4 -16q0 -14 -2 -16q0 -13 -10 -6q-11 7 -11 18q3 39 17 53q4 4 4 10l10 25l11.5 23t13.5 24.5t12 16.5l4 6l10 14q5 5 21 33l20 28 q24 46 51 84q6 10 17.5 28.5t20 33t14.5 29.5q57 133 28 249q-2 0 -2 2q0 7 -2 9q0 12 10 12q9 0 11 -2q4 -4 6 -15.5t3 -29t1 -21.5q11 -99 -27 -190q-16 -40 -57.5 -105.5t-48.5 -78.5q-8 -15 -23.5 -38t-21.5 -34l-25 -33l-24 -47q-21 -37 -27 -66zM475 1077q0 6 4 6h17 l2 -2q0 -2 2 -2q14 -3 28 -4t24 -1t25.5 0.5t24.5 0.5q9 1 42 -1t42 3q7 3 10 13q10 67 -4 176q-2 0 -2 2q0 3 -1 6t-1 6q0 6 6 6q7 0 11 -4q0 -1 1 -3t1 -3q8 -11 8 -21q10 -94 2 -161q-4 -19 -12 -27q-10 -10 -25 -10q-7 0 -44.5 -2t-55.5 -2t-45.5 1.5t-45.5 6.5 q-5 3 -8 8l-2 2q-4 4 -4 6z" />
<glyph unicode="&#xc0;" horiz-adv-x="1034" d="M1001 63h-2v11l-6 37l-10 47q-6 23 -14.5 70.5t-10.5 56.5l-14 71l-18 60l-13 39l-6 34q-3 14 -7 42t-7 42q-28 134 -41 187q-22 87 -27 110l-8 48q-1 4 -2 9l-1.5 7.5t-0.5 3.5q-3 12 -6 35t-6 35l-29 120h2l-16 56l-10 73l-11 31q-6 25 -16 74q-2 5 2 9t8 3 q7 -2 10 -18q7 -56 37 -182l10 -66l17 -59q3 -12 41 -191q12 -62 39 -180.5t39 -183.5q9 -45 20 -115q3 -17 14 -48t15 -46q4 -18 18 -89.5t23 -109.5l10 -51l8 -49q0 -6 3.5 -17t4 -16.5t-5.5 -15.5q-15 -12 -37 -9h-20q-91 -10 -174 -2q-6 0 -10 4q-7 7 -7 11q0 1 -1 3 t-1 3q0 8 9 8q7 0 10 -8q83 -6 172 0q4 0 6 2h29q7 2 10 12q0 5 -2 14.5t-2 14.5q-2 2 -2 10q-1 3 -2 6.5t-1.5 5t-0.5 2.5v11l-9 34v4zM137 -70q-1 1 -0.5 6.5t0.5 6.5q3 6 8 6q7 0 7 -6v-2q49 -6 153 -2h23q7 3 23 2.5t18 3.5q6 7 9 17.5t5 25.5t4 22l4 17q3 29 12 55 l17 72q3 8 5 25t5 24q9 18 31 18q6 0 147 6q13 0 13 -10q3 -10 -9 -10q-153 -6 -163 -6q-7 -30 -19.5 -90t-19.5 -88l-4 -19q-1 -5 -3.5 -20t-4.5 -22.5t-7.5 -17t-13.5 -14.5q-7 -6 -20 -8t-25.5 -1.5t-26.5 -0.5h-22q-94 -4 -133 2q-13 3 -13 8zM500 1524q-1 3 -6 6.5 t-7 5.5q-7 10 5 10q10 0 18 -8l2 -4q4 -4 10 -4q35 3 76 0q3 0 8 1t8 1h33q7 0 4 10l-6 14q-3 12 4 23v2q0 2 2 3q1 -2 2 -3l15 -35q6 -12 8 -22v-2q0 -4 -2 -4q-18 -4 -21 -2h-2q-3 0 -5 1t-5 1q-16 -3 -37 -3.5t-50.5 0.5t-39.5 1q-2 0 -2 -3q-2 1 -4 3q-5 3 -8 8z M502 578l8 32q3 12 7 34.5t7 33.5q0 4 3 4t3 -4q0 -1 1 -3t1 -3q3 -21 0 -41l-12 -53q-3 -9 -12 -9t-6 9z" />
<glyph unicode="&#xc1;" horiz-adv-x="1034" d="M1001 63h-2v11l-6 37l-10 47q-6 23 -14.5 70.5t-10.5 56.5l-14 71l-18 60l-13 39l-6 34q-3 14 -7 42t-7 42q-28 134 -41 187q-22 87 -27 110l-8 48q-1 4 -2 9l-1.5 7.5t-0.5 3.5q-3 12 -6 35t-6 35l-29 120h2l-16 56l-10 73l-11 31q-6 25 -16 74q-2 5 2 9t8 3 q7 -2 10 -18q7 -56 37 -182l10 -66l17 -59q3 -12 41 -191q12 -62 39 -180.5t39 -183.5q9 -45 20 -115q3 -17 14 -48t15 -46q4 -18 18 -89.5t23 -109.5l10 -51l8 -49q0 -6 3.5 -17t4 -16.5t-5.5 -15.5q-15 -12 -37 -9h-20q-91 -10 -174 -2q-6 0 -10 4q-7 7 -7 11q0 1 -1 3 t-1 3q0 8 9 8q7 0 10 -8q83 -6 172 0q4 0 6 2h29q7 2 10 12q0 5 -2 14.5t-2 14.5q-2 2 -2 10q-1 3 -2 6.5t-1.5 5t-0.5 2.5v11l-9 34v4zM137 -70q-1 1 -0.5 6.5t0.5 6.5q3 6 8 6q7 0 7 -6v-2q49 -6 153 -2h23q7 3 23 2.5t18 3.5q6 7 9 17.5t5 25.5t4 22l4 17q3 29 12 55 l17 72q3 8 5 25t5 24q9 18 31 18q6 0 147 6q13 0 13 -10q3 -10 -9 -10q-153 -6 -163 -6q-7 -30 -19.5 -90t-19.5 -88l-4 -19q-1 -5 -3.5 -20t-4.5 -22.5t-7.5 -17t-13.5 -14.5q-7 -6 -20 -8t-25.5 -1.5t-26.5 -0.5h-22q-94 -4 -133 2q-13 3 -13 8zM668 1536q6 10 28 43.5 t31.5 48t25.5 41.5t28.5 49.5t23.5 46.5q3 9 -4 9q-4 2 -19 2q-4 0 -5 3t1 5q10 10 17 8l16 -4h8q12 4 15 -4q1 -5 -13 -29q-3 -5 -8 -17.5t-8 -17.5q-12 -18 -48 -80t-61 -90q-6 -6 -10 -14q-2 -2 -4 -8q-9 -18 -31 -15h-133q-10 0 -16 13q0 2 -4 6t0 8t6 4h8q9 0 6 -10 q-4 -4 2 -4q65 3 135 0q10 0 13 6zM502 578l8 32q3 12 7 34.5t7 33.5q0 4 3 4t3 -4q0 -1 1 -3t1 -3q3 -21 0 -41l-12 -53q-3 -9 -12 -9t-6 9z" />
<glyph unicode="&#xc2;" horiz-adv-x="1034" d="M1001 63h-2v11l-6 37l-10 47q-6 23 -14.5 70.5t-10.5 56.5l-14 71l-18 60l-13 39l-6 34q-3 14 -7 42t-7 42q-28 134 -41 187q-22 87 -27 110l-8 48q-1 4 -2 9l-1.5 7.5t-0.5 3.5q-3 12 -6 35t-6 35l-29 120h2l-16 56l-10 73l-11 31q-6 25 -16 74q-2 5 2 9t8 3 q7 -2 10 -18q7 -56 37 -182l10 -66l17 -59q3 -12 41 -191q12 -62 39 -180.5t39 -183.5q9 -45 20 -115q3 -17 14 -48t15 -46q4 -18 18 -89.5t23 -109.5l10 -51l8 -49q0 -6 3.5 -17t4 -16.5t-5.5 -15.5q-15 -12 -37 -9h-20q-91 -10 -174 -2q-6 0 -10 4q-7 7 -7 11q0 1 -1 3 t-1 3q0 8 9 8q7 0 10 -8q83 -6 172 0q4 0 6 2h29q7 2 10 12q0 5 -2 14.5t-2 14.5q-2 2 -2 10q-1 3 -2 6.5t-1.5 5t-0.5 2.5v11l-9 34v4zM137 -70q-1 1 -0.5 6.5t0.5 6.5q3 6 8 6q7 0 7 -6v-2q49 -6 153 -2h23q7 3 23 2.5t18 3.5q6 7 9 17.5t5 25.5t4 22l4 17q3 29 12 55 l17 72q3 8 5 25t5 24q9 18 31 18q6 0 147 6q13 0 13 -10q3 -10 -9 -10q-153 -6 -163 -6q-7 -30 -19.5 -90t-19.5 -88l-4 -19q-1 -5 -3.5 -20t-4.5 -22.5t-7.5 -17t-13.5 -14.5q-7 -6 -20 -8t-25.5 -1.5t-26.5 -0.5h-22q-94 -4 -133 2q-13 3 -13 8zM653 1530l-6 8q-3 8 4 8 q9 0 17 -8q2 -2 8 -2q22 -1 70.5 -1t74.5 -1q10 0 4 6l-14 23q-3 3 0 14q6 6 12 0l4 -6q2 -2 7 -9t8 -11t5.5 -10t1 -11t-6.5 -10q-2 -2 -4 -2q0 2 -2 2v-2h-5q-6 -3 -11.5 -3t-11.5 1.5t-9 1.5q-24 3 -58 0t-55 0q-24 4 -33 12zM317 1538v6q3 6 13 6h2q3 0 3 -4t3 -4h2 q7 0 31.5 -1.5t37 -2t31.5 0t33 3.5q6 2 12 8q12 18 35 41q3 3 12 0q3 -6 0 -12q-9 -8 -23 -26t-17 -21q-5 -7 -29 -12q-19 -1 -41 0t-48 3t-38 3q-16 0 -19 12zM502 578l8 32q3 12 7 34.5t7 33.5q0 4 3 4t3 -4q0 -1 1 -3t1 -3q3 -21 0 -41l-12 -53q-3 -9 -12 -9t-6 9z" />
<glyph unicode="&#xc3;" horiz-adv-x="1034" d="M1001 63h-2v11l-6 37l-10 47q-6 23 -14.5 70.5t-10.5 56.5l-14 71l-18 60l-13 39l-6 34q-3 14 -7 42t-7 42q-28 134 -41 187q-22 87 -27 110l-8 48q-1 4 -2 9l-1.5 7.5t-0.5 3.5q-3 12 -6 35t-6 35l-29 120h2l-16 56l-10 73l-11 31q-6 25 -16 74q-2 5 2 9t8 3 q7 -2 10 -18q7 -56 37 -182l10 -66l17 -59q3 -12 41 -191q12 -62 39 -180.5t39 -183.5q9 -45 20 -115q3 -17 14 -48t15 -46q4 -18 18 -89.5t23 -109.5l10 -51l8 -49q0 -6 3.5 -17t4 -16.5t-5.5 -15.5q-15 -12 -37 -9h-20q-91 -10 -174 -2q-6 0 -10 4q-7 7 -7 11q0 1 -1 3 t-1 3q0 8 9 8q7 0 10 -8q83 -6 172 0q4 0 6 2h29q7 2 10 12q0 5 -2 14.5t-2 14.5q-2 2 -2 10q-1 3 -2 6.5t-1.5 5t-0.5 2.5v11l-9 34v4zM137 -70q-1 1 -0.5 6.5t0.5 6.5q3 6 8 6q7 0 7 -6v-2q49 -6 153 -2h23q7 3 23 2.5t18 3.5q6 7 9 17.5t5 25.5t4 22l4 17q3 29 12 55 l17 72q3 8 5 25t5 24q9 18 31 18q6 0 147 6q13 0 13 -10q3 -10 -9 -10q-153 -6 -163 -6q-7 -30 -19.5 -90t-19.5 -88l-4 -19q-1 -5 -3.5 -20t-4.5 -22.5t-7.5 -17t-13.5 -14.5q-7 -6 -20 -8t-25.5 -1.5t-26.5 -0.5h-22q-94 -4 -133 2q-13 3 -13 8zM848 1624l4 41q4 49 2 66 q0 6 -6 6h-4q-8 0 -8 8q0 10 8 10h2q11 0 18 -10v-2q7 -17 4 -27q-2 -16 -2 -43.5t-3 -47.5t-13 -36q-7 -17 -41 -41q-19 -14 -43 -20q-20 -7 -29 -8q-51 -9 -104 8q-17 8 -19 10q-8 8 2 8q3 0 31 -4q48 -14 92 -4q48 10 82 41q21 21 27 45zM303 1530q0 4 -2 6q0 8 6 8 q8 0 8 -8v-2q0 -4 4 -4q62 4 91 4q7 0 10 8q13 39 41 60q10 7 26 -3q9 -3 -2 -10q-5 -1 -11.5 -4t-8.5 -4q-5 -3 -8.5 -6.5t-7 -9.5t-5.5 -9t-5.5 -10.5t-4.5 -9.5q-9 -18 -31 -18q-4 0 -27 -2.5t-27.5 -2t-29.5 2.5q-13 0 -16 14zM502 578l8 32q3 12 7 34.5t7 33.5q0 4 3 4 t3 -4q0 -1 1 -3t1 -3q3 -21 0 -41l-12 -53q-3 -9 -12 -9t-6 9z" />
<glyph unicode="&#xc4;" horiz-adv-x="1034" d="M1001 63h-2v11l-6 37l-10 47q-6 23 -14.5 70.5t-10.5 56.5l-14 71l-18 60l-13 39l-6 34q-3 14 -7 42t-7 42q-28 134 -41 187q-22 87 -27 110l-8 48q-1 4 -2 9l-1.5 7.5t-0.5 3.5q-3 12 -6 35t-6 35l-29 120h2l-16 56l-10 73l-11 31q-6 25 -16 74q-2 5 2 9t8 3 q7 -2 10 -18q7 -56 37 -182l10 -66l17 -59q3 -12 41 -191q12 -62 39 -180.5t39 -183.5q9 -45 20 -115q3 -17 14 -48t15 -46q4 -18 18 -89.5t23 -109.5l10 -51l8 -49q0 -6 3.5 -17t4 -16.5t-5.5 -15.5q-15 -12 -37 -9h-20q-91 -10 -174 -2q-6 0 -10 4q-7 7 -7 11q0 1 -1 3 t-1 3q0 8 9 8q7 0 10 -8q83 -6 172 0q4 0 6 2h29q7 2 10 12q0 5 -2 14.5t-2 14.5q-2 2 -2 10q-1 3 -2 6.5t-1.5 5t-0.5 2.5v11l-9 34v4zM137 -70q-1 1 -0.5 6.5t0.5 6.5q3 6 8 6q7 0 7 -6v-2q49 -6 153 -2h23q7 3 23 2.5t18 3.5q6 7 9 17.5t5 25.5t4 22l4 17q3 29 12 55 l17 72q3 8 5 25t5 24q9 18 31 18q6 0 147 6q13 0 13 -10q3 -10 -9 -10q-153 -6 -163 -6q-7 -30 -19.5 -90t-19.5 -88l-4 -19q-1 -5 -3.5 -20t-4.5 -22.5t-7.5 -17t-13.5 -14.5q-7 -6 -20 -8t-25.5 -1.5t-26.5 -0.5h-22q-94 -4 -133 2q-13 3 -13 8zM862 1522q-87 -8 -196 2 q-13 3 -17 14v4q-3 8 6 8h7q4 0 4 -4q2 -2 4 -2q151 -5 176 -4q8 0 8 8q1 18 3.5 67t2 63.5t-3.5 58.5l-2 2q-6 0 -6 8v2q0 6 2 7.5t6 0.5q4 0 6 -2q12 -4 15 -18q5 -60 -7 -207q0 -8 -8 -8zM313 1528h-6q-8 3 -8 10q0 8 8 8h6q2 0 6 -4q0 -2 3 -2q83 -13 172 -4q6 3 6 10 l1 2q1 2 1 6q13 119 2 183q0 2 -2 2q-4 0 -4 4v4q0 6 1.5 7.5t6.5 0.5h2q12 0 12 -10q3 -4 4 -8t1 -9t1 -8v-2q0 -27 2 -41q0 -13 -2 -35.5t-2 -33.5q-1 -8 0.5 -32t-2.5 -28q-2 -4 2 -16q-2 -2 -4 -8q-6 -8 -41 -8q-97 -4 -153 6zM502 578l8 32q3 12 7 34.5t7 33.5q0 4 3 4 t3 -4q0 -1 1 -3t1 -3q3 -21 0 -41l-12 -53q-3 -9 -12 -9t-6 9z" />
<glyph unicode="&#xc5;" horiz-adv-x="1034" d="M1001 63h-2v11l-6 37l-10 47q-6 23 -14.5 70.5t-10.5 56.5l-14 71l-18 60l-13 39l-6 34q-3 14 -7 42t-7 42q-28 134 -41 187q-22 87 -27 110l-8 48q-1 4 -2 9l-1.5 7.5t-0.5 3.5q-3 12 -6 35t-6 35l-29 120h2l-16 56l-10 73l-11 31q-6 25 -16 74q-2 5 2 9t8 3 q7 -2 10 -18q7 -56 37 -182l10 -66l17 -59q3 -12 41 -191q12 -62 39 -180.5t39 -183.5q9 -45 20 -115q3 -17 14 -48t15 -46q4 -18 18 -89.5t23 -109.5l10 -51l8 -49q0 -6 3.5 -17t4 -16.5t-5.5 -15.5q-15 -12 -37 -9h-20q-91 -10 -174 -2q-6 0 -10 4q-7 7 -7 11q0 1 -1 3 t-1 3q0 8 9 8q7 0 10 -8q83 -6 172 0q4 0 6 2h29q7 2 10 12q0 5 -2 14.5t-2 14.5q-2 2 -2 10q-1 3 -2 6.5t-1.5 5t-0.5 2.5v11l-9 34v4zM137 -70q-1 1 -0.5 6.5t0.5 6.5q3 6 8 6q7 0 7 -6v-2q49 -6 153 -2h23q7 3 23 2.5t18 3.5q6 7 9 17.5t5 25.5t4 22l4 17q3 29 12 55 l17 72q3 8 5 25t5 24q9 18 31 18q6 0 147 6q13 0 13 -10q3 -10 -9 -10q-153 -6 -163 -6q-7 -30 -19.5 -90t-19.5 -88l-4 -19q-1 -5 -3.5 -20t-4.5 -22.5t-7.5 -17t-13.5 -14.5q-7 -6 -20 -8t-25.5 -1.5t-26.5 -0.5h-22q-94 -4 -133 2q-13 3 -13 8zM737 1769q2 0 6 -4 q11 -37 11 -53q0 -75 -54 -135l-16 -14l-16 -13l-19 -12l-20 -8q-21 -9 -43 -12q-3 -1 -10.5 -1t-10.5 -1q-43 -7 -94 14q-2 0 -2 2v2q4 4 6 4q52 -10 84 -8q3 0 7 1t7 1q31 3 54 12q12 4 20 10l12 7l27 22l10 12l6 7q6 6 9 14l6 8q16 29 16 57q4 16 4 19q-4 46 -4 63 q-6 6 4 6zM502 578l8 32q3 12 7 34.5t7 33.5q0 4 3 4t3 -4q0 -1 1 -3t1 -3q3 -21 0 -41l-12 -53q-3 -9 -12 -9t-6 9z" />
<glyph unicode="&#xc6;" horiz-adv-x="1554" d="M987 1098q0 -71 4 -203q0 -10 -12 -10q-10 0 -10 12q0 45 -4 139q0 5 -0.5 21.5t-0.5 26.5t2 21.5t7 16.5q7 5 55 11q100 6 189 0q11 -1 184 -7h20h25t19.5 7.5t4.5 21.5q0 14 3 23q11 104 -5 159q0 2 -2 2l-2 2v7q0 7 9 10q1 0 2 1t2 1q10 0 10 -8q3 -6 4 -15t1 -21 t1 -18q6 -38 2 -102q-2 -6 -2 -22q0 -4 -0.5 -13.5t-1.5 -14.5t-2 -12.5t-4 -12.5t-8 -9q-6 -5 -15.5 -6.5t-16 -1.5t-20 2t-18.5 2h-21l-161 4q-150 11 -230 -4q-8 -3 -8 -10zM1473 -49q-1 22 5 59.5t7 52.5q2 4 2 17v20q0 24 -4 60q0 2 -2 2q-4 0 -4 4v4q0 10 8 10h4 q14 0 14 -12q7 -37 4 -84q0 -12 -2 -16q-4 -12 -5 -52.5t-12.5 -63t-43.5 -22.5h-17l-53 7h-143q-23 0 -68 -3.5t-69 -3.5q-48 0 -142 4q-11 0 -66.5 -3t-66.5 1h-16h-37q-2 0 -7.5 -1.5t-9 -2.5t-7.5 -0.5t-7 2.5q-7 0 -10 15v6q0 12 10 12h2q11 0 11 -10q0 -4 4 -4 q36 5 171 2t177 -2l229 6h21q12 0 31 -1t30 -1h16q14 -2 46 -2zM989 508q0 -63 4 -195q0 -10 -12 -10q-10 0 -10 10q0 37 -2 103t-2 98q0 4 2 11.5t2 11.5q0 11 16 14q31 4 152 4q33 -2 104 2h21q25 -2 47.5 -2.5t36 14t10.5 43.5q2 4 2 19q3 61 -4 112q0 2 -2 2l-2 3v18 q0 2 4 2q2 -2 8 -2h6q4 0 4 -6q12 -71 6 -148q0 -3 -1 -10t-1 -10q-5 -39 -16 -45q-14 -10 -31 -11.5t-40 1.5t-36 2h-18q-39 0 -133 -4q-8 0 -23.5 0.5t-28.5 0.5t-24 -1l-18 -5q-21 -9 -21 -22zM145 -49v2q3 8 13 8h6q6 0 6 -8l2 -2h164q4 0 16 -1t17 0t12.5 3t10.5 9 t3 18l6 18q32 155 48 201q6 19 26 22q30 4 131 0q8 0 8 -8t-8 -8q-100 0 -127 -4q-10 0 -10 -8q-11 -30 -31 -125l-14 -60l-4 -18q-4 -35 -19 -45q-10 -10 -21.5 -13t-29 -1t-24.5 1q-4 -2 -19 -2q-117 0 -151 4q-6 0 -9 7q0 3 -1 5t-1 5zM600 963q0 1 2 1t2 -1v-11 q0 -7 1 -19.5t1 -19.5q0 -8 -4 -36q-9 -35 -20 -99q-4 -24 -25 -166q-1 -3 -1 -9.5t-1 -11.5t-4 -9q0 -11 -14 -11q-5 0 -7.5 3.5t-1.5 7.5l9 41q2 14 12 79.5t14.5 90.5t14 72.5t20.5 88.5q2 2 2 9z" />
<glyph unicode="&#xc7;" horiz-adv-x="1034" d="M449 438v-16q0 -15 -1.5 -40t-1.5 -45t3 -38l-7 8q-15 18 -12 37v29q2 72 2 196q0 208 2 312q0 16 -1 49t-1 53q0 47 29 111q19 42 96 61q3 1 18 -4q4 -4 7 -4q4 0 6 -2q4 -4 -2 -4q-99 -13 -121 -82l-6 -33q-1 -5 -3.5 -17t-2.5 -18q0 -7 -2 -21t-2 -22q3 -68 3 -156.5 t-1.5 -196t-1.5 -157.5zM766 -37l-37 -16q-13 -3 -18 2q-4 2 -3.5 5t5.5 5q8 3 23.5 11.5t23.5 11.5q9 3 45 24q32 14 45 27q3 3 6 9t6 9q3 4 11.5 10.5t11.5 10.5q7 12 33 71l12 29q10 25 14 53.5t4.5 48.5t-0.5 57t0 60q0 4 -4 4q-8 0 -8 8v3q0 10 10 10q2 -2 6 -2 q17 -10 17 -23q1 -9 -0.5 -26.5t-1.5 -22.5q-1 -18 0 -52t0 -50q-7 -52 -43 -131l-11 -23q-8 -19 -22 -33l-4 -4q-17 -22 -19 -24q-43 -37 -86 -56q-1 -1 -16 -6zM528 -465q-34 0 -53 8q-8 3 -8 13v4q0 6 4 6q3 0 6 -1t4 -1h4l2 -2v-2q104 -17 179 8q32 11 48.5 18 t37.5 22.5t28 35.5q3 7 8 47q0 7 1 21.5t0.5 25t-3.5 20.5q0 1 -3 17t-3 24q0 13 -2 17q0 2 -2 4q1 3 4 2q15 -18 27 -66q5 -38 -1 -77.5t-22 -61.5q-10 -12 -39 -33q-31 -24 -90 -41q-45 -15 -77 -12h-9q-9 4 -41 4zM965 913q5 33 -7 111q-3 37 -10 63q-3 15 -7 47t-7 48 q-1 4 0.5 4t3.5 -2q45 -91 45 -238q0 -43 -6 -49q-2 -2 -14 -6l-11 -6q-6 -2 -57 -6q-85 -9 -162 14q-10 0 -10 10q0 6 6 6q12 0 14 -2q88 -20 211 -4q8 4 11 10zM451 295l-2 2q2 0 2 -2z" />
<glyph unicode="&#xc8;" horiz-adv-x="997" d="M948 -51q13 102 13 135q0 29 -7 76q-4 0 -4 4q0 2 -2 4q0 9 6 12q2 2 4 2q10 3 13 -12q10 -58 10 -98q0 -41 -8 -68q0 -3 1 -7t1 -7q0 -19 -6 -42.5t-13 -23.5t-10 8l-254 5q-50 1 -161.5 -8t-168.5 -9q-7 0 -34.5 -0.5t-45 -0.5t-39 2t-32.5 5q-5 5 -10 15q0 10 8 10 q10 0 10 -10v-2q33 2 98 2h76q44 0 132 7t132 7q3 0 291 -6zM457 1081q0 -33 -6.5 -97t-6.5 -97q0 -8 -10 -8q-8 0 -8 8v4q0 41 5.5 133t10.5 92q2 0 4 -2l1 6q1 6 4 6q23 -2 67 -2q24 0 75 1t79 1q22 0 66.5 -1t64.5 -1h43q20 0 53 -2t49 -2q15 88 15 131q0 39 -11 99 q-2 0 -6 4v6q0 9 8 6q27 -19 27 -127q0 -137 -39 -137q-13 0 -38 1t-36 1h-69q-18 0 -51.5 2t-49.5 2q-14 0 -40 -1t-40 -1q-28 0 -82 1t-81 1v-18q2 -2 2 -9zM461 524q-8 -84 -8 -221q0 -10 -11 -10q-10 0 -10 10v8q0 106 8 197q3 21 23 24q49 9 90 9q5 0 14.5 -1t14.5 -1 q1 0 3 2t3 2q25 0 61 -4q17 0 50 2t49 2t40.5 -1t36.5 -1q8 0 12.5 5.5t6.5 17t2.5 18.5t0 22.5t-0.5 16.5q0 66 -8 129q-4 0 -4 4v4q0 14 8 6q24 -19 24 -133q0 -41 -6 -84q-3 -23 -24 -23h-23q-39 2 -106 2q-8 0 -23 -2t-22 -2q-12 0 -33 2t-33 2q-21 0 -66 -1t-69 -1z M563 1524q-1 3 -2.5 4.5t-4.5 3.5t-5 4q-7 10 4 10q10 0 18 -8l2 -4q4 -4 11 -4q35 3 76 0q3 0 8 1t8 1q4 1 10 1t13 -0.5t10 -0.5q7 0 4 10l-6 14q-3 12 4 23v2q0 2 2 3q1 -2 2 -3l14 -35q6 -12 8 -22v-2q0 -4 -2 -4q-17 -3 -20 -2h-2q-3 0 -5 1t-5 1q-16 -3 -37 -3.5 t-50.5 0.5t-39.5 1q-3 0 -3 -3q-2 1 -4 3q-5 3 -8 8z" />
<glyph unicode="&#xc9;" horiz-adv-x="997" d="M948 -51q13 102 13 135q0 29 -7 76q-4 0 -4 4q0 2 -2 4q0 9 6 12q2 2 4 2q10 3 13 -12q10 -58 10 -98q0 -41 -8 -68q0 -3 1 -7t1 -7q0 -19 -6 -42.5t-13 -23.5t-10 8l-254 5q-50 1 -161.5 -8t-168.5 -9q-7 0 -34.5 -0.5t-45 -0.5t-39 2t-32.5 5q-5 5 -10 15q0 10 8 10 q10 0 10 -10v-2q33 2 98 2h76q44 0 132 7t132 7q3 0 291 -6zM457 1081q0 -33 -6.5 -97t-6.5 -97q0 -8 -10 -8q-8 0 -8 8v4q0 41 5.5 133t10.5 92q2 0 4 -2l1 6q1 6 4 6q23 -2 67 -2q24 0 75 1t79 1q22 0 66.5 -1t64.5 -1h43q20 0 53 -2t49 -2q15 88 15 131q0 39 -11 99 q-2 0 -6 4v6q0 9 8 6q27 -19 27 -127q0 -137 -39 -137q-13 0 -38 1t-36 1h-69q-18 0 -51.5 2t-49.5 2q-14 0 -40 -1t-40 -1q-28 0 -82 1t-81 1v-18q2 -2 2 -9zM461 524q-8 -84 -8 -221q0 -10 -11 -10q-10 0 -10 10v8q0 106 8 197q3 21 23 24q49 9 90 9q5 0 14.5 -1t14.5 -1 q1 0 3 2t3 2q25 0 61 -4q17 0 50 2t49 2t40.5 -1t36.5 -1q8 0 12.5 5.5t6.5 17t2.5 18.5t0 22.5t-0.5 16.5q0 66 -8 129q-4 0 -4 4v4q0 14 8 6q24 -19 24 -133q0 -41 -6 -84q-3 -23 -24 -23h-23q-39 2 -106 2q-8 0 -23 -2t-22 -2q-12 0 -33 2t-33 2q-21 0 -66 -1t-69 -1z M567 1536q7 10 35 53.5t39.5 61.5t30.5 51.5t33 62.5q3 9 -5 9q-4 2 -18 2q-4 0 -5 3t1 5q10 10 16 8l17 -4h8q11 4 14 -4q2 -6 -12 -29q-3 -5 -8 -17.5t-8 -17.5q-12 -18 -48 -80t-61 -90q-6 -6 -10 -14q-2 -2 -4 -8q-9 -18 -31 -15q-19 1 -41.5 1t-50 -0.5t-41.5 -0.5 q-10 0 -17 13q0 2 -4 6t0 8t6 4h9q9 0 6 -10q-4 -4 2 -4q65 3 135 0q9 0 12 6z" />
<glyph unicode="&#xca;" horiz-adv-x="997" d="M948 -51q13 102 13 135q0 29 -7 76q-4 0 -4 4q0 2 -2 4q0 9 6 12q2 2 4 2q10 3 13 -12q10 -58 10 -98q0 -41 -8 -68q0 -3 1 -7t1 -7q0 -19 -6 -42.5t-13 -23.5t-10 8l-254 5q-50 1 -161.5 -8t-168.5 -9q-7 0 -34.5 -0.5t-45 -0.5t-39 2t-32.5 5q-5 5 -10 15q0 10 8 10 q10 0 10 -10v-2q33 2 98 2h76q44 0 132 7t132 7q3 0 291 -6zM457 1081q0 -33 -6.5 -97t-6.5 -97q0 -8 -10 -8q-8 0 -8 8v4q0 41 5.5 133t10.5 92q2 0 4 -2l1 6q1 6 4 6q23 -2 67 -2q24 0 75 1t79 1q22 0 66.5 -1t64.5 -1h43q20 0 53 -2t49 -2q15 88 15 131q0 39 -11 99 q-2 0 -6 4v6q0 9 8 6q27 -19 27 -127q0 -137 -39 -137q-13 0 -38 1t-36 1h-69q-18 0 -51.5 2t-49.5 2q-14 0 -40 -1t-40 -1q-28 0 -82 1t-81 1v-18q2 -2 2 -9zM461 524q-8 -84 -8 -221q0 -10 -11 -10q-10 0 -10 10v8q0 106 8 197q3 21 23 24q49 9 90 9q5 0 14.5 -1t14.5 -1 q1 0 3 2t3 2q25 0 61 -4q17 0 50 2t49 2t40.5 -1t36.5 -1q8 0 12.5 5.5t6.5 17t2.5 18.5t0 22.5t-0.5 16.5q0 66 -8 129q-4 0 -4 4v4q0 14 8 6q24 -19 24 -133q0 -41 -6 -84q-3 -23 -24 -23h-23q-39 2 -106 2q-8 0 -23 -2t-22 -2q-12 0 -33 2t-33 2q-21 0 -66 -1t-69 -1z M635 1530l-6 8q-3 8 4 8q8 0 16 -8q2 -2 8 -2q21 -1 71 -1t75 -1q10 0 4 6l-14 23q-3 3 0 14q6 6 12 0l4 -6q1 -2 6.5 -9t8 -11t5 -10t1 -11t-6.5 -10q-2 -2 -4 -2q0 2 -2 2v-2h-4q-6 -3 -12 -3t-12 1.5t-9 1.5q-24 3 -57.5 0t-54.5 0q-24 4 -33 12zM299 1538v6q3 6 12 6h2 q3 0 3 -4t3 -4h3q7 0 31.5 -1.5t37 -2t31.5 0t33 3.5q6 2 12 8q12 18 35 41q3 3 12 0q3 -6 0 -12q-7 -6 -14 -14t-14.5 -18t-12.5 -15q-5 -7 -29 -12q-19 -1 -41 0t-48 3t-38 3q-15 0 -18 12z" />
<glyph unicode="&#xcb;" horiz-adv-x="997" d="M948 -51q13 102 13 135q0 29 -7 76q-4 0 -4 4q0 2 -2 4q0 9 6 12q2 2 4 2q10 3 13 -12q10 -58 10 -98q0 -41 -8 -68q0 -3 1 -7t1 -7q0 -19 -6 -42.5t-13 -23.5t-10 8l-254 5q-50 1 -161.5 -8t-168.5 -9q-7 0 -34.5 -0.5t-45 -0.5t-39 2t-32.5 5q-5 5 -10 15q0 10 8 10 q10 0 10 -10v-2q33 2 98 2h76q44 0 132 7t132 7q3 0 291 -6zM457 1081q0 -33 -6.5 -97t-6.5 -97q0 -8 -10 -8q-8 0 -8 8v4q0 41 5.5 133t10.5 92q2 0 4 -2l1 6q1 6 4 6q23 -2 67 -2q24 0 75 1t79 1q22 0 66.5 -1t64.5 -1h43q20 0 53 -2t49 -2q15 88 15 131q0 39 -11 99 q-2 0 -6 4v6q0 9 8 6q27 -19 27 -127q0 -137 -39 -137q-13 0 -38 1t-36 1h-69q-18 0 -51.5 2t-49.5 2q-14 0 -40 -1t-40 -1q-28 0 -82 1t-81 1v-18q2 -2 2 -9zM461 524q-8 -84 -8 -221q0 -10 -11 -10q-10 0 -10 10v8q0 106 8 197q3 21 23 24q49 9 90 9q5 0 14.5 -1t14.5 -1 q1 0 3 2t3 2q25 0 61 -4q17 0 50 2t49 2t40.5 -1t36.5 -1q8 0 12.5 5.5t6.5 17t2.5 18.5t0 22.5t-0.5 16.5q0 66 -8 129q-4 0 -4 4v4q0 14 8 6q24 -19 24 -133q0 -41 -6 -84q-3 -23 -24 -23h-23q-39 2 -106 2q-8 0 -23 -2t-22 -2q-12 0 -33 2t-33 2q-21 0 -66 -1t-69 -1z M844 1522q-87 -8 -197 2q-12 2 -16 14v4q-3 8 6 8h6q4 0 4 -4q2 -2 4 -2q151 -5 176 -4q9 0 9 8q1 18 3.5 67t2 63.5t-3.5 58.5l-2 2q-7 0 -7 8v2q0 11 9 8q4 0 6 -2q11 -4 14 -18q6 -66 -6 -207q0 -8 -8 -8zM295 1528h-6q-8 3 -8 10q0 8 8 8h6q2 0 6 -4q0 -2 2 -2 q83 -13 172 -4q6 3 6 10l1 2q1 2 1 6q13 119 2 183q0 2 -2 2q-4 0 -4 4v4q0 6 2 7.5t6 0.5h2q13 0 13 -10q3 -4 4 -8t1 -9t1 -8v-2q0 -27 2 -41q0 -13 -2 -35.5t-2 -33.5q-1 -8 0.5 -32t-2.5 -28q-2 -4 2 -16q-2 -2 -4 -8q-6 -8 -41 -8q-98 -4 -154 6z" />
<glyph unicode="&#xcc;" horiz-adv-x="524" d="M215 -66q-3 9 6 9h2q8 0 8 -9q14 -1 36.5 -3t40.5 -3t34 0q8 0 38 3t46 3h14l13 7q3 89 -4.5 267t-4.5 273v119q0 147 -2 231q0 20 0.5 56t0.5 65t-1 54q-3 62 -1 178.5t-1 165.5q-2 0 -4 2q-8 0 -8 8q0 5 2 7t6 1q4 0 6 -2q12 -3 15 -18q3 -40 3.5 -81t-0.5 -100t-1 -86 q2 -72 2 -225q0 -37 2 -112.5t2 -118.5v-2q-1 -10 -1 -23.5t0.5 -27t0.5 -17.5q0 -21 -2.5 -86t-1.5 -132.5t8 -148.5q6 -120 0 -239q0 -26 -18 -29q-8 -4 -26 -4h-22q-67 -10 -129 -2q-8 1 -20 0.5t-19.5 0.5t-13.5 5q-6 6 -6 14zM246 1524q-1 3 -6 6.5t-7 5.5q-7 10 5 10 q10 0 18 -8l2 -4q4 -4 10 -4q35 3 76 0q3 0 8 1t8 1h33q7 0 4 10l-6 14q-3 12 4 23v2q0 2 2 3q1 -2 2 -3l15 -35q6 -12 8 -22v-2q0 -4 -2 -4q-18 -4 -21 -2h-2q-3 0 -5 1t-5 1q-16 -3 -37 -3.5t-50.5 0.5t-39.5 1q-2 0 -2 -3q-2 1 -4 3q-5 3 -8 8z" />
<glyph unicode="&#xcd;" horiz-adv-x="524" d="M215 -66q-3 9 6 9h2q8 0 8 -9q14 -1 36.5 -3t40.5 -3t34 0q8 0 38 3t46 3h14l13 7q3 89 -4.5 267t-4.5 273v119q0 147 -2 231q0 20 0.5 56t0.5 65t-1 54q-3 62 -1 178.5t-1 165.5q-2 0 -4 2q-8 0 -8 8q0 5 2 7t6 1q4 0 6 -2q12 -3 15 -18q3 -40 3.5 -81t-0.5 -100t-1 -86 q2 -72 2 -225q0 -37 2 -112.5t2 -118.5v-2q-1 -10 -1 -23.5t0.5 -27t0.5 -17.5q0 -21 -2.5 -86t-1.5 -132.5t8 -148.5q6 -120 0 -239q0 -26 -18 -29q-8 -4 -26 -4h-22q-67 -10 -129 -2q-8 1 -20 0.5t-19.5 0.5t-13.5 5q-6 6 -6 14zM412 1536q6 10 28 43.5t31.5 48t25.5 41.5 t28.5 49.5t23.5 46.5q3 9 -4 9q-4 2 -19 2q-4 0 -5 3t1 5q10 10 17 8l16 -4h8q12 4 15 -4q1 -5 -13 -29q-3 -5 -8 -17.5t-8 -17.5q-12 -18 -48 -80t-61 -90q-6 -6 -10 -14q-2 -2 -4 -8q-9 -18 -31 -15h-133q-10 0 -16 13q0 2 -4 6t0 8t6 4h8q9 0 6 -10q-4 -4 2 -4 q65 3 135 0q10 0 13 6z" />
<glyph unicode="&#xce;" horiz-adv-x="524" d="M215 -66q-3 9 6 9h2q8 0 8 -9q14 -1 36.5 -3t40.5 -3t34 0q8 0 38 3t46 3h14l13 7q3 89 -4.5 267t-4.5 273v119q0 147 -2 231q0 20 0.5 56t0.5 65t-1 54q-3 62 -1 178.5t-1 165.5q-2 0 -4 2q-8 0 -8 8q0 5 2 7t6 1q4 0 6 -2q12 -3 15 -18q3 -40 3.5 -81t-0.5 -100t-1 -86 q2 -72 2 -225q0 -37 2 -112.5t2 -118.5v-2q-1 -10 -1 -23.5t0.5 -27t0.5 -17.5q0 -21 -2.5 -86t-1.5 -132.5t8 -148.5q6 -120 0 -239q0 -26 -18 -29q-8 -4 -26 -4h-22q-67 -10 -129 -2q-8 1 -20 0.5t-19.5 0.5t-13.5 5q-6 6 -6 14zM399 1530l-6 8q-3 8 4 8q9 0 17 -8 q2 -2 8 -2q22 -1 71 -1t74 -1q10 0 4 6l-14 23q-3 3 0 14q6 6 12 0l4 -6q2 -2 7 -9t8 -11t5.5 -10t1 -11t-6.5 -10q-2 -2 -4 -2q0 2 -2 2v-2h-4q-6 -3 -12 -3t-12 1.5t-9 1.5q-24 3 -58 0t-55 0q-24 4 -33 12zM63 1538v6q3 6 13 6h2q3 0 3 -4t3 -4h2q7 0 31.5 -1.5t37 -2 t31.5 0t33 3.5q6 2 12 8q12 18 35 41q3 3 13 0q3 -6 0 -12q-7 -6 -14 -14t-14.5 -18t-12.5 -15q-5 -7 -29 -12q-19 -1 -41 0t-48 3t-38 3q-16 0 -19 12z" />
<glyph unicode="&#xcf;" horiz-adv-x="524" d="M215 -66q-3 9 6 9h2q8 0 8 -9q14 -1 36.5 -3t40.5 -3t34 0q8 0 38 3t46 3h14l13 7q3 89 -4.5 267t-4.5 273v119q0 147 -2 231q0 20 0.5 56t0.5 65t-1 54q-3 62 -1 178.5t-1 165.5q-2 0 -4 2q-8 0 -8 8q0 5 2 7t6 1q4 0 6 -2q12 -3 15 -18q3 -40 3.5 -81t-0.5 -100t-1 -86 q2 -72 2 -225q0 -37 2 -112.5t2 -118.5v-2q-1 -10 -1 -23.5t0.5 -27t0.5 -17.5q0 -21 -2.5 -86t-1.5 -132.5t8 -148.5q6 -120 0 -239q0 -26 -18 -29q-8 -4 -26 -4h-22q-67 -10 -129 -2q-8 1 -20 0.5t-19.5 0.5t-13.5 5q-6 6 -6 14zM608 1522q-87 -8 -196 2q-13 3 -17 14v4 q-3 8 6 8h7q4 0 4 -4q2 -2 4 -2q151 -5 176 -4q8 0 8 8q1 18 3.5 67t2 63.5t-3.5 58.5l-2 2q-6 0 -6 8v2q0 6 1.5 7.5t6.5 0.5q4 0 6 -2q12 -4 15 -18q5 -60 -7 -207q0 -8 -8 -8zM59 1528h-6q-8 3 -8 10q0 8 8 8h6q3 0 7 -4q0 -2 2 -2q83 -13 172 -4q6 3 6 10l1 2q1 2 1 6 q13 119 2 183q0 2 -2 2q-4 0 -4 4v4q0 6 2 7.5t6 0.5h2q12 0 12 -10q3 -4 4 -8t1 -9t1 -8v-2q0 -27 2 -41q0 -13 -2 -35.5t-2 -33.5q-1 -8 0.5 -32t-2.5 -28q-2 -4 2 -16q-2 -2 -4 -8q-6 -8 -41 -8q-97 -4 -153 6z" />
<glyph unicode="&#xd0;" horiz-adv-x="1026" d="M961 311q4 29 5 57.5t0 78.5t-1 63q0 19 -2.5 68t-1.5 75q2 50 2.5 66.5t-2.5 66.5t-3 64q0 12 1.5 33t1.5 32q0 69 -9 127q-1 5 -1 13t-1 15t-4 13l-6 41l-2 29q0 5 3 5q2 -1 3 -3q3 -5 7 -15.5t7 -15.5q11 -33 15 -88q4 -51 4.5 -146.5t3.5 -135.5q3 -31 1 -93.5 t1 -93.5q1 -16 1 -47.5t1 -48.5v-98q-3 -31 -4.5 -55t-1 -35.5t-0.5 -16.5q0 -37 -29.5 -110t-60.5 -111q-9 -10 -51 -43q-4 -3 -16 -13.5t-21 -16t-19 -9.5q-73 -39 -145 -39q-54 -4 -82 -4h-76q-100 -5 -125 -4q-12 0 -33 1t-32 1q-44 0 -53 4q-3 0 -8 2.5l-7 3.5 q-10 3 -10 11q0 10 8 10h8q4 0 4 -4q0 -2 2 -2q63 -8 244 -4q21 1 60 1t59 1q71 4 104 10l39 14q28 6 37 15q32 23 43 34q40 28 55 47l19 25q5 5 8 14q2 0 2 2l10 13q26 57 31 84q0 8 4.5 20.5t5.5 18.5l4 57q0 3 1.5 8t1.5 8zM592 729q-4 0 -4 8v6q0 11 10 11q11 0 14 -9 v-4q0 -2 3 -9.5t3 -12.5v-25q0 -18 -1 -52t-1 -52v-6q0 -3 -1 -6.5t-1 -6.5t-6 -6q-23 -5 -63 -3.5t-68 -0.5q-8 -3 -8 -10q6 -12 2 -91t-4 -91q0 -5 -1.5 -19t-0.5 -22q0 -5 4 -25v-8q0 -3 -1 -5t-1 -5v-2q0 -11 -14 -11q-16 0 -9 11v20q2 2 2 12q-3 7 -3 16t1.5 21.5 t1.5 20.5q0 1 4 63.5t3 91.5l-7 29q-3 19 23 23q9 0 37 4q9 0 37.5 -1.5t42.5 -0.5q7 0 10 8q6 30 2 133q0 6 -6 6zM465 1149h90h4q3 0 19 -4q8 -4 14 -10q3 -9 -4 -9q-20 1 -55.5 0t-51.5 0q-6 1 -10.5 -3t-5 -7.5t-2.5 -11.5q-5 -169 0 -225q0 -11 -10 -11q-11 4 -11 13 q-1 51 0.5 138.5t1.5 108.5q0 13 7 15q6 6 14 6z" />
<glyph unicode="&#xd1;" horiz-adv-x="1095" d="M795 -45q74 -16 231 -4q-3 25 -3.5 51t0.5 61t1 48q-4 202 -8 254q0 15 4 47q0 27 -2.5 89t-1.5 97q0 311 6 475q4 34 1.5 136.5t-1.5 136.5h-4q-8 3 -8 10q-3 9 6 6l6 -2q16 0 16 -19q2 -41 2 -120q0 -23 1 -70t1 -70l-6 -141q3 -79 -1 -235.5t-1 -225.5q1 -16 1 -33.5 t-0.5 -40.5t-0.5 -36q5 -182 8 -217q1 -28 -1.5 -104t1.5 -99q0 -19 -26 -19q-11 0 -53.5 -2.5t-52 -2t-50.5 2.5l-63 6q-16 0 -19 13l-2 6q0 6 6 6h6q7 0 7 -4zM201 -53q0 10 8 10q6 0 8 -2q2 0 2 -2q124 -28 217 2q-4 2 -2 21l2 20v27q1 7 1 23.5t1 23.5q0 13 3.5 45 t2.5 49q-1 6 -6 162q0 153 -2 227q0 2 3 2.5t5 -0.5q9 -15 9 -39q0 -67 4 -215q0 -49 2 -74q0 -14 2 -38.5t2 -36.5q0 -9 -2 -27.5t-2 -26.5q-6 -49 -6 -147q0 -8 -9 -8q-3 -1 -7 -5t-7 -4q-77 -26 -215 0q-11 4 -14 13zM883 1624l4 41q4 49 2 66q0 6 -6 6h-4q-9 0 -9 8 q0 10 9 10h2q11 0 18 -10v-2q7 -17 4 -27q-2 -16 -2 -43.5t-3 -47.5t-13 -36q-7 -17 -41 -41q-19 -14 -43 -20q-20 -7 -29 -8q-51 -9 -104 8q-17 8 -19 10q-8 8 2 8q3 0 31 -4q48 -14 92 -4q48 10 82 41q21 21 27 45zM338 1530q0 4 -2 6q0 8 6 8q8 0 8 -8v-2q0 -4 4 -4 q62 4 90 4q8 0 11 8q13 39 41 60q10 7 26 -3q9 -3 -2 -10q-5 -1 -11.5 -4t-8.5 -4q-5 -3 -8.5 -6.5t-7 -9.5t-5.5 -9t-5.5 -10.5t-4.5 -9.5q-9 -18 -31 -18q-4 0 -27 -2.5t-27.5 -2t-29.5 2.5q-13 0 -16 14z" />
<glyph unicode="&#xd2;" d="M915 274q9 117 0 244q0 50 -1.5 110.5t-0.5 82.5q2 33 -2 98q-1 23 -3 135t-11 168q-4 4 -4 8q-5 48 -8 56q1 3 4 2l14 -31q23 -51 23 -176l4 -213v-94q6 -123 6 -138q0 -10 0.5 -57.5t0.5 -76t-2 -78t-6 -83.5t-12 -71t-20 -60q-8 -13 -21 -30.5t-18 -24.5 q-6 -8 -13.5 -15.5t-10.5 -10t-16 -11.5t-15 -10l-4 -2q-13 -13 -33 -25l-23 -12q-47 -26 -96 -37q-7 -1 -34 -7.5t-43.5 -9t-34.5 -1.5q-11 2 -46.5 5t-54.5 9l-41 19l-8 4q-2 2 0 4h14q20 -3 39 -11l4 -1q4 -1 7 -1q93 -20 151 -4l29 6q55 18 100 37q15 7 45 29 q5 3 13.5 8.5t16 11t13.5 11.5q56 47 76 108q8 21 8 54q3 15 7 41t7 40zM463 1126q43 15 61 19q2 0 2 -2h4q0 -2 7 -2l6 -6v-2q-67 -13 -90 -31q-14 -10 -31 -39q-4 -9 -5.5 -18t-1.5 -15t0.5 -19t0.5 -20q0 -48 -4 -227t0 -225q1 -16 3.5 -59t2.5 -60.5t-2 -59.5 q-3 -27 0 -51q0 -14 -10 -4q0 1 -1.5 3t-1.5 3q-6 14 -6 41q0 45 -2 76q-7 113 -2 338q5 216 4 254q-1 6 4 39q6 26 21 35v2l8 10q8 12 33 20zM457 1524q-1 3 -6 6.5t-7 5.5q-7 10 5 10q10 0 18 -8l2 -4q4 -4 10 -4q35 3 76 0q3 0 8 1t8 1q4 1 10 1t13 -0.5t10 -0.5 q7 0 4 10l-6 14q-3 12 4 23v2q0 2 2 3q1 -2 2 -3l15 -35q6 -12 8 -22v-2q0 -4 -2 -4q-18 -4 -21 -2h-2q-3 0 -5 1t-5 1q-16 -3 -37 -3.5t-50.5 0.5t-39.5 1q-2 0 -2 -3q-2 1 -4 3q-5 3 -8 8z" />
<glyph unicode="&#xd3;" d="M915 274q9 117 0 244q0 50 -1.5 110.5t-0.5 82.5q2 33 -2 98q-1 23 -3 135t-11 168q-4 4 -4 8q-5 48 -8 56q1 3 4 2l14 -31q23 -51 23 -176l4 -213v-94q6 -123 6 -138q0 -10 0.5 -57.5t0.5 -76t-2 -78t-6 -83.5t-12 -71t-20 -60q-8 -13 -21 -30.5t-18 -24.5 q-6 -8 -13.5 -15.5t-10.5 -10t-16 -11.5t-15 -10l-4 -2q-13 -13 -33 -25l-23 -12q-47 -26 -96 -37q-7 -1 -34 -7.5t-43.5 -9t-34.5 -1.5q-11 2 -46.5 5t-54.5 9l-41 19l-8 4q-2 2 0 4h14q20 -3 39 -11l4 -1q4 -1 7 -1q93 -20 151 -4l29 6q55 18 100 37q15 7 45 29 q5 3 13.5 8.5t16 11t13.5 11.5q56 47 76 108q8 21 8 54q3 15 7 41t7 40zM463 1126q43 15 61 19q2 0 2 -2h4q0 -2 7 -2l6 -6v-2q-67 -13 -90 -31q-14 -10 -31 -39q-4 -9 -5.5 -18t-1.5 -15t0.5 -19t0.5 -20q0 -48 -4 -227t0 -225q1 -16 3.5 -59t2.5 -60.5t-2 -59.5 q-3 -27 0 -51q0 -14 -10 -4q0 1 -1.5 3t-1.5 3q-6 14 -6 41q0 45 -2 76q-7 113 -2 338q5 216 4 254q-1 6 4 39q6 26 21 35v2l8 10q8 12 33 20zM625 1536q6 10 28 43.5t31.5 48t25.5 41.5t28.5 49.5t23.5 46.5q3 9 -4 9q-4 2 -19 2q-4 0 -5 3t1 5q10 10 17 8l16 -4h8 q12 4 15 -4q1 -5 -13 -29q-3 -5 -8 -17.5t-8 -17.5q-12 -18 -48 -80t-61 -90q-6 -6 -10 -14q-2 -2 -4 -8q-9 -18 -31 -15h-133q-9 0 -16 13q0 2 -4 6t0 8t6 4h8q9 0 6 -10q-4 -4 2 -4q65 3 135 0q10 0 13 6z" />
<glyph unicode="&#xd4;" d="M915 274q9 117 0 244q0 50 -1.5 110.5t-0.5 82.5q2 33 -2 98q-1 23 -3 135t-11 168q-4 4 -4 8q-5 48 -8 56q1 3 4 2l14 -31q23 -51 23 -176l4 -213v-94q6 -123 6 -138q0 -10 0.5 -57.5t0.5 -76t-2 -78t-6 -83.5t-12 -71t-20 -60q-8 -13 -21 -30.5t-18 -24.5 q-6 -8 -13.5 -15.5t-10.5 -10t-16 -11.5t-15 -10l-4 -2q-13 -13 -33 -25l-23 -12q-47 -26 -96 -37q-7 -1 -34 -7.5t-43.5 -9t-34.5 -1.5q-11 2 -46.5 5t-54.5 9l-41 19l-8 4q-2 2 0 4h14q20 -3 39 -11l4 -1q4 -1 7 -1q93 -20 151 -4l29 6q55 18 100 37q15 7 45 29 q5 3 13.5 8.5t16 11t13.5 11.5q56 47 76 108q8 21 8 54q3 15 7 41t7 40zM463 1126q43 15 61 19q2 0 2 -2h4q0 -2 7 -2l6 -6v-2q-67 -13 -90 -31q-14 -10 -31 -39q-4 -9 -5.5 -18t-1.5 -15t0.5 -19t0.5 -20q0 -48 -4 -227t0 -225q1 -16 3.5 -59t2.5 -60.5t-2 -59.5 q-3 -27 0 -51q0 -14 -10 -4q0 1 -1.5 3t-1.5 3q-6 14 -6 41q0 45 -2 76q-7 113 -2 338q5 216 4 254q-1 6 4 39q6 26 21 35v2l8 10q8 12 33 20zM610 1530l-6 8q-3 8 4 8q9 0 17 -8q2 -2 8 -2q22 -1 70.5 -1t74.5 -1q10 0 4 6l-14 23q-4 3 0 14q6 6 12 0l4 -6q2 -2 7 -9t8 -11 t5.5 -10t1 -11t-6.5 -10q-2 -2 -4 -2q0 2 -2 2v-2h-5q-6 -3 -11.5 -3t-11.5 1.5t-9 1.5q-24 3 -58 0t-55 0q-25 4 -33 12zM274 1538v6q3 6 13 6h2q3 0 3 -4t3 -4h2q7 0 31.5 -1.5t37 -2t31.5 0t33 3.5q6 2 12 8q12 18 35 41q3 3 12 0q3 -6 0 -12q-9 -8 -23 -26t-17 -21 q-5 -7 -29 -12q-19 -1 -41 0t-48 3t-38 3q-16 0 -19 12z" />
<glyph unicode="&#xd5;" d="M915 274q9 117 0 244q0 50 -1.5 110.5t-0.5 82.5q2 33 -2 98q-1 23 -3 135t-11 168q-4 4 -4 8q-5 48 -8 56q1 3 4 2l14 -31q23 -51 23 -176l4 -213v-94q6 -123 6 -138q0 -10 0.5 -57.5t0.5 -76t-2 -78t-6 -83.5t-12 -71t-20 -60q-8 -13 -21 -30.5t-18 -24.5 q-6 -8 -13.5 -15.5t-10.5 -10t-16 -11.5t-15 -10l-4 -2q-13 -13 -33 -25l-23 -12q-47 -26 -96 -37q-7 -1 -34 -7.5t-43.5 -9t-34.5 -1.5q-11 2 -46.5 5t-54.5 9l-41 19l-8 4q-2 2 0 4h14q20 -3 39 -11l4 -1q4 -1 7 -1q93 -20 151 -4l29 6q55 18 100 37q15 7 45 29 q5 3 13.5 8.5t16 11t13.5 11.5q56 47 76 108q8 21 8 54q3 15 7 41t7 40zM463 1126q43 15 61 19q2 0 2 -2h4q0 -2 7 -2l6 -6v-2q-67 -13 -90 -31q-14 -10 -31 -39q-4 -9 -5.5 -18t-1.5 -15t0.5 -19t0.5 -20q0 -48 -4 -227t0 -225q1 -16 3.5 -59t2.5 -60.5t-2 -59.5 q-3 -27 0 -51q0 -14 -10 -4q0 1 -1.5 3t-1.5 3q-6 14 -6 41q0 45 -2 76q-7 113 -2 338q5 216 4 254q-1 6 4 39q6 26 21 35v2l8 10q8 12 33 20zM807 1624l4 41q4 49 2 66q0 6 -6 6h-4q-8 0 -8 8q0 10 8 10h2q11 0 18 -10v-2q7 -17 4 -27q-2 -16 -2 -43.5t-3 -47.5t-13 -36 q-7 -17 -41 -41q-19 -14 -43 -20q-20 -7 -29 -8q-51 -9 -104 8q-17 8 -19 10q-8 8 2 8q3 0 31 -4q48 -14 92 -4q48 10 82 41q21 21 27 45zM262 1530q0 4 -2 6q0 8 6 8q8 0 8 -8v-2q0 -4 5 -4q62 4 90 4q7 0 10 8q13 39 41 60q10 7 26 -3q9 -3 -2 -10q-5 -1 -11.5 -4t-8.5 -4 q-5 -3 -8.5 -6.5t-7 -9.5t-5.5 -9t-5.5 -10.5t-4.5 -9.5q-9 -18 -31 -18q-5 0 -27 -2.5t-27 -2t-29 2.5q-14 0 -17 14z" />
<glyph unicode="&#xd6;" d="M915 274q9 117 0 244q0 50 -1.5 110.5t-0.5 82.5q2 33 -2 98q-1 23 -3 135t-11 168q-4 4 -4 8q-5 48 -8 56q1 3 4 2l14 -31q23 -51 23 -176l4 -213v-94q6 -123 6 -138q0 -10 0.5 -57.5t0.5 -76t-2 -78t-6 -83.5t-12 -71t-20 -60q-8 -13 -21 -30.5t-18 -24.5 q-6 -8 -13.5 -15.5t-10.5 -10t-16 -11.5t-15 -10l-4 -2q-13 -13 -33 -25l-23 -12q-47 -26 -96 -37q-7 -1 -34 -7.5t-43.5 -9t-34.5 -1.5q-11 2 -46.5 5t-54.5 9l-41 19l-8 4q-2 2 0 4h14q20 -3 39 -11l4 -1q4 -1 7 -1q93 -20 151 -4l29 6q55 18 100 37q15 7 45 29 q5 3 13.5 8.5t16 11t13.5 11.5q56 47 76 108q8 21 8 54q3 15 7 41t7 40zM463 1126q43 15 61 19q2 0 2 -2h4q0 -2 7 -2l6 -6v-2q-67 -13 -90 -31q-14 -10 -31 -39q-4 -9 -5.5 -18t-1.5 -15t0.5 -19t0.5 -20q0 -48 -4 -227t0 -225q1 -16 3.5 -59t2.5 -60.5t-2 -59.5 q-3 -27 0 -51q0 -14 -10 -4q0 1 -1.5 3t-1.5 3q-6 14 -6 41q0 45 -2 76q-7 113 -2 338q5 216 4 254q-1 6 4 39q6 26 21 35v2l8 10q8 12 33 20zM819 1522q-87 -8 -196 2q-13 3 -17 14v4q-3 8 6 8h6q5 0 5 -4q2 -2 4 -2q151 -5 176 -4q8 0 8 8q1 18 3.5 67t2 63.5t-3.5 58.5 l-2 2q-6 0 -6 8v2q0 6 1.5 7.5t6.5 0.5q4 0 6 -2q12 -4 15 -18q5 -60 -7 -207q0 -8 -8 -8zM270 1528h-6q-8 3 -8 10q0 8 8 8h6q2 0 6 -4q0 -2 3 -2q83 -13 172 -4q6 3 6 10l1 2q1 2 1 6q13 119 2 183q0 2 -2 2q-4 0 -4 4v4q0 6 2 7.5t6 0.5h2q12 0 12 -10q3 -4 4 -8t1 -9 t1 -8v-2q0 -27 2 -41q0 -13 -2 -35.5t-2 -33.5q-1 -8 0.5 -32t-2.5 -28q-2 -4 2 -16q-2 -2 -4 -8q-6 -8 -41 -8q-97 -4 -153 6z" />
<glyph unicode="&#xd7;" horiz-adv-x="827" d="M256 209l-12 14l-11 10q-3 7 0 13q6 6 13 2l6 -8q3 -1 4.5 -2.5t2 -3.5t1.5 -3q6 -6 12 0l9 11l14 14q17 16 67.5 61.5t77.5 73.5q6 7 13 0q6 -6 0 -12q-5 -5 -14.5 -16t-18.5 -19.5t-19 -15.5l-12 -11q-14 -19 -43.5 -42.5t-38.5 -32.5l-12 -13q-9 -14 -23 -20 q-6 -3 -16 0zM799 733l-11 -12q-34 -41 -124 -131q-4 -4 -15 0q-3 10 0 14q52 45 84 82q5 5 22 21t24 23.5t17.5 21.5t16.5 28q3 10 -2 15l-16 14q-7 7 -4 14q6 10 14 2l16 -16q14 -14 8 -35q-15 -26 -30 -41zM682 223l-14 15q-8 8 -2 14t16 2l6 -8l10 -8q6 -6 13 0l20 20 l39 39l12 14l17 17q8 10 -2 20l-9 8q0 1 -1 2t-1 2q-10 7 -2 15q3 10 13 0q28 -20 30 -33q3 -10 -2.5 -18t-17.5 -17t-16 -14l-17 -17l-16 -18q-1 -1 -2.5 -1.5t-3 -2t-2.5 -4.5q-6 -5 -16 -16t-17 -15q-15 -12 -35 4z" />
<glyph unicode="&#xd8;" horiz-adv-x="1144" d="M444 -43l-24 12q-4 4 2 4l12 -4q37 -12 96 -22l41 -6q87 -19 176 2.5t146 68.5q11 12 30.5 31.5t35 37t26.5 34.5l6 12q19 54 21 90q4 21 4 96q0 69 -8 121q-1 24 -1 52t0.5 60t0.5 48q1 22 1 62t1 57q0 17 18 32q51 34 86 52q7 4 10 12q20 90 -4 184q0 2 -2 2 q0 13 -2 15q0 4 4 4q1 0 3 1t3 1q0 -2 2 -2q9 -3 9 -10q2 -11 6 -35t5.5 -40.5t0.5 -37.5q-5 -69 -8 -82q-3 -23 -23 -31q-26 -11 -65 -35q-5 -5 -11.5 -9t-7.5 -7q-4 0 -4 -6q-3 -25 -3.5 -50.5t0.5 -63.5t1 -56v-51q0 -8 -1 -23.5t-1 -23.5q13 -151 8 -213l-6 -39 q-1 -14 -4.5 -26.5t-10 -31t-9.5 -26.5q-22 -40 -33 -51q-4 -6 -10 -12t-14 -13t-13 -12q-6 -5 -19 -18t-20.5 -20t-20 -15.5t-24.5 -14.5q-37 -21 -94.5 -34t-112.5 -13q-28 0 -54 4.5t-65 16t-49 14.5zM522 1034q-7 -45 -4 -92q3 -21 0 -41q-2 -14 -2 -45q0 -9 -10 -16 q-8 -3 -8 6v16q0 8 1.5 31.5t0.5 36.5q0 27 2 41q0 2 1 34.5t1 34.5q10 44 45.5 70t85.5 31q1 0 3 -1t3 -1q0 -2 4 -6q0 -5 -2 -5q-94 -6 -121 -77v-17zM518 473q42 21 135 70q9 9 9 -4q0 -6 -11 -17q-67 -37 -125 -63q-8 -3 -8 -13q0 -100 2 -139q0 -5 -4 -7.5t-8 1.5l-4 1 q-4 1 -4 5q0 21 1 67t1 70q-3 21 16 29z" />
<glyph unicode="&#xd9;" d="M492 -66h2q24 -2 32 -2t31 2t33 3h22q8 0 22 3.5t19 4.5q54 13 72 24q11 5 26 14.5t17 10.5q3 2 13 7t14 9q1 1 2.5 1.5t3 2t2.5 4.5q20 16 31 27q28 28 47 59q28 109 34 166q1 10 0 19t-3 18.5t-3 14.5v40q0 8 3 25.5t3 26.5q0 4 -2 16t-2 19q-1 16 4 98q1 19 -1 55.5 t-1 56.5v267q0 27 -1 84t-1 86q0 28 4 78.5t5 68.5q0 12 -1.5 34.5t-1.5 40.5t3 32q-5 0 -7 2q-8 0 -8 10q0 6 8 6l9 -2q7 -3 10 -10q0 -3 2 -7.5t2 -7.5q3 -55 -3 -154.5t-3 -152.5q2 -39 2 -114q0 -41 -1 -116t-1 -112q0 -19 1.5 -62t1 -77t-4.5 -66q5 -16 1 -80.5 t-3 -84.5q4 -36 4 -64q0 -20 -6 -41q-1 -1 -4 -10q-3 -10 -8 -39.5t-9 -44.5l-4 -6l-4 -13q-2 -4 -4 -12l-8 -10q-23 -38 -45 -55q-32 -32 -39 -37q-3 -3 -12 -6.5t-13 -6.5l-4 -4q-8 -6 -35 -18l-6 -2l-10 -6q-21 -13 -37 -15l-16 -2q-95 -22 -191 -10q-27 2 -74 14 q-5 3 -15 7.5t-15 7.5q-3 0 -3 2q0 3 5 4l51 -10q4 -2 27 -2q9 -1 24.5 -5t16.5 -4zM416 340q0 -7 -1 -18.5t-1 -18.5q0 -4 -3 -5t-5 1q-7 3 -7 18v68q0 7 -4 50.5t2 47.5q-3 4 -3.5 9.5t0.5 13.5t1 10q1 18 -0.5 78t2.5 80v18q5 133 0 176q-2 31 -2 86q0 33 0.5 92 t0.5 105.5t-1 85.5q-1 4 2 3q2 0 2 1q-6 3 -6 12q0 31 6 41q-2 0 -2 2v4q-1 8 0.5 24t1.5 26q-11 0 -14 8q0 8 8 8h2q16 0 19 -10q2 -17 2.5 -18t-2.5 -20l-2 -20q0 -5 1.5 -19t0.5 -22l-2 -2q4 -20 4 -62v-52q0 -14 0.5 -39t0.5 -46t-1 -40q0 -34 1 -115t1 -127l-6 -252 q-1 -38 4 -182zM457 1524q-1 3 -6 6.5t-7 5.5q-7 10 5 10q10 0 18 -8l2 -4q4 -4 10 -4q35 3 76 0q3 0 8 1t8 1q4 1 10 1t13 -0.5t10 -0.5q7 0 4 10l-6 14q-3 12 4 23v2q0 2 2 3q1 -2 2 -3l15 -35q6 -12 8 -22v-2q0 -4 -2 -4q-18 -4 -21 -2h-2q-3 0 -5 1t-5 1 q-16 -3 -37 -3.5t-50.5 0.5t-39.5 1q-2 0 -2 -3q-2 1 -4 3q-5 3 -8 8z" />
<glyph unicode="&#xda;" d="M492 -66h2q24 -2 32 -2t31 2t33 3h22q8 0 22 3.5t19 4.5q54 13 72 24q11 5 26 14.5t17 10.5q3 2 13 7t14 9q1 1 2.5 1.5t3 2t2.5 4.5q20 16 31 27q28 28 47 59q28 109 34 166q1 10 0 19t-3 18.5t-3 14.5v40q0 8 3 25.5t3 26.5q0 4 -2 16t-2 19q-1 16 4 98q1 19 -1 55.5 t-1 56.5v267q0 27 -1 84t-1 86q0 28 4 78.5t5 68.5q0 12 -1.5 34.5t-1.5 40.5t3 32q-5 0 -7 2q-8 0 -8 10q0 6 8 6l9 -2q7 -3 10 -10q0 -3 2 -7.5t2 -7.5q3 -55 -3 -154.5t-3 -152.5q2 -39 2 -114q0 -41 -1 -116t-1 -112q0 -19 1.5 -62t1 -77t-4.5 -66q5 -16 1 -80.5 t-3 -84.5q4 -36 4 -64q0 -20 -6 -41q-1 -1 -4 -10q-3 -10 -8 -39.5t-9 -44.5l-4 -6l-4 -13q-2 -4 -4 -12l-8 -10q-23 -38 -45 -55q-32 -32 -39 -37q-3 -3 -12 -6.5t-13 -6.5l-4 -4q-8 -6 -35 -18l-6 -2l-10 -6q-21 -13 -37 -15l-16 -2q-95 -22 -191 -10q-27 2 -74 14 q-5 3 -15 7.5t-15 7.5q-3 0 -3 2q0 3 5 4l51 -10q4 -2 27 -2q9 -1 24.5 -5t16.5 -4zM416 340q0 -7 -1 -18.5t-1 -18.5q0 -4 -3 -5t-5 1q-7 3 -7 18v68q0 7 -4 50.5t2 47.5q-3 4 -3.5 9.5t0.5 13.5t1 10q1 18 -0.5 78t2.5 80v18q5 133 0 176q-2 31 -2 86q0 33 0.5 92 t0.5 105.5t-1 85.5q-1 4 2 3q2 0 2 1q-6 3 -6 12q0 31 6 41q-2 0 -2 2v4q-1 8 0.5 24t1.5 26q-11 0 -14 8q0 8 8 8h2q16 0 19 -10q2 -17 2.5 -18t-2.5 -20l-2 -20q0 -5 1.5 -19t0.5 -22l-2 -2q4 -20 4 -62v-52q0 -14 0.5 -39t0.5 -46t-1 -40q0 -34 1 -115t1 -127l-6 -252 q-1 -38 4 -182zM631 1536q6 10 28 43.5t31.5 48t25.5 41.5t28.5 49.5t23.5 46.5q3 9 -4 9q-4 2 -19 2q-4 0 -5 3t1 5q10 10 17 8l16 -4h8q12 4 15 -4q1 -5 -13 -29q-3 -5 -8 -17.5t-8 -17.5q-12 -18 -48 -80t-61 -90q-6 -6 -10 -14q-2 -2 -4 -8q-9 -18 -31 -15h-133 q-9 0 -16 13q0 2 -4 6t0 8t6 4h8q9 0 6 -10q-4 -4 2 -4q65 3 135 0q10 0 13 6z" />
<glyph unicode="&#xdb;" d="M492 -66h2q24 -2 32 -2t31 2t33 3h22q8 0 22 3.5t19 4.5q54 13 72 24q11 5 26 14.5t17 10.5q3 2 13 7t14 9q1 1 2.5 1.5t3 2t2.5 4.5q20 16 31 27q28 28 47 59q28 109 34 166q1 10 0 19t-3 18.5t-3 14.5v40q0 8 3 25.5t3 26.5q0 4 -2 16t-2 19q-1 16 4 98q1 19 -1 55.5 t-1 56.5v267q0 27 -1 84t-1 86q0 28 4 78.5t5 68.5q0 12 -1.5 34.5t-1.5 40.5t3 32q-5 0 -7 2q-8 0 -8 10q0 6 8 6l9 -2q7 -3 10 -10q0 -3 2 -7.5t2 -7.5q3 -55 -3 -154.5t-3 -152.5q2 -39 2 -114q0 -41 -1 -116t-1 -112q0 -19 1.5 -62t1 -77t-4.5 -66q5 -16 1 -80.5 t-3 -84.5q4 -36 4 -64q0 -20 -6 -41q-1 -1 -4 -10q-3 -10 -8 -39.5t-9 -44.5l-4 -6l-4 -13q-2 -4 -4 -12l-8 -10q-23 -38 -45 -55q-32 -32 -39 -37q-3 -3 -12 -6.5t-13 -6.5l-4 -4q-8 -6 -35 -18l-6 -2l-10 -6q-21 -13 -37 -15l-16 -2q-95 -22 -191 -10q-27 2 -74 14 q-5 3 -15 7.5t-15 7.5q-3 0 -3 2q0 3 5 4l51 -10q4 -2 27 -2q9 -1 24.5 -5t16.5 -4zM416 340q0 -7 -1 -18.5t-1 -18.5q0 -4 -3 -5t-5 1q-7 3 -7 18v68q0 7 -4 50.5t2 47.5q-3 4 -3.5 9.5t0.5 13.5t1 10q1 18 -0.5 78t2.5 80v18q5 133 0 176q-2 31 -2 86q0 47 -1 146.5 t-1 152.5q0 18 3 54t3 43q-11 0 -14 8q0 8 8 8h2q16 0 19 -10q2 -17 2.5 -18t-2.5 -20l-2 -20q0 -5 1.5 -19t0.5 -22l-2 -2q4 -20 4 -62v-52q0 -14 0.5 -39t0.5 -46t-1 -40q0 -34 1 -115t1 -127l-6 -252q-1 -38 4 -182zM614 1530l-6 8q-3 8 4 8q9 0 17 -8q2 -2 8 -2 q22 -1 70.5 -1t74.5 -1q10 0 4 6l-14 23q-4 3 0 14q6 6 12 0l4 -6q2 -2 7 -9t8 -11t5.5 -10t1 -11t-6.5 -10q-2 -2 -4 -2q0 2 -2 2v-2h-4q-6 -3 -12 -3t-12 1.5t-9 1.5q-24 3 -58 0t-55 0q-25 4 -33 12zM279 1538v6q3 6 12 6h2q3 0 3 -4t3 -4h2q7 0 31.5 -1.5t37 -2t31.5 0 t33 3.5q6 2 12 8q12 18 35 41q3 3 13 0q3 -6 0 -12q-7 -6 -14 -14t-14.5 -18t-12.5 -15q-5 -7 -29 -12q-19 -1 -41 0t-48 3t-38 3q-15 0 -18 12z" />
<glyph unicode="&#xdc;" d="M492 -66h2q24 -2 32 -2t31 2t33 3h22q8 0 22 3.5t19 4.5q54 13 72 24q11 5 26 14.5t17 10.5q3 2 13 7t14 9q1 1 2.5 1.5t3 2t2.5 4.5q20 16 31 27q28 28 47 59q28 109 34 166q1 10 0 19t-3 18.5t-3 14.5v40q0 8 3 25.5t3 26.5q0 4 -2 16t-2 19q-1 16 4 98q1 19 -1 55.5 t-1 56.5v267q0 27 -1 84t-1 86q0 28 4 78.5t5 68.5q0 12 -1.5 34.5t-1.5 40.5t3 32q-5 0 -7 2q-8 0 -8 10q0 6 8 6l9 -2q7 -3 10 -10q0 -3 2 -7.5t2 -7.5q3 -55 -3 -154.5t-3 -152.5q2 -39 2 -114q0 -41 -1 -116t-1 -112q0 -19 1.5 -62t1 -77t-4.5 -66q5 -16 1 -80.5 t-3 -84.5q4 -36 4 -64q0 -20 -6 -41q-1 -1 -4 -10q-3 -10 -8 -39.5t-9 -44.5l-4 -6l-4 -13q-2 -4 -4 -12l-8 -10q-23 -38 -45 -55q-32 -32 -39 -37q-3 -3 -12 -6.5t-13 -6.5l-4 -4q-8 -6 -35 -18l-6 -2l-10 -6q-21 -13 -37 -15l-16 -2q-95 -22 -191 -10q-27 2 -74 14 q-5 3 -15 7.5t-15 7.5q-3 0 -3 2q0 3 5 4l51 -10q4 -2 27 -2q9 -1 24.5 -5t16.5 -4zM416 340q0 -7 -1 -18.5t-1 -18.5q0 -4 -3 -5t-5 1q-7 3 -7 18v68q0 7 -4 50.5t2 47.5q-3 4 -3.5 9.5t0.5 13.5t1 10q1 18 -0.5 78t2.5 80v18q5 133 0 176q-2 31 -2 86q0 33 0.5 92 t0.5 105.5t-1 85.5q-1 4 2 3q2 0 2 1q-6 3 -6 12q0 31 6 41q-2 0 -2 2v4q-1 8 0.5 24t1.5 26q-11 0 -14 8q0 8 8 8h2q16 0 19 -10q2 -17 2.5 -18t-2.5 -20l-2 -20q0 -5 1.5 -19t0.5 -22l-2 -2q4 -20 4 -62v-52q0 -14 0.5 -39t0.5 -46t-1 -40q0 -34 1 -115t1 -127l-6 -252 q-1 -38 4 -182zM823 1522q-87 -8 -196 2q-13 3 -17 14v4q-3 8 6 8h7q4 0 4 -4q2 -2 4 -2q151 -5 176 -4q8 0 8 8q1 18 3.5 67t2 63.5t-3.5 58.5l-2 2q-6 0 -6 8v2q0 6 1.5 7.5t6.5 0.5q4 0 6 -2q12 -4 15 -18q5 -60 -7 -207q0 -8 -8 -8zM274 1528h-6q-8 3 -8 10q0 8 8 8h6 q3 0 7 -4q0 -2 2 -2q83 -13 172 -4q6 3 6 10l1 2q1 2 1 6q13 119 2 183q0 2 -2 2q-4 0 -4 4v4q0 6 1.5 7.5t6.5 0.5h2q12 0 12 -10q3 -4 4 -8t1 -9t1 -8v-2q0 -27 2 -41q0 -13 -2 -35.5t-2 -33.5q-1 -8 0.5 -32t-2.5 -28q-2 -4 2 -16q-2 -2 -4 -8q-6 -8 -41 -8 q-97 -4 -153 6z" />
<glyph unicode="&#xdd;" horiz-adv-x="1032" d="M934 1128l16 37q52 99 72 178q-20 0 -23 3q-13 0 -6 10q3 10 15 10q3 0 5 -1t5 -1q19 0 22 -14q3 -10 0.5 -20.5t-11 -26t-9.5 -17.5q-50 -120 -68 -158l-14 -24q-22 -62 -25 -70q-12 -22 -28.5 -66t-26.5 -65q-25 -54 -108 -260q-4 -10 -13 -29t-15.5 -34.5t-10.5 -32.5 q-1 -35 2.5 -141t-0.5 -142q-4 -98 -4 -151q0 -24 2.5 -83t1.5 -89q-3 -17 -15 -17q-3 0 -8 1t-8 1q-14 -1 -51.5 -6.5t-59.5 -5.5l-59 4q-1 0 -19 1t-26 5q-10 3 -10 15v2q0 9 8 6h2q6 0 6 -6q74 -13 223 6q0 28 -1.5 109.5t-0.5 123.5q3 109 0 250v57q-3 68 11 93 q5 13 17 39t15 32q7 16 18.5 52.5t18.5 52.5q71 151 88 194q7 18 22 57.5t26.5 67t23.5 53.5zM674 1536q6 10 28 43.5t31.5 48t25.5 41.5t28.5 49.5t23.5 46.5q3 9 -4 9q-4 2 -19 2q-4 0 -5 3t1 5q10 10 17 8l16 -4h8q12 4 15 -4q1 -5 -13 -29q-3 -5 -8 -17.5t-8 -17.5 q-12 -18 -48 -80t-61 -90q-6 -6 -10 -14q-2 -2 -4 -8q-9 -18 -31 -15h-133q-10 0 -16 13q0 2 -4 6t0 8t6 4h8q9 0 6 -10q-4 -4 2 -4q65 3 136 0q9 0 12 6zM506 1106l6 -16q0 -3 -4 -3l-6 13l-4 6q-11 21 -21 49l-2 6q-1 9 -10 29l-51 153q-3 7 -1 11.5t-1 11.5v2q2 0 2 -2 l22 -59q37 -95 70 -201zM934 1354h12q-3 -9 -12 0z" />
<glyph unicode="&#xde;" horiz-adv-x="968" d="M223 -43h10q13 0 41 -4q84 -11 144 2q8 3 8 10q6 63 6 176q0 4 1.5 24.5t0.5 33.5q0 2 -1.5 6t-1.5 7.5t3 6.5q4 4 12.5 4t18.5 -2t12 -2q11 0 32 2t32 2q46 4 61 4q87 4 123 17q63 16 106 59q40 37 72 88q2 2 2 8q0 1 4 17q21 40 29 82q15 82 16 102q2 47 2 139 q0 51 -8 92q-4 28 -4 41l-4 33l-8 27q1 3 4 2q29 -69 35 -107q8 -49 4 -122q-1 -13 0.5 -59t-2.5 -56l-17 -98q-3 -14 -7.5 -28t-11 -30.5t-9.5 -27.5q-6 -27 -43 -74q-73 -97 -207 -117q-41 -6 -116 -9t-99 -5q-8 0 -8 -8q-3 -27 -2 -81.5t-2 -84.5q0 -12 -2.5 -28.5 t-2.5 -27.5q0 -9 3 -12q9 -19 -13 -22q-43 -6 -45 -7q-2 0 -7.5 -3t-8.5 -3q-7 0 -19.5 1t-19.5 1q-7 1 -20.5 1t-20.5 1l-35 6q-7 1 -19.5 5.5t-19.5 5.5q-1 1 -7 0.5t-7 -0.5q-8 0 -8 10q0 9 8 6h4zM465 707v-17q0 -20 -2 -55t-2 -55v-17q0 -10 -12 -10q-11 0 -11 10 t6 109q3 37 1 100.5t1 83.5v41q3 24 25 27q23 2 68 -2q11 0 22 -7l8 -4q2 0 2 -2v-2q-14 3 -28.5 3.5t-35 -0.5t-28.5 -1q-7 0 -10 -8q-3 -32 -3 -104.5t-1 -89.5zM463 1315v-45q3 -10 -8 -10t-11 10q0 16 -1 42.5t-1 39.5q-2 0 -4 2q-8 3 -8 10q0 8 8 8h2q4 -1 17 -10l4 -4 q2 0 2 -2q4 -9 0 -41z" />
<glyph unicode="&#xdf;" horiz-adv-x="1071" d="M561 -70q0 9 6 9q7 -1 18.5 -6.5t18.5 -6.5q15 0 19 -2q50 -3 102 13l59 14q50 13 97 53q55 47 96 137q7 13 8 19q6 6 6 14q4 12 4 14q8 49 11 109v16l-5 60l-8 92q-3 12 -8 67l-6 41l-6 35q1 3 4 2q9 -12 12 -26q5 -15 9 -30.5t6.5 -35t4 -32t4 -37t3.5 -33.5 q3 -14 8 -80v-17q0 -8 -1 -35t-1.5 -40t-3.5 -34t-8 -38q0 -3 -2.5 -7.5t-3.5 -6.5l-7 -13l-6 -14l-8 -16q-42 -94 -117 -146q-27 -18 -106 -45l-25 -4q-54 -14 -69 -14q-7 0 -22 1t-23 1h-17q-12 0 -16 2q-5 1 -12 4t-9 4q-6 3 -6 12zM459 424q3 -29 3 -61.5t-1.5 -71.5 t-1.5 -60q0 -14 -13 -30q-4 -5 -4 -27h-2q-2 40 2 125q0 116 -4 260q-1 15 1 45t1 45q-4 54 -4 78q0 16 2 42t2 38v186q0 65 15 94q1 2 20 27q15 17 41 27q3 0 7.5 2.5t6.5 3.5l19 6h16q3 0 9.5 -1t9.5 -1q9 0 12 -8q6 -6 -4 -6h-4q-5 0 -12.5 0.5t-13 0.5t-9.5 -1 q-22 -3 -45 -17q-6 -3 -10.5 -7.5t-8.5 -10.5t-8 -10q-8 -3 -8 -13q-14 -41 -14 -131q0 -8 -3 -22t-3 -17q-2 -6 -2 -28v-19q0 -4 -1 -10.5t-1 -9.5v-8q-5 -21 0 -84q2 -18 2 -93q0 -2 2 -2l2 -2v-114q0 -9 -1 -31t-0.5 -37.5t3.5 -30.5q2 -4 2 -16zM920 813l-25 -25 q-3 -9 -12 0l-2 3q0 2 -2 2q0 4 2 6q25 25 47 61l24 49q3 6 4 15t1 21t1 18q6 56 -10 124q-3 9 0 15v6l-14 57l-10 39q0 1 2 2q8 -16 15.5 -37t11.5 -36t10.5 -40.5t9.5 -37.5q4 -9 4 -41q0 -7 -0.5 -37t-3 -49t-8.5 -37q-8 -25 -45 -78zM229 -41v-2q17 -5 37 -6.5t34 -1.5 t39.5 2t35.5 2q5 0 19 -1.5t22 -0.5q30 3 30 45q0 13 -4 41q0 27 -2 41h2l4 -33q0 -11 3 -14v-17q1 -10 6 -31t4 -30q-2 -7 -6.5 -10.5t-12 -5t-13.5 -1.5t-16 0.5t-14 0.5h-14q-5 0 -15.5 -1.5t-15.5 -1.5q-51 -10 -92 -2q-3 0 -8 2.5t-8 2.5q-2 1 -12 1t-15 3q-6 6 -8 12 q0 8 8 8h10zM571 623h-2q-6 6 -6 8q0 8 6 8q20 -3 43 -14l2 2q0 -4 4 -4q4 -4 2.5 -7.5t-6.5 -1.5q-4 0 -6 2q-4 2 -20 2h-2q-3 0 -7.5 2.5t-7.5 2.5z" />
<glyph unicode="&#xe0;" horiz-adv-x="1034" d="M1001 63h-2v11l-6 37l-10 47q-6 23 -14.5 70.5t-10.5 56.5l-14 71l-18 60l-13 39l-6 34q-3 14 -7 42t-7 42q-28 134 -41 187q-22 87 -27 110l-8 48q-1 4 -2 9l-1.5 7.5t-0.5 3.5q-3 12 -6 35t-6 35l-29 120h2l-16 56l-10 73l-11 31q-6 25 -16 74q-2 5 2 9t8 3 q7 -2 10 -18q7 -56 37 -182l10 -66l17 -59q3 -12 41 -191q12 -62 39 -180.5t39 -183.5q9 -45 20 -115q3 -17 14 -48t15 -46q4 -18 18 -89.5t23 -109.5l10 -51l8 -49q0 -6 3.5 -17t4 -16.5t-5.5 -15.5q-15 -12 -37 -9h-20q-91 -10 -174 -2q-6 0 -10 4q-7 7 -7 11q0 1 -1 3 t-1 3q0 8 9 8q7 0 10 -8q83 -6 172 0q4 0 6 2h29q7 2 10 12q0 5 -2 14.5t-2 14.5q-2 2 -2 10q-1 3 -2 6.5t-1.5 5t-0.5 2.5v11l-9 34v4zM137 -70q-1 1 -0.5 6.5t0.5 6.5q3 6 8 6q7 0 7 -6v-2q49 -6 153 -2h23q7 3 23 2.5t18 3.5q6 7 9 17.5t5 25.5t4 22l4 17q3 29 12 55 l17 72q3 8 5 25t5 24q9 18 31 18q6 0 147 6q13 0 13 -10q3 -10 -9 -10q-153 -6 -163 -6q-7 -30 -19.5 -90t-19.5 -88l-4 -19q-1 -5 -3.5 -20t-4.5 -22.5t-7.5 -17t-13.5 -14.5q-7 -6 -20 -8t-25.5 -1.5t-26.5 -0.5h-22q-94 -4 -133 2q-13 3 -13 8zM500 1524q-1 3 -6 6.5 t-7 5.5q-7 10 5 10q10 0 18 -8l2 -4q4 -4 10 -4q35 3 76 0q3 0 8 1t8 1h33q7 0 4 10l-6 14q-3 12 4 23v2q0 2 2 3q1 -2 2 -3l15 -35q6 -12 8 -22v-2q0 -4 -2 -4q-18 -4 -21 -2h-2q-3 0 -5 1t-5 1q-16 -3 -37 -3.5t-50.5 0.5t-39.5 1q-2 0 -2 -3q-2 1 -4 3q-5 3 -8 8z M502 578l8 32q3 12 7 34.5t7 33.5q0 4 3 4t3 -4q0 -1 1 -3t1 -3q3 -21 0 -41l-12 -53q-3 -9 -12 -9t-6 9z" />
<glyph unicode="&#xe1;" horiz-adv-x="1034" d="M1001 63h-2v11l-6 37l-10 47q-6 23 -14.5 70.5t-10.5 56.5l-14 71l-18 60l-13 39l-6 34q-3 14 -7 42t-7 42q-28 134 -41 187q-22 87 -27 110l-8 48q-1 4 -2 9l-1.5 7.5t-0.5 3.5q-3 12 -6 35t-6 35l-29 120h2l-16 56l-10 73l-11 31q-6 25 -16 74q-2 5 2 9t8 3 q7 -2 10 -18q7 -56 37 -182l10 -66l17 -59q3 -12 41 -191q12 -62 39 -180.5t39 -183.5q9 -45 20 -115q3 -17 14 -48t15 -46q4 -18 18 -89.5t23 -109.5l10 -51l8 -49q0 -6 3.5 -17t4 -16.5t-5.5 -15.5q-15 -12 -37 -9h-20q-91 -10 -174 -2q-6 0 -10 4q-7 7 -7 11q0 1 -1 3 t-1 3q0 8 9 8q7 0 10 -8q83 -6 172 0q4 0 6 2h29q7 2 10 12q0 5 -2 14.5t-2 14.5q-2 2 -2 10q-1 3 -2 6.5t-1.5 5t-0.5 2.5v11l-9 34v4zM137 -70q-1 1 -0.5 6.5t0.5 6.5q3 6 8 6q7 0 7 -6v-2q49 -6 153 -2h23q7 3 23 2.5t18 3.5q6 7 9 17.5t5 25.5t4 22l4 17q3 29 12 55 l17 72q3 8 5 25t5 24q9 18 31 18q6 0 147 6q13 0 13 -10q3 -10 -9 -10q-153 -6 -163 -6q-7 -30 -19.5 -90t-19.5 -88l-4 -19q-1 -5 -3.5 -20t-4.5 -22.5t-7.5 -17t-13.5 -14.5q-7 -6 -20 -8t-25.5 -1.5t-26.5 -0.5h-22q-94 -4 -133 2q-13 3 -13 8zM668 1536q6 10 28 43.5 t31.5 48t25.5 41.5t28.5 49.5t23.5 46.5q3 9 -4 9q-4 2 -19 2q-4 0 -5 3t1 5q10 10 17 8l16 -4h8q12 4 15 -4q1 -5 -13 -29q-3 -5 -8 -17.5t-8 -17.5q-12 -18 -48 -80t-61 -90q-6 -6 -10 -14q-2 -2 -4 -8q-9 -18 -31 -15h-133q-10 0 -16 13q0 2 -4 6t0 8t6 4h8q9 0 6 -10 q-4 -4 2 -4q65 3 135 0q10 0 13 6zM502 578l8 32q3 12 7 34.5t7 33.5q0 4 3 4t3 -4q0 -1 1 -3t1 -3q3 -21 0 -41l-12 -53q-3 -9 -12 -9t-6 9z" />
<glyph unicode="&#xe2;" horiz-adv-x="1034" d="M1001 63h-2v11l-6 37l-10 47q-6 23 -14.5 70.5t-10.5 56.5l-14 71l-18 60l-13 39l-6 34q-3 14 -7 42t-7 42q-28 134 -41 187q-22 87 -27 110l-8 48q-1 4 -2 9l-1.5 7.5t-0.5 3.5q-3 12 -6 35t-6 35l-29 120h2l-16 56l-10 73l-11 31q-6 25 -16 74q-2 5 2 9t8 3 q7 -2 10 -18q7 -56 37 -182l10 -66l17 -59q3 -12 41 -191q12 -62 39 -180.5t39 -183.5q9 -45 20 -115q3 -17 14 -48t15 -46q4 -18 18 -89.5t23 -109.5l10 -51l8 -49q0 -6 3.5 -17t4 -16.5t-5.5 -15.5q-15 -12 -37 -9h-20q-91 -10 -174 -2q-6 0 -10 4q-7 7 -7 11q0 1 -1 3 t-1 3q0 8 9 8q7 0 10 -8q83 -6 172 0q4 0 6 2h29q7 2 10 12q0 5 -2 14.5t-2 14.5q-2 2 -2 10q-1 3 -2 6.5t-1.5 5t-0.5 2.5v11l-9 34v4zM137 -70q-1 1 -0.5 6.5t0.5 6.5q3 6 8 6q7 0 7 -6v-2q49 -6 153 -2h23q7 3 23 2.5t18 3.5q6 7 9 17.5t5 25.5t4 22l4 17q3 29 12 55 l17 72q3 8 5 25t5 24q9 18 31 18q6 0 147 6q13 0 13 -10q3 -10 -9 -10q-153 -6 -163 -6q-7 -30 -19.5 -90t-19.5 -88l-4 -19q-1 -5 -3.5 -20t-4.5 -22.5t-7.5 -17t-13.5 -14.5q-7 -6 -20 -8t-25.5 -1.5t-26.5 -0.5h-22q-94 -4 -133 2q-13 3 -13 8zM653 1530l-6 8q-3 8 4 8 q9 0 17 -8q2 -2 8 -2q22 -1 70.5 -1t74.5 -1q10 0 4 6l-14 23q-3 3 0 14q6 6 12 0l4 -6q2 -2 7 -9t8 -11t5.5 -10t1 -11t-6.5 -10q-2 -2 -4 -2q0 2 -2 2v-2h-5q-6 -3 -11.5 -3t-11.5 1.5t-9 1.5q-24 3 -58 0t-55 0q-24 4 -33 12zM317 1538v6q3 6 13 6h2q3 0 3 -4t3 -4h2 q7 0 31.5 -1.5t37 -2t31.5 0t33 3.5q6 2 12 8q12 18 35 41q3 3 12 0q3 -6 0 -12q-9 -8 -23 -26t-17 -21q-5 -7 -29 -12q-19 -1 -41 0t-48 3t-38 3q-16 0 -19 12zM502 578l8 32q3 12 7 34.5t7 33.5q0 4 3 4t3 -4q0 -1 1 -3t1 -3q3 -21 0 -41l-12 -53q-3 -9 -12 -9t-6 9z" />
<glyph unicode="&#xe3;" horiz-adv-x="1034" d="M1001 63h-2v11l-6 37l-10 47q-6 23 -14.5 70.5t-10.5 56.5l-14 71l-18 60l-13 39l-6 34q-3 14 -7 42t-7 42q-28 134 -41 187q-22 87 -27 110l-8 48q-1 4 -2 9l-1.5 7.5t-0.5 3.5q-3 12 -6 35t-6 35l-29 120h2l-16 56l-10 73l-11 31q-6 25 -16 74q-2 5 2 9t8 3 q7 -2 10 -18q7 -56 37 -182l10 -66l17 -59q3 -12 41 -191q12 -62 39 -180.5t39 -183.5q9 -45 20 -115q3 -17 14 -48t15 -46q4 -18 18 -89.5t23 -109.5l10 -51l8 -49q0 -6 3.5 -17t4 -16.5t-5.5 -15.5q-15 -12 -37 -9h-20q-91 -10 -174 -2q-6 0 -10 4q-7 7 -7 11q0 1 -1 3 t-1 3q0 8 9 8q7 0 10 -8q83 -6 172 0q4 0 6 2h29q7 2 10 12q0 5 -2 14.5t-2 14.5q-2 2 -2 10q-1 3 -2 6.5t-1.5 5t-0.5 2.5v11l-9 34v4zM137 -70q-1 1 -0.5 6.5t0.5 6.5q3 6 8 6q7 0 7 -6v-2q49 -6 153 -2h23q7 3 23 2.5t18 3.5q6 7 9 17.5t5 25.5t4 22l4 17q3 29 12 55 l17 72q3 8 5 25t5 24q9 18 31 18q6 0 147 6q13 0 13 -10q3 -10 -9 -10q-153 -6 -163 -6q-7 -30 -19.5 -90t-19.5 -88l-4 -19q-1 -5 -3.5 -20t-4.5 -22.5t-7.5 -17t-13.5 -14.5q-7 -6 -20 -8t-25.5 -1.5t-26.5 -0.5h-22q-94 -4 -133 2q-13 3 -13 8zM848 1624l4 41q4 49 2 66 q0 6 -6 6h-4q-8 0 -8 8q0 10 8 10h2q11 0 18 -10v-2q7 -17 4 -27q-2 -16 -2 -43.5t-3 -47.5t-13 -36q-7 -17 -41 -41q-19 -14 -43 -20q-20 -7 -29 -8q-51 -9 -104 8q-17 8 -19 10q-8 8 2 8q3 0 31 -4q48 -14 92 -4q48 10 82 41q21 21 27 45zM303 1530q0 4 -2 6q0 8 6 8 q8 0 8 -8v-2q0 -4 4 -4q62 4 91 4q7 0 10 8q13 39 41 60q10 7 26 -3q9 -3 -2 -10q-5 -1 -11.5 -4t-8.5 -4q-5 -3 -8.5 -6.5t-7 -9.5t-5.5 -9t-5.5 -10.5t-4.5 -9.5q-9 -18 -31 -18q-4 0 -27 -2.5t-27.5 -2t-29.5 2.5q-13 0 -16 14zM502 578l8 32q3 12 7 34.5t7 33.5q0 4 3 4 t3 -4q0 -1 1 -3t1 -3q3 -21 0 -41l-12 -53q-3 -9 -12 -9t-6 9z" />
<glyph unicode="&#xe4;" horiz-adv-x="1034" d="M1001 63h-2v11l-6 37l-10 47q-6 23 -14.5 70.5t-10.5 56.5l-14 71l-18 60l-13 39l-6 34q-3 14 -7 42t-7 42q-28 134 -41 187q-22 87 -27 110l-8 48q-1 4 -2 9l-1.5 7.5t-0.5 3.5q-3 12 -6 35t-6 35l-29 120h2l-16 56l-10 73l-11 31q-6 25 -16 74q-2 5 2 9t8 3 q7 -2 10 -18q7 -56 37 -182l10 -66l17 -59q3 -12 41 -191q12 -62 39 -180.5t39 -183.5q9 -45 20 -115q3 -17 14 -48t15 -46q4 -18 18 -89.5t23 -109.5l10 -51l8 -49q0 -6 3.5 -17t4 -16.5t-5.5 -15.5q-15 -12 -37 -9h-20q-91 -10 -174 -2q-6 0 -10 4q-7 7 -7 11q0 1 -1 3 t-1 3q0 8 9 8q7 0 10 -8q83 -6 172 0q4 0 6 2h29q7 2 10 12q0 5 -2 14.5t-2 14.5q-2 2 -2 10q-1 3 -2 6.5t-1.5 5t-0.5 2.5v11l-9 34v4zM137 -70q-1 1 -0.5 6.5t0.5 6.5q3 6 8 6q7 0 7 -6v-2q49 -6 153 -2h23q7 3 23 2.5t18 3.5q6 7 9 17.5t5 25.5t4 22l4 17q3 29 12 55 l17 72q3 8 5 25t5 24q9 18 31 18q6 0 147 6q13 0 13 -10q3 -10 -9 -10q-153 -6 -163 -6q-7 -30 -19.5 -90t-19.5 -88l-4 -19q-1 -5 -3.5 -20t-4.5 -22.5t-7.5 -17t-13.5 -14.5q-7 -6 -20 -8t-25.5 -1.5t-26.5 -0.5h-22q-94 -4 -133 2q-13 3 -13 8zM866 1522q-87 -8 -196 2 q-13 3 -17 14v4q-3 8 6 8h7q4 0 4 -4q2 -2 4 -2q151 -5 176 -4q8 0 8 8q1 18 3.5 67t2 63.5t-3.5 58.5l-2 2q-6 0 -6 8v2q0 6 2 7.5t6 0.5q4 0 6 -2q12 -4 15 -18q5 -60 -7 -207q0 -8 -8 -8zM317 1528h-6q-8 3 -8 10q0 8 8 8h6q3 0 7 -4q0 -2 2 -2q83 -13 172 -4q6 3 6 10 l1 2q1 2 1 6q13 119 2 183q0 2 -2 2q-4 0 -4 4v4q0 6 2 7.5t6 0.5h2q12 0 12 -10q3 -4 4 -8t1 -9t1 -8v-2q0 -27 2 -41q0 -13 -2 -35.5t-2 -33.5q-1 -8 0.5 -32t-2.5 -28q-2 -4 2 -16q-2 -2 -4 -8q-6 -8 -41 -8q-97 -4 -153 6zM502 578l8 32q3 12 7 34.5t7 33.5q0 4 3 4 t3 -4q0 -1 1 -3t1 -3q3 -21 0 -41l-12 -53q-3 -9 -12 -9t-6 9z" />
<glyph unicode="&#xe5;" horiz-adv-x="1034" d="M1001 63h-2v11l-6 37l-10 47q-6 23 -14.5 70.5t-10.5 56.5l-14 71l-18 60l-13 39l-6 34q-3 14 -7 42t-7 42q-28 134 -41 187q-22 87 -27 110l-8 48q-1 4 -2 9l-1.5 7.5t-0.5 3.5q-3 12 -6 35t-6 35l-29 120h2l-16 56l-10 73l-11 31q-6 25 -16 74q-2 5 2 9t8 3 q7 -2 10 -18q7 -56 37 -182l10 -66l17 -59q3 -12 41 -191q12 -62 39 -180.5t39 -183.5q9 -45 20 -115q3 -17 14 -48t15 -46q4 -18 18 -89.5t23 -109.5l10 -51l8 -49q0 -6 3.5 -17t4 -16.5t-5.5 -15.5q-15 -12 -37 -9h-20q-91 -10 -174 -2q-6 0 -10 4q-7 7 -7 11q0 1 -1 3 t-1 3q0 8 9 8q7 0 10 -8q83 -6 172 0q4 0 6 2h29q7 2 10 12q0 5 -2 14.5t-2 14.5q-2 2 -2 10q-1 3 -2 6.5t-1.5 5t-0.5 2.5v11l-9 34v4zM137 -70q-1 1 -0.5 6.5t0.5 6.5q3 6 8 6q7 0 7 -6v-2q49 -6 153 -2h23q7 3 23 2.5t18 3.5q6 7 9 17.5t5 25.5t4 22l4 17q3 29 12 55 l17 72q3 8 5 25t5 24q9 18 31 18q6 0 147 6q13 0 13 -10q3 -10 -9 -10q-153 -6 -163 -6q-7 -30 -19.5 -90t-19.5 -88l-4 -19q-1 -5 -3.5 -20t-4.5 -22.5t-7.5 -17t-13.5 -14.5q-7 -6 -20 -8t-25.5 -1.5t-26.5 -0.5h-22q-94 -4 -133 2q-13 3 -13 8zM737 1769q2 0 6 -4 q11 -37 11 -53q0 -75 -54 -135l-16 -14l-16 -13l-19 -12l-20 -8q-21 -9 -43 -12q-3 -1 -10.5 -1t-10.5 -1q-43 -7 -94 14q-2 0 -2 2v2q4 4 6 4q52 -10 84 -8q3 0 7 1t7 1q31 3 54 12q12 4 20 10l12 7l27 22l10 12l6 7q6 6 9 14l6 8q16 29 16 57q4 16 4 19q-4 46 -4 63 q-6 6 4 6zM502 578l8 32q3 12 7 34.5t7 33.5q0 4 3 4t3 -4q0 -1 1 -3t1 -3q3 -21 0 -41l-12 -53q-3 -9 -12 -9t-6 9z" />
<glyph unicode="&#xe6;" horiz-adv-x="1554" d="M987 1098q0 -71 4 -203q0 -10 -12 -10q-10 0 -10 12q0 45 -4 139q0 5 -0.5 21.5t-0.5 26.5t2 21.5t7 16.5q7 5 55 11q100 6 189 0q11 -1 184 -7h20h25t19.5 7.5t4.5 21.5q0 14 3 23q11 104 -5 159q0 2 -2 2l-2 2v7q0 7 9 10q1 0 2 1t2 1q10 0 10 -8q3 -6 4 -15t1 -21 t1 -18q6 -38 2 -102q-2 -6 -2 -22q0 -4 -0.5 -13.5t-1.5 -14.5t-2 -12.5t-4 -12.5t-8 -9q-6 -5 -15.5 -6.5t-16 -1.5t-20 2t-18.5 2h-21l-161 4q-150 11 -230 -4q-8 -3 -8 -10zM1473 -49q-1 22 5 59.5t7 52.5q2 4 2 17v20q0 24 -4 60q0 2 -2 2q-4 0 -4 4v4q0 10 8 10h4 q14 0 14 -12q7 -37 4 -84q0 -12 -2 -16q-4 -12 -5 -52.5t-12.5 -63t-43.5 -22.5h-17l-53 7h-143q-23 0 -68 -3.5t-69 -3.5q-48 0 -142 4q-11 0 -66.5 -3t-66.5 1h-16h-37q-2 0 -7.5 -1.5t-9 -2.5t-7.5 -0.5t-7 2.5q-7 0 -10 15v6q0 12 10 12h2q11 0 11 -10q0 -4 4 -4 q36 5 171 2t177 -2l229 6h21q12 0 31 -1t30 -1h16q14 -2 46 -2zM989 508q0 -63 4 -195q0 -10 -12 -10q-10 0 -10 10q0 37 -2 103t-2 98q0 4 2 11.5t2 11.5q0 11 16 14q31 4 152 4q33 -2 104 2h21q25 -2 47.5 -2.5t36 14t10.5 43.5q2 4 2 19q3 61 -4 112q0 2 -2 2l-2 3v18 q0 2 4 2q2 -2 8 -2h6q4 0 4 -6q12 -71 6 -148q0 -3 -1 -10t-1 -10q-5 -39 -16 -45q-14 -10 -31 -11.5t-40 1.5t-36 2h-18q-39 0 -133 -4q-8 0 -23.5 0.5t-28.5 0.5t-24 -1l-18 -5q-21 -9 -21 -22zM145 -49v2q3 8 13 8h6q6 0 6 -8l2 -2h164q4 0 16 -1t17 0t12.5 3t10.5 9 t3 18l6 18q32 155 48 201q6 19 26 22q30 4 131 0q8 0 8 -8t-8 -8q-100 0 -127 -4q-10 0 -10 -8q-11 -30 -31 -125l-14 -60l-4 -18q-4 -35 -19 -45q-10 -10 -21.5 -13t-29 -1t-24.5 1q-4 -2 -19 -2q-117 0 -151 4q-6 0 -9 7q0 3 -1 5t-1 5zM600 963q0 1 2 1t2 -1v-11 q0 -7 1 -19.5t1 -19.5q0 -8 -4 -36q-9 -35 -20 -99q-4 -24 -25 -166q-1 -3 -1 -9.5t-1 -11.5t-4 -9q0 -11 -14 -11q-5 0 -7.5 3.5t-1.5 7.5l9 41q2 14 12 79.5t14.5 90.5t14 72.5t20.5 88.5q2 2 2 9z" />
<glyph unicode="&#xe7;" horiz-adv-x="1034" d="M449 438v-16q0 -15 -1.5 -40t-1.5 -45t3 -38l-7 8q-15 18 -12 37v29q2 72 2 196q0 208 2 312q0 16 -1 49t-1 53q0 47 29 111q19 42 96 61q3 1 18 -4q4 -4 7 -4q4 0 6 -2q4 -4 -2 -4q-99 -13 -121 -82l-6 -33q-1 -5 -3.5 -17t-2.5 -18q0 -7 -2 -21t-2 -22q3 -68 3 -156.5 t-1.5 -196t-1.5 -157.5zM766 -37l-37 -16q-13 -3 -18 2q-4 2 -3.5 5t5.5 5q8 3 23.5 11.5t23.5 11.5q9 3 45 24q32 14 45 27q3 3 6 9t6 9q3 4 11.5 10.5t11.5 10.5q7 12 33 71l12 29q10 25 14 53.5t4.5 48.5t-0.5 57t0 60q0 4 -4 4q-8 0 -8 8v3q0 10 10 10q2 -2 6 -2 q17 -10 17 -23q1 -9 -0.5 -26.5t-1.5 -22.5q-1 -18 0 -52t0 -50q-7 -52 -43 -131l-11 -23q-8 -19 -22 -33l-4 -4q-17 -22 -19 -24q-43 -37 -86 -56q-1 -1 -16 -6zM528 -465q-34 0 -53 8q-8 3 -8 13v4q0 6 4 6q3 0 6 -1t4 -1h4l2 -2v-2q104 -17 179 8q32 11 48.5 18 t37.5 22.5t28 35.5q3 7 8 47q0 7 1 21.5t0.5 25t-3.5 20.5q0 1 -3 17t-3 24q0 13 -2 17q0 2 -2 4q1 3 4 2q15 -18 27 -66q5 -38 -1 -77.5t-22 -61.5q-10 -12 -39 -33q-31 -24 -90 -41q-45 -15 -77 -12h-9q-9 4 -41 4zM965 913q5 33 -7 111q-3 37 -10 63q-3 15 -7 47t-7 48 q-1 4 0.5 4t3.5 -2q45 -91 45 -238q0 -43 -6 -49q-2 -2 -14 -6l-11 -6q-6 -2 -57 -6q-85 -9 -162 14q-10 0 -10 10q0 6 6 6q12 0 14 -2q88 -20 211 -4q8 4 11 10z" />
<glyph unicode="&#xe8;" horiz-adv-x="997" d="M948 -51q13 102 13 135q0 29 -7 76q-4 0 -4 4q0 2 -2 4q0 9 6 12q2 2 4 2q10 3 13 -12q10 -58 10 -98q0 -41 -8 -68q0 -3 1 -7t1 -7q0 -19 -6 -42.5t-13 -23.5t-10 8l-254 5q-50 1 -161.5 -8t-168.5 -9q-7 0 -34.5 -0.5t-45 -0.5t-39 2t-32.5 5q-5 5 -10 15q0 10 8 10 q10 0 10 -10v-2q33 2 98 2h76q44 0 132 7t132 7q3 0 291 -6zM457 1081q0 -33 -6.5 -97t-6.5 -97q0 -8 -10 -8q-8 0 -8 8v4q0 41 5.5 133t10.5 92q2 0 4 -2l1 6q1 6 4 6q23 -2 67 -2q24 0 75 1t79 1q22 0 66.5 -1t64.5 -1h43q20 0 53 -2t49 -2q15 88 15 131q0 39 -11 99 q-2 0 -6 4v6q0 9 8 6q27 -19 27 -127q0 -137 -39 -137q-13 0 -38 1t-36 1h-69q-18 0 -51.5 2t-49.5 2q-14 0 -40 -1t-40 -1q-28 0 -82 1t-81 1v-18q2 -2 2 -9zM461 524q-8 -84 -8 -221q0 -10 -11 -10q-10 0 -10 10v8q0 106 8 197q3 21 23 24q49 9 90 9q5 0 14.5 -1t14.5 -1 q1 0 3 2t3 2q25 0 61 -4q17 0 50 2t49 2t40.5 -1t36.5 -1q8 0 12.5 5.5t6.5 17t2.5 18.5t0 22.5t-0.5 16.5q0 66 -8 129q-4 0 -4 4v4q0 14 8 6q24 -19 24 -133q0 -41 -6 -84q-3 -23 -24 -23h-23q-39 2 -106 2q-8 0 -23 -2t-22 -2q-12 0 -33 2t-33 2q-21 0 -66 -1t-69 -1z M563 1524q-1 3 -2.5 4.5t-4.5 3.5t-5 4q-7 10 4 10q10 0 18 -8l2 -4q4 -4 11 -4q35 3 76 0q3 0 8 1t8 1q4 1 10 1t13 -0.5t10 -0.5q7 0 4 10l-6 14q-3 12 4 23v2q0 2 2 3q1 -2 2 -3l14 -35q6 -12 8 -22v-2q0 -4 -2 -4q-17 -3 -20 -2h-2q-3 0 -5 1t-5 1q-16 -3 -37 -3.5 t-50.5 0.5t-39.5 1q-3 0 -3 -3q-2 1 -4 3q-5 3 -8 8z" />
<glyph unicode="&#xe9;" horiz-adv-x="997" d="M948 -51q13 102 13 135q0 29 -7 76q-4 0 -4 4q0 2 -2 4q0 9 6 12q2 2 4 2q10 3 13 -12q10 -58 10 -98q0 -41 -8 -68q0 -3 1 -7t1 -7q0 -19 -6 -42.5t-13 -23.5t-10 8l-254 5q-50 1 -161.5 -8t-168.5 -9q-7 0 -34.5 -0.5t-45 -0.5t-39 2t-32.5 5q-5 5 -10 15q0 10 8 10 q10 0 10 -10v-2q33 2 98 2h76q44 0 132 7t132 7q3 0 291 -6zM457 1081q0 -33 -6.5 -97t-6.5 -97q0 -8 -10 -8q-8 0 -8 8v4q0 41 5.5 133t10.5 92q2 0 4 -2l1 6q1 6 4 6q23 -2 67 -2q24 0 75 1t79 1q22 0 66.5 -1t64.5 -1h43q20 0 53 -2t49 -2q15 88 15 131q0 39 -11 99 q-2 0 -6 4v6q0 9 8 6q27 -19 27 -127q0 -137 -39 -137q-13 0 -38 1t-36 1h-69q-18 0 -51.5 2t-49.5 2q-14 0 -40 -1t-40 -1q-28 0 -82 1t-81 1v-18q2 -2 2 -9zM461 524q-8 -84 -8 -221q0 -10 -11 -10q-10 0 -10 10v8q0 106 8 197q3 21 23 24q49 9 90 9q5 0 14.5 -1t14.5 -1 q1 0 3 2t3 2q25 0 61 -4q17 0 50 2t49 2t40.5 -1t36.5 -1q8 0 12.5 5.5t6.5 17t2.5 18.5t0 22.5t-0.5 16.5q0 66 -8 129q-4 0 -4 4v4q0 14 8 6q24 -19 24 -133q0 -41 -6 -84q-3 -23 -24 -23h-23q-39 2 -106 2q-8 0 -23 -2t-22 -2q-12 0 -33 2t-33 2q-21 0 -66 -1t-69 -1z M567 1536q7 10 35 53.5t39.5 61.5t30.5 51.5t33 62.5q3 9 -5 9q-4 2 -18 2q-4 0 -5 3t1 5q10 10 16 8l17 -4h8q11 4 14 -4q2 -6 -12 -29q-3 -5 -8 -17.5t-8 -17.5q-12 -18 -48 -80t-61 -90q-6 -6 -10 -14q-2 -2 -4 -8q-9 -18 -31 -15q-19 1 -41.5 1t-50 -0.5t-41.5 -0.5 q-10 0 -17 13q0 2 -4 6t0 8t6 4h9q9 0 6 -10q-4 -4 2 -4q65 3 135 0q9 0 12 6z" />
<glyph unicode="&#xea;" horiz-adv-x="997" d="M948 -51q13 102 13 135q0 29 -7 76q-4 0 -4 4q0 2 -2 4q0 9 6 12q2 2 4 2q10 3 13 -12q10 -58 10 -98q0 -41 -8 -68q0 -3 1 -7t1 -7q0 -19 -6 -42.5t-13 -23.5t-10 8l-254 5q-50 1 -161.5 -8t-168.5 -9q-7 0 -34.5 -0.5t-45 -0.5t-39 2t-32.5 5q-5 5 -10 15q0 10 8 10 q10 0 10 -10v-2q33 2 98 2h76q44 0 132 7t132 7q3 0 291 -6zM457 1081q0 -33 -6.5 -97t-6.5 -97q0 -8 -10 -8q-8 0 -8 8v4q0 41 5.5 133t10.5 92q2 0 4 -2l1 6q1 6 4 6q23 -2 67 -2q24 0 75 1t79 1q22 0 66.5 -1t64.5 -1h43q20 0 53 -2t49 -2q15 88 15 131q0 39 -11 99 q-2 0 -6 4v6q0 9 8 6q27 -19 27 -127q0 -137 -39 -137q-13 0 -38 1t-36 1h-69q-18 0 -51.5 2t-49.5 2q-14 0 -40 -1t-40 -1q-28 0 -82 1t-81 1v-18q2 -2 2 -9zM461 524q-8 -84 -8 -221q0 -10 -11 -10q-10 0 -10 10v8q0 106 8 197q3 21 23 24q49 9 90 9q5 0 14.5 -1t14.5 -1 q1 0 3 2t3 2q25 0 61 -4q17 0 50 2t49 2t40.5 -1t36.5 -1q8 0 12.5 5.5t6.5 17t2.5 18.5t0 22.5t-0.5 16.5q0 66 -8 129q-4 0 -4 4v4q0 14 8 6q24 -19 24 -133q0 -41 -6 -84q-3 -23 -24 -23h-23q-39 2 -106 2q-8 0 -23 -2t-22 -2q-12 0 -33 2t-33 2q-21 0 -66 -1t-69 -1z M635 1530l-6 8q-3 8 4 8q8 0 16 -8q2 -2 8 -2q21 -1 71 -1t75 -1q10 0 4 6l-14 23q-3 3 0 14q6 6 12 0l4 -6q1 -2 6.5 -9t8 -11t5 -10t1 -11t-6.5 -10q-2 -2 -4 -2q0 2 -2 2v-2h-4q-6 -3 -12 -3t-12 1.5t-9 1.5q-24 3 -57.5 0t-54.5 0q-24 4 -33 12zM299 1538v6q3 6 12 6h2 q3 0 3 -4t3 -4h3q7 0 31.5 -1.5t37 -2t31.5 0t33 3.5q6 2 12 8q12 18 35 41q3 3 12 0q3 -6 0 -12q-7 -6 -14 -14t-14.5 -18t-12.5 -15q-5 -7 -29 -12q-19 -1 -41 0t-48 3t-38 3q-15 0 -18 12z" />
<glyph unicode="&#xeb;" horiz-adv-x="997" d="M948 -51q13 102 13 135q0 29 -7 76q-4 0 -4 4q0 2 -2 4q0 9 6 12q2 2 4 2q10 3 13 -12q10 -58 10 -98q0 -41 -8 -68q0 -3 1 -7t1 -7q0 -19 -6 -42.5t-13 -23.5t-10 8l-254 5q-50 1 -161.5 -8t-168.5 -9q-7 0 -34.5 -0.5t-45 -0.5t-39 2t-32.5 5q-5 5 -10 15q0 10 8 10 q10 0 10 -10v-2q33 2 98 2h76q44 0 132 7t132 7q3 0 291 -6zM457 1081q0 -33 -6.5 -97t-6.5 -97q0 -8 -10 -8q-8 0 -8 8v4q0 41 5.5 133t10.5 92q2 0 4 -2l1 6q1 6 4 6q23 -2 67 -2q24 0 75 1t79 1q22 0 66.5 -1t64.5 -1h43q20 0 53 -2t49 -2q15 88 15 131q0 39 -11 99 q-2 0 -6 4v6q0 9 8 6q27 -19 27 -127q0 -137 -39 -137q-13 0 -38 1t-36 1h-69q-18 0 -51.5 2t-49.5 2q-14 0 -40 -1t-40 -1q-28 0 -82 1t-81 1v-18q2 -2 2 -9zM461 524q-8 -84 -8 -221q0 -10 -11 -10q-10 0 -10 10v8q0 106 8 197q3 21 23 24q49 9 90 9q5 0 14.5 -1t14.5 -1 q1 0 3 2t3 2q25 0 61 -4q17 0 50 2t49 2t40.5 -1t36.5 -1q8 0 12.5 5.5t6.5 17t2.5 18.5t0 22.5t-0.5 16.5q0 66 -8 129q-4 0 -4 4v4q0 14 8 6q24 -19 24 -133q0 -41 -6 -84q-3 -23 -24 -23h-23q-39 2 -106 2q-8 0 -23 -2t-22 -2q-12 0 -33 2t-33 2q-21 0 -66 -1t-69 -1z M844 1522q-87 -8 -197 2q-12 2 -16 14v4q-3 8 6 8h6q4 0 4 -4q2 -2 4 -2q151 -5 176 -4q9 0 9 8q1 18 3.5 67t2 63.5t-3.5 58.5l-2 2q-7 0 -7 8v2q0 11 9 8q4 0 6 -2q11 -4 14 -18q6 -66 -6 -207q0 -8 -8 -8zM295 1528h-6q-8 3 -8 10q0 8 8 8h6q2 0 6 -4q0 -2 2 -2 q83 -13 172 -4q6 3 6 10l1 2q1 2 1 6q13 119 2 183q0 2 -2 2q-4 0 -4 4v4q0 6 2 7.5t6 0.5h2q13 0 13 -10q3 -4 4 -8t1 -9t1 -8v-2q0 -27 2 -41q0 -13 -2 -35.5t-2 -33.5q-1 -8 0.5 -32t-2.5 -28q-2 -4 2 -16q-2 -2 -4 -8q-6 -8 -41 -8q-98 -4 -154 6z" />
<glyph unicode="&#xec;" horiz-adv-x="524" d="M215 -66q-3 9 6 9h2q8 0 8 -9q14 -1 36.5 -3t40.5 -3t34 0q8 0 38 3t46 3h14l13 7q3 89 -4.5 267t-4.5 273v119q0 147 -2 231q0 20 0.5 56t0.5 65t-1 54q-3 62 -1 178.5t-1 165.5q-2 0 -4 2q-8 0 -8 8q0 5 2 7t6 1q4 0 6 -2q12 -3 15 -18q3 -40 3.5 -81t-0.5 -100t-1 -86 q2 -72 2 -225q0 -37 2 -112.5t2 -118.5v-2q-1 -10 -1 -23.5t0.5 -27t0.5 -17.5q0 -21 -2.5 -86t-1.5 -132.5t8 -148.5q6 -120 0 -239q0 -26 -18 -29q-8 -4 -26 -4h-22q-67 -10 -129 -2q-8 1 -20 0.5t-19.5 0.5t-13.5 5q-6 6 -6 14zM246 1524q-1 3 -6 6.5t-7 5.5q-7 10 5 10 q10 0 18 -8l2 -4q4 -4 10 -4q35 3 76 0q3 0 8 1t8 1h33q7 0 4 10l-6 14q-3 12 4 23v2q0 2 2 3q1 -2 2 -3l15 -35q6 -12 8 -22v-2q0 -4 -2 -4q-18 -4 -21 -2h-2q-3 0 -5 1t-5 1q-16 -3 -37 -3.5t-50.5 0.5t-39.5 1q-2 0 -2 -3q-2 1 -4 3q-5 3 -8 8z" />
<glyph unicode="&#xed;" horiz-adv-x="524" d="M215 -66q-3 9 6 9h2q8 0 8 -9q14 -1 36.5 -3t40.5 -3t34 0q8 0 38 3t46 3h14l13 7q3 89 -4.5 267t-4.5 273v119q0 147 -2 231q0 20 0.5 56t0.5 65t-1 54q-3 62 -1 178.5t-1 165.5q-2 0 -4 2q-8 0 -8 8q0 5 2 7t6 1q4 0 6 -2q12 -3 15 -18q3 -40 3.5 -81t-0.5 -100t-1 -86 q2 -72 2 -225q0 -37 2 -112.5t2 -118.5v-2q-1 -10 -1 -23.5t0.5 -27t0.5 -17.5q0 -21 -2.5 -86t-1.5 -132.5t8 -148.5q6 -120 0 -239q0 -26 -18 -29q-8 -4 -26 -4h-22q-67 -10 -129 -2q-8 1 -20 0.5t-19.5 0.5t-13.5 5q-6 6 -6 14zM412 1536q6 10 28 43.5t31.5 48t25.5 41.5 t28.5 49.5t23.5 46.5q3 9 -4 9q-4 2 -19 2q-4 0 -5 3t1 5q10 10 17 8l16 -4h8q12 4 15 -4q1 -5 -13 -29q-3 -5 -8 -17.5t-8 -17.5q-12 -18 -48 -80t-61 -90q-6 -6 -10 -14q-2 -2 -4 -8q-9 -18 -31 -15h-133q-10 0 -16 13q0 2 -4 6t0 8t6 4h8q9 0 6 -10q-4 -4 2 -4 q65 3 135 0q10 0 13 6z" />
<glyph unicode="&#xee;" horiz-adv-x="524" d="M215 -66q-3 9 6 9h2q8 0 8 -9q14 -1 36.5 -3t40.5 -3t34 0q8 0 38 3t46 3h14l13 7q3 89 -4.5 267t-4.5 273v119q0 147 -2 231q0 20 0.5 56t0.5 65t-1 54q-3 62 -1 178.5t-1 165.5q-2 0 -4 2q-8 0 -8 8q0 5 2 7t6 1q4 0 6 -2q12 -3 15 -18q3 -40 3.5 -81t-0.5 -100t-1 -86 q2 -72 2 -225q0 -37 2 -112.5t2 -118.5v-2q-1 -10 -1 -23.5t0.5 -27t0.5 -17.5q0 -21 -2.5 -86t-1.5 -132.5t8 -148.5q6 -120 0 -239q0 -26 -18 -29q-8 -4 -26 -4h-22q-67 -10 -129 -2q-8 1 -20 0.5t-19.5 0.5t-13.5 5q-6 6 -6 14zM399 1530l-6 8q-3 8 4 8q9 0 17 -8 q2 -2 8 -2q22 -1 71 -1t74 -1q10 0 4 6l-14 23q-3 3 0 14q6 6 12 0l4 -6q2 -2 7 -9t8 -11t5.5 -10t1 -11t-6.5 -10q-2 -2 -4 -2q0 2 -2 2v-2h-4q-6 -3 -12 -3t-12 1.5t-9 1.5q-24 3 -58 0t-55 0q-24 4 -33 12zM63 1538v6q3 6 13 6h2q3 0 3 -4t3 -4h2q7 0 31.5 -1.5t37 -2 t31.5 0t33 3.5q6 2 12 8q12 18 35 41q3 3 13 0q3 -6 0 -12q-7 -6 -14 -14t-14.5 -18t-12.5 -15q-5 -7 -29 -12q-19 -1 -41 0t-48 3t-38 3q-16 0 -19 12z" />
<glyph unicode="&#xef;" horiz-adv-x="524" d="M215 -66q-3 9 6 9h2q8 0 8 -9q14 -1 36.5 -3t40.5 -3t34 0q8 0 38 3t46 3h14l13 7q3 89 -4.5 267t-4.5 273v119q0 147 -2 231q0 20 0.5 56t0.5 65t-1 54q-3 62 -1 178.5t-1 165.5q-2 0 -4 2q-8 0 -8 8q0 5 2 7t6 1q4 0 6 -2q12 -3 15 -18q3 -40 3.5 -81t-0.5 -100t-1 -86 q2 -72 2 -225q0 -37 2 -112.5t2 -118.5v-2q-1 -10 -1 -23.5t0.5 -27t0.5 -17.5q0 -21 -2.5 -86t-1.5 -132.5t8 -148.5q6 -120 0 -239q0 -26 -18 -29q-8 -4 -26 -4h-22q-67 -10 -129 -2q-8 1 -20 0.5t-19.5 0.5t-13.5 5q-6 6 -6 14zM608 1522q-87 -8 -196 2q-13 3 -17 14v4 q-3 8 6 8h7q4 0 4 -4q2 -2 4 -2q151 -5 176 -4q8 0 8 8q1 18 3.5 67t2 63.5t-3.5 58.5l-2 2q-6 0 -6 8v2q0 6 1.5 7.5t6.5 0.5q4 0 6 -2q12 -4 15 -18q5 -60 -7 -207q0 -8 -8 -8zM59 1528h-6q-8 3 -8 10q0 8 8 8h6q3 0 7 -4q0 -2 2 -2q83 -13 172 -4q6 3 6 10l1 2q1 2 1 6 q13 119 2 183q0 2 -2 2q-4 0 -4 4v4q0 6 2 7.5t6 0.5h2q12 0 12 -10q3 -4 4 -8t1 -9t1 -8v-2q0 -27 2 -41q0 -13 -2 -35.5t-2 -33.5q-1 -8 0.5 -32t-2.5 -28q-2 -4 2 -16q-2 -2 -4 -8q-6 -8 -41 -8q-97 -4 -153 6z" />
<glyph unicode="&#xf0;" horiz-adv-x="1026" d="M961 311q4 29 5 57.5t0 78.5t-1 63q0 19 -2.5 68t-1.5 75q2 50 2.5 66.5t-2.5 66.5t-3 64q0 12 1.5 33t1.5 32q0 69 -9 127q-1 5 -1 13t-1 15t-4 13l-6 41l-2 29q0 5 3 5q2 -1 3 -3q3 -5 7 -15.5t7 -15.5q11 -33 15 -88q4 -51 4.5 -146.5t3.5 -135.5q3 -31 1 -93.5 t1 -93.5q1 -16 1 -47.5t1 -48.5v-98q-3 -31 -4.5 -55t-1 -35.5t-0.5 -16.5q0 -37 -29.5 -110t-60.5 -111q-9 -10 -51 -43q-4 -3 -16 -13.5t-21 -16t-19 -9.5q-73 -39 -145 -39q-54 -4 -82 -4h-76q-100 -5 -125 -4q-12 0 -33 1t-32 1q-44 0 -53 4q-3 0 -8 2.5l-7 3.5 q-10 3 -10 11q0 10 8 10h8q4 0 4 -4q0 -2 2 -2q63 -8 244 -4q21 1 60 1t59 1q71 4 104 10l39 14q28 6 37 15q32 23 43 34q40 28 55 47l19 25q5 5 8 14q2 0 2 2l10 13q26 57 31 84q0 8 4.5 20.5t5.5 18.5l4 57q0 3 1.5 8t1.5 8zM592 729q-4 0 -4 8v6q0 11 10 11q11 0 14 -9 v-4q0 -2 3 -9.5t3 -12.5v-25q0 -18 -1 -52t-1 -52v-6q0 -3 -1 -6.5t-1 -6.5t-6 -6q-23 -5 -63 -3.5t-68 -0.5q-8 -3 -8 -10q6 -12 2 -91t-4 -91q0 -5 -1.5 -19t-0.5 -22q0 -5 4 -25v-8q0 -3 -1 -5t-1 -5v-2q0 -11 -14 -11q-16 0 -9 11v20q2 2 2 12q-3 7 -3 16t1.5 21.5 t1.5 20.5q0 1 4 63.5t3 91.5l-7 29q-3 19 23 23q9 0 37 4q9 0 37.5 -1.5t42.5 -0.5q7 0 10 8q6 30 2 133q0 6 -6 6zM465 1149h90h4q3 0 19 -4q8 -4 14 -10q3 -9 -4 -9q-20 1 -55.5 0t-51.5 0q-6 1 -10.5 -3t-5 -7.5t-2.5 -11.5q-5 -169 0 -225q0 -11 -10 -11q-11 4 -11 13 q-1 51 0.5 138.5t1.5 108.5q0 13 7 15q6 6 14 6z" />
<glyph unicode="&#xf1;" horiz-adv-x="1095" d="M795 -45q74 -16 231 -4q-3 25 -3.5 51t0.5 61t1 48q-4 202 -8 254q0 15 4 47q0 27 -2.5 89t-1.5 97q0 311 6 475q4 34 1.5 136.5t-1.5 136.5h-4q-8 3 -8 10q-3 9 6 6l6 -2q16 0 16 -19q2 -41 2 -120q0 -23 1 -70t1 -70l-6 -141q3 -79 -1 -235.5t-1 -225.5q1 -16 1 -33.5 t-0.5 -40.5t-0.5 -36q5 -182 8 -217q1 -28 -1.5 -104t1.5 -99q0 -19 -26 -19q-11 0 -53.5 -2.5t-52 -2t-50.5 2.5l-63 6q-16 0 -19 13l-2 6q0 6 6 6h6q7 0 7 -4zM201 -53q0 10 8 10q6 0 8 -2q2 0 2 -2q124 -28 217 2q-4 2 -2 21l2 20v27q1 7 1 23.5t1 23.5q0 13 3.5 45 t2.5 49q-1 6 -6 162q0 153 -2 227q0 2 3 2.5t5 -0.5q9 -15 9 -39q0 -67 4 -215q0 -49 2 -74q0 -14 2 -38.5t2 -36.5q0 -9 -2 -27.5t-2 -26.5q-6 -49 -6 -147q0 -8 -9 -8q-3 -1 -7 -5t-7 -4q-77 -26 -215 0q-11 4 -14 13zM883 1624l4 41q4 49 2 66q0 6 -6 6h-4q-9 0 -9 8 q0 10 9 10h2q11 0 18 -10v-2q7 -17 4 -27q-2 -16 -2 -43.5t-3 -47.5t-13 -36q-7 -17 -41 -41q-19 -14 -43 -20q-20 -7 -29 -8q-51 -9 -104 8q-17 8 -19 10q-8 8 2 8q3 0 31 -4q48 -14 92 -4q48 10 82 41q21 21 27 45zM338 1530q0 4 -2 6q0 8 6 8q8 0 8 -8v-2q0 -4 4 -4 q62 4 90 4q8 0 11 8q13 39 41 60q10 7 26 -3q9 -3 -2 -10q-5 -1 -11.5 -4t-8.5 -4q-5 -3 -8.5 -6.5t-7 -9.5t-5.5 -9t-5.5 -10.5t-4.5 -9.5q-9 -18 -31 -18q-4 0 -27 -2.5t-27.5 -2t-29.5 2.5q-13 0 -16 14z" />
<glyph unicode="&#xf2;" d="M915 274q9 117 0 244q0 50 -1.5 110.5t-0.5 82.5q2 33 -2 98q-1 23 -3 135t-11 168q-4 4 -4 8q-5 48 -8 56q1 3 4 2l14 -31q23 -51 23 -176l4 -213v-94q6 -123 6 -138q0 -10 0.5 -57.5t0.5 -76t-2 -78t-6 -83.5t-12 -71t-20 -60q-8 -13 -21 -30.5t-18 -24.5 q-6 -8 -13.5 -15.5t-10.5 -10t-16 -11.5t-15 -10l-4 -2q-13 -13 -33 -25l-23 -12q-47 -26 -96 -37q-7 -1 -34 -7.5t-43.5 -9t-34.5 -1.5q-11 2 -46.5 5t-54.5 9l-41 19l-8 4q-2 2 0 4h14q20 -3 39 -11l4 -1q4 -1 7 -1q93 -20 151 -4l29 6q55 18 100 37q15 7 45 29 q5 3 13.5 8.5t16 11t13.5 11.5q56 47 76 108q8 21 8 54q3 15 7 41t7 40zM463 1126q43 15 61 19q2 0 2 -2h4q0 -2 7 -2l6 -6v-2q-67 -13 -90 -31q-14 -10 -31 -39q-4 -9 -5.5 -18t-1.5 -15t0.5 -19t0.5 -20q0 -48 -4 -227t0 -225q1 -16 3.5 -59t2.5 -60.5t-2 -59.5 q-3 -27 0 -51q0 -14 -10 -4q0 1 -1.5 3t-1.5 3q-6 14 -6 41q0 45 -2 76q-7 113 -2 338q5 216 4 254q-1 6 4 39q6 26 21 35v2l8 10q8 12 33 20zM457 1524q-1 3 -6 6.5t-7 5.5q-7 10 5 10q10 0 18 -8l2 -4q4 -4 10 -4q35 3 76 0q3 0 8 1t8 1q4 1 10 1t13 -0.5t10 -0.5 q7 0 4 10l-6 14q-3 12 4 23v2q0 2 2 3q1 -2 2 -3l15 -35q6 -12 8 -22v-2q0 -4 -2 -4q-18 -4 -21 -2h-2q-3 0 -5 1t-5 1q-16 -3 -37 -3.5t-50.5 0.5t-39.5 1q-2 0 -2 -3q-2 1 -4 3q-5 3 -8 8z" />
<glyph unicode="&#xf3;" d="M915 274q9 117 0 244q0 50 -1.5 110.5t-0.5 82.5q2 33 -2 98q-1 23 -3 135t-11 168q-4 4 -4 8q-5 48 -8 56q1 3 4 2l14 -31q23 -51 23 -176l4 -213v-94q6 -123 6 -138q0 -10 0.5 -57.5t0.5 -76t-2 -78t-6 -83.5t-12 -71t-20 -60q-8 -13 -21 -30.5t-18 -24.5 q-6 -8 -13.5 -15.5t-10.5 -10t-16 -11.5t-15 -10l-4 -2q-13 -13 -33 -25l-23 -12q-47 -26 -96 -37q-7 -1 -34 -7.5t-43.5 -9t-34.5 -1.5q-11 2 -46.5 5t-54.5 9l-41 19l-8 4q-2 2 0 4h14q20 -3 39 -11l4 -1q4 -1 7 -1q93 -20 151 -4l29 6q55 18 100 37q15 7 45 29 q5 3 13.5 8.5t16 11t13.5 11.5q56 47 76 108q8 21 8 54q3 15 7 41t7 40zM463 1126q43 15 61 19q2 0 2 -2h4q0 -2 7 -2l6 -6v-2q-67 -13 -90 -31q-14 -10 -31 -39q-4 -9 -5.5 -18t-1.5 -15t0.5 -19t0.5 -20q0 -48 -4 -227t0 -225q1 -16 3.5 -59t2.5 -60.5t-2 -59.5 q-3 -27 0 -51q0 -14 -10 -4q0 1 -1.5 3t-1.5 3q-6 14 -6 41q0 45 -2 76q-7 113 -2 338q5 216 4 254q-1 6 4 39q6 26 21 35v2l8 10q8 12 33 20zM625 1536q6 10 28 43.5t31.5 48t25.5 41.5t28.5 49.5t23.5 46.5q3 9 -4 9q-4 2 -19 2q-4 0 -5 3t1 5q10 10 17 8l16 -4h8 q12 4 15 -4q1 -5 -13 -29q-3 -5 -8 -17.5t-8 -17.5q-12 -18 -48 -80t-61 -90q-6 -6 -10 -14q-2 -2 -4 -8q-9 -18 -31 -15h-133q-9 0 -16 13q0 2 -4 6t0 8t6 4h8q9 0 6 -10q-4 -4 2 -4q65 3 135 0q10 0 13 6z" />
<glyph unicode="&#xf4;" d="M915 274q9 117 0 244q0 50 -1.5 110.5t-0.5 82.5q2 33 -2 98q-1 23 -3 135t-11 168q-4 4 -4 8q-5 48 -8 56q1 3 4 2l14 -31q23 -51 23 -176l4 -213v-94q6 -123 6 -138q0 -10 0.5 -57.5t0.5 -76t-2 -78t-6 -83.5t-12 -71t-20 -60q-8 -13 -21 -30.5t-18 -24.5 q-6 -8 -13.5 -15.5t-10.5 -10t-16 -11.5t-15 -10l-4 -2q-13 -13 -33 -25l-23 -12q-47 -26 -96 -37q-7 -1 -34 -7.5t-43.5 -9t-34.5 -1.5q-11 2 -46.5 5t-54.5 9l-41 19l-8 4q-2 2 0 4h14q20 -3 39 -11l4 -1q4 -1 7 -1q93 -20 151 -4l29 6q55 18 100 37q15 7 45 29 q5 3 13.5 8.5t16 11t13.5 11.5q56 47 76 108q8 21 8 54q3 15 7 41t7 40zM463 1126q43 15 61 19q2 0 2 -2h4q0 -2 7 -2l6 -6v-2q-67 -13 -90 -31q-14 -10 -31 -39q-4 -9 -5.5 -18t-1.5 -15t0.5 -19t0.5 -20q0 -48 -4 -227t0 -225q1 -16 3.5 -59t2.5 -60.5t-2 -59.5 q-3 -27 0 -51q0 -14 -10 -4q0 1 -1.5 3t-1.5 3q-6 14 -6 41q0 45 -2 76q-7 113 -2 338q5 216 4 254q-1 6 4 39q6 26 21 35v2l8 10q8 12 33 20zM610 1530l-6 8q-3 8 4 8q9 0 17 -8q2 -2 8 -2q22 -1 70.5 -1t74.5 -1q10 0 4 6l-14 23q-4 3 0 14q6 6 12 0l4 -6q2 -2 7 -9t8 -11 t5.5 -10t1 -11t-6.5 -10q-2 -2 -4 -2q0 2 -2 2v-2h-5q-6 -3 -11.5 -3t-11.5 1.5t-9 1.5q-24 3 -58 0t-55 0q-25 4 -33 12zM274 1538v6q3 6 13 6h2q3 0 3 -4t3 -4h2q7 0 31.5 -1.5t37 -2t31.5 0t33 3.5q6 2 12 8q12 18 35 41q3 3 12 0q3 -6 0 -12q-9 -8 -23 -26t-17 -21 q-5 -7 -29 -12q-19 -1 -41 0t-48 3t-38 3q-16 0 -19 12z" />
<glyph unicode="&#xf5;" d="M915 274q9 117 0 244q0 50 -1.5 110.5t-0.5 82.5q2 33 -2 98q-1 23 -3 135t-11 168q-4 4 -4 8q-5 48 -8 56q1 3 4 2l14 -31q23 -51 23 -176l4 -213v-94q6 -123 6 -138q0 -10 0.5 -57.5t0.5 -76t-2 -78t-6 -83.5t-12 -71t-20 -60q-8 -13 -21 -30.5t-18 -24.5 q-6 -8 -13.5 -15.5t-10.5 -10t-16 -11.5t-15 -10l-4 -2q-13 -13 -33 -25l-23 -12q-47 -26 -96 -37q-7 -1 -34 -7.5t-43.5 -9t-34.5 -1.5q-11 2 -46.5 5t-54.5 9l-41 19l-8 4q-2 2 0 4h14q20 -3 39 -11l4 -1q4 -1 7 -1q93 -20 151 -4l29 6q55 18 100 37q15 7 45 29 q5 3 13.5 8.5t16 11t13.5 11.5q56 47 76 108q8 21 8 54q3 15 7 41t7 40zM463 1126q43 15 61 19q2 0 2 -2h4q0 -2 7 -2l6 -6v-2q-67 -13 -90 -31q-14 -10 -31 -39q-4 -9 -5.5 -18t-1.5 -15t0.5 -19t0.5 -20q0 -48 -4 -227t0 -225q1 -16 3.5 -59t2.5 -60.5t-2 -59.5 q-3 -27 0 -51q0 -14 -10 -4q0 1 -1.5 3t-1.5 3q-6 14 -6 41q0 45 -2 76q-7 113 -2 338q5 216 4 254q-1 6 4 39q6 26 21 35v2l8 10q8 12 33 20zM809 1624l4 41q4 49 2 66q0 6 -6 6h-4q-8 0 -8 8q0 10 8 10h2q11 0 18 -10v-2q7 -17 4 -27q-2 -16 -2 -43.5t-3 -47.5t-13 -36 q-7 -17 -41 -41q-19 -14 -43 -20q-20 -7 -29 -8q-51 -9 -104 8q-17 8 -19 10q-8 8 3 8q2 0 30 -4q48 -14 92 -4q48 10 82 41q21 21 27 45zM264 1530q0 4 -2 6q0 8 6 8q8 0 8 -8v-2q0 -4 5 -4q62 4 90 4q7 0 10 8q13 39 41 60q10 7 27 -3q8 -3 -3 -10q-5 -1 -11.5 -4t-8.5 -4 q-5 -3 -8.5 -6.5t-7 -9.5t-5.5 -9t-5.5 -10.5t-4.5 -9.5q-9 -18 -30 -18q-4 0 -27 -2.5t-27.5 -2t-29.5 2.5q-14 0 -17 14z" />
<glyph unicode="&#xf6;" d="M915 274q9 117 0 244q0 50 -1.5 110.5t-0.5 82.5q2 33 -2 98q-1 23 -3 135t-11 168q-4 4 -4 8q-5 48 -8 56q1 3 4 2l14 -31q23 -51 23 -176l4 -213v-94q6 -123 6 -138q0 -10 0.5 -57.5t0.5 -76t-2 -78t-6 -83.5t-12 -71t-20 -60q-8 -13 -21 -30.5t-18 -24.5 q-6 -8 -13.5 -15.5t-10.5 -10t-16 -11.5t-15 -10l-4 -2q-13 -13 -33 -25l-23 -12q-47 -26 -96 -37q-7 -1 -34 -7.5t-43.5 -9t-34.5 -1.5q-11 2 -46.5 5t-54.5 9l-41 19l-8 4q-2 2 0 4h14q20 -3 39 -11l4 -1q4 -1 7 -1q93 -20 151 -4l29 6q55 18 100 37q15 7 45 29 q5 3 13.5 8.5t16 11t13.5 11.5q56 47 76 108q8 21 8 54q3 15 7 41t7 40zM463 1126q43 15 61 19q2 0 2 -2h4q0 -2 7 -2l6 -6v-2q-67 -13 -90 -31q-14 -10 -31 -39q-4 -9 -5.5 -18t-1.5 -15t0.5 -19t0.5 -20q0 -48 -4 -227t0 -225q1 -16 3.5 -59t2.5 -60.5t-2 -59.5 q-3 -27 0 -51q0 -14 -10 -4q0 1 -1.5 3t-1.5 3q-6 14 -6 41q0 45 -2 76q-7 113 -2 338q5 216 4 254q-1 6 4 39q6 26 21 35v2l8 10q8 12 33 20zM819 1522q-87 -8 -196 2q-13 3 -17 14v4q-3 8 6 8h6q5 0 5 -4q2 -2 4 -2q151 -5 176 -4q8 0 8 8q1 18 3.5 67t2 63.5t-3.5 58.5 l-2 2q-6 0 -6 8v2q0 6 1.5 7.5t6.5 0.5q4 0 6 -2q12 -4 15 -18q5 -60 -7 -207q0 -8 -8 -8zM270 1528h-6q-8 3 -8 10q0 8 8 8h6q2 0 6 -4q0 -2 3 -2q83 -13 172 -4q6 3 6 10l1 2q1 2 1 6q13 119 2 183q0 2 -2 2q-4 0 -4 4v4q0 6 2 7.5t6 0.5h2q12 0 12 -10q3 -4 4 -8t1 -9 t1 -8v-2q0 -27 2 -41q0 -13 -2 -35.5t-2 -33.5q-1 -8 0.5 -32t-2.5 -28q-2 -4 2 -16q-2 -2 -4 -8q-6 -8 -41 -8q-97 -4 -153 6z" />
<glyph unicode="&#xf7;" horiz-adv-x="1079" d="M995 469q25 92 2 164q-2 0 -2 2v8q0 7 9 10q7 0 10 -6q20 -45 10 -127q-3 -8 -4 -26t-4 -25q-3 -18 -29 -18q-100 -5 -401 0q-108 3 -244 0h-113q-16 0 -22 14q0 1 -1 3t-1 3q-7 10 8 10q12 0 12 -8q4 -4 6 -4q31 -1 95 0.5t86 1.5q37 0 192.5 -4.5t198.5 0.5 q22 1 97 -0.5t95 2.5zM494 786q-3 13 10 13h10q8 -1 32.5 -4t36.5 -4t32.5 -2.5t38.5 -0.5t36 3q8 3 8 10q17 130 0 205q-2 0 -2 2q0 3 -1 6t-1 6l2 2h2q2 2 4 2q5 4 10 -0.5t7 -11.5q15 -68 2 -213q-3 -20 -23 -23q-132 -12 -192 -2q-12 3 -12 12zM711 121q7 57 -9 153 q0 7 -1 18.5t-1 18.5v8q-3 9 7 9q9 0 12 -9q9 -43 12 -90q4 -88 -4 -120q-2 -13 -31 -17q-3 0 -7 -1t-7 -1q-34 0 -100 4q-51 3 -76 12q-8 0 -8 11q0 8 6 8h10q2 0 6 -4h2q72 -18 180 -8q9 0 9 8z" />
<glyph unicode="&#xf8;" horiz-adv-x="1144" d="M444 -43l-24 12q-4 4 2 4l12 -4q37 -12 96 -22l41 -6q87 -19 176 2.5t146 68.5q11 12 30.5 31.5t35 37t26.5 34.5l6 12q19 54 21 90q4 21 4 96q0 69 -8 121q-1 24 -1 52t0.5 60t0.5 48q1 22 1 62t1 57q0 17 18 32q51 34 86 52q7 4 10 12q20 90 -4 184q0 2 -2 2 q0 13 -2 15q0 4 4 4q1 0 3 1t3 1q0 -2 2 -2q9 -3 9 -10q2 -11 6 -35t5.5 -40.5t0.5 -37.5q-5 -69 -8 -82q-3 -23 -23 -31q-26 -11 -65 -35q-5 -5 -11.5 -9t-7.5 -7q-4 0 -4 -6q-3 -25 -3.5 -50.5t0.5 -63.5t1 -56v-51q0 -8 -1 -23.5t-1 -23.5q13 -151 8 -213l-6 -39 q-1 -14 -4.5 -26.5t-10 -31t-9.5 -26.5q-22 -40 -33 -51q-4 -6 -10 -12t-14 -13t-13 -12q-6 -5 -19 -18t-20.5 -20t-20 -15.5t-24.5 -14.5q-37 -21 -94.5 -34t-112.5 -13q-28 0 -54 4.5t-65 16t-49 14.5zM522 1034q-7 -45 -4 -92q3 -21 0 -41q-2 -14 -2 -45q0 -9 -10 -16 q-8 -3 -8 6v16q0 8 1.5 31.5t0.5 36.5q0 27 2 41q0 2 1 34.5t1 34.5q10 44 45.5 70t85.5 31q1 0 3 -1t3 -1q0 -2 4 -6q0 -5 -2 -5q-94 -6 -121 -77v-17zM518 473q42 21 135 70q9 9 9 -4q0 -6 -11 -17q-67 -37 -125 -63q-8 -3 -8 -13q0 -100 2 -139q0 -5 -4 -7.5t-8 1.5l-4 1 q-4 1 -4 5q0 21 1 67t1 70q-3 21 16 29z" />
<glyph unicode="&#xf9;" d="M492 -66h2q24 -2 32 -2t31 2t33 3h22q8 0 22 3.5t19 4.5q54 13 72 24q11 5 26 14.5t17 10.5q3 2 13 7t14 9q1 1 2.5 1.5t3 2t2.5 4.5q20 16 31 27q28 28 47 59q28 109 34 166q1 10 0 19t-3 18.5t-3 14.5v40q0 8 3 25.5t3 26.5q0 4 -2 16t-2 19q-1 16 4 98q1 19 -1 55.5 t-1 56.5v267q0 27 -1 84t-1 86q0 28 4 78.5t5 68.5q0 12 -1.5 34.5t-1.5 40.5t3 32q-5 0 -7 2q-8 0 -8 10q0 6 8 6l9 -2q7 -3 10 -10q0 -3 2 -7.5t2 -7.5q3 -55 -3 -154.5t-3 -152.5q2 -39 2 -114q0 -41 -1 -116t-1 -112q0 -19 1.5 -62t1 -77t-4.5 -66q5 -16 1 -80.5 t-3 -84.5q4 -36 4 -64q0 -20 -6 -41q-1 -1 -4 -10q-3 -10 -8 -39.5t-9 -44.5l-4 -6l-4 -13q-2 -4 -4 -12l-8 -10q-23 -38 -45 -55q-32 -32 -39 -37q-3 -3 -12 -6.5t-13 -6.5l-4 -4q-8 -6 -35 -18l-6 -2l-10 -6q-21 -13 -37 -15l-16 -2q-95 -22 -191 -10q-27 2 -74 14 q-5 3 -15 7.5t-15 7.5q-3 0 -3 2q0 3 5 4l51 -10q4 -2 27 -2q9 -1 24.5 -5t16.5 -4zM416 340q0 -7 -1 -18.5t-1 -18.5q0 -4 -3 -5t-5 1q-7 3 -7 18v68q0 7 -4 50.5t2 47.5q-3 4 -3.5 9.5t0.5 13.5t1 10q1 18 -0.5 78t2.5 80v18q5 133 0 176q-2 31 -2 86q0 33 0.5 92 t0.5 105.5t-1 85.5q-1 4 2 3q2 0 2 1q-6 3 -6 12q0 31 6 41q-2 0 -2 2v4q-1 8 0.5 24t1.5 26q-11 0 -14 8q0 8 8 8h2q16 0 19 -10q2 -17 2.5 -18t-2.5 -20l-2 -20q0 -5 1.5 -19t0.5 -22l-2 -2q4 -20 4 -62v-52q0 -14 0.5 -39t0.5 -46t-1 -40q0 -34 1 -115t1 -127l-6 -252 q-1 -38 4 -182zM457 1524q-1 3 -6 6.5t-7 5.5q-7 10 5 10q10 0 18 -8l2 -4q4 -4 10 -4q35 3 76 0q3 0 8 1t8 1q4 1 10 1t13 -0.5t10 -0.5q7 0 4 10l-6 14q-3 12 4 23v2q0 2 2 3q1 -2 2 -3l15 -35q6 -12 8 -22v-2q0 -4 -2 -4q-18 -4 -21 -2h-2q-3 0 -5 1t-5 1 q-16 -3 -37 -3.5t-50.5 0.5t-39.5 1q-2 0 -2 -3q-2 1 -4 3q-5 3 -8 8z" />
<glyph unicode="&#xfa;" d="M492 -66h2q24 -2 32 -2t31 2t33 3h22q8 0 22 3.5t19 4.5q54 13 72 24q11 5 26 14.5t17 10.5q3 2 13 7t14 9q1 1 2.5 1.5t3 2t2.5 4.5q20 16 31 27q28 28 47 59q28 109 34 166q1 10 0 19t-3 18.5t-3 14.5v40q0 8 3 25.5t3 26.5q0 4 -2 16t-2 19q-1 16 4 98q1 19 -1 55.5 t-1 56.5v267q0 27 -1 84t-1 86q0 28 4 78.5t5 68.5q0 12 -1.5 34.5t-1.5 40.5t3 32q-5 0 -7 2q-8 0 -8 10q0 6 8 6l9 -2q7 -3 10 -10q0 -3 2 -7.5t2 -7.5q3 -55 -3 -154.5t-3 -152.5q2 -39 2 -114q0 -41 -1 -116t-1 -112q0 -19 1.5 -62t1 -77t-4.5 -66q5 -16 1 -80.5 t-3 -84.5q4 -36 4 -64q0 -20 -6 -41q-1 -1 -4 -10q-3 -10 -8 -39.5t-9 -44.5l-4 -6l-4 -13q-2 -4 -4 -12l-8 -10q-23 -38 -45 -55q-32 -32 -39 -37q-3 -3 -12 -6.5t-13 -6.5l-4 -4q-8 -6 -35 -18l-6 -2l-10 -6q-21 -13 -37 -15l-16 -2q-95 -22 -191 -10q-27 2 -74 14 q-5 3 -15 7.5t-15 7.5q-3 0 -3 2q0 3 5 4l51 -10q4 -2 27 -2q9 -1 24.5 -5t16.5 -4zM416 340q0 -7 -1 -18.5t-1 -18.5q0 -4 -3 -5t-5 1q-7 3 -7 18v68q0 7 -4 50.5t2 47.5q-3 4 -3.5 9.5t0.5 13.5t1 10q1 18 -0.5 78t2.5 80v18q5 133 0 176q-2 31 -2 86q0 33 0.5 92 t0.5 105.5t-1 85.5q-1 4 2 3q2 0 2 1q-6 3 -6 12q0 31 6 41q-2 0 -2 2v4q-1 8 0.5 24t1.5 26q-11 0 -14 8q0 8 8 8h2q16 0 19 -10q2 -17 2.5 -18t-2.5 -20l-2 -20q0 -5 1.5 -19t0.5 -22l-2 -2q4 -20 4 -62v-52q0 -14 0.5 -39t0.5 -46t-1 -40q0 -34 1 -115t1 -127l-6 -252 q-1 -38 4 -182zM631 1536q6 10 28 43.5t31.5 48t25.5 41.5t28.5 49.5t23.5 46.5q3 9 -4 9q-4 2 -19 2q-4 0 -5 3t1 5q10 10 17 8l16 -4h8q12 4 15 -4q1 -5 -13 -29q-3 -5 -8 -17.5t-8 -17.5q-12 -18 -48 -80t-61 -90q-6 -6 -10 -14q-2 -2 -4 -8q-9 -18 -31 -15h-133 q-9 0 -16 13q0 2 -4 6t0 8t6 4h8q9 0 6 -10q-4 -4 2 -4q65 3 135 0q10 0 13 6z" />
</font>
</defs>
</svg>
