<?xml version="1.0" standalone="no"?>
<!DOCTYPE svg PUBLIC "-//W3C//DTD SVG 1.1//EN" "http://www.w3.org/Graphics/SVG/1.1/DTD/svg11.dtd" >
<svg xmlns="http://www.w3.org/2000/svg" xmlns:xlink="http://www.w3.org/1999/xlink" version="1.1">
<metadata></metadata>
<defs>
<font id="festivo_letters_no.2regular" horiz-adv-x="948" >
<font-face units-per-em="2048" ascent="1536" descent="-512" />
<missing-glyph horiz-adv-x="716" />
<glyph horiz-adv-x="0" />
<glyph horiz-adv-x="682" />
<glyph unicode=" "  horiz-adv-x="716" />
<glyph unicode="&#x09;" horiz-adv-x="716" />
<glyph unicode="&#xa0;" horiz-adv-x="716" />
<glyph unicode="!" horiz-adv-x="493" d="M129 1368q-1 7 4 27t4 32q-6 6 0 21q9 0 48.5 3t58.5 3h50.5t63.5 -4q4 -14 4 -36.5t-2 -51t-2 -41.5q4 -28 4 -43q0 -16 -1 -43t-1 -43q0 -59 -6 -90q8 -70 -2 -172q-3 -25 -3 -55.5t1.5 -67t1.5 -55.5v-43q0 -7 -1 -21.5t-1 -21.5q0 -3 1 -7.5t1 -7.5q0 -7 -2 -21.5 t-2 -21.5q-6 -75 -2 -209q-12 -11 -14 -4l-1 -3q-1 -4 -5 -5q-38 -4 -158 0q-3 5 -14 16l-9 232q-3 44 -3 124.5t-1 98.5v68q-4 34 -1.5 109t1.5 100l-4 92q1 3 -2.5 5t-3.5 5q-1 17 2.5 58.5t-0.5 56.5q0 3 -2 8t-2 8zM350 236l15 -13q-2 -25 1.5 -113.5t-4.5 -115.5 q-22 2 -30.5 2t-29.5 -2.5t-30 -3.5q-13 -1 -35 0.5t-30 1.5q-43 0 -66 2q-3 3 -4 9t-4 7q-5 20 -0.5 109t4.5 112q13 0 15 2l4 5q55 -14 194 -2zM229 854v-33q2 -23 2 -63q1 -25 -1.5 -99.5t1.5 -99.5q0 -4 1 -11t1 -11q5 -35 5 -41v-11q-4 -28 6 -34q2 -2 6 -2q12 0 12 20 v33q0 5 -1 14t-1 14q-5 42 -3.5 121t-2.5 121v64q0 15 4 61q0 35 2 51v49q0 27 -2 29q-3 40 -3 85.5t1.5 101t1.5 85.5v23q2 21 -2 65v3h-6v-3h-4q-2 0 -4 -2q-9 -6 -6 -41v-10q0 -1 -2 -154.5t2 -154.5v-76l-5 -47q0 -8 -1 -24t-1 -23zM258 102v29q0 8 0.5 17t-4.5 15 t-16 1q-7 -5 -7 -35v-25q0 -29 7 -34q11 -5 16 0.5t4.5 14.5t-0.5 17z" />
<glyph unicode="&#x22;" horiz-adv-x="600" d="M66 1434q77 13 194 4q0 -44 -6 -88q-9 -55 -6 -152q0 -38 -4 -115t-4 -110q-3 -3 -5.5 -8.5t-5.5 -8.5q-94 -4 -141 -4q-3 3 -5 6q-2 4 -5 5q-7 63 -7.5 196t-7.5 199q-3 49 3 76zM524 967q0 -3 -4.5 -5.5t-5.5 -5.5q-70 9 -145 0q-4 6 -5 11.5t0 14t1 11.5 q-2 38 -8.5 137.5t-9.5 167.5t-3 127h12q1 2 -0.5 6.5t2.5 6.5q11 0 42.5 2t50 2.5t43.5 -1t43 -7.5q-15 -336 -13 -447q1 -4 -2 -5l-2 -1q4 1 5 -4t-1 -10zM150 1008h18v2l6 129q4 31 4 137l1 52q1 52 -1 52v2q-2 2 -8 2q-9 0 -12 -6h-4v-2q4 -9 1 -55t-3 -55q0 -55 -2 -82 q-5 -36 -5 -125v-10q0 -31 5 -39v-2zM432 1384v-2q-4 -7 -4 -39v-10q0 -96 4 -125q2 -27 2 -82q0 -9 3 -55t-1 -55v-2h4q3 -6 13 -6q6 0 8 2v2q1 0 1 52l-1 52q0 106 -4 137l-6 129v2h-19z" />
<glyph unicode="#" horiz-adv-x="1157" d="M276 463l-116 -4q-25 0 -35 10q0 104 2 143q3 3 7.5 4.5t4.5 4.5q30 3 85.5 3t68.5 1q17 118 24 200q-3 -5 -36.5 -2.5t-34.5 2.5q-4 0 -37 -0.5t-39 4.5l4 121q0 7 3 19.5t3 19.5q24 -1 85 0.5t77 1.5q25 129 39 250l4 14v21q0 2 6 20q1 8 1 25t1 25q1 2 3.5 6.5 t2.5 7.5q13 50 13 80q22 4 71 3.5t72 2.5q4 -1 6 -8l2 -6q-8 -46 -18.5 -143.5t-18.5 -143.5q2 -9 2 -12.5t-2.5 -10.5t-3.5 -10q-2 -14 -4 -54t-8 -59q18 -4 94 -2.5t101 0.5q4 52 12.5 111t21 137.5t17.5 116.5l10 80q99 17 162 6q9 -15 6 -29q0 -37 -11.5 -103t-13.5 -95 q-18 -174 -28 -224q21 -1 48 -1t56.5 0.5t38.5 0.5q0 -3 1.5 -3.5t3.5 0t5 -0.5v-18q-6 -17 0 -17q0 -13 -2 -35.5t-2 -41.5t4 -37q-3 -3 -2 -7.5t-2 -7.5q-16 -11 -81 -7.5t-81 1.5q-17 -75 -30 -198q86 -4 133 -2q3 -3 9.5 -3.5t10.5 -3.5q1 -14 -1.5 -64.5t1.5 -70.5 q-1 -1 -7 -5t-7 -9q-76 3 -166 -8q-15 -48 -27 -191q0 -4 -1 -14t-1 -18l-8 -78l-8 -68q-5 -70 -8 -88h-53q-9 0 -31 -2t-31 -2q-37 0 -45 8q0 3 1 5.5t0.5 4t-3.5 4.5q3 31 23 192.5t28 242.5q3 3 6 4t4 4q-143 -12 -213 -6q-6 -29 -10 -63t-7.5 -75.5t-6.5 -64.5l-6 -16 q-1 -10 0 -19.5t-0.5 -21t-5.5 -19.5q-1 -27 -9 -81.5t-8 -78.5q-10 -10 -10 -16q-70 -9 -139 -6q-4 7 -19 14q3 40 14.5 118t14.5 118q14 164 24 217zM481 1403l-2 2l-6 -6q-4 -28 -4 -37l-4 -25l-6 -28q-4 -28 -4 -29l-21 -117q-5 -33 -10 -47q-9 -39 -12 -72 q-3 -8 -4 -17t-1 -19t-1 -15q-4 -53 -9 -73q-8 0 -26 1t-27 1q-49 4 -74 2h-8q-4 0 -6 1q-1 1 -2 1q-17 0 -23 -6q-2 -2 -2 -9q2 -10 25 -10q4 0 12.5 1t12.5 1h8q16 2 53 -2q36 -4 57 -4q-3 -18 -8 -104q-18 -177 -27 -230h-122q-11 0 -33.5 1t-34.5 1h-2v-2q0 -1 -1 -3 t-1 -3q-4 -5 -2 -12h2q20 -4 33 -4h37h49q14 -2 43 -2q28 0 30 2q-7 -46 -20 -109q-14 -56 -23 -129q-10 -149 -32 -246v-2h2q2 -2 12 -2h8v2q19 78 31 230l2 16q3 33 12 74l8 45q3 35 11 59q9 28 12 60q7 0 18.5 -1t18.5 -1q156 -13 207 -13q38 0 104 4q-4 -18 -6.5 -38.5 t-5 -46t-4.5 -42.5q-3 -19 -7.5 -55t-7.5 -53q-4 -41 -10 -60q-6 -18 -10 -55l-4 -28q0 -5 -4 -33q0 -6 -2 -8q-13 -34 -4 -46l6 -4h2q3 0 5 1.5t3 4t1.5 4.5t1.5 5.5t1 5.5v4l14 86q2 24 13 66l8 47q3 18 7 52.5t7 51.5q5 67 19 141h47q18 -2 57 -2q25 0 39 2h6q32 0 39 9 q3 6 0 12l-2 2q-8 0 -24 1t-25 1q-27 0 -41 -2h-39q-23 0 -55 4q2 33 14 94l8 58q4 28 4 38q4 40 9 54l6 35q7 20 10 59q32 0 98 4q8 0 22 1t21 1h17q4 0 20 4l2 2h-2v13l-2 2q-20 4 -27 4h-12q-15 0 -61 -4q-12 0 -31 -1t-27 -1h-16q2 59 18 186q17 119 19 166v24 q0 29 2 43q0 3 2.5 11t3.5 10q1 1 3 6.5t2.5 7.5t2 7t0.5 7.5t-2 6t-4 6t-8 4.5l-2 2v-2q-17 -42 -21 -131q0 -25 -2 -39q-3 -43 -12 -103q-19 -126 -25 -212q-47 2 -129 2q-147 0 -235 2q6 96 24 184q17 85 25 145l6 39q2 0 2 4q0 11 2 17l6 28q0 1 1 3.5t1 3.5q0 3 1.5 11 t2 13.5t0.5 12t-1 11t-3 7.5q-2 2 -8 2zM784 893l-20 -141q-19 -88 -29 -197q-52 -8 -117 -8q-82 0 -155 8l-78 6q13 83 23 191q3 24 7 72.5t7 72.5h153q167 0 209 -4zM489 819q-1 -21 -9 -89t-7 -105q20 0 89 2.5t102 1.5q2 16 8 55t10.5 74t5.5 61q1 0 1.5 1.5t1 3.5 t1.5 3q-23 -1 -91.5 -6t-111.5 -2z" />
<glyph unicode="$" horiz-adv-x="1034" d="M860 1282q12 -21 29 -68q26 -87 20 -143q-1 -10 -4 -32t-3.5 -33.5t1.5 -34.5q-6 -6 -13.5 -9.5t-19 -5.5t-16.5 -4q-2 0 -14.5 -2t-16.5 -2.5l-16 -2t-18 -2t-16.5 -0.5t-18 0.5t-17 2t-18.5 4.5q-1 -4 -29.5 -1t-36.5 3q-5 17 -5 51t-3 50q-1 7 -1.5 26t-1.5 32.5 t-5 23.5q-3 10 -9.5 18t-18 17.5t-15.5 13.5q-25 25 -62 28q-29 3 -51 0q-29 -5 -54.5 -24t-35.5 -45q-12 -28 -8 -58q1 -7 12 -32l13 -33q6 -14 20.5 -33.5t15.5 -21.5q47 -55 66 -70l25 -23q4 -3 18 -11.5t20 -14.5l19 -19q16 -12 43 -30t48 -33.5t38 -32.5l53 -57 q10 -13 24.5 -36.5t20.5 -31.5q23 -23 31 -47l12 -19q11 -20 15 -34q32 -101 26 -171t-55 -171q-15 -15 -44.5 -46t-39.5 -39.5t-35 -27t-54 -31t-75 -28.5q3 -17 3 -41t-1.5 -54.5t-1.5 -46.5q5 -1 4.5 -8t-0.5 -8q-15 -6 -35 -10t-56 -8.5t-40 -5.5q-33 4 -39 18l4 160 q-4 3 -12.5 5t-11.5 5q-151 35 -221 139q-13 13 -33 45q-35 53 -35 187q0 21 2.5 41t7 46.5t6.5 37.5q27 12 75 14t78 -1.5t85 -10.5q4 -11 4 -52q0 -5 -0.5 -29t0 -33t2 -27t5.5 -31t11 -25q16 -26 41 -35q25 -13 61.5 -16t69.5 8q18 9 38.5 35t27.5 33q0 21 10 28 q-2 9 -5 35t-9 41l-37 61q-46 51 -83 84.5t-83 57.5q-4 4 -15.5 12.5t-15.5 13.5q-4 0 -8 4t-8 3l-68 61q-8 8 -34 26t-35 33q-20 12 -49 64q-36 42 -56 98q-23 65 -14 156q-3 19 1.5 40.5t16.5 53.5t15 43q15 18 37.5 54t33.5 50l70 66q41 32 86 45q3 0 20 3t25 3 q3 21 4 69t4 68q23 8 49.5 9.5t64.5 -0.5t50 -2q-3 -19 0 -72t0 -74q13 2 41 -10q50 -11 76 -27l22 -18q4 -3 13.5 -7t13.5 -7q5 -3 12.5 -12.5t10.5 -12.5l24 -25q29 -37 41 -57zM795 1071v12q5 90 -38 168t-124 97l-27 10q-30 9 -80 20l4 66q5 98 5 110l-3 2q-3 3 -10 3 q-14 0 -14 -37v-6q0 -30 -4 -80q0 -12 -1 -31.5t-1 -26.5q-2 2 -6 2q-35 0 -101 -30l-18 -11l-15 -6q-86 -39 -102 -172q0 -3 -1 -10t-1 -10q-4 -59 -2 -84q7 -67 70 -146l6 -6q13 -15 65 -63l11 -6q28 -19 81 -68l29 -25l31 -26q7 -7 17.5 -20.5t17.5 -20.5l16 -19 q10 -13 25 -24q4 -6 14 -15.5t14 -17.5l6 -8l41 -55q30 -54 35 -76l4 -27q0 -18 2 -20q15 -85 -20 -160q-41 -75 -123 -113q-38 -12 -90 -12h-33q-44 6 -60.5 9t-49 14.5t-54.5 29.5q-27 26 -39 49q-35 72 -20 191q3 24 -4 31q0 2 -6 2q-13 0 -13 -21v-33q-22 -85 15 -163 q15 -30 30 -45q65 -72 232 -84v-101q-2 -23 -2 -67v-15q-3 -28 6 -37h4q8 0 10 2q4 4 4 31v6q0 12 1 33.5t1 32.5q0 14 0.5 38.5t0.5 44t-1 36.5q78 0 140 47q41 28 73 90q30 61 27 121q0 13 -4 45l-4 20q-4 30 -14.5 56t-18 37.5t-31.5 45.5q-28 40 -59 74l-27 29 q-40 47 -67 70l-23 20l-12 12l-43 37l-29 21l-24 20q-22 13 -47 37q-5 7 -16.5 22t-21 28.5t-16.5 27.5l-2 4q-25 48 -32 90v57q2 8 2 27l4 27q12 109 84 139q8 5 24 10l21 10q2 1 18 8t29 11t24 4q16 0 25 -6h8q16 0 66 -13l20 -6q85 -29 130.5 -102t39.5 -166 q-2 -2 -2 -18v-5q-2 -10 2 -14h2l15 4q7 7 4 37z" />
<glyph unicode="%" horiz-adv-x="1431" d="M477 809l-39 -12q-50 -13 -80 -13q-8 -1 -23 0.5t-20 1.5q-8 1 -25.5 2.5t-24 2.5l-19.5 3t-20.5 4.5t-17 6.5t-18.5 10l-22 16l-21 17q-3 9 -8 14l-8 6q-3 7 -8 9q0 6 -2.5 11.5t-8 12.5t-8.5 12q-2 3 -8 27q-6 6 -10 14q-4 7 -20 68v51q1 16 2.5 72.5t7 92t20.5 60.5 q3 19 11 34t25 35t22 26q77 54 176 63q29 0 59 -6q66 -10 109 -33q36 -20 59 -43q6 -6 10.5 -13t11.5 -19t11 -19l18 -39q3 -7 4 -24t4 -25q27 -170 -4 -289q0 -2 -6 -8q0 -10 -2 -12q-10 -17 -10 -25q-4 -4 -10 -12.5t-9 -11.5q-5 -6 -16 -15.5t-12 -11.5l-19 -16l-26 -17 h-10q-3 -1 -7.5 -4t-7.5 -4zM1348 434q14 -158 6 -237q-10 -46 -26 -76t-52 -76q-7 -4 -21.5 -17t-27.5 -18l-66 -16q-24 -5 -28 -8q-8 0 -27.5 -2t-29.5 -2t-24.5 1.5t-25.5 6.5q-23 -1 -54 11.5t-46 14.5q-23 12 -42.5 34t-29.5 39t-27 50q-38 134 -14 330q24 62 76 121 q28 28 69 43q65 26 113 26q5 0 33 -4q52 -3 90 -20l24 -9t24.5 -9.5t19.5 -10t20 -14.5l14 -12q11 -11 11 -15q1 -1 4 -1t4 -1q27 -53 33 -129zM834 743l-17 -55l-18 -49q-6 -20 -37 -92l-17 -39q-1 -3 -3.5 -17.5t-10.5 -19.5l-47 -123q-52 -138 -111 -276q-3 -8 -7 -25.5 t-9.5 -28t-15.5 -16.5q-1 -2 -1 -5t-1 -4.5t-4 -2.5q-9 4 -52.5 2.5t-54.5 -0.5q-5 0 -30.5 3t-39.5 3q-3 1 -5 -3t-5 -3q-11 2 -13.5 11.5t7.5 14.5q22 62 23 68q18 28 26 66q19 32 43.5 97.5t36.5 90.5q15 35 37.5 98.5t32.5 89.5q7 20 19.5 59t19.5 58q26 65 34 78 q3 14 7.5 27t11.5 28.5t10 24.5q5 14 15.5 41t13.5 35l8 24q8 19 23 58t18 45q5 30 25 79.5t26 73.5l8 10q6 23 22.5 62.5t20.5 50.5l23 57l24 54q2 5 4.5 14t5.5 16t7 13q29 2 41 2t46.5 -3t43.5 -3q39 0 51 -5q3 -3 9 -5t9 -5q-3 -14 -13 -35.5t-13 -29.5q-5 -14 -18 -46 t-22 -57.5t-15 -50.5q-17 -66 -33 -104q-9 -23 -26.5 -61.5t-31.5 -72t-24 -65.5l-37 -102zM543 1143q0 7 -1 18t-1 15q-4 54 -11 90q-1 2 -2 7t-3 11t-5 12q-11 31 -43 56l-20 12q-47 24 -76 29q-4 0 -13.5 1t-13.5 1q-54 -2 -100.5 -25t-71.5 -65l-14 -25q-21 -40 -21 -86 v-29q0 -12 1.5 -30.5t1.5 -26.5q0 -5 1 -15.5t1 -15.5q-12 -133 63 -184q35 -22 51 -29q55 -21 113 -12q3 0 9 1t9 1l21 4q4 4 8 4q27 16 40 24.5t31.5 25t30.5 34.5q29 50 15 197zM1278 291q14 147 -14 196q-12 18 -31 35t-31.5 25t-40.5 24q-3 0 -14 4t-14 5q-3 0 -9.5 1 t-9.5 1q-56 9 -113 -13q-21 -10 -51 -28q-75 -51 -63 -185q0 -5 -1 -15t-1 -15q0 -8 -1 -27t-1 -31v-28q0 -47 20 -86l15 -25q25 -42 71.5 -65t100.5 -25q4 0 13 1t13 1q29 5 76 29l20 12q33 25 43 55q3 7 11 31q5 28 10 90q0 4 1 15t1 18zM524 1034q-3 -60 -16 -80 q-2 -8 -25 -30q-45 -35 -67 -45l-29 -9q-5 0 -15.5 -1t-15.5 -1q-21 2 -53 13q-39 13 -53 20q-92 38 -76 178q0 7 -1 23t-1 24v64q-3 66 29 104l16 21q49 55 121 61q22 0 24 -2q55 -3 95 -37l22 -20q7 -7 19 -27q0 -1 3.5 -8.5t4.5 -13.5q10 -29 10 -72q0 -17 4 -49 q0 -5 1 -16.5t1 -16.5q0 -20 2 -22v-58zM1260 399v-57q-3 -3 -3 -23q0 -5 -1 -16t-1 -16q-4 -32 -4 -49q0 -43 -10 -72q-1 -4 -2.5 -8.5t-3 -8.5t-2.5 -6q-11 -17 -19 -26l-22 -21q-40 -34 -94 -37q-2 -2 -25 -2q-71 6 -121 62l-16 20q-32 38 -29 105v63q0 8 1 24t1 23 q-16 140 76 178q20 10 53 21q27 9 54 12q5 0 15 -1t15 -1l29 -8q24 -11 68 -45q21 -20 24 -31q14 -21 17 -80zM432 1044q4 8 6 26.5t2 19.5v47.5t-2.5 63.5t-9.5 44q-9 2 -23 8t-23 9t-23 4.5t-23 -4.5q-65 -21 -80 -56q-3 -6 -3.5 -17t0.5 -26.5t1 -19.5q1 -15 1 -46t1 -44 q3 -53 25 -68q3 -3 9 -5t7 -5q45 -17 111 22q1 8 9 16.5t9 10.5q1 1 1 5t1 7l2 2q2 2 2 6zM1180 328q8 31 7 58t-26 52q-12 10 -36.5 16.5t-45.5 4.5q-24 -1 -37.5 -9t-18.5 -17t-15 -34q-1 -4 -5.5 -10.5t-5.5 -9.5q-1 -4 -1 -14t-1 -15q-12 -131 27 -170l47 -8 q49 -6 84 25q27 21 27 53q0 7 -0.5 23t-0.5 29.5t1 25.5zM684 621l29 81q6 18 17.5 45.5t14.5 36.5l17 39q1 2 4 8.5t4 10.5q9 23 34 82t38 92q3 4 5 13.5t5 14.5q10 24 27 68t32.5 79.5t32.5 65.5l12 27q14 28 19 51v2l-2 2h-2l-11 4h1q-5 0 -7 -2q-9 -9 -12 -28l-6 -13 l-14 -28q-46 -94 -101 -240l-10 -26q-7 -18 -26.5 -63t-28.5 -71q-1 -2 -4 -8.5t-4 -11.5l-25 -57l-33 -82l-41 -117q-57 -165 -78 -209q-42 -87 -79 -199l-5 -16q-1 -7 -8 -27l-26 -57v-2q-9 -15 0 -18q2 -2 6 -2t7.5 3.5t7 10t5.5 8.5q0 4 2 6l17 37q3 4 20 57l10 27 q22 66 64 160q11 26 49 127l12 35z" />
<glyph unicode="&#x26;" horiz-adv-x="1153" d="M926 240q15 -18 36.5 -31.5t54.5 -27.5t46 -21q14 0 31 -10q-1 -24 -13 -79.5t-14 -68.5q-24 -8 -48 -9t-47 5t-42.5 14t-42 22.5t-38.5 26t-38 29.5h-4q1 3 -4.5 8.5l-13 13t-9.5 11.5q-12 -18 -29 -33t-40 -27.5t-37.5 -19t-42.5 -17.5t-35 -14q-10 -2 -35 -8.5 t-44 -9.5t-40 -2q-3 0 -6 2t-6 2t-8 -1t-8 -1q-22 3 -63.5 15.5t-59.5 15.5l-4 4q-57 14 -107 51q-3 6 -13.5 12.5t-13.5 9.5q-56 49 -86 107q-3 4 -7 14t-7 13q-2 5 -4 18.5t-8 19.5q-7 44 -10 107q5 14 5 38.5t5 37.5q-1 10 4 27.5t6 23.5q-2 2 2 2q-3 18 4 20 q16 57 72 127q32 44 92 80q3 8 -2 15t-14.5 14t-12.5 12q-3 3 -8 11.5t-8 11.5q-3 5 -11 10.5t-10 7.5q-7 7 -18.5 26t-24.5 27q-5 11 -17 41t-21 48q-1 4 1 5l1 1l-7 8q-4 54 -8 65q13 108 29 158q9 28 20 39v8q47 65 80 103q1 0 1.5 0.5t2 1t4.5 0.5q1 0 1 3t4 3 q68 60 177.5 81.5t213.5 -16.5q7 -4 24.5 -13.5t29 -18t19.5 -19.5q4 -1 7.5 -4t8 -9t7.5 -9q3 -4 20 -21q59 -73 56 -156q0 -9 1.5 -27t1.5 -33.5t-3 -29.5q-110 -32 -203 -14q-3 7 -3.5 24.5t-4.5 26.5q0 24 -25 49q-34 30 -82 39q-46 5 -75 -25t-37.5 -74t-3.5 -95 q16 -65 32 -84q10 -17 25 -23q7 -7 8 -10q51 -26 103 -37q11 -3 32.5 0t34.5 0q4 1 3 -2q0 -1 1 -2q266 13 369 8q5 -2 23 -5t26 -9q4 -13 8 -17q13 -69 6 -116q-4 -73 -16 -80q-14 1 -38 2.5t-44 2.5t-37 1q-6 -68 -6 -223q-4 -85 12 -139q10 -29 17 -39zM946 80 q4 -3 14 -8t15 -9q13 -8 26 -8q11 0 11 11q0 3 -1 5t-4 4t-5 3t-7 3t-8 3l-4 4q-37 15 -78 41q-26 16 -51 49l-4 6q-3 1 -4.5 2.5t-2 3.5t-1.5 3l-11 10q-17 28 -30 86q-2 2 -2 16q-2 23 -2 70q2 23 2 67q-5 37 0 144t0 149h10q25 0 27 -2h14q14 -2 45 -2q57 0 72 -4h2l2 2 q8 14 2 23q-84 8 -178 8h-13q-2 2 -30 2q-23 0 -25 2h-14q-7 0 -19.5 -1t-19.5 -1h-60q-8 0 -36 4q-4 0 -12.5 1t-12.5 1q-8 2 -27 2q-19 -4 -90 2q-22 0 -49 12q-36 16 -64 59t-40 89l-7 20q-30 111 -6 185q11 34 39.5 70.5t57.5 58.5q27 24 51 32q42 11 61 11q31 0 33 -2 q72 -4 120 -45t60 -107v-6q0 -13 6 -16h2q8 -3 13 2q4 4 4 22l-2 2q-9 80 -74 127q-62 45 -156 45q-61 2 -123 -45q-73 -52 -112 -139q-36 -97 14 -238q4 -16 10 -26q15 -26 25.5 -42.5t27.5 -37.5t37 -33.5t44 -17.5q-2 -2 -11 -2v2l-14 -11l-23 -18q-6 -6 -18 -10l-18 -15 l-31 -32l-12 -15q-79 -88 -88 -184q0 -4 -1.5 -12.5t-1.5 -12.5v-26l7 -56q4 -38 10 -55q3 -8 8 -26t8 -27q20 -52 64 -90l18 -17q25 -20 66 -36l22 -11q62 -16 103 -16q27 0 41 2q19 3 36 10q3 0 7.5 1t7.5 1l20 6q7 1 31 9q57 23 94 57q11 8 31 33q11 19 27 32 q7 -22 34 -61q22 -28 82 -72q12 -8 39 -20zM375 711q11 0 46 17t62 17h35q27 0 29 -2q5 0 15.5 -1t15.5 -1q41 -6 53 -4h143q4 -42 0 -182q-2 -51 -2 -156v-34q0 -68 8 -99q-23 -31 -33 -43t-31.5 -33t-43.5 -34q-6 -2 -13 -9q-3 -1 -15.5 -8t-20.5 -8q-4 -3 -8 -4t-9 -1 t-8 -1l-20 -4q-46 -15 -97 -15q-43 0 -84 13l-32 16q-3 1 -41 23l-19 12q-19 19 -35 51q-52 101 -55 221q0 26 6 50q14 72 72 139q43 53 82 80zM664 424q0 5 1 15.5t1 17.5q0 15 -2 48.5t-2 51.5q-1 10 0 43.5t-3 38.5q-15 3 -32.5 4t-39.5 1t-34 1q-1 -1 0 -2t0 -2 q-38 3 -72 -6q-73 -17 -106 -47q-23 -23 -43 -51q-1 -15 -8.5 -70t-4.5 -82q2 -19 17 -45q9 -21 33 -45q6 -6 15 -16t14 -15t14 -10.5t20 -9.5q6 -1 28.5 -4t32.5 -4t27.5 -1t32 3t27.5 10q27 15 40 27.5t23 33.5l6 15q11 30 15 100z" />
<glyph unicode="'" horiz-adv-x="319" d="M66 1323q0 7 -1.5 26t-1.5 27q-4 50 0 54q6 12 84 12t101 -4q3 -11 10 -15q0 -13 -3 -46t-3 -50q0 -115 -6 -172q-4 -50 -4 -78q-4 -92 0 -121q-84 -6 -164 0l-8 256v47.5t-4 63.5zM150 1008h18v2l6 129q4 31 4 137l1 52q1 52 -1 52v2q-2 2 -8 2q-9 0 -12 -6h-4v-2 q4 -9 1 -55t-3 -55q0 -55 -2 -82q-5 -36 -5 -125v-10q0 -31 5 -39v-2z" />
<glyph unicode="(" horiz-adv-x="499" d="M434 1620l25 -57q2 -5 7.5 -12.5t8.5 -13t2 -9.5q-1 -6 -7 -11t-16.5 -10t-15.5 -8q-44 -23 -63 -59q-6 -22 -9.5 -51t-5.5 -66t-4 -55q-3 -40 0 -82q1 -65 -6 -219.5t-4 -233.5q4 -62 4 -90q0 -17 -1 -53t-1 -53q2 -72 -10 -189q-1 -12 4 -92q1 -19 3 -65.5t4 -72 t8.5 -60t17.5 -58.5q14 -24 20 -31q22 -37 80 -69q-3 -18 -19 -45t-20 -35l-16 -43q-13 -31 -21 -37q-4 -3 -14 -1t-14 -1q-5 3 -20.5 12t-24.5 12q-8 5 -24 10t-21 7q-13 7 -30 23.5t-28 23.5q-42 50 -57 82q-3 1 -3.5 4t1.5 4q-6 2 -6 6q-17 28 -21 96q-8 45 -4 101 q6 70 2 207q-12 147 -6 211v106q0 17 2 50t2 50t-4.5 57.5t-3.5 61.5q0 20 3 55t3 52q0 28 -4 82q-7 92 4 245q2 21 3.5 54.5t4 61.5t8.5 52q6 23 31 64q5 8 11.5 20.5t12 21t11.5 15.5q27 35 117 86q26 15 49 21h4q1 0 12 -11q3 -3 6 -5q4 -2 5 -5q14 -20 28 -51zM215 760 q-4 -64 0 -262q4 -82 4 -131q0 -36 -2 -54v-41q0 -7 -1 -19.5t-1 -19.5q-2 -18 -2 -55q10 -129 25 -176q24 -78 81 -123q3 -3 13 -8q4 0 10 -6q2 0 8 -6t8 -6h4l3 2q7 7 4 10q0 3 -1.5 5.5t-4.5 5t-5.5 4t-7 4t-6.5 3.5q-1 0 -2 1t-2 1q-2 0 -2 2q-15 12 -27 27 q-11 18 -22 25q-34 58 -43 139l-4 24q-6 75 -6 80q0 25 2 27q0 4 1 12.5t1 12.5v10q0 3 -1 6t-1 6q2 2 2 23v2q0 4 1 12t1 12q0 5 1 14.5t1 14.5q0 24 -1 74t-1 75q-4 78 -4 123q0 71 4 215q6 88 6 281v117q-5 83 0 116q2 38 33 107v4q26 58 57 84h2l16 18q5 0 9 4l6 7 q15 15 16 20v2q-3 0 -6 1t-4 1q-2 0 -2 2q-15 0 -39 -24l-8 -11q-28 -24 -43 -47.5t-35 -70.5q-22 -49 -25 -93q-3 -18 -3.5 -36.5t0.5 -44.5t1 -37q0 -13 1 -37t1 -37q-2 -23 -2 -68q0 -178 -8 -323zM453 1559q0 4 -4.5 3t-4.5 -3h9z" />
<glyph unicode=")" horiz-adv-x="487" d="M360 287q0 -16 -0.5 -45t-0.5 -53t1 -46q0 -12 1.5 -32.5t1.5 -36.5t-3 -31l-16 -104q-28 -61 -72 -99q-40 -40 -55 -49q-77 -35 -90 -39l-21 -4l-10 -8q-12 5 -26 37q-3 7 -7.5 23.5t-7.5 23.5q-2 5 -14 37.5t-16 52.5q6 3 6 6q6 13 28 24.5t27 16.5q15 11 37 55 q3 4 7 14.5t7 14.5q-1 34 3 100.5t5 83.5h-2q3 45 -3 126.5t-5 121.5q0 26 4 31q-2 2 -2 16q-2 34 4 150q-6 33 -1.5 99t1.5 99q-1 25 -1 51t0.5 55t0.5 44v125q0 12 -1 32.5t-1 28.5q11 162 -39 238q-10 10 -10 18q-20 14 -33 37q-10 6 -16 11.5t-11 12t-10 11.5 q49 77 72 160q4 0 10 -6h11q7 -7 18 -9q13 -10 41 -22t39 -19q29 -16 63 -53q9 -18 17 -18q0 -4 8 -16.5t14 -18.5q3 -1 10 -19t15.5 -50.5t15.5 -67.5q9 -36 5 -156.5t-1 -169.5q0 -5 1 -16.5t1 -16.5q3 -30 3 -63t-1.5 -71.5t-1.5 -59.5q0 -128 -4 -166q0 -46 2.5 -177 t1.5 -214zM279 760q-9 164 -9 323q0 45 -2 68q0 13 1 37t1 37q0 11 1 37t0.5 44.5t-3.5 36.5q-3 47 -24 93q-20 47 -35 70.5t-43 47.5l-8 11q-24 24 -39 24q-2 -2 -4 -2q-1 0 -3 -1t-6 -1v-2q1 -4 3.5 -7.5t7.5 -7.5t6 -5l6 -7q4 -4 8 -4l17 -18h2q31 -26 57 -84v-4 q31 -69 33 -107q5 -33 0 -116v-117q0 -193 6 -281q4 -144 4 -215q0 -45 -4 -123q0 -25 -1 -75t-1 -74q0 -5 1 -14.5t1 -14.5q0 -4 1 -12t1 -12v-2q0 -21 2 -23q0 -3 -1 -6t-1 -6v-10q0 -4 1 -12.5t1 -12.5q2 -2 2 -27q0 -5 -6 -80l-4 -24q-9 -81 -43 -139q-13 -7 -23 -25 q-14 -17 -26 -27q0 -2 -2 -2t-4 -2q-2 -1 -6.5 -3.5t-7 -4t-5.5 -4t-4.5 -5t-1.5 -5.5q-4 -4 4 -10q0 -2 2 -2h4q2 0 8 6t9 6q6 6 10 6q8 4 12 8q58 47 82 123q15 47 25 176q0 37 -2 55q0 7 -1.5 19.5t-1.5 19.5v41q-2 18 -2 54q0 29 5 131q4 198 0 262zM150 229h-5h5z" />
<glyph unicode="*" horiz-adv-x="868" d="M752 1257l16 -8q10 -20 22 -60.5t17 -53.5q1 -4 -2.5 -7t-3.5 -6q-114 -45 -209 -98q17 -25 34.5 -55.5t38 -70.5t31.5 -60q1 -3 5 -4.5t4 -4.5q-4 -6 -10 -13t-11.5 -11t-15 -11t-13.5 -10l-28 -18q-19 -14 -31 -14q-9 2 -39 39l-18 16q-18 23 -50.5 62.5t-42.5 52.5 q-6 -3 -10 -11q-3 -1 -4 0.5t-4 1.5q-19 -17 -39.5 -38.5t-31.5 -35t-34 -44t-30 -39.5q-9 -3 -20 1.5t-17 4.5q-1 5 -14.5 11t-16.5 13q-3 0 -5 2.5t-3 2.5q-4 6 -14 12.5t-13 9.5q-2 1 -4.5 2.5t-5.5 1.5q-2 2 -2 4q0 1 -1 5t-1 8l33 49q23 39 51 108q16 26 14 39 q-1 5 -14.5 12t-21.5 9q-10 4 -22.5 7.5t-18.5 6.5q-24 16 -107 51q-6 2 -22 2l-5 17q2 5 12 36.5t19 47.5q0 4 2 10t2 10q8 8 11 23q6 -1 44.5 -11t61.5 -14q34 -5 37 -6q88 -29 98 -31q2 30 15 103q2 14 6.5 62t9.5 75q28 11 76 2q40 -3 51 -10q13 -75 24 -224 q24 -4 65 10.5t48 16.5q14 3 49.5 9.5t57.5 12.5zM633 1143q15 9 29 12q3 0 9 1t9 1q31 4 37 17q3 10 -8 18h-2q-13 -8 -33 -8q-18 -6 -19 -6q-19 -6 -30 -11l-21 -8l-4 -2q-19 -6 -50 -17t-56.5 -19.5t-49.5 -14.5l7 92q9 99 6 191v2h-11q-6 0 -8 -2h-2q-4 -4 -4 -56v-18 q0 -5 -1 -14.5t-1 -14.5q-4 -130 -10 -184q-33 8 -90.5 27t-75.5 24q-23 8 -67 23t-54 18h-2v-2q-6 -3 -6 -14q1 -5 29 -17q1 0 3 -1t3 -1q15 -6 33 -10q59 -21 225 -74q-32 -51 -82 -112q-8 -9 -22.5 -29t-18.5 -25l-25 -32l-8 -11q-13 -18 -12 -22q0 -10 14 -10l2 2 q6 0 19 18l6 8l20 29q19 27 49 61q34 37 60 82q0 2 2 4l16 25q-2 0 4 -6q4 -4 4 -6q41 -52 54 -72l10 -12l12 -15l8 -18l9 -19q8 -13 47 -63q13 -16 22 -16q7 0 13 6v2q-3 8 -25 35l-18 22l-19 31q-3 9 -8 14q-5 16 -8 19q-11 17 -29 36l-16 23l-11 12l-32 45 q13 5 65.5 22.5t91.5 31.5q1 1 21 8z" />
<glyph unicode="+" horiz-adv-x="1073" d="M946 719q3 -23 1 -81t1 -83q-6 -2 -12 -8q-44 -5 -123 -6t-127 -6q-31 9 -51 -11q-2 -96 -2 -278q0 -7 1 -11t-3.5 -6t-6.5 -2.5t-8.5 -1t-9.5 -0.5q-47 -8 -117 -4q-46 0 -55 4q-5 267 -4 299q-43 4 -144.5 7t-148.5 8q-3 0 -3.5 1.5t0 3.5t-0.5 5t-4 3t-4 3 q-4 5 -0.5 24t2.5 25q0 10 0.5 31t0.5 38.5t-1 33.5q12 9 14 16q191 12 287 6q-7 98 4 234q1 7 1 23t1.5 28t5.5 22q-6 6 -2 17q11 -1 61.5 -1t82.5 -3q28 0 30 -2q4 -1 9.5 -7.5t9.5 -7.5q0 -15 -2.5 -89.5t-1.5 -129t8 -78.5q1 0 74.5 0.5t74.5 -0.5q89 -11 142 -4 q2 -2 4 -4.5t2.5 -3.5t2.5 -2.5t4 -1.5h7zM844 635q3 0 5 -1t5 -1h10q13 0 17 4v2q3 7 -2 12q-6 6 -23 6h-2q-2 2 -29 2q-36 0 -102 -4q-15 0 -45 -1t-45 -1q-36 0 -86 4q-3 67 0 138q0 154 -8 204v2h-2q-13 0 -17 -4q-6 -6 -2 -24q2 -2 2 -10q3 -22 3.5 -48t-0.5 -64.5 t-1 -53.5q-3 -75 0 -140h-18q-8 0 -25.5 -1t-25.5 -1q-47 -5 -58 -4q-25 0 -39 2q-9 0 -27 1t-26 1h-12q-8 -2 -27 -2q-12 0 -33 -1t-32 -1h-25l2 -2v-6q0 -10 2 -12h2q20 -4 39 -4q23 0 37 2h12q14 2 35 2q12 0 30 -1t25 -1q18 -2 50 -2q26 0 28 2h19q32 4 49 4q16 0 18 -2 q0 -172 8 -303v-6q0 -25 13 -27q4 0 8 4q7 7 2 43q-2 2 -2 12q-3 16 -3.5 32t0.5 38t1 31v75v25q-5 57 0 76q11 0 39 -1t45 -1q49 0 143 4q45 0 68 2z" />
<glyph unicode="," horiz-adv-x="497" d="M369 217q5 -104 4 -141q-1 -10 -1 -20t0.5 -21t0.5 -17q-6 -24 -6 -26q-5 -24 -29 -98.5t-27 -118.5q-3 -1 -3 -4.5t-3 -6.5q-16 -1 -58.5 1.5t-58.5 -1.5q-2 2 -8 9t-12 8q5 33 13.5 106t13.5 109h-56q-3 13 -12 16q-2 51 -2 71t2.5 70t3.5 80q14 3 29.5 5t27.5 3 t31 0.5t27.5 -0.5t30 -1.5t26.5 -2t28 -2.5t25 -2q2 -2 5 -8.5t8 -7.5zM238 141q-17 0 -45 -4l-5 -10l5 -10h32q4 0 12.5 1t12.5 1q8 0 19 -1t14 -1q-2 -23 -2 -45l-2 -21l-3 -14q-12 -106 -24 -148q-9 -32 -19 -75v-2l9 -5q11 0 16 19v2l6 25q9 32 19 75l18 109q2 2 2 14 q0 3 1 8.5t1 8.5q0 4 2 4q0 7 -1 7t-1 7v51h-2q-14 2 -31 2q-8 0 -19 1t-15 1z" />
<glyph unicode="-" horiz-adv-x="788" d="M662 731q4 -28 5 -59.5t0 -75.5t-1 -57q-18 -13 -25 -15q-4 -1 -11 -1t-16 0.5t-14 0.5l-41 4q-15 0 -44 -2t-44 -2q-38 3 -115 1t-112 1q-12 1 -37 3.5t-35 2.5t-35 -2q-3 1 -5 5t-5 4q1 32 0 86.5t0 81.5q1 3 6.5 4.5t5.5 5.5q62 1 369 16q21 4 78.5 0.5t75.5 -2.5z M201 621h164q50 -3 94 -3h28q27 0 41 -2q3 0 11 -1t12 -1h18q27 0 33 9q5 5 2 8q0 10 -14 10h-41q-44 4 -195 4h-41q-18 0 -28 2h-62q-4 0 -7 -1l-3 -1q-23 0 -29 -6q-3 -8 0 -14q4 -4 17 -4z" />
<glyph unicode="." horiz-adv-x="485" d="M350 10l-12 -16q-154 -5 -211 12q-4 66 -4 111q0 38 4 116q96 19 221 3q16 -31 12 -109t-10 -117zM223 129v-29q0 -8 -0.5 -17t5 -14.5t16.5 -0.5q6 4 6 34v25q0 31 -6 35q-15 7 -19 -5t-2 -28z" />
<glyph unicode="/" horiz-adv-x="864" d="M801 1411l-31 -80q-34 -95 -41 -110l-41 -113q-13 -40 -20 -55q-2 -5 -7 -16.5t-7.5 -21.5t-2.5 -20q-5 -3 -8.5 -10.5t-5.5 -9.5q-1 -4 -10 -32t-15 -42l-73 -188l-21 -49q-3 -10 -11.5 -30t-12.5 -34l-13 -10q-3 -12 -9 -29t-9 -31q-9 -20 -43 -114q-12 -41 -37 -99 q-7 -19 -19.5 -57.5t-19.5 -58.5q-15 -39 -45.5 -115.5t-34.5 -85.5q-3 -3 -8 0q-3 -1 -4 -4.5t-4 -3.5q-32 3 -89.5 0t-88.5 0q-15 3 -2 16q-1 1 -3 1.5t-3.5 2t-0.5 4.5q57 160 136 357q9 24 30 84.5t35 93.5q14 29 35 88.5t35 87.5q11 24 69 174q7 15 15.5 45.5 t15.5 46.5q18 46 98 264q4 10 27 76.5t41 98.5q5 -1 6 2q2 4 4 6q142 5 197 -2q11 -12 -4 -27zM184 98q0 -1 -1 -3t-1 -3l-4 -8t-3.5 -8t-0.5 -6.5t2.5 -6.5t7.5 -4l9 2l12 33q20 63 49 131l37 94q18 51 26 70q9 27 15 33l18 47l58 158q19 41 34 92q14 44 35 84q2 5 14 33 t17 43q39 104 104 260q17 41 47 117.5t43 107.5v2h-2l-4 4q-4 4 -10 4h-2v-2q-21 -29 -27 -53q-4 -18 -10 -27l-33 -78l-16 -45q-4 -9 -12 -28.5t-11 -26.5l-24 -65l-43 -103q-9 -26 -23 -59l-26 -62q-83 -209 -103 -268l-10 -29l-18 -57l-19 -39l-18 -41l-31 -82l-6 -16 q-51 -119 -70 -195z" />
<glyph unicode="0" horiz-adv-x="923" d="M172 115q-10 11 -18 24t-18 32t-15 28q-18 41 -23.5 89.5t-6 128t-1.5 107.5q-5 117 -4 138q3 135 0 272q0 19 -1.5 50.5t-1.5 56t3 46.5q1 13 5 36t5 34q3 12 5 34.5t5 33.5q10 28 23 53q4 11 11.5 23t17.5 27t14 22q41 38 78 57q35 21 98 33h2q0 2 2 4q154 20 226 -4 q2 -1 8.5 -4t11.5 -4l23 -5q3 -1 9 -5t9 -5q2 -2 20 -8q7 -3 17.5 -11.5t17.5 -11.5q3 -5 14 -12t15 -12q86 -95 98 -182q17 -147 13 -416q0 -65 2 -98q10 -118 2 -211q0 -12 -1 -31t-1 -27t2 -25.5t2 -25.5q0 -21 -3 -42.5t-8.5 -45.5t-7.5 -37q-6 -10 -19.5 -36t-25 -43.5 t-26.5 -32.5q-54 -58 -107 -78q-41 -17 -67.5 -25.5t-67.5 -14.5t-82 -1l-39 6q-8 2 -20.5 3.5t-20.5 4t-14 8.5q-4 0 -15.5 2.5t-15.5 1.5q-8 7 -28.5 17.5t-28.5 17.5q-2 1 -11 7.5t-11.5 8.5t-10.5 8t-11.5 9.5t-9.5 9t-10 10.5t-8 11zM270 172l15 -10q26 -19 96 -49 l16 -4q5 -3 11 -5q24 -6 53 -6q11 0 21.5 1t23 2.5t20.5 2.5q107 21 166 123l2 2q11 22 17 53.5t7.5 56t3.5 65.5t3 61l2 14q10 139 2 232q-6 49 -2 139v131q0 35 -2 66v36q0 73 -4 91l-12 40l-4 15q0 1 -21 37q-4 12 -10 18q-73 73 -144 70q-18 4 -49 4h-18q-15 3 -20 3.5 t-25 -2.5t-25 -3q-12 0 -14 -2q-52 0 -93 -33.5t-67 -85.5l-6 -18q-14 -35 -14 -95q0 -18 2 -20q0 -9 -1 -29t-1 -29q-2 -2 -2 -18l-7 -76v-14q5 -37 5 -221q2 -6 2 -51q0 -22 -1 -43t-1 -33q0 -5 -1 -21t-1 -35v-20q0 -9 -1.5 -26.5t-1.5 -26.5v-19q0 -80 27 -186 q11 -26 19 -39q4 -13 34 -43zM262 215q-24 24 -36.5 94t-11.5 136.5t5 115.5v21q2 2 2 18q0 3 1 9t1 9q0 22 -2 64t-2 63v31q0 48 -4 142q-2 2 -2 20v18q0 23 2 33q0 19 2 21q11 59 4 96v37l4 37l4 18q11 54 55 93.5t99 43.5q3 0 9 1t9 1h21q2 2 18 2q17 0 49 -4h23 q3 0 11 -1t12 -1q77 -6 127 -71q6 -7 8 -11l14 -24l6 -23l4 -14q15 -50 11 -164v-293q0 -19 4 -51q4 -46 4 -66q0 -21 -1 -43.5t-2.5 -50t-2.5 -43.5q-2 -2 -2 -28q-2 -16 -5 -57t-5.5 -60t-8.5 -49t-16.5 -51.5t-26.5 -40.5l-4 -5q-29 -29 -41 -36q-29 -20 -100 -33 q-1 0 -3 -1t-3 -1q-28 -4 -37 -4q-3 0 -7.5 1t-7.5 1l-32 8q0 2 -5 2q-12 0 -16 2q-56 17 -94 55l-17 17q-11 11 -14 16zM340 1067q0 -20 1.5 -71.5t0.5 -80.5q-2 -88 -2.5 -106t2 -108t2.5 -109q0 -13 1 -32t1 -30q4 -32 4 -87.5v-69.5q5 -56 8 -64l21 -28q18 -22 24 -27 q27 -16 60.5 -14t56.5 16q39 24 53 63q6 15 8 29.5t0.5 40t-1.5 33.5q0 14 -1 38.5t-1 35.5q-1 37 2.5 136t-0.5 128q-3 46 -1 158t-1 155q0 44 -7 60q-12 28 -36 45q-17 13 -44.5 21.5t-50.5 6.5q-26 -1 -56 -23.5t-38 -45.5q-6 -16 -6 -70z" />
<glyph unicode="1" horiz-adv-x="665" d="M283 997q-5 122 -11 156q-16 -6 -46.5 -18t-49.5 -19.5t-44.5 -18.5t-45.5 -22q-20 7 -23.5 35.5t0.5 58.5q0 11 -2 42t0 50t9 37q4 0 6.5 -4t5.5 -4q-1 2 -3.5 6t-2.5 7q4 1 8.5 3.5t9 6.5t8.5 6l54 24l77 50l43 20q36 21 41 29q20 0 106.5 -3t96.5 1q4 -4 5.5 -12.5 t4.5 -12.5q1 -16 -4 -98q-1 -19 4 -125q3 -31 2.5 -97t2.5 -104q0 -5 -1.5 -14t-1.5 -14q0 -19 2.5 -57t2.5 -58q1 -11 0 -30.5t0 -31.5q0 -8 2 -26t2 -27q1 -70 -0.5 -192t-1.5 -160q0 -8 6 -113q0 -5 -6 -104q-4 -102 -4 -150q-7 0 -7 -10q-147 -13 -211 -6h-13t-13 4 q-6 6 -6 27q0 11 1.5 33t1.5 41t-3 36q-3 33 -3.5 70.5t0.5 89t1 70.5v227q0 13 0.5 35.5t0.5 39t-1 31.5q0 15 -1.5 65t-0.5 79v39q-1 23 0.5 60t1.5 52zM430 522q0 73 -4 199q-5 69 0 237v68q1 14 -4 107q-8 53 -4 129v41q0 30 -10 30h-7l-59 -22l-14 -6l-95 -41 q-16 -5 -44 -19.5t-44 -19.5q0 -2 -6 -2q-2 -1 -6.5 -3.5t-6.5 -3.5t-5 -4t-2 -4.5t2 -5.5q10 -10 24 2q4 4 9 4l30 13h4q15 5 46 21.5t47 21.5q11 5 35.5 15.5t42.5 18t36 11.5q-1 -33 4 -191q4 -54 4 -84v-28q-2 -2 -2 -21v-65l5 -295l2 -15q0 -17 1 -49t1 -47v-53 q-4 -110 -2 -166v-39q0 -16 -2 -18v-19q-1 -15 2 -45t2 -47q0 -6 -2 -8q0 -29 4 -33t6 -4h2q10 2 10 33v4q1 25 -1 65.5t-1 55.5q0 3 1 9t1 9q0 16 2 18q-9 96 0 193v12q0 7 -1 20.5t-1 20.5z" />
<glyph unicode="2" horiz-adv-x="880" d="M788 250q4 -3 8 -14.5t7.5 -27.5t5.5 -22q5 -22 0 -84q0 -24 -12 -86q-2 -3 -3.5 -8t-3 -8.5t-5 -6t-9.5 -1.5q-4 -1 -2 4q1 2 0 2q-17 4 -102 0t-107 -4q-19 0 -54 1t-54 1q-71 0 -197 -4q-3 -1 -4 1t-4 1q-28 -3 -87.5 0t-86.5 0q-4 2 -2.5 9t0.5 9t-3.5 6t-2.5 7 q-3 8 -3.5 16.5t0.5 22t1 20.5q0 23 -0.5 37.5t-1.5 18.5t-1 10.5t1 17.5t4 37q2 16 28 106l13 43q1 3 5 6.5t5 6.5q3 4 4 13.5t4 12.5q4 4 4 8v7l6 8l4 16q1 3 5.5 5t5.5 5l4 15l22 37q19 33 29 43q4 10 10 19.5t17.5 23t13.5 16.5l31 47q13 18 34 49.5t29 42.5 q4 2 10.5 12t14.5 13q3 10 7.5 17.5t12 15.5t10.5 12q8 10 20.5 29.5t24 35t23.5 27.5q23 40 47 96q4 9 8 28t6 26q17 73 4 108q-8 26 -44 51t-64 21q-8 0 -25 -10q-32 -14 -49 -41q-2 -7 -12 -35.5t-14 -46.5q-9 -40 -9 -95q0 -14 -4 -34q-37 -11 -83 -12.5t-74 1t-80 9.5 q-3 1 -5.5 4.5t-5.5 3.5q-3 67 0 135q12 93 21 121q12 34 31 67q3 4 6 14t6 13q3 5 10.5 10.5t9.5 7.5q3 4 10 15.5t11 15.5l25 19q76 53 133 63l49 8q15 0 43 -4q7 0 24.5 1t30.5 0.5t27 -3.5q44 -9 84 -24q96 -42 182 -146q47 -82 45 -158q0 -47 -2 -65q-5 -36 -43 -152 q-4 0 -7.5 -6.5t-6.5 -9.5q-9 -28 -37 -69.5t-33 -49.5q-1 -3 -2.5 -4.5t-4.5 -3.5t-5 -4q-1 -4 -3.5 -8.5t-7 -9.5t-6.5 -7q-8 -11 -20 -30.5t-23.5 -35.5t-25.5 -28q-10 -17 -35 -45t-33 -39l-22 -33q-10 -11 -19.5 -24.5t-20.5 -31.5t-16 -26q-60 -92 -78 -186 q86 6 256 -6h74h43q5 0 19 1t23 0.5t13 -3.5zM547 805l43 72q28 51 33 57l10 14l16 27q5 12 19 74q9 40 6 77q-5 47 -28 89t-58 67q-3 1 -7.5 4t-7.5 4t-7 4t-7 4q-60 41 -176 41q-3 0 -10.5 -1t-10.5 -1q-84 -12 -133 -67l-12 -19q-39 -42 -43 -114v-21v-7.5v-8v-7.5 t0.5 -7.5t1 -6.5t1.5 -6.5t2.5 -5t3.5 -4t5 -2.5q8 -3 9.5 8.5t0 26.5t1.5 26v21q0 56 24 82q2 6 8 12l9 12q43 55 122 64h25q93 3 156 -33l16 -8q36 -22 51 -49q23 -29 33 -62q12 -37 7.5 -91t-21.5 -85q-3 -9 -15 -24q-6 -6 -10 -19q-10 -11 -33 -53l-43 -76l-108 -168 l-31 -49q-63 -91 -78 -119q-3 -7 -15 -27.5t-17 -33.5q-43 -73 -50 -88q-9 -17 -13 -42t-4.5 -42.5t0.5 -53.5t1 -49q1 -4 -0.5 -14t2.5 -12q59 -2 182 2q143 5 195 0q6 0 25 1t28 1q14 -2 41 -2h8q1 0 3 -1t3 -1q8 0 11 8v10q-8 8 -29 8q-12 0 -14 -2h-4q-238 0 -293 -4 q-67 -3 -133 0v49q-6 55 4 93.5t39 101.5q7 17 17 34t22 34.5t16 23.5q46 82 94 150l64 98l14 24z" />
<glyph unicode="3" horiz-adv-x="919" d="M834 395q0 -260 -199 -370q-11 -3 -66 -21l-24 -8q-4 -4 -17 -4h-20q-26 0 -33 -4q-45 2 -73.5 4.5t-69.5 11t-69 22t-57 38.5t-48 59l-25 20q-16 45 -22 62t-14 51t-11 68q0 19 6 62.5t6 72.5q0 12 -2 14q74 19 144 19q65 0 92 -15h4q8 0 8 -53q0 -9 -1 -29.5t-1 -29.5 q0 -48 31.5 -97t81.5 -49q41 0 67.5 12t37 32.5t14 39t3.5 39.5t1 25v18v66q0 100 -35.5 135t-147.5 35q-3 0 -9 -1.5t-11 -1.5q-15 38 -15 93q0 44 17 114q26 8 83 15t79 14q15 10 23.5 23t11.5 35t3.5 32.5t0.5 38.5q0 105 -9.5 152.5t-33 64.5t-76.5 17q-57 0 -86 -49 t-29 -115v-33q0 -22 -1 -29.5t-6 -20.5t-19.5 -17.5t-38.5 -4.5q-1 0 -29 4q-9 -4 -45 -4q-42 0 -107 10v5q0 5 -6 10t-6 12v14q0 12 -2 39t-2 43v19q-1 19 -1 31t3.5 30.5t9.5 32.5l8 23q13 45 76 122l15 13q104 104 280 104q42 0 95 -11t91 -32l17 -16l45 -29 q14 -18 23 -32.5t23.5 -42t23.5 -42.5l20 -41q23 -57 23 -200q0 -67 -31.5 -143t-73.5 -105q-18 -13 -20 -17q113 -56 125 -350zM598 743l-14 11q20 7 43 24l10 8q29 28 35 48l6 14l14 35q33 70 33 188q0 90 -25 154l-10 16l-49 59q-22 22 -53 36.5t-55 20t-64 11.5h-35 q-2 -2 -16 -2q-110 -14 -170 -82l-21 -29q-34 -96 -34 -151q2 -6 3.5 -19.5t4 -22.5t6.5 -9q12 0 12 16q0 5 -2 17t-2 20q0 10 2 12q0 98 33 131l20 27q49 49 140 63l18 4q121 0 186 -51l15 -14q13 -11 28 -29l11 -18q34 -52 34 -154q0 -69 -12 -135l-16 -53q-1 -5 -4 -11 l-4 -8l-7 -16q-12 -35 -36 -53l-15 -10q-44 -29 -88 -29h-18h-21q-30 0 -32 -14q0 -19 40 -19q8 0 26.5 2t27.5 2q13 0 24.5 -3t21.5 -10t15.5 -12t15.5 -16t13 -14l10 -14q10 -12 21 -31l12 -19q34 -63 45 -237q0 -96 -49 -160l-10 -16q-21 -40 -65.5 -73.5t-98.5 -33.5 q-17 0 -19 2h-41l-20 4q-52 8 -96.5 36t-55.5 69l-8 18q-20 46 -20 82q0 64 8 72q0 31 -6 41h-2q-21 0 -21 -58l-4 -24q-3 -46 27 -123l10 -25q15 -45 67 -69l17 -13q30 -17 100 -28q19 0 21 -2h49q74 0 133 59l16 17q2 2 10.5 12t12.5 16l10 17q29 51 43 88t14 82v20 q-13 175 -49 240l-8 12q-2 4 -12.5 19.5t-13 19.5t-11 16t-13 16.5t-11.5 12.5t-13.5 12.5t-13.5 7.5z" />
<glyph unicode="4" horiz-adv-x="952" d="M868 485q0 -2 2 -2l4 -1q4 -1 7 -1q8 -53 6.5 -121.5t-13.5 -111.5q-13 -5 -62 -4.5t-56 0.5q-3 -32 0 -98.5t0 -108.5q0 -19 -11 -45q-134 -16 -231 8q-6 25 -6 125q-4 84 -2 121q-57 5 -232 0q-18 0 -52 1t-52 1q-6 0 -49 -3t-51 1q-13 99 -7 151q0 26 3 41t12 27 q13 32 38.5 89.5t45 105.5t33.5 94l45 102q9 19 41 109q9 28 29.5 79.5t29.5 79.5q2 5 5.5 16.5t7 21t7.5 16.5l13 22q4 18 10 27q3 8 12.5 23.5t12.5 23.5q8 15 15.5 44t10.5 38q22 59 27 82q41 11 106 14q60 2 144 -8q43 -5 49 -14q1 -3 -0.5 -9t-1.5 -8q-2 -29 -2 -41.5 t2.5 -45t3.5 -44.5q0 -34 -4 -96q0 -2 2 -30t-2 -30q4 -3 1 -45.5t-3 -48.5q0 -4 1 -7l1 -3q0 -1 -6 -55q-1 -22 1.5 -97t-1.5 -94q4 -39 5 -82.5t0.5 -102t0.5 -93.5q18 -3 51.5 0t50.5 0q8 -8 8 -13zM649 387q0 67 -4 203q-4 126 -4 186q0 14 -1 39t-1 39q-3 58 0 117 q0 15 2.5 88.5t2 87t-2.5 80.5q11 65 -2 96q-5 8 -47 8q-27 0 -29 -2h-2v-2q-8 -25 -29 -59l-14 -31l-31 -61q-36 -71 -47 -97l-14 -39l-29 -71q-20 -36 -55 -125l-41 -90q-19 -40 -45 -109l-41 -90q-6 -13 -18 -38.5t-21 -46.5t-16 -42v-2q3 -1 3 -2.5t-1.5 -4.5t-1.5 -5 v-2q0 -4 1 -12.5t1 -12.5v-22h2q16 -7 43 -7h51q16 2 51 2h39q18 0 54 1t53 1h172q-2 -31 -2 -88v-63q0 -11 -1 -30t-1 -31q-5 -45 -5 -56v-2q0 -13 5 -18q2 -2 6 -2q16 0 16 172l4 118h51q55 0 78 -2h21q9 0 18 4t0 13q-6 6 -24 6q-2 2 -5 2h-90q-35 0 -49 2zM618 1024 q-5 -75 0 -299q1 -15 4 -72.5t3 -89.5v-4q0 -117 2 -172l-209 -4q-160 0 -232 -2v20.5t-4 24.5q13 40 70 156l4 8q12 21 23 55q11 30 38 82l13 27l14 34q58 147 80 191q27 61 29 68q3 6 12 22t12 25q4 10 13 34.5t16.5 40t17.5 31.5q6 13 24.5 49t26.5 56l12 2l9 1.5t4 0.5 l18 -4q0 -9 1.5 -28t1.5 -28q4 -141 -3 -225zM508 494q0 31 3.5 124.5t3 159t-6.5 125.5v2l-92 -246q-13 -39 -21 -57q-8 -23 -24 -61t-19 -45q16 0 50 1t57.5 0.5t48.5 -3.5z" />
<glyph unicode="5" horiz-adv-x="919" d="M823 567l4 -57q1 -13 -0.5 -38.5t-1.5 -35.5q0 -17 -1 -48t-1 -46q-1 -6 -1 -32.5t-3 -39.5q-2 -23 -18 -55q-38 -77 -86 -131q-6 -1 -11 -4.5t-11 -10.5t-7 -8q-3 -3 -12 -8.5t-12 -11.5q-90 -49 -216 -49q-105 0 -153 20q-15 8 -43 19q0 4 -3.5 6t-9 4t-8.5 4l-22 12 q-3 3 -9.5 7.5t-9.5 7.5q-27 28 -79 110q-4 14 -16 53t-15 58q-3 21 -2 64.5t-2 64.5q1 1 1 3q-1 1 -0.5 2t3.5 1q-5 12 -2 29t10 24q99 29 186 15q50 -7 56 -15q3 -4 3.5 -14t-0.5 -25t-1 -18q-1 -16 4 -92q1 -5 1 -13t1 -13t4 -9q11 -24 33.5 -42t50.5 -24q39 -8 94 23 q28 17 33 25q4 5 10 47q2 31 2 92q0 11 1 34.5t1 36.5q-1 13 0.5 36.5t1.5 31.5q0 7 -2 21.5t-2 21.5q0 28 -6 43q-3 8 -12.5 23t-12.5 28q-6 6 -6 8q-8 3 -12 11q-9 0 -25.5 4t-25.5 4q-26 2 -82 -19q-23 -10 -51 -38q-36 -1 -108 1.5t-103 2.5q-3 3 -3 7q0 2 -1 2.5 t-4 0.5q-8 62 -9.5 176t-3.5 145q-1 21 -1 43t0.5 48t0.5 40q0 62 -2 80q-2 0 -2 -2q-2 2 0 2l2 2q0 22 2.5 102t1.5 126q96 8 363 4q16 -1 44 -2.5t51 -2.5t44 -1l166 -6l8 -13q24 -110 -2 -207q-3 -3 -4 -8t-4 -8q-165 17 -410 -6q-7 0 -8.5 -28t0.5 -77.5t2 -56.5 q0 -15 2.5 -51t1.5 -62q4 4 11.5 6.5t18.5 4.5t17 4l29 10q100 22 186 -20q7 -3 18.5 -11.5t18.5 -11.5q3 -3 6 -4t7 -1t6 -1q51 -23 94 -80q29 -43 40 -99.5t17 -144.5zM688 653q-14 56 -31 88q-19 38 -67 72q-51 39 -129 39q-36 0 -45 -4q-33 -3 -54 -12l-28 -15l-25 -12 h-2l-24 -12l-9 -6q-18 -11 -24 -11q-1 0 -7 -1t-7 1q-3 15 -3 29q3 43 0 88v31q0 15 -4 61q-2 25 -2 72q0 2 -6 149q-4 70 -4 109q32 0 94 4q128 8 285 8q55 0 80 -2h18q17 0 19 8q0 -3 -1 1q-2 3 -3 10q-8 8 -33 8h-72q-14 0 -254 -6l-151 -7h-2v-2q-8 -62 2 -147 q4 -78 4 -115q0 -45 4 -127q0 -9 2.5 -55t2 -55.5t-2.5 -57.5q1 -3 1 -6t1 -4v-3t-0.5 -4.5t1.5 -4.5t7 -2q3 0 19 -1t20 -1h4q3 0 4.5 1t3.5 4t4 5l7 6l41 19l28 12q51 26 109 26q22 0 24 -2q82 -12 127 -63q5 -5 9.5 -10.5t9 -13.5t7.5 -13t6.5 -15.5t5.5 -15t5.5 -16.5 t5 -15.5t5 -17.5t4.5 -16q7 -17 10 -37q4 -28 4 -41q-3 -58 -1 -106t-2.5 -106t-19.5 -103q-9 -20 -20 -39l-6 -11q-3 -9 -8 -14l-17 -12l-8 -6q-39 -29 -102 -45l2 -2q-88 -34 -174.5 27.5t-118.5 156.5q-1 6 -4 15l-4 12q-1 6 -2 11.5t-1.5 8.5t-0.5 6v23q3 20 -7 37v2h-2 q-12 -5 -12 -29v-21q-3 -14 0 -26q3 -24 16 -53l3 -7q75 -189 223 -202q69 -4 114 26q3 1 8.5 0t8.5 0q1 1 2 3t2 3.5t2 1.5q6 -1 11 1.5t10 7t8 6.5l2 2l34 24l11 7q3 1 4.5 2.5t2 3t1.5 2.5q3 3 5.5 6.5t5.5 8l5 7.5l6 13q10 18 21 43q23 67 25 160.5t-3 164.5q0 11 -4 39 l-6 35l-4 15v-1zM100 1268q2 0 6 -2t5 2q-2 0 -6 2q-4 0 -5 -2z" />
<glyph unicode="6" horiz-adv-x="927" d="M823 629q7 -22 11 -84q0 -12 3.5 -70.5t2.5 -87.5q-1 -6 -3 -32.5t-3 -34.5t-3.5 -29t-5 -32t-7.5 -27t-11 -29q-21 -46 -49 -82l-33 -31q-27 -29 -68 -53q-30 -19 -73 -35q-11 -5 -21.5 -8t-17 -4t-21 -2.5t-24.5 -3.5q-33 0 -47 -2q-3 0 -4.5 3.5t-4.5 4.5q-52 0 -75 6 q-18 3 -33 12q-63 23 -98 43q-8 8 -32.5 31t-37.5 37q-47 51 -59 78l-5 26q-12 46 -12 58q-1 15 -1 45t-1 45q-3 44 -2 132t-2 132q-3 51 0 100v90q8 67 -2 158q-2 29 -2 39.5t3 37.5t3 34q1 12 3.5 34.5t4 35t5 30t8.5 31.5q8 23 27.5 57.5t23.5 42.5q50 52 116 80t162 47 q0 -1 1 -2t1 -2q7 0 27.5 1.5t30 2t24 -0.5t25.5 -5l43 -16l45 -15q14 -4 35.5 -17.5t31.5 -17.5q74 -63 95 -127q3 -7 7 -24t7 -25l16 -49q20 -89 11 -190q-8 -8 -9 -11q-95 -27 -211 -4q-7 1 -15 6t-13 5q-6 137 -8 157q7 26 -12.5 56t-55.5 34l-49 4q-45 3 -72 -12 q-46 -24 -53 -67q-3 -22 1.5 -65.5t4.5 -61.5q2 -81 -2 -197q56 30 127 33q46 4 86 -4l45 -17q4 -1 28.5 -6t35.5 -10q25 -8 53 -33q31 -28 45 -43q6 -7 24 -39q5 -7 13.5 -18.5t13.5 -21t8 -21.5zM186 410v-21q0 -31 2 -47q9 -80 37 -135q28 -54 78 -78q32 -19 92 -31 q97 -16 162 11l16 6q42 17 76 48.5t51 69.5l11 21l6 14l4 15q28 111 18 196v23q-6 74 -41 121q-26 41 -51 63q-38 30 -110 41q-2 2 -17 2q-105 15 -184 -29q-43 -16 -79 -51t-50 -65q3 45 3.5 83t-0.5 92t-1 83v73q0 58 12 140q1 7 6.5 43.5t10.5 54.5l4 16q11 45 45.5 82 t79.5 58q2 1 8.5 4t11.5 4q7 3 20.5 7t20.5 7q3 0 7 1t7 1h19l18 4h25q3 0 10 -1t10 -1l21 -6q2 -1 8.5 -4t11.5 -4q43 -20 77 -55.5t38 -79.5q0 -3 1 -8.5t1 -8.5q0 -7 4 -23t4 -28q0 -3 -1 -8t-1 -8q-5 -13 2 -26t19 -9q4 9 3.5 26.5t-4 47t-3.5 33.5q0 3 -1.5 8t-1.5 8 q-11 46 -43 87t-73 58l-8 4t-11 4q-30 13 -39 13q-2 2 -16 2h-18q-5 0 -12.5 0.5t-13 0.5t-9.5 -1h-23l-18 -4l-19 -4l-59 -29q-4 -1 -10 -4l-8 -4q-69 -40 -86 -99l-9 -14q-9 -21 -20 -76q-2 -7 -8 -53l-4 -31q0 -3 -1 -9t-1 -9q-9 -30 -9 -74v-112q0 -15 0.5 -45 t0.5 -54.5t-1 -46.5q0 -40 -2 -63q0 -15 -1 -44t-1 -44q0 -26 4 -80q0 -8 1 -24.5t1 -24.5zM207 537q53 97 145 147q55 29 148 29q2 -2 20 -2q43 -5 71 -17.5t56 -42.5l4 -4q23 -23 31 -41q30 -59 33 -123v-24q-4 -87 -15 -140l-6 -20q-3 -22 -18 -59q-4 -14 -10 -19 q-47 -74 -133.5 -98.5t-170.5 8.5q-47 20 -71 37t-43 51v2q-20 33 -29 70q-8 57 -8 133q-4 50 -4 113zM586 426q0 59 -6 86q-3 16 -13 33q-9 26 -26 43l-17 16q-18 13 -35 19q-6 2 -28 2q-47 -4 -72 -15q-1 -1 -7.5 -5.5t-11 -7.5t-10 -8.5t-8.5 -10.5q-8 -14 -10 -29.5 t0 -42.5t2 -37q0 -13 -1 -53t-0.5 -63.5t5.5 -39.5q5 -20 21.5 -46.5t29.5 -33.5q3 -3 14.5 -4t18.5 -4q3 -1 9.5 -3.5t9.5 -2.5q16 -4 39 3.5t36 19.5l15 16l14 12q3 3 5 9.5t5 9.5q5 8 8 17.5t4.5 15.5t3.5 20t3 23q4 44 2 61z" />
<glyph unicode="7" horiz-adv-x="868" d="M803 1440q0 -13 -1 -56t-0.5 -79t3.5 -72q-61 -100 -76 -160q-5 -5 -9.5 -16t-8.5 -15v-12q-10 -17 -25 -57t-29 -58q-7 -33 -32 -92.5t-33 -89.5l-4 -24q-7 -20 -15.5 -62.5t-15.5 -62.5q-17 -57 -27 -97q-6 -28 -10.5 -60.5t-9.5 -74.5t-8 -67l-17 -88q-4 -66 -4 -103 q0 -3 1 -8t1 -8t-1 -6t-1 -6t2 -9.5t2 -9.5q0 -8 -1.5 -21t-1.5 -22t3 -16q-14 -8 -67 -8h-82q-19 1 -50.5 7.5t-47.5 6.5q-2 2 -2.5 4.5t0 4t-0.5 2.5t-4 1q-10 71 0 168q0 5 0.5 41.5t4.5 54.5l8 62q3 9 4 26.5t4 26.5q2 19 12 57q3 15 11 58t12.5 65.5t14 56t20.5 60.5 q10 25 26.5 70.5t22.5 60.5t51 131q12 30 38.5 84t37.5 80q26 58 32 88q-7 3 -22.5 3t-22.5 3q-17 -1 -62.5 -4t-69 -3.5t-68.5 1.5q-24 1 -67 -1t-66 -1q-29 4 -46 2q-23 0 -28 4q-31 83 -2 238q9 0 29.5 2t29.5 2q31 3 96.5 -2t102.5 -2q19 5 161.5 4.5t166.5 -0.5 q96 0 122 -4q2 0 10 3t9 -1zM553 940l16 45q44 127 76 174l12 15l19 26q2 2 2 23q0 27 4 55q0 36 -4 45v2h-2q-7 0 -22 1t-23 1q-12 0 -38 -1t-40 -1q-27 -2 -80 -2q-44 0 -67 2q-27 4 -115 4h-82q-9 0 -26.5 0.5t-26.5 0.5t-19.5 -1t-13.5 -5.5t0 -12.5h2q18 -6 59 -6h39 q39 -2 105 -2h6q18 0 86 -5q12 0 35.5 -1t36.5 -1q29 0 43 2q27 2 86 2h36v-34l-4 -60q-60 -74 -110 -223l-27 -72l-18 -51q-9 -25 -23.5 -71.5t-17.5 -57.5q-16 -56 -35 -149l-29 -119q-6 -21 -10.5 -62.5t-5.5 -48.5l-4 -33q-2 -28 -11 -61q-6 -26 -10 -78v-24v-29 q0 -3 -1 -10t-1 -11q-11 -31 0 -45q12 -9 16.5 -3t4.5 20v12q0 3 1 8t1 8l4 19v57q4 48 10 74q7 27 10 61q15 122 62 318l18 67q11 50 66 209q6 11 10 29z" />
<glyph unicode="8" horiz-adv-x="923" d="M756 797q-34 -39 -41 -45q7 -8 28 -30.5t34.5 -41t21.5 -39.5l10 -27q3 -12 12 -24q6 -21 8 -50t1.5 -55.5t0.5 -58.5q3 -52 -6 -98q-14 -139 -63 -205q-68 -68 -119 -103q-113 -44 -219 -36q-67 7 -143 32q-11 8 -34 19.5t-34 19.5q-3 3 -17.5 20t-23.5 23l-12 25 l-17 20q-32 55 -41 107l-6 65q0 5 -3 27t-3 35q0 143 12 194q23 104 107 168q-34 34 -57 72q-30 42 -41 78q-22 62 -25 125v35q0 7 1 17t1 17q-3 68 18 127q13 39 19 45q30 72 106 134q43 37 106.5 55.5t135.5 11.5q15 -3 43 -5t43 -5q15 -4 68 -27q5 -2 18 -7.5t21 -9 t18 -8.5t16 -10q71 -67 97 -106q3 -4 6 -14t6 -15q22 -44 25 -53q4 -18 4 -92q4 -72 0 -94q-3 -44 -17 -88q-18 -62 -28 -78q-5 -8 -18.5 -23.5t-18.5 -23.5zM205 274q2 -6 5.5 -22.5t6 -24t7 -20.5t11 -22.5t15.5 -18.5q2 -6 8 -12q10 -14 31 -35l12 -13q76 -57 195 -47 q18 0 20 2q39 7 76 33l6 2l37 27l12 10q27 15 45 49l10 19q9 18 20.5 54t16.5 50q0 3 1 7t1 5q0 3 2 5q25 69 17 129q0 16 -2 18q-7 43 -11 62t-17 51.5t-32 54.5l-10 14q-40 47 -51 56l-12 10q-2 2 -11 9.5t-12 12.5q55 28 90 86q17 29 31 97l1 3q1 3 1 7l2 6q16 78 14 117 q0 8 -1 17t-2.5 19.5t-2.5 16.5l-6 25q-1 12 -18 61l-1 2q-1 2 -1 6l-7 15q-1 3 -4 7t-4 7q-11 53 -54 85t-103 44l-23 4l-20 6h-27q-2 -2 -25 -2q-29 0 -43 -2q-6 -2 -23 -6.5t-26 -9.5l-16 -7q-72 -35 -103 -131l-6 -18l-16 -70l-4 -24q-8 -36 2 -90q0 -19 2 -21 q0 -7 1 -18.5t1 -18.5l6 -34q9 -58 43 -101l14 -14q8 -11 19 -20.5t19 -14t24 -13t22 -12.5q-13 -6 -43 -28l-10 -8l-12 -7l-12 -12l-11 -12l-26 -27q-16 -18 -25 -57.5t-12 -46.5q0 -3 -1 -8.5t-1 -8.5q-4 -28 -4 -30q0 -3 -1 -9.5t-1 -9.5q-9 -61 -6 -123q0 -3 1 -7t1 -7 q6 -50 8 -55q0 -3 1 -6.5t1 -6.5zM219 434q0 7 1 18.5t1 18.5q2 2 2 8q0 15 4 43l4 19q1 4 6.5 31.5t10.5 41.5q2 8 8 13l8 14l19 21l8 10l24 22l13 11q60 43 114 18q3 0 9.5 -1t9.5 -1q28 -2 86 2q4 0 8 4q1 0 3 1t3 1q7 0 10 -6q5 0 7 -2q12 -5 30 -23l13 -10l12 -12 l22 -27l17 -20l12 -17q9 -12 15.5 -25t12 -32t7.5 -26.5t7 -34t5 -29.5q2 -2 2 -23q3 -23 -4 -86l-4 -18q-20 -85 -70 -164l-14 -16l-14 -15l-13 -10l-41 -27q-36 -25 -75 -28q-3 0 -7.5 -1t-7.5 -1q-96 0 -155 39l-15 10q-26 26 -45 53q-3 1 -4 2t-2.5 3.5t-3.5 4.5 q-23 56 -37 136l-4 14q0 10 -2 12q-4 45 4 84zM354 772q-18 3 -30.5 13t-26.5 29t-21 26q-7 3 -10 16q-12 21 -18 45t-10 60t-7 51l-4 18q-4 36 -2 55l2 12l1.5 9t0.5 4q2 2 2 12q13 62 25 95l8 16q21 51 62 82l16 8q47 21 119 25h26l21 -5l22 -6q57 -7 98.5 -46t55.5 -95 q1 -5 4 -11.5t4 -8.5v-5q15 -33 17 -61l2 -12l1.5 -9t0.5 -4q0 -3 3 -20t3 -25q0 -38 -17 -112l-2 -4q-11 -62 -30 -95q-46 -62 -101 -81q-2 2 -12 2q-16 -5 -59 -9h-21q-78 -4 -123 31zM575 324q11 52 11 131q0 35 -21 100q-21 39 -73 52t-91 -19q-1 -1 -2.5 -1.5t-3 -2 t-2.5 -4.5q-51 -53 -47 -174v-78q4 -30 15 -46t34 -36l39 -25q26 -9 64 -4q40 7 59 55q12 23 18 52zM559 1139l-2 2q-19 46 -50.5 63t-66 5.5t-69.5 -46.5q-6 -4 -9.5 -9.5t-7 -17t-4.5 -14.5q-11 -95 -2 -153q11 -66 29 -95q10 -17 34.5 -30t47.5 -15q47 -2 86 33 q24 54 26 62q3 10 3.5 21t-0.5 27t-1 23q4 101 -12 140z" />
<glyph unicode="9" horiz-adv-x="935" d="M852 836q0 -30 -4 -78.5t-4 -59.5q0 -9 2 -27.5t2 -27.5q0 -7 -1 -20.5t-1 -20.5q5 -97 4 -108q0 -18 -3.5 -47.5t-4.5 -40.5q-3 -82 -25 -166q-12 -44 -22 -67t-31 -50q-12 -23 -29 -39q-35 -25 -41 -31q-5 -3 -9.5 -9.5t-6.5 -8.5q-63 -47 -201 -47q-13 0 -36.5 3 t-34.5 3q-42 3 -82 12q-52 9 -109 55q-64 57 -86 115q-16 42 -31 113q-25 103 -6 194q106 25 238 0l16 -6q0 -92 10 -135q5 -23 6 -29.5t6 -21.5t11 -24t16 -17q31 -25 71 -29.5t71 17.5q3 1 4 2t2.5 3.5t3.5 4.5t7 6t8 8t7 10q3 6 13 43l12 47q5 30 5 71.5t-1 61.5t-7.5 80 t-6.5 62l-29 -12q-60 -27 -106 -25q-72 3 -140 31q-59 20 -104 65q-5 5 -22 18t-25 23q-4 5 -14.5 15.5t-17 18.5t-9.5 15l-4 21l-11 74q-6 24 -6 51q-4 173 2 223q3 10 5.5 28t5.5 27q2 5 9.5 19.5t10.5 23.5l4 21q8 18 24 42t21 32q64 64 154.5 92.5t197.5 11.5 q72 -12 129 -47l31 -21q4 -3 15.5 -8t15.5 -8q27 -15 43 -41q5 -5 10.5 -15.5t7.5 -13.5q27 -45 33 -59q7 -12 12 -31q2 -5 7 -39q6 -32 9 -93t5 -79q4 -37 2 -53q0 -20 1 -54t1 -54zM741 1036v21q0 31 -2 47q-9 80 -37 135q-28 54 -77 78q-31 19 -93 31q-28 4 -40 4h-5 q-45 0 -57 -4l-14 -5l-15 -4l-30 -12l-17 -6q-86 -35 -121 -113l-10 -20l-6 -14l-4 -15q-33 -129 -25 -192v-23q6 -74 41 -121q25 -39 52 -63q38 -30 110 -41q2 -2 17 -2q107 -16 184 28l12 13l12 10l9 8q26 25 39.5 39t29.5 37t27 49q-6 -99 -2 -297v-74q0 -57 -12 -139 q-1 -7 -6.5 -43.5t-10.5 -54.5l-4 -17q-11 -45 -45.5 -81t-79.5 -58q-2 -1 -8.5 -4t-11.5 -4q-7 -3 -20.5 -7t-20.5 -7q-3 0 -7.5 -1t-7.5 -1h-18l-18 -4h-25q-3 0 -10.5 1t-10.5 1l-20 6q-2 1 -9 4t-12 4q-101 45 -108 123q0 3 -1 8t-1 8q0 7 -4 23t-4 28q0 3 1 8.5t1 8.5 q5 13 -2 26t-19 9q-4 -9 -3.5 -26.5t4 -47t3.5 -33.5q0 -3 1 -8t1 -8q11 -45 40 -80.5t71 -52.5q2 -1 8 -4.5t10 -4.5q28 -12 39 -12q2 -2 17 -2h18q5 0 12.5 -0.5t13 -0.5t9.5 1h23l18 4l18 4l60 29q4 1 10 4l8 4q69 41 86 98l8 15q11 25 21 76q2 7 8 53l4 31q0 3 1 9t1 9 q8 27 8 74v112q0 15 -0.5 45t-0.5 54.5t1 46.5q0 40 2 63q0 15 1.5 44t1.5 44q0 12 -5 80q0 8 -1 24.5t-1 24.5zM719 946q-13 -29 -47 -84l-19 -22l-22 -25q-6 -8 -17 -16l-20 -21l-19 -16q-19 -14 -48.5 -21t-45 -7.5t-53.5 -0.5q-2 2 -20 2q-43 2 -86 21q-18 14 -41 39 l-5 4q-22 22 -30 41q-30 59 -33 123v24q2 51 20 135l7 21q3 22 18 59q4 14 10 19q36 59 115 88q6 2 12 8q23 7 25 8q13 8 51 8q42 0 94 -18q48 -20 72 -37t43 -51v-2q20 -33 29 -70q8 -57 8 -133q2 -25 2 -76zM588 991q4 77 0 101q-4 50 -15 71q-8 11 -28 23q-45 31 -94 24 q-14 -2 -27.5 -8.5t-21.5 -12t-21.5 -16t-18.5 -14.5q-2 -6 -6.5 -16t-7.5 -19.5t-4 -19.5q3 -19 3.5 -24.5t-2.5 -25.5t-3 -26q-4 -119 35 -168q35 -41 92 -47q16 -5 43 6q4 2 7.5 3t6 2t4 2l3 2t3.5 2.5t3 3t3.5 4l4.5 4.5q27 35 37 73q4 17 4 76z" />
<glyph unicode=":" horiz-adv-x="487" d="M137 8q-8 63 -8 164v9v10v10.5t1 9t3 6.5t5.5 3.5t8.5 -1.5q0 8 7 8q62 7 192 11q0 -2 12 -13q8 -72 4 -215q-3 -5 -14 -16q-32 3 -99.5 -0.5t-101.5 2.5q0 9 -10 12zM356 688h-57q-24 -1 -80 1t-86 1q-18 87 -2 223q12 4 32.5 5.5t38 1t36.5 0.5q16 0 46.5 2t43.5 2 q3 -1 8 -1t9 -1t7 -4l6 -37q3 -37 0 -72q0 -79 -4 -100q3 -20 2 -21zM260 129h-29q-8 0 -17 0.5t-14.5 -4.5t-0.5 -16q5 -7 34 -7h25q30 0 35 7q5 11 -1 16t-15 4.5t-17 -0.5zM260 819h-29q-8 0 -17 0.5t-14.5 -4.5t-0.5 -16q4 -6 34 -6h25q30 0 35 6q5 11 -1 16t-15 4.5 t-17 -0.5z" />
<glyph unicode=";" horiz-adv-x="501" d="M379 225q-4 -37 -4 -190q3 -17 2 -35t-10 -27q-22 -87 -64 -202h-110l-15 12q11 133 27 215q-3 0 -28.5 -1.5t-35.5 3.5q-6 30 -7 61t2 86t3 76q42 8 118 9t105 4h7q3 -1 5 -5.5t5 -5.5zM141 696h-2q-14 75 -14 125q0 77 8 103q15 9 21 -4q63 2 186 -2q6 0 6 -7 q6 0 12 -6q2 -15 3 -34t1 -33.5t-1.5 -39.5t-2 -35t-3.5 -39t-3 -34q-11 -5 -47 0h-74.5t-89.5 4v2zM238 141q-17 0 -45 -4l-5 -10l5 -10h32q4 0 12.5 1t12.5 1q8 0 19 -1t14 -1q-2 -23 -2 -45l-2 -21l-3 -14q-12 -106 -24 -148q-9 -32 -19 -75v-2l9 -5q11 0 16 19v2l6 25 q9 32 19 75l18 109q2 2 2 14q0 3 1 8.5t1 8.5q0 4 2 4q0 7 -1 7t-1 7v51h-2q-14 2 -31 2q-8 0 -19 1t-15 1zM260 823h-29q-8 0 -17 0.5t-14.5 -4.5t-0.5 -16q4 -6 34 -6h25q30 0 35 6q5 11 -1 16t-15 4.5t-17 -0.5z" />
<glyph unicode="&#x3c;" horiz-adv-x="796" d="M719 397q13 -26 8 -106t0 -103l-14 -12q-28 15 -78.5 47.5t-77.5 48.5q-49 28 -168 84l-41 23q-58 37 -117 72q-103 67 -161 90q0 4 -5 6.5t-6 5.5q2 16 6 78t17 106q12 4 32.5 16.5t32.5 16.5q41 25 64 35q8 8 53 33q2 2 10 7t11 9l77 43q37 22 130 72q5 3 16.5 11 t19.5 11q4 0 6 1t3 1q2 0 4 2l6 6l115 74q7 7 27 17t24 6q4 -7 0 -11q4 -4 4 -8q3 -11 4 -26t1 -26.5t-0.5 -30.5t-0.5 -29q1 -17 -1.5 -50t-2.5 -45q-12 1 -12.5 2t-9.5 -4.5t-13 -7.5q-33 -18 -68 -43q-33 -23 -96.5 -58.5t-85.5 -49.5q-14 -7 -48 -27.5t-52 -28.5 q-8 -3 -29 -16l43 -25q7 -4 20.5 -14t20.5 -14q12 -7 34.5 -17.5t33.5 -17.5q20 -16 55 -35q14 -8 46 -29.5t50 -31.5q5 -2 22.5 -9.5t26.5 -13.5l43 -29q4 0 10.5 -3t10.5 -3zM664 330v4l-189 104q-148 82 -188 107l-27 16q-50 26 -92 57q0 3 1 7.5t1 7.5q0 4 1 11.5 t1 10.5q36 28 119 76q110 69 131 86q38 27 76 49q46 29 51 33l94 59q5 5 8 5q25 16 25 22q0 9 -8 14h-2q-2 0 -4 -2q-39 -20 -89 -55l-41 -24q-17 -12 -43 -27q-42 -25 -86 -57q-70 -51 -137 -89q-48 -29 -114 -75q-4 -7 -6.5 -31t-0.5 -35q3 -10 13 -10q2 -2 6 -2 q3 -7 16 -10l13 -11l92 -53q36 -23 49 -29q43 -29 76 -43l147 -81l74 -41q2 0 8.5 -3.5t9.5 -3.5q12 0 15 13z" />
<glyph unicode="=" horiz-adv-x="1124" d="M995 856q0 -8 -1.5 -20.5t-1.5 -22.5t3 -20q0 -2 2.5 -7.5t2 -7t-2.5 -6.5q-3 -3 -7.5 -3t-9.5 1.5t-7 1.5q-7 0 -27.5 -3t-27.5 -3q-11 -1 -40 -1t-44 -1q-35 -5 -142 0q-76 3 -266 2.5t-283 3.5q-1 0 -5.5 5t-10.5 1q0 108 2 174q1 3 4.5 4t3.5 4q197 9 385 9 q37 0 131 4q23 0 71.5 -3t74.5 -3t74 2t71 2q38 0 49 -4q-2 -30 2 -109zM803 498q23 0 62.5 1.5t69.5 1.5t54 -3q6 -79 6 -181l-16 -16q-23 4 -50.5 4t-63.5 -2t-56 -2h-57q-4 0 -7 1t-4 1q-2 0 -2 2q-4 0 -12 -2t-12 -2q-15 0 -43 1t-43 1q-51 0 -74 2q-11 -5 -195.5 -4.5 t-220.5 0.5q-3 13 -8 80q-5 73 -4 82q0 21 8 29t33 8q16 3 33 3t39.5 -1.5t35.5 -1.5h109q101 -3 203 0q44 1 119 -0.5t96 -1.5zM922 887h-181q-49 -6 -102 -6h-21q-2 2 -22 2h-10l-70 -6h-106q-8 0 -25 -1.5t-25 -1.5q-12 0 -30 -1t-29 -1q-9 0 -23.5 -0.5t-25.5 -0.5 t-21 1h-8q-2 2 -16 2q-20 0 -23 -14l-2 -2h2q6 -6 13 -6q6 0 8 2h12q7 0 19.5 -1t19.5 -1q12 -1 25 -1t29 0.5t24 0.5h26l35 -2q31 3 90.5 4t87.5 4h43q10 -2 33 -2q27 0 92 10h162q11 0 15 4t4 15v2zM201 406q3 -9 24 -9h2q41 4 113 2.5t86 -0.5q5 0 16.5 -1t16.5 -1h41 q5 0 14 1t14 1q17 3 36 3.5t32.5 0t37.5 -2t36 -1.5h24q33 0 49 2h23h33q2 -2 26 -2q5 0 15.5 1t15.5 1l35 5h24q11 0 15 4t4 12v2h-2q-2 2 -29 2q-31 0 -45 -2q-7 0 -19.5 -1t-19.5 -1h-2q-20 0 -22 2q-3 0 -11 1t-12 1q-1 0 -3 -1t-3 -1h-23q-28 -4 -41 -4q-1 0 -4 1t-4 1 h-28q-14 2 -45 2q-55 0 -86 -2q-11 0 -31 -1t-31 -1q-24 -1 -126 0.5t-122 -2.5h-4q-14 0 -20 -6q-3 -3 0 -6z" />
<glyph unicode="&#x3e;" horiz-adv-x="796" d="M727 711q-3 -23 1.5 -88.5t0.5 -94.5q-3 -1 -7 -1t-7 -1q-22 -16 -45 -26q-7 -3 -15.5 -9.5t-15.5 -9.5q-4 -2 -17.5 -8.5t-19.5 -11.5q-5 -2 -16.5 -11t-20.5 -10q-11 -9 -61 -39q-38 -24 -82 -47q-26 -14 -88.5 -43.5t-97.5 -50.5l-33 -16q-38 -30 -60 -43 q-15 -9 -30 -21q-3 -2 -8.5 -6.5t-9.5 -7t-9 -4t-8.5 1t-5.5 10.5v33v63q0 11 -1 35.5t-0.5 41t3.5 32.5q24 19 67 45q117 74 133 82q53 28 195 112q-45 32 -134.5 86.5t-103.5 63.5q-4 2 -33.5 21.5t-47.5 27.5q-3 1 -31.5 20t-46.5 25q-1 20 -4 68t-3.5 71.5t1.5 65.5 q2 2 8.5 4.5t7.5 7.5q68 -26 166 -90q40 -17 117 -67q140 -91 229 -138q8 -5 28 -17t30.5 -18.5t28 -14.5t34.5 -13q0 -7 12 -10zM129 319v-4q3 -12 14 -12q1 0 19 6l74 41l147 82q33 14 76 43q13 6 49 29l92 53l12 10q9 3 17 11q4 0 6 2q9 0 12 10q2 9 -2 28q0 3 -1 8.5 t-1 8.5t1 5t1 3q5 5 2 10v2q-27 19 -121 76q-74 42 -137 88q-50 37 -86 58q-33 19 -43 26l-41 25q-53 37 -88 55q-2 2 -4 2h-2q-8 -5 -8 -14q0 -8 24 -23q5 0 9 -4l94 -59q4 -4 51 -33q38 -22 76 -49q21 -17 131 -86q83 -48 119 -76q0 -3 1 -11t1 -12q0 -3 1 -7t1 -7 q-40 -30 -93 -57l-26 -17q-16 -10 -189 -106z" />
<glyph unicode="?" horiz-adv-x="1001" d="M866 1008q-8 -40 -26 -82q-17 -30 -90 -131q-14 -18 -27 -40t-30.5 -54t-24.5 -44q-5 -9 -20 -33t-22 -37t-15 -36t-11 -47q-3 -16 2 -52.5t2 -52.5q-2 -2 -5.5 -4t-5 -3.5t-1.5 -4.5q-114 -12 -230 10q2 21 3.5 56.5t3 55.5t5 46.5t9.5 48.5q6 26 35 78q3 5 7.5 16.5 t8.5 18.5h2l2 2q-2 0 -2 2l17 27q12 20 30.5 57.5t30.5 56.5l31 56q2 4 19 29t23 36t17 33t15 41.5t4 40.5q0 59 -31 88q-14 12 -42 23.5t-46 11.5q-25 1 -56 -16.5t-42 -37.5q-8 -18 -11 -41q-3 -22 -4.5 -69t-5.5 -78q-93 -16 -166 -10q-59 4 -78 16q-19 129 -2 195l15 47 q35 82 41 94q18 31 67 76q25 25 39 33q96 55 258 45q70 -8 141 -48q19 -10 45 -28q10 -7 19 -15t18.5 -19t15.5 -17.5t16.5 -21.5l14 -20t15 -22.5t12.5 -19.5q2 -8 12 -45t11 -60q9 -78 -13 -151zM377 233q80 15 219 11q15 -71 0 -199l-3.5 -14t-2.5 -14t2 -15 q-26 -9 -88 -8t-96 -2q-8 0 -19 5t-18 5q-17 111 6 231zM684 1317l-12 12q-7 6 -15 10.5t-13.5 7.5t-17 7.5t-15 5.5l-17.5 5t-16 5l-21 4q-28 4 -41 4h-22l-21 -2q-2 -2 -20 -2q-5 -1 -11 -4l-8 -4l-18 -4l-33 -16q-49 -20 -88 -72l-8 -12q-23 -32 -29 -50q-17 -56 -14 -96 q0 -2 -2 -17.5t0 -25.5t10 -16h2q6 -1 9 3t3.5 12t0.5 14.5t-1 15.5q-2 1 -1 7t1 7q0 156 158 223l18 7q12 6 23 6l20 4h21q3 0 9 -1t9 -1q17 0 19 -2q58 -5 106 -35.5t64 -81.5l10 -14q4 -8 8 -24.5t6 -22.5q11 -49 0 -99q-19 -87 -65 -168q-23 -40 -74 -104 q-2 -2 -4.5 -5.5t-5.5 -4.5q-3 -4 -6.5 -11.5t-6.5 -11.5q-24 -39 -32 -61l-6 -15l-11 -24q-30 -76 -37 -129q-10 -72 0 -78q3 0 6 -1l3 -1q4 0 8 4t4 31v8q2 71 41 164l8 22l25 51q26 43 41 62q113 131 137 284q9 37 0 89q-3 7 -5.5 23.5t-6.5 25.5q-2 7 -9 14l-8 21 q-7 12 -24.5 29t-24.5 28zM494 98v29q0 8 0.5 17t-5 15t-16.5 1q-6 -4 -6 -35v-25q0 -30 6 -34q15 -7 19 5t2 27z" />
<glyph unicode="@" horiz-adv-x="1996" d="M1876 872q2 -49 -8 -120q-5 -58 -6 -62q-15 -107 -21 -133q-2 -5 -6.5 -26t-9.5 -29q-20 -55 -60 -105q-5 -8 -20 -30.5t-26 -37t-23 -26.5q-16 -17 -55 -39.5t-54 -36.5h-10q-7 -3 -19.5 -10t-19.5 -10q-2 -2 -16 -2q-26 -10 -47 -12q-37 -4 -89 1.5t-86 16.5l-32 16 q-7 3 -13.5 7t-13 9.5t-10.5 9.5t-11 11.5t-10 10.5t-10.5 12.5t-9.5 11.5q-22 55 -29 102q-25 -25 -69 -51l-23 -18q-7 -3 -33.5 -12t-40.5 -17q-90 -38 -172 -6q-4 1 -9 3t-11.5 5.5t-11.5 5.5q-16 5 -80 41l-43 39l-17 15q-3 3 -4 8t-4 8q-3 5 -19.5 27t-21.5 32 q-13 32 -16 84q-8 39 -4 86l8 45q5 45 8 54l18 45q3 8 5.5 22t5.5 21q1 1 9 16t9 25q41 59 53 71q33 42 60 60q12 7 32.5 16.5t32.5 15.5q6 3 17 9.5t16 7.5q3 1 7 1t5 1q5 1 20 6t23.5 7.5t21.5 5.5t25 4.5t23 0.5q92 -7 199 -73q8 13 13 41.5t9 38.5q36 8 146 -7 q2 0 14 -0.5t17 -3t5 -8.5q0 -12 -4.5 -34t-5.5 -33q-17 -85 -20 -224q-3 -42 -14.5 -118.5t-14.5 -118.5q-14 -90 4 -123q6 -11 27 -23q46 -26 98 -18q12 2 45 16q31 13 41 19q11 6 21.5 15.5t26 26t20.5 21.5q30 32 47 86q-1 12 1 25.5t7 34.5t6 28q14 126 4 191 q0 10 -4 14q3 23 -5 67.5t-9 53.5q-10 10 -10 29q-5 8 -25 53q-10 31 -43 82l-6 10q0 -2 -6 4q-1 1 -1 4t-3 6q-20 28 -35 43q-3 4 -5.5 7.5t-6.5 7.5t-7 8q-3 3 -5 7t-5 5q-1 3 -5 4t-7 4l-6 9q-6 5 -15 9.5t-15.5 7.5t-18 8t-17.5 7q-17 7 -72 25q-2 1 -7.5 3.5t-8.5 2.5 q-3 1 -8 1t-8 1q-5 1 -15.5 5t-15.5 5q-4 1 -13.5 1t-13.5 1q-42 10 -75 13q-127 11 -205 2l-33 -6q-7 0 -17.5 -1t-17.5 -1q-42 -7 -86.5 -24t-74 -32t-74.5 -41q-23 -18 -45 -37t-53 -48.5t-42 -39.5q-14 -22 -34 -43q-11 -20 -35.5 -51.5t-36.5 -50.5l-25 -43 q-44 -89 -67 -229q-11 -61 -13 -105v-24v-25v-23.5t0.5 -26t1.5 -24t2 -25.5t2.5 -24t3.5 -26t5 -23.5t6 -24.5q38 -137 129 -225l31 -29q4 -4 13 -14.5t15 -15.5q30 -30 82 -60q79 -41 92 -45q36 -12 166 -26q51 -6 150 4q19 1 49 10.5t41 11.5q38 7 86 29q9 -6 22 -6 q31 -87 37 -125q3 -10 -2 -10q7 -6 7 -17t-5 -16q-1 -1 -6 0t-6 0q-10 0 -25 -12q-1 0 -84 -25q-16 -6 -35 -10.5t-33 -8t-38.5 -6.5t-34.5 -4.5t-39.5 -4t-35 -3t-39.5 -2.5t-35 -2q-14 2 -43.5 4.5t-55 6t-47.5 9.5l-69 19q-41 15 -111 47q0 -2 -6 -2q-2 1 0 2q3 1 0 4 q-5 3 -27.5 17.5t-30 19t-28 18t-30 21t-27 20.5t-28.5 22.5t-24 22.5t-24 25q-2 6 -29 49l-31 43q-30 40 -53 98q-31 74 -43 185l-8 100q-5 42 8 137q8 57 21 127q32 143 45 185l18 49q8 27 27 75.5t26 69.5q7 9 39 54.5t45.5 63.5t41 48t53.5 51q8 8 24 19.5t23 17.5 l20 19l43 24q26 19 43 25q7 4 27.5 16.5t35.5 21t33 15.5l33 16q10 3 31.5 8t28.5 7q41 11 102 20q36 5 43 8q7 1 19.5 5.5t19.5 5.5q5 1 15.5 0t17.5 0q3 0 9 1.5t10 1.5t7 -3q-1 3 2 2t4 2q2 -2 4 -2l3 -2q25 11 36 6q3 0 5.5 -2.5t5.5 -3.5q4 -5 21.5 -0.5t21.5 4.5 q3 0 3 -3t3 -3q16 13 31 -2q5 2 10.5 3t13 -0.5t12 -2.5t14 -3.5t13.5 -3.5q14 -3 43.5 -3t42.5 -3q41 -2 100 -26q67 -27 88 -43q38 -11 80 -47q34 -30 60 -46q28 -22 55 -59q1 -1 4 -3.5t4.5 -4t3 -4t2.5 -5t0 -5.5h9q-6 0 -3 -3q9 -11 24.5 -34.5t18.5 -28.5 q6 -22 21 -37q4 -11 28.5 -64t32.5 -85q22 -87 25 -179zM1796 852q0 4 -1 12.5t-1 12.5q-2 48 -20 106l-7 27q-10 49 -41 116q-3 5 -20 45q-22 50 -31 62q-7 12 -26 31l-11 12q-99 108 -215 154q-74 32 -243 43q-4 0 -12.5 1t-12.5 1h-20q-2 2 -23 2q-92 3 -162 -15 q-2 -2 -22 -2q-78 -10 -140 -24l-20 -6q-24 -8 -119 -52l-12 -6l-10 -6q-29 -10 -54 -29l-14 -12q-16 -12 -30 -27.5t-30.5 -35.5t-27.5 -31l-8 -10q-3 -8 -11.5 -18.5t-11.5 -16.5l-12 -17q-12 -20 -20 -30l-37 -54q-11 -17 -41 -75l-8 -19l-3 -4l-43 -94l-6 -21 q-23 -45 -26 -88l-17 -86q-1 -10 -8 -30q-16 -94 -10 -183v-18q0 -17 4 -49q0 -4 1 -12.5t1 -12.5q13 -87 23 -108q4 -10 22 -41l21 -41v-2l8 -17l8 -14q7 -8 15.5 -26.5t15.5 -26.5q31 -31 34 -35q12 -12 30.5 -33t29.5 -33l8 -6l10 -12l15 -12q6 -4 48 -35t66 -45 q5 -1 11 -4l8 -4q118 -43 190 -54l19 -4q3 0 9 -1t9 -1q32 -1 197 4h20q3 0 9.5 1t9.5 1q25 0 39 2l36 4h7q11 2 16 3t12 7t8 17l2 2h-2q-4 4 -12 4q-6 0 -12 -6l-12 -6q-28 -4 -39 -4l-39 -4q-23 0 -37 -2h-21q-11 0 -90 -3.5t-90 1.5q-18 0 -20 2q-11 0 -13 2 q-101 24 -174 47l-18 8q-60 29 -131 90l-12 10l-11 13q-7 8 -54 59.5t-65 85.5l-12 25q-3 5 -7 15t-7 15q-2 3 -6.5 12.5t-7.5 12.5l-17 31q-27 64 -31 223q-6 81 27 229l6 39q1 5 1 12.5t1 13t4 9.5q0 12 9 21l8 14l6 18l6 17l6 14q1 2 1.5 6.5t2 8t4.5 6.5q37 90 101 184 q1 1 20 33l17 26q9 14 28.5 39.5t24.5 32.5l10 12l27 33l14 16q35 31 70 47l18 9q48 35 164 67q2 2 4 2q8 0 12 2q17 3 50 7.5t49 7.5l16 4q19 2 65 8t64.5 7t65.5 -1h16q13 -1 50 -4t52.5 -4.5t41 -5t44.5 -8.5l13 -5q41 -6 69 -18q131 -64 238 -195l29 -63q41 -93 51 -127 q28 -94 30 -145q0 -5 1 -15.5t1 -15.5l5 -47q0 -62 -23 -156q-8 -35 -25 -65l-8 -21q-24 -54 -39 -78q-4 -7 -13 -19.5t-13 -19.5q-20 -25 -23 -30q-24 -41 -65 -76q-27 -21 -88 -37q-15 -6 -45 -10h-13q-8 1 -28.5 3.5t-31.5 5t-26.5 7.5t-26.5 14.5t-18 22.5l-12 16 l-16 39q-13 36 -13 133v43q0 80 2 119q0 17 2 19l17 137q0 12 2 14q3 56 10 90l4 21q9 34 6 61v2h-2q-20 0 -20 -30q-2 -2 -2 -7q0 -4 -1 -10.5t-1 -9.5l-2 -2v-6q-3 -17 -2 -17q-8 -23 -11 -61q-2 -2 -2 -14q-2 -2 -2 -17l-8 10l-8 11q-4 4 -15.5 17.5t-19.5 19.5l-6 6 q-30 30 -58 47q-5 3 -15 7t-15 7l-19 6q-61 23 -102 23q-25 0 -70 -10q-132 -40 -184 -158q-3 -3 -4.5 -6.5t-2 -8t-1.5 -6.5q-44 -117 -37 -206v-21q3 -31 12 -59q5 -11 23 -43l2 -4l10 -19l14 -26q28 -42 72 -62q31 -24 76 -27h12q49 0 76 9q4 1 8.5 2.5l9 3t6.5 2.5l15 4 q6 2 18.5 6.5t18.5 7.5q84 38 145 105l27 26q3 -24 0 -45q0 -46 6 -69q8 -29 24 -62q9 -8 11 -16l10 -12q15 -23 45.5 -35t50.5 -14t60 -3q2 2 12 2q28 3 59 17l15 4q44 14 63 29l10 8l13 6l8 12l8 8q8 8 33 43l14 21q38 45 57 92q61 133 72 223q4 29 0 117zM1227 688 q0 -18 -2 -20v-117q-2 -2 -4 -2q-1 0 -2 -1.5t-2.5 -3.5t-4.5 -3l-12 -11q-1 -3 -3 -3t-3 -3q-72 -79 -156 -112l-32 -13q-31 -13 -78 -16q-4 0 -11 -1t-10 -1q-53 0 -100 35q-11 8 -21 18.5t-14.5 16.5t-15.5 22.5l-15 22.5v4l-10 14l-16 33q-13 31 -10 78v20q-1 19 2 42 t6.5 36.5t11.5 43t10 38.5l4 14l4 15q20 47 72 96q55 48 109 59q9 4 43 4h22q38 0 68 -12q3 0 6.5 -2.5t5.5 -3.5q3 -1 6 -3.5t6 -2.5q2 -2 6 -2q3 0 3 -2q30 -13 53 -31q9 -5 37 -33l14 -14q38 -38 45 -68q2 -34 2 -43.5t-6.5 -44t-7.5 -43.5zM1130 784q0 3 3.5 5.5 t3.5 5.5q-20 113 -166 110q-6 -6 -14 -10t-18 -7.5t-15 -6.5q-28 -20 -45 -37q-42 -36 -62 -86q-5 -10 -8.5 -20t-6 -23t-4 -22t-2.5 -25t-1.5 -22.5t-1 -25.5t-0.5 -24q4 -4 5.5 -10t1.5 -14t1 -11q6 -54 55 -81t117 -19q39 2 94 41q12 10 20 24t13.5 34t8 34t6 41t5.5 37 q6 41 10 112zM1731 1303h-2h2z" />
<glyph unicode="A" horiz-adv-x="1034" d="M961 57l4 -28q1 -3 3.5 -8.5t2.5 -8t-2 -8.5q-165 -11 -244 -6q-7 7 -10 8q-1 17 -4 32t-9 33.5t-8 28.5l-14 56t-15 65t-10 58q-56 3 -147.5 -2t-130.5 -5q-5 -21 -26.5 -122t-39.5 -152q-160 -13 -241 -2q-6 5 -2 27q8 38 26 161q9 36 12 66q5 24 13.5 72.5t13.5 72.5 l21 76q0 19 12 51q2 17 8 69t10 79l17 63l6 35q1 3 5 10.5t4.5 10l2 10t-1.5 10.5q1 3 4 5t4 5q3 27 15.5 93t17.5 98q2 22 14 53q0 20 11 53q6 10 10 37q3 19 8 57.5t8 55.5l6 28q3 10 8 39.5t9 44.5q1 6 3.5 17t4.5 18t5.5 16t8.5 15q110 21 303 2q3 0 5.5 -3.5t5.5 -2.5 q5 -41 39 -195l10 -65l16 -60q4 -17 41 -190q12 -62 39 -181t39 -184q10 -48 20 -114q3 -17 14 -48.5t15 -46.5q4 -17 18 -88.5t23 -109.5l10 -52zM838 139l-11 39q-6 27 -15 81.5t-17 82.5v-2q-13 52 -21 98l-6 39q-3 12 -7 38t-7 38l-17 82q-12 60 -26 108v-2 q-6 27 -29 107l-25 90q-2 7 -13.5 49.5t-16.5 65.5l-31 116v-2l-4 13l-2 10l-47 156l-31 6h-33q-2 -2 -10 -2q-14 3 -22 -9t-9.5 -25t-1.5 -30q-5 -23 -16.5 -68t-13.5 -53v2q-21 -71 -35 -139q-7 -17 -11 -43q-11 -46 -22.5 -104t-25 -130.5t-21.5 -111.5q-4 -19 -9 -40.5 t-12 -47t-10 -39.5v2l-22 -90v2l-15 -70q-5 -38 -8 -47l-18 -88v-12q-5 -21 -10.5 -64.5t-6.5 -50.5q6 -10 17 -6q9 0 12 10l6 49l6 47v-1q0 3 1 8t1 6l19 94l20 92q12 0 32 -1t32 -1q122 0 221 8q126 7 205 7q3 -17 39 -179q1 -2 6 -39l6 -32l4 -19q2 -5 4.5 -14.5t5 -15.5 t6.5 -9v2q5 -4 12 -4t9 4q1 1 -2 29l-4 11v-1zM264 420l15 51v-2q26 102 28 111q10 40 33 172q26 147 84 378l12 58q0 1 1 3t1 3q0 4 2 6l11 33q12 46 14 78q2 2 2 8l8 2q3 0 10.5 -1t10.5 -1h26l27 -96l6 -19v2l8 -24l2 -15l17 -57q44 -177 57 -217q3 -12 17.5 -64.5 t19 -69.5t16.5 -61.5t17.5 -68.5t14.5 -61.5t15 -69.5t11 -64q-119 0 -215 -8q-130 -9 -271 -6zM420 530q43 -2 63 -1.5t61.5 3t57.5 3.5q-45 224 -53 256q-3 12 -21 69t-18 84q-26 -144 -90 -414zM264 416l-4 4h4v-4z" />
<glyph unicode="B" horiz-adv-x="1015" d="M221 2q-9 0 -24 -1.5t-26 -1.5t-19 3q-4 1 -12 5t-13 5q3 48 1 142.5t1 148.5q0 12 -1 37t-1 39t-1.5 58t-0.5 71q6 123 6 389q0 45 -1 136t-1 136q0 27 1.5 84t1 100.5t-4.5 82.5q26 3 66.5 3.5t102 -0.5t83.5 -1q22 -1 59.5 1.5t53.5 2.5q145 3 237 -51q47 -29 59 -39 q13 -13 25 -33q30 -44 43 -76l18 -43q4 -16 19 -123q13 -95 -23 -194q-27 -88 -86 -144l50 -43q3 -3 12 -10t13.5 -11t10 -11t9.5 -13q1 -1 16 -37q1 -2 11 -21.5t14 -33.5l4 -39l4 -43q0 -13 3 -36t3 -35l-6 -35q0 -1 -1 -14t-5 -19q0 -51 -35 -127q-1 -3 -9.5 -23.5 t-12 -28t-11.5 -21t-16 -23.5q-6 -9 -16 -18t-18 -15t-20.5 -15.5t-17.5 -13.5q-2 -5 -5.5 -9t-10 -6.5t-9.5 -3.5t-13.5 -3.5t-12.5 -3.5q-7 -6 -16.5 -9.5t-24 -5.5t-21.5 -4q-37 -6 -80 -6q-17 0 -52 1.5t-62.5 1.5t-46.5 -3q-8 0 -28 -1t-32 -1q-44 -2 -131 2zM817 475 v2q-2 2 -2 12q-2 2 -2 13q-2 2 -2 8q0 1 -1 3t-1 3l-6 25q-12 50 -21 61l-12 16h2q-12 14 -16 27l-19 19l-8 10l-6 8h2q-21 27 -53 41q-1 0 -4 2t-4 2q26 15 53 59h-2l18 21q16 16 25 47q41 112 35 186q-12 84 -27 125q-2 0 -2 2q0 1 -1 4t-1 7q-33 57 -72 96l-12 12 q-45 30 -164 41q-3 0 -10 1t-10 1q-22 4 -113 4q-7 0 -19.5 -1t-19.5 -1q-14 -2 -39 -2h-12q-20 -4 -27 -4h-20q-9 -15 -6 -29v-14q0 -1 -1 -3t-1 -3q0 -9 -2.5 -32t-2.5 -32q-4 -36 -4 -57v-39q0 -7 1 -21.5t1 -21.5t-1 -20.5t-1 -20.5v-41q0 -7 1 -18.5t1 -18.5 q0 -12 1 -58t1 -58q-4 -38 -4 -168q0 -119 2 -168q2 -63 2 -191v-114q0 -1 -1 -3.5t-1 -3.5q-5 -24 -2 -36q2 -2 2 -9q-3 -9 7 -12q8 -8 24 -8h19q22 0 30 -2h47q27 2 78 2q147 4 197 18l37 11l11 4h-1q2 0 4 2q2 0 2 2q6 0 12 6v-2q55 25 72 63h-2l6 11l6 8q3 5 6.5 16.5 t6.5 16.5l6 14q6 18 16 63q2 2 2 15q11 58 2 102zM791 393q0 -7 -3 -10q-5 -37 -8 -45l-18 -57q0 -9 -6 -15q-3 -14 -15 -26h2q-6 -6 -6 -9l2 2l-8 -10q-21 -21 -35 -26l-12 -9l-12 -4l-8 -4q-1 0 -4.5 -1t-4.5 -1q-56 -15 -73 -16q-59 -10 -162 -10h-115q-4 0 -8.5 1 t-7.5 1q-5 -2 -17 2h-14h-2v34q2 2 2 11v92q0 115 -2 172q-2 39 -2 119q0 77 2 116h317q3 0 7.5 1t7.5 1q35 5 41 5q8 0 10 -2q16 -2 49 -31v2l8 -6l6 -6q4 -7 9 -7l4 -6l6 -6h-2q5 -7 15.5 -24.5t15.5 -24.5q0 -6 2 -8q1 -3 2.5 -5.5t2.5 -4.5t1 -3q13 -31 14 -36 q0 -5 2 -7q0 -3 1 -5t1 -5q0 -10 2 -12q0 -5 1 -8l1 -2q0 -15 2 -17q0 -8 4 -12q0 -10 2 -12v2q3 -35 3 -68zM258 1241v12q0 3 1 9.5t1 9.5q0 5 1 10l1 4q-3 17 21 17h51q121 0 198 -7q80 -10 127 -32q4 -4 11 -4q37 -40 73 -101v2q0 -1 1 -3t1 -3q0 -3 1.5 -6t1.5 -4 q0 -4 4 -8h-2q16 -69 16 -111q0 -34 -6 -72q-19 -88 -64 -151q-6 -6 -8 -12h2l-8 -9q-4 -4 -10 -10.5t-10 -10.5t-9.5 -8.5t-11.5 -7.5q-8 -8 -10 -8q-2 -2 -2 0q-21 -8 -58 -8h-163q-24 0 -74 1t-78 1v449q0 38 2 61zM672 455v32q0 22 -9 46.5t-20 35.5q-10 10 -39.5 19.5 t-48.5 7.5q-5 0 -15.5 -1t-15.5 -1q-19 0 -45.5 1.5t-45.5 1t-44 -4.5q-4 -61 -1.5 -184.5t1.5 -165.5q119 -11 180 0q31 5 47 11.5t27 22.5q21 28 23 37q8 13 4 49q0 13 1 45t1 48zM383 1192q-1 -17 1.5 -60.5t-1.5 -58.5q3 -9 0 -22q8 -105 0 -211q17 0 51 -2t61.5 -2 t49.5 4q18 4 32.5 11.5t32.5 21t23 16.5q4 21 4 108q0 7 1 18.5t1 18.5q0 40 -2 56q-1 12 -7 35t-7 36q-9 11 -22 19t-30.5 12t-32.5 6t-39.5 1.5t-38 -1.5l-40.5 -3t-37 -3z" />
<glyph unicode="C" d="M862 489q1 -11 1 -23t-0.5 -28.5t-0.5 -27.5q0 -9 1 -29t1 -29t-3 -27.5t-3 -27.5q-3 -56 -22 -98l-35 -64q-10 -18 -25 -32t-40 -30.5t-36 -25.5q-40 -28 -75 -37q-50 -13 -86 -20h-25.5t-28.5 -4q-17 3 -51 4t-51 4q-1 0 -21.5 1t-31.5 5q-60 16 -88 41q-24 20 -31 22 q-22 33 -57 68q-3 10 -8 19.5t-12.5 19.5t-10.5 16q-5 7 -10 31q-10 16 -13 29q-3 7 -4 15.5t-1 21.5t-1 20q0 11 -2 33t-2 33q-2 1 -1 32.5t1 32.5v68q-4 7 0 64.5t4 64.5q-1 20 -6 76t-4 84q0 7 1 18t1 18v17q0 3 2 7t2 7q0 7 -1 18.5t-1 18.5q0 124 4 158v40t4 48 q12 52 21 84q18 68 43 96q2 11 7.5 19.5t17.5 17t18 12t24 12.5l70 39q5 2 20.5 9.5t27.5 12t26 7.5q14 2 41 2q51 6 145 -6q12 -3 34 -4t34 -4q6 -2 24.5 -11t28.5 -10q3 -5 8.5 -9.5t9.5 -7.5t10.5 -7t10.5 -7q1 0 3 -4t5 -8q3 -3 7 -4t7 -4l17 -18l14 -19q29 -32 45 -59 q48 -98 37 -309q-12 -7 -37 -7q-8 -1 -40.5 -4.5t-55.5 -3.5q-47 0 -68 4q-5 1 -15 3.5l-14 3.5t-9 3.5t-9 6.5q0 7 2 42.5t2 49.5t-3 37.5t-9 40.5q-3 4 -5 12.5t-5 11.5q-13 24 -58 37.5t-84 5.5q-16 -2 -49 -16q-7 -4 -17.5 -15.5t-17.5 -15.5q-15 -27 -18 -59t1.5 -83 t4.5 -73q0 -51 -2.5 -170t-1.5 -182q4 -94 4 -133q0 -10 -0.5 -33t-0.5 -35.5t1.5 -31t5.5 -35.5q10 -50 64 -76q7 -1 24.5 -5t26 -5t22 0t25.5 6q4 1 8.5 4t10.5 7.5t10 6.5q45 23 53 35q3 4 4.5 14.5t5.5 14.5q-2 15 5 66t-1 75q1 4 2 9l1.5 7.5t0.5 3.5q68 30 162 21 q8 -1 25.5 -5t25.5 -5q26 0 33 -7zM752 289v119q0 11 -9 14.5t-14 -6.5q-4 -15 -4 -62q0 -7 1 -19t0.5 -21t-3.5 -19q0 -8 -2 -10q-3 -8 -5 -22t-5 -19h2l-11 -15q-29 -60 -71 -77q-7 -7 -10 -7q-26 -10 -37 -12l-15 -4l-18 -4q-25 -9 -57 -12q-4 0 -6 -1t-3 -1h-8 q-138 11 -184 77q-1 0 -3 2t-4 5t-3 4l-4 8l-17 29l-8 20l-10 41q-4 28 -4 47q-9 18 -9 55q0 1 -1 3t-1 6v10q-2 23 -2 71q0 64 2 97q0 7 1 20.5t1 20.5v14q-2 2 -2 12v21q-4 98 -4 147q0 18 1 52.5t1 50.5v22q2 23 2 74q-4 79 9 115q0 3 1 6t1 4q2 6 4 16l4 17q0 1 1 3t1 3 q0 6 2 8l6 16l4 9h-2l6 10q35 71 121 96q8 0 10 2q3 0 6 1.5l5 2.5h-2q58 10 79 10q38 0 88 -16q48 -25 72 -49q30 -36 47 -74q11 -30 15 -94v-19q0 -3 1 -5t1 -5q0 -2 0.5 -5l1.5 -9l2 -12q12 -1 17.5 5t5 13.5t-0.5 15.5q0 4 -1 12.5t-1 12.5v16q-8 91 -41 138 q-20 32 -45 45q-63 48 -119 55q-83 10 -143 -12q-4 -4 -8 -4q-2 -2 -8 -2q-91 -29 -133 -115h2q-7 -7 -7 -10q-2 -2 -2 -7q0 -4 -1 -6q-1 -1 -1 -2l-16 -57q-2 -2 -2 -12q0 -3 -1 -6l-1 -3q-6 -33 -6 -108q0 -53 -2 -84v-27q0 -15 -1 -47t-1 -49q0 -57 4 -143v-21 q0 -12 2 -14v-12q-2 -23 -2 -78q0 -47 4 -125v-23q0 -24 6 -45q0 -4 1 -9.5t1 -8.5v-19q12 -64 18 -77l7 -11l6 -8h-2q11 -32 22 -41l19 -16h-2q52 -67 172 -78h18q34 0 53 8l27 4q53 14 74 23l14 10v-2q54 18 86 88h-2l10 14q17 33 19 60z" />
<glyph unicode="D" horiz-adv-x="985" d="M903 784v-75q0 -31 -1.5 -103t-0.5 -110q2 -31 -2 -97q0 -4 -1 -15t-0.5 -17t5.5 -11q-3 -89 -51 -188q-21 -39 -50 -68.5t-73 -64.5l-63 -21q-7 -1 -22.5 -1t-22.5 -1q-3 0 -10.5 -1t-10.5 -1l-74 -4l-186 -10q-94 0 -137 2q-7 1 -20.5 0t-20.5 0q-2 1 -3.5 3t-2.5 3 t-2.5 2t-3.5 0.5t-7 -0.5q-6 43 -10 115q-1 5 0.5 12t1.5 10q0 8 -1 25t-1 25q0 67 4 215q0 13 -1 41.5t-1 44.5t-1 45t-1 45q0 5 3.5 33.5t-1.5 33.5q0 3 -1 8.5t-1 8.5q-1 4 -1 9.5t0.5 12.5t0.5 12v115q0 18 -1.5 79t-0.5 93q4 112 -4 191v41q-1 22 2.5 99t-0.5 105 q1 2 7.5 6.5t6.5 8.5q158 9 349 -4q48 0 71 -2q66 -13 94 -11q12 -7 37.5 -18.5t36.5 -18.5q3 -1 7 -5t7 -5q4 -3 21 -10.5t25 -15.5q20 -14 47 -56l22 -37q4 -12 11 -36t10 -35q15 -63 16 -74q4 -39 0 -162q0 -1 6 -166zM250 1323l-2 -4q0 -115 -2 -164q-2 -39 -2 -113 v-258q-2 -47 -2 -133q0 -9 1 -26.5t1 -26.5t0.5 -25t0.5 -29t-1 -24q0 -7 -1 -25.5t-1 -25.5q-2 -41 -2 -121q0 -63 2 -90v-27q0 -3 1 -6t1 -6q0 -14 2 -16v-25q0 -3 -1 -10t-1 -10v-31l12 -12q27 2 80 2h35q66 -4 100 -4h23q4 0 12 1t12 1q29 0 43 2q56 -4 110.5 28 t78.5 82l12 31q3 6 7.5 18t6.5 17l8 39l7 30q4 28 4 33q2 8 2 33v90q-3 43 0 88v74q0 28 -4 78q-5 62 -5 73q-2 35 -2 99q0 70 -6 131q0 4 -1 13t-1 13q0 20 -4 52q-5 23 -26 71q-2 2 -8.5 11.5t-14.5 17.5h2q-34 47 -68 57q-5 1 -16 5.5t-14 5.5l-19 6q-50 16 -90 16 q-3 0 -8 1t-8 1q-13 0 -15 2q-4 0 -16 1t-16 1q-67 4 -103 2h-16q-62 -4 -88 -14zM475 141h-24q-22 0 -72 4q-7 0 -18.5 1t-18.5 1h-41q-3 0 -6 -1t-6 -1h-15q0 23 -2 31v68q-2 31 -2 86q0 57 2 88v278q0 141 4 469v135q64 9 119 9q24 0 78 -4q4 0 9 -1t12 -2t12 -2 q62 -3 102 -20q5 -1 16.5 -5t16.5 -5l20 -6q5 -2 7 -4q10 -4 24 -23l15 -16l8 -11h-2l14 -22q21 -46 25 -117q4 -86 4 -139q0 -47 4 -129q6 -141 6 -150v-35q3 -10 3.5 -20t-0.5 -23t-1 -20v-82q0 -27 2 -41q0 -20 -2 -26q0 -1 -4 -29q0 -3 -1 -6t-1 -6q0 -9 -2 -11 q-1 -5 -2 -11.5t-1.5 -10t-0.5 -6.5l-6 -15l-5 -14l-12 -31l-8 -16l-6 -14q-17 -41 -57.5 -66t-86.5 -27q-28 0 -30 2q-14 -2 -45 -2q-4 0 -12.5 -1t-12.5 -1zM635 285l16 53q10 68 -2 168q2 27 2.5 34t-2 33.5t-2.5 36.5q0 8 1.5 29.5t0.5 34.5q-2 23 -2 63q4 24 1.5 94.5 t-1.5 94.5q0 18 2 58.5t2.5 66t-5 57.5t-19.5 53q-16 22 -47 33l-19 8q-18 8 -78.5 3t-83.5 -3q-4 -32 -2.5 -121.5t0.5 -109.5v-78q0 -21 -2 -66t-2 -69t1 -71.5t1 -68.5q0 -23 2.5 -85t1.5 -97q-1 -21 0.5 -97.5t-2.5 -100.5q16 -3 49 -3.5t46 -3.5q68 3 122 31 q15 8 21 23z" />
<glyph unicode="E" horiz-adv-x="997" d="M897 252q23 -110 4 -176q4 -14 -2 -44t-6 -32q-12 -9 -19 4l-253 4q-40 1 -113.5 -5t-106.5 -7q-40 -3 -80 -3.5t-95 0.5t-79 1q-3 3 -8 5t-8 5q-3 41 -3 121.5t-3 120.5q-1 19 0 59.5t0 59.5q-4 58 0 235q1 2 1 8t3 10q-3 4 -3 9t1.5 11t1.5 9q0 13 -2 37t-2 35 q-2 23 -2 63q-5 44 2 62q-1 26 0.5 131.5t-2.5 138.5q0 2 -2 4v6h2q2 100 2 297q10 7 10 15q98 8 270.5 5.5t272.5 0.5q32 1 90.5 -1.5t81.5 -2.5q4 0 14.5 1t18 0.5t14.5 -3.5q0 -7 4 -27q7 -35 8 -37q0 -12 0.5 -35t0.5 -35t-1.5 -30t-5.5 -35q0 -31 -10 -61 q-10 -3 -20.5 -3t-21.5 1.5t-17 1.5h-107q-18 0 -51 2t-49 2h-244q0 -21 2 -23v-4q0 -22 -4 -72l-2 -2q0 -19 -2.5 -61.5t-3 -65.5t3 -56t12.5 -58q26 0 80.5 2t98.5 2t77 -4q10 3 20.5 3.5t25.5 -0.5t22 -1q3 0 9 -1t9 -1t14.5 1t20 0.5t14.5 -3.5q26 -124 4 -238 q-14 -2 -43 -2q-101 4 -151 2q0 -4 -2 -2q-28 3 -60 3t-73 -1.5t-66 -1.5q-14 -234 -4 -344q43 0 192 -4.5t224 -1.5q14 0 26 6q7 -3 25 -2t25 -2q12 9 20 4zM803 1317h-55q-38 0 -52 2q-68 6 -196 6q-44 0 -146 4h-10q-23 0 -25 -2q-6 0 -19.5 2t-23.5 2.5t-20 -1 t-14.5 -10t-1.5 -24.5q0 -8 -1 -19t-1 -15v-23q-8 -96 2 -217q4 -114 2 -174q0 -54 6 -103v-28q2 -28 2.5 -33.5t-2 -31.5t-2.5 -31q-4 -54 -4 -82q0 -4 1 -13t1 -14q2 -2 2 -31q-4 -98 -4 -145v-117q0 -9 1 -27t1 -26v-6q0 -39 6 -45q4 -4 24 -4q4 0 14 1t15 1h29 q34 0 57 2h80q102 4 154 4q59 0 137 -4l2 -1q2 -1 6 -1q3 0 9.5 -1t10.5 -1h7q22 0 24 8q0 8 -2 10q-6 6 -24 6h-2q-3 0 -10.5 1t-10.5 1q-16 0 -18 2q-72 2 -199 2h-98q-7 0 -22.5 -1t-22.5 -1q-17 0 -49.5 -1t-47.5 -1h-45q-2 41 -2 152v18q-2 8 -2 27l4 180q0 7 -1 19.5 t-1 19.5q0 15 4 43q0 7 1 18.5t1 18.5v29q0 37 2 55h58l127 -4h90q23 2 61 2t54 -2q8 0 10 -2q3 0 7 -1t7 -1q7 0 10 6q3 8 0 14q-5 8 -32 8q-5 0 -7 2h-36q-40 0 -58 -2h-67l-228 6q0 41 -2 64v65q3 25 0 50q-11 211 -4 342q0 7 1 19.5t1 19.5h27q29 0 31 2h30q12 0 31 -1 t27 -1l100 -5q20 -1 55 -1t67 -1t64 -4q18 -2 52 -2h59q17 0 20 10q0 7 -4 11q-3 6 -22 6z" />
<glyph unicode="F" horiz-adv-x="987" d="M891 1438q8 -55 8 -133q0 -6 -2.5 -20.5t-1.5 -22.5q0 -3 2 -8.5t2 -8.5q1 -13 -2.5 -34t-3.5 -25q-36 0 -120 3.5t-132 2.5q-11 0 -30 -1t-31 -1q-128 4 -191 -2q-8 -52 -1 -172t3 -172q47 3 167 -2t163 -2q8 0 18.5 1t16.5 1.5t12.5 -1.5t11.5 -7q22 -63 8 -150 q-6 -25 -10 -80q-46 4 -99 5t-86.5 0.5t-102 -2t-97.5 -1.5q-8 -38 -8 -137q0 -88 2 -131q0 -49 2 -72q4 -92 2 -133q-6 -105 -6 -113q-4 -16 -4 -18q-146 -28 -240 0q-3 9 -12 12q-3 23 0 71t0 73q-6 11 -2 99.5t4 104.5q1 25 3 66.5t3 76t0 66.5q-2 41 -2 119q-1 36 0 109 t0 110q-1 22 -3.5 71.5t-2.5 70t2 67.5q3 43 3.5 94.5t-0.5 124t-1 99.5q1 2 3 2.5t3.5 0.5t3 1t0.5 4q135 0 207 -2h82q38 4 62 -2q65 4 327 4q52 0 70 -6zM254 143q0 -16 -2 -18q-3 -48 4 -53h6q14 0 14 26q3 20 3 117q-10 207 4 348q2 31 2 88l4 64q7 0 20.5 -1t20.5 -1 q4 0 11.5 1t10.5 1h41l53 -4h27q23 -1 79.5 3t86.5 1h33q18 0 33 6q4 1 2 9.5t-7 8.5q-32 4 -51 4q-4 0 -12.5 -1t-13.5 -1q-17 0 -60 -3.5t-65 -2.5h-39q-27 0 -41 2q-16 0 -44 1t-44 1q-27 0 -41 -2v4q-2 2 -2 4q0 1 -1 5t-1 8q-4 197 2 284q3 56 0 115q0 111 6 158h37 q75 0 114 -2t113 -2h21q140 0 208 -8q6 0 9 -3h10q7 0 12 5h2q3 8 0 14q-10 10 -35 10h-6q-23 2 -65 2h-4q-11 0 -34 1t-36 1q-47 0 -70 2q-75 0 -110 2q-78 4 -113 4q-26 0 -76 -4h-2q-4 -31 -4 -151v-35q0 -35 -4 -117q-5 -174 0 -241q6 -104 -6 -312l-4 -121 q-2 -33 2 -116q0 -16 1 -50t1 -51z" />
<glyph unicode="G" horiz-adv-x="946" d="M854 963q-57 -8 -83.5 -8t-86 4.5t-80.5 5.5q12 164 -43 221q-4 4 -8 7t-10 5.5t-9.5 4.5t-11.5 4t-11.5 3t-13 3.5t-12.5 3.5q-44 -12 -61 -19q-30 -10 -49 -29q-18 -12 -26 -28.5t-9 -46.5v-103q0 -32 -4 -98q-1 -23 0.5 -64t1.5 -49q-1 -18 -1 -38.5t0.5 -45 t0.5 -37.5q0 -20 -2 -55.5t-2 -52.5q0 -166 12 -229q5 -22 20 -45.5t31 -30.5q30 -13 64 -13q5 -1 35 5q63 15 90 55q18 53 22 69q1 17 -1.5 47.5t-2.5 43.5q0 9 1 31t0.5 37.5t-3.5 29.5q-19 -1 -61.5 -1t-61.5 -1q-24 125 10 221q11 4 11 10q15 1 44.5 0t45.5 0 q18 1 48.5 -0.5t41.5 -1.5q136 -5 178 0q3 -3 2 -7q-1 -1 2 -1q1 -44 -5 -148t-3 -171q3 -52 4 -157.5t4 -162.5q1 -18 -2 -51.5t-2 -48.5l4 -21q-2 -2 -7.5 -5.5t-8.5 -8.5q-75 -11 -127 10q0 -5 -4 -6q-2 0 -4 2q-8 8 -12.5 34.5t-10.5 37.5q-5 -8 -13 -14.5t-13.5 -9 t-19 -7t-17.5 -6.5q-3 -1 -37.5 -18t-52.5 -23q-49 -12 -111 -12q-60 0 -113 24q-3 0 -1 2q-1 2 -3 2v-2q-4 0 -15 4.5t-18 5.5q-49 34 -92 89q-6 8 -19 24.5t-21 26.5t-17 25.5t-14 29.5q-12 30 -12 79.5t-7 67.5q-1 66 -1 197t-1 205q-1 41 -3 106t-3 116.5t0 94.5 q1 10 1 29.5t0.5 32t3 29t5.5 28.5l12 33q3 5 6.5 16.5t6.5 16.5l26 37q3 5 9.5 12.5t10.5 13.5t7 12q6 3 13 11t10 10q12 7 50.5 31t67 36t60.5 17q119 13 172 8q7 -1 18.5 -5t18.5 -5l28 -6q40 -13 60 -15q3 -5 6.5 -7t11.5 -4.5t12 -4.5q45 -26 88 -94q33 -51 50 -109 q16 -47 18 -61q9 -65 0 -127q-1 -6 0.5 -27t-2.5 -26zM774 111l-4 24l-6 25l-8 24q-5 15 -11 25q-14 22 -14.5 50t4 61t2.5 53v121q2 51 2 147v16l-2 2q-11 11 -37 11h-22q-10 -2 -29 -2q-19 -3 -35 0q-6 0 -34 4q-52 6 -52 -13q0 -12 50 -12h36q10 1 35 -2q14 -2 47 -2h19 q2 -53 -2 -160v-49q-2 -14 -2 -41q0 -7 1 -17.5t1 -17.5q-1 -14 -1.5 -44.5t-2.5 -47.5t-12 -38t-29 -35l-19 -19l-18 -16q-30 -20 -45 -23q-65 -21 -131 -12q-7 0 -35 4q-10 0 -12 2l-41 6q-5 2 -19 7t-20 8q-15 4 -29 18q-3 2 -11.5 6.5t-13.5 9.5l-18 21q-32 38 -29 106 q-2 10 -2 33v33q0 29 -2 43v43q-4 111 -2 168q2 14 2 33v32q-1 11 -4 50.5t-2 58.5v59q-1 6 -1 26.5t-3 33.5v30q0 33 6 60l6 55q3 24 13 55q3 7 8 41l6 41q1 4 11 17t13 20q7 19 24.5 32.5t48.5 28t40 19.5l14 4q38 12 68 12q105 -11 145 -41q12 -7 33 -36h2l13 -19l18 -22 q37 -56 37 -134q0 -3 -1 -6t-1 -6q-4 -43 6 -45h4q14 0 14 29v4q3 41 -3.5 75.5t-14.5 53t-25 49.5q-31 55 -65 74q-28 18 -73.5 31.5t-90.5 13.5h-10q-27 0 -45 -6l-41 -13q-70 -28 -99 -59l-16 -22q-10 -12 -29 -56q-6 -12 -9.5 -25t-6 -33t-4.5 -28l-4 -28q-3 -8 -8 -56 l-7 -55q0 -5 -1 -15t-1 -14q-3 -24 2.5 -71t2.5 -70v-139q0 -21 2 -35q-3 -36 -1 -103.5t-1 -103.5l4 -31q0 -5 1 -15t1 -15l4 -31q0 -97 39 -148q6 -10 20 -24q13 -13 25 -19l35 -20q16 -9 34 -12q11 -5 41 -9q5 0 15 -1t18 -1q88 -15 162 9q21 7 26 10q26 9 54 41l22 24 l23 27q4 -6 9 -17.5t7 -15.5q7 -17 10 -37q3 -7 5 -27.5t7.5 -31.5t20.5 -8q5 1 5.5 5t-2.5 13t-3 10t-1 3.5t-1 3.5z" />
<glyph unicode="H" horiz-adv-x="1064" d="M381 1421q-1 -22 -6 -91.5t-4 -110.5q4 -101 12 -201q7 -69 4 -178q45 3 90 3.5t109 -0.5t94 -1q14 320 6 581q96 33 246 4q6 -15 -4 -32q3 -40 1 -121.5t1 -124.5q3 -62 4 -135.5t1 -168.5t1 -147v-151q0 -13 -1 -37t-1 -37q1 -11 1 -23.5t-0.5 -26.5t-0.5 -22v-29 t4 -36q0 -3 2 -9.5t2 -9.5q1 -7 1 -21.5t1 -21.5q0 -24 -1 -76t-1 -77v-125q-8 -6 -17.5 -7t-23 1t-20.5 2q-18 0 -53.5 -1.5t-67.5 -1.5t-62 3q-2 2 -4.5 7.5t-7.5 6.5q-3 12 -3.5 24t0.5 28t1 24q1 24 0 68t0 65q4 88 0 371q-88 -2 -287 2q-3 -18 -3.5 -63.5t-4.5 -67.5 q0 -25 1 -93t1 -112q0 -27 -2 -77.5t-2 -70.5q1 -7 3.5 -23t2.5 -22t-2 -20q-3 -8 -6 -8q9 -9 6 -33q-10 -3 -10 -8q-119 -9 -236 0q-3 8 -8 8q-13 280 -8 375q0 13 3 37t3 36q0 14 -1 40t-1 40q4 36 4 56q-3 52 -2 158t-2 159q-4 109 2 164q4 22 1.5 79.5t-1.5 76.5 q0 9 2 26.5t2 26.5q0 6 1 74.5t-5 83.5q7 0 18 3t15 3q3 1 7 0t5 0q0 3 6.5 4t18 1t16.5 1q49 4 90 -4q54 -4 70 -17zM823 967v127q0 25 -4 75q-4 67 -2 103v67q4 21 -10 27h-2q-11 -5 -12 -20.5t2 -32.5q0 -15 2 -17q0 -29 -2 -43v-41q6 -96 6 -282v-86q0 -11 1 -36.5 t0.5 -45t-3.5 -41.5h-54q-69 0 -237 4q-164 4 -240 4q-1 10 0.5 28.5t1.5 24.5v27q0 53 -2 84q0 4 1 13.5t1 13.5l-4 133q-2 48 2 143q0 17 0.5 46.5t0.5 52.5t-1 42v9q0 27 -8 30q-9 3 -12 0q-4 -4 -4 -22v-2q3 -75 0 -146q-3 -70 0 -135v-121q-1 -28 1.5 -81.5t2.5 -73.5 q0 -1 -3 -17t-3 -24l4 -35q0 -7 3 -20.5t3 -20.5q0 -24 -4 -78q0 -7 -1 -19.5t-1 -19.5q-4 -2 -2 -54t2 -54v-37q-1 -29 -1 -87t-1 -87q0 -7 -1 -19.5t-1 -19.5q0 -4 -1 -14t-1 -15q0 -2 -3 -42t1 -42q1 -4 4.5 -3.5t9.5 -2.5q4 -3 6.5 0t3 11t1 15t0 16.5t-0.5 10.5 q2 2 2 31v31q0 26 2 28q-4 128 2 191v28q-2 31 -2 91q2 2 2 28q0 7 1 19t1 16q3 52 0 105h35q29 0 176 -5q33 0 92 -1t86 -1h48q0 -2 4 -2q2 2 12 2q14 0 16 -2h13q25 3 47 0q2 -44 -2 -159q-4 -66 -4 -93v-65q-2 -19 -7 -209v-94q0 -2 -2 -4q0 -14 9 -17h4q12 0 12 25v2 q2 23 2 63q-2 18 -2 54l4 73q4 132 4 209q0 11 1 34t1 34q4 36 4 57q0 40 1 120.5t1 121.5q0 80 -2 119z" />
<glyph unicode="I" horiz-adv-x="524" d="M135 719q0 42 0.5 116.5t0.5 130t-1 99.5q0 45 0.5 119.5t0.5 131.5t-1 105q6 0 10 13q65 8 166 8q58 0 72 -8q3 -32 4 -70t1 -66t-0.5 -74t-0.5 -71q2 -72 2 -225q0 -9 -1.5 -26t-1.5 -30.5t3 -23.5q1 -3 3.5 -5t2.5 -5q1 -4 1 -10t-0.5 -13t-0.5 -10v-27q0 -12 1 -32.5 t1 -28.5q-4 -16 -4 -23v-67q0 -23 -4.5 -137.5t0.5 -143.5l8 -86q6 -131 0 -260q-6 -5 -14.5 -7.5t-15 -3t-18 -1t-17.5 -0.5q-67 -10 -129 -2q-6 0 -17 0.5t-17 1t-13.5 3t-12.5 7.5q-6 106 -2 364q1 47 0 106t-3 134t-3 117zM250 561q2 -31 2 -92v-127q0 -5 -1 -15.5 t-1 -15.5q1 -22 4 -65.5t3.5 -65t-1.5 -65.5v-39h2v-2q4 -4 10 -4h2q9 3 6 22v39q5 34 -0.5 97t-5.5 81q0 4 1 13.5t1 13.5v217q-6 114 -6 227q0 33 -2 49q0 18 1 51.5t1 49.5q0 14 1 40t1 38q0 96 2 143v164q0 4 1 12t0.5 13t-3.5 10h-4h-6q-6 -3 -8 -7t-1 -14t1 -12 q-2 -2 -2 -12q0 -27 2 -41v-21q0 -12 -1 -40t-1 -44q0 -29 -1 -84t-1 -78q0 -100 -2 -149v-113q0 -37 4 -123q0 -8 1 -25t1 -26z" />
<glyph unicode="J" horiz-adv-x="991" d="M422 -6q-72 0 -133 24l-117 78q-1 4 -4 8.5t-7.5 9.5t-6.5 7q-3 4 -7.5 14.5t-7.5 14.5q-21 37 -36 94.5t-15 109.5q0 7 3 50t-1 53q-5 110 -4 143q1 1 4.5 5t3.5 5t2 6.5t0 8.5q3 0 25.5 2.5t28 3t26 2.5t29 2t26.5 0.5t28.5 -0.5t25 -2.5t26.5 -4.5t23 -7 q4 -25 5.5 -58.5t0.5 -60.5t0 -60q0 -10 1 -22t2.5 -26t2.5 -23q11 -80 29 -107q8 -3 21.5 -10t24 -11t21.5 -5q90 -10 129 41q3 3 5.5 10t5.5 10q8 10 12 23q1 3 1 9t1 9q0 2 3 7t3 9q1 13 -0.5 39t-1.5 35q4 176 0 236v125q0 39 1 123t0.5 142.5t-3.5 117.5q-28 3 -101 2 t-114 2q-43 3 -68 10q-25 56 -10 168q2 9 5.5 35t8.5 36q0 3 3 4.5t4 4.5t-1 5q-1 2 0 2l3 1q1 1 1 2q-1 1 -0.5 1.5t3.5 0.5q13 1 36 -0.5t31 -1.5q35 -3 72 0q24 1 65 -1.5t56 -2.5q39 1 123 -3t133 -3q0 -8 8 -11q1 -37 1 -117t1 -120q0 -16 4 -48t4 -48q0 -8 -1 -25 t-1 -25l-6 -45q0 -17 4 -53q2 -72 2 -194q0 -5 -1 -17.5t-0.5 -21t3.5 -15.5q-3 0 -3 -2.5t-3 -1.5q3 -3 3.5 -4t-0.5 -3t-1 -5q5 -61 0 -76q3 -7 3 -16.5t-1.5 -23t-1.5 -21.5q0 -10 1 -37t0.5 -47.5t-3.5 -38.5q-1 -12 -1 -39.5t-1 -42.5l-4 -14q-1 -5 0.5 -18t-2.5 -15 l6 -12q-4 -6 -5 -13.5t-0.5 -17.5t-0.5 -15q-14 -37 -14 -49l-11 -18q-2 -3 -6 -7.5t-6.5 -9t-3.5 -10.5q-35 -38 -98 -86q-12 -8 -27.5 -15t-27 -10.5t-31 -10t-29.5 -9.5q-20 -9 -43 -12q-13 -4 -38.5 -4h-31.5q-11 -1 -31 1t-32 1zM217 516v-78q0 -3 -1 -9t-1 -9 q0 -9 -0.5 -26.5t-0.5 -32.5t1 -29q0 -29 2 -31q6 -39 8 -45q12 -42 46.5 -77t76.5 -48q18 -9 43 -12q9 -4 49 -4q14 0 60 4l37 4l34 8l25 8l25 13l30 16q4 4 8.5 8t9 9t7.5 8q13 13 29 49q7 21 8 26q3 4 5 14t5 15q6 26 10 76l4 73q0 7 1 18.5t1 18.5v37q0 7 1 19.5t1 19.5 t1 19t1 16q3 25 3 53.5t-1.5 63t-1.5 53.5q0 7 -1 17.5t-1 17.5q0 18 -2 28q0 16 -1 42.5t-1 39.5q0 37 -4 103q-4 93 -2 139q2 23 2 61q0 45 2 68q0 8 2 10v19q-5 8 -45 8h-35q-21 4 -79 4h-191q-19 0 -22 -8q0 -8 2 -10q7 -7 22 -7h143q22 0 54.5 -1t46.5 -1l78 -4 q-9 -202 4 -463l4 -45q0 -17 -1 -59t-0.5 -72.5t3.5 -58.5q-2 -2 -2 -33q0 -5 -1 -16t-1 -19q0 -7 -1 -18.5t-1 -18.5l-4 -30q1 -2 0.5 -30t-0.5 -30q-12 -119 -43 -170q-3 -5 -23 -30q-11 -11 -31 -23l-34 -14q-7 -3 -18.5 -5t-16.5 -5q-12 -3 -27 -3l-24 -4q-46 -4 -62 -4 q-21 0 -49 4q-20 3 -37 13q-68 31 -86 82q-9 16 -12 34q-6 18 -6 35q-2 10 -2 29q-2 53 2 143q0 9 1 26t1 23v7q3 17 -4 24h-2q-10 0 -15 -7t-5.5 -13.5t-0.5 -18.5v-4z" />
<glyph unicode="K" horiz-adv-x="1048" d="M868 229q6 -13 47 -102q7 -14 22 -38t25.5 -44t16.5 -41q-4 0 -4 -8q-33 -14 -53 -4q-26 -10 -105 -0.5t-102 8.5q-11 16 -27.5 51t-28.5 51q0 5 -3.5 12t-4.5 11q-47 82 -119.5 242t-103.5 221l-18 -29q-18 -25 -19 -27l-2 -2q-2 -31 -2 -88q-2 -58 5 -214.5t-3 -221.5 q-3 -3 -8 -4t-6 -4q-14 0 -39 2t-37 2q-50 -4 -76 -2q-3 0 -7 1t-7 1t-5 -1t-5 -1q-7 0 -22 3.5t-23 2.5q-3 -1 -8 -4t-7.5 -3.5t-7.5 1.5q-3 63 1 183.5t1 181.5q-1 3 -0.5 138t0.5 136q1 16 1 33.5t-0.5 39t-0.5 33.5q0 5 -2 15t-2 18q4 62 4 92q-2 14 -2 43q-1 37 0 111 t0 111q0 13 1 36t1 31q-2 80 -2 223q9 6 22 10.5t23 6.5t26 4.5t23 3.5q48 4 72 -4q3 0 10 -2t10 -2q52 -5 68 -10l4 -215q1 -38 -1 -117t-1 -107q41 50 100 154q6 9 28.5 45.5t37.5 56.5q6 9 16 28.5t13 25.5q48 64 67 100q3 3 4 9t4 9q15 19 15 21q6 0 47 3t47 -1 q31 3 88 -3.5t78 -6.5q4 -14 8 -17q-1 -6 -5.5 -18t-4.5 -21q-8 -9 -18.5 -29.5t-14.5 -27.5l-18 -27l-15 -28l-16 -19q-7 -11 -41 -65.5t-57 -79.5q-4 -11 -16.5 -27.5t-14.5 -19.5q-5 -5 -8 -17q-1 -2 -11.5 -13t-15.5 -19q-3 -8 -20 -37q-2 -3 -8 -9.5t-10 -12t-7 -11.5 q-11 -15 -27.5 -45t-27.5 -45q11 -12 19.5 -28t18 -38.5t13.5 -31.5q67 -154 92 -207l47 -107q6 -14 21.5 -48t23.5 -56q14 -33 49 -101zM823 117q-29 50 -63 131l-27 57q-67 142 -170 334q-74 136 -112 217l32 41l17 21q23 25 52.5 75t39.5 64l18 22l19 23q1 3 16 24 q18 27 56 75.5t47 60.5q8 10 20 30q15 26 27 43v2q20 31 14 37t-10 6q-9 0 -21 -20l-28 -47l-15 -23q-16 -21 -53.5 -72.5t-58.5 -78.5l-17 -21q-15 -18 -35 -49l-16 -25q-6 -14 -15.5 -28.5t-15 -22.5t-19.5 -25.5t-18 -23.5l-18 -22l-55 -68l-19 -23q-27 -39 -53 -57 q-23 -17 -35 -33q-17 -17 -41 -34q7 84 4 190q-2 14 -2 41q-2 56 2 172v219v37q0 2 -2 4q0 8 -4 12h-2q-8 0 -12 -4t-4 -26v-283q0 -37 -2 -55q0 -1 -1 -33t1 -33q0 -44 2 -67q0 -9 1 -28t1 -28q0 -38 -2 -61q-2 -16 -2 -47q0 -4 -1 -13.5t-1 -13.5q0 -63 2 -98 q3 -59 0 -121v-49q0 -7 1 -18.5t1 -18.5q2 -2 2 -20q3 -35 0 -66q0 -36 2 -59v-31q5 -18 0 -76q-3 -21 0 -39q6 -24 14 -26q8 0 8 16v33q0 65 -2 98v43q0 68 -2 107v163q0 43 -2 66q-3 40 0 80q21 15 39 33q44 44 57 53q22 19 41 41q5 9 29 33l100 -191l103 -197l20 -38 l31 -58q12 -26 119 -252q2 -2 2 -4q13 -31 24 -31q6 0 11 5q7 10 -8 28q-11 11 -11 21z" />
<glyph unicode="L" horiz-adv-x="890" d="M819 104q2 -36 -8 -75q-2 -4 -4 -13.5t-5 -15t-9 -8.5q-8 -2 -12.5 -2t-15.5 2.5t-15 3.5q-52 3 -111 0h-74q-16 -1 -66.5 -4.5t-74.5 -3.5q-93 0 -285 4q-1 1 2 14q-2 2 -4 2q-6 0 -8 2q-1 36 3 130.5t1 142.5q-6 54 -6 59q4 32 4 47v45l-8 84q0 12 3 37t3 41 q0 24 -1 75t-1 77q3 76 0 155q0 36 0.5 99.5t0.5 114.5t-1 95q-1 40 1.5 114t2.5 104q9 0 12 10q26 7 64 10q23 1 73 -1.5t64 -2.5q28 0 33 -8q3 -3 3 -6.5t-1.5 -9t-1.5 -9.5q0 -18 1.5 -58.5t1.5 -76t-3 -64.5q-1 -1 -0.5 -68.5t0.5 -68.5q1 -13 -0.5 -34t-1.5 -29 q0 -12 4.5 -76.5t-0.5 -81.5v-82q0 -11 -0.5 -27.5t-0.5 -29t1 -23.5l6 -51q0 -5 -1.5 -24t-0.5 -29q0 -12 4 -33t4 -33q0 -5 1 -15t1 -15q1 -23 -2 -126t2 -130q12 -3 27.5 -3.5t25.5 0t28.5 2t25.5 1.5q18 1 50.5 0t47.5 0q41 3 113 -2t92 -5q14 -74 16 -127zM264 106h23 q3 3 22 3q17 0 55.5 2.5t59.5 1.5q16 0 70 -4h131q7 0 22.5 1t22.5 1q16 2 51 2h16q8 0 11 6q3 9 0 12q-6 6 -21 6h-27q-2 -2 -20 -2h-35q-46 -4 -74 -4q-6 0 -129 6q-23 1 -67.5 -0.5t-57.5 -1.5q-8 0 -24 -1t-23 -1v86q0 8 1 19.5t1 19.5v66q2 25 2 69q0 82 -4 266 q0 15 -1 52t-1 59l-6 139l-6 131q0 82 2 125v58q0 12 1 39.5t0.5 48t-3.5 39.5q3 19 -6 28h-8q-9 -4 -11 -14q3 -25 3.5 -52t-0.5 -64.5t-1 -51.5v-39q0 -152 5 -219q8 -141 8 -281q0 -98 2 -149q0 -31 1 -105t0.5 -125.5t-3.5 -99.5v-39q0 -3 -1.5 -11t-0.5 -13q2 -9 20 -9 z" />
<glyph unicode="M" horiz-adv-x="1351" d="M1227 211q-1 -23 0.5 -104.5t-2.5 -104.5q-83 -16 -103 -16q-32 -1 -137 12q-12 27 -12 102q-2 115 -2 346q0 26 -1 97t-1 104v141q-11 -28 -26.5 -85t-27.5 -85q-11 -50 -61 -188l-12 -49q-16 -49 -27 -98q-28 -92 -33 -113q-7 -3 -47 -8q-81 -10 -151 -2 q-8 51 -24.5 106t-39 119t-33.5 100q-4 16 -24 80q-6 19 -8 31q-64 184 -72 205q-4 -17 -4 -74q0 -15 -3 -43t-3 -43q0 -101 10 -248q13 -282 0 -395l-66 -4q-66 -4 -69 -4q-91 14 -111 14q-1 20 0.5 56.5t1.5 50.5q0 38 -4 104q0 13 1 40t1 40q0 33 -3 98.5t-3 98.5 q0 13 -1 43t-0.5 51.5t3.5 42.5q-3 63 -3 187t-3 190q0 7 1 27t1 32v53q0 6 4 10q-6 8 -6 54q0 19 -3 60t-3 63q0 86 2 127q4 3 7 3.5t8.5 -0.5t8.5 -1q29 0 99 12q10 1 21.5 1t26.5 -0.5t23 -0.5q16 1 31.5 -1t38.5 -7t31 -6q27 0 39 -5q9 -41 61 -208q5 -19 33.5 -128 t46.5 -167q6 -21 26 -88.5t32 -113.5t20 -91q15 40 20 59q12 41 40 150t48 170q14 35 29 102.5t18 77.5q6 22 23 73t27 89t14 78q8 0 17.5 4.5t15.5 5.5h6q1 0 8 2q14 2 43 2q5 0 16.5 2t16.5 2q56 3 108 -6q55 -3 97 -17q1 -21 -3 -67t-3 -70q0 -5 1.5 -13t1.5 -15t-3 -13 q4 -17 5 -37.5t0.5 -33t-2 -39.5t-1.5 -35q0 -5 1 -16.5t1 -16.5q-2 -2 -2 -29q3 -53 1 -147t1 -135q3 -58 0 -163.5t0 -154.5q0 -8 1 -24.5t1 -24.5q0 -15 -1 -45t-1 -47q0 -15 3 -44t3 -44zM1128 565v232q-1 27 0.5 74t1.5 63v51q0 55 -6 113v108q0 99 -8 127q-1 3 -5.5 3 t-9.5 -2l-5 -1h-13l-22 4q-32 4 -49 4q-15 0 -19.5 -7t-5.5 -21.5t-4 -22.5q-2 -2 -2 -4l-1 -4q-1 -4 -1 -8q-2 -2 -2 -10q0 -2 -2 -2q-1 -2 -8 -29q-11 -24 -13 -47l-10 -37l-18 -51q-23 -71 -23 -72l-6 -20q0 -1 -1 -9.5t-5 -13.5l-12 -31q-15 -32 -41 -116 q-12 -30 -23 -72q-18 -61 -29 -82q-7 -16 -51 -152q-3 -7 -7 -20.5t-7 -20.5l-12 -36l-17 -47l-6 -17l-16 -39q-3 4 -6.5 13.5t-6.5 13.5q-2 2 -2 4q0 1 -1 5t-1 7l-4 19l-6 24l-16 43l-19 51q-3 8 -7 24.5t-7 23.5l-14 53q0 1 -1 4t-1 6l-11 41l-37 123q-17 53 -22 74 q-24 77 -51 153l-45 137l-35 109l-6 16l-15 33q-7 -4 -38.5 -1.5t-41.5 1.5q-20 0 -22 -2q-13 -3 -16 -10q-5 -8 -5 -43v-19q3 -19 0 -41v-36q0 -28 -1 -77t-1 -77v-33q-5 -18 -1.5 -130t3.5 -130q0 -5 1.5 -15t1.5 -18q0 -12 1 -32t1 -31q2 -41 2 -121v-51q-2 -39 -2 -115 q0 -18 -2 -20q-3 -65 -3 -127q0 -4 -1 -11t-1 -10q0 -53 5 -74v-10q0 -18 4 -22q6 -7 13 -4t7 16v8q0 8 -2 10q-5 36 -2 117q0 19 2 21q-1 8 0.5 23t1.5 20q0 16 2 18q0 16 1 42.5t1 39.5q0 25 -2 27v34q0 7 1 18.5t1 18.5v25q2 47 -2 133q0 16 -1 49t-1 51v37q-6 67 -2 201 v149q2 31 2 93q-3 43 0 88h55q24 3 31 -15l4 -16l31 -98q4 -14 13.5 -40t11.5 -30l20 -59l18 -60l25 -67q17 -65 35 -111l6 -23l10 -32q6 -30 8 -33l4 -9q4 -10 5 -16q3 -7 7 -20.5t7 -20.5q1 -6 2 -11.5t1.5 -8.5t0.5 -4q3 -7 6 -22.5t6 -22.5q18 -55 21 -66q2 -12 14 -41 q6 -18 8 -20q3 -9 7.5 -26t7.5 -25q0 -3 1 -7.5t1 -7.5l8 -22q6 -23 16 -37.5t27 -7.5q13 6 19.5 27.5t11.5 27.5l6 10l2 4q6 19 10 25l18 61l7 19l14 47q3 8 8 26t8 27q8 8 15 39l16 39l18 49q7 22 19.5 69t24.5 83.5t28 66.5l19 56l20 61l10 27l6 22l5 19l6 12 q1 6 4.5 25.5t7.5 32.5t10 24l17 57q6 30 8 33h12q9 0 37 -4t33 -4q2 -33 2 -101q0 -69 2 -108l4 -148v-39q-2 -101 2 -307q0 -25 -2 -39q-5 -131 -8 -155l-4 -21q-2 -1 -1 -18.5t1 -18.5v-16q0 -80 -7 -166q-1 -9 3 -39q0 -5 1 -14.5t1 -14.5q0 -8 -2 -10q0 -18 4 -22 q20 -23 20 31v18v4q-2 2 -2 18q-2 22 2 66q0 9 1 27.5t1 27.5v6q0 61 2 92v29q8 57 8 129q2 14 2 45z" />
<glyph unicode="N" horiz-adv-x="1095" d="M971 223q1 -27 -1.5 -105t1.5 -102q0 -2 -3.5 -6t-2.5 -8q-12 0 -89.5 -3t-87.5 1q-4 0 -33 3t-44 3q-9 29 -25 55q-13 38 -42 105t-42 102q-3 7 -13.5 29.5t-16 38t-9.5 33.5l-41 104q-14 37 -32 78.5t-42.5 92.5t-37.5 81q-4 13 -14.5 35.5t-14.5 34.5q-1 -71 4 -422 q0 -49 2 -74q0 -14 2 -39t2 -37q0 -9 -2 -27t-2 -26q-6 -51 -6 -156q-3 -1 -6.5 -0.5t-5 -0.5t-2.5 -5q-78 -27 -234 0q-5 11 -5.5 30.5t5.5 27.5q-4 9 -4 49q4 54 2 82q-1 7 -3.5 33.5t-2.5 39.5q-1 13 4 88q1 25 -1 73.5t-1 76.5v158q0 9 1.5 33.5t0.5 37.5 q-1 36 1.5 106.5t2.5 100.5q0 32 -1.5 113.5t-2 126.5t0 115t3.5 131q134 20 223 8q1 -3 2.5 -3.5t3.5 0t5 -0.5q7 -10 12.5 -21t11 -25t8.5 -22.5t9 -26.5l8 -24q22 -33 49 -104t37 -91q30 -67 71 -164q70 -187 144 -327l8 129q2 44 -2 135v274v56q0 7 -0.5 109t0.5 104 q145 24 244 -6q2 -47 2 -138q0 -24 1 -70t1 -69q-1 -16 -2.5 -44.5t-2.5 -52t-1 -44.5q3 -79 -1 -235.5t-1 -225.5v-111q5 -181 8 -217zM217 186l4 -53q0 -3 -1 -6t-1 -6q-3 -17 2 -25h2q2 -2 8 -2q5 0 9 4l2 2q5 23 0 93v67q0 19 2 27q0 9 1 26.5t1 26.5v4q0 49 2 74 q9 80 6 157q0 38 -2 56q0 15 -1 45t-1 45v18q0 16 1.5 61t0.5 72q-4 46 -4 74v39q-2 14 -2 43v119q0 120 2 186q3 -3 6 -3t6.5 1.5t5.5 1.5h2q9 -16 33 -76l29 -65l14 -37l16 -37q1 -3 4.5 -7t4.5 -7l10 -21l6 -18q7 -20 8 -21l27 -63q20 -36 35 -82q12 -37 61 -149l19 -39 l14 -33l65 -156q16 -43 56 -129q21 -55 51 -119l72 -165h2q4 0 18.5 -4t25.5 -2.5t17 12.5h2q6 277 -6 557q-2 33 -2 104v78q-3 43 0 88q0 17 4 53q6 44 6 86v15q0 35 2 53q4 46 4 70q0 7 -1 24t-1 27l-4 53q0 3 1 6t1 6q3 17 -2 25h-2q-2 2 -8 2q-4 0 -8 -4l-2 -2 q-4 -23 0 -92v-68q0 -19 -2 -27q0 -9 -1 -26.5t-1 -26.5v-4q0 -49 -2 -74q-13 -116 -11 -157q0 -38 2 -56q0 -15 1 -45t1 -45v-18q0 -86 2 -133q5 -58 5 -74v-39q2 -14 2 -43v-119q0 -120 -2 -186h-21q-9 16 -33 76l-28 65l-15 37l-16 37q-1 3 -4 7t-4 7l-11 21l-6 18 q-6 20 -8 21l-26 63q-20 36 -35 82l-31 78l-31 72l-18 36l-80 191q-20 54 -55 129q-16 41 -52 119l-71 166l-2 8q-42 5 -62 -15h-2q-6 -277 6 -557q1 -19 -0.5 -54t-1.5 -50v-78q5 -75 4 -88q0 -17 -4 -53q-6 -44 -6 -86v-15q0 -35 -2 -53q-4 -46 -4 -69q0 -6 1 -24t1 -28z " />
<glyph unicode="O" d="M858 735q9 -107 9 -239.5t-23 -241.5q5 -27 -19 -82q-8 -13 -21 -30.5t-18 -24.5q-6 -8 -13.5 -15.5t-10.5 -10t-16 -11.5t-15 -10l-18 -17q-31 -18 -41 -22q-46 -25 -97 -37q-10 -2 -35 -8.5t-42 -9t-35 -1.5q-6 1 -22 5t-25 4q-49 4 -54 6l-45 20q-23 17 -38 23l-37 24 q-10 8 -31 28.5t-33 29.5l-26 37q-29 47 -39 79q-15 58 -17 99q0 15 -5.5 58.5t-2.5 70.5q0 24 2 26q0 9 1 38t1 38q0 4 -1 11t-1 10q-1 50 0.5 145.5t1.5 126.5v137q0 44 4 170v26t4 34q0 3 4 9.5t5 8.5q10 37 26 53q4 6 9 11.5t12 11t10 8.5q2 2 12 13t13 14l12 12 t14.5 13t14 10t16.5 10q12 6 50.5 21t57.5 28q8 1 31.5 5t34.5 5.5t32.5 4t36 3t34 -1t36.5 -4.5q13 -3 37 -15.5t37 -15.5l14 -4q23 -8 57.5 -30.5t45.5 -28.5q11 -12 20.5 -25.5t18 -30t13.5 -27t14 -31.5t13 -29q23 -51 23 -177l4 -213q1 -14 1 -29.5t-0.5 -35 t-0.5 -29.5zM768 365l8 139l-4 39v39q0 27 -2 41q1 69 -7.5 195t-8.5 188v77q0 4 -1 13t-1 14q9 83 -52 158q-22 30 -86 61l-36 14q-4 1 -17.5 4t-21.5 3q-1 1 -39 6q-40 3 -80 -6q-23 0 -37 -2l-41 -13q-22 -9 -35 -20q-20 -12 -31 -23q-14 -14 -26 -32q-18 -36 -29 -76 l-8 -39q-8 -33 -10 -96.5t-4 -77.5v-37l-4 -70q-2 -14 -2 -39q0 -7 -1.5 -19.5t-1.5 -19.5t1.5 -20.5t1.5 -20.5q0 -52 2 -79q2 -8 2 -27v-107q-4 -98 4 -170q0 -6 4 -34q12 -100 92.5 -169.5t181.5 -62.5l41 4q191 27 225 160l7 29q2 9 6.5 29t7.5 30q-4 1 -1 8.5t3 8.5z M709 233l-9 -10q-57 -82 -172 -98q-30 0 -34 -2q-95 -20 -176.5 48.5t-86.5 164.5q-4 28 -4 31q-3 24 -4 51.5t-1 61.5t-1 52q0 2 0.5 42t-0.5 42v37q-6 59 -6 117v45q2 2 2 29v26q2 14 2 39q0 7 1 20.5t1 20.5v54q0 71 6 106l6 39q16 62 48 111q20 20 34 30q3 3 23 15 q45 18 86 18l45 4h47q29 0 31 -2q17 0 35 -6l30 -10q7 -3 15 -8.5t12.5 -9t13 -12t11 -11.5t12 -14t10.5 -13q52 -72 43 -133q-3 -22 0 -41q0 -27 2 -29v-26q-1 -99 -1 -121.5t6 -120t7 -121.5v-119q0 -4 1 -13t1 -13q-5 -34 -7 -103.5t-7 -103.5l-8 -33q-3 -5 -7 -15.5 t-7 -15.5zM610 412q4 22 4 92q-2 41 -2 100q0 74 -10 207q-1 13 0.5 64.5t-2.5 64.5q-1 15 0 54t0 59v55q-8 36 -35 63q-1 0 -31 16.5t-49 16.5q-74 -5 -104 -30q-14 -10 -31 -39q-4 -9 -5.5 -18t-1.5 -15t0.5 -19t0.5 -20q0 -48 -4 -227.5t0 -225.5q1 -16 3.5 -58.5 t2.5 -60t-2 -59.5q-4 -112 33 -158q1 -3 1 -6t1 -4l27 -22q56 -13 102 -2t72 43q1 3 5 5t5 5q1 1 1 5t1 5q1 3 3.5 5t2.5 3l4 17q1 2 2.5 5.5t2.5 5.5t1 3q4 9 2.5 35.5t-0.5 34.5z" />
<glyph unicode="P" horiz-adv-x="978" d="M864 1219q18 -55 21 -66q11 -96 2 -215q-12 -104 -25 -143l-26 -60q-16 -29 -52 -57l-61 -47q-76 -40 -160 -51q-26 -4 -56.5 -5t-69 -1t-56.5 -1q-8 -92 -8 -270v-123q-1 -28 0 -83.5t0 -84.5q-11 -2 -34.5 -8t-33.5 -8t-33.5 -5t-35.5 1q-20 1 -51 6t-50 6 q-11 60 -8 152q3 83 0 166q0 13 1 43t0.5 51.5t-3.5 42.5q-3 23 -3 48.5t1.5 56.5t1.5 48v136q0 22 3 63t3 61q0 62 -2 93q0 7 1 18t1 18q0 5 -1 16.5t-1 16.5q-1 20 1 60t1 59q-4 41 -2 59v60q0 12 -3 29.5t-3 25.5q0 10 0.5 31.5t0.5 39t-1 32.5q3 3 8 5t8 5q31 2 49 1.5 t55 -3.5t54 -4q1 0 56.5 2t56.5 -2q10 3 22.5 3t29 -1.5t25.5 -1.5h27.5t32.5 -4q3 0 8 -2.5t8 -2.5q6 -1 17 -1t20 -1t16 -4q61 -16 113 -37q18 -6 47 -32q7 -7 14 -15t14.5 -17.5t12.5 -14.5q19 -24 21 -27q12 -17 26 -57zM793 1071q0 7 -4.5 20.5t-4.5 20.5 q-8 86 -98 156q-94 75 -219 59q-25 0 -39 -2h-25q-4 0 -12 1t-12 1h-29q-20 0 -22 -2q-4 0 -12.5 -1t-12.5 -1q-5 -1 -25.5 0.5t-25.5 -2.5q-10 -6 -10 -57q-2 -2 -2 -13v-49q0 -16 -1 -49t-1 -49q-2 -41 -2 -123q0 -34 2 -57q0 -53 2 -84q0 -9 -1 -28t-1 -28q0 -12 1 -31 t1 -30v-68v-63q0 -12 1 -38t1 -38q-1 -8 0 -23.5t0 -23.5q-1 -10 -1 -22t0.5 -27t0.5 -23v-112q0 -62 -2 -95q-1 -12 -1 -32.5t-1 -32.5v-4q0 -32 4 -37q2 -2 8 -2t8 2q3 3 3.5 6t-0.5 8.5t-1 7.5v7v20v14q8 80 4 179v55v68q3 43 0 88q0 7 -1 17t-1 17q-3 65 0 127l49 -6 q19 -3 40 -3.5t50.5 0.5t42.5 1h35q13 1 40 3t39 3t30.5 3.5t32.5 5.5t26 8l25 10q12 5 33 22q3 1 26 25q27 40 39 66l12 32q22 79 13 154q-1 5 0 15.5t0 15.5q0 3 -1 9t-1 9zM772 965q-4 -78 -20 -113q-6 -20 -11 -27l-14 -24q-5 -9 -29 -33q-27 -19 -36 -23l-29 -12 q-51 -18 -193 -18q-11 0 -42 -0.5t-48.5 -0.5t-43.5 1.5t-46 5.5q-4 121 -4.5 165t2.5 166t4 165q2 39 2 77q13 0 41 4q6 1 16 3t13 2h35q3 -3 24 -3q21 3 45 3q66 12 130.5 -4.5t111.5 -57.5q31 -26 44.5 -39.5t26 -39.5t15.5 -60q4 -32 4 -47q2 -16 2 -49q3 -19 0 -41z M641 1032q5 109 -43 137q-38 20 -103.5 22t-117.5 -5q3 -39 3 -81t-1.5 -92.5t-1.5 -78.5q0 -9 -1 -30.5t-0.5 -37t3.5 -30.5q142 -25 223 18q27 21 27 59q4 9 4 50q3 13 8 69z" />
<glyph unicode="Q" horiz-adv-x="944" d="M860 399q0 -2 -4 -30q0 -9 1 -27t0.5 -30.5t-3.5 -24.5l1.5 -18t-3 -17.5t-5.5 -17.5t-6.5 -17t-6.5 -16q-11 -41 -37 -70q-11 -13 -46.5 -41.5t-48.5 -50.5q3 -7 6.5 -18.5t6.5 -18.5l14 -22q3 -7 7 -23t7 -23q66 -154 80 -192l-4 -16q-102 -12 -209 0q-3 6 -10 6 q-30 74 -76 168q-4 9 -16 39.5t-21 46.5q-37 -7 -94 4q-47 12 -57 16q-8 4 -20 5t-13 1q-3 1 -8 5.5t-8 5.5l-27 10l-4 4l-20 12q-12 6 -52 41q-26 26 -49 64q-25 40 -37 84q-9 44 -12 90q-4 14 -1.5 50.5t1.5 45.5q-1 27 0.5 76.5t1.5 66.5v109q1 44 1 100t-0.5 125.5 t-0.5 104.5q0 34 4 104q0 3 1.5 14t0.5 17q0 7 -1 17.5t-1 17.5q1 5 4 15.5t2 16.5q35 77 37 84q28 48 88 94q20 19 37 27q31 13 74 23q15 7 39 10q35 8 135 4h28.5t32.5 -4q2 0 10.5 -3t11 -2.5t9.5 3.5q47 -14 125 -64q28 -16 59 -55q13 -18 23 -41q3 -7 12 -19.5 t12 -19.5l7 -20q5 -12 8 -51q0 -2 4 -19.5t4 -28.5q1 -17 0 -51.5t0 -54.5v-51q0 -14 -1 -54.5t-0.5 -71.5t3.5 -59q-4 -19 -4 -43t2 -54t2 -46q-2 -39 -2 -115q0 -21 3 -64t3 -63zM223 287v-2q38 -118 135 -160q6 -5 19 -10q7 -7 14 -9l17 -6q10 -3 19.5 -4.5t21.5 -1.5 h18.5t21.5 3t19 3.5t21.5 4.5t19.5 4q6 3 16 0q5 -6 8 -13l9 -18q29 -59 61 -150l47 -118v-3q0 -2 2 -4q1 -1 2.5 -5t2 -5.5t2 -5t3 -5t3 -3.5t3.5 -3l4 -2t5 -1h2q2 0 8 6q6 11 -12 35l-2 2q-3 8 -20.5 53t-26.5 68q-47 116 -70 167q-3 12 -8 17q10 3 26 16q3 3 7.5 5 t5.5 5q45 25 65 54q15 15 25 41q2 2 2 4q0 8 2 12q8 14 11.5 32.5t4 28t-1.5 36t-2 32.5v70l4 104q3 19 3.5 39.5t-0.5 49.5t-1 42v103q2 14 2 34q4 141 0 183q-2 16 -2 47q0 29 -2 31q10 67 -18 117.5t-79 76t-111 35.5t-121 4q-28 -4 -35 -8q-69 -21 -115 -71.5 t-47 -117.5q0 -3 -1 -5t-1 -5q0 -5 -1 -15.5t-1 -15.5q2 -63 2 -176v-8q-4 -243 2 -369q6 -43 2 -126v-21v-18q-2 -26 10 -80zM236 385q3 24 3 52.5t-1.5 60.5t-1.5 47q-3 82 -3 172q-2 14 -2 39q2 33 2 96q4 126 -4 229q0 7 1 19.5t1 19.5q2 2 2 13v2q3 103 134 149 q13 6 43 10q154 24 260 -63q17 -14 26.5 -35.5t12 -34.5t5 -46t3.5 -40v-47q4 -70 2 -110v-46v-55q-2 -35 -2 -94q0 -23 -1 -71.5t-1 -73.5q-2 -51 -2 -152q0 -3 -1 -7t-1 -7q0 -23 2 -33v-33q0 -5 -4 -33q0 -15 -9 -30q-2 -2 -2 -11q-3 -24 -14 -43q-15 -21 -51 -49 q-6 -6 -12 -8q-26 -26 -78 -43l-23 -6q-52 -9 -104 0l-17 6l-18 8q-3 3 -9.5 6.5t-9.5 6.5q-56 34 -114 129l-6 18l-6 35v18v35zM600 793q0 14 3 81.5t-1 75.5v41q0 3 -3 20t-3 25q0 9 1.5 37t0.5 43q-1 23 -4.5 29.5t-15.5 17.5q-2 2 -5.5 6.5t-6 7t-5.5 3.5q-5 3 -20.5 6 t-22.5 6q-42 10 -45 10q-37 2 -84 -18q-3 -2 -8 -4.5l-8 -4t-4 -4.5l-17 -22q-1 -4 0 -12.5t0 -12.5l-6 -18q-4 -15 -4 -76q0 -14 -2 -41t-2 -41q0 -23 2.5 -78t1.5 -82q0 -16 -1 -50t-1 -54q-2 0 -1 -58l1 -59q-7 -54 -6.5 -136t18.5 -132q6 -6 13.5 -19t15.5 -18 q32 -23 61 -26q45 -8 107 20q23 10 34 24.5t17 41.5q3 11 3 24.5t-1.5 30t-1.5 24.5q0 7 1 20t1 17q-4 77 -2 115v240z" />
<glyph unicode="R" horiz-adv-x="993" d="M225 -10q-68 10 -102 24q0 87 2 150q0 8 2.5 37.5t2 36.5t-2.5 38v52q2 43 2 135q0 27 1.5 83t1.5 106.5t-3 97.5q-1 25 2.5 72.5t3.5 68.5v113q4 110 4 188q0 33 -1.5 109.5t-0.5 121.5q1 2 3 5.5t3 6.5t0 7q47 6 152 6q229 0 360 -31q51 -13 72 -26q1 -3 5 0t7 0 q66 -44 111 -125q5 -22 27 -62q13 -50 14 -59q5 -8 3 -56t-1 -59q4 -36 2 -55q-3 -63 -18 -125q-12 -54 -35 -92q-36 -54 -97 -103q-31 -31 -45 -37q32 -111 50 -145q13 -51 36 -115l39 -112q28 -67 60 -172q2 -6 8 -19.5t7.5 -18.5t3.5 -18.5t-3 -19.5q-78 -25 -168 -4 q-9 2 -36 8.5t-42 7.5q-26 86 -59 180q-7 22 -18.5 63.5t-18.5 61.5q-38 117 -70 211q-15 34 -16 49q-14 -5 -39.5 -5t-44.5 5q-11 -170 -8 -301q0 -4 -1 -12t-1 -12q4 -109 2 -160v-55q-1 -6 -5.5 -16.5t-4.5 -18.5q-52 -20 -146 -10zM250 63h12l2 3q5 8 2 20v6 q-8 60 2 139v43q0 3 1 7.5t1 7.5q0 51 2 76v18q0 9 1 28.5t1 28.5v19q6 153 5 168v18q-3 3 -3 19q6 9 3 20q0 16 2 18l16 -4q4 -1 86 -6h31q3 0 6.5 -0.5t10 -1.5t11.5 -2q14 -2 35 -2q25 0 49 6l19 -51q1 -6 4 -15l4 -12l18 -47l13 -32q8 -25 55 -136q31 -73 70 -180 l14 -41l14 -39l8 -26q17 -50 21 -58v-2l2 2q2 2 6 2l4 1q3 1 4 5q9 15 -4 31q-4 4 -4 8l-6 21l-6 16q-2 13 -12 37q-3 4 -5 9.5t-5 13l-5 12.5q-45 129 -71 184q-39 97 -68 176l-12 31q-14 32 -15 41l-16 55l29 7q48 13 67 24q6 4 12 9.5t14.5 14.5t12.5 13l17 16q6 6 8 6 l12 15q11 18 18 46t8.5 42t6.5 57q0 19 2 21v2q5 76 4 90v16q-2 2 -2 17q-7 40 -10.5 56.5t-14 45.5t-24.5 51l-13 19q-23 23 -32 28l-21 11l-10 4q-10 0 -12 2q-36 15 -82 18q-62 4 -103 4q-53 0 -80 -2h-90l-4 -8l-4 -8v-21q2 -2 2 -22q2 -41 2 -129q0 -3 -1 -9.5t-1 -9.5 q0 -129 -2 -192v-64q0 -3 -1 -7t-1 -7q0 -14 -2 -16q-4 -16 -2.5 -74.5t0.5 -75.5v-35l-4 -182v-16q-2 -31 -2 -86v-19q0 -55 -2 -80q0 -18 -2 -26v-27q-4 -28 -4 -47v-14q-3 -87 8 -93zM285 801v155q0 16 -1.5 43.5t-1.5 49.5t3 43v20q6 39 2 145q-2 2 -2 19q0 3 -1 9t-1 9 v13h92q25 2 76 2h4q111 0 151 -13l15 -6l16 -6l16 -12l17 -15q64 -76 67 -184q2 -2 2 -18q0 -75 -14 -178q-6 -40 -12 -52q-4 -8 -14 -18.5t-11 -11.5l-10 -11q-23 -27 -54.5 -40t-91.5 -27q-11 -4 -55 -4q-34 0 -57 2h-4q-16 2 -49 2q-10 1 -28 1t-31 1t-25 4v14q2 23 2 64 zM391 926q-4 -70 2 -90q46 -1 85 -0.5t75.5 8.5t60.5 24q5 5 8 11.5t4.5 11t3 15t3.5 16.5q6 33 6 92q-1 13 0 42t-0.5 49t-7.5 34q-9 20 -39 37q-36 16 -119 12q-10 -1 -24 -1t-31.5 0.5t-26.5 0.5q0 -24 0.5 -78t0.5 -100.5t-1 -83.5zM156 1427q-1 -3 -4 -5q2 -1 4 -1 q0 1 1 2q3 4 -1 4z" />
<glyph unicode="S" horiz-adv-x="946" d="M842 1194q18 -79 18 -86q2 -35 1.5 -52.5t-3.5 -54t-4 -55.5q-20 -8 -80 -8q-9 0 -26.5 -1t-26.5 -1h-51q-3 0 -6.5 2t-6.5 2q-8 2 -20 3.5t-20 4t-15 8.5q-1 12 1.5 55.5t-1.5 59.5q-1 5 -4 22t-4.5 23.5t-5.5 18t-10 20.5q-14 25 -37 35h-21q-4 1 -10.5 3.5t-10 4 t-10.5 3t-11 1.5h-13q-5 0 -35 -10q-5 -2 -16 -5.5t-15.5 -5t-11.5 -5.5t-12 -9q-6 -4 -10.5 -9.5t-9 -14t-7.5 -13.5q-9 -45 10 -102q12 -34 64 -98q4 -4 11 -14.5t11 -14.5q3 -4 11.5 -10.5t11.5 -9.5q10 -8 31 -27.5t34 -28.5q53 -35 91 -73q8 -3 14.5 -8.5t14.5 -15 t12 -13.5q11 -11 30 -28.5t31 -29.5q44 -44 61 -77q11 -9 23.5 -39t15.5 -35q2 -6 8 -15.5t7 -15.5q1 -5 1 -15.5t1 -15.5q0 -4 3 -11t3 -11q2 -14 2 -39q-1 -33 1 -41.5t-4 -37t-7 -33.5t-8.5 -31t-8.5 -31q-14 -43 -20 -53q-3 -5 -11.5 -14.5t-11.5 -14.5l-10 -14l-12 -13 q-3 -3 -4 -8t-4 -8l-9 -6q-30 -30 -49 -35q-28 -16 -37 -25q-3 0 -9.5 -2.5t-10.5 -1.5q-18 -8 -34.5 -12t-42.5 -6.5t-36 -3.5q-3 0 -6 -2t-6 -2q-2 0 -10 1.5t-11 0.5q-12 0 -43 -1t-47 -1q-3 0 -10.5 -1t-12 -0.5t-7.5 3.5h-17q-6 2 -21 5.5t-24.5 6.5t-20.5 9t-16 14 q-10 -3 -20 6q-10 4 -19.5 12.5t-11.5 13.5q-9 1 -19.5 9t-15.5 10q0 3 -1.5 5t-2.5 3t0 2q-14 8 -29 33.5t-24 34.5q1 3 0 5t0 5q-14 22 -20.5 46.5t-11.5 66t-7 53.5q0 6 2 8q-13 61 4 143q34 12 72 13.5t91.5 -3.5t74.5 -6q2 -2 4.5 -5.5t5.5 -4.5q0 -11 -0.5 -42 t-0.5 -46.5t2 -42t6 -42t12 -33t20 -27.5q6 -2 30.5 -11.5t41 -12.5t34.5 1q13 3 25.5 8t24 14t18.5 15t19 18t16 15q27 68 -25 174q-22 30 -78 74t-77 69q-3 0 -4.5 1.5t-4.5 2.5q-5 7 -19.5 18.5t-19.5 18.5q-13 3 -16 17q-26 15 -31 28q-10 3 -17 8.5t-14.5 15 t-11.5 13.5q-21 17 -26 23l-21 16q-7 7 -24 21t-25 22l-18 16q-7 7 -16.5 23.5t-16.5 23.5q-40 75 -37 162q0 3 -2 9.5t-2 9.5v47q1 9 3.5 26t4.5 27.5t5.5 24.5t8.5 26q0 11 3 21t9 23t9 20q2 3 7.5 13t8.5 15q5 6 20 22t21 26l19 16q44 38 116 65l54 19q22 6 71 10 q16 2 48 2l77 -6q28 -2 70 -20q4 -6 11.5 -11t18.5 -9.5t15 -6.5q19 -10 46 -36t38 -34q58 -77 74 -141zM745 1051q0 5 -1 15t-1 15q0 3 -1 6.5t-1 6.5q-3 47 -18 77l-4 15q-5 7 -26 45t-38.5 57.5t-42.5 30.5l-16 8q-3 1 -15 4t-20 4q-4 0 -8.5 1t-7.5 1q-4 0 -4 2 q-40 7 -64 7q-47 0 -65 -9q-52 -13 -88.5 -32t-63.5 -56q-22 -38 -45 -102q-16 -44 -6 -107q3 -39 12 -69q14 -23 19 -35l10 -16q4 -8 33 -48q4 -4 30.5 -32.5t39.5 -42t38 -36.5t47 -40l19 -16q17 -18 51.5 -44.5t48.5 -39.5l14 -13l39 -41l33 -41l8 -10l11 -14l10 -13 q17 -25 24 -57l4 -20q10 -102 -26 -176q-3 -12 -8 -17q-24 -47 -68 -74l-12 -10l-17 -8q-5 -5 -16 -8q-16 -5 -36.5 -7t-34.5 -2t-38.5 0.5t-35.5 0.5l-17 4q-12 2 -31 8l-20 8q-63 37 -94 90l-10 19l-7 20q-8 25 -8 76v20q0 2 -1 10.5t-1.5 13t-2 10.5t-4.5 9t-7 2 q-10 -3 -12 -12t0.5 -25.5t1.5 -23.5q2 -2 2 -18q2 -26 14 -72q5 -16 6 -17q5 -15 19 -36l8 -11q24 -38 59 -63q5 -5 19 -10q29 -19 61 -25q3 0 8 -1t8 -1q104 -11 172 16l15 7l16 8q3 3 8 5t8 5l15 12q42 36 63 76l9 16q33 78 20 166l-4 21q-7 36 -41 98q-1 3 -4 7t-4 7 l-19 23l-14 16l-37 41l-12 15q-18 16 -64 52.5t-69 59.5l-11 8q-23 18 -67 62l-17 16q-58 54 -90 107q-4 12 -10 18l-16 31q-22 69 -19 123q1 18 23 80q11 32 26 53q25 41 83.5 65.5t132.5 24.5h2q16 0 18 -2q30 -3 57 -12l17 -6l18 -11q52 -31 84 -104l4 -8t4 -11 q1 -2 4.5 -8t4.5 -10l6 -18q6 -26 12 -91v-8q-5 -15 4 -18t14 2q4 4 4 31z" />
<glyph unicode="T" horiz-adv-x="980" d="M909 1376q9 -40 9 -80q-4 -100 -58 -100q-15 3 -32.5 3t-41 -1.5t-36.5 -1.5h-84h-29q-3 1 -7.5 3t-6 1.5l-7.5 -2.5q-4 -19 -5 -41.5t-0.5 -36t2 -41.5t1.5 -39q0 -16 -2 -46.5t-2 -45.5q0 -11 2 -34.5t2 -36.5q0 -22 -6 -103q5 -5 4.5 -38t-0.5 -38q0 -3 2 -8t2 -8 q3 -17 3 -37.5t-1.5 -46t-1.5 -39.5q0 -21 -1 -62t-1 -61v-108v-117q0 -38 -4 -107.5t-4 -107.5q-13 -1 -43 -6.5t-47 -5.5q-1 0 -3 1t-3 1q-18 -2 -26 -2t-28 2.5l-28 3.5q-49 4 -72 18q4 0 2 108t-2 113q0 35 4.5 105t4.5 108q0 40 -1.5 119.5t-1.5 120.5q0 16 -3 120 t1 120q3 31 2.5 88.5t2.5 89.5q1 12 3 33t1.5 28t-2.5 33q-23 1 -48.5 1t-58 -0.5t-51.5 -0.5q-11 0 -35 2t-35 2q-45 0 -63 8q-16 57 -12 121.5t24 118.5q10 4 80 0t86 -4q48 -1 230 0.5t233 -2.5q56 -6 151 -2h10.5h8.5t6 -0.5t4.5 -1.5t2.5 -3.5t2.5 -5t1 -8t1.5 -10.5 t1.5 -14.5t2.5 -18.5zM842 1335q-4 4 -15 4h-90q-8 0 -29.5 -1t-37 -0.5t-29.5 3.5q-32 0 -103.5 -4t-115.5 -4q-39 0 -64 2h-143q-7 0 -18.5 -1t-18.5 -1q-14 0 -16 -2q-21 0 -39 -6q2 0 0 -2l-4.5 -4.5t2.5 -5.5q22 -8 57 -2q3 0 10.5 1t10.5 1q16 0 18 -2h125 q13 0 40.5 -1t43.5 -1q37 0 53 2q-6 -125 -6 -361q0 -7 1 -20.5t1 -20.5v-45v-16q-4 -29 -1.5 -81t-0.5 -81v-20q0 -72 2 -107v-104v-49q-2 -14 -2 -50v-98q2 -26 -2 -76q0 -13 -1 -33.5t-1 -31.5v-8q0 -25 12 -29q10 -3 13 13q2 7 0 18v12q-2 21 2 65q0 17 2 19v90 q-2 0 -1 46l1 46q0 13 1 40.5t1 41.5q0 28 -1 94t-1 101q0 25 1 84.5t1 97.5v57q-2 14 -2 45q0 233 8 361q91 6 188 6h66q8 0 10 -2h35q36 0 39 10q3 5 -2 10z" />
<glyph unicode="U" d="M631 8l-37 -6q-95 -22 -191 -10q-26 2 -73 14q-12 5 -49 23q-7 5 -25 13t-25 13t-20.5 20t-26.5 23q-8 11 -26.5 34t-30 41.5t-18.5 39.5q-2 8 -6.5 22.5t-7 26.5t-3.5 23q-8 63 -8 151q0 1 6 70q0 11 -3 33.5t-3 40t6 28.5q-4 1 -5 5.5t0 16t1 13.5q0 33 -1.5 90.5 t-1.5 108.5t3 106q3 47 3 101t-1.5 120t-1.5 101q4 114 0 149q1 2 4.5 6t3.5 9l94 16q28 3 80.5 -4t67.5 -8q10 -10 7 -43.5t1 -44.5q-4 -3 -2.5 -11.5t-1.5 -11.5q4 -20 4 -62.5v-52.5q0 -14 0.5 -39t0.5 -46t-1 -40q0 -34 1 -114.5t1 -126.5l-6 -252q-1 -38 4 -182 q0 -9 -0.5 -27.5t-0.5 -28t2 -23.5t7 -26q20 -51 78 -63q47 -7 55 -6q1 0 19 6q3 1 9 1t9 1q22 5 44 19t28 30q3 4 4 9t1 12t1 10q9 31 0 49q5 37 0 166q-2 51 -2 164l1 3q1 2 1.5 4t-0.5 3.5t-4 1.5q0 3 3 2q1 0 1 1v3q0 32 1 69.5t2.5 83.5t2.5 72v139q0 27 -1 79.5 t-1 82.5q0 5 2 15.5t2 15.5t-1 14.5t-1 14.5l4 123q21 9 54 12q46 5 53 4q57 17 141 -12q1 -2 1 -6t1 -6t4 -3q3 -58 -3 -159.5t-3 -155.5q2 -39 2 -115q0 -41 -1 -115t-1 -112q0 -19 1.5 -62t1 -77t-4.5 -66q5 -16 1 -81t-3 -85q5 -68 4 -84q-1 -2 -2 -7t-3 -11t-5 -12 q-3 -10 -8 -39.5t-9 -44.5q-1 -2 -3.5 -6t-2.5 -7q-1 -1 -1 -5t-1 -7l-12 -16q-24 -40 -45 -56q-32 -32 -39 -37q-3 -3 -12 -6t-13 -6q-3 -3 -10 -7.5t-10 -6.5l-25 -10zM195 1307v-29q8 -135 4 -242q-3 -26 0 -63v-55q-2 -47 2 -142q0 -16 1 -45t1 -45q0 -11 1 -35.5 t1 -38.5q2 -23 2 -63v-19q1 -21 -2.5 -75.5t0.5 -73.5q0 -17 2 -19q2 -25 14 -81q2 -4 6.5 -17t5.5 -16.5t5 -12t6.5 -12.5t7 -10t10.5 -12l25 -25q59 -64 168 -61h65q29 0 31 2q5 0 12.5 3t9.5 3q18 6 19 6l16 6q5 1 27 8q33 15 67 68l9 10l6 8q6 11 11 26t6.5 24t4.5 31.5 t4 27.5v8q13 124 13 201v108q3 86 0 166v39q-4 65 -2 96q0 24 -4 70q-5 58 -5 64q3 34 3 65v21q1 18 4.5 59t3.5 59.5t-4 59.5q-4 4 -9 4q-7 0 -10 -6q-1 -22 -4.5 -84.5t-3.5 -98.5v-59q0 -5 -0.5 -14.5t-0.5 -17t1 -13.5q4 -31 4 -133v-21q0 -33 2 -51q4 -62 2 -98v-37 v-20q0 -220 -12 -340q0 -4 -1 -13t-1 -14q-4 -70 -19 -94l-10 -11l-14 -20q-23 -38 -43 -49l-33 -12q-1 0 -4 -1t-4 -1l-14 -7l-31 -8q-3 0 -13 -1t-18 -1h-47q-101 -8 -186 80l-13 14l-10 13q-21 41 -33 143q0 3 -1 9t-1 9q0 12 1.5 48.5t0.5 56.5v22q0 195 -4 256 q-3 40 -3.5 77t0.5 86t1 69v129q0 12 -1 31.5t-1 27.5q0 11 -1 34t-1 36v20q0 8 3 24t2.5 27t-7.5 17q-7 2 -11.5 1.5t-6 -14.5t-2 -21.5t-0.5 -20.5zM100 1421q0 3 -2 3.5t-4 0t-2 -1.5q2 -2 8 -2z" />
<glyph unicode="V" horiz-adv-x="1046" d="M981 1425q0 -7 -5.5 -43t-11 -69t-6.5 -33q-9 -26 -19.5 -75.5t-16.5 -69.5q-19 -68 -29 -152q-13 -83 -64 -297q-7 -33 -24.5 -106t-24.5 -113l-10 -57l-6 -33q-6 -33 -29 -129q-25 -124 -28 -146l-17 -55q-14 -53 -14 -55q-24 0 -98.5 -5.5t-127.5 -2.5t-88 20 q-13 37 -26.5 106.5t-20.5 94.5q-11 40 -25 116.5t-16 86.5q-8 39 -23.5 105.5t-21.5 96.5l-16 99q-3 15 -11.5 46t-11.5 48q-1 5 -3.5 27.5t-10.5 31.5q0 30 -16 84q2 19 -13 84q-8 25 -16.5 69t-11.5 56l-19 66q-4 35 -10 53q-27 125 -29 147q31 24 72 27q82 10 186 -18 q61 -265 78 -355q4 -33 11 -55q4 -17 9 -46t7 -40q8 -36 21 -103t18 -92q3 -11 14.5 -52t16.5 -64q5 -19 13 -57t13 -58q22 71 55 235q8 45 28 122.5t26 107.5q8 45 27.5 125.5t23.5 97.5q33 163 53 234q85 25 162 14q22 -3 43 -12q38 -5 43 -7zM319 805q-12 34 -24 110 l-4 21q-3 14 -31 113q-23 65 -31 120q-2 2 -2 19v18l-4 15q-2 2 -2 8q0 2 -2 4v10q-2 2 -2 14l-6 15l-6 14q0 3 -1 7t-1 7q-1 12 -2.5 17.5t-7.5 12t-17 5.5l-2 -2q-1 -3 4 -18q4 -4 4 -8q0 -9 2 -11v-12q0 -4 1 -7l1 -3q0 -2 2 -2l7 -12q0 -15 2 -17v-12l4 -14q0 -3 1 -7 l1 -4q0 -2 2 -2q4 -28 4 -35l4 -36q3 -13 27 -89l14 -40q3 -12 7 -35t7 -35q9 -64 35 -154q24 -93 29 -118l26 -111l7 -27q61 -231 94 -413v-2h2q10 0 31 -3q5 0 14.5 -1t17.5 -1q3 0 11.5 2t15.5 3h2q3 4 4 8.5t4 7.5q5 5 8 16q3 3 4 6.5t1 8.5t1 8l7 22l14 52q3 9 4 10 l6 20l6 23l25 92l12 41q38 158 47 199q7 27 19.5 82t19.5 83q3 20 10 37q10 24 13 52l10 45v4q0 2 6 20l6 23v16q1 15 15 68q12 46 14 73q4 32 10 50q2 0 2 4q0 10 2 16l21 88l6 33l4 15v-1q9 15 0 21q-2 2 -8 2q-13 0 -17 -51l-4 -25q0 -7 -11 -48t-15 -50q-6 -14 -11 -39 l-14 -70q-4 -24 -19 -79.5t-18 -88.5q-5 -47 -8 -55l-12 -45l-19 -84l-30 -125l-4 -16q-4 -31 -11 -50q-2 -2 -8 -20q-10 -23 -12 -39l-4 -23q0 -16 -2 -18q-3 -19 -13 -43l-4 -14l-10 -41q-2 0 -2 -4q0 -3 -1 -8.5t-1 -8.5l-6 -22l-3.5 -10.5t-2.5 -10.5l-11 -28l-6 -17 q-3 -9 -8 -27t-8 -26l-10 -35q-21 0 -23 -2h-18q-7 0 -23 4q-27 154 -67 309q-1 7 -9 31l-20 84q-27 105 -29 115q-4 10 -8 37q-13 68 -25 94z" />
<glyph unicode="W" horiz-adv-x="1478" d="M1300 1436h17q35 0 94 -9q3 -22 -2 -30q-3 -67 -22.5 -189t-24.5 -164v-24.5t-4 -30.5q0 -18 -7.5 -62.5t-9.5 -58.5q-4 -27 -17 -99.5t-17 -115.5q-3 -28 -8 -58.5t-12.5 -66t-10.5 -55.5q-14 -79 -19 -98q-21 -83 -36 -193l-7 -49q-8 -24 -8 -65q-4 -11 -8 -37t-12 -39 q-2 0 -6.5 -1t-7 -0.5t-5.5 3.5q-3 0 -26.5 -3t-38.5 -3h-107q-4 0 -25 -0.5t-29 0t-22.5 3t-25.5 7.5q-3 0 -7 -1t-7 -1q-1 8 -7.5 26.5t-7.5 30.5l-4 39l-6 27q-41 269 -45 315q-15 68 -31.5 202.5t-32.5 201.5q-5 -8 -8 -28t-8 -28q-3 -12 -5 -34t-5 -31q-6 -18 -6 -19 q-3 -13 -8 -77q-1 -10 -15 -84q-1 -7 -1 -18.5t-1 -16.5q-3 -14 -7 -43t-7 -43q-27 -123 -39 -207q-19 -138 -39 -213q-16 2 -22.5 2t-22.5 -2.5t-23 -3.5q-16 -4 -43.5 -4h-33.5q-9 0 -25.5 -1.5t-30 -1.5t-24.5 3q-12 1 -24.5 3.5t-28.5 6.5t-27 6q-5 5 -6.5 13.5 t2.5 13.5q-8 41 -21 122t-18 109l-15 80q-29 186 -30 188q-3 17 -7.5 48.5t-7.5 48.5q-11 49 -28 184q-1 0 2 10q-15 70 -31 197q-4 34 -19 105.5t-20 101.5l-29 194l7 15l53 10q3 0 8 2t8 2q26 4 56.5 0.5t70 -11.5t53.5 -10q13 -118 31 -210q9 -39 19 -108.5t16 -100.5 q7 -41 19.5 -123t19.5 -123q3 -14 11 -55t11.5 -62.5t7.5 -55t5 -61.5q6 10 10 37l43 244l4 43q3 26 14.5 84.5t14.5 89.5q9 82 22 162q5 24 10.5 68.5t6.5 54.5q3 20 11.5 59t12.5 62q49 10 154 10q46 0 110 -23q4 -9 7 -47q0 -14 2.5 -29.5t7 -37.5t6.5 -31q3 -16 6 -46.5 t6 -45.5q14 -56 29 -172q2 -17 7.5 -76t10.5 -88l13 -70l43 -264q8 18 13.5 40.5t7 38.5t4 44.5t3.5 40.5q4 32 9.5 66.5t14 80t13.5 72.5q2 12 8 31q2 31 13 88l12 88q2 14 9.5 49t10.5 57q7 36 18.5 106.5t18.5 106.5l11 6q12 0 36 4.5t37 4.5q5 0 16 -1.5t20 -1.5t15 3z M758 1255l4 -14l12 -55q3 -21 7.5 -43.5t11.5 -50t10 -43.5l16 -72q30 -150 37 -205q6 -54 18 -94l9 -43l12 -68q6 -43 29 -159q15 -72 22 -119q4 -27 10 -37l7 -14q7 -15 14.5 -58.5t15.5 -60.5l45 -6h17l18 2h2v2l15 55q2 2 2 18q16 88 36 166l15 62q15 64 24 135l4 20 q4 29 25 158q7 25 10 64q23 127 27 163l6 35q3 8 8 41l6 66q15 134 31 217q0 8 2 10q3 26 2 27v2h-6q-13 0 -18 -21v-6q-16 -61 -27 -166q-3 -17 -7 -51.5t-7 -52.5q-21 -135 -23 -150l-51 -321q-10 -85 -29 -158q-43 -189 -61 -295h-6l-15 -2l-30 4q-5 10 -9.5 41t-7.5 41 l-4 21q-14 40 -16 65l-21 94l-10 41q-6 31 -22 138l-17 86q-6 16 -10 49q-3 14 -7 42t-7 42q-5 42 -9 55q-4 25 -41 201q-8 26 -32 145l-4 23l-17 53h-18l-39 -2l-17 -55l-2 -15q-5 -30 -22 -119q-14 -55 -21 -90q-3 -13 -7 -37.5t-7 -37.5q-6 -28 -18.5 -98.5t-20.5 -108.5 l-12 -56l-19 -84q0 -3 -1 -9t-1 -9q-18 -90 -26 -123l-29 -121l-27 -112q-4 -27 -10 -37h-47q-20 0 -22 -2q0 12 -2 14l-13 66l-12 69q-3 14 -6 40.5t-6 39.5t-6.5 38t-6.5 38l-12 69l-14 82l-15 64q-12 39 -18 82q-2 16 -12 69.5t-13 81.5q-11 86 -24 152q-6 24 -31 172 l-16 94v8q0 12 -3 20t-10 7q-6 0 -10 -4q-7 -11 2 -29q0 -6 2 -8q0 -8 1 -18t1 -13q2 -2 2 -10l7 -45l6 -29l18 -110l2 -12l1.5 -9t0.5 -4q2 -2 2 -16q9 -45 24 -135t17 -103q4 -49 10 -71l19 -84l14 -68q3 -11 7.5 -33.5t7.5 -34.5l16 -88q4 -15 8 -61l16 -96l5 -19 q5 -16 10 -57q0 -3 1 -6t1 -6t1 -8.5t1 -8.5q2 -2 2 -4q0 -10 2 -12q0 -17 12 -23q16 -4 25 -4q4 1 13 3t11.5 1.5t10.5 -2.5q20 -5 34 2.5t15 26.5q6 29 10 39q23 93 45 194l2 4q24 113 29 142l22 114l7 25l12 64l43 221l24 125q4 18 8.5 51t6.5 45l4 16l10 47z" />
<glyph unicode="X" horiz-adv-x="1034" d="M698 -10q0 6 -6 6q-69 151 -90 194q-14 29 -39.5 95.5t-42.5 99.5q-24 -59 -54 -124t-66.5 -142t-55.5 -119q-97 -20 -235 -10q-4 0 -9 1t-8 1q-4 0 -4 2q-2 0 -8.5 -1.5t-10.5 0t-8 7.5q2 14 7.5 28.5t10 24t14 26.5t13.5 25q24 54 41 86q10 21 39 80t43 90l39 91l41 86 q14 27 36.5 87t39.5 89q-9 19 -26.5 55.5t-31.5 66.5t-24 58q-9 23 -29.5 69t-29.5 70q-3 8 -10.5 22.5t-10.5 22.5l-39 90l-41 93l-59 137q-2 4 -8.5 13.5t-8 14t0.5 15.5q116 11 268 0q9 -9 10 -9q2 -1 6 -1q-3 -10 6 -25l164 -387q36 71 92 212t72 179q1 3 0.5 6t0 6 t3.5 4q31 19 76 19q30 2 90 -2l86 -8q3 0 10.5 1.5t10.5 0.5q13 -8 10 -33l-8 -25l-11 -24l-18 -43q-23 -49 -68.5 -137t-60.5 -119q-6 -19 -24 -58.5t-23 -60.5q-3 -1 -5 -8t-5 -8q-1 -10 -4.5 -19t-10 -20.5t-8.5 -14.5q-12 -26 -36 -75t-36 -76q16 -46 37.5 -98 t49.5 -115.5t42 -98.5q12 -33 35 -77q27 -73 31 -80q15 -30 41 -90t29 -66q8 -23 34 -67q13 -13 7 -23q-36 -6 -87.5 -8t-92.5 -1.5t-83 -0.5zM770 145l25 -57l6 -8q1 -3 4 -7t4 -7q2 0 2 -5q2 -3 4 -7.5t4 -6.5t6 -2h4q3 0 7 4v19q-2 8 -11 16q0 1 -1 2t-1 2l-18 37l-2 2 l-35 88l-35 84q-43 100 -82 162q-14 25 -22 43l-19 35l-4 6q-60 108 -80 153q125 313 222 512l14 35q25 56 47 86q0 2 4 6q14 24 16 35l-2 2q-6 6 -12 6h-2l-2 -2l-29 -47l-18 -31l-35 -69l-6 -8q-98 -209 -211 -492q-39 96 -139 303q-7 16 -47 99q-27 60 -45 104l-45 102v2 q-16 33 -25 33l-2 -2q-5 0 -8 -6q-3 -13 10 -31q2 -2 2 -4l37 -82l18 -47l19 -39q39 -94 59 -129q60 -111 156 -336q-10 -32 -66 -155l-33 -68q-82 -185 -100 -221l-14 -29q-42 -91 -49 -121l-7 -8q-17 -21 -8 -37v-2h2q5 -3 17 9l2 2q5 8 11 24.5t7 18.5l6 16l25 53l12 25 q2 5 10 20.5t11 24.5q34 65 86 186l51 113q45 97 53 117q8 -12 23 -48q45 -91 86 -159q13 -22 27 -48t23.5 -45t24 -52t20.5 -46.5t22 -53.5t20 -48z" />
<glyph unicode="Y" horiz-adv-x="1032" d="M963 1436q3 -3 4.5 -6t2 -6.5t0.5 -7t-1 -8.5l-1.5 -7.5t-3 -8.5t-3.5 -8t-3.5 -8.5t-3.5 -7.5l-6 -10q-6 -19 -10 -25q-10 -25 -57 -133l-15 -24q-1 -3 -9.5 -29.5t-14.5 -40.5q-12 -22 -29 -66t-27 -65q-25 -54 -108 -260q-4 -9 -13 -29t-15.5 -35t-10.5 -33 q-1 -35 2.5 -140.5t-0.5 -141.5q-4 -98 -4 -152q0 -14 3.5 -95t-1.5 -89q-4 -3 -9 -3.5t-11 0.5t-9 1q-14 -1 -51 -6.5t-59 -5.5l-60 4q-45 5 -55 10q0 55 2 88q0 16 2 46t2 46l-6 56q-7 155 4 397l-51 119q-7 39 -31 84q-74 161 -137 340q-10 33 -37.5 90t-34.5 73 q-15 47 -37 84q6 6 9 17q134 10 245 0q15 -3 27 0q26 -67 92 -262q25 -78 31 -91q7 -18 25.5 -57.5t25.5 -60.5q14 27 36 77t32 70l8 27q29 67 106 291q84 14 265 2zM829 1376h-2q-4 4 -8 4t-7.5 -4.5t-7 -12.5t-5.5 -11v-4l-31 -82q-35 -108 -57 -154l-37 -94 q-21 -64 -68 -160l-10 -20q-24 -45 -57 -131q-4 -8 -7 -18t-5 -15.5t-4 -11.5t-4 -6t-5 1q-7 3 -16 25q-12 28 -24 60.5t-26.5 74t-21.5 60.5l-49 139l-35 82l-41 102q-34 97 -65 162q0 1 -1.5 4t-1.5 4q-3 12 -12 12l-12 -6q-2 -7 4 -20l2 -2l10 -27l19 -41q10 -24 29 -80 t32 -84q43 -105 47 -116l43 -119q29 -92 60 -166l4 -6q14 -40 49 -80q4 -110 4 -182q0 -84 -4 -244q0 -6 -2.5 -23t-1.5 -26q0 -4 1 -11.5t1 -11.5l4 -41q0 -1 -1 -4t-1 -4q0 -20 6 -25h4q7 0 12 5t2 18v41q-4 9 -0.5 51t3.5 51q1 41 1 124.5t1 127.5q0 16 2 43.5t2 40.5 q0 5 -1 15.5t-1 15.5q-3 22 0 41q0 10 10 27l8 18l57 135q24 48 119 283l33 84q13 30 49 137l2 6q2 0 2 2q0 8 2 10l10 31v4z" />
<glyph unicode="Z" horiz-adv-x="913" d="M375 240q86 -8 236 -7t229 -2q19 -76 2 -180q0 -2 -1.5 -17.5t-3.5 -25t-6 -12.5t-13.5 -3.5t-24 0.5t-17.5 1q-49 5 -176 10h-104q-32 -1 -94.5 -1t-114 -1t-94.5 -4q-32 -4 -66 -4q-49 0 -57 8q-6 7 -7.5 23t0 39.5t0.5 33.5v74v27l19 37q5 13 49 110q13 27 38 75.5 t34 67.5l104 216l17 36q3 7 10 16.5t10 16.5q16 30 42.5 94t43.5 95q5 8 13 25.5t10 21.5l45 90q4 8 10 24.5t10 24.5q3 6 9.5 16t10 19.5t3.5 19.5q-53 4 -240 4q-18 0 -52 1.5t-62 1.5t-52 -3q-2 0 -17 -1t-24.5 0t-17.5 5q-1 16 -8.5 61.5t-6.5 69.5q1 13 6 44t5 49 l14 14q0 2 4 2l2 -2q67 0 194.5 -4.5t184.5 -5.5q62 -3 186.5 -1t186.5 -1q8 -14 4 -41q-6 -114 -2 -142q-12 -21 -66 -131q-10 -25 -34.5 -66t-32.5 -61q-3 -3 -4 -6.5t-1 -7.5t-1 -6l-43 -92l-41 -94q-13 -34 -43.5 -94.5t-42.5 -88.5q-11 -30 -21 -47q-2 -3 -20 -45 q-14 -23 -34.5 -68.5t-31.5 -66.5l-12 -23q-3 -3 -4 -10.5t-4 -11.5q-3 -7 -10.5 -22.5t-11.5 -24.5t-8 -23t-5 -26zM758 121h-8q-23 2 -64 2h-123q-2 -2 -22 -2q-44 3 -146.5 2t-146.5 2q-7 0 -22.5 -2t-22.5 -2q-4 31 0 41l16 26q3 3 4 7.5t4 7.5l19 51l14 33 q33 58 62 125l8 16q11 20 31 63.5t32 65.5q7 14 33.5 70t44.5 88q5 8 10 24q6 13 28 52.5t30 62.5q24 54 36 90q53 141 95 209l12 29q14 32 20 43q0 -6 3 3q1 3 2 7q3 3 7.5 10.5t8.5 11.5q3 7 8 13q8 11 12 22v31q0 21 2 23v2h-2q-10 8 -34 8h-21q-37 0 -47 2 q-32 -3 -66.5 -3.5t-82.5 0.5t-68 1q-29 4 -47 2q-8 0 -23.5 -1t-23.5 -1q-3 0 -6.5 1t-6.5 1q-9 0 -27.5 2t-27.5 2q-17 0 -56.5 -2.5t-58.5 -1.5h-2v-2q-4 -11 0 -15q6 -6 21 -6q2 -2 4 -2l4 -1q4 -1 8 -1q2 2 11 2q13 -1 34 0.5t29 1.5q39 -2 104 -2q48 0 60 -4 q65 3 127 0q73 3 137 0h35v-26q-29 -41 -57 -103l-17 -33q-35 -58 -63 -143q-40 -109 -129 -291q-30 -56 -68 -137q-84 -171 -92 -186q-18 -40 -47 -93l-35 -79q-8 -24 -31 -76q1 -4 -1 -11.5t-1 -11.5q0 -4 -1.5 -14.5t-1 -17.5t4.5 -11q6 1 17 -0.5t12 -1.5q3 0 8 2t8 2 h29h22h48q17 -1 48 0t46 0q12 0 33 2t32 2h9q3 0 6 -0.5t8.5 -1.5t11.5 -2h39q7 0 17.5 1t17.5 1h35h65q33 0 47 -2q2 2 9 -2h8q9 0 18 6v2q0 11 -2 13q-4 4 -14 4z" />
<glyph unicode="[" horiz-adv-x="509" d="M446 1683l11 -10q0 -12 2.5 -57t-0.5 -72.5t-13 -54.5q-21 -4 -69 -4t-68 -4q0 -45 -14 -213q-4 -25 -1.5 -94t1.5 -91q-3 -72 -3 -202.5t-1 -161.5q-1 -34 0.5 -96t1.5 -82q-1 -25 1.5 -97.5t-1.5 -97.5q-3 -58 0.5 -191t-0.5 -198q90 -4 141 -12q6 -53 2 -158 q-3 -27 -12 -45q-21 0 -63 -2t-66 -2q-138 4 -176 8q-4 0 -10 -0.5t-10 -1t-9 0.5t-10 3q-3 52 -3.5 100t0.5 113t1 94q0 8 -1 25t-1 29q-1 35 2 108.5t2 114.5q-6 116 0 235v121q6 70 2 223q0 19 1 58t1 59v260q0 35 -4 105q0 194 8 290q8 8 22 12.5t23 5.5t31 2t26 1 q11 0 30.5 -1t31.5 -1q29 0 92.5 -2.5t95.5 -1.5q3 -1 4 -3t1 -6t1 -6zM375 1616h-8q-14 2 -37 2h-21q-27 -2 -76 -2q-51 0 -61 -12q-2 -2 -2 -23v-12q-9 -167 2 -328q2 -36 -2 -92q0 -14 -2 -16v-80q3 -31 0 -62q-2 -55 -2 -178q-2 -33 -2 -98v-10q-5 -247 2 -392v-4h2 q4 -51 4 -225v-107q0 -3 -1 -9t-1 -9t-1 -8t-1 -8t0.5 -6.5t1.5 -9.5t2 -11q0 -5 1 -14.5t1 -14.5q0 -3 -1 -8t-1 -8q-9 -17 -2 -31v-2h2q11 -4 78 -8q31 0 45 -2h8l19 -4h12q11 0 14 6t0 12q-6 8 -24 8h-2q-7 0 -84 5l-43 4q4 12 0 47q0 20 -2 22q0 38 2 56v145q0 15 1 46 t1 48q0 20 -4 56l-5 32q-2 39 -2 119v68q-2 1 -1 45t1 45q2 31 2 90q-3 113 5 211q4 114 4 174v90q2 31 2 86q0 3 -1 8t-1 8t-1 8.5t-1 8.5q-2 51 -2 151v78q0 9 -1 28t-0.5 32.5t3.5 27.5q32 4 45 4h61q14 2 37 2h16l4 -1q4 -1 7 -1q2 -2 16 -2q18 0 18 17l2 2h-2 q-6 6 -24 6z" />
<glyph unicode="\" horiz-adv-x="899" d="M815 14q2 -2 7 -4.5t5.5 -4t-0.5 -7.5q-2 -4 -8.5 -6.5t-16.5 -3t-18 -1t-20.5 0t-15.5 0.5q-17 1 -48.5 5t-47 5t-40.5 -2q-6 5 -10 17t-6 14q-7 16 -18.5 50t-18.5 50q-22 64 -49 135l-27 66q-25 63 -75 207q-53 157 -103 270q-38 86 -53 127l-49 133l-15 35 q-4 11 -17 49.5t-21 58.5q-7 18 -28 65t-30 75l-10 41q-12 28 -6 43q39 14 137 10q11 -1 33.5 -5.5t34.5 -4.5l34 -89q5 -16 18.5 -40.5t18.5 -40.5q25 -78 29 -93l33 -86q74 -213 125 -350l8 -16q3 -10 6.5 -20t8 -22l7.5 -20l4 -20l11 -21l30 -71q16 -38 70 -199 q32 -74 33 -100q3 -1 4.5 -0.5t2 0t1.5 -3.5q26 -73 90 -226zM692 98q-20 82 -69 195l-7 16l-30 82l-19 41l-18 39l-19 57l-10 29q-25 76 -102 268l-27 62q-10 23 -22 59l-43 103l-25 65q-3 8 -10.5 27t-11.5 28l-17 45l-33 78q-6 9 -10 27q-7 26 -26 53v2h-3q-6 0 -10 -4 l-4 -4h-2v-2q13 -31 43 -107.5t47 -117.5q75 -180 105 -260q2 -5 30 -76q21 -40 35 -84q13 -44 35 -92l57 -158l19 -47q5 -4 14 -33q13 -30 27 -70l37 -94q29 -68 49 -131l12 -33l8 -2q5 2 7.5 4t2.5 6.5t-0.5 6.5t-3.5 8l-4 8q0 1 -1 3t-1 3z" />
<glyph unicode="]" horiz-adv-x="507" d="M440 1690q-3 -44 -3 -95.5t1.5 -118.5t1.5 -106q0 -87 -4 -205q0 -35 -3 -211t-3 -268q0 -30 4 -108v-119q0 -39 -2 -113t-2 -110v-203q0 -30 2.5 -108t1.5 -118q0 -5 -1.5 -15t-1.5 -18.5t3 -15.5q-10 -10 -10 -14q-231 -15 -338 -4q-24 28 -20 106q0 5 -1.5 16.5 t-1.5 16.5l7 35v17.5t4 19.5q26 5 66.5 4.5t72.5 1.5q1 28 5 80t5 76q-2 -4 -5 -2.5t-5 0.5q3 6 10 6v190q0 33 -4 103q-1 1 -0.5 51t0.5 51q-4 28 -4 43v150q0 21 -0.5 59t-0.5 70t1 61q2 43 2 133q0 162 6 236q4 83 -2 125q3 18 1.5 55t2.5 51q-18 3 -35.5 3.5t-44.5 -0.5 t-41 -1q0 4 -5 5l-5 1q-28 47 -2 158q5 22 10 25q-4 11 0 16q41 10 166 3t166 -5q0 -7 6 -10zM342 362q0 7 -1 19.5t-1 19.5q0 5 -1 14t-1 13q-2 23 -2 72q2 72 2 215q0 21 -0.5 60t-0.5 70.5t1 59.5q2 31 2 92q0 80 2 121v115q-3 52 0 98q0 41 2 64q4 160 -2 211v2h-2 q-21 4 -92 4q-30 0 -92 4h-2q-10 -7 -7 -19v-2q12 -6 23 -6h20q29 0 127 -4q8 -41 5 -88v-63q0 -30 -3 -64q0 -18 -2.5 -76.5t-2 -72.5t2.5 -72v-133q-2 -23 -2 -66v-176q0 -42 -1 -122.5t-1 -121.5q-3 -109 6 -217v-10q7 -100 3 -223q0 -23 -3 -47q0 -9 -1 -30t-1 -30 q1 -15 1 -31t-0.5 -38t-0.5 -35q-15 1 -102 -4q-14 0 -37.5 -1t-34.5 -1h-6q-1 0 -4 1t-4 1q-4 0 -8 -4v-2q0 -19 24 -19h17q34 4 180 4h2v4q-2 31 -2 89v40q0 11 1 31t1 31q0 7 1 21.5t1 21.5v24q4 127 -2 191q0 11 -1 32t-1 33z" />
<glyph unicode="^" horiz-adv-x="1040" d="M285 774q-117 -9 -222 0q-3 3 -3.5 6.5t0 6.5t-0.5 6q76 133 107 200q3 1 5 3.5t3 2.5q23 51 86 164q7 12 22 39.5t23 42t21.5 35t25.5 37.5q1 9 17 35q21 42 61 88q3 -3 5.5 -3.5t5 0t5.5 -0.5q3 0 4.5 2.5t4.5 1.5q33 4 143 4q2 -3 12.5 -16t14.5 -21q28 -43 106 -199 l8 -10q17 -22 45 -73t45 -74q-1 -3 0 -4.5t0 -4.5q16 -23 41 -67t31 -53q7 -12 22.5 -38t26.5 -46.5t19 -38.5q0 -5 3 -12.5t3 -12.5q-24 -4 -46.5 -6t-49 -1t-43 2t-50 3.5t-49.5 3.5q0 3 -1 6t-1 6q-5 9 -24.5 47t-28.5 53.5t-25 42.5t-30 48q-13 21 -37.5 56.5t-43 65.5 t-32.5 60q-6 -3 -9 -11.5t-5 -10.5q-10 -10 -13 -21q-2 -4 -6.5 -13.5t-9 -16.5t-10.5 -11q-3 -21 -23 -47q-8 -23 -32 -63l-37 -58q-9 -13 -26 -34t-29.5 -40t-18.5 -40q-4 -1 -5 -4l-1 -3zM195 838q6 0 22 16q38 64 64 104q16 25 73 123q88 151 152 244h16l29 -53l45 -82 q29 -59 61 -111l33 -59q64 -113 101 -160l4 -8q3 -3 7 -8t7 -8.5t6 -4.5h2q10 0 14 11q2 6 -12 24l-6 8q-27 36 -57 87l-4 8q-36 58 -107 186l-78 137l-16 31l-16 27l-23 2l-23 -2l-10 -23l-43 -67l-98 -156q-62 -112 -109 -178q-10 -19 -28 -45q0 -5 -4 -9q-16 -23 -13 -26 q3 -8 11 -8z" />
<glyph unicode="_" horiz-adv-x="854" d="M627 -168q-1 0 -4.5 1.5t-5.5 2.5t-5 0.5t-6 -2.5q-16 4 -59 4h-53q-4 0 -12.5 -2t-12.5 -2h-63q-36 1 -76.5 1t-88.5 -0.5t-71 -0.5q-35 -2 -50 -2t-51 2.5t-55 3.5q-10 19 -12 42t2 63.5t4 48.5q8 4 55 8h201q46 1 134 -0.5t116 -1.5q53 0 84 -2q22 -1 158 4q6 0 23 1 t27 0.5t17 -5.5q6 5 16.5 4.5t14.5 -6.5q0 -7 -8 -10q0 -14 -1.5 -66.5t-0.5 -85.5q-64 -4 -90 2q-12 -4 -37 -3.5t-37 -2.5q-6 5 -28 4.5t-25 -0.5zM252 -68h-86q-69 0 -94 -2h-6q-17 -3 -17 -6q0 -12 2 -14q6 -6 15 -6h6q78 4 104 4h70q8 0 25.5 -1t25.5 -1q31 0 33 2h10 q99 6 178 6h35q14 -2 49 -2h115q10 -2 33 -2q26 0 32 6q3 9 0 12q-3 9 -30 9h-4q-58 0 -91 2q-16 0 -50 1t-54 1q-16 0 -43.5 -1t-40.5 -1q-74 -7 -217 -7z" />
<glyph unicode="`" horiz-adv-x="344" d="M123 1655q-15 22 -42.5 65.5t-43.5 65.5q-24 34 -37 67q2 1 5.5 3.5t5 3t5.5 -1.5q19 4 43.5 5.5t41 1.5t45 -0.5t38.5 -0.5q20 0 35 6h2q40 -74 49 -98q19 -28 39.5 -86t30.5 -78q-1 -2 0.5 -6.5t2 -6.5t-2.5 -4q3 -1 -2 -2q-7 -1 -8 -2q-3 -1 -7 -1t-7 1t-3 2 q-16 -3 -38.5 -3.5t-54 0.5t-40.5 1q-3 0 -1 -2.5t-1 -3.5q-3 6 -10 8q0 4 -2.5 8t-7 8t-6.5 7q-7 12 -29 43zM143 1812q-6 0 -12 -6l2 -6q6 -17 17 -35.5t26 -41t23 -35.5l4 -9q0 4 2 -1q1 -3 2 -9q1 -1 3 -6.5t3 -7.5t3 -5.5t4 -5t5 -3t6 -1.5q4 0 11 7v2q0 6 -13 28l-6 9 l-10 18q-22 36 -29 51l-20 27q-13 30 -21 30z" />
<glyph unicode="a" horiz-adv-x="1034" d="M961 57l4 -28q1 -3 3.5 -8.5t2.5 -8t-2 -8.5q-165 -11 -244 -6q-7 7 -10 8q-1 17 -4 32t-9 33.5t-8 28.5l-14 56t-15 65t-10 58q-56 3 -147.5 -2t-130.5 -5q-5 -21 -26.5 -122t-39.5 -152q-160 -13 -241 -2q-6 5 -2 27q8 38 26 161q9 36 12 66q5 24 13.5 72.5t13.5 72.5 l21 76q0 19 12 51q2 17 8 69t10 79l17 63l6 35q1 3 5 10.5t4.5 10l2 10t-1.5 10.5q1 3 4 5t4 5q3 27 15.5 93t17.5 98q2 22 14 53q0 20 11 53q6 10 10 37q3 19 8 57.5t8 55.5l6 28q3 10 8 39.5t9 44.5q1 6 3.5 17t4.5 18t5.5 16t8.5 15q110 21 303 2q3 0 5.5 -3.5t5.5 -2.5 q5 -41 39 -195l10 -65l16 -60q4 -17 41 -190q12 -62 39 -181t39 -184q10 -48 20 -114q3 -17 14 -48.5t15 -46.5q4 -17 18 -88.5t23 -109.5l10 -52zM838 139l-11 39q-6 27 -15 81.5t-17 82.5v-2q-13 52 -21 98l-6 39q-3 12 -7 38t-7 38l-17 82q-12 60 -26 108v-2 q-6 27 -29 107l-25 90q-2 7 -13.5 49.5t-16.5 65.5l-31 116v-2l-4 13l-2 10l-47 156l-31 6h-33q-2 -2 -10 -2q-14 3 -22 -9t-9.5 -25t-1.5 -30q-5 -23 -16.5 -68t-13.5 -53v2q-21 -71 -35 -139q-7 -17 -11 -43q-11 -46 -22.5 -104t-25 -130.5t-21.5 -111.5q-4 -19 -9 -40.5 t-12 -47t-10 -39.5v2l-22 -90v2l-15 -70q-5 -38 -8 -47l-18 -88v-12q-5 -21 -10.5 -64.5t-6.5 -50.5q6 -10 17 -6q9 0 12 10l6 49l6 47v-1q0 3 1 8t1 6l19 94l20 92q12 0 32 -1t32 -1q122 0 221 8q126 7 205 7q3 -17 39 -179q1 -2 6 -39l6 -32l4 -19q2 -5 4.5 -14.5t5 -15.5 t6.5 -9v2q5 -4 12 -4t9 4q1 1 -2 29l-4 11v-1zM264 420l15 51v-2q26 102 28 111q10 40 33 172q26 147 84 378l12 58q0 1 1 3t1 3q0 4 2 6l11 33q12 46 14 78q2 2 2 8l8 2q3 0 10.5 -1t10.5 -1h26l27 -96l6 -19v2l8 -24l2 -15l17 -57q44 -177 57 -217q3 -12 17.5 -64.5 t19 -69.5t16.5 -61.5t17.5 -68.5t14.5 -61.5t15 -69.5t11 -64q-119 0 -215 -8q-130 -9 -271 -6zM420 530q43 -2 63 -1.5t61.5 3t57.5 3.5q-45 224 -53 256q-3 12 -21 69t-18 84q-26 -144 -90 -414zM264 416l-4 4h4v-4z" />
<glyph unicode="b" horiz-adv-x="1015" d="M221 2q-9 0 -24 -1.5t-26 -1.5t-19 3q-4 1 -12 5t-13 5q3 48 1 142.5t1 148.5q0 12 -1 37t-1 39t-1.5 58t-0.5 71q6 123 6 389q0 45 -1 136t-1 136q0 27 1.5 84t1 100.5t-4.5 82.5q26 3 66.5 3.5t102 -0.5t83.5 -1q22 -1 59.5 1.5t53.5 2.5q145 3 237 -51q47 -29 59 -39 q13 -13 25 -33q30 -44 43 -76l18 -43q4 -16 19 -123q13 -95 -23 -194q-27 -88 -86 -144l50 -43q3 -3 12 -10t13.5 -11t10 -11t9.5 -13q1 -1 16 -37q1 -2 11 -21.5t14 -33.5l4 -39l4 -43q0 -13 3 -36t3 -35l-6 -35q0 -1 -1 -14t-5 -19q0 -51 -35 -127q-1 -3 -9.5 -23.5 t-12 -28t-11.5 -21t-16 -23.5q-6 -9 -16 -18t-18 -15t-20.5 -15.5t-17.5 -13.5q-2 -5 -5.5 -9t-10 -6.5t-9.5 -3.5t-13.5 -3.5t-12.5 -3.5q-7 -6 -16.5 -9.5t-24 -5.5t-21.5 -4q-37 -6 -80 -6q-17 0 -52 1.5t-62.5 1.5t-46.5 -3q-8 0 -28 -1t-32 -1q-44 -2 -131 2zM817 475 v2q-2 2 -2 12q-2 2 -2 13q-2 2 -2 8q0 1 -1 3t-1 3l-6 25q-12 50 -21 61l-12 16h2q-12 14 -16 27l-19 19l-8 10l-6 8h2q-21 27 -53 41q-1 0 -4 2t-4 2q26 15 53 59h-2l18 21q16 16 25 47q41 112 35 186q-12 84 -27 125q-2 0 -2 2q0 1 -1 4t-1 7q-33 57 -72 96l-12 12 q-45 30 -164 41q-3 0 -10 1t-10 1q-22 4 -113 4q-7 0 -19.5 -1t-19.5 -1q-14 -2 -39 -2h-12q-20 -4 -27 -4h-20q-9 -15 -6 -29v-14q0 -1 -1 -3t-1 -3q0 -9 -2.5 -32t-2.5 -32q-4 -36 -4 -57v-39q0 -7 1 -21.5t1 -21.5t-1 -20.5t-1 -20.5v-41q0 -7 1 -18.5t1 -18.5 q0 -12 1 -58t1 -58q-4 -38 -4 -168q0 -119 2 -168q2 -63 2 -191v-114q0 -1 -1 -3.5t-1 -3.5q-5 -24 -2 -36q2 -2 2 -9q-3 -9 7 -12q8 -8 24 -8h19q22 0 30 -2h47q27 2 78 2q147 4 197 18l37 11l11 4h-1q2 0 4 2q2 0 2 2q6 0 12 6v-2q55 25 72 63h-2l6 11l6 8q3 5 6.5 16.5 t6.5 16.5l6 14q6 18 16 63q2 2 2 15q11 58 2 102zM791 393q0 -7 -3 -10q-5 -37 -8 -45l-18 -57q0 -9 -6 -15q-3 -14 -15 -26h2q-6 -6 -6 -9l2 2l-8 -10q-21 -21 -35 -26l-12 -9l-12 -4l-8 -4q-1 0 -4.5 -1t-4.5 -1q-56 -15 -73 -16q-59 -10 -162 -10h-115q-4 0 -8.5 1 t-7.5 1q-5 -2 -17 2h-14h-2v34q2 2 2 11v92q0 115 -2 172q-2 39 -2 119q0 77 2 116h317q3 0 7.5 1t7.5 1q35 5 41 5q8 0 10 -2q16 -2 49 -31v2l8 -6l6 -6q4 -7 9 -7l4 -6l6 -6h-2q5 -7 15.5 -24.5t15.5 -24.5q0 -6 2 -8q1 -3 2.5 -5.5t2.5 -4.5t1 -3q13 -31 14 -36 q0 -5 2 -7q0 -3 1 -5t1 -5q0 -10 2 -12q0 -5 1 -8l1 -2q0 -15 2 -17q0 -8 4 -12q0 -10 2 -12v2q3 -35 3 -68zM258 1241v12q0 3 1 9.5t1 9.5q0 5 1 10l1 4q-3 17 21 17h51q121 0 198 -7q80 -10 127 -32q4 -4 11 -4q37 -40 73 -101v2q0 -1 1 -3t1 -3q0 -3 1.5 -6t1.5 -4 q0 -4 4 -8h-2q16 -69 16 -111q0 -34 -6 -72q-19 -88 -64 -151q-6 -6 -8 -12h2l-8 -9q-4 -4 -10 -10.5t-10 -10.5t-9.5 -8.5t-11.5 -7.5q-8 -8 -10 -8q-2 -2 -2 0q-21 -8 -58 -8h-163q-24 0 -74 1t-78 1v449q0 38 2 61zM672 455v32q0 22 -9 46.5t-20 35.5q-10 10 -39.5 19.5 t-48.5 7.5q-5 0 -15.5 -1t-15.5 -1q-19 0 -45.5 1.5t-45.5 1t-44 -4.5q-4 -61 -1.5 -184.5t1.5 -165.5q119 -11 180 0q31 5 47 11.5t27 22.5q21 28 23 37q8 13 4 49q0 13 1 45t1 48zM383 1192q-1 -17 1.5 -60.5t-1.5 -58.5q3 -9 0 -22q8 -105 0 -211q17 0 51 -2t61.5 -2 t49.5 4q18 4 32.5 11.5t32.5 21t23 16.5q4 21 4 108q0 7 1 18.5t1 18.5q0 40 -2 56q-1 12 -7 35t-7 36q-9 11 -22 19t-30.5 12t-32.5 6t-39.5 1.5t-38 -1.5l-40.5 -3t-37 -3z" />
<glyph unicode="c" d="M862 489q1 -11 1 -23t-0.5 -28.5t-0.5 -27.5q0 -9 1 -29t1 -29t-3 -27.5t-3 -27.5q-3 -56 -22 -98l-35 -64q-10 -18 -25 -32t-40 -30.5t-36 -25.5q-40 -28 -75 -37q-50 -13 -86 -20h-25.5t-28.5 -4q-17 3 -51 4t-51 4q-1 0 -21.5 1t-31.5 5q-60 16 -88 41q-24 20 -31 22 q-22 33 -57 68q-3 10 -8 19.5t-12.5 19.5t-10.5 16q-5 7 -10 31q-10 16 -13 29q-3 7 -4 15.5t-1 21.5t-1 20q0 11 -2 33t-2 33q-2 1 -1 32.5t1 32.5v68q-4 7 0 64.5t4 64.5q-1 20 -6 76t-4 84q0 7 1 18t1 18v17q0 3 2 7t2 7q0 7 -1 18.5t-1 18.5q0 124 4 158v40t4 48 q12 52 21 84q18 68 43 96q2 11 7.5 19.5t17.5 17t18 12t24 12.5l70 39q5 2 20.5 9.5t27.5 12t26 7.5q14 2 41 2q51 6 145 -6q12 -3 34 -4t34 -4q6 -2 24.5 -11t28.5 -10q3 -5 8.5 -9.5t9.5 -7.5t10.5 -7t10.5 -7q1 0 3 -4t5 -8q3 -3 7 -4t7 -4l17 -18l14 -19q29 -32 45 -59 q48 -98 37 -309q-12 -7 -37 -7q-8 -1 -40.5 -4.5t-55.5 -3.5q-47 0 -68 4q-5 1 -15 3.5l-14 3.5t-9 3.5t-9 6.5q0 7 2 42.5t2 49.5t-3 37.5t-9 40.5q-3 4 -5 12.5t-5 11.5q-13 24 -58 37.5t-84 5.5q-16 -2 -49 -16q-7 -4 -17.5 -15.5t-17.5 -15.5q-15 -27 -18 -59t1.5 -83 t4.5 -73q0 -51 -2.5 -170t-1.5 -182q4 -94 4 -133q0 -10 -0.5 -33t-0.5 -35.5t1.5 -31t5.5 -35.5q10 -50 64 -76q7 -1 24.5 -5t26 -5t22 0t25.5 6q4 1 8.5 4t10.5 7.5t10 6.5q45 23 53 35q3 4 4.5 14.5t5.5 14.5q-2 15 5 66t-1 75q1 4 2 9l1.5 7.5t0.5 3.5q68 30 162 21 q8 -1 25.5 -5t25.5 -5q26 0 33 -7zM752 289v119q0 11 -9 14.5t-14 -6.5q-4 -15 -4 -62q0 -7 1 -19t0.5 -21t-3.5 -19q0 -8 -2 -10q-3 -8 -5 -22t-5 -19h2l-11 -15q-29 -60 -71 -77q-7 -7 -10 -7q-26 -10 -37 -12l-15 -4l-18 -4q-25 -9 -57 -12q-4 0 -6 -1t-3 -1h-8 q-138 11 -184 77q-1 0 -3 2t-4 5t-3 4l-4 8l-17 29l-8 20l-10 41q-4 28 -4 47q-9 18 -9 55q0 1 -1 3t-1 6v10q-2 23 -2 71q0 64 2 97q0 7 1 20.5t1 20.5v14q-2 2 -2 12v21q-4 98 -4 147q0 18 1 52.5t1 50.5v22q2 23 2 74q-4 79 9 115q0 3 1 6t1 4q2 6 4 16l4 17q0 1 1 3t1 3 q0 6 2 8l6 16l4 9h-2l6 10q35 71 121 96q8 0 10 2q3 0 6 1.5l5 2.5h-2q58 10 79 10q38 0 88 -16q48 -25 72 -49q30 -36 47 -74q11 -30 15 -94v-19q0 -3 1 -5t1 -5q0 -2 0.5 -5l1.5 -9l2 -12q12 -1 17.5 5t5 13.5t-0.5 15.5q0 4 -1 12.5t-1 12.5v16q-8 91 -41 138 q-20 32 -45 45q-63 48 -119 55q-83 10 -143 -12q-4 -4 -8 -4q-2 -2 -8 -2q-91 -29 -133 -115h2q-7 -7 -7 -10q-2 -2 -2 -7q0 -4 -1 -6q-1 -1 -1 -2l-16 -57q-2 -2 -2 -12q0 -3 -1 -6l-1 -3q-6 -33 -6 -108q0 -53 -2 -84v-27q0 -15 -1 -47t-1 -49q0 -57 4 -143v-21 q0 -12 2 -14v-12q-2 -23 -2 -78q0 -47 4 -125v-23q0 -24 6 -45q0 -4 1 -9.5t1 -8.5v-19q12 -64 18 -77l7 -11l6 -8h-2q11 -32 22 -41l19 -16h-2q52 -67 172 -78h18q34 0 53 8l27 4q53 14 74 23l14 10v-2q54 18 86 88h-2l10 14q17 33 19 60z" />
<glyph unicode="d" horiz-adv-x="985" d="M903 784v-75q0 -31 -1.5 -103t-0.5 -110q2 -31 -2 -97q0 -4 -1 -15t-0.5 -17t5.5 -11q-3 -89 -51 -188q-21 -39 -50 -68.5t-73 -64.5l-63 -21q-7 -1 -22.5 -1t-22.5 -1q-3 0 -10.5 -1t-10.5 -1l-74 -4l-186 -10q-94 0 -137 2q-7 1 -20.5 0t-20.5 0q-2 1 -3.5 3t-2.5 3 t-2.5 2t-3.5 0.5t-7 -0.5q-6 43 -10 115q-1 5 0.5 12t1.5 10q0 8 -1 25t-1 25q0 67 4 215q0 13 -1 41.5t-1 44.5t-1 45t-1 45q0 5 3.5 33.5t-1.5 33.5q0 3 -1 8.5t-1 8.5q-1 4 -1 9.5t0.5 12.5t0.5 12v115q0 18 -1.5 79t-0.5 93q4 112 -4 191v41q-1 22 2.5 99t-0.5 105 q1 2 7.5 6.5t6.5 8.5q158 9 349 -4q48 0 71 -2q66 -13 94 -11q12 -7 37.5 -18.5t36.5 -18.5q3 -1 7 -5t7 -5q4 -3 21 -10.5t25 -15.5q20 -14 47 -56l22 -37q4 -12 11 -36t10 -35q15 -63 16 -74q4 -39 0 -162q0 -1 6 -166zM250 1323l-2 -4q0 -115 -2 -164q-2 -39 -2 -113 v-258q-2 -47 -2 -133q0 -9 1 -26.5t1 -26.5t0.5 -25t0.5 -29t-1 -24q0 -7 -1 -25.5t-1 -25.5q-2 -41 -2 -121q0 -63 2 -90v-27q0 -3 1 -6t1 -6q0 -14 2 -16v-25q0 -3 -1 -10t-1 -10v-31l12 -12q27 2 80 2h35q66 -4 100 -4h23q4 0 12 1t12 1q29 0 43 2q56 -4 110.5 28 t78.5 82l12 31q3 6 7.5 18t6.5 17l8 39l7 30q4 28 4 33q2 8 2 33v90q-3 43 0 88v74q0 28 -4 78q-5 62 -5 73q-2 35 -2 99q0 70 -6 131q0 4 -1 13t-1 13q0 20 -4 52q-5 23 -26 71q-2 2 -8.5 11.5t-14.5 17.5h2q-34 47 -68 57q-5 1 -16 5.5t-14 5.5l-19 6q-50 16 -90 16 q-3 0 -8 1t-8 1q-13 0 -15 2q-4 0 -16 1t-16 1q-67 4 -103 2h-16q-62 -4 -88 -14zM475 141h-24q-22 0 -72 4q-7 0 -18.5 1t-18.5 1h-41q-3 0 -6 -1t-6 -1h-15q0 23 -2 31v68q-2 31 -2 86q0 57 2 88v278q0 141 4 469v135q64 9 119 9q24 0 78 -4q4 0 9 -1t12 -2t12 -2 q62 -3 102 -20q5 -1 16.5 -5t16.5 -5l20 -6q5 -2 7 -4q10 -4 24 -23l15 -16l8 -11h-2l14 -22q21 -46 25 -117q4 -86 4 -139q0 -47 4 -129q6 -141 6 -150v-35q3 -10 3.5 -20t-0.5 -23t-1 -20v-82q0 -27 2 -41q0 -20 -2 -26q0 -1 -4 -29q0 -3 -1 -6t-1 -6q0 -9 -2 -11 q-1 -5 -2 -11.5t-1.5 -10t-0.5 -6.5l-6 -15l-5 -14l-12 -31l-8 -16l-6 -14q-17 -41 -57.5 -66t-86.5 -27q-28 0 -30 2q-14 -2 -45 -2q-4 0 -12.5 -1t-12.5 -1zM635 285l16 53q10 68 -2 168q2 27 2.5 34t-2 33.5t-2.5 36.5q0 8 1.5 29.5t0.5 34.5q-2 23 -2 63q4 24 1.5 94.5 t-1.5 94.5q0 18 2 58.5t2.5 66t-5 57.5t-19.5 53q-16 22 -47 33l-19 8q-18 8 -78.5 3t-83.5 -3q-4 -32 -2.5 -121.5t0.5 -109.5v-78q0 -21 -2 -66t-2 -69t1 -71.5t1 -68.5q0 -23 2.5 -85t1.5 -97q-1 -21 0.5 -97.5t-2.5 -100.5q16 -3 49 -3.5t46 -3.5q68 3 122 31 q15 8 21 23z" />
<glyph unicode="e" horiz-adv-x="997" d="M897 252q23 -110 4 -176q4 -14 -2 -44t-6 -32q-12 -9 -19 4l-253 4q-40 1 -113.5 -5t-106.5 -7q-40 -3 -80 -3.5t-95 0.5t-79 1q-3 3 -8 5t-8 5q-3 41 -3 121.5t-3 120.5q-1 19 0 59.5t0 59.5q-4 58 0 235q1 2 1 8t3 10q-3 4 -3 9t1.5 11t1.5 9q0 13 -2 37t-2 35 q-2 23 -2 63q-5 44 2 62q-1 26 0.5 131.5t-2.5 138.5q0 2 -2 4v6h2q2 100 2 297q10 7 10 15q98 8 270.5 5.5t272.5 0.5q32 1 90.5 -1.5t81.5 -2.5q4 0 14.5 1t18 0.5t14.5 -3.5q0 -7 4 -27q7 -35 8 -37q0 -12 0.5 -35t0.5 -35t-1.5 -30t-5.5 -35q0 -31 -10 -61 q-10 -3 -20.5 -3t-21.5 1.5t-17 1.5h-107q-18 0 -51 2t-49 2h-244q0 -21 2 -23v-4q0 -22 -4 -72l-2 -2q0 -19 -2.5 -61.5t-3 -65.5t3 -56t12.5 -58q26 0 80.5 2t98.5 2t77 -4q10 3 20.5 3.5t25.5 -0.5t22 -1q3 0 9 -1t9 -1t14.5 1t20 0.5t14.5 -3.5q26 -124 4 -238 q-14 -2 -43 -2q-101 4 -151 2q0 -4 -2 -2q-28 3 -60 3t-73 -1.5t-66 -1.5q-14 -234 -4 -344q43 0 192 -4.5t224 -1.5q14 0 26 6q7 -3 25 -2t25 -2q12 9 20 4zM803 1317h-55q-38 0 -52 2q-68 6 -196 6q-44 0 -146 4h-10q-23 0 -25 -2q-6 0 -19.5 2t-23.5 2.5t-20 -1 t-14.5 -10t-1.5 -24.5q0 -8 -1 -19t-1 -15v-23q-8 -96 2 -217q4 -114 2 -174q0 -54 6 -103v-28q2 -28 2.5 -33.5t-2 -31.5t-2.5 -31q-4 -54 -4 -82q0 -4 1 -13t1 -14q2 -2 2 -31q-4 -98 -4 -145v-117q0 -9 1 -27t1 -26v-6q0 -39 6 -45q4 -4 24 -4q4 0 14 1t15 1h29 q34 0 57 2h80q102 4 154 4q59 0 137 -4l2 -1q2 -1 6 -1q3 0 9.5 -1t10.5 -1h7q22 0 24 8q0 8 -2 10q-6 6 -24 6h-2q-3 0 -10.5 1t-10.5 1q-16 0 -18 2q-72 2 -199 2h-98q-7 0 -22.5 -1t-22.5 -1q-17 0 -49.5 -1t-47.5 -1h-45q-2 41 -2 152v18q-2 8 -2 27l4 180q0 7 -1 19.5 t-1 19.5q0 15 4 43q0 7 1 18.5t1 18.5v29q0 37 2 55h58l127 -4h90q23 2 61 2t54 -2q8 0 10 -2q3 0 7 -1t7 -1q7 0 10 6q3 8 0 14q-5 8 -32 8q-5 0 -7 2h-36q-40 0 -58 -2h-67l-228 6q0 41 -2 64v65q3 25 0 50q-11 211 -4 342q0 7 1 19.5t1 19.5h27q29 0 31 2h30q12 0 31 -1 t27 -1l100 -5q20 -1 55 -1t67 -1t64 -4q18 -2 52 -2h59q17 0 20 10q0 7 -4 11q-3 6 -22 6z" />
<glyph unicode="f" horiz-adv-x="987" d="M891 1438q8 -55 8 -133q0 -6 -2.5 -20.5t-1.5 -22.5q0 -3 2 -8.5t2 -8.5q1 -13 -2.5 -34t-3.5 -25q-36 0 -120 3.5t-132 2.5q-11 0 -30 -1t-31 -1q-128 4 -191 -2q-8 -52 -1 -172t3 -172q47 3 167 -2t163 -2q8 0 18.5 1t16.5 1.5t12.5 -1.5t11.5 -7q22 -63 8 -150 q-6 -25 -10 -80q-46 4 -99 5t-86.5 0.5t-102 -2t-97.5 -1.5q-8 -38 -8 -137q0 -88 2 -131q0 -49 2 -72q4 -92 2 -133q-6 -105 -6 -113q-4 -16 -4 -18q-146 -28 -240 0q-3 9 -12 12q-3 23 0 71t0 73q-6 11 -2 99.5t4 104.5q1 25 3 66.5t3 76t0 66.5q-2 41 -2 119q-1 36 0 109 t0 110q-1 22 -3.5 71.5t-2.5 70t2 67.5q3 43 3.5 94.5t-0.5 124t-1 99.5q1 2 3 2.5t3.5 0.5t3 1t0.5 4q135 0 207 -2h82q38 4 62 -2q65 4 327 4q52 0 70 -6zM254 143q0 -16 -2 -18q-3 -48 4 -53h6q14 0 14 26q3 20 3 117q-10 207 4 348q2 31 2 88l4 64q7 0 20.5 -1t20.5 -1 q4 0 11.5 1t10.5 1h41l53 -4h27q23 -1 79.5 3t86.5 1h33q18 0 33 6q4 1 2 9.5t-7 8.5q-32 4 -51 4q-4 0 -12.5 -1t-13.5 -1q-17 0 -60 -3.5t-65 -2.5h-39q-27 0 -41 2q-16 0 -44 1t-44 1q-27 0 -41 -2v4q-2 2 -2 4q0 1 -1 5t-1 8q-4 197 2 284q3 56 0 115q0 111 6 158h37 q75 0 114 -2t113 -2h21q140 0 208 -8q6 0 9 -3h10q7 0 12 5h2q3 8 0 14q-10 10 -35 10h-6q-23 2 -65 2h-4q-11 0 -34 1t-36 1q-47 0 -70 2q-75 0 -110 2q-78 4 -113 4q-26 0 -76 -4h-2q-4 -31 -4 -151v-35q0 -35 -4 -117q-5 -174 0 -241q6 -104 -6 -312l-4 -121 q-2 -33 2 -116q0 -16 1 -50t1 -51z" />
<glyph unicode="g" horiz-adv-x="946" d="M854 963q-57 -8 -83.5 -8t-86 4.5t-80.5 5.5q12 164 -43 221q-4 4 -8 7t-10 5.5t-9.5 4.5t-11.5 4t-11.5 3t-13 3.5t-12.5 3.5q-44 -12 -61 -19q-30 -10 -49 -29q-18 -12 -26 -28.5t-9 -46.5v-103q0 -32 -4 -98q-1 -23 0.5 -64t1.5 -49q-1 -18 -1 -38.5t0.5 -45 t0.5 -37.5q0 -20 -2 -55.5t-2 -52.5q0 -166 12 -229q5 -22 20 -45.5t31 -30.5q30 -13 64 -13q5 -1 35 5q63 15 90 55q18 53 22 69q1 17 -1.5 47.5t-2.5 43.5q0 9 1 31t0.5 37.5t-3.5 29.5q-19 -1 -61.5 -1t-61.5 -1q-24 125 10 221q11 4 11 10q15 1 44.5 0t45.5 0 q18 1 48.5 -0.5t41.5 -1.5q136 -5 178 0q3 -3 2 -7q-1 -1 2 -1q1 -44 -5 -148t-3 -171q3 -52 4 -157.5t4 -162.5q1 -18 -2 -51.5t-2 -48.5l4 -21q-2 -2 -7.5 -5.5t-8.5 -8.5q-75 -11 -127 10q0 -5 -4 -6q-2 0 -4 2q-8 8 -12.5 34.5t-10.5 37.5q-5 -8 -13 -14.5t-13.5 -9 t-19 -7t-17.5 -6.5q-3 -1 -37.5 -18t-52.5 -23q-49 -12 -111 -12q-60 0 -113 24q-3 0 -1 2q-1 2 -3 2v-2q-4 0 -15 4.5t-18 5.5q-49 34 -92 89q-6 8 -19 24.5t-21 26.5t-17 25.5t-14 29.5q-12 30 -12 79.5t-7 67.5q-1 66 -1 197t-1 205q-1 41 -3 106t-3 116.5t0 94.5 q1 10 1 29.5t0.5 32t3 29t5.5 28.5l12 33q3 5 6.5 16.5t6.5 16.5l26 37q3 5 9.5 12.5t10.5 13.5t7 12q6 3 13 11t10 10q12 7 50.5 31t67 36t60.5 17q119 13 172 8q7 -1 18.5 -5t18.5 -5l28 -6q40 -13 60 -15q3 -5 6.5 -7t11.5 -4.5t12 -4.5q45 -26 88 -94q33 -51 50 -109 q16 -47 18 -61q9 -65 0 -127q-1 -6 0.5 -27t-2.5 -26zM774 111l-4 24l-6 25l-8 24q-5 15 -11 25q-14 22 -14.5 50t4 61t2.5 53v121q2 51 2 147v16l-2 2q-11 11 -37 11h-22q-10 -2 -29 -2q-19 -3 -35 0q-6 0 -34 4q-52 6 -52 -13q0 -12 50 -12h36q10 1 35 -2q14 -2 47 -2h19 q2 -53 -2 -160v-49q-2 -14 -2 -41q0 -7 1 -17.5t1 -17.5q-1 -14 -1.5 -44.5t-2.5 -47.5t-12 -38t-29 -35l-19 -19l-18 -16q-30 -20 -45 -23q-65 -21 -131 -12q-7 0 -35 4q-10 0 -12 2l-41 6q-5 2 -19 7t-20 8q-15 4 -29 18q-3 2 -11.5 6.5t-13.5 9.5l-18 21q-32 38 -29 106 q-2 10 -2 33v33q0 29 -2 43v43q-4 111 -2 168q2 14 2 33v32q-1 11 -4 50.5t-2 58.5v59q-1 6 -1 26.5t-3 33.5v30q0 33 6 60l6 55q3 24 13 55q3 7 8 41l6 41q1 4 11 17t13 20q7 19 24.5 32.5t48.5 28t40 19.5l14 4q38 12 68 12q105 -11 145 -41q12 -7 33 -36h2l13 -19l18 -22 q37 -56 37 -134q0 -3 -1 -6t-1 -6q-4 -43 6 -45h4q14 0 14 29v4q3 41 -3.5 75.5t-14.5 53t-25 49.5q-31 55 -65 74q-28 18 -73.5 31.5t-90.5 13.5h-10q-27 0 -45 -6l-41 -13q-70 -28 -99 -59l-16 -22q-10 -12 -29 -56q-6 -12 -9.5 -25t-6 -33t-4.5 -28l-4 -28q-3 -8 -8 -56 l-7 -55q0 -5 -1 -15t-1 -14q-3 -24 2.5 -71t2.5 -70v-139q0 -21 2 -35q-3 -36 -1 -103.5t-1 -103.5l4 -31q0 -5 1 -15t1 -15l4 -31q0 -97 39 -148q6 -10 20 -24q13 -13 25 -19l35 -20q16 -9 34 -12q11 -5 41 -9q5 0 15 -1t18 -1q88 -15 162 9q21 7 26 10q26 9 54 41l22 24 l23 27q4 -6 9 -17.5t7 -15.5q7 -17 10 -37q3 -7 5 -27.5t7.5 -31.5t20.5 -8q5 1 5.5 5t-2.5 13t-3 10t-1 3.5t-1 3.5z" />
<glyph unicode="h" horiz-adv-x="1064" d="M381 1421q-1 -22 -6 -91.5t-4 -110.5q4 -101 12 -201q7 -69 4 -178q45 3 90 3.5t109 -0.5t94 -1q14 320 6 581q96 33 246 4q6 -15 -4 -32q3 -40 1 -121.5t1 -124.5q3 -62 4 -135.5t1 -168.5t1 -147v-151q0 -13 -1 -37t-1 -37q1 -11 1 -23.5t-0.5 -26.5t-0.5 -22v-29 t4 -36q0 -3 2 -9.5t2 -9.5q1 -7 1 -21.5t1 -21.5q0 -24 -1 -76t-1 -77v-125q-8 -6 -17.5 -7t-23 1t-20.5 2q-18 0 -53.5 -1.5t-67.5 -1.5t-62 3q-2 2 -4.5 7.5t-7.5 6.5q-3 12 -3.5 24t0.5 28t1 24q1 24 0 68t0 65q4 88 0 371q-88 -2 -287 2q-3 -18 -3.5 -63.5t-4.5 -67.5 q0 -25 1 -93t1 -112q0 -27 -2 -77.5t-2 -70.5q1 -7 3.5 -23t2.5 -22t-2 -20q-3 -8 -6 -8q9 -9 6 -33q-10 -3 -10 -8q-119 -9 -236 0q-3 8 -8 8q-13 280 -8 375q0 13 3 37t3 36q0 14 -1 40t-1 40q4 36 4 56q-3 52 -2 158t-2 159q-4 109 2 164q4 22 1.5 79.5t-1.5 76.5 q0 9 2 26.5t2 26.5q0 6 1 74.5t-5 83.5q7 0 18 3t15 3q3 1 7 0t5 0q0 3 6.5 4t18 1t16.5 1q49 4 90 -4q54 -4 70 -17zM823 967v127q0 25 -4 75q-4 67 -2 103v67q4 21 -10 27h-2q-11 -5 -12 -20.5t2 -32.5q0 -15 2 -17q0 -29 -2 -43v-41q6 -96 6 -282v-86q0 -11 1 -36.5 t0.5 -45t-3.5 -41.5h-54q-69 0 -237 4q-164 4 -240 4q-1 10 0.5 28.5t1.5 24.5v27q0 53 -2 84q0 4 1 13.5t1 13.5l-4 133q-2 48 2 143q0 17 0.5 46.5t0.5 52.5t-1 42v9q0 27 -8 30q-9 3 -12 0q-4 -4 -4 -22v-2q3 -75 0 -146q-3 -70 0 -135v-121q-1 -28 1.5 -81.5t2.5 -73.5 q0 -1 -3 -17t-3 -24l4 -35q0 -7 3 -20.5t3 -20.5q0 -24 -4 -78q0 -7 -1 -19.5t-1 -19.5q-4 -2 -2 -54t2 -54v-37q-1 -29 -1 -87t-1 -87q0 -7 -1 -19.5t-1 -19.5q0 -4 -1 -14t-1 -15q0 -2 -3 -42t1 -42q1 -4 4.5 -3.5t9.5 -2.5q4 -3 6.5 0t3 11t1 15t0 16.5t-0.5 10.5 q2 2 2 31v31q0 26 2 28q-4 128 2 191v28q-2 31 -2 91q2 2 2 28q0 7 1 19t1 16q3 52 0 105h35q29 0 176 -5q33 0 92 -1t86 -1h48q0 -2 4 -2q2 2 12 2q14 0 16 -2h13q25 3 47 0q2 -44 -2 -159q-4 -66 -4 -93v-65q-2 -19 -7 -209v-94q0 -2 -2 -4q0 -14 9 -17h4q12 0 12 25v2 q2 23 2 63q-2 18 -2 54l4 73q4 132 4 209q0 11 1 34t1 34q4 36 4 57q0 40 1 120.5t1 121.5q0 80 -2 119z" />
<glyph unicode="i" horiz-adv-x="524" d="M135 719q0 42 0.5 116.5t0.5 130t-1 99.5q0 45 0.5 119.5t0.5 131.5t-1 105q6 0 10 13q65 8 166 8q58 0 72 -8q3 -32 4 -70t1 -66t-0.5 -74t-0.5 -71q2 -72 2 -225q0 -9 -1.5 -26t-1.5 -30.5t3 -23.5q1 -3 3.5 -5t2.5 -5q1 -4 1 -10t-0.5 -13t-0.5 -10v-27q0 -12 1 -32.5 t1 -28.5q-4 -16 -4 -23v-67q0 -23 -4.5 -137.5t0.5 -143.5l8 -86q6 -131 0 -260q-6 -5 -14.5 -7.5t-15 -3t-18 -1t-17.5 -0.5q-67 -10 -129 -2q-6 0 -17 0.5t-17 1t-13.5 3t-12.5 7.5q-6 106 -2 364q1 47 0 106t-3 134t-3 117zM250 561q2 -31 2 -92v-127q0 -5 -1 -15.5 t-1 -15.5q1 -22 4 -65.5t3.5 -65t-1.5 -65.5v-39h2v-2q4 -4 10 -4h2q9 3 6 22v39q5 34 -0.5 97t-5.5 81q0 4 1 13.5t1 13.5v217q-6 114 -6 227q0 33 -2 49q0 18 1 51.5t1 49.5q0 14 1 40t1 38q0 96 2 143v164q0 4 1 12t0.5 13t-3.5 10h-4h-6q-6 -3 -8 -7t-1 -14t1 -12 q-2 -2 -2 -12q0 -27 2 -41v-21q0 -12 -1 -40t-1 -44q0 -29 -1 -84t-1 -78q0 -100 -2 -149v-113q0 -37 4 -123q0 -8 1 -25t1 -26z" />
<glyph unicode="j" horiz-adv-x="991" d="M422 -6q-72 0 -133 24l-117 78q-1 4 -4 8.5t-7.5 9.5t-6.5 7q-3 4 -7.5 14.5t-7.5 14.5q-21 37 -36 94.5t-15 109.5q0 7 3 50t-1 53q-5 110 -4 143q1 1 4.5 5t3.5 5t2 6.5t0 8.5q3 0 25.5 2.5t28 3t26 2.5t29 2t26.5 0.5t28.5 -0.5t25 -2.5t26.5 -4.5t23 -7 q4 -25 5.5 -58.5t0.5 -60.5t0 -60q0 -10 1 -22t2.5 -26t2.5 -23q11 -80 29 -107q8 -3 21.5 -10t24 -11t21.5 -5q90 -10 129 41q3 3 5.5 10t5.5 10q8 10 12 23q1 3 1 9t1 9q0 2 3 7t3 9q1 13 -0.5 39t-1.5 35q4 176 0 236v125q0 39 1 123t0.5 142.5t-3.5 117.5q-28 3 -101 2 t-114 2q-43 3 -68 10q-25 56 -10 168q2 9 5.5 35t8.5 36q0 3 3 4.5t4 4.5t-1 5q-1 2 0 2l3 1q1 1 1 2q-1 1 -0.5 1.5t3.5 0.5q13 1 36 -0.5t31 -1.5q35 -3 72 0q24 1 65 -1.5t56 -2.5q39 1 123 -3t133 -3q0 -8 8 -11q1 -37 1 -117t1 -120q0 -16 4 -48t4 -48q0 -8 -1 -25 t-1 -25l-6 -45q0 -17 4 -53q2 -72 2 -194q0 -5 -1 -17.5t-0.5 -21t3.5 -15.5q-3 0 -3 -2.5t-3 -1.5q3 -3 3.5 -4t-0.5 -3t-1 -5q5 -61 0 -76q3 -7 3 -16.5t-1.5 -23t-1.5 -21.5q0 -10 1 -37t0.5 -47.5t-3.5 -38.5q-1 -12 -1 -39.5t-1 -42.5l-4 -14q-1 -5 0.5 -18t-2.5 -15 l6 -12q-4 -6 -5 -13.5t-0.5 -17.5t-0.5 -15q-14 -37 -14 -49l-11 -18q-2 -3 -6 -7.5t-6.5 -9t-3.5 -10.5q-35 -38 -98 -86q-12 -8 -27.5 -15t-27 -10.5t-31 -10t-29.5 -9.5q-20 -9 -43 -12q-13 -4 -38.5 -4h-31.5q-11 -1 -31 1t-32 1zM217 516v-78q0 -3 -1 -9t-1 -9 q0 -9 -0.5 -26.5t-0.5 -32.5t1 -29q0 -29 2 -31q6 -39 8 -45q12 -42 46.5 -77t76.5 -48q18 -9 43 -12q9 -4 49 -4q14 0 60 4l37 4l34 8l25 8l25 13l30 16q4 4 8.5 8t9 9t7.5 8q13 13 29 49q7 21 8 26q3 4 5 14t5 15q6 26 10 76l4 73q0 7 1 18.5t1 18.5v37q0 7 1 19.5t1 19.5 t1 19t1 16q3 25 3 53.5t-1.5 63t-1.5 53.5q0 7 -1 17.5t-1 17.5q0 18 -2 28q0 16 -1 42.5t-1 39.5q0 37 -4 103q-4 93 -2 139q2 23 2 61q0 45 2 68q0 8 2 10v19q-5 8 -45 8h-35q-21 4 -79 4h-191q-19 0 -22 -8q0 -8 2 -10q7 -7 22 -7h143q22 0 54.5 -1t46.5 -1l78 -4 q-9 -202 4 -463l4 -45q0 -17 -1 -59t-0.5 -72.5t3.5 -58.5q-2 -2 -2 -33q0 -5 -1 -16t-1 -19q0 -7 -1 -18.5t-1 -18.5l-4 -30q1 -2 0.5 -30t-0.5 -30q-12 -119 -43 -170q-3 -5 -23 -30q-11 -11 -31 -23l-34 -14q-7 -3 -18.5 -5t-16.5 -5q-12 -3 -27 -3l-24 -4q-46 -4 -62 -4 q-21 0 -49 4q-20 3 -37 13q-68 31 -86 82q-9 16 -12 34q-6 18 -6 35q-2 10 -2 29q-2 53 2 143q0 9 1 26t1 23v7q3 17 -4 24h-2q-10 0 -15 -7t-5.5 -13.5t-0.5 -18.5v-4z" />
<glyph unicode="k" horiz-adv-x="1048" d="M868 229q6 -13 47 -102q7 -14 22 -38t25.5 -44t16.5 -41q-4 0 -4 -8q-33 -14 -53 -4q-26 -10 -105 -0.5t-102 8.5q-11 16 -27.5 51t-28.5 51q0 5 -3.5 12t-4.5 11q-47 82 -119.5 242t-103.5 221l-18 -29q-18 -25 -19 -27l-2 -2q-2 -31 -2 -88q-2 -58 5 -214.5t-3 -221.5 q-3 -3 -8 -4t-6 -4q-14 0 -39 2t-37 2q-50 -4 -76 -2q-3 0 -7 1t-7 1t-5 -1t-5 -1q-7 0 -22 3.5t-23 2.5q-3 -1 -8 -4t-7.5 -3.5t-7.5 1.5q-3 63 1 183.5t1 181.5q-1 3 -0.5 138t0.5 136q1 16 1 33.5t-0.5 39t-0.5 33.5q0 5 -2 15t-2 18q4 62 4 92q-2 14 -2 43q-1 37 0 111 t0 111q0 13 1 36t1 31q-2 80 -2 223q9 6 22 10.5t23 6.5t26 4.5t23 3.5q48 4 72 -4q3 0 10 -2t10 -2q52 -5 68 -10l4 -215q1 -38 -1 -117t-1 -107q41 50 100 154q6 9 28.5 45.5t37.5 56.5q6 9 16 28.5t13 25.5q48 64 67 100q3 3 4 9t4 9q15 19 15 21q6 0 47 3t47 -1 q31 3 88 -3.5t78 -6.5q4 -14 8 -17q-1 -6 -5.5 -18t-4.5 -21q-8 -9 -18.5 -29.5t-14.5 -27.5l-18 -27l-15 -28l-16 -19q-7 -11 -41 -65.5t-57 -79.5q-4 -11 -16.5 -27.5t-14.5 -19.5q-5 -5 -8 -17q-1 -2 -11.5 -13t-15.5 -19q-3 -8 -20 -37q-2 -3 -8 -9.5t-10 -12t-7 -11.5 q-11 -15 -27.5 -45t-27.5 -45q11 -12 19.5 -28t18 -38.5t13.5 -31.5q67 -154 92 -207l47 -107q6 -14 21.5 -48t23.5 -56q14 -33 49 -101zM823 117q-29 50 -63 131l-27 57q-67 142 -170 334q-74 136 -112 217l32 41l17 21q23 25 52.5 75t39.5 64l18 22l19 23q1 3 16 24 q18 27 56 75.5t47 60.5q8 10 20 30q15 26 27 43v2q20 31 14 37t-10 6q-9 0 -21 -20l-28 -47l-15 -23q-16 -21 -53.5 -72.5t-58.5 -78.5l-17 -21q-15 -18 -35 -49l-16 -25q-6 -14 -15.5 -28.5t-15 -22.5t-19.5 -25.5t-18 -23.5l-18 -22l-55 -68l-19 -23q-27 -39 -53 -57 q-23 -17 -35 -33q-17 -17 -41 -34q7 84 4 190q-2 14 -2 41q-2 56 2 172v219v37q0 2 -2 4q0 8 -4 12h-2q-8 0 -12 -4t-4 -26v-283q0 -37 -2 -55q0 -1 -1 -33t1 -33q0 -44 2 -67q0 -9 1 -28t1 -28q0 -38 -2 -61q-2 -16 -2 -47q0 -4 -1 -13.5t-1 -13.5q0 -63 2 -98 q3 -59 0 -121v-49q0 -7 1 -18.5t1 -18.5q2 -2 2 -20q3 -35 0 -66q0 -36 2 -59v-31q5 -18 0 -76q-3 -21 0 -39q6 -24 14 -26q8 0 8 16v33q0 65 -2 98v43q0 68 -2 107v163q0 43 -2 66q-3 40 0 80q21 15 39 33q44 44 57 53q22 19 41 41q5 9 29 33l100 -191l103 -197l20 -38 l31 -58q12 -26 119 -252q2 -2 2 -4q13 -31 24 -31q6 0 11 5q7 10 -8 28q-11 11 -11 21z" />
<glyph unicode="l" horiz-adv-x="890" d="M819 104q2 -36 -8 -75q-2 -4 -4 -13.5t-5 -15t-9 -8.5q-8 -2 -12.5 -2t-15.5 2.5t-15 3.5q-52 3 -111 0h-74q-16 -1 -66.5 -4.5t-74.5 -3.5q-93 0 -285 4q-1 1 2 14q-2 2 -4 2q-6 0 -8 2q-1 36 3 130.5t1 142.5q-6 54 -6 59q4 32 4 47v45l-8 84q0 12 3 37t3 41 q0 24 -1 75t-1 77q3 76 0 155q0 36 0.5 99.5t0.5 114.5t-1 95q-1 40 1.5 114t2.5 104q9 0 12 10q26 7 64 10q23 1 73 -1.5t64 -2.5q28 0 33 -8q3 -3 3 -6.5t-1.5 -9t-1.5 -9.5q0 -18 1.5 -58.5t1.5 -76t-3 -64.5q-1 -1 -0.5 -68.5t0.5 -68.5q1 -13 -0.5 -34t-1.5 -29 q0 -12 4.5 -76.5t-0.5 -81.5v-82q0 -11 -0.5 -27.5t-0.5 -29t1 -23.5l6 -51q0 -5 -1.5 -24t-0.5 -29q0 -12 4 -33t4 -33q0 -5 1 -15t1 -15q1 -23 -2 -126t2 -130q12 -3 27.5 -3.5t25.5 0t28.5 2t25.5 1.5q18 1 50.5 0t47.5 0q41 3 113 -2t92 -5q14 -74 16 -127zM264 106h23 q3 3 22 3q17 0 55.5 2.5t59.5 1.5q16 0 70 -4h131q7 0 22.5 1t22.5 1q16 2 51 2h16q8 0 11 6q3 9 0 12q-6 6 -21 6h-27q-2 -2 -20 -2h-35q-46 -4 -74 -4q-6 0 -129 6q-23 1 -67.5 -0.5t-57.5 -1.5q-8 0 -24 -1t-23 -1v86q0 8 1 19.5t1 19.5v66q2 25 2 69q0 82 -4 266 q0 15 -1 52t-1 59l-6 139l-6 131q0 82 2 125v58q0 12 1 39.5t0.5 48t-3.5 39.5q3 19 -6 28h-8q-9 -4 -11 -14q3 -25 3.5 -52t-0.5 -64.5t-1 -51.5v-39q0 -152 5 -219q8 -141 8 -281q0 -98 2 -149q0 -31 1 -105t0.5 -125.5t-3.5 -99.5v-39q0 -3 -1.5 -11t-0.5 -13q2 -9 20 -9 z" />
<glyph unicode="m" horiz-adv-x="1351" d="M1227 211q-1 -23 0.5 -104.5t-2.5 -104.5q-83 -16 -103 -16q-32 -1 -137 12q-12 27 -12 102q-2 115 -2 346q0 26 -1 97t-1 104v141q-11 -28 -26.5 -85t-27.5 -85q-11 -50 -61 -188l-12 -49q-16 -49 -27 -98q-28 -92 -33 -113q-7 -3 -47 -8q-81 -10 -151 -2 q-8 51 -24.5 106t-39 119t-33.5 100q-4 16 -24 80q-6 19 -8 31q-64 184 -72 205q-4 -17 -4 -74q0 -15 -3 -43t-3 -43q0 -101 10 -248q13 -282 0 -395l-66 -4q-66 -4 -69 -4q-91 14 -111 14q-1 20 0.5 56.5t1.5 50.5q0 38 -4 104q0 13 1 40t1 40q0 33 -3 98.5t-3 98.5 q0 13 -1 43t-0.5 51.5t3.5 42.5q-3 63 -3 187t-3 190q0 7 1 27t1 32v53q0 6 4 10q-6 8 -6 54q0 19 -3 60t-3 63q0 86 2 127q4 3 7 3.5t8.5 -0.5t8.5 -1q29 0 99 12q10 1 21.5 1t26.5 -0.5t23 -0.5q16 1 31.5 -1t38.5 -7t31 -6q27 0 39 -5q9 -41 61 -208q5 -19 33.5 -128 t46.5 -167q6 -21 26 -88.5t32 -113.5t20 -91q15 40 20 59q12 41 40 150t48 170q14 35 29 102.5t18 77.5q6 22 23 73t27 89t14 78q8 0 17.5 4.5t15.5 5.5h6q1 0 8 2q14 2 43 2q5 0 16.5 2t16.5 2q56 3 108 -6q55 -3 97 -17q1 -21 -3 -67t-3 -70q0 -5 1.5 -13t1.5 -15t-3 -13 q4 -17 5 -37.5t0.5 -33t-2 -39.5t-1.5 -35q0 -5 1 -16.5t1 -16.5q-2 -2 -2 -29q3 -53 1 -147t1 -135q3 -58 0 -163.5t0 -154.5q0 -8 1 -24.5t1 -24.5q0 -15 -1 -45t-1 -47q0 -15 3 -44t3 -44zM1128 565v232q-1 27 0.5 74t1.5 63v51q0 55 -6 113v108q0 99 -8 127q-1 3 -5.5 3 t-9.5 -2l-5 -1h-13l-22 4q-32 4 -49 4q-15 0 -19.5 -7t-5.5 -21.5t-4 -22.5q-2 -2 -2 -4l-1 -4q-1 -4 -1 -8q-2 -2 -2 -10q0 -2 -2 -2q-1 -2 -8 -29q-11 -24 -13 -47l-10 -37l-18 -51q-23 -71 -23 -72l-6 -20q0 -1 -1 -9.5t-5 -13.5l-12 -31q-15 -32 -41 -116 q-12 -30 -23 -72q-18 -61 -29 -82q-7 -16 -51 -152q-3 -7 -7 -20.5t-7 -20.5l-12 -36l-17 -47l-6 -17l-16 -39q-3 4 -6.5 13.5t-6.5 13.5q-2 2 -2 4q0 1 -1 5t-1 7l-4 19l-6 24l-16 43l-19 51q-3 8 -7 24.5t-7 23.5l-14 53q0 1 -1 4t-1 6l-11 41l-37 123q-17 53 -22 74 q-24 77 -51 153l-45 137l-35 109l-6 16l-15 33q-7 -4 -38.5 -1.5t-41.5 1.5q-20 0 -22 -2q-13 -3 -16 -10q-5 -8 -5 -43v-19q3 -19 0 -41v-36q0 -28 -1 -77t-1 -77v-33q-5 -18 -1.5 -130t3.5 -130q0 -5 1.5 -15t1.5 -18q0 -12 1 -32t1 -31q2 -41 2 -121v-51q-2 -39 -2 -115 q0 -18 -2 -20q-3 -65 -3 -127q0 -4 -1 -11t-1 -10q0 -53 5 -74v-10q0 -18 4 -22q6 -7 13 -4t7 16v8q0 8 -2 10q-5 36 -2 117q0 19 2 21q-1 8 0.5 23t1.5 20q0 16 2 18q0 16 1 42.5t1 39.5q0 25 -2 27v34q0 7 1 18.5t1 18.5v25q2 47 -2 133q0 16 -1 49t-1 51v37q-6 67 -2 201 v149q2 31 2 93q-3 43 0 88h55q24 3 31 -15l4 -16l31 -98q4 -14 13.5 -40t11.5 -30l20 -59l18 -60l25 -67q17 -65 35 -111l6 -23l10 -32q6 -30 8 -33l4 -9q4 -10 5 -16q3 -7 7 -20.5t7 -20.5q1 -6 2 -11.5t1.5 -8.5t0.5 -4q3 -7 6 -22.5t6 -22.5q18 -55 21 -66q2 -12 14 -41 q6 -18 8 -20q3 -9 7.5 -26t7.5 -25q0 -3 1 -7.5t1 -7.5l8 -22q6 -23 16 -37.5t27 -7.5q13 6 19.5 27.5t11.5 27.5l6 10l2 4q6 19 10 25l18 61l7 19l14 47q3 8 8 26t8 27q8 8 15 39l16 39l18 49q7 22 19.5 69t24.5 83.5t28 66.5l19 56l20 61l10 27l6 22l5 19l6 12 q1 6 4.5 25.5t7.5 32.5t10 24l17 57q6 30 8 33h12q9 0 37 -4t33 -4q2 -33 2 -101q0 -69 2 -108l4 -148v-39q-2 -101 2 -307q0 -25 -2 -39q-5 -131 -8 -155l-4 -21q-2 -1 -1 -18.5t1 -18.5v-16q0 -80 -7 -166q-1 -9 3 -39q0 -5 1 -14.5t1 -14.5q0 -8 -2 -10q0 -18 4 -22 q20 -23 20 31v18v4q-2 2 -2 18q-2 22 2 66q0 9 1 27.5t1 27.5v6q0 61 2 92v29q8 57 8 129q2 14 2 45z" />
<glyph unicode="n" horiz-adv-x="1095" d="M971 223q1 -27 -1.5 -105t1.5 -102q0 -2 -3.5 -6t-2.5 -8q-12 0 -89.5 -3t-87.5 1q-4 0 -33 3t-44 3q-9 29 -25 55q-13 38 -42 105t-42 102q-3 7 -13.5 29.5t-16 38t-9.5 33.5l-41 104q-14 37 -32 78.5t-42.5 92.5t-37.5 81q-4 13 -14.5 35.5t-14.5 34.5q-1 -71 4 -422 q0 -49 2 -74q0 -14 2 -39t2 -37q0 -9 -2 -27t-2 -26q-6 -51 -6 -156q-3 -1 -6.5 -0.5t-5 -0.5t-2.5 -5q-78 -27 -234 0q-5 11 -5.5 30.5t5.5 27.5q-4 9 -4 49q4 54 2 82q-1 7 -3.5 33.5t-2.5 39.5q-1 13 4 88q1 25 -1 73.5t-1 76.5v158q0 9 1.5 33.5t0.5 37.5 q-1 36 1.5 106.5t2.5 100.5q0 32 -1.5 113.5t-2 126.5t0 115t3.5 131q134 20 223 8q1 -3 2.5 -3.5t3.5 0t5 -0.5q7 -10 12.5 -21t11 -25t8.5 -22.5t9 -26.5l8 -24q22 -33 49 -104t37 -91q30 -67 71 -164q70 -187 144 -327l8 129q2 44 -2 135v274v56q0 7 -0.5 109t0.5 104 q145 24 244 -6q2 -47 2 -138q0 -24 1 -70t1 -69q-1 -16 -2.5 -44.5t-2.5 -52t-1 -44.5q3 -79 -1 -235.5t-1 -225.5v-111q5 -181 8 -217zM217 186l4 -53q0 -3 -1 -6t-1 -6q-3 -17 2 -25h2q2 -2 8 -2q5 0 9 4l2 2q5 23 0 93v67q0 19 2 27q0 9 1 26.5t1 26.5v4q0 49 2 74 q9 80 6 157q0 38 -2 56q0 15 -1 45t-1 45v18q0 16 1.5 61t0.5 72q-4 46 -4 74v39q-2 14 -2 43v119q0 120 2 186q3 -3 6 -3t6.5 1.5t5.5 1.5h2q9 -16 33 -76l29 -65l14 -37l16 -37q1 -3 4.5 -7t4.5 -7l10 -21l6 -18q7 -20 8 -21l27 -63q20 -36 35 -82q12 -37 61 -149l19 -39 l14 -33l65 -156q16 -43 56 -129q21 -55 51 -119l72 -165h2q4 0 18.5 -4t25.5 -2.5t17 12.5h2q6 277 -6 557q-2 33 -2 104v78q-3 43 0 88q0 17 4 53q6 44 6 86v15q0 35 2 53q4 46 4 70q0 7 -1 24t-1 27l-4 53q0 3 1 6t1 6q3 17 -2 25h-2q-2 2 -8 2q-4 0 -8 -4l-2 -2 q-4 -23 0 -92v-68q0 -19 -2 -27q0 -9 -1 -26.5t-1 -26.5v-4q0 -49 -2 -74q-13 -116 -11 -157q0 -38 2 -56q0 -15 1 -45t1 -45v-18q0 -86 2 -133q5 -58 5 -74v-39q2 -14 2 -43v-119q0 -120 -2 -186h-21q-9 16 -33 76l-28 65l-15 37l-16 37q-1 3 -4 7t-4 7l-11 21l-6 18 q-6 20 -8 21l-26 63q-20 36 -35 82l-31 78l-31 72l-18 36l-80 191q-20 54 -55 129q-16 41 -52 119l-71 166l-2 8q-42 5 -62 -15h-2q-6 -277 6 -557q1 -19 -0.5 -54t-1.5 -50v-78q5 -75 4 -88q0 -17 -4 -53q-6 -44 -6 -86v-15q0 -35 -2 -53q-4 -46 -4 -69q0 -6 1 -24t1 -28z " />
<glyph unicode="o" d="M858 735q9 -107 9 -239.5t-23 -241.5q5 -27 -19 -82q-8 -13 -21 -30.5t-18 -24.5q-6 -8 -13.5 -15.5t-10.5 -10t-16 -11.5t-15 -10l-18 -17q-31 -18 -41 -22q-46 -25 -97 -37q-10 -2 -35 -8.5t-42 -9t-35 -1.5q-6 1 -22 5t-25 4q-49 4 -54 6l-45 20q-23 17 -38 23l-37 24 q-10 8 -31 28.5t-33 29.5l-26 37q-29 47 -39 79q-15 58 -17 99q0 15 -5.5 58.5t-2.5 70.5q0 24 2 26q0 9 1 38t1 38q0 4 -1 11t-1 10q-1 50 0.5 145.5t1.5 126.5v137q0 44 4 170v26t4 34q0 3 4 9.5t5 8.5q10 37 26 53q4 6 9 11.5t12 11t10 8.5q2 2 12 13t13 14l12 12 t14.5 13t14 10t16.5 10q12 6 50.5 21t57.5 28q8 1 31.5 5t34.5 5.5t32.5 4t36 3t34 -1t36.5 -4.5q13 -3 37 -15.5t37 -15.5l14 -4q23 -8 57.5 -30.5t45.5 -28.5q11 -12 20.5 -25.5t18 -30t13.5 -27t14 -31.5t13 -29q23 -51 23 -177l4 -213q1 -14 1 -29.5t-0.5 -35 t-0.5 -29.5zM768 365l8 139l-4 39v39q0 27 -2 41q1 69 -7.5 195t-8.5 188v77q0 4 -1 13t-1 14q9 83 -52 158q-22 30 -86 61l-36 14q-4 1 -17.5 4t-21.5 3q-1 1 -39 6q-40 3 -80 -6q-23 0 -37 -2l-41 -13q-22 -9 -35 -20q-20 -12 -31 -23q-14 -14 -26 -32q-18 -36 -29 -76 l-8 -39q-8 -33 -10 -96.5t-4 -77.5v-37l-4 -70q-2 -14 -2 -39q0 -7 -1.5 -19.5t-1.5 -19.5t1.5 -20.5t1.5 -20.5q0 -52 2 -79q2 -8 2 -27v-107q-4 -98 4 -170q0 -6 4 -34q12 -100 92.5 -169.5t181.5 -62.5l41 4q191 27 225 160l7 29q2 9 6.5 29t7.5 30q-4 1 -1 8.5t3 8.5z M709 233l-9 -10q-57 -82 -172 -98q-30 0 -34 -2q-95 -20 -176.5 48.5t-86.5 164.5q-4 28 -4 31q-3 24 -4 51.5t-1 61.5t-1 52q0 2 0.5 42t-0.5 42v37q-6 59 -6 117v45q2 2 2 29v26q2 14 2 39q0 7 1 20.5t1 20.5v54q0 71 6 106l6 39q16 62 48 111q20 20 34 30q3 3 23 15 q45 18 86 18l45 4h47q29 0 31 -2q17 0 35 -6l30 -10q7 -3 15 -8.5t12.5 -9t13 -12t11 -11.5t12 -14t10.5 -13q52 -72 43 -133q-3 -22 0 -41q0 -27 2 -29v-26q-1 -99 -1 -121.5t6 -120t7 -121.5v-119q0 -4 1 -13t1 -13q-5 -34 -7 -103.5t-7 -103.5l-8 -33q-3 -5 -7 -15.5 t-7 -15.5zM610 412q4 22 4 92q-2 41 -2 100q0 74 -10 207q-1 13 0.5 64.5t-2.5 64.5q-1 15 0 54t0 59v55q-8 36 -35 63q-1 0 -31 16.5t-49 16.5q-74 -5 -104 -30q-14 -10 -31 -39q-4 -9 -5.5 -18t-1.5 -15t0.5 -19t0.5 -20q0 -48 -4 -227.5t0 -225.5q1 -16 3.5 -58.5 t2.5 -60t-2 -59.5q-4 -112 33 -158q1 -3 1 -6t1 -4l27 -22q56 -13 102 -2t72 43q1 3 5 5t5 5q1 1 1 5t1 5q1 3 3.5 5t2.5 3l4 17q1 2 2.5 5.5t2.5 5.5t1 3q4 9 2.5 35.5t-0.5 34.5z" />
<glyph unicode="p" horiz-adv-x="978" d="M864 1219q18 -55 21 -66q11 -96 2 -215q-12 -104 -25 -143l-26 -60q-16 -29 -52 -57l-61 -47q-76 -40 -160 -51q-26 -4 -56.5 -5t-69 -1t-56.5 -1q-8 -92 -8 -270v-123q-1 -28 0 -83.5t0 -84.5q-11 -2 -34.5 -8t-33.5 -8t-33.5 -5t-35.5 1q-20 1 -51 6t-50 6 q-11 60 -8 152q3 83 0 166q0 13 1 43t0.5 51.5t-3.5 42.5q-3 23 -3 48.5t1.5 56.5t1.5 48v136q0 22 3 63t3 61q0 62 -2 93q0 7 1 18t1 18q0 5 -1 16.5t-1 16.5q-1 20 1 60t1 59q-4 41 -2 59v60q0 12 -3 29.5t-3 25.5q0 10 0.5 31.5t0.5 39t-1 32.5q3 3 8 5t8 5q31 2 49 1.5 t55 -3.5t54 -4q1 0 56.5 2t56.5 -2q10 3 22.5 3t29 -1.5t25.5 -1.5h27.5t32.5 -4q3 0 8 -2.5t8 -2.5q6 -1 17 -1t20 -1t16 -4q61 -16 113 -37q18 -6 47 -32q7 -7 14 -15t14.5 -17.5t12.5 -14.5q19 -24 21 -27q12 -17 26 -57zM793 1071q0 7 -4.5 20.5t-4.5 20.5 q-8 86 -98 156q-94 75 -219 59q-25 0 -39 -2h-25q-4 0 -12 1t-12 1h-29q-20 0 -22 -2q-4 0 -12.5 -1t-12.5 -1q-5 -1 -25.5 0.5t-25.5 -2.5q-10 -6 -10 -57q-2 -2 -2 -13v-49q0 -16 -1 -49t-1 -49q-2 -41 -2 -123q0 -34 2 -57q0 -53 2 -84q0 -9 -1 -28t-1 -28q0 -12 1 -31 t1 -30v-68v-63q0 -12 1 -38t1 -38q-1 -8 0 -23.5t0 -23.5q-1 -10 -1 -22t0.5 -27t0.5 -23v-112q0 -62 -2 -95q-1 -12 -1 -32.5t-1 -32.5v-4q0 -32 4 -37q2 -2 8 -2t8 2q3 3 3.5 6t-0.5 8.5t-1 7.5v7v20v14q8 80 4 179v55v68q3 43 0 88q0 7 -1 17t-1 17q-3 65 0 127l49 -6 q19 -3 40 -3.5t50.5 0.5t42.5 1h35q13 1 40 3t39 3t30.5 3.5t32.5 5.5t26 8l25 10q12 5 33 22q3 1 26 25q27 40 39 66l12 32q22 79 13 154q-1 5 0 15.5t0 15.5q0 3 -1 9t-1 9zM772 965q-4 -78 -20 -113q-6 -20 -11 -27l-14 -24q-5 -9 -29 -33q-27 -19 -36 -23l-29 -12 q-51 -18 -193 -18q-11 0 -42 -0.5t-48.5 -0.5t-43.5 1.5t-46 5.5q-4 121 -4.5 165t2.5 166t4 165q2 39 2 77q13 0 41 4q6 1 16 3t13 2h35q3 -3 24 -3q21 3 45 3q66 12 130.5 -4.5t111.5 -57.5q31 -26 44.5 -39.5t26 -39.5t15.5 -60q4 -32 4 -47q2 -16 2 -49q3 -19 0 -41z M641 1032q5 109 -43 137q-38 20 -103.5 22t-117.5 -5q3 -39 3 -81t-1.5 -92.5t-1.5 -78.5q0 -9 -1 -30.5t-0.5 -37t3.5 -30.5q142 -25 223 18q27 21 27 59q4 9 4 50q3 13 8 69z" />
<glyph unicode="q" horiz-adv-x="944" d="M860 399q0 -2 -4 -30q0 -9 1 -27t0.5 -30.5t-3.5 -24.5l1.5 -18t-3 -17.5t-5.5 -17.5t-6.5 -17t-6.5 -16q-11 -41 -37 -70q-11 -13 -46.5 -41.5t-48.5 -50.5q3 -7 6.5 -18.5t6.5 -18.5l14 -22q3 -7 7 -23t7 -23q66 -154 80 -192l-4 -16q-102 -12 -209 0q-3 6 -10 6 q-30 74 -76 168q-4 9 -16 39.5t-21 46.5q-37 -7 -94 4q-47 12 -57 16q-8 4 -20 5t-13 1q-3 1 -8 5.5t-8 5.5l-27 10l-4 4l-20 12q-12 6 -52 41q-26 26 -49 64q-25 40 -37 84q-9 44 -12 90q-4 14 -1.5 50.5t1.5 45.5q-1 27 0.5 76.5t1.5 66.5v109q1 44 1 100t-0.5 125.5 t-0.5 104.5q0 34 4 104q0 3 1.5 14t0.5 17q0 7 -1 17.5t-1 17.5q1 5 4 15.5t2 16.5q35 77 37 84q28 48 88 94q20 19 37 27q31 13 74 23q15 7 39 10q35 8 135 4h28.5t32.5 -4q2 0 10.5 -3t11 -2.5t9.5 3.5q47 -14 125 -64q28 -16 59 -55q13 -18 23 -41q3 -7 12 -19.5 t12 -19.5l7 -20q5 -12 8 -51q0 -2 4 -19.5t4 -28.5q1 -17 0 -51.5t0 -54.5v-51q0 -14 -1 -54.5t-0.5 -71.5t3.5 -59q-4 -19 -4 -43t2 -54t2 -46q-2 -39 -2 -115q0 -21 3 -64t3 -63zM223 287v-2q38 -118 135 -160q6 -5 19 -10q7 -7 14 -9l17 -6q10 -3 19.5 -4.5t21.5 -1.5 h18.5t21.5 3t19 3.5t21.5 4.5t19.5 4q6 3 16 0q5 -6 8 -13l9 -18q29 -59 61 -150l47 -118v-3q0 -2 2 -4q1 -1 2.5 -5t2 -5.5t2 -5t3 -5t3 -3.5t3.5 -3l4 -2t5 -1h2q2 0 8 6q6 11 -12 35l-2 2q-3 8 -20.5 53t-26.5 68q-47 116 -70 167q-3 12 -8 17q10 3 26 16q3 3 7.5 5 t5.5 5q45 25 65 54q15 15 25 41q2 2 2 4q0 8 2 12q8 14 11.5 32.5t4 28t-1.5 36t-2 32.5v70l4 104q3 19 3.5 39.5t-0.5 49.5t-1 42v103q2 14 2 34q4 141 0 183q-2 16 -2 47q0 29 -2 31q10 67 -18 117.5t-79 76t-111 35.5t-121 4q-28 -4 -35 -8q-69 -21 -115 -71.5 t-47 -117.5q0 -3 -1 -5t-1 -5q0 -5 -1 -15.5t-1 -15.5q2 -63 2 -176v-8q-4 -243 2 -369q6 -43 2 -126v-21v-18q-2 -26 10 -80zM236 385q3 24 3 52.5t-1.5 60.5t-1.5 47q-3 82 -3 172q-2 14 -2 39q2 33 2 96q4 126 -4 229q0 7 1 19.5t1 19.5q2 2 2 13v2q3 103 134 149 q13 6 43 10q154 24 260 -63q17 -14 26.5 -35.5t12 -34.5t5 -46t3.5 -40v-47q4 -70 2 -110v-46v-55q-2 -35 -2 -94q0 -23 -1 -71.5t-1 -73.5q-2 -51 -2 -152q0 -3 -1 -7t-1 -7q0 -23 2 -33v-33q0 -5 -4 -33q0 -15 -9 -30q-2 -2 -2 -11q-3 -24 -14 -43q-15 -21 -51 -49 q-6 -6 -12 -8q-26 -26 -78 -43l-23 -6q-52 -9 -104 0l-17 6l-18 8q-3 3 -9.5 6.5t-9.5 6.5q-56 34 -114 129l-6 18l-6 35v18v35zM600 793q0 14 3 81.5t-1 75.5v41q0 3 -3 20t-3 25q0 9 1.5 37t0.5 43q-1 23 -4.5 29.5t-15.5 17.5q-2 2 -5.5 6.5t-6 7t-5.5 3.5q-5 3 -20.5 6 t-22.5 6q-42 10 -45 10q-37 2 -84 -18q-3 -2 -8 -4.5l-8 -4t-4 -4.5l-17 -22q-1 -4 0 -12.5t0 -12.5l-6 -18q-4 -15 -4 -76q0 -14 -2 -41t-2 -41q0 -23 2.5 -78t1.5 -82q0 -16 -1 -50t-1 -54q-2 0 -1 -58l1 -59q-7 -54 -6.5 -136t18.5 -132q6 -6 13.5 -19t15.5 -18 q32 -23 61 -26q45 -8 107 20q23 10 34 24.5t17 41.5q3 11 3 24.5t-1.5 30t-1.5 24.5q0 7 1 20t1 17q-4 77 -2 115v240z" />
<glyph unicode="r" horiz-adv-x="993" d="M225 -10q-68 10 -102 24q0 87 2 150q0 8 2.5 37.5t2 36.5t-2.5 38v52q2 43 2 135q0 27 1.5 83t1.5 106.5t-3 97.5q-1 25 2.5 72.5t3.5 68.5v113q4 110 4 188q0 33 -1.5 109.5t-0.5 121.5q1 2 3 5.5t3 6.5t0 7q47 6 152 6q229 0 360 -31q51 -13 72 -26q1 -3 5 0t7 0 q66 -44 111 -125q5 -22 27 -62q13 -50 14 -59q5 -8 3 -56t-1 -59q4 -36 2 -55q-3 -63 -18 -125q-12 -54 -35 -92q-36 -54 -97 -103q-31 -31 -45 -37q32 -111 50 -145q13 -51 36 -115l39 -112q28 -67 60 -172q2 -6 8 -19.5t7.5 -18.5t3.5 -18.5t-3 -19.5q-78 -25 -168 -4 q-9 2 -36 8.5t-42 7.5q-26 86 -59 180q-7 22 -18.5 63.5t-18.5 61.5q-38 117 -70 211q-15 34 -16 49q-14 -5 -39.5 -5t-44.5 5q-11 -170 -8 -301q0 -4 -1 -12t-1 -12q4 -109 2 -160v-55q-1 -6 -5.5 -16.5t-4.5 -18.5q-52 -20 -146 -10zM250 63h12l2 3q5 8 2 20v6 q-8 60 2 139v43q0 3 1 7.5t1 7.5q0 51 2 76v18q0 9 1 28.5t1 28.5v19q6 153 5 168v18q-3 3 -3 19q6 9 3 20q0 16 2 18l16 -4q4 -1 86 -6h31q3 0 6.5 -0.5t10 -1.5t11.5 -2q14 -2 35 -2q25 0 49 6l19 -51q1 -6 4 -15l4 -12l18 -47l13 -32q8 -25 55 -136q31 -73 70 -180 l14 -41l14 -39l8 -26q17 -50 21 -58v-2l2 2q2 2 6 2l4 1q3 1 4 5q9 15 -4 31q-4 4 -4 8l-6 21l-6 16q-2 13 -12 37q-3 4 -5 9.5t-5 13l-5 12.5q-45 129 -71 184q-39 97 -68 176l-12 31q-14 32 -15 41l-16 55l29 7q48 13 67 24q6 4 12 9.5t14.5 14.5t12.5 13l17 16q6 6 8 6 l12 15q11 18 18 46t8.5 42t6.5 57q0 19 2 21v2q5 76 4 90v16q-2 2 -2 17q-7 40 -10.5 56.5t-14 45.5t-24.5 51l-13 19q-23 23 -32 28l-21 11l-10 4q-10 0 -12 2q-36 15 -82 18q-62 4 -103 4q-53 0 -80 -2h-90l-4 -8l-4 -8v-21q2 -2 2 -22q2 -41 2 -129q0 -3 -1 -9.5t-1 -9.5 q0 -129 -2 -192v-64q0 -3 -1 -7t-1 -7q0 -14 -2 -16q-4 -16 -2.5 -74.5t0.5 -75.5v-35l-4 -182v-16q-2 -31 -2 -86v-19q0 -55 -2 -80q0 -18 -2 -26v-27q-4 -28 -4 -47v-14q-3 -87 8 -93zM285 801v155q0 16 -1.5 43.5t-1.5 49.5t3 43v20q6 39 2 145q-2 2 -2 19q0 3 -1 9t-1 9 v13h92q25 2 76 2h4q111 0 151 -13l15 -6l16 -6l16 -12l17 -15q64 -76 67 -184q2 -2 2 -18q0 -75 -14 -178q-6 -40 -12 -52q-4 -8 -14 -18.5t-11 -11.5l-10 -11q-23 -27 -54.5 -40t-91.5 -27q-11 -4 -55 -4q-34 0 -57 2h-4q-16 2 -49 2q-10 1 -28 1t-31 1t-25 4v14q2 23 2 64 zM391 926q-4 -70 2 -90q46 -1 85 -0.5t75.5 8.5t60.5 24q5 5 8 11.5t4.5 11t3 15t3.5 16.5q6 33 6 92q-1 13 0 42t-0.5 49t-7.5 34q-9 20 -39 37q-36 16 -119 12q-10 -1 -24 -1t-31.5 0.5t-26.5 0.5q0 -24 0.5 -78t0.5 -100.5t-1 -83.5zM156 1427q-1 -3 -4 -5q2 -1 4 -1 q0 1 1 2q3 4 -1 4z" />
<glyph unicode="s" horiz-adv-x="946" d="M842 1194q18 -79 18 -86q2 -35 1.5 -52.5t-3.5 -54t-4 -55.5q-20 -8 -80 -8q-9 0 -26.5 -1t-26.5 -1h-51q-3 0 -6.5 2t-6.5 2q-8 2 -20 3.5t-20 4t-15 8.5q-1 12 1.5 55.5t-1.5 59.5q-1 5 -4 22t-4.5 23.5t-5.5 18t-10 20.5q-14 25 -37 35h-21q-4 1 -10.5 3.5t-10 4 t-10.5 3t-11 1.5h-13q-5 0 -35 -10q-5 -2 -16 -5.5t-15.5 -5t-11.5 -5.5t-12 -9q-6 -4 -10.5 -9.5t-9 -14t-7.5 -13.5q-9 -45 10 -102q12 -34 64 -98q4 -4 11 -14.5t11 -14.5q3 -4 11.5 -10.5t11.5 -9.5q10 -8 31 -27.5t34 -28.5q53 -35 91 -73q8 -3 14.5 -8.5t14.5 -15 t12 -13.5q11 -11 30 -28.5t31 -29.5q44 -44 61 -77q11 -9 23.5 -39t15.5 -35q2 -6 8 -15.5t7 -15.5q1 -5 1 -15.5t1 -15.5q0 -4 3 -11t3 -11q2 -14 2 -39q-1 -33 1 -41.5t-4 -37t-7 -33.5t-8.5 -31t-8.5 -31q-14 -43 -20 -53q-3 -5 -11.5 -14.5t-11.5 -14.5l-10 -14l-12 -13 q-3 -3 -4 -8t-4 -8l-9 -6q-30 -30 -49 -35q-28 -16 -37 -25q-3 0 -9.5 -2.5t-10.5 -1.5q-18 -8 -34.5 -12t-42.5 -6.5t-36 -3.5q-3 0 -6 -2t-6 -2q-2 0 -10 1.5t-11 0.5q-12 0 -43 -1t-47 -1q-3 0 -10.5 -1t-12 -0.5t-7.5 3.5h-17q-6 2 -21 5.5t-24.5 6.5t-20.5 9t-16 14 q-10 -3 -20 6q-10 4 -19.5 12.5t-11.5 13.5q-9 1 -19.5 9t-15.5 10q0 3 -1.5 5t-2.5 3t0 2q-14 8 -29 33.5t-24 34.5q1 3 0 5t0 5q-14 22 -20.5 46.5t-11.5 66t-7 53.5q0 6 2 8q-13 61 4 143q34 12 72 13.5t91.5 -3.5t74.5 -6q2 -2 4.5 -5.5t5.5 -4.5q0 -11 -0.5 -42 t-0.5 -46.5t2 -42t6 -42t12 -33t20 -27.5q6 -2 30.5 -11.5t41 -12.5t34.5 1q13 3 25.5 8t24 14t18.5 15t19 18t16 15q27 68 -25 174q-22 30 -78 74t-77 69q-3 0 -4.5 1.5t-4.5 2.5q-5 7 -19.5 18.5t-19.5 18.5q-13 3 -16 17q-26 15 -31 28q-10 3 -17 8.5t-14.5 15 t-11.5 13.5q-21 17 -26 23l-21 16q-7 7 -24 21t-25 22l-18 16q-7 7 -16.5 23.5t-16.5 23.5q-40 75 -37 162q0 3 -2 9.5t-2 9.5v47q1 9 3.5 26t4.5 27.5t5.5 24.5t8.5 26q0 11 3 21t9 23t9 20q2 3 7.5 13t8.5 15q5 6 20 22t21 26l19 16q44 38 116 65l54 19q22 6 71 10 q16 2 48 2l77 -6q28 -2 70 -20q4 -6 11.5 -11t18.5 -9.5t15 -6.5q19 -10 46 -36t38 -34q58 -77 74 -141zM745 1051q0 5 -1 15t-1 15q0 3 -1 6.5t-1 6.5q-3 47 -18 77l-4 15q-5 7 -26 45t-38.5 57.5t-42.5 30.5l-16 8q-3 1 -15 4t-20 4q-4 0 -8.5 1t-7.5 1q-4 0 -4 2 q-40 7 -64 7q-47 0 -65 -9q-52 -13 -88.5 -32t-63.5 -56q-22 -38 -45 -102q-16 -44 -6 -107q3 -39 12 -69q14 -23 19 -35l10 -16q4 -8 33 -48q4 -4 30.5 -32.5t39.5 -42t38 -36.5t47 -40l19 -16q17 -18 51.5 -44.5t48.5 -39.5l14 -13l39 -41l33 -41l8 -10l11 -14l10 -13 q17 -25 24 -57l4 -20q10 -102 -26 -176q-3 -12 -8 -17q-24 -47 -68 -74l-12 -10l-17 -8q-5 -5 -16 -8q-16 -5 -36.5 -7t-34.5 -2t-38.5 0.5t-35.5 0.5l-17 4q-12 2 -31 8l-20 8q-63 37 -94 90l-10 19l-7 20q-8 25 -8 76v20q0 2 -1 10.5t-1.5 13t-2 10.5t-4.5 9t-7 2 q-10 -3 -12 -12t0.5 -25.5t1.5 -23.5q2 -2 2 -18q2 -26 14 -72q5 -16 6 -17q5 -15 19 -36l8 -11q24 -38 59 -63q5 -5 19 -10q29 -19 61 -25q3 0 8 -1t8 -1q104 -11 172 16l15 7l16 8q3 3 8 5t8 5l15 12q42 36 63 76l9 16q33 78 20 166l-4 21q-7 36 -41 98q-1 3 -4 7t-4 7 l-19 23l-14 16l-37 41l-12 15q-18 16 -64 52.5t-69 59.5l-11 8q-23 18 -67 62l-17 16q-58 54 -90 107q-4 12 -10 18l-16 31q-22 69 -19 123q1 18 23 80q11 32 26 53q25 41 83.5 65.5t132.5 24.5h2q16 0 18 -2q30 -3 57 -12l17 -6l18 -11q52 -31 84 -104l4 -8t4 -11 q1 -2 4.5 -8t4.5 -10l6 -18q6 -26 12 -91v-8q-5 -15 4 -18t14 2q4 4 4 31z" />
<glyph unicode="t" horiz-adv-x="980" d="M909 1376q9 -40 9 -80q-4 -100 -58 -100q-15 3 -32.5 3t-41 -1.5t-36.5 -1.5h-84h-29q-3 1 -7.5 3t-6 1.5l-7.5 -2.5q-4 -19 -5 -41.5t-0.5 -36t2 -41.5t1.5 -39q0 -16 -2 -46.5t-2 -45.5q0 -11 2 -34.5t2 -36.5q0 -22 -6 -103q5 -5 4.5 -38t-0.5 -38q0 -3 2 -8t2 -8 q3 -17 3 -37.5t-1.5 -46t-1.5 -39.5q0 -21 -1 -62t-1 -61v-108v-117q0 -38 -4 -107.5t-4 -107.5q-13 -1 -43 -6.5t-47 -5.5q-1 0 -3 1t-3 1q-18 -2 -26 -2t-28 2.5l-28 3.5q-49 4 -72 18q4 0 2 108t-2 113q0 35 4.5 105t4.5 108q0 40 -1.5 119.5t-1.5 120.5q0 16 -3 120 t1 120q3 31 2.5 88.5t2.5 89.5q1 12 3 33t1.5 28t-2.5 33q-23 1 -48.5 1t-58 -0.5t-51.5 -0.5q-11 0 -35 2t-35 2q-45 0 -63 8q-16 57 -12 121.5t24 118.5q10 4 80 0t86 -4q48 -1 230 0.5t233 -2.5q56 -6 151 -2h10.5h8.5t6 -0.5t4.5 -1.5t2.5 -3.5t2.5 -5t1 -8t1.5 -10.5 t1.5 -14.5t2.5 -18.5zM842 1335q-4 4 -15 4h-90q-8 0 -29.5 -1t-37 -0.5t-29.5 3.5q-32 0 -103.5 -4t-115.5 -4q-39 0 -64 2h-143q-7 0 -18.5 -1t-18.5 -1q-14 0 -16 -2q-21 0 -39 -6q2 0 0 -2l-4.5 -4.5t2.5 -5.5q22 -8 57 -2q3 0 10.5 1t10.5 1q16 0 18 -2h125 q13 0 40.5 -1t43.5 -1q37 0 53 2q-6 -125 -6 -361q0 -7 1 -20.5t1 -20.5v-45v-16q-4 -29 -1.5 -81t-0.5 -81v-20q0 -72 2 -107v-104v-49q-2 -14 -2 -50v-98q2 -26 -2 -76q0 -13 -1 -33.5t-1 -31.5v-8q0 -25 12 -29q10 -3 13 13q2 7 0 18v12q-2 21 2 65q0 17 2 19v90 q-2 0 -1 46l1 46q0 13 1 40.5t1 41.5q0 28 -1 94t-1 101q0 25 1 84.5t1 97.5v57q-2 14 -2 45q0 233 8 361q91 6 188 6h66q8 0 10 -2h35q36 0 39 10q3 5 -2 10z" />
<glyph unicode="u" d="M631 8l-37 -6q-95 -22 -191 -10q-26 2 -73 14q-12 5 -49 23q-7 5 -25 13t-25 13t-20.5 20t-26.5 23q-8 11 -26.5 34t-30 41.5t-18.5 39.5q-2 8 -6.5 22.5t-7 26.5t-3.5 23q-8 63 -8 151q0 1 6 70q0 11 -3 33.5t-3 40t6 28.5q-4 1 -5 5.5t0 16t1 13.5q0 33 -1.5 90.5 t-1.5 108.5t3 106q3 47 3 101t-1.5 120t-1.5 101q4 114 0 149q1 2 4.5 6t3.5 9l94 16q28 3 80.5 -4t67.5 -8q10 -10 7 -43.5t1 -44.5q-4 -3 -2.5 -11.5t-1.5 -11.5q4 -20 4 -62.5v-52.5q0 -14 0.5 -39t0.5 -46t-1 -40q0 -34 1 -114.5t1 -126.5l-6 -252q-1 -38 4 -182 q0 -9 -0.5 -27.5t-0.5 -28t2 -23.5t7 -26q20 -51 78 -63q47 -7 55 -6q1 0 19 6q3 1 9 1t9 1q22 5 44 19t28 30q3 4 4 9t1 12t1 10q9 31 0 49q5 37 0 166q-2 51 -2 164l1 3q1 2 1.5 4t-0.5 3.5t-4 1.5q0 3 3 2q1 0 1 1v3q0 32 1 69.5t2.5 83.5t2.5 72v139q0 27 -1 79.5 t-1 82.5q0 5 2 15.5t2 15.5t-1 14.5t-1 14.5l4 123q21 9 54 12q46 5 53 4q57 17 141 -12q1 -2 1 -6t1 -6t4 -3q3 -58 -3 -159.5t-3 -155.5q2 -39 2 -115q0 -41 -1 -115t-1 -112q0 -19 1.5 -62t1 -77t-4.5 -66q5 -16 1 -81t-3 -85q5 -68 4 -84q-1 -2 -2 -7t-3 -11t-5 -12 q-3 -10 -8 -39.5t-9 -44.5q-1 -2 -3.5 -6t-2.5 -7q-1 -1 -1 -5t-1 -7l-12 -16q-24 -40 -45 -56q-32 -32 -39 -37q-3 -3 -12 -6t-13 -6q-3 -3 -10 -7.5t-10 -6.5l-25 -10zM195 1307v-29q8 -135 4 -242q-3 -26 0 -63v-55q-2 -47 2 -142q0 -16 1 -45t1 -45q0 -11 1 -35.5 t1 -38.5q2 -23 2 -63v-19q1 -21 -2.5 -75.5t0.5 -73.5q0 -17 2 -19q2 -25 14 -81q2 -4 6.5 -17t5.5 -16.5t5 -12t6.5 -12.5t7 -10t10.5 -12l25 -25q59 -64 168 -61h65q29 0 31 2q5 0 12.5 3t9.5 3q18 6 19 6l16 6q5 1 27 8q33 15 67 68l9 10l6 8q6 11 11 26t6.5 24t4.5 31.5 t4 27.5v8q13 124 13 201v108q3 86 0 166v39q-4 65 -2 96q0 24 -4 70q-5 58 -5 64q3 34 3 65v21q1 18 4.5 59t3.5 59.5t-4 59.5q-4 4 -9 4q-7 0 -10 -6q-1 -22 -4.5 -84.5t-3.5 -98.5v-59q0 -5 -0.5 -14.5t-0.5 -17t1 -13.5q4 -31 4 -133v-21q0 -33 2 -51q4 -62 2 -98v-37 v-20q0 -220 -12 -340q0 -4 -1 -13t-1 -14q-4 -70 -19 -94l-10 -11l-14 -20q-23 -38 -43 -49l-33 -12q-1 0 -4 -1t-4 -1l-14 -7l-31 -8q-3 0 -13 -1t-18 -1h-47q-101 -8 -186 80l-13 14l-10 13q-21 41 -33 143q0 3 -1 9t-1 9q0 12 1.5 48.5t0.5 56.5v22q0 195 -4 256 q-3 40 -3.5 77t0.5 86t1 69v129q0 12 -1 31.5t-1 27.5q0 11 -1 34t-1 36v20q0 8 3 24t2.5 27t-7.5 17q-7 2 -11.5 1.5t-6 -14.5t-2 -21.5t-0.5 -20.5zM100 1421q0 3 -2 3.5t-4 0t-2 -1.5q2 -2 8 -2z" />
<glyph unicode="v" horiz-adv-x="1046" d="M981 1425q0 -7 -5.5 -43t-11 -69t-6.5 -33q-9 -26 -19.5 -75.5t-16.5 -69.5q-19 -68 -29 -152q-13 -83 -64 -297q-7 -33 -24.5 -106t-24.5 -113l-10 -57l-6 -33q-6 -33 -29 -129q-25 -124 -28 -146l-17 -55q-14 -53 -14 -55q-24 0 -98.5 -5.5t-127.5 -2.5t-88 20 q-13 37 -26.5 106.5t-20.5 94.5q-11 40 -25 116.5t-16 86.5q-8 39 -23.5 105.5t-21.5 96.5l-16 99q-3 15 -11.5 46t-11.5 48q-1 5 -3.5 27.5t-10.5 31.5q0 30 -16 84q2 19 -13 84q-8 25 -16.5 69t-11.5 56l-19 66q-4 35 -10 53q-27 125 -29 147q31 24 72 27q82 10 186 -18 q61 -265 78 -355q4 -33 11 -55q4 -17 9 -46t7 -40q8 -36 21 -103t18 -92q3 -11 14.5 -52t16.5 -64q5 -19 13 -57t13 -58q22 71 55 235q8 45 28 122.5t26 107.5q8 45 27.5 125.5t23.5 97.5q33 163 53 234q85 25 162 14q22 -3 43 -12q38 -5 43 -7zM319 805q-12 34 -24 110 l-4 21q-3 14 -31 113q-23 65 -31 120q-2 2 -2 19v18l-4 15q-2 2 -2 8q0 2 -2 4v10q-2 2 -2 14l-6 15l-6 14q0 3 -1 7t-1 7q-1 12 -2.5 17.5t-7.5 12t-17 5.5l-2 -2q-1 -3 4 -18q4 -4 4 -8q0 -9 2 -11v-12q0 -4 1 -7l1 -3q0 -2 2 -2l7 -12q0 -15 2 -17v-12l4 -14q0 -3 1 -7 l1 -4q0 -2 2 -2q4 -28 4 -35l4 -36q3 -13 27 -89l14 -40q3 -12 7 -35t7 -35q9 -64 35 -154q24 -93 29 -118l26 -111l7 -27q61 -231 94 -413v-2h2q10 0 31 -3q5 0 14.5 -1t17.5 -1q3 0 11.5 2t15.5 3h2q3 4 4 8.5t4 7.5q5 5 8 16q3 3 4 6.5t1 8.5t1 8l7 22l14 52q3 9 4 10 l6 20l6 23l25 92l12 41q38 158 47 199q7 27 19.5 82t19.5 83q3 20 10 37q10 24 13 52l10 45v4q0 2 6 20l6 23v16q1 15 15 68q12 46 14 73q4 32 10 50q2 0 2 4q0 10 2 16l21 88l6 33l4 15v-1q9 15 0 21q-2 2 -8 2q-13 0 -17 -51l-4 -25q0 -7 -11 -48t-15 -50q-6 -14 -11 -39 l-14 -70q-4 -24 -19 -79.5t-18 -88.5q-5 -47 -8 -55l-12 -45l-19 -84l-30 -125l-4 -16q-4 -31 -11 -50q-2 -2 -8 -20q-10 -23 -12 -39l-4 -23q0 -16 -2 -18q-3 -19 -13 -43l-4 -14l-10 -41q-2 0 -2 -4q0 -3 -1 -8.5t-1 -8.5l-6 -22l-3.5 -10.5t-2.5 -10.5l-11 -28l-6 -17 q-3 -9 -8 -27t-8 -26l-10 -35q-21 0 -23 -2h-18q-7 0 -23 4q-27 154 -67 309q-1 7 -9 31l-20 84q-27 105 -29 115q-4 10 -8 37q-13 68 -25 94z" />
<glyph unicode="w" horiz-adv-x="1478" d="M1300 1436h17q35 0 94 -9q3 -22 -2 -30q-3 -67 -22.5 -189t-24.5 -164v-24.5t-4 -30.5q0 -18 -7.5 -62.5t-9.5 -58.5q-4 -27 -17 -99.5t-17 -115.5q-3 -28 -8 -58.5t-12.5 -66t-10.5 -55.5q-14 -79 -19 -98q-21 -83 -36 -193l-7 -49q-8 -24 -8 -65q-4 -11 -8 -37t-12 -39 q-2 0 -6.5 -1t-7 -0.5t-5.5 3.5q-3 0 -26.5 -3t-38.5 -3h-107q-4 0 -25 -0.5t-29 0t-22.5 3t-25.5 7.5q-3 0 -7 -1t-7 -1q-1 8 -7.5 26.5t-7.5 30.5l-4 39l-6 27q-41 269 -45 315q-15 68 -31.5 202.5t-32.5 201.5q-5 -8 -8 -28t-8 -28q-3 -12 -5 -34t-5 -31q-6 -18 -6 -19 q-3 -13 -8 -77q-1 -10 -15 -84q-1 -7 -1 -18.5t-1 -16.5q-3 -14 -7 -43t-7 -43q-27 -123 -39 -207q-19 -138 -39 -213q-16 2 -22.5 2t-22.5 -2.5t-23 -3.5q-16 -4 -43.5 -4h-33.5q-9 0 -25.5 -1.5t-30 -1.5t-24.5 3q-12 1 -24.5 3.5t-28.5 6.5t-27 6q-5 5 -6.5 13.5 t2.5 13.5q-8 41 -21 122t-18 109l-15 80q-29 186 -30 188q-3 17 -7.5 48.5t-7.5 48.5q-11 49 -28 184q-1 0 2 10q-15 70 -31 197q-4 34 -19 105.5t-20 101.5l-29 194l7 15l53 10q3 0 8 2t8 2q26 4 56.5 0.5t70 -11.5t53.5 -10q13 -118 31 -210q9 -39 19 -108.5t16 -100.5 q7 -41 19.5 -123t19.5 -123q3 -14 11 -55t11.5 -62.5t7.5 -55t5 -61.5q6 10 10 37l43 244l4 43q3 26 14.5 84.5t14.5 89.5q9 82 22 162q5 24 10.5 68.5t6.5 54.5q3 20 11.5 59t12.5 62q49 10 154 10q46 0 110 -23q4 -9 7 -47q0 -14 2.5 -29.5t7 -37.5t6.5 -31q3 -16 6 -46.5 t6 -45.5q14 -56 29 -172q2 -17 7.5 -76t10.5 -88l13 -70l43 -264q8 18 13.5 40.5t7 38.5t4 44.5t3.5 40.5q4 32 9.5 66.5t14 80t13.5 72.5q2 12 8 31q2 31 13 88l12 88q2 14 9.5 49t10.5 57q7 36 18.5 106.5t18.5 106.5l11 6q12 0 36 4.5t37 4.5q5 0 16 -1.5t20 -1.5t15 3z M758 1255l4 -14l12 -55q3 -21 7.5 -43.5t11.5 -50t10 -43.5l16 -72q30 -150 37 -205q6 -54 18 -94l9 -43l12 -68q6 -43 29 -159q15 -72 22 -119q4 -27 10 -37l7 -14q7 -15 14.5 -58.5t15.5 -60.5l45 -6h17l18 2h2v2l15 55q2 2 2 18q16 88 36 166l15 62q15 64 24 135l4 20 q4 29 25 158q7 25 10 64q23 127 27 163l6 35q3 8 8 41l6 66q15 134 31 217q0 8 2 10q3 26 2 27v2h-6q-13 0 -18 -21v-6q-16 -61 -27 -166q-3 -17 -7 -51.5t-7 -52.5q-21 -135 -23 -150l-51 -321q-10 -85 -29 -158q-43 -189 -61 -295h-6l-15 -2l-30 4q-5 10 -9.5 41t-7.5 41 l-4 21q-14 40 -16 65l-21 94l-10 41q-6 31 -22 138l-17 86q-6 16 -10 49q-3 14 -7 42t-7 42q-5 42 -9 55q-4 25 -41 201q-8 26 -32 145l-4 23l-17 53h-18l-39 -2l-17 -55l-2 -15q-5 -30 -22 -119q-14 -55 -21 -90q-3 -13 -7 -37.5t-7 -37.5q-6 -28 -18.5 -98.5t-20.5 -108.5 l-12 -56l-19 -84q0 -3 -1 -9t-1 -9q-18 -90 -26 -123l-29 -121l-27 -112q-4 -27 -10 -37h-47q-20 0 -22 -2q0 12 -2 14l-13 66l-12 69q-3 14 -6 40.5t-6 39.5t-6.5 38t-6.5 38l-12 69l-14 82l-15 64q-12 39 -18 82q-2 16 -12 69.5t-13 81.5q-11 86 -24 152q-6 24 -31 172 l-16 94v8q0 12 -3 20t-10 7q-6 0 -10 -4q-7 -11 2 -29q0 -6 2 -8q0 -8 1 -18t1 -13q2 -2 2 -10l7 -45l6 -29l18 -110l2 -12l1.5 -9t0.5 -4q2 -2 2 -16q9 -45 24 -135t17 -103q4 -49 10 -71l19 -84l14 -68q3 -11 7.5 -33.5t7.5 -34.5l16 -88q4 -15 8 -61l16 -96l5 -19 q5 -16 10 -57q0 -3 1 -6t1 -6t1 -8.5t1 -8.5q2 -2 2 -4q0 -10 2 -12q0 -17 12 -23q16 -4 25 -4q4 1 13 3t11.5 1.5t10.5 -2.5q20 -5 34 2.5t15 26.5q6 29 10 39q23 93 45 194l2 4q24 113 29 142l22 114l7 25l12 64l43 221l24 125q4 18 8.5 51t6.5 45l4 16l10 47z" />
<glyph unicode="x" horiz-adv-x="1034" d="M698 -10q0 6 -6 6q-69 151 -90 194q-14 29 -39.5 95.5t-42.5 99.5q-24 -59 -54 -124t-66.5 -142t-55.5 -119q-97 -20 -235 -10q-4 0 -9 1t-8 1q-4 0 -4 2q-2 0 -8.5 -1.5t-10.5 0t-8 7.5q2 14 7.5 28.5t10 24t14 26.5t13.5 25q24 54 41 86q10 21 39 80t43 90l39 91l41 86 q14 27 36.5 87t39.5 89q-9 19 -26.5 55.5t-31.5 66.5t-24 58q-9 23 -29.5 69t-29.5 70q-3 8 -10.5 22.5t-10.5 22.5l-39 90l-41 93l-59 137q-2 4 -8.5 13.5t-8 14t0.5 15.5q116 11 268 0q9 -9 10 -9q2 -1 6 -1q-3 -10 6 -25l164 -387q36 71 92 212t72 179q1 3 0.5 6t0 6 t3.5 4q31 19 76 19q30 2 90 -2l86 -8q3 0 10.5 1.5t10.5 0.5q13 -8 10 -33l-8 -25l-11 -24l-18 -43q-23 -49 -68.5 -137t-60.5 -119q-6 -19 -24 -58.5t-23 -60.5q-3 -1 -5 -8t-5 -8q-1 -10 -4.5 -19t-10 -20.5t-8.5 -14.5q-12 -26 -36 -75t-36 -76q16 -46 37.5 -98 t49.5 -115.5t42 -98.5q12 -33 35 -77q27 -73 31 -80q15 -30 41 -90t29 -66q8 -23 34 -67q13 -13 7 -23q-36 -6 -87.5 -8t-92.5 -1.5t-83 -0.5zM770 145l25 -57l6 -8q1 -3 4 -7t4 -7q2 0 2 -5q2 -3 4 -7.5t4 -6.5t6 -2h4q3 0 7 4v19q-2 8 -11 16q0 1 -1 2t-1 2l-18 37l-2 2 l-35 88l-35 84q-43 100 -82 162q-14 25 -22 43l-19 35l-4 6q-60 108 -80 153q125 313 222 512l14 35q25 56 47 86q0 2 4 6q14 24 16 35l-2 2q-6 6 -12 6h-2l-2 -2l-29 -47l-18 -31l-35 -69l-6 -8q-98 -209 -211 -492q-39 96 -139 303q-7 16 -47 99q-27 60 -45 104l-45 102v2 q-16 33 -25 33l-2 -2q-5 0 -8 -6q-3 -13 10 -31q2 -2 2 -4l37 -82l18 -47l19 -39q39 -94 59 -129q60 -111 156 -336q-10 -32 -66 -155l-33 -68q-82 -185 -100 -221l-14 -29q-42 -91 -49 -121l-7 -8q-17 -21 -8 -37v-2h2q5 -3 17 9l2 2q5 8 11 24.5t7 18.5l6 16l25 53l12 25 q2 5 10 20.5t11 24.5q34 65 86 186l51 113q45 97 53 117q8 -12 23 -48q45 -91 86 -159q13 -22 27 -48t23.5 -45t24 -52t20.5 -46.5t22 -53.5t20 -48z" />
<glyph unicode="y" horiz-adv-x="1032" d="M963 1436q3 -3 4.5 -6t2 -6.5t0.5 -7t-1 -8.5l-1.5 -7.5t-3 -8.5t-3.5 -8t-3.5 -8.5t-3.5 -7.5l-6 -10q-6 -19 -10 -25q-10 -25 -57 -133l-15 -24q-1 -3 -9.5 -29.5t-14.5 -40.5q-12 -22 -29 -66t-27 -65q-25 -54 -108 -260q-4 -9 -13 -29t-15.5 -35t-10.5 -33 q-1 -35 2.5 -140.5t-0.5 -141.5q-4 -98 -4 -152q0 -14 3.5 -95t-1.5 -89q-4 -3 -9 -3.5t-11 0.5t-9 1q-14 -1 -51 -6.5t-59 -5.5l-60 4q-45 5 -55 10q0 55 2 88q0 16 2 46t2 46l-6 56q-7 155 4 397l-51 119q-7 39 -31 84q-74 161 -137 340q-10 33 -37.5 90t-34.5 73 q-15 47 -37 84q6 6 9 17q134 10 245 0q15 -3 27 0q26 -67 92 -262q25 -78 31 -91q7 -18 25.5 -57.5t25.5 -60.5q14 27 36 77t32 70l8 27q29 67 106 291q84 14 265 2zM829 1376h-2q-4 4 -8 4t-7.5 -4.5t-7 -12.5t-5.5 -11v-4l-31 -82q-35 -108 -57 -154l-37 -94 q-21 -64 -68 -160l-10 -20q-24 -45 -57 -131q-4 -8 -7 -18t-5 -15.5t-4 -11.5t-4 -6t-5 1q-7 3 -16 25q-12 28 -24 60.5t-26.5 74t-21.5 60.5l-49 139l-35 82l-41 102q-34 97 -65 162q0 1 -1.5 4t-1.5 4q-3 12 -12 12l-12 -6q-2 -7 4 -20l2 -2l10 -27l19 -41q10 -24 29 -80 t32 -84q43 -105 47 -116l43 -119q29 -92 60 -166l4 -6q14 -40 49 -80q4 -110 4 -182q0 -84 -4 -244q0 -6 -2.5 -23t-1.5 -26q0 -4 1 -11.5t1 -11.5l4 -41q0 -1 -1 -4t-1 -4q0 -20 6 -25h4q7 0 12 5t2 18v41q-4 9 -0.5 51t3.5 51q1 41 1 124.5t1 127.5q0 16 2 43.5t2 40.5 q0 5 -1 15.5t-1 15.5q-3 22 0 41q0 10 10 27l8 18l57 135q24 48 119 283l33 84q13 30 49 137l2 6q2 0 2 2q0 8 2 10l10 31v4z" />
<glyph unicode="z" horiz-adv-x="913" d="M375 240q86 -8 236 -7t229 -2q19 -76 2 -180q0 -2 -1.5 -17.5t-3.5 -25t-6 -12.5t-13.5 -3.5t-24 0.5t-17.5 1q-49 5 -176 10h-104q-32 -1 -94.5 -1t-114 -1t-94.5 -4q-32 -4 -66 -4q-49 0 -57 8q-6 7 -7.5 23t0 39.5t0.5 33.5v74v27l19 37q5 13 49 110q13 27 38 75.5 t34 67.5l104 216l17 36q3 7 10 16.5t10 16.5q16 30 42.5 94t43.5 95q5 8 13 25.5t10 21.5l45 90q4 8 10 24.5t10 24.5q3 6 9.5 16t10 19.5t3.5 19.5q-53 4 -240 4q-18 0 -52 1.5t-62 1.5t-52 -3q-2 0 -17 -1t-24.5 0t-17.5 5q-1 16 -8.5 61.5t-6.5 69.5q1 13 6 44t5 49 l14 14q0 2 4 2l2 -2q67 0 194.5 -4.5t184.5 -5.5q62 -3 186.5 -1t186.5 -1q8 -14 4 -41q-6 -114 -2 -142q-12 -21 -66 -131q-10 -25 -34.5 -66t-32.5 -61q-3 -3 -4 -6.5t-1 -7.5t-1 -6l-43 -92l-41 -94q-13 -34 -43.5 -94.5t-42.5 -88.5q-11 -30 -21 -47q-2 -3 -20 -45 q-14 -23 -34.5 -68.5t-31.5 -66.5l-12 -23q-3 -3 -4 -10.5t-4 -11.5q-3 -7 -10.5 -22.5t-11.5 -24.5t-8 -23t-5 -26zM758 121h-8q-23 2 -64 2h-123q-2 -2 -22 -2q-44 3 -146.5 2t-146.5 2q-7 0 -22.5 -2t-22.5 -2q-4 31 0 41l16 26q3 3 4 7.5t4 7.5l19 51l14 33 q33 58 62 125l8 16q11 20 31 63.5t32 65.5q7 14 33.5 70t44.5 88q5 8 10 24q6 13 28 52.5t30 62.5q24 54 36 90q53 141 95 209l12 29q14 32 20 43q0 -6 3 3q1 3 2 7q3 3 7.5 10.5t8.5 11.5q3 7 8 13q8 11 12 22v31q0 21 2 23v2h-2q-10 8 -34 8h-21q-37 0 -47 2 q-32 -3 -66.5 -3.5t-82.5 0.5t-68 1q-29 4 -47 2q-8 0 -23.5 -1t-23.5 -1q-3 0 -6.5 1t-6.5 1q-9 0 -27.5 2t-27.5 2q-17 0 -56.5 -2.5t-58.5 -1.5h-2v-2q-4 -11 0 -15q6 -6 21 -6q2 -2 4 -2l4 -1q4 -1 8 -1q2 2 11 2q13 -1 34 0.5t29 1.5q39 -2 104 -2q48 0 60 -4 q65 3 127 0q73 3 137 0h35v-26q-29 -41 -57 -103l-17 -33q-35 -58 -63 -143q-40 -109 -129 -291q-30 -56 -68 -137q-84 -171 -92 -186q-18 -40 -47 -93l-35 -79q-8 -24 -31 -76q1 -4 -1 -11.5t-1 -11.5q0 -4 -1.5 -14.5t-1 -17.5t4.5 -11q6 1 17 -0.5t12 -1.5q3 0 8 2t8 2 h29h22h48q17 -1 48 0t46 0q12 0 33 2t32 2h9q3 0 6 -0.5t8.5 -1.5t11.5 -2h39q7 0 17.5 1t17.5 1h35h65q33 0 47 -2q2 2 9 -2h8q9 0 18 6v2q0 11 -2 13q-4 4 -14 4z" />
<glyph unicode="{" horiz-adv-x="565" d="M176 565q-13 24 -37 45t-41 31t-53 29q-10 43 8 118l9 2q8 2 8 -2q11 9 32.5 24t32.5 24q22 22 31 57q2 5 8 21.5t8.5 27.5t3.5 23q2 25 -16 98q-3 16 -7 49t-7 49q0 8 -2.5 19.5t-3.5 15.5l-5 33q-1 11 -5 33t-5 34q0 10 1 21.5t2.5 25t2.5 21.5q7 58 35 121 q15 43 23 57q11 18 55 62q5 5 16.5 13.5t14.5 10.5l34 23q8 4 68 18q61 12 94 10q3 -1 7 -7t8 -7q5 -21 6.5 -46.5t1.5 -41.5t-2 -47t-2 -41q-6 -6 -13.5 -9.5t-17.5 -6t-16 -5.5q-6 -6 -9 -6q-34 -15 -45 -32q-10 -13 -19 -39.5t-11 -47.5q-1 -13 4 -79v-27l12 -66 q5 -41 8 -49q6 -22 10 -92l7 -78q1 -16 -13 -80q-4 -9 -20 -57q-4 -8 -9 -15.5t-12 -16.5t-10 -13q-4 -3 -21 -18t-28 -21q7 -9 43 -45q21 -21 33 -55q31 -75 33 -133q3 -66 -7 -146q-15 -120 -16 -155q0 -70 4 -91q5 -25 19.5 -55t31.5 -47q26 -26 47 -35q5 -3 31 -10 q12 -65 0 -178q-2 -4 -4.5 -6.5t-6 -4t-7 -2t-8.5 -0.5t-8.5 0.5t-9.5 2t-9 2t-9 2t-8 2.5q-94 11 -145 47q-8 4 -19.5 16.5t-17.5 16.5q-67 67 -82 125l-12 55q-9 27 -12 57v76q0 55 2 82l10 80q1 8 6 23t6 22q4 36 4 53q1 11 4 35.5t3 34t-3 28.5q-1 5 -4 12t-4 9 q-1 1 -6 16zM129 733q-3 -5 4 -12l6 -8v-2q56 -20 97 -88l10 -19q11 -14 14 -22q3 -4 4 -8t1 -10t1 -9l6 -23q0 -6 2 -8q1 -4 4 -13.5t3 -14.5q0 -43 -17 -177q-4 -12 -8 -59q-21 -149 16 -231l19 -29q3 -3 7 -10t7 -10q6 -11 14 -20.5t13.5 -15t17.5 -15.5t17 -15 q5 -3 16.5 -12.5t19.5 -14.5l11 -8h2l14 -4l10 -6h6q7 0 11 4t4 8q0 7 -17 10q6 0 -3 3l-7 2q-12 5 -41 26l-6 6q-8 2 -14 9q-5 1 -11 8q-15 11 -34 45l-2 2l-13 18l-20 35q-34 88 -6 266l4 37l4 31q11 72 8 127q0 24 -8 37q0 6 -2 8l-4 16l-6 27l-19 29q-1 3 -4 7t-4 7 q-41 71 -94 92q9 4 33 23l6 6l12 10l16 12q40 47 60 119q13 37 14.5 86.5t-0.5 72.5t-10 89q-4 14 -8 63q-2 18 -2 60v98q3 24 16 64q24 89 86 116l9 4q8 3 14 4q3 1 9.5 3t9.5 3.5t7.5 4t7 5.5t4.5 7h3l-3 2q-4 4 -8 4q-6 0 -10 -4l-25 -6q-7 -1 -28 -8q-18 -7 -49 -39 q-25 -25 -37 -53q-28 -69 -31 -113q-3 -28 0 -57v-41q0 -43 2 -66l4 -29q21 -131 15 -208q-8 -47 -29 -95l-2 -4q-27 -60 -43 -76l-12 -8l-15 -10l-8 -8q-11 -11 -14 -12q-3 -3 -11 -3q-2 0 -2 -2q-2 -2 -6 -3.5t-6 -2.5t-2 -4z" />
<glyph unicode="|" horiz-adv-x="430" d="M129 -307q-3 3 -3 6.5t1.5 8.5t1.5 9t-2 13t-2 12q0 24 2 73t2 74q0 46 4 140q0 23 -2 69t-2 70v221q4 63 -4 96q3 13 2 47t2 52q0 6 4 10q-4 157 0 205q3 32 3.5 65.5t-0.5 79.5t-1 66q0 69 -4 213q-1 34 1.5 101.5t2.5 98.5q0 23 -2.5 67t-2 79t6.5 67q68 13 158 2 q4 -61 0 -256q0 -2 1 -12t0 -16.5t-5 -12.5q-6 -61 0 -124q3 -23 1 -68t1 -68q4 -50 4 -73q0 -8 -1.5 -34t-0.5 -40q0 -3 3 -9.5t3 -9.5q5 -3 1.5 -27.5t-3.5 -27.5q0 -9 1 -27.5t1 -27.5q0 -11 -2 -30t-2 -30q0 -9 -1 -26.5t-1 -26.5q0 -17 1 -36.5t2.5 -43.5t2.5 -37 q0 -5 -2 -15t-2 -15l4 -19q1 -11 0 -34.5t0 -36.5v-72q-1 -13 1.5 -46t-1.5 -44q7 -89 4 -225q-1 -37 -1 -112t-1 -112q0 -8 -1 -25.5t-1 -25.5l-6 -106q-60 -16 -111 -9q-46 0 -55 15zM227 -205v170q0 118 -4 330q0 31 -1 86.5t-1 77.5q0 25 2 39v59q0 38 2 61q5 54 0 203 q-4 106 -2 152q2 36 -2 98q-2 25 -2 68q0 126 4 344q0 3 1 10.5t1 11.5q3 50 -2 68q0 10 -6 10h-4q-3 -1 -5 -2.5t-3.5 -3t-2 -2.5t-1 -3t-0.5 -3v-4v-4q0 -3 1 -5.5t1 -5.5v-37q0 -19 -4 -65q-2 -18 -2 -51q-3 -80 0 -160q0 -39 1 -125t1 -131v-72q2 -27 2 -78q2 -27 2 -81 q2 -90 -2 -240q-2 -82 -2 -242q2 -31 2 -92q4 -150 2 -223v-14q0 -10 -1 -41t-0.5 -55t3.5 -46q0 -10 2 -12q0 -3 1 -5t1 -5l-2 -2q0 -2 -0.5 -9t-0.5 -11t2 -8t7 -5q2 -2 4 -2q10 0 10 26v19q-2 2 -2 12z" />
<glyph unicode="}" horiz-adv-x="561" d="M502 801q2 0 6 2.5t6 -2.5q7 -38 4 -119q-11 -10 -38 -25.5t-40 -29.5q-3 -3 -8.5 -13t-9.5 -14q-43 -62 -43 -129l8 -55q0 -4 -2 -11t-2 -10q1 -9 16 -78q3 -8 3.5 -24t3.5 -23q2 -8 7 -29t7.5 -37t1.5 -32q0 -7 -1 -19.5t-1 -19.5q0 -65 -4 -86q-8 -34 -23 -74 q-5 -8 -12 -21t-13 -22.5t-12 -17.5l-32 -41q-2 -2 -5.5 -4t-5 -4t-0.5 -6q-80 -76 -178 -84q-47 -4 -61 4q-23 95 -11 182q61 16 76 25q9 6 33 45q31 53 31 94q0 52 -8 96q-2 13 -5.5 60.5t-9.5 72.5q-1 8 -10.5 43.5t-9.5 53.5q-4 61 11 123.5t44 103.5t61 59 q-59 44 -88.5 96.5t-25.5 137.5q3 46 15.5 137t15.5 137q10 99 -17 158q-21 50 -59 80q-3 1 -6.5 0t-6.5 0q-7 5 -26 11t-27 11q-13 122 -6 176q94 27 219 -53q45 -27 76 -63q9 -13 21.5 -40t17.5 -36q3 -13 10 -34t10 -34q7 -19 11 -49q0 -11 -3.5 -34t-3.5 -36q0 -4 2 -13 t1 -15q0 -7 -1.5 -17.5t-1.5 -17.5l-10 -107q-2 -14 -6.5 -43t-7 -51t-2.5 -43q1 -42 17 -75t46 -72q6 -4 16 -12t11 -9q4 -4 17.5 -10t17.5 -14zM442 733q0 3 -2 4t-6 2.5t-6 3.5t-4 2q-5 0 -8 3q-4 2 -15 12l-8 8l-14 10l-12 8q-16 16 -43 76l-2 4q-21 48 -29 95 q-6 81 14 208l4 29q2 23 2 66v41q3 29 0 57q-3 47 -30 113q-12 28 -37 53q-32 32 -49 39q-20 7 -29 8l-25 6q-4 4 -10 4q-4 0 -8 -4l-2 -2h2q2 -5 7 -9t8 -5.5t12.5 -4.5t11.5 -4q6 -1 13.5 -4.5t8.5 -3.5q62 -27 86 -116q15 -45 17 -64v-98q0 -42 -2 -60q-4 -48 -8 -63 q0 -2 -3 -24.5t-3.5 -26.5t-2.5 -24t-2 -26t-1 -24t0 -26t1.5 -23.5t2.5 -25.5t5 -23t7 -25q20 -74 59 -119l16 -12l13 -10l6 -6q24 -19 33 -23q-55 -22 -95 -92q-5 -5 -8 -14l-18 -29l-6 -27l-4 -16q-3 -3 -3 -8q-8 -13 -8 -37q-3 -55 8 -127l5 -31l4 -37q28 -178 -6 -266 l-21 -35l-12 -18l-2 -2q-18 -33 -35 -45q-7 -7 -10 -8q-6 -6 -15 -9l-6 -6q-29 -21 -41 -26q-9 -3 -10 -5q-16 -3 -16 -10q0 -4 4 -8t10 -4h6l10 6l15 4h2l10 8q8 5 21 15t16 12q4 4 16.5 15t17.5 15.5t13 14.5t14 21q3 3 7.5 10t7.5 10l18 29q37 82 16 231q-4 47 -8 59 q-16 126 -16 177q0 4 1 8.5t2.5 10t2.5 9.5q2 2 2 8l6 23q1 3 1 9t1 10t4 8q2 6 15 22l10 19q41 68 96 88v2l6 8q7 7 4 12z" />
<glyph unicode="~" horiz-adv-x="1120" d="M997 786l31 -18q17 -11 25 -23q-3 -43 -27 -77q-3 -23 -18 -50q-6 -10 -15 -19t-22 -20.5t-21 -19.5q-23 -23 -45 -35q-102 -32 -151 -32q-2 0 -31 -1t-31 1q-6 0 -13 1t-15 2.5t-13 2.5q-7 1 -19.5 1t-19.5 1l-28 8q-12 4 -42.5 14t-53.5 16t-48 9q-6 0 -18.5 0.5 t-22.5 0.5t-18 -1q-96 -20 -125 -70q-3 -3 -5.5 -11t-6.5 -11q-32 3 -94.5 11t-86.5 11q-3 8 -3 25.5t-1 21.5q1 3 7 19l7.5 20t7 18t8 18.5t8 16.5t8.5 17.5t8.5 15t10.5 15.5t11 13t12 13l17 15q69 59 162 67q63 7 151 -8q7 -1 20.5 -5t20.5 -5q88 -20 105 -25 q130 -37 196 6q11 9 39 56l23 32q8 -1 17.5 -3.5t22.5 -6.5t21 -6q8 -4 27 -10.5t28 -10.5zM299 664h18q52 0 123 -23l31 -8l57 -19q46 -15 90 -24q32 -4 52 -4q44 3 64 5.5t58 10.5t64 23.5t43 38.5q3 3 19 22q3 3 5 9.5t5 9.5q25 25 18 34q-7 5 -17.5 -4t-17.5 -22 q-4 -3 -8 -10t-6 -9q-58 -82 -223 -86q-25 0 -49 6q-12 2 -95 29q-2 2 -4 2q-6 0 -8 2l-45 12q-24 8 -31 9q-46 15 -82 18q-28 4 -41 4q-4 0 -11.5 -1t-10.5 -1q-7 -2 -27 -8q-32 -14 -65 -47l-19 -19q-29 -41 -26 -73q0 -3 6 -9l8 7q5 6 13.5 32t21.5 35q10 14 20 21 q22 19 47 30q2 2 23 7z" />
<glyph unicode="&#xa1;" horiz-adv-x="505" d="M371 -6v-23q-3 -8 1.5 -29t-1.5 -26q-4 -6 -10.5 -7t-16 0.5t-14.5 0.5q-11 0 -13 -2h-73q-9 0 -27.5 2t-26.5 2h-22.5t-26.5 4q-2 58 -2 82t2.5 82.5t3.5 81.5q0 48 3 136.5t4 115.5q1 45 3 122.5t3 139.5t0 117q-2 23 -2 65q0 6 2.5 30.5t2 30t-2.5 31.5 q35 12 93.5 15.5t96.5 -4.5q-1 -24 6 -66.5t8 -58.5q0 -14 -1 -40t-1 -38t-1 -36t-1 -36q-1 -24 1.5 -69t2.5 -66q0 -18 2 -70.5t1 -81.5q-4 -123 2 -200q4 -49 4 -205zM135 1126q0 20 -4 56t-4 53q0 55 10 113q54 16 166 12q6 0 17 -1t15.5 -1.5t11 -2t11.5 -5.5 q11 -86 11 -152q0 -15 -11 -72q-7 -3 -41 -8q-90 -10 -172 2q0 4 -5 5zM233 537v-33q0 -7 1.5 -23t1.5 -24l4 -47v-76q-4 -1 -2 -154.5t2 -154.5v-11q-3 -35 6 -41q2 -2 4 -2h4v-2h6v2q4 44 2 66v22q0 30 -1.5 86t-1.5 101.5t3 85.5q2 2 2 28v50q-2 16 -2 51q-4 46 -4 61v64 q4 38 2.5 120.5t3.5 120.5q0 5 1 14.5t1 14.5v33q0 20 -12 20q-4 0 -6 -2q-10 -6 -6 -35v-10q0 -13 -4 -41q0 -4 -1 -11t-1 -11q-4 -25 -1.5 -99.5t1.5 -99.5q0 -28 -3 -63zM262 1227v28q0 8 0.5 17t-4.5 15t-16 1q-6 -4 -6 -35v-24q0 -31 6 -35q11 -5 16 1t4.5 15t-0.5 17z " />
<glyph unicode="&#xa2;" horiz-adv-x="1005" d="M754 213q-7 -7 -22.5 -17.5t-22.5 -17.5q-43 -38 -111 -51q4 -78 4 -121q-1 -2 -4.5 -6t-3.5 -8q-17 1 -52 -2t-50 -2l-50 8q-2 2 -3.5 6t-3 5.5t-5.5 0.5v119q-1 0 -14 1t-21 5q-3 1 -6 5t-6 5q-3 3 -10.5 4.5t-10.5 4.5q-6 3 -23.5 10.5t-27.5 13.5q-5 3 -18 7t-17 7 q-57 44 -90 101q-8 14 -17.5 42t-14.5 40l-15 43q-3 20 -4 61.5t-4 61.5q-4 43 -2 63q4 74 2 109q0 5 -2.5 14t-3.5 12q-4 64 -2 99q3 20 8 63t8 62q14 101 23 122q8 23 47 72q24 40 55 64q83 69 164 71v125q1 2 4 9t4 12q64 20 158 0v-63.5t4 -80.5q7 -3 27.5 -11t29 -11.5 t25.5 -11t27.5 -13.5t24 -15t24.5 -18l41 -36q4 -12 18 -33t19 -31q5 -11 18 -59q15 -44 16 -60v-52t4 -69q-2 -2 -4.5 -3.5t-4 -3t-3 -4t-2.5 -5.5q-29 -6 -123 -10q-6 0 -19.5 -1.5t-24.5 -1.5t-19 3q-50 7 -54 14q-4 1 -0.5 14.5t3.5 16.5q3 66 -37 127q-8 1 -22 9t-17 9 q-35 11 -74.5 4.5t-64.5 -26.5q-24 -28 -28 -76t3 -96q4 -78 4 -111q0 -16 -1 -64.5t-0.5 -85.5t3.5 -69q4 -61 12 -84q17 -39 56 -53q38 -11 72.5 -3t62.5 29q2 5 14 17q30 46 17 137q4 4 6.5 10.5t5.5 9.5q30 4 118.5 1.5t108.5 -1.5q3 -1 5 -6.5t5 -5.5q30 -121 -49 -272 q-25 -44 -45 -60q-19 -15 -22 -18zM647 252l19 16q4 5 14 19.5t14 20.5t12.5 18.5t13 21t10.5 20t10.5 22.5t7.5 22q1 2 2 7t3 11t5 12q2 12 8 31q2 2 2 25v2l-15 4h1q-7 0 -11 -19q-2 -2 -2 -10q-1 -2 -20 -57q-1 -2 -2 -7t-3 -11.5t-5 -12.5q-21 -68 -75.5 -112 t-121.5 -37l-41 4q-63 6 -113.5 54.5t-62.5 111.5q-4 20 -4 28l-6 58v14q-19 178 -2 383q0 16 2 18q1 10 4 40.5t4.5 45.5t6.5 37t11 37q5 12 12.5 22.5t22 22t20.5 15.5l27 18q4 0 8 4q34 17 50 23q13 8 55 8q32 0 82 -11q54 -12 100 -61q40 -40 49 -106l4 -19 q0 -3 2 -11.5t3 -15.5q0 -9 -3 -12q0 -22 7 -26q9 -3 14 2q5 10 4.5 26t-2.5 23q0 3 -1 10t-1 10l-8 41q-11 52 -51 92q-43 46 -84 60q-40 16 -105 16l2 2h2q5 10 2 39v14q0 84 8 125v2l-2 2h-6q-7 0 -16 -6v-2l-4 -45q-6 -43 -6 -84v-2q0 -36 4 -45q-45 0 -58 -8l-41 -18 l-14 -9q-4 -2 -20 -12t-21 -13t-17.5 -12.5t-18 -16t-12.5 -17t-11 -21.5q-3 -7 -17 -65q0 -1 -0.5 -3.5t-1.5 -8t-2 -11.5q-3 -11 -8 -74v-20q-10 -97 -6 -297q0 -7 1 -20.5t1 -20.5t1 -18.5t1 -18.5q4 -28 4 -31v-6q0 -27 4 -63q4 -27 10 -37q3 -16 13 -29 q39 -59 93 -96.5t116 -36.5q0 -13 1.5 -51t0.5 -60q0 -3 -1 -8t-1 -8q-4 -36 2 -47l2 -2h4q14 0 14 25v6q2 2 2 20q4 15 -3 57t7 54q14 19 54.5 27t46.5 10z" />
<glyph unicode="&#xa3;" horiz-adv-x="1261" d="M1122 369l13 -9q19 -98 -29 -192q-15 -28 -37.5 -53.5t-41 -41t-50.5 -40.5q-3 -2 -15 -10.5t-17 -11.5t-15.5 -8.5t-20.5 -9t-22 -5.5q-24 -8 -70 -8q-15 0 -29.5 3t-32 8t-28.5 7q-3 1 -8 1t-8 1q-3 0 -7.5 2t-7.5 2q-49 12 -71 25q-12 6 -47.5 25.5t-57.5 27.5l-28 12 q-55 31 -95 31q-3 0 -8.5 -1.5t-9.5 -1.5t-8 3q-40 -13 -63 -42.5t-19 -74.5q-23 -18 -105 -18q-20 1 -57 5t-53 5q-20 16 -6 90q15 64 16 66q8 27 27.5 62.5t25.5 49.5q7 6 22 22.5t25 24.5q25 22 62 31q11 141 0 313q-69 4 -115 -4q-13 64 0 166q-6 6 -6 21q16 3 56.5 1 t64.5 1q-5 91 -3 204t25 193q21 47 35 68q4 7 15 16t16 16q4 5 10 15.5t10 15.5q43 43 68 58q99 41 221 32q9 0 37 -4q17 -10 31 -10q4 -1 12 0t12 0q5 0 11 -4.5t8 -5.5q3 -3 10 -4t10 -4q45 -30 103 -80q53 -56 90 -144q28 -116 22 -194q-2 -1 -5.5 -3.5t-5.5 -2.5t-7 2 q3 -10 0 -13q-51 -12 -115 -10t-119 16q-4 16 -3 55t-3 60q-3 11 -10 30.5t-10 31.5q-32 23 -41 28q-63 19 -123 -12q-42 -18 -45 -64q-1 -13 0.5 -38t1.5 -35v-86q0 -8 2.5 -39.5t2 -39t-2.5 -38.5q90 0 139 -2q6 0 17 1.5t19.5 1.5t14.5 -3q3 0 3 -1.5t3 -2.5l8 -1 q7 -1 11 -5q15 -89 -6 -172q-12 -9 -23 2q-23 -3 -84.5 -3.5t-91.5 -4.5q1 -42 -3 -144.5t-1 -167.5q27 -4 49.5 -15t52 -31t41.5 -27q3 -1 15.5 -8t16.5 -9l16 -8t17.5 -8t17 -6t19 -5t18 -2.5t20.5 -1.5t20 2q23 3 39 21t23 36.5t15.5 48.5t14.5 44q4 2 47 8h47 q3 0 6.5 -2t6.5 -2q12 -3 49 -6.5t59 -11.5zM397 238q29 0 31 -2q22 0 25 -3q54 -11 116 -47l23 -10q48 -37 99 -59t112 -20t106 42l23 15q72 55 102 127q9 28 2 38q-5 5 -8 5q-6 0 -8 -2q-6 -3 -6 -19q-2 -2 -2 -8q-17 -55 -70 -102q-2 -2 -22 -17q-128 -128 -332 31 l-27 14q-69 32 -117 39q-4 0 -13 1t-13 1h-37q0 21 -2 23q0 28 2 30q0 9 2 11q0 3 1 5t1 5q1 8 1 17.5t-0.5 22.5t-0.5 21q0 7 -1 19t-1 16v76q0 182 4 235h107q2 2 32 2l74 5q3 0 10.5 1t10.5 1q28 4 30 4q9 0 11 -2h8q2 -2 14 -2q8 0 10 2h2q3 9 0 12q-3 4 -22 10h-2 q-14 2 -45 2l-39 -4q-63 -8 -150 -8q-12 0 -29 1t-24 1q6 90 -6 213q-18 150 8 225q6 17 33 51h2q4 5 12.5 16t15.5 18.5t13 11.5q17 14 51.5 27.5t63.5 17.5h16q29 0 78 -17l18 -8q96 -52 139 -129q8 -13 11 -29q10 -32 22 -96l2 -2h2q1 0 8 2q2 2 7 2h2v2q-3 52 -21 109 l-8 22q-45 99 -164 150l-22 8q-52 10 -70 10q-15 0 -43 -4l-41 -16l-18 -6q-20 -8 -34.5 -18t-22.5 -18t-25 -28l-6 -8q-12 -12 -21 -27q-36 -61 -39 -139q-3 -70 8 -156q12 -123 4 -184q-10 1 -21 1t-26 -0.5t-24 -0.5l-80 -4q-1 0 -3 1t-3 1h-8q-9 0 -13 -4q-3 -8 0 -14 q7 -7 23 -7h12q31 0 35 2h110q-4 -45 -4 -217q4 -162 -4 -266h-10q-54 0 -89.5 -21.5t-61.5 -70.5q-13 -22 -21 -47v-2q-12 -37 -4 -56v-2h2q14 6 18 33v8l13 45q2 3 7.5 11.5t8.5 11.5q20 35 37 43q34 23 115 23q10 2 28 2z" />
<glyph unicode="&#xa4;" horiz-adv-x="1249" d="M1151 262q11 -10 15 -14t11.5 -14t5 -17.5t-13.5 -13.5q-8 -20 -25 -37.5t-30 -26.5t-39 -24q-2 0 -6 2.5t-8 1.5q-31 34 -100 96q-3 3 -8 8.5t-9 9.5t-8 7l-27 22q-17 17 -45 53q-16 -10 -78 -28q-92 -27 -211 -17t-190 58q-22 -19 -55 -57t-45 -50q-17 -19 -51.5 -51 t-47.5 -45q-30 2 -61 33q-26 20 -43 51q-3 4 -4.5 8t-3.5 10t-4 11q21 28 48 58t47 50t54.5 53.5t52.5 51.5l-18 32q-36 209 -8 336q6 59 26 92q-13 18 -53 54q-16 13 -32 28t-33.5 33.5t-28 30t-31.5 35.5l-28 32q2 8 -3 13q7 12 15 23t19 21t18.5 16t22 17t20.5 15 q2 0 6 2.5t6 -2.5l8 10q36 -31 101.5 -96t101.5 -96q41 36 143 51q89 10 152 8q76 -6 196 -53q22 17 52 51q9 8 49 53l49 41l47 45q55 -25 92 -78q19 -31 17 -37q0 -4 -2.5 -7t-7.5 -6t-7 -5l-16 -20q-27 -27 -33 -37q-18 -20 -65.5 -64t-69.5 -71q44 -109 35 -267 q-12 -149 -39 -211q18 -18 54.5 -55t67 -68t56.5 -55zM983 1034l29 29l26 24q3 3 9 9.5t11 11t9 8.5q21 18 18 27q0 5 -8 8h-2q-4 0 -22 -18l-6 -9l-19 -16l-18 -18q-89 -95 -162 -154q-1 4 -17 20q-3 3 -9 3.5t-9 3.5q-133 97 -254 55l-31 -10q-58 -26 -129 -97 q-34 32 -92 105l-16 20q-14 18 -45 49l-41 45l-6 9q-1 2 -4.5 6t-5 6t-4.5 5t-5.5 4t-5.5 1q-4 0 -8 -4t-4 -10t18 -27q3 -1 4.5 -2.5t2 -3t1.5 -2.5l15 -16l14 -17l23 -24q18 -18 32 -39q68 -85 113 -125q-53 -83 -47 -184q8 -122 59 -226q-25 -22 -47 -47l-20 -20 q-7 -10 -17 -17l-10 -14l-16 -18q-1 -1 -31 -25l-25 -23l-24 -22q-8 -11 -29 -27l-8 -6q-15 -15 -16 -20q6 -9 14 -9q12 0 33 21q0 4 4 4l16 16q10 7 17 17l36 31l33 28l29 33l20 25l29 28l23 25q19 -31 34 -39q39 -27 88 -41q0 -2 2 -2l4 -1q4 -1 7 -1q78 -20 92 -21 q9 0 37 4l12 5q3 0 8 1t8 1q34 5 39 8q38 15 82 59l13 10l28 -30l25 -25l24 -29l29 -30q26 -29 86 -82q0 -1 1 -1.5t2.5 -2t2.5 -4.5q21 -21 27 -21q9 0 12 14q0 5 -18 23q-2 0 -9 8q-12 10 -26 27l-60 57q-6 6 -26 31q-16 20 -27 31l-14 14l-41 41q28 46 33 72 q26 95 18 206q0 33 -10 91l-6 28q-2 7 -8.5 19.5t-10 20.5t-0.5 11q19 24 60 64t57 57zM373 641q-17 67 -7.5 132t44.5 112q43 56 92 88q8 4 49 22q18 7 47 11q51 3 105 -12t99 -51t58 -85l8 -29q9 -59 9 -122l2 -11q0 -37 -7 -98q-12 -60 -22 -90q-18 -34 -52 -67.5 t-65 -45.5q-49 -18 -94 -18q-32 0 -94 20q4 0 -1 2l-9 2q-80 29 -103 62l-12 26q0 7 -4 11l-8 18q-6 8 -11 23l-16 67q-2 3 -8 33zM737 580q16 70 11 125q-9 74 -25 104q-12 24 -28 33t-50 14q-50 6 -113 -22q-26 -34 -34 -56q-6 -14 -7.5 -36t-0.5 -38.5t3.5 -41t2.5 -31.5 q5 -75 20 -92q20 -29 98 -33q28 0 74 20q4 3 15 6.5t14 6.5q4 3 20 41z" />
<glyph unicode="&#xa5;" horiz-adv-x="1032" d="M932 494q14 -10 13.5 -44.5t2.5 -54.5q-4 -18 -8 -51.5t-6 -46.5q-36 4 -197 -2q-8 0 -28 1t-34.5 0.5t-29.5 -3.5q-1 -25 0.5 -137.5t-2.5 -143.5q-5 -5 -8 -14q-39 -12 -88 -11.5t-76.5 5t-85.5 16.5q9 68 6 148q-13 102 -8 135q-30 1 -87.5 3t-105 3t-90.5 0 q-3 1 -5 4.5t-5 3.5q-21 72 -10 135l4 33q2 2 6 6.5t6.5 8.5t3.5 8q64 4 277 4q0 11 -1 35.5t-0.5 42.5t3.5 36q-40 -1 -122 3t-118 4h-33q-3 1 -6 6t-6 6q-9 18 -10 43.5t2 52.5q1 14 0.5 25t0 22.5t3.5 18.5q11 11 6 20q45 5 209 0q-92 217 -248 608l17 17q78 12 129 12 q26 0 69.5 -7.5t59.5 -8.5q4 -4 4 -13q2 -2 8 -2q2 0 4 -2q22 -57 74.5 -209.5t87.5 -234.5q35 98 43 115q8 20 21.5 57.5t21.5 56.5q10 23 30 70.5t35 84.5t27 73q65 23 133 23t133 -19q-2 -19 -22 -66q-32 -60 -70 -151q-7 -27 -59.5 -176.5t-81.5 -217.5q34 -4 106 -5.5 t107 -4.5q12 -69 10 -100q0 -8 -4 -47.5t0 -49.5q-49 -5 -147.5 -3.5t-151.5 -0.5q-5 -4 -1.5 -50t3.5 -62q205 -14 289 -8zM780 1214l6 17q8 26 27 69l10 17q25 58 27 65v2q-7 7 -14 7t-9 -2q-5 -7 -22 -48l-17 -34q-18 -35 -34 -84q-36 -91 -115 -234l-2 -4 q-62 -107 -90 -147l-19 -31l-24 -37q-5 14 -23 45l-18 41l-23 53l-10 21l-14 32q-13 31 -19 50l-26 65l-13 35l-16 41l-16 31l-19 41l-10 26l-18 52l-7 18l-6 18l-2 2q-2 3 -5 12t-7 14t-10 5q-7 0 -11 -4q-6 -8 7 -29q0 -1 1 -3t1 -3l14 -39q1 -3 18 -47q15 -45 43 -102 q31 -68 47 -117q8 -23 25 -60t19 -42l32 -72q0 -1 1 -4t1 -4q3 -6 11 -23.5t12 -25.5l6 -13q16 -28 18 -43l-163 -6h-21q-39 0 -57 2h-64q-10 0 -12 2h-8q-7 -2 -21 -4h-2v-2q-3 -11 2 -16q4 -4 19 -4h39q2 -2 18 -2h92q137 0 180 2v-103l5 -186q-41 -2 -121 -2 q-18 -2 -60 -2h-18q-51 0 -78 2h-92v-2q0 -12 2 -14q9 -9 27 -9h4q62 -4 96 -4q67 0 100 2q18 0 52 1t51 1h39q-3 -89 6 -200q0 -31 4 -93v-10v-5v-4.5v-4.5t0.5 -4.5t1 -4t1.5 -3.5t2 -2.5t3 -2t4 -0.5q3 0 8 5h2v2q2 31 -2 100q-2 23 -2 66q-2 14 -2 47q0 17 -1 56t-1 60 h31q67 0 100 2h99q61 0 88 -2q6 0 8 -2q3 0 8 -1t8 -1q17 0 17 17v2q-8 8 -33 8h-8q-21 4 -111 4h-90q-27 -2 -78 -2h-39q-8 150 -4 289q31 -2 94 -2h72q9 0 28.5 -1t28.5 -1q15 0 44 -1t44 -1h47q17 0 17 12q0 6 -2 8q-4 4 -23 4h-22q-5 0 -16.5 -1t-16.5 -1t-15 1t-12 1 q-86 4 -127 4h-32q-12 -1 -74 4h-21q-12 0 -16 4q-2 2 0 2l61 91q73 112 127 217l21 39q31 53 57 122z" />
<glyph unicode="&#xa6;" horiz-adv-x="428" d="M272 494q11 -3 17.5 -13.5t7.5 -27t1 -31t-1.5 -34t-1.5 -28.5l3 -45t3 -54.5t0 -47.5q0 -23 -1 -70.5t-1 -72.5q-1 -28 0 -87t-0.5 -104t-7.5 -84q-3 -22 1 -61t1 -56q-71 -6 -154 0q-4 9 -4 46q-4 94 -4 151q0 35 -4 105q-1 40 1.5 111.5t2.5 96.5q0 29 -2.5 92.5 t-1.5 111.5t8 91q24 3 68.5 5.5t68.5 5.5zM137 834q-4 3 -5 9t-5 7q-8 197 2 432q1 36 -2.5 124t0.5 124q0 8 1 32t0.5 42t-3.5 34q36 7 98 7q42 4 62 -11q-7 -21 -1.5 -135.5t5.5 -128.5q-1 -26 -3 -81.5t-3 -101t0 -85.5q1 -28 -0.5 -130.5t2.5 -133.5q-18 -8 -73 -5 t-75 1zM205 6q0 -8 -3.5 -71.5t1.5 -77.5q0 -5 4 -33t4 -39q0 -3 -1 -8t-1 -8q-4 -37 4 -45q5 -5 6 -5h2q12 2 12 25q0 26 -4 92l-4 58v61q0 9 2 27.5t2 27.5q-8 95 -4 230q0 5 -0.5 15.5t-0.5 21t1 20.5q4 50 4 74v4q0 38 -8 41q-8 0 -10 -2q-2 0 -4 -2h-2v-2 q0 -35 -4 -113q-1 -8 0 -25t0 -26q-2 -49 2 -129q2 -39 2 -111zM201 1061q0 -5 1 -14t1 -13q0 -34 2 -57q0 -3 -1 -12.5t-1 -14.5q-3 -59 4 -61q2 -2 6 -2q9 0 12 20q3 51 0 88q0 17 -1 47t-1 45q-1 18 -1 49.5t-1 57.5t-4 51q-5 72 0 279v12q3 25 -2 33h-4l2 2q-6 0 -10 -4 q-6 -9 -6 -35v-6q0 -13 -1 -36t-1 -34l-5 -49q-3 -106 7 -242q4 -78 4 -104z" />
<glyph unicode="&#xa7;" horiz-adv-x="886" d="M735 -74q-24 -71 -97 -123t-151 -57q-77 -3 -149 14q-44 11 -59 19q-14 7 -29 22q-3 3 -10 7.5t-11.5 8t-7.5 7.5q-4 4 -15 20t-24 19q-35 57 -41 92q-3 17 -5 54t-5 54q2 8 21 13l24 8h29q5 1 26 4.5t31 3.5q26 0 72 -12q3 -11 3 -32t3 -30q5 -20 41 -61q71 -29 121 -6 q29 13 41.5 51.5t1.5 81.5q-2 11 -5.5 20.5t-10.5 20t-10 14t-14 16.5t-13 15q-8 9 -25 23t-23 20q-6 -3 -13 1.5t-16.5 13.5t-13.5 12l-67 53q-31 25 -33 26q-3 2 -13.5 6.5t-13.5 8.5q-4 3 -10.5 11t-9.5 11q-62 52 -94 121q-2 6 -10.5 28.5t-12.5 35.5q-4 12 -4 59 q0 35 2 53q0 33 6 60q4 14 9 26t13.5 29.5t12.5 26.5q3 3 17.5 18.5t19.5 21t17 16.5t22 18t22 14q-41 32 -57 55q-26 32 -43 68q-30 58 -35 77q-29 105 8 220q12 21 37.5 55t36.5 51q5 3 22.5 18t30.5 21q60 34 154 37q34 4 79.5 -4.5t78.5 -22.5q7 -3 20 -13.5t21 -14.5 q27 -9 61 -48q33 -40 51.5 -102.5t12.5 -128.5q-39 -20 -140 -8q-8 0 -19 0.5t-16 0.5t-11.5 1t-9.5 3.5t-6 6.5t-5 10q-3 7 -4.5 27.5t-5.5 30.5l-17 28q-2 1 -15.5 8t-16 8.5t-16.5 7.5t-17.5 5.5t-18.5 2.5t-20 -1q-35 -7 -60 -30.5t-24 -59.5q5 -49 16 -66l21 -24 q51 -55 69 -72q22 -22 49 -43q38 -23 56 -39q14 -3 31 -18.5t22 -18.5q13 -24 42 -47.5t54 -48.5t35 -55q1 -2 6 -43q1 -5 5 -28t5.5 -33.5t3.5 -29.5t1.5 -35t-3.5 -32q-25 -134 -129 -221l21.5 -21.5t24 -25t18.5 -23.5q11 -12 21.5 -29t16 -28.5t17 -37t15.5 -34.5 q26 -69 2 -157q-3 -8 -7.5 -28t-7.5 -28zM485 -174q131 32 160 117l8 20l6 23q22 85 3 145q-10 37 -37 82l-7 12q-37 60 -38 62q-24 29 -84 78l-19 14l-16 16q2 -2 16 -2q4 0 12.5 1t12.5 1q32 7 65 33q31 31 47 54.5t27 60.5q14 43 16 63q4 86 -30 135q-8 14 -35 41l-8 9 q-12 12 -54 43q-3 3 -10 7.5t-10 6.5q-23 18 -29 22q-17 17 -45 37q-49 29 -76 56l-18 16l-16 14q-30 27 -52 80q-32 82 -18 162q1 4 6 20.5t10 24.5q26 60 88 89.5t125 12.5q40 -13 41 -14q34 -17 60 -43q38 -44 47 -78q2 -2 2 -12q0 -11 6 -14q9 0 12 6q8 8 -2 37l-2 2 q-15 51 -74 96l-40 27q-7 3 -20.5 7t-20.5 7q-70 18 -141.5 -15.5t-100.5 -101.5q-14 -23 -21 -51q-16 -71 21 -170l6 -12q12 -31 16 -37q11 -17 58 -64l8 -6q8 -8 43 -33l33 -22q-75 -18 -109 -64l-20 -20q-28 -40 -46 -95t-12 -110l1 -4q1 -4 1 -8q20 -70 62 -101l22 -18 q64 -42 103 -74q46 -32 59 -45l29 -24q30 -30 55 -62q26 -30 43 -67q29 -52 35 -78q9 -41 6 -82l-6 -41l-6 -27q-1 -6 -4 -14.5t-4 -11.5q-23 -44 -66.5 -71t-93.5 -32h-29q-78 3 -125 56l-12 18l-8 16q-7 12 -21 45q0 13 -2 15q0 24 -10 31q-7 0 -12 -5q-6 -10 6 -57 q4 -17 29 -61q3 -11 12 -19q18 -22 50 -34.5t49.5 -15t62.5 -7.5q28 0 30 2zM371 854l10 4l37 14h2q5 0 10 5q0 2 2 2q46 -37 57 -43q49 -33 78 -64l4 -6q16 -17 23 -26t16.5 -26.5t14.5 -37.5q11 -41 8 -66q-13 -74 -37 -116q-16 -26 -64 -68q-21 -12 -47 -12q-18 0 -36 6 q-19 4 -37.5 13.5t-42.5 26t-35 23.5l-23 15q-18 16 -32 39q-25 41 -25 84q-3 110 59 184q23 33 58 49zM516 535q16 11 24 56.5t-3 70.5q-5 12 -24 27.5t-38 21.5q-23 3 -39 0q-3 0 -11.5 -0.5t-11.5 -1t-9.5 -1.5t-9.5 -2.5t-7.5 -4t-7.5 -5.5q-2 0 -17 -16q-1 -1 -6.5 -7 t-6.5 -7.5t-4.5 -6.5t-4.5 -8t-2.5 -8.5t-1.5 -11.5q-1 -24 6.5 -43t14.5 -27.5t24 -25.5q39 -39 90 -21q40 17 45 21z" />
<glyph unicode="&#xa8;" horiz-adv-x="585" d="M578 1593q-85 -7 -218 4q-20 81 -8 220q2 2 5 3.5t4 2.5t1 4q120 11 181 6q22 0 39 -10q2 -18 3.5 -39t1.5 -35t-1 -41t-1.5 -35.5t-3.5 -41.5t-3 -38zM27 1595q-3 3 -9.5 4.5t-9.5 4.5q-11 93 4 213q12 6 27.5 9t27 3.5t32.5 1t30 0.5q55 4 96 -4q6 -15 8 -37.5t2 -34.5 t-2 -43t-2 -33q-1 -6 -1 -30t-3 -37q4 -11 0 -17q-6 -8 -41 -8q-102 -4 -159 8zM111 1724v-28q0 -8 -0.5 -17t4.5 -15t16 -1q6 4 6 35v24q0 30 -6 35q-11 5 -16 -1t-4.5 -15t0.5 -17zM453 1724v-28q0 -8 -0.5 -17t4.5 -15t16 -1q6 4 6 35v24q0 30 -6 35q-11 5 -16 -1 t-4.5 -15t0.5 -17z" />
<glyph unicode="&#xa9;" horiz-adv-x="1105" d="M1044 1030v-55q0 -102 -16 -160q-6 -28 -17 -54t-31 -63t-26 -49q-34 -39 -75 -67q-49 -45 -78 -60l-27 -10q-14 -11 -22 -14q-11 -5 -74 -25q-74 -24 -129 -24q-13 0 -41 4q-63 12 -76 16q-22 4 -35 10q-36 12 -59 27q-28 16 -53 35q-32 20 -49 37l-43 47 q-37 42 -72 102l-15 29q-13 22 -21 56t-10.5 53.5t-6.5 66.5q0 4 -1.5 27.5t-0.5 41.5q9 101 59 183q8 9 17 28.5t12 24.5q8 11 19 22.5t17 18t21.5 20t19.5 17.5q47 42 134 90l69 22q53 17 72 17h69q30 2 93 -10q30 -6 90 -33q7 -3 18.5 -11.5t18.5 -11.5q7 -4 20.5 -9.5 t18.5 -8.5q17 -16 24 -21q26 -18 49 -51q3 -4 13.5 -13.5t13.5 -14.5q3 -3 4 -6.5t4 -6.5l29 -33q64 -77 73 -184zM995 934q0 33 2 49l-4 27q-7 54 -39 131l-14 28q-19 42 -53 82l-19 21l-20 20q-9 9 -20.5 17.5t-20 15t-23.5 13t-22.5 10.5t-26 9.5t-24 7.5t-27 7t-24.5 6 t-27 6t-25 5l-26 4q-131 10 -220 -41q-11 -4 -18 -11q-45 -25 -53 -32l-15 -11l-20 -16l-12 -16q-64 -68 -80 -103v-2q-33 -58 -51 -174q-2 -2 -2 -31q-3 -12 0 -24q9 -107 57 -205l14 -18q1 -2 17 -25l16 -22q6 -7 18.5 -22.5t20 -23.5t19.5 -19t24 -19l25 -17l49 -24 l55 -17q9 -3 55 -8q28 -4 31 -4q114 -11 188 18q20 6 27 11q57 21 123 71l24 23l23 24q9 9 17.5 21t14 20.5t12.5 24t9.5 22t9.5 25.5t9 23l8 20q1 6 5 15l3 8l6 24q6 54 4 76zM969 850l-6 -27q-6 -13 -21 -50t-24 -55t-28 -43t-42 -40l-19 -14l-12 -11q-42 -35 -110 -59 l-31 -10q-62 -19 -119 -19q-23 0 -25 2q-17 0 -49 4q-109 14 -172 64q-23 14 -43 39q-26 30 -37 45l-16 20q-87 114 -84 252v35q12 168 143 283l15 14l18 14l15 11q17 13 22 14q99 60 213 57q7 0 18 -1t15 -1q4 -1 35.5 -8t39 -9t34 -9.5t36.5 -12.5t31.5 -14.5t34 -18.5 t28 -22.5t27.5 -28.5q11 -11 31 -39l24 -38l15 -29q37 -67 47 -152l4 -30q3 -70 -8 -113zM940 997q-2 21 -20 74q-11 28 -36.5 73t-27.5 48q-6 3 -10.5 7.5t-8.5 11t-8 10.5l-34 26q-7 4 -18.5 13.5t-18.5 13.5q-18 10 -55 25.5t-41 17.5q-64 25 -179 8 q-94 -31 -151.5 -70.5t-110.5 -124.5q-1 -13 -10.5 -31.5t-11.5 -27.5q-5 -19 -11 -55.5t-10 -50.5q2 -14 6.5 -65.5t12.5 -74.5q9 -23 23.5 -47t26 -39t33 -41.5t31.5 -38.5q19 -6 27 -26q7 -3 17.5 -11.5t17.5 -11.5q41 -21 98 -35l39 -8q5 0 12.5 3t9.5 3q13 2 52.5 6 t58.5 9q17 0 19 2q149 35 219 166q4 9 17.5 34.5t19.5 40.5q4 9 18 82q3 8 4 17t1 20t1 17q-3 3 -3.5 7.5t0.5 12t1 10.5zM694 1186q27 -21 46.5 -66.5t15.5 -85.5q-6 0 -24 -0.5t-29 -0.5t-25.5 1.5t-24 6t-14.5 12.5q0 5 -0.5 13.5t-1 13.5t-1.5 11t-4.5 10t-8.5 7 q-4 3 -12 3.5t-15.5 0t-15.5 0.5q-64 0 -76 -4q-12 -2 -20 -11t-11.5 -26t-5 -30.5t0 -38.5t2 -36t4 -36.5t3.5 -26.5l6 -41q0 -2 1 -15.5t2 -20t4.5 -15.5t9.5 -12q13 -8 80 -8q28 0 36 2q17 17 21 43q1 1 1 11.5t3 14.5q1 1 21 6q29 6 63 0q4 -2 12 -4.5t12 -4.5t7 -7 q0 -103 -64 -143q-7 -5 -13 -7t-18.5 -4t-19.5 -4q-19 -8 -66 -8q-69 -10 -120 10q-6 2 -17 13q-14 2 -20 8q-3 1 -5.5 5t-4.5 7q-3 3 -8.5 6t-8.5 6q-16 28 -22 103q-3 17 -4.5 51t-4.5 51q-2 0 -1 26l1 27q-3 32 -2.5 64t9.5 55q1 2 7.5 11.5t10.5 17.5l12 20q13 21 45 39 l15 8q11 4 28 6t39 2t29 1q30 2 68.5 -5.5t56.5 -19.5q6 -2 16 -12zM653 1128l9 -6q19 -19 22 -24q2 -2 2 -4q3 -13 10 -13h4v2q3 27 -26 56l-29 20q-38 23 -104 23q-4 0 -13.5 -1t-13.5 -1q-6 -2 -20 -4q-22 -6 -38 -20.5t-25 -28t-15 -40t-7.5 -39t-3 -45t-2.5 -38.5v-19 q0 -30 3 -57q2 -7 4 -21q0 -8 4 -28q-10 -51 24 -83.5t86 -37.5h27q94 -4 121 47l8 14l8 8q18 23 10 31q-1 0 -2 1t-2 1q-3 0 -5 -2.5t-5 -3.5l-6 -8q0 -2 -2 -4q-6 -7 -10 -17q-11 -11 -21 -28q-30 -21 -80 -21q-18 0 -28 2q-47 -6 -79 27t-26 80q0 3 -0.5 6t-1.5 8.5 t-2 11.5l-4 31v76q1 11 2 37.5t3 43t7.5 37.5t18 35.5t32.5 22.5q15 6 29 6q2 2 27 2q69 0 110 -35z" />
<glyph unicode="&#xaa;" horiz-adv-x="778" d="M709 705q3 -3 5 -6q2 -4 5 -5q-2 -5 -7 -22t-7.5 -24.5t-8 -22.5t-10.5 -23t-12 -18.5t-15 -16.5t-18 -10q-71 18 -113 41q-70 -52 -186 -55q-17 -1 -34.5 1t-25.5 4t-30 8t-27 7q-10 8 -32.5 20.5t-32.5 22.5q-3 9 -6 12l-15 11q-2 2 -6 9.5t-10 10.5q-5 13 -16 34 t-13 26q-1 4 -5 9t-5 9q-2 4 -4 10q-12 33 -14 81.5t8 96.5q27 79 61 115q53 49 132.5 70t166.5 10q-3 23 -1.5 43t-1.5 42t-13 36q-20 32 -53 35q-32 2 -80 -27q-1 -4 -6.5 -12.5t-6.5 -16.5t0 -14.5t-0.5 -13.5t-5.5 -11q-16 0 -55.5 -3.5t-63.5 -2.5q-5 0 -17 0.5 t-16.5 1.5t-11.5 3.5t-12 7.5q0 5 -1.5 25.5t-0.5 33.5q3 105 119 166q40 26 94 36.5t107 -1.5q11 5 41 -8q53 -17 94 -41q4 -6 18 -27.5t21.5 -38t11.5 -35.5q1 -8 8.5 -47.5t11.5 -64.5q4 -21 5 -48t0.5 -43.5t-2 -53.5t-1.5 -46q-1 -23 0.5 -64.5t1.5 -54.5 q0 -8 0.5 -28.5t1 -31.5t3 -26.5t8 -27.5t14.5 -21q15 -15 64 -26zM612 664l-8 4q-9 6 -22 22l-19 27q-9 13 -14.5 28t-8 33t-3.5 28.5t-1.5 33.5t-0.5 30v25l4 25q0 7 1 17t1 17v43q-4 27 -2 41v2q0 67 -4 88q0 16 -3 19q-1 8 -2.5 26t-2.5 25.5t-3.5 22t-5 23.5t-6.5 20 t-10 20q-55 94 -160 88q-58 -5 -105.5 -30t-58.5 -70q-2 -2 -2 -10q0 -9 -2 -11v-4q-3 -13 4 -16h4q9 0 13 31q0 3 1 6t1 6q5 12 18.5 28t26.5 23q47 24 92 27q112 9 158 -103q12 -27 16 -100l4 -33q11 -48 4 -82q-21 8 -67 8h-15q-15 3 -59 -4q-4 0 -11.5 -1t-11.5 -1 q-67 -12 -88 -20q-40 -16 -71 -64l-15 -24l-10 -21q-28 -58 -20.5 -116t42.5 -113q2 -6 17 -21q45 -42 104 -34q23 0 37 2q43 5 111.5 43.5t77.5 42.5q1 1 3 -3t6 -9.5t7 -8.5l6 -6q1 -1 1.5 -2.5t2 -3t4.5 -2.5l19 -23q2 -1 7.5 -4t12 -5.5t12.5 -2.5q8 0 11 6q1 4 -1 6.5 t-8 6t-8 4.5zM518 760l6 -25q-41 -30 -65.5 -46t-63.5 -31.5t-76 -16.5q-22 0 -24 2q-34 3 -62 25l-20 18q-34 47 -42.5 104.5t15.5 110.5l13 21q12 28 37 53q14 14 41 24t42.5 12.5t57.5 8.5q16 0 18 2h43q4 0 11 -1t10 -1q39 0 55 -8q10 -31 0 -82l-4 -31v-29 q-2 -43 8 -110zM360 727q18 -1 32.5 4.5t21 11t22.5 21.5q0 24 -2.5 85t-3.5 77q-10 0 -31 1.5t-37 1t-30 -4.5q-13 -3 -29 -12.5t-24 -12.5q-24 -24 -27 -49q-1 -18 -1.5 -22t4.5 -18.5t7 -21.5q3 -7 5 -19t5 -17q4 -9 11 -14.5t15 -7.5t18 -2.5t21 0t23 -0.5z" />
</font>
</defs>
</svg>
