<?xml version="1.0" standalone="no"?>
<!DOCTYPE svg PUBLIC "-//W3C//DTD SVG 1.1//EN" "http://www.w3.org/Graphics/SVG/1.1/DTD/svg11.dtd" >
<svg xmlns="http://www.w3.org/2000/svg" xmlns:xlink="http://www.w3.org/1999/xlink" version="1.1">
<metadata></metadata>
<defs>
<font id="festivo_letters_no.16regular" horiz-adv-x="948" >
<font-face units-per-em="2048" ascent="1536" descent="-512" />
<missing-glyph horiz-adv-x="716" />
<glyph horiz-adv-x="0" />
<glyph horiz-adv-x="682" />
<glyph unicode=" "  horiz-adv-x="716" />
<glyph unicode="&#x09;" horiz-adv-x="716" />
<glyph unicode="&#xa0;" horiz-adv-x="716" />
<glyph unicode="!" horiz-adv-x="493" d="M229 821v33q0 7 1 23t1 24l5 47v76q0 18 -1.5 52t-1.5 50q0 36 1.5 103.5t1.5 103.5v10q0 4 -1.5 10t-1.5 9q0 24 13 24l4 3l6 -3q2 -16 2 -47v-18v-23q0 -29 -1 -89.5t-1 -92.5q0 -20 2 -58.5t2 -60.5v-49q-6 -55 -6 -112v-64q2 -23 2 -70v-92q0 -20 3 -54t3 -54v-33 q0 -20 -12 -20q-14 0 -14 20q0 12 2 16v11q0 19 -4.5 58t-4.5 60q0 20 1 60t1 61q1 18 -0.5 46.5t-1.5 39.5zM258 131v-29v-12q0 -22 -12 -22q-4 0 -6.5 1t-4 3.5t-2.5 4.5t-1.5 6t-0.5 6.5v7.5v7v25v5.5v6v6t0.5 6t1.5 5.5t3 4.5t4.5 2.5t5.5 1q12 0 12 -23v-12z" />
<glyph unicode="&#x22;" horiz-adv-x="600" d="M168 1008h-18v2q-5 10 -5 22v17v10v49q0 38 5.5 119t5.5 119q0 24 -2 30l4 2q3 6 12 6q6 0 8 -2v-2v-34v-70v-55q0 -61 -4 -82zM432 1382v2l19 -2l6 -129q4 -21 4 -82v-55v-69v-35v-2q-2 -2 -8 -2q-10 0 -13 6l-4 2q2 6 2 31q0 38 -5 118.5t-5 118.5v49v10v17q0 14 4 22z " />
<glyph unicode="#" horiz-adv-x="1157" d="M479 1405l2 -2q13 0 13 -21q0 -8 -3.5 -23t-3.5 -20l-6 -28l-4 -21l-6 -39q-5 -33 -17.5 -103.5t-20 -122t-11.5 -103.5q67 -3 183 -2t181 -2q5 64 22 186t17 168q0 76 21 131v2l2 -2q14 -6 14 -19q0 -15 -8 -43.5t-8 -46.5v-24q-3 -58 -18.5 -176t-18.5 -176h16 q16 0 58.5 3t60.5 3h12q11 0 27 -4l2 -15h2l-2 -2q-12 -4 -20 -4h-17q-21 0 -69 -3t-72 -3q-3 -39 -10 -59l-6 -35q-6 -18 -8.5 -49.5t-4.5 -42.5l-8 -58q-14 -72 -14 -94q32 -4 55 -4h39q14 2 41 2q9 0 25 -1t24 -1l2 -2q0 -1 1 -3t1 -3q0 -15 -41 -15h-6q-14 -2 -39 -2 q-39 0 -57 2h-47q-7 -38 -17 -122t-16 -123l-8 -47q-10 -40 -13 -66l-14 -90q0 -2 -1 -5.5t-1.5 -5.5t-1.5 -4.5t-3 -4t-5 -1.5l-8 4q-4 4 -4 13q0 13 7 39.5t7 34.5l4 28q5 34 14.5 115t18 138.5t18.5 96.5q-66 -4 -104 -4q-41 0 -120 7.5t-124 7.5q-3 -24 -11.5 -59.5 t-11.5 -59.5l-8 -45q-9 -41 -12 -74l-2 -16q-12 -152 -31 -230l-8 -2q-10 0 -12 2l-2 2q13 55 26 183.5t29 191.5l20 109q-4 -2 -30 -2q-12 0 -38 1t-38 1h-16h-37q-17 0 -33 4h-2q0 2 -2 4q0 3 3 7t3 7l2 2q12 0 34.5 -1t33.5 -1h122q10 54 16.5 161t18.5 173q-17 0 -49 3 t-47 3h-14h-8q-4 0 -12.5 -1t-12.5 -1q-23 0 -25 10q0 15 25 15l2 -1q2 -1 6 -1h8h21q18 0 54 -2t52 -2q8 32 13.5 97t13.5 99q5 14 10 47l21 117q0 1 4 29l10 53q0 33 10 43zM764 752l20 141q-26 4 -122 4h-87h-153q-5 -42 -16.5 -158t-20.5 -178l78 -6q73 -8 155 -8 q65 0 117 8q10 109 29 197z" />
<glyph unicode="$" horiz-adv-x="1034" d="M795 1083v-12v-18q0 -11 -3.5 -16.5t-6.5 -6t-9 -0.5h-2q-4 0 -4 6t2 8v5q0 13 1 22.5t1 15.5q0 87 -44.5 153t-125.5 95l-20 6q-50 13 -66 13h-8q-9 6 -25 6q-11 0 -24 -4t-29 -11t-18 -8l-21 -10q-53 -17 -76 -54t-32 -95l-4 -27q0 -11 -2.5 -32t-2.5 -32 q0 -42 35 -110l2 -4q48 -85 101 -115l53 -41l55 -49l23 -20q15 -13 37 -37.5t30 -32.5l27 -29q68 -76 99.5 -139.5t31.5 -153.5q0 -38 -14 -78t-41 -78t-75.5 -62.5t-109.5 -24.5v-39q0 -24 -1 -73t-1 -73v-6v-16q0 -6 -0.5 -9t-3.5 -5.5t-10 -2.5h-4q-8 8 -8 25l1 4 q1 4 1 8v15q0 44 2 67v101q-285 14 -285 231q0 37 8 61v33q0 21 13 21q10 0 10 -19q0 -12 -2 -38t-2 -40q0 -113 63 -176q22 -18 54.5 -29.5t49 -14.5t60.5 -9h33q102 0 169.5 64.5t67.5 168.5q0 12 -3 34t-3 38l-4 27q-5 22 -35 76l-47 63q-8 13 -26 29.5t-27 27.5l-16 19 q-7 7 -17.5 20.5t-17.5 20.5l-60 51q-15 12 -40.5 34.5t-40.5 33.5l-11 6q-52 48 -65 63l-6 6q-72 87 -72 168q0 200 108 254l33 17q66 30 101 30q4 0 6 -2q0 14 3 62t3 76v6q0 37 14 37q7 0 10 -3l3 -2q0 -12 -5 -110l-4 -66q11 -3 38 -8.5t42 -11.5l27 -10 q78 -19 120 -89.5t42 -158.5v-17z" />
<glyph unicode="%" horiz-adv-x="1431" d="M543 1143q4 -62 4 -90q0 -36 -7 -64.5t-15 -45t-28 -34t-31 -24.5t-40 -23q-5 0 -34.5 -6t-47.5 -6q-86 0 -140 54t-54 134q0 25 2 39q0 15 -2.5 42.5t-2.5 45.5v29q0 51 21 86l14 25q24 42 72 66t100 24q55 0 103 -31l20 -12q66 -49 66 -209zM1278 291q0 -35 -1.5 -55.5 t-6.5 -53.5t-20 -58t-38 -42l-20 -12q-48 -31 -102 -31q-52 0 -99 24t-73 66l-15 25q-20 34 -20 86v28q0 17 2 45t2 43q-2 14 -2 39q0 32 9 62t29 60t60.5 48.5t95.5 18.5q93 0 148 -53.5t55 -149.5q0 -36 -4 -90zM524 1034v19q0 10 -4 51t-4 92q-4 91 -37 121l-22 20 q-39 39 -119 39q-81 -10 -121 -61l-16 -21q-29 -34 -29 -94v-10v-64q0 -8 1 -24t1 -23q-2 -14 -2 -39q0 -152 184 -172q5 0 15.5 1t15.5 1l29 9q52 22 78 55t30 100zM1260 381v18q-2 37 -12 64.5t-30.5 46t-30.5 25t-36 20.5l-29 8q-5 0 -15 1t-15 1q-185 -23 -185 -172 q0 -25 2 -39q0 -7 -1 -23t-1 -24v-63v-13q0 -58 29 -92l16 -20q41 -52 121 -62q80 0 119 39l22 21q43 38 43 202q0 17 1.5 34t1.5 28zM713 702l-29 -81l-43 -119q-15 -43 -55 -138t-58 -149l-10 -27q-17 -53 -20 -57l-17 -37q-2 -2 -8 -15t-14 -13q-10 0 -10 8q0 4 4 12 l26 59q7 19 8 27l5 16q15 46 72 186t85 222q35 102 41 117l58 139q8 32 32.5 85.5t30.5 68.5l10 26q55 146 101 240l20 41q6 30 19 30l10 -4l4 -2v-2q-5 -23 -19 -51l-12 -27q-17 -30 -32.5 -65.5t-32.5 -79.5t-27 -68q-3 -5 -5 -14.5t-5 -13.5q-55 -146 -80 -193l-17 -39 q-15 -28 -32 -82z" />
<glyph unicode="&#x26;" horiz-adv-x="1153" d="M946 80q-50 21 -94 63.5t-61 89.5q-6 -5 -23 -28.5t-35 -36.5q-66 -58 -125 -66l-20 -6q-15 0 -44.5 -7t-47.5 -7q-44 0 -103 16l-22 11q-38 14 -66 36l-18 17q-82 75 -90 198l-7 82q0 109 91 209l12 15l31 32l18 15q8 3 18 10l37 29v-2q9 0 11 2q-47 10 -82.5 47 t-54 85.5t-27 93.5t-8.5 83q0 97 76 183.5t173 86.5q94 0 157 -45t73 -127l2 -2v-8q0 -19 -12 -19q-3 1 -5 3h-2q-6 3 -6 16v6q-13 74 -69.5 114t-143.5 40t-153 -76t-66 -170q0 -64 16 -111l7 -20q23 -87 74.5 -125.5t138.5 -38.5q24 0 30 2q16 0 44 -4t44 -4h60 q7 0 19.5 1t19.5 1h14q8 -4 30.5 -4h24.5h13q180 0 180 -17q0 -6 -4 -14l-4 -2q-9 4 -41 4h-31q-31 0 -45 2h-14q-4 2 -27 2h-10q2 -23 2 -61q0 -30 -3 -87t-3 -87q0 -22 4 -58q0 -44 -2 -67q0 -71 6 -105t28 -67l11 -10q1 -1 1.5 -3t2 -3.5t4.5 -2.5l4 -6q40 -52 129 -90 q6 -6 17.5 -10t11.5 -12q0 -11 -11 -11q-20 0 -55 25zM375 711q-66 -46 -113 -122.5t-47 -146.5q0 -74 24 -148t66 -124l19 -12q38 -22 41 -23l32 -16q41 -13 84 -13q38 0 72.5 5t56 12.5t37 15t21.5 12.5t4 5q22 13 43.5 34t31.5 33t33 43q-8 31 -8 99v34q0 49 2 137.5 t2 131.5q0 46 -2 69h-143q-3 0 -6.5 -1t-6.5 -1q-14 0 -47 5t-53 5h-35q-27 0 -62 -17t-46 -17z" />
<glyph unicode="'" horiz-adv-x="319" d="M168 1008h-18v2q-5 10 -5 22v17v10v49q0 38 5.5 119t5.5 119q0 24 -2 30l4 2q3 6 12 6q6 0 8 -2v-2v-34v-70v-55q0 -61 -4 -82z" />
<glyph unicode="(" horiz-adv-x="499" d="M215 760q2 44 2 182t8 209q0 23 -2 70t-2 71q0 78 31.5 150.5t75.5 111.5l8 11q24 24 39 24q4 -2 12 -4v-2q-1 -5 -16 -20l-6 -7q-4 -4 -9 -4l-18 -18q-37 -37 -57 -84v-4q-37 -76 -37 -154q0 -23 4 -69v-117q0 -92 -5 -254t-5 -242q0 -49 3 -138.5t3 -133.5 q0 -9 -2 -26.5t-2 -26.5v-2q0 -19 -2 -23q0 -3 1 -6t1 -6v-10q0 -7 -2 -22.5t-2 -29.5q0 -5 6 -80l4 -24q9 -82 43 -139q7 -5 18.5 -20t21 -25.5t15.5 -10.5l8 -4t8.5 -5t5.5 -6t3 -9q0 -4 -4 -8l-7 -2q-28 0 -67.5 51.5t-52.5 97.5q-15 47 -25 176q0 16 2 47t2 47v41 q2 18 2 54q0 56 -4 150t-4 140q0 33 4 103z" />
<glyph unicode=")" horiz-adv-x="487" d="M279 760q2 -35 2 -103q0 -46 -3.5 -140t-3.5 -150q0 -36 2 -54v-41q0 -16 2.5 -47t2.5 -47q-8 -137 -32.5 -207t-86.5 -100q-4 0 -15 -9t-12 -9h-4q-2 0 -6 4q-2 2 -2 4q0 18 73 74l10 8h-1q34 57 43 139l4 24q6 75 6 80q0 14 -2 29.5t-2 22.5v10q0 3 1 6t1 6q-2 4 -2 23 v2q0 9 -2 26.5t-2 26.5q0 44 3 133.5t3 138.5q0 80 -5 242t-5 254v117q0 11 1 33.5t1 35.5q0 82 -35 154v4q-20 47 -57 84l-19 18q-4 0 -8 4l-6 7q-2 2 -5 4.5t-5 4t-4 5t-3 6.5v2l13 4q15 0 39 -24l8 -11q45 -38 75.5 -110.5t30.5 -151.5q0 -24 -2 -71t-2 -70q5 -66 6 -198 t5 -193z" />
<glyph unicode="*" horiz-adv-x="868" d="M633 1143q-122 -41 -178 -62l43 -57l16 -23q32 -35 45 -69l19 -31l18 -22q22 -27 25 -35v-2q-6 -6 -13 -6q-11 0 -33.5 27.5t-35.5 51.5l-17 37l-22 27q-9 10 -25 31.5t-27.5 37.5t-11.5 15h2q1 0 -28.5 -39.5t-62 -82.5t-36.5 -50l-26 -37q-16 -20 -21 -20q-14 0 -14 12 q0 5 12 20l33 43q13 18 38.5 49.5t46 59t38.5 57.5q-23 7 -80.5 22.5t-101 30t-76.5 31.5q-10 0 -22.5 7t-12.5 12q0 11 6 14l2 2q172 -63 287 -92q12 126 12 213v18v31q0 21 4 25h2q2 2 8 2l11 -2v-50q3 -66 -6 -141l-7 -92q24 6 49.5 14.5t56.5 19.5t50 17l25 10 q23 9 46.5 13.5t35.5 11.5h2q8 -5 8 -14q0 -14 -43 -25q-22 -7 -41 -10z" />
<glyph unicode="+" horiz-adv-x="1073" d="M844 635q-63 -6 -211 -6q-17 0 -45 1t-39 1q-4 -28 -4 -31q0 -17 4 -45v-25v-26q0 -17 -1 -52t-1 -55q0 -19 4 -45.5t4 -36.5q0 -20 -12 -20q-13 2 -13 27v6q-8 131 -8 303q-2 2 -18 2q-17 0 -49 -4h-19q-4 -2 -28 -2q-14 0 -47 2t-58 2q-21 0 -35 -2h-12q-14 -2 -37 -2 t-39 4h-2q-2 2 -2 12l-2 8h25q75 0 92 4h12q17 0 52.5 -2t50.5 -2q16 0 49 3t49 3h18q-2 23 -2 68q0 27 2 85t2 85q0 34 -4 66l-4 24q0 16 21 16l2 -2q8 -50 8 -204q-2 -25 -2 -70t2 -68q50 -4 86 -4q31 0 94 3t98 3q25 0 29 -2h2q27 0 27 -14q0 -2 -2 -4v-2q-4 -4 -17 -4 h-10q-3 0 -5 1t-5 1z" />
<glyph unicode="," horiz-adv-x="497" d="M238 141q44 0 65 -4l2 -51q0 -7 1 -7t1 -7q0 -11 -2 -17q-2 -2 -2 -12q0 -4 -2 -6l-18 -109l-19 -75l-6 -27q-5 -19 -16 -19l-9 7q33 140 43 223l5 35q0 22 2 45q-3 0 -14 1t-19 1q-4 0 -12.5 -1t-12.5 -1h-32l-5 10l5 10q28 4 45 4z" />
<glyph unicode="-" horiz-adv-x="788" d="M365 621h-164q-19 0 -19 10q0 16 41 16h62q10 -2 28 -2h41h76q93 0 119 -4h41q14 0 14 -12q0 -15 -35 -15h-18q-13 0 -32 2t-32 2h-28q-45 0 -94 3z" />
<glyph unicode="." horiz-adv-x="485" d="M223 100v29q0 1 -1 5t-1 7q0 23 15 23q3 0 5 -0.5t3.5 -2t2.5 -3t1.5 -4.5t1 -5t0.5 -5.5v-5.5v-5.5v-5.5v-25q0 -1 0.5 -8.5t0 -10.5t-1.5 -8t-4.5 -7t-8.5 -2q-15 0 -15 22q0 3 1 6t1 6z" />
<glyph unicode="/" horiz-adv-x="864" d="M184 98q7 32 18 63t28 72.5t24 59.5l37 98l37 80l28 86q76 206 103 268l26 62q14 33 23 59l67 168q3 7 11 26.5t12 28.5l49 123q20 55 37 80l2 2q6 0 10 -4l6 -4v-2q-44 -104 -118.5 -293.5t-106.5 -267.5q-18 -32 -40.5 -97.5t-28.5 -78.5l-76 -205q-6 -8 -13 -26 t-15 -41.5t-13 -35.5l-37 -94q-2 -5 -49 -131l-12 -33l-9 -2q-10 3 -10 11q0 4 5 14t5 14z" />
<glyph unicode="0" horiz-adv-x="923" d="M285 162l-15 10q-29 29 -47 61.5t-24.5 73t-7.5 63.5t-1 70v19q0 9 1.5 26.5t1.5 26.5v20q0 45 2 74.5t2 57.5q0 45 -2 51v125q0 70 -5 96l7 90q0 12 2 37t2 39q-2 2 -2 20q0 57 14 95l6 18q32 67 85 97t138 30q5 0 21 -4h18h15q153 0 209 -129l16 -55q4 -11 4 -54v-37 v-36q0 -14 1.5 -35t0.5 -31v-131q-2 -25 -2 -68q0 -26 4 -85t4 -83q0 -64 -6 -135l-2 -14q-1 -20 -3 -61t-3.5 -65.5t-7.5 -56t-17 -53.5l-2 -2q-76 -129 -231 -129q-53 0 -64 11l-16 4q-70 30 -96 49zM262 215q3 -5 14 -16l17 -17q24 -24 58 -41.5t57 -17.5l32 -8 q3 0 7.5 -1t7.5 -1q109 0 184 75l4 5q20 22 32.5 57t16 55t8 77t5.5 69q0 30 4 83.5t4 81.5q0 20 -4 59t-4 58v293q0 12 1 31t1 30q0 22 -8.5 62.5t-8.5 54.5l-6 23l-14 24q-15 40 -69 62t-89 22h-23q-32 4 -49 4q-16 0 -18 -2h-21q-61 0 -111.5 -40t-60.5 -99l-8 -55v-37 q2 -14 2 -35q0 -18 -5 -53.5t-5 -61.5v-18q0 -28 3 -81t3 -81v-31q0 -21 2 -63t2 -64q0 -24 -4 -36v-21q-6 -38 -6 -98q0 -199 49 -248z" />
<glyph unicode="1" horiz-adv-x="665" d="M430 522q0 -7 1 -20.5t1 -20.5v-12q-4 -22 -4 -96q0 -76 4 -97q-4 -7 -4 -51q0 -11 1 -40t1 -46v-20v-4q0 -31 -10 -33h-2q-10 0 -10 20q0 5 1 17.5t1 17.5q0 13 -2 36t-2 36v10v19q2 2 2 18v39q0 8 -1 24.5t-1 24.5q0 19 2 58t2 59v53q0 15 -1 47t-1 49l-7 310v65 q0 19 2 21v28q0 42 -4 120t-4 118v37q-38 -12 -105.5 -44t-101.5 -44l-34 -13q-3 0 -12 -5t-13 -5q-10 0 -10 8q0 6 43 28.5t71 29.5l109 47l66 22q10 0 10 -30v-41q0 -7 -1 -23.5t-1 -24.5q0 -30 5 -86t5 -81v-21v-68q0 -24 -2 -69t-2 -68q0 -41 4 -141.5t4 -157.5z" />
<glyph unicode="2" horiz-adv-x="880" d="M590 877l-43 -72l-53 -86l-64 -98q-87 -137 -94 -150q-100 -153 -100 -252q0 -21 2 -35v-49q18 -2 65 -2q39 0 108.5 3t114.5 3h138h4q2 2 14 2q29 0 29 -14q0 -12 -11 -12q-1 0 -3 1t-3 1h-8q-27 0 -41 2q-9 0 -28 -1t-25 -1q-27 2 -78 2q-42 0 -124 -3t-126 -3 q-3 0 -12 -0.5t-14 0t-12 1t-10 3t-3 6.5v14q0 16 -1 43.5t-1 40.5q0 52 13 91t45.5 93.5t41.5 71.5q14 25 43.5 68t34.5 51l139 217l43 76q7 12 22.5 36.5t20.5 34t14.5 28.5t13 33t6.5 34t3 43q0 115 -92 174l-16 8q-57 33 -140 33h-16h-25q-82 -9 -122 -64l-9 -12 q-21 -21 -26.5 -41.5t-5.5 -52.5v-21q0 -3 -1 -6t-1 -6q0 -5 1 -16t1 -15q0 -18 -9 -18q-7 0 -10.5 4t-5 11.5t-1.5 13.5t0.5 15t0.5 11v21q4 72 43 114l12 19q62 69 154 69q116 0 176 -41q46 -15 80.5 -73.5t34.5 -116.5q0 -78 -25 -133l-26 -41q-5 -6 -33 -57z" />
<glyph unicode="3" horiz-adv-x="919" d="M584 754l14 -11q7 -3 13.5 -7.5t13.5 -12.5t11.5 -12.5t13 -16.5t11 -16t13 -19.5t12.5 -19.5l8 -12q36 -65 49 -240v-20q0 -45 -14 -82t-43 -88l-10 -17q-4 -6 -12.5 -16t-10.5 -12l-16 -17q-59 -59 -133 -59h-49q-2 2 -21 2q-70 11 -100 28l-17 13q-52 24 -67 69 l-10 25q-30 71 -27 123l4 24q0 3 0.5 14.5t1.5 19.5t5.5 15.5t13.5 8.5h2q6 -10 6 -41q-8 -8 -8 -72q0 -36 20 -82l8 -18q11 -41 55.5 -69t96.5 -36l20 -4h41q4 -2 19 -2q54 0 98.5 33.5t65.5 73.5l10 16q49 64 49 160q-11 174 -45 237l-12 19q-11 19 -21 31l-10 14 q-3 3 -13 14t-15.5 16t-15.5 12t-21.5 10t-24.5 3q-9 0 -27.5 -2t-26.5 -2q-40 0 -40 19q2 14 32 14h21h18q44 0 88 29l15 10q24 18 36 53l7 16l4 8t4 11l16 53q12 66 12 135q0 102 -34 154l-11 18q-15 18 -28 29l-15 14q-65 51 -186 51l-18 -4q-91 -14 -140 -63l-20 -27 q-33 -33 -33 -131q-2 -2 -2 -12q0 -8 2 -20t2 -17q0 -16 -12 -16q-4 0 -6.5 9t-4 22.5t-3.5 19.5q0 55 34 151l21 29q60 68 170 82q14 0 16 2h35q40 -6 64 -11.5t55 -20t53 -36.5l49 -59l10 -16q25 -64 25 -154q0 -115 -33 -188l-14 -35l-6 -14q-6 -20 -35 -48l-10 -8 q-23 -17 -43 -24z" />
<glyph unicode="4" horiz-adv-x="952" d="M649 387q14 -2 49 -2h90q33 0 33 -16q0 -9 -22 -9h-21q-23 2 -78 2h-51l-4 -118q0 -172 -16 -172h-6t-3 4.5t-2 15.5v2q0 20 3.5 59t3.5 58v63q0 57 2 88h-172q-17 0 -53 -1t-54 -1h-39q-35 0 -51 -2h-51q-27 0 -43 7l-2 22q0 4 -1 12.5t-1 12.5v2q0 4 1 7l1 3l-2 2v2 q7 21 16 42t21 46.5t18 38.5l41 90q7 16 21.5 54t23.5 55l41 90q4 8 22 54.5t33 70.5l43 110q11 26 47 97l45 92q21 34 29 59l2 2q6 2 47 2q23 0 29 -11t6 -44q0 -13 -4 -49q2 -25 2 -76q0 -40 -3 -120t-3 -120q0 -87 6 -262t6 -262zM618 1024q5 98 5 113v22.5v31t-0.5 31.5 t-2 33.5t-4 26.5t-6.5 20.5t-10 6.5q-14 0 -29 -16.5t-29 -45t-25.5 -55t-23 -57.5t-16.5 -41l-133 -306l-27 -61q-16 -28 -37 -79.5t-24 -57.5l-4 -8q-57 -116 -70 -156q4 -8 4 -25v-20q36 1 115 1t117 1l209 4q-2 55 -2 172v4q0 57 -5.5 171t-5.5 173q0 39 4 117z" />
<glyph unicode="5" horiz-adv-x="919" d="M688 653l4 -14l6 -35q7 -45 7 -172q0 -154 -46 -235l-6 -13q-16 -28 -24 -30l-45 -31l-2 -2q-4 -2 -8.5 -6t-8.5 -6.5t-8 -2.5h-4q-3 0 -5 -4t-5 -4h-8h-5q-35 -26 -100 -26q-82 0 -143.5 59.5t-93.5 142.5l-3 7q-18 41 -18 65q0 10 2 14v21q0 24 12 29l2 -2q7 -14 7 -27 q0 -4 -1 -13t-1 -12q0 -83 79 -170.5t168 -87.5q28 0 60 13l-2 2q63 16 102 45l25 18q5 5 8 14l6 11q26 44 33.5 95t7.5 124v72q0 40 2 63q0 67 -22.5 127.5t-75 104.5t-125.5 44q-46 0 -109 -26l-69 -31l-7 -6q-2 -2 -4 -5t-3.5 -4t-4.5 -1h-4q-47 0 -47 8v6q0 8 -2 12 q2 18 2 56q0 61 -9 207.5t-9 232.5q0 15 4 61l2 2l151 7q240 6 254 6h72q37 0 37 -19q-2 -8 -19 -8h-18q-25 2 -80 2q-60 0 -188.5 -6t-190.5 -6q0 -69 8 -197t8 -194v-31q0 -8 1.5 -23t1.5 -22t-1.5 -21.5t-1.5 -21.5q0 -31 7 -31q14 0 34 13l33 18l27 12l28 15 q43 16 80 16q101 0 159 -45.5t87 -153.5z" />
<glyph unicode="6" horiz-adv-x="927" d="M186 389v21q0 21 -3 64.5t-3 64.5q0 33 2 99.5t2 100.5v97v112q0 16 5.5 46t5.5 46l4 31q15 99 28 129l9 14q11 37 40.5 68.5t63.5 38.5l59 29l37 8h23h10h25h18q61 0 127 -58.5t66 -125.5q0 -5 4 -38t4 -51q0 -20 -11 -20q-16 0 -16 27q0 4 2 12.5t2 13.5 q0 80 -38.5 133.5t-106.5 77.5l-21 6q-3 0 -10 1t-10 1h-25l-37 -4q-56 0 -119.5 -50t-80.5 -114l-4 -16q-29 -110 -29 -238v-73q0 -30 1 -77t1 -69q0 -26 -4 -112q27 56 103 102.5t159 46.5q249 0 270 -231v-23q2 -16 2 -47q0 -82 -20 -149q-1 -3 -2 -6.5t-1.5 -5.5 t-0.5 -3l-17 -35q-40 -82 -127 -118l-16 -6q-49 -19 -90 -19q-281 0 -281 299zM207 537v-45v-47t0.5 -42.5t2 -43.5t4.5 -38t7.5 -38.5t11 -31.5t15.5 -30v-2q26 -48 85.5 -77t127.5 -29q87 0 150 48t83 138l6 20q11 53 15 140v24q-10 110 -64 164l-4 4q-28 30 -56 42.5 t-71 17.5q-16 0 -20 2q-107 0 -180 -49.5t-113 -126.5z" />
<glyph unicode="7" horiz-adv-x="868" d="M553 940q-12 -43 -38.5 -120.5t-37.5 -117.5l-18 -67q-39 -132 -62 -318l-20 -135v-57q0 -2 -3 -14.5t-3 -20.5v-12q0 -23 -11 -23q-5 0 -10.5 7t-5.5 18q0 10 4 31t4 28v17v24l21 139l4 33q2 10 6.5 50.5t9.5 60.5l29 119q49 204 76 278l45 123q4 10 17.5 46t19.5 51 t18.5 41.5t25.5 46.5t29 38l4 94h-36q-25 0 -66.5 -2t-62.5 -2q-24 0 -74.5 3.5t-83.5 3.5h-6q-19 -1 -54.5 0.5t-50.5 1.5h-39q-41 0 -59 6h-2q-2 2 -2 6q0 12 37 12h51h82h43q20 0 65 -3t74 -3q25 0 79 2t79 2q8 0 23 -1t22 -1l2 -2q4 -12 4 -27q0 -86 -6 -96l-31 -41 q-19 -26 -33.5 -59.5t-31.5 -83.5t-27 -76z" />
<glyph unicode="8" horiz-adv-x="923" d="M205 274q0 28 -7.5 65.5t-7.5 45.5q0 28 8.5 82t8.5 78q3 7 11 46.5t26 57.5l37 39l12 12l12 7q15 15 53 36q-6 4 -22 12.5t-24 13t-19 14t-19 20.5l-14 14q-34 43 -43 101l-6 34q0 9 -5 47t-5 62q0 11 4 39l4 24l16 70l6 18q31 96 103 131l16 7q21 13 61 13.5t56 6.5h27 l43 -10q67 -18 105 -49t60 -94l7 -15q0 -13 9.5 -36t10.5 -33l6 -25q1 -8 2.5 -21t2.5 -24t1 -21q0 -22 -14 -104l-2 -6q0 -66 -38.5 -116.5t-84.5 -76.5q3 -5 12 -12.5t11 -9.5l12 -10q20 -17 51 -56l10 -14q33 -40 48.5 -102.5t15.5 -116.5q0 -49 -17.5 -110.5 t-42.5 -106.5l-10 -19q-18 -34 -45 -49l-49 -37l-6 -2q-28 -20 -56 -28.5t-75 -8.5q-101 0 -160 49l-12 13q-28 28 -45 55.5t-23 44.5t-16 55zM219 434q-6 -30 -6 -55q0 -8 2 -20.5t2 -20.5l4 -14q20 -135 92 -199l15 -10q59 -39 155 -39q45 0 90 30l54 37l28 31 q48 74 70 164l4 18q4 46 4 64q0 130 -49 192l-29 37l-34 39l-13 10q-31 31 -47 31q-11 0 -37 -5t-39 -5q-16 0 -43 6t-39 6q-47 -4 -75 -26l-37 -33l-27 -31l-8 -14q-7 -7 -11.5 -20.5t-8.5 -37.5t-5 -28l-4 -19q-8 -59 -8 -88zM354 772q38 -31 109 -31h14h21q43 4 59 9 q10 0 12 -2q107 42 131 176l2 4q17 74 17 112q0 70 -27 131v5q-26 70 -63 110.5t-99 50.5l-43 11h-26q-57 0 -119 -25l-16 -8q-41 -31 -62 -82l-8 -16q-8 -17 -25 -89l-6 -43q0 -3 -1 -8t-1 -8q0 -11 4 -39l4 -18q0 -2 1.5 -16.5t2 -21t2 -22t3.5 -24.5t4.5 -22.5t5.5 -22.5 t6.5 -18.5t8.5 -15.5t11 -9q7 -7 21 -26t26.5 -29t30.5 -13z" />
<glyph unicode="9" horiz-adv-x="935" d="M741 1057v-21q0 -21 3.5 -64t3.5 -65q0 -34 -3.5 -100.5t-3.5 -99.5q0 -17 1 -49.5t1 -47.5v-112q0 -16 -5 -46.5t-5 -45.5l-4 -31q-13 -94 -29 -129l-8 -15q-11 -36 -41.5 -67.5t-62.5 -38.5l-60 -29l-36 -8h-23q-3 0 -5 -1t-5 -1q-4 0 -12 1t-13 1h-18 q-96 0 -145.5 77.5t-49.5 180.5q0 21 8 21t13.5 -7.5t5.5 -17.5q0 -5 -2 -14t-2 -13q0 -82 34.5 -127.5t104.5 -70.5l20 -6q3 0 10.5 -1t10.5 -1h25l36 4q56 0 120 49.5t81 113.5l4 17q29 120 29 237v74q0 24 -1 74t-1 74q0 115 4 149q-17 -38 -38.5 -64.5t-57.5 -60.5 l-21 -18l-12 -13q-60 -32 -133 -32q-250 0 -271 231v23q-2 14 -2 34q0 60 27 158q1 3 2 6.5t1.5 5.5t0.5 3l16 34q40 79 121 113l47 18q31 13 64 13h22h5q111 0 180 -73t69 -222zM719 946q0 9 0.5 48.5t0 53t-2.5 46t-6 50.5t-12 41t-19 40v2q-26 46 -81.5 76t-127.5 30 q-53 0 -96.5 -20t-70 -51t-42 -60.5t-22.5 -58.5l-7 -21q-18 -84 -20 -135v-24q3 -104 63 -164l5 -4q30 -34 54 -44.5t73 -15.5q7 0 18 -1t18 -1q89 0 131 29l39 37q5 3 12 10t12 13.5t10 11.5l5 6l19 22q34 55 47 84z" />
<glyph unicode=":" horiz-adv-x="487" d="M231 129h29h12q23 0 23 -12q0 -4 -1 -6.5t-3.5 -4t-5 -2.5t-6.5 -1.5t-6.5 -0.5h-7.5h-7h-25h-5.5h-6h-6t-6 0.5t-5 1.5t-4 3t-2.5 4.5t-1 5.5q0 12 22 12h12zM231 819h29h12q23 0 23 -12q0 -5 -2 -8.5t-7 -4.5t-8 -1.5t-10.5 0t-9.5 0.5h-25q-1 0 -8.5 -0.5t-10.5 0 t-8 1.5t-7 4.5t-2 8.5q0 12 22 12h12z" />
<glyph unicode=";" horiz-adv-x="501" d="M238 141q44 0 65 -4l2 -51q0 -7 1 -7t1 -7q0 -11 -2 -17q-2 -2 -2 -12q0 -4 -2 -6l-18 -109l-19 -75l-6 -27q-5 -19 -16 -19l-9 7q33 140 43 223l5 35q0 22 2 45q-3 0 -14 1t-19 1q-4 0 -12.5 -1t-12.5 -1h-32l-5 10l5 10q28 4 45 4zM231 823h29h12q23 0 23 -12 q0 -5 -2 -8.5t-7 -4.5t-8 -1.5t-10.5 0t-9.5 0.5h-25q-1 0 -8.5 -0.5t-10.5 0t-8 1.5t-7 4.5t-2 8.5q0 12 22 12h12z" />
<glyph unicode="&#x3c;" horiz-adv-x="796" d="M664 334v-4q-3 -13 -15 -13q-3 0 -9.5 3.5t-8.5 3.5l-221 122q-17 6 -37 17.5t-46 28.5t-42 26l-92 53l-13 11q-37 9 -37 36q0 40 9 52q67 47 200.5 131.5t179.5 116.5l41 24l16 12t21.5 15.5t21 14t20.5 11.5t14 4h2q8 -5 8 -14q0 -6 -4.5 -9t-13.5 -7.5t-15 -10.5 l-94 -59q-20 -17 -64.5 -42t-62.5 -40q-30 -24 -101 -65t-112 -73.5t-41 -60.5q16 -13 92 -57l27 -16q40 -25 188 -107z" />
<glyph unicode="=" horiz-adv-x="1124" d="M741 887h181v-2q0 -19 -19 -19h-162q-58 -10 -92 -10q-23 0 -33 2h-43q-28 -3 -87.5 -4t-90.5 -4l-61 2q-8 0 -25.5 -1t-25.5 -1q-11 0 -33 2t-33 2h-12q-2 -2 -8 -2q-7 0 -13 6h-2l2 2q3 14 23 14q14 0 16 -2h8q4 0 11.5 -1t11.5 -1q24 0 78 3.5t78 3.5q11 0 34.5 -1.5 t36.5 -1.5q5 0 16 1.5t19 1.5l80 6q20 0 22 -2h21q53 0 102 6zM201 406q-2 0 -2 2q0 10 22 10h4q25 2 84 2h127q37 0 96 2t89 2q31 0 45 -2h28q1 0 4 -1t4 -1q13 0 41 4h23q1 0 3 1t3 1q8 0 20.5 -2t24.5 -2h2q13 0 40.5 2t43.5 2q25 0 29 -2l2 -2q0 -16 -19 -16h-24 q-7 0 -30.5 -3.5t-35.5 -3.5t-26.5 1t-22.5 1h-10h-23q-16 -2 -49 -2h-24q-17 0 -46 2t-44 2q-14 0 -40 -3t-40 -3h-41q-5 0 -16.5 1t-16.5 1h-25h-92q-51 0 -82 -2h-2q-21 0 -24 9z" />
<glyph unicode="&#x3e;" horiz-adv-x="796" d="M129 315v4l188 105q173 96 189 106l26 17q80 46 93 57q0 34 -44 68t-114.5 72.5t-95.5 58.5q-17 14 -61.5 38.5t-65.5 43.5l-94 59q-6 5 -12.5 9t-10.5 5.5t-7 4.5t-3 8q0 9 8 14h2q9 0 25.5 -10.5t37 -26t29.5 -20.5l41 -25q63 -45 194.5 -125t192.5 -123v-2v-4 q0 -3 -2 -6t-2 -8q0 -7 2 -18.5t2 -18.5q0 -6 -4.5 -11.5t-9 -8.5t-12 -6.5t-9.5 -4.5l-12 -10l-92 -53q-16 -9 -42 -26t-46 -28.5t-37 -17.5l-221 -123q-18 -6 -19 -6q-11 0 -14 12z" />
<glyph unicode="?" horiz-adv-x="1001" d="M672 1329l12 -12q7 -11 24.5 -28t24.5 -29l8 -21q25 -25 25 -111q0 -41 -9 -79.5t-31 -81t-38.5 -70t-52 -80t-51.5 -76.5l-33 -73q-32 -71 -41 -164v-8v-15q0 -20 -12 -20h-4t-3.5 1t-4 3t-2.5 6.5t-1 11.5q0 99 43 187l17 39q40 85 55 94q143 178 143 321q0 60 -18 97 l-10 14q-19 60 -79 90.5t-128 30.5l-41 -4q-11 0 -23 -6l-18 -7q-79 -34 -119.5 -89t-40.5 -144q0 -3 2 -12t2 -13q0 -24 -14 -24h-2q-12 9 -12 26q0 8 2 19t2 14v10q0 78 43 136l8 12q30 45 88 72l33 16l18 4q5 3 19.5 5t19.5 5l43 2q13 0 41 -4l21 -4q2 -1 16 -5l17.5 -5 t15 -5.5t17 -7.5t13.5 -7.5t15 -10.5zM494 127v-29v-12q0 -23 -13 -23q-5 0 -8.5 2t-4.5 7t-1.5 8t0 10.5t0.5 9.5v25q0 1 -0.5 8.5t0 11t1.5 8.5t4.5 7t8.5 2q13 0 13 -23v-12z" />
<glyph unicode="@" horiz-adv-x="1996" d="M1796 852q0 -12 1 -36t1 -36q0 -91 -40.5 -196t-90.5 -164l-14 -21q-25 -35 -33 -43l-16 -20l-13 -6q-8 -2 -39 -21.5t-49 -19.5q-14 -6 -31 -10.5t-28 -6t-12 -2.5q-40 1 -60 3t-50.5 14t-45.5 35l-10 12q-2 7 -14 31t-19.5 52t-7.5 64q0 3 1 10.5t1 10.5q0 4 -1 12 t-1 12l-27 -26q-126 -140 -297 -140h-12q-87 8 -148 89l-24 45l-2 4q-26 39 -35 102v21q-2 6 -2 28q0 157 82 262t219 105q45 0 102 -23l19 -6q69 -42 88 -61l6 -6q8 -6 19.5 -19.5t15.5 -17.5l16 -21q0 45 15 92l-3 2q0 1 1 3t2 5.5t2 6.5l2 8q0 57 24 57l2 -2v-16 q0 -21 -6 -45l-4 -21q-12 -66 -12 -104l-17 -137q-5 -7 -6 -30.5t0.5 -61.5t1.5 -46v-43v-23v-24t0.5 -21.5t2 -23.5t4 -20.5t6.5 -20.5l16 -39l12 -16q9 -17 26.5 -27.5t28.5 -13.5t41.5 -7t34.5 -5h13q90 12 156 72.5t130 197.5l8 21q22 40 35 102t13 119l-5 47 q0 53 -14 112t-28.5 96t-40.5 95l-29 63q-155 192 -307 213l-13 5q-19 5 -44.5 8.5t-41 5t-52.5 4.5t-50 4h-16q-14 2 -39 2q-23 0 -48 -2.5t-58 -7t-50 -6.5l-16 -4q-145 -25 -190 -41t-89 -45l-18 -9q-37 -18 -70 -47l-41 -49l-10 -12q-4 -5 -24.5 -31t-28.5 -41l-17 -26 q-6 -10 -25.5 -41t-26 -41.5t-21 -35.5t-22 -40t-17 -37t-17.5 -43l-12 -31l-14 -32q-3 -4 -5.5 -9t-4 -8.5t-2.5 -9t-1.5 -8.5t-1 -10.5t-0.5 -10.5l-6 -39q0 -1 -14.5 -76.5t-14.5 -119.5q0 -186 33 -256l17 -31q6 -8 15 -28t13 -27l12 -25q18 -35 65.5 -86t53.5 -59 l23 -23q43 -43 131 -90l18 -8q154 -53 256 -53q22 0 66 2t65 2h21q14 2 37 2l39 4q11 0 39 4l12 6q6 6 12 6q8 0 12 -4h2l-2 -2q-1 -11 -8 -17t-12 -7t-16 -3l-43 -4q-36 -4 -58 -4h-20q-110 -4 -160 -4q-9 0 -27.5 1t-27.5 1l-19 4q-40 8 -108.5 31t-100.5 31 q-24 14 -66 45t-48 35l-25 24l-8 6q-16 16 -45 48.5t-49 52.5q-7 8 -15.5 26.5t-15.5 26.5l-16 31l-21 43q-51 89 -51 223v18q-2 16 -2 52q2 57 20 161l17 86q3 43 26 88l6 21l46 98l8 19q30 58 41 75l37 54q8 10 20 30l12 17q52 89 119 139l14 12q26 20 54 29l22 12 q28 16 119 52l20 6q65 14 140 24q25 0 76 8.5t79 8.5q42 0 52 -2h20q157 0 271 -45.5t212 -153.5l11 -12q21 -17 33.5 -39.5t23.5 -52.5t20 -46q31 -67 41 -116l7 -27q2 -8 9 -37.5t10.5 -51t2.5 -42.5zM1227 688q14 77 14 103q0 49 -47 96l-14 14q-92 92 -191 92h-22h-19 q-68 0 -140.5 -71t-72.5 -117q-2 -7 -8.5 -31t-8.5 -34.5t-6 -29t-5.5 -34t-1.5 -31.5v-20v-19q0 -39 10 -59l26 -47v-4q27 -39 44.5 -59.5t49.5 -38t72 -17.5q52 -3 99 18l32 13q84 33 156 112q1 3 3 3t3 3l12 11q3 0 9 6l4 4v117q2 2 2 20z" />
<glyph unicode="A" horiz-adv-x="1034" d="M827 178l11 -39q0 -1 3 -16t3 -19q0 -8 -8 -8q-9 0 -13 4v-2q-4 3 -6.5 9t-5 15.5t-4.5 14.5l-10 51q-6 36 -14 73t-17 80t-14 65q-65 0 -208.5 -7.5t-217.5 -7.5q-12 0 -32 1t-32 1l-39 -186q0 -1 -1 -6t-1 -8v2q-1 0 -3.5 -18.5t-2.5 -29.5l-6 -49q-3 -12 -16 -12 q-10 0 -13 8q2 14 8 54.5t9 60.5l18 100q3 9 8 47l15 70v-2l22 90v-2q21 80 53 245.5t47 227.5q7 53 46 182v-2q4 16 9.5 44t10 50t10 44t12.5 34.5t15 12.5h6q8 0 10 2h33l31 -6l49 -166l4 -13v2l31 -116q5 -23 16.5 -65.5t13.5 -49.5l25 -90q23 -80 29 -107v2 q14 -48 26 -108l17 -82q3 -12 7 -38t7 -38l6 -39q8 -45 21 -98v2q8 -28 17 -82.5t15 -81.5zM279 471l-15 -51q12 0 36 -1t36 -1q69 0 203.5 8t210.5 8q-17 103 -44.5 213t-67 254t-56.5 209l-19 72l-8 24v-2l-33 115h-26q-3 0 -10.5 1t-10.5 1l-8 -2q0 -19 -3 -38.5 t-7.5 -34.5t-8.5 -26.5t-7 -18.5l-3 -7q0 -1 -1 -3t-1 -3l-12 -58q-8 -32 -22.5 -94t-23 -98t-19.5 -88t-19 -98q-11 -73 -61 -283v2zM260 420l4 -4v4h-4z" />
<glyph unicode="B" horiz-adv-x="1015" d="M817 477v-2q4 -28 4 -43q0 -33 -2.5 -57.5t-5 -34t-8.5 -25t-8 -20.5l-6 -14q-3 -5 -6.5 -16.5t-6.5 -16.5l-12 -19h2q-17 -38 -72 -63v2q-6 -6 -10 -9t-6 -3.5t-6 -1t-6 -0.5l-37 -11q-35 -10 -78.5 -13t-101.5 -3.5t-95 -3.5h-47q-8 2 -30 2h-19q-11 0 -22 5t-11 11 q0 2 2 4q0 3 -2 8.5t-2 8.5q0 8 3 20.5t3 14.5v114q0 70 -2 210t-2 214q0 80 4 103q0 32 -2 90.5t-2 62.5v41q0 7 1 20.5t1 20.5t-1 21.5t-1 21.5v39q0 19 5.5 62t5.5 65v14q0 1 -1 3.5t-1 3.5q0 11 8 22h20q11 0 27 4h12q21 0 63 2t62 2q70 0 141 -12t109 -35l12 -12 q66 -66 84.5 -124t18.5 -134q0 -62 -20.5 -122.5t-39.5 -86.5l-18 -21h2q-27 -44 -53 -59q16 0 61 -45h-2l14 -18l19 -19q3 -10 16 -27h-2l12 -16q9 -11 21 -61l6 -25q0 -31 8 -39zM791 393q0 34 -3 68v-2q-10 10 -10 51q-5 5 -12 24t-11 36t-3 18q-3 3 -15.5 26.5 t-17.5 30.5h2l-10 12q-5 0 -9 7l-14 12v-2q-6 4 -15.5 11.5t-14.5 11.5t-13 7t-16 3q-9 0 -28 -3.5t-28 -3.5h-317q-2 -39 -2 -116q0 -50 2 -147t2 -144v-92q0 -9 -2 -11v-34h2h14q3 -1 6 -3l5 -1q4 0 6 2q3 0 7.5 -1t8.5 -1h115q140 0 235 26q1 0 4.5 1t4.5 1l20 8l12 9 q14 5 35 26l8 10l-2 -2q0 3 6 9h-2q6 6 13.5 20t7.5 21l18 57q11 26 11 55zM258 1253v-12q-2 -23 -2 -61v-449q28 0 78 -1t74 -1h163q34 0 58 8v-2q0 -1 2.5 1t9.5 9q7 4 13 9t15.5 15t12.5 13l8 9h-2q4 8 8 12q70 111 70 223q0 45 -16 111h2q-9 9 -9 24v-2 q-18 30 -40.5 53.5t-42 38.5t-52 25.5t-52 16t-61 8t-61 2.5h-69.5h-10.5h-9.5h-11h-51q-21 0 -21 -13v-4l-1 -6q-1 -5 -2 -13t-1 -14z" />
<glyph unicode="C" d="M752 408v-119q-2 -27 -19 -60l-10 -14h2q-32 -70 -86 -88v2l-14 -10q-62 -21 -74 -23l-27 -4q-21 -8 -53 -8h-18q-120 11 -172 78h2l-19 16q-12 12 -22 41h2l-13 19q-6 13 -18 77v19q0 7 -4 29t-4 34v23q-4 78 -4 125q0 55 2 78v12q-2 2 -2 14v21q-4 86 -4 143q0 17 1 49 t1 47v27q0 129 8 192q0 12 17 68l7 25q0 3 7 10h-2q42 86 133 115q9 0 48.5 10t63.5 10q117 0 179 -64.5t73 -175.5v-16q0 -8 1 -19t1 -16q0 -24 -22 -24q-6 30 -6 36v19q-2 32 -9 62t-23 62t-40 55.5t-62.5 38.5t-87.5 15q-27 0 -79 -10h2q-40 -16 -58 -24.5t-44 -29 t-40 -48.5l-6 -10h2l-10 -25q-4 -4 -4 -14l-4 -17q-17 -53 -17 -92q0 -33 2 -49q0 -51 -2 -74v-22q0 -16 -1 -50.5t-1 -52.5q0 -49 4 -147v-21q0 -10 2 -12v-14q0 -23 -2 -69t-2 -69q0 -48 2 -71v-10q0 -44 15 -111l18 -61l21 -37q43 -43 85 -62.5t109 -25.5h8q24 0 66 14 l33 8q81 21 118 96l11 15h-2q16 29 16 75q0 9 -1 30t-1 30q0 45 14 45q13 0 13 -16z" />
<glyph unicode="D" horiz-adv-x="985" d="M248 1319l2 4q26 10 88 14h16h29q174 0 227 -24l19 -6q31 -7 52.5 -22.5t45.5 -45.5h-2q32 -32 48 -101t16.5 -139.5t1.5 -139.5t2 -101q4 -50 4 -78v-74q-2 -16 -2 -45q0 -18 1 -52t1 -50q0 -66 -6 -97l-15 -69q-2 -5 -6.5 -17t-7.5 -18l-12 -31q-20 -47 -71.5 -78.5 t-105.5 -31.5h-12q-15 -4 -67 -4h-23q-20 -1 -53.5 1.5t-46.5 2.5h-35q-53 0 -80 -2l-12 12v31q0 3 1 10t1 10v25q-4 20 -4 28v27q0 14 -1 45t-1 45q0 32 2 96t2 101q0 17 -1 53t-1 53q0 86 2 133v258q0 44 2 137t2 140zM451 141h24q55 0 70 4q4 -2 30 -2q46 0 84.5 25.5 t59.5 67.5l14 30l12 31q0 1 1 2.5t2 5t2 6.5l6 15q0 20 7 54.5t7 51.5q-2 14 -2 41v82q0 7 1 18.5t1 18.5q0 6 -4 26v35q0 126 -14 418q-1 8 -4.5 35.5t-8 47.5t-12.5 34l-14 22h2l-23 27q-8 10 -23.5 21.5t-27.5 11.5q-22 4 -65.5 16t-82.5 17.5t-98 5.5q-55 0 -119 -9 v-135q-4 -328 -4 -469v-278q-2 -31 -2 -88q-1 -18 0.5 -46.5t1.5 -39.5v-68q2 -8 2 -31h15q3 0 6 1t6 1h41q18 0 55 -3t54 -3z" />
<glyph unicode="E" horiz-adv-x="997" d="M748 1317h55q26 0 26 -17q-3 -10 -20 -10h-59q-56 0 -140 4t-98 4l-100 5q-8 0 -27 1t-31 1h-30q-4 -2 -31 -2h-27q0 -28 -3 -80.5t-3 -77.5q0 -41 5 -123.5t5 -124.5q0 -4 -1 -12.5t-1 -12.5v-65q2 -23 2 -64l295 -6q18 2 58 2h36q4 -4 22.5 -5t18.5 -11q0 -14 -12 -14 q-1 0 -28 3t-50 3q-38 0 -61 -2l-217 4h-58q-2 -18 -2 -55v-29q0 -13 -3 -40t-3 -40q0 -7 1 -19.5t1 -19.5l-4 -180q0 -19 2 -27v-18q0 -111 2 -152h45q23 0 71 2t71 2h98q35 0 113.5 -3t124.5 -3h2q22 0 25 -9q1 -3 1 -7q-2 -8 -24 -8h-7q-25 0 -76 4t-89 4q-28 1 -81 -1.5 t-73 -2.5h-80q-23 -2 -57 -2h-29q-5 0 -15 -1t-14 -1q-7 0 -11.5 0.5t-8 1t-5.5 3t-3 3.5t-1.5 6.5t-0.5 8.5v12v14v6q0 8 -1 26t-1 27v117q0 24 2 72t2 73q0 22 -2 37.5t-2 20.5q0 28 4 74t4 71q0 19 -2 33v28q-6 49 -6 103v51q0 43 -4.5 126t-4.5 122q0 15 5 92v23 q0 4 1 15t1 19q0 4 -1 7t-1 4q0 16 7.5 20t24.5 4q8 0 25 -2t24 -2q4 2 25 2h10q49 -2 163.5 -3t178.5 -7q14 -2 52 -2z" />
<glyph unicode="F" horiz-adv-x="987" d="M254 143q0 32 -3 95.5t-3 89.5q0 8 1 18t1 14l4 121q1 26 4.5 102t3.5 117q0 32 -3 97t-3 94q0 47 4 133.5t4 126.5v35v61q0 69 4 90h2q50 4 76 4q52 0 168.5 -5t194.5 -5h4q42 0 65 -2h6q37 0 37 -16q0 -3 -1 -5t-1 -3h-2q-5 -5 -12 -5h-10q-3 3 -9 3q-68 8 -208 8h-21 q-38 0 -113.5 2t-113.5 2h-37q-6 -47 -6 -158q0 -11 1 -29t1 -30q0 -31 -3 -95.5t-3 -97.5q0 -25 3 -80t3 -84v-4q14 2 41 2q21 0 63 -2t66 -2h39h14q24 0 70 4t67 4q58 0 58 -16q0 -12 -35 -12h-33q-7 0 -17.5 1t-17.5 1q-22 1 -66 -3t-65 -3l-80 4h-41q-3 0 -10.5 -1 t-11.5 -1q-7 0 -20.5 1t-20.5 1l-4 -64q0 -39 -5.5 -130t-5.5 -146q0 -36 3.5 -103.5t3.5 -115.5q0 -84 -19 -84h-6q-6 6 -6 26q0 7 2 22.5t2 22.5z" />
<glyph unicode="G" horiz-adv-x="946" d="M770 135l4 -24q0 -3 3 -13t3 -16t-10 -6t-18 23.5t-13 51.5t-6 29q-2 4 -7 15.5t-9 17.5l-45 -51q-58 -66 -176 -66q-126 0 -174 29l-35 20q-45 23 -64.5 76.5t-19.5 114.5l-4 31q0 5 -1 15t-1 15l-4 31q2 18 2 51q0 17 -1 51t-1 52q0 35 2 53q-2 14 -2 35v139q0 4 1 11 t1 11q0 17 -4.5 49t-4.5 48q0 7 2 23t2 28l7 55q5 48 8 56l4 28q10 87 49 142l16 22q29 31 99 59l41 13q18 6 45 6h10q133 0 202.5 -78t69.5 -190v-29v-4q0 -29 -14 -29h-4q-8 0 -8 19q0 5 2 18t2 20q-4 90 -37 134l-31 41h-2q-27 39 -66 54t-112 23q-36 0 -83.5 -17.5 t-87.5 -49t-48 -66.5l-6 -41l-21 -96l-6 -55q-6 -27 -6 -60v-30q3 -13 3 -33.5t1 -26.5v-59v-14q-1 -16 2.5 -46.5t3.5 -48.5v-32q0 -7 -2 -36t-2 -46q0 -41 4 -119q0 -3 -1 -7t-1 -7q0 -13 2 -36t2 -36v-33q0 -23 2 -33v-12q4 -67 29 -94l18 -21q14 -16 29 -24.5 t35.5 -14.5t28.5 -10l41 -6q4 -8 86 -8q81 0 137 37l37 35q19 14 29 35t12 38t2.5 47.5t1.5 44.5q0 7 -1 17.5t-1 17.5q0 27 2 41v49q0 13 1.5 53t0.5 62v45h-19q-15 0 -39.5 2t-31.5 2h-11h-36q-50 0 -50 12q0 15 27 15q19 0 42.5 -4t33.5 -4q35 0 47 4h22q26 0 37 -11 l2 -18q1 -27 -0.5 -78t-1.5 -69v-121v-17q0 -16 -3 -45t-3 -45q0 -22 15 -56.5t18 -49.5z" />
<glyph unicode="H" horiz-adv-x="1064" d="M823 1094v-127q2 -39 2 -119q-2 -85 -5 -285t-7 -291l-4 -73q0 -36 2 -54q0 -40 -2 -63v-2q0 -25 -12 -25h-4q-9 3 -9 17q2 2 2 4v94q0 94 7 209v65q0 33 3 105.5t3 103.5q0 5 1 13.5t0.5 12.5t-2 9.5t-7.5 7.5t-15 2q-4 0 -12 -1t-12 -1h-13q-2 2 -16 2q-10 0 -12 -2 q-4 0 -4 2h-48q-52 0 -173.5 3.5t-180.5 3.5h-35q0 -9 1 -27t1 -27q0 -91 -6 -114q-1 -18 0.5 -49t1.5 -42v-28q0 -16 -2 -48t-2 -48q0 -64 2 -95q-2 -4 -2 -28v-31q0 -27 -2 -31v-24q0 -31 -6 -31q-4 0 -7 2l-3 2h-4q-6 0 -6 25q-3 82 3.5 170t6.5 135v37q0 14 -1 36.5 t-1 34.5q0 26 4 78t4 76q0 7 -3 20.5t-3 20.5l-4 35q0 6 1 13t2.5 15t2.5 13q0 21 -2 65t-2 68v22v121q-2 23 -2 66q0 23 2 69.5t2 71.5q0 12 -1 37t-1 37v2v8q0 16 8 16q10 0 13 -6t3 -26v-9v-45q0 -31 -2 -97t-2 -101q0 -7 1 -20.5t1 -20.5l4 -133q0 -4 -1 -13.5t-1 -13.5 q2 -31 2 -84v-27q0 -7 -1 -21.5t-1 -21.5q0 -18 477 -18h54q4 46 4 55q0 11 -1 33t-1 35v86q0 186 -6 282v41q2 14 2 43q-4 4 -4 43q0 18 12 27h2q12 -6 12 -16q0 -3 -1 -5.5t-1 -5.5v-67q0 -5 -1 -15.5t-1 -15.5q0 -26 4 -74.5t4 -72.5z" />
<glyph unicode="I" horiz-adv-x="524" d="M250 561q0 32 -3 89t-3 85v113q6 117 6 395v21q-2 14 -2 41q0 10 2 12q0 3 -1 9t-1 9q0 8 10 15h10q4 -12 4 -15t-1 -9.5t-1 -10.5v-164q-6 -153 -6 -322q6 -48 6 -143t2 -133v-217q0 -4 -1 -13.5t-1 -13.5q0 -23 4.5 -69t4.5 -70q0 -18 -3 -39v-39v-10q0 -9 -6 -12h-2 q-6 0 -10 4l-2 2v39q2 14 2 45q0 28 -3.5 80.5t-4.5 70.5q0 5 1 15.5t1 15.5v127q0 61 -2 92z" />
<glyph unicode="J" horiz-adv-x="991" d="M217 438v78q0 35 12 41q4 2 9 2h2q4 -4 4 -14v-10v-7q0 -18 -3 -69t-3 -80q0 -37 3 -65.5t14.5 -63.5t31.5 -57.5t57 -38t88 -15.5q16 0 62 4l24 4q32 0 62 13l34 14q97 53 97 262v21l4 30q0 95 6 105q-4 54 -4 82q0 17 1 52.5t1 55.5l-4 45q-8 78 -8 289q0 64 4 174 l-78 4q-14 0 -46.5 1t-54.5 1h-143q-24 0 -24 17q3 8 22 8h191h28q39 0 51 -4h35q45 0 45 -14q0 -33 -4 -101t-4 -92q0 -63 8 -211t8 -248q0 -19 -3 -60.5t-3 -70.5v-37q0 -7 -1 -18.5t-1 -18.5l-4 -73q-3 -48 -10.5 -84t-19 -57.5t-19 -32.5t-20.5 -21l-13 -10l-30 -16 l-50 -21l-71 -12q-62 -4 -80 -4q-98 0 -152.5 73.5t-54.5 173.5q0 14 2 39t2 37z" />
<glyph unicode="K" horiz-adv-x="1048" d="M823 117q0 -7 10.5 -21.5t10.5 -21.5q0 -11 -13 -11q-11 0 -61 102.5t-84 184.5l-51 96l-203 388q-11 -11 -47.5 -49.5t-64 -65t-54.5 -45.5q-2 -14 -2 -41q0 -17 2 -52t2 -53q0 -9 -1 -27.5t-1 -27.5q0 -37 2 -110t2 -105v-43q0 -17 1 -49t1 -49v-33q0 -16 -8 -16 q-16 2 -16 45q0 11 2 32.5t2 34.5q0 23 -2 29v31q-2 23 -2 59q0 5 1 15.5t1 15.5q0 34 -3 58t-3 34v49q0 11 1 30t1 31q0 28 -2 81t-2 77t3 68t3 67t-3 72t-3 74q0 17 2 49t2 49v283v12q0 18 16 18h2q6 -6 6 -28v-25v-219q0 -22 -2 -62.5t-2 -60.5q0 -27 2 -79.5t2 -80.5 q0 -91 -4 -120q53 35 129 124l74 91l18 22q41 48 68 100l16 25q20 31 35 49l17 21q21 27 58.5 78.5t53.5 72.5l43 70q12 20 21 20q3 0 7.5 -3.5t4.5 -8.5q0 -3 -16 -31v-2q-9 -13 -23.5 -37t-23.5 -36q-11 -15 -42 -51t-50.5 -63t-26.5 -46l-37 -45q-7 -11 -26.5 -43.5 t-33.5 -53.5t-32 -42l-49 -62q42 -93 139.5 -273t142.5 -278l27 -57q39 -92 63 -131z" />
<glyph unicode="L" horiz-adv-x="890" d="M287 106h-23h-7.5t-5.5 1t-5.5 4t-1.5 8q0 4 1 10.5t1 9.5v39q0 24 2 70t2 69q0 437 -12 621q-1 15 -3 45.5t-2 43.5v42v88v39q0 15 1.5 47t1.5 49q0 10 -5 72q4 12 11 14h8q6 -6 6 -18v-10q4 -36 4 -56q0 -11 -1 -34.5t-1 -36.5v-58q0 -15 -1.5 -59t-0.5 -66l12 -270 q0 -79 3 -195t3 -182q0 -44 -2 -69v-66q0 -8 -1 -19.5t-1 -19.5v-86q23 0 73 2t75 2q23 0 75 -3t78 -3q28 0 74 4h35q18 0 20 2h27q23 0 23 -10q0 -14 -13 -14h-16q-17 0 -48 -2t-48 -2h-131q-66 4 -86 4q-94 0 -121 -7z" />
<glyph unicode="M" horiz-adv-x="1351" d="M1128 797v-232q0 -103 -10 -174v-29q0 -10 -1.5 -42t-0.5 -50v-6q0 -18 -3 -52t-3 -50q0 -12 2 -28.5t2 -24.5q0 -43 -10 -43h-1q-3 0 -5 0.5t-4 2.5t-3 8.5t-1 16.5q2 2 2 10q0 9 -3.5 28.5t-3.5 27.5q0 26 4.5 84t4.5 94v16q0 5 -1 13t-1 12q0 34 8 113.5t8 113.5 q0 37 -2 108.5t-2 108.5q0 15 1 45t1 45l-4 187q-3 38 -2 106t-2 103q-6 0 -31.5 4t-38.5 4h-12q-2 -4 -8 -33l-17 -57q-6 -11 -10 -24t-7.5 -32.5t-4.5 -25.5l-6 -12q0 -1 -1 -3.5t-2 -7t-2 -8.5l-16 -49l-39 -117q-16 -30 -28 -66.5t-24.5 -83.5t-19.5 -69l-34 -88 q-5 -22 -16.5 -52t-14.5 -40l-21 -66l-18 -61q-4 -6 -10 -25l-8 -14q-5 -6 -9.5 -21t-11 -25.5t-18.5 -10.5q-15 0 -22 12t-13 35l-8 22q0 33 -19 76.5t-20 50.5q-16 57 -32 111t-24.5 81.5t-11.5 41.5l-16 55q-29 79 -35 111l-43 127l-20 59q-2 4 -11.5 30t-13.5 40 l-35 114q-3 15 -20 15h-11h-55q-2 -16 -2 -45t2 -43q0 -62 -2 -93v-149q0 -18 -1 -51t-1 -49q0 -79 4 -101v-37q0 -34 2 -96.5t2 -95.5v-41v-25q0 -7 -1 -18.5t-1 -18.5v-34q2 -4 2 -27q0 -17 -3 -60.5t-3 -74.5v-8q-4 -7 -4 -82q0 -12 3 -33t3 -33v-8q0 -16 -10 -16 q-14 0 -14 16v10v10q-5 12 -5 43q0 158 9 314v51q0 70 -5.5 206t-5.5 200q0 46 2 71v33q0 28 1 77t1 77v36q0 3 1.5 10.5t1.5 10.5t-1.5 10t-1.5 10v19v18q0 21 9 29t43 8q8 0 25.5 -1t25.5 -1q16 0 20 2l21 -49l80 -246q9 -28 34.5 -105t38.5 -122l48 -164q0 -3 1 -6t1 -4 l14 -53q3 -7 7 -23.5t7 -24.5l35 -94l10 -43q5 -23 17 -43l22 56l29 83q30 64 86.5 249t71.5 214l12 31q4 5 5 13.5t1 9.5l6 20l23 72l28 88q3 24 16 60.5t13 43.5q3 8 4 22.5t5.5 21.5t19.5 7q17 0 49 -4l35 -4l5 1q5 1 9 1q14 0 14 -96q0 -23 -1 -57t-1 -49q0 -25 4 -75 t4 -73v-51q0 -20 -1 -56t-1 -55v-26z" />
<glyph unicode="N" horiz-adv-x="1095" d="M221 133l-4 53q0 10 -1 28t-1 24q0 20 3 61t3 61v15q0 25 5 77t5 78q0 22 -4 72v78q0 16 1 43.5t1 40.5q0 66 -4 197t-4 196q0 121 2 184h2q15 15 45 15h17l73 -174q59 -121 107 -248l98 -227l62 -150q4 -10 15 -38t20 -44l26 -63q2 -2 8 -21l17 -39q1 -3 4 -7t4 -7 l31 -74l28 -65q24 -60 33 -76h21q2 66 2 186v119q0 29 -2 43v39q0 42 -3.5 107t-3.5 100v18q0 27 -2 83t-2 83q0 32 6.5 102.5t6.5 108.5v4q0 16 2 50.5t2 52.5q0 17 -2 50t-2 50q0 9 4 37l2 2q4 4 8 4q6 0 8 -2h2q4 -12 4 -14q0 -4 -2 -12t-2 -11l4 -53q0 -10 1 -27t1 -24 q0 -21 -3 -62t-3 -61v-15q0 -31 -6 -92t-6 -92q0 -29 2 -43v-78q0 -82 5 -239t5 -238q0 -121 -2 -184h-2q-10 -13 -22 -13q-8 0 -21 3.5t-18 3.5l-74 165q-9 22 -33.5 76t-42 94.5t-31.5 77.5l-79 189l-19 39q-32 75 -50 120.5t-20.5 54.5t-7.5 20t-18 36l-27 63q-1 1 -8 21 l-16 39q-1 3 -4.5 7t-4.5 7l-30 74l-29 65q-24 60 -33 76h-2q-3 0 -6 -1t-6 -1q-4 0 -6 2q-2 -66 -2 -186v-119q0 -29 2 -43v-39q0 -20 2 -53t2 -49q0 -17 -1 -51t-1 -54v-18q0 -31 2 -92t2 -92t-4 -96t-4 -97v-4q0 -18 -3 -51t-3 -51t2 -51.5t2 -49.5q0 -23 -2 -37l-2 -2 q-4 -4 -9 -4q-6 0 -8 2h-2q-4 12 -4 15q0 4 2 11t2 11z" />
<glyph unicode="O" d="M776 504l-8 -139q0 -3 -2 -6.5t-2 -6.5q0 -2 2 -4q-3 -10 -7.5 -30t-6.5 -29l-7 -29q-20 -74 -81.5 -113t-143.5 -47l-41 -4h-18q-105 0 -182.5 80t-77.5 186q-6 55 -6 109q0 11 1 30t1 31v107q0 25 -3.5 74t-3.5 73q0 57 5 78l4 107q2 14 4 77.5t10 96.5l8 39 q20 103 121 151l41 13q41 8 96 8q27 0 99 -13l36 -14q138 -71 138 -201v-18q0 -5 1 -14t1 -13v-77q0 -72 9 -212t9 -212zM700 223q4 4 8 11t8 16t7 14l8 33q5 34 7 103.5t7 103.5q0 4 -1 13t-1 13v119q-14 229 -14 293q0 45 2 70v26q-4 16 -4 47q0 7 1 19.5t1 19.5 q0 87 -68.5 145t-144.5 58l-92 -4q-29 0 -53.5 -6t-41.5 -12.5t-32 -22t-22.5 -24.5t-16 -29.5t-11 -27.5t-8.5 -29t-6 -23l-6 -39q-6 -35 -6 -106v-54q0 -63 -4 -80v-26q0 -25 -2 -29v-45q0 -58 6 -117v-37v-28v-56q0 -17 1 -48.5t1.5 -50.5t2 -46t5.5 -51q5 -86 72 -151.5 t152 -65.5q173 0 245 104z" />
<glyph unicode="P" horiz-adv-x="978" d="M793 1071q0 -4 1 -12t1 -12v-19q0 -8 1 -25t1 -26q0 -2 -1 -25t-2 -31t-4 -24.5t-8 -28.5l-12 -32q-15 -36 -41.5 -68t-56.5 -45l-25 -10q-15 -6 -36 -10t-35.5 -5.5t-47.5 -4t-49 -3.5h-35q-14 0 -39.5 -1t-37.5 -1q-20 0 -56 4l-49 6q-2 -23 -2 -63q0 -25 3 -72.5 t3 -70.5q0 -12 -2 -33t-2 -33q0 -7 1 -22.5t1 -22.5v-55v-64q0 -88 -4 -115v-14q0 -1 -1 -3t-1 -3q0 -3 1 -7t1 -7v-7q0 -3 1 -7t1 -7q0 -10 -12 -10q-3 0 -5 0.5t-3.5 2t-2 2.5t-1 4t-0.5 4v5.5v5.5v15v4q4 34 4 160v112q0 8 -1 24.5t-1 24.5q0 5 1 16.5t1 16.5v27v10 q0 16 -2 48t-2 48q0 7 1 21.5t1 21.5v68q0 11 -1 30t-1 31q0 9 1 28t1 28q-4 31 -4 141q0 37 2 110.5t2 110.5v49q0 55 7 64q8 8 23 8h25q7 0 22.5 2t32.5 2h29q4 0 12 -1t12 -1h25q17 4 76 4q119 0 204 -79.5t85 -178.5zM772 965q0 3 1 10t1 10q0 112 -19 160t-75 96 q-82 69 -184 66q-45 0 -103 -7q-18 0 -24 3h-35q-3 0 -29.5 -4.5t-40.5 -4.5q0 -64 -4 -203t-4 -210q0 -123 4 -160q41 -8 100 -8q56 3 102 1t94 1.5t77 17.5l29 12q47 20 65 56l14 24q27 44 31 140z" />
<glyph unicode="Q" horiz-adv-x="944" d="M223 285v2q-10 42 -10 69v11q0 3 -1 6t-1 6q0 1 1 3t1 3v21q0 12 1 31t1 30q0 40 -4 123.5t-4 128.5q0 123 2 182v8q0 28 -1 86t-1 90q0 108 64.5 174t183.5 66q72 0 134 -19.5t106 -67t44 -116.5q0 -22 -2 -32q6 -16 6 -148q0 -118 -4 -147v-103q0 -14 1 -39t1 -37 q0 -19 -4 -55l-4 -174q0 -11 1 -30t1 -31q0 -48 -15 -83.5t-32 -50.5t-42 -31.5t-32 -23.5q-16 -13 -26 -16q4 -3 8 -17q24 -55 64.5 -156.5t52.5 -131.5l2 -2q14 -14 14 -29q0 -4 -6 -10q-2 -2 -4 -2h-2q-8 0 -17.5 12t-9.5 22l-47 121q-10 23 -29.5 74t-31.5 76l-9 18 q-3 15 -18 15q-16 0 -50 -8.5t-52 -8.5q-24 0 -45 6l-17 6q-126 44 -168 179zM236 385v-14v-21l6 -53l6 -18q58 -95 114 -129q3 -3 9.5 -6.5t9.5 -6.5l35 -14q11 -4 51 -4q41 0 53 4l23 6q64 24 107.5 63t47.5 80q0 23 7.5 45.5t7.5 28.5v33q-2 10 -2 33q0 70 4 212t4 212 v36v46v34q0 51 -2 76v47q-1 7 -3.5 40t-5 46t-12 34.5t-26.5 35.5q-85 67 -201 67q-91 0 -163.5 -43.5t-72.5 -119.5v-2q0 -12 -2 -28t-2 -24q4 -34 4 -149q0 -18 1 -57t0.5 -66t-3.5 -53q0 -62 3.5 -161t3.5 -155q0 -37 -2 -55z" />
<glyph unicode="R" horiz-adv-x="993" d="M262 63h-12q-8 3 -8 56v37v14q0 19 4 47v27q4 17 4 106v19q-1 18 0.5 46.5t1.5 39.5l4 198v35v23v73q0 16 3 42t3 42v64q0 36 2 105.5t2 105.5q0 10 1 49t0 63.5t-5 38.5v21l8 16h90q27 2 80 2q97 0 194 -26l13 -2l21 -11q9 -5 32 -28l13 -19q14 -22 24.5 -51t14 -45.5 t10.5 -56.5q0 -15 2 -17v-16v-19q0 -21 -4 -71v-2q-2 -2 -2 -21q-10 -96 -25 -129q-4 -9 -8 -16l-12 -15q-2 0 -8 -6l-17 -16q-35 -33 -54.5 -43.5t-51.5 -17.5l-29 -7l16 -55q1 -9 15 -41l12 -31q24 -66 69.5 -180.5t69.5 -179.5q4 -12 15 -35.5t12 -36.5l12 -37 q0 -2 5 -11t5 -17t-3.5 -12t-8.5 -6l-4 -1l-2 -2v2q-4 7 -21 58l-22 65l-14 41q-6 16 -53.5 133.5t-71.5 182.5l-31 79l-4 12t-4 15l-19 51q-24 -6 -49 -6q-8 0 -31.5 3t-31.5 3h-31q-39 0 -86 6l-16 4q-2 -2 -2 -18q0 -3 1 -5t1 -5q0 -1 -2 -4t-3 -6q0 -16 3 -19v-18v-33 q0 -18 -5 -135v-19q0 -9 -1 -28.5t-1 -28.5v-18q-4 -62 -4 -91v-43q-6 -44 -6 -81q0 -12 4 -58v-6q0 -3 1 -5t1 -5q0 -1 -0.5 -2t-1.5 -3.5t-2 -4.5zM285 956v-155q0 -41 -2 -64v-14q21 -5 67 -5t66 -3h4q14 -3 27 -3.5t30.5 0.5t24.5 1q51 0 101 21.5t75 49.5l10 11 q2 2 8 7t8.5 8.5t7 12t7.5 21.5t6 33q14 103 14 178q0 121 -69 202l-33 27l-31 12q-19 7 -45 9.5t-62.5 3t-43.5 0.5h-4q-51 0 -76 -2h-92v-13q0 -26 3 -62t3 -54q0 -51 -4 -66v-20q-2 -16 -2 -45q0 -15 1 -45t1 -46z" />
<glyph unicode="S" horiz-adv-x="946" d="M745 1051v-15q0 -20 -12 -20t-12 12q0 1 1 4t1 4v8q-6 65 -12 91l-6 18q-13 40 -40.5 82t-60.5 59l-35 17q-38 14 -75 14h-2q-125 0 -195 -66.5t-70 -166.5q0 -54 19 -113l16 -31l24 -33t24.5 -33.5t23 -28t28.5 -30.5l17 -16q44 -44 67 -62l11 -8q23 -23 69 -59.5 t64 -52.5l49 -56l33 -39q7 -20 25.5 -56t23.5 -56l4 -21q4 -32 4 -47q0 -60 -24 -119l-9 -16q-21 -40 -63 -76l-15 -12q-3 -3 -8 -5t-8 -5l-31 -15q-44 -20 -114 -20q-73 0 -123 22t-90 82l-8 11q-39 53 -39 125q0 15 -2 32t-2 25q0 22 14 22q4 0 6.5 -3t4 -8.5t2 -10.5 t1 -12.5t0.5 -10.5v-20q1 -7 1 -24t1.5 -29.5t5.5 -22.5l17 -39q36 -57 94 -90l20 -8q19 -6 31 -8l17 -4q12 0 34 -1t33 -1q76 0 94 18l29 18q104 64 104 226q0 27 -2 41l-4 20q-6 30 -24 57l-21 27l-41 51l-53 54q-13 12 -48 38t-52 46l-19 16q-63 49 -115.5 105.5 t-72.5 93.5l-10 16q-14 32 -20 47t-10.5 41.5t-4.5 62.5q0 34 17 83t38 79q32 50 93.5 73.5t123.5 23.5q26 0 119 -19l16 -8q36 -15 63 -47.5t40 -68t19.5 -64t6.5 -45.5q0 -7 2 -21.5t2 -21.5z" />
<glyph unicode="T" horiz-adv-x="980" d="M842 1335q2 -2 2 -6q0 -14 -39 -14h-35q-2 2 -10 2h-66q-96 0 -188 -6q-8 -128 -8 -361q0 -31 2 -45v-57q0 -38 -1 -97.5t-1 -84.5q0 -35 1 -101t1 -94q0 -23 -2 -71t-2 -72q0 -5 1 -15.5t1 -15.5v-90q-6 -8 -6 -66q0 -3 1 -9t1 -9v-12v-11q0 -20 -11 -20q-14 0 -14 29v8 q0 19 2 58.5t2 60.5v22v98q0 18 1 45t1 37v17v104q0 11 -1.5 48t-0.5 59v20q2 14 2 35q0 16 -2 42.5t-2 39.5q0 17 4 45v16v15q0 11 -1 34.5t-1 36.5q0 236 6 361q-16 -2 -53 -2q-16 0 -43.5 1t-40.5 1h-125q-2 2 -18 2q-8 0 -23.5 -3t-23.5 -3q-35 0 -35 10q0 3 4 5t4 3h-2 q34 10 92 10h143q25 -2 64 -2q44 0 115.5 4t103.5 4q28 -4 41 -4q9 0 27.5 1t27.5 1h90q11 0 15 -4z" />
<glyph unicode="U" d="M195 1278v29q0 57 12 57q16 0 16 -23q0 -7 -3 -23t-3 -24v-20q0 -23 2 -63.5t2 -65.5v-129q0 -22 -1 -64t-1 -63q0 -40 4 -130.5t4 -131.5v-99v-22v-21q0 -16 -1 -43.5t-1 -40.5q0 -37 10.5 -86t24.5 -75l23 -27q65 -77 170 -80h16h47q8 0 18 1t13 1l45 15q1 0 4 1t4 1 l33 12q10 4 16.5 9.5t15 20t11.5 19.5l24 31q21 30 21 121q12 120 12 340v20v27v10v31q0 22 -2 61.5t-2 56.5v21v51q0 15 -3 47t-3 49q0 5 1 15.5t1 15.5v59q0 189 18 189q13 0 13 -55q0 -24 -5.5 -68.5t-5.5 -65.5q0 -3 1.5 -7t1.5 -7q0 -31 -3 -65q0 -24 4.5 -67t4.5 -67 q0 -5 -1 -14t-1 -14q0 -22 4 -68v-39q0 -13 1 -39.5t1 -42.5q0 -13 -1 -40.5t-1 -43.5v-108q0 -77 -13 -201v-8q-1 -5 -4 -27.5t-4.5 -31.5t-6.5 -24t-11 -26l-15 -18q-1 -2 -8.5 -11.5t-9.5 -12.5t-9 -11.5t-11 -12t-11.5 -9.5t-13.5 -9t-14 -6t-17 -4l-16 -6q-10 0 -29 -7 t-43 -7h-65q-104 -3 -168 61l-25 25q-28 28 -43.5 87t-15.5 128q0 16 2 49t2 51v14v19q0 64 -5 170.5t-5 157.5q0 7 1 20.5t1 20.5v55q-2 14 -2 33q0 17 1 49t1 53q0 126 -4 170zM100 1421q-6 0 -8 2q2 0 4 2q4 0 4 -4z" />
<glyph unicode="V" horiz-adv-x="1046" d="M319 805q13 -26 19.5 -70t13.5 -61q2 -10 29 -115l20 -84q12 -34 23.5 -81t18 -80t18 -93.5t16.5 -85.5q12 -4 23 -4h18q2 2 23 2l10 35q3 8 8 26t8 27l17 45q0 3 2.5 10.5l3.5 10.5l6 22l4 21l10 41q1 5 10.5 31t8.5 44l4 23q3 25 15.5 58t15.5 51l34 141l31 129 q3 8 8 55q4 28 37 168l14 70q0 1 9 25.5t18.5 57t9.5 54.5l4 25q4 51 17 51q12 0 12 -11q0 -3 -0.5 -4.5t-1.5 -3t-2.5 -6t-3.5 -12.5l-27 -121q-5 -22 -15 -64t-13.5 -58t-8 -41t-6.5 -48v-16l-6 -23q-6 -18 -6 -20l-10 -49q-3 -17 -12 -47.5t-11 -41.5q-17 -61 -43.5 -182 t-42.5 -182l-37 -133l-12 -43q-1 -1 -4 -10l-21 -74q-8 -38 -22 -55h-2l-12 -2t-9.5 -2t-5.5 -1q-18 0 -38 2.5t-25 2.5l-2 2q-10 62 -24.5 126.5t-36.5 152.5t-33 134l-33 138q-5 19 -17 64.5t-18 70.5t-14.5 64t-14.5 73q-3 12 -7 35t-7 35l-14 40q-3 13 -13.5 42.5 t-13.5 46.5l-4 36q0 25 -12 62v12q-2 2 -2 17l-7 12q-2 4 -4 12v12q-1 0 -5.5 14t-4.5 19v4l2 2q29 0 29 -49l12 -29q0 -12 2 -14v-10q2 -4 4 -12l4 -33q0 -39 10.5 -83t30 -101.5t27.5 -88.5q12 -76 24 -110z" />
<glyph unicode="W" horiz-adv-x="1478" d="M762 1241l-4 14l-29 -2l-14 -63q-2 -12 -6.5 -45t-8.5 -51l-67 -346l-19 -89l-22 -114l-29 -142l-2 -4q-6 -30 -26.5 -109t-28.5 -124q-3 -31 -35 -31q-4 0 -12.5 2t-12.5 2q-1 0 -4 -0.5t-8.5 -1.5t-11.5 -2q-28 0 -40 26.5t-13 63.5t-2 39q-1 4 -2 8.5t-2 7t-1 3.5 l-16 96q-4 45 -8 61l-16 88q-3 12 -7.5 34.5t-7.5 33.5l-33 152q-14 51 -27.5 158t-23.5 151q0 23 -6 41l-24 139l-7 45q0 5 -6 25.5t-6 42.5q0 14 16 14q11 0 11 -27l16 -102q12 -79 39.5 -235t40.5 -240q6 -43 18 -82l29 -146l12 -69q16 -110 25 -156l25 -135q2 -2 2 -14 q4 2 22 2h47q6 10 10 37l56 233q28 115 28 141l31 140q7 33 30.5 164t43.5 208q8 22 13 62.5t9 56.5l19 70h57l21 -74q5 -25 39 -172t43 -229q3 -15 9.5 -62t14.5 -71l17 -86q2 -12 8 -61t14 -77l31 -135q2 -25 16 -65l4 -21q3 -10 7.5 -41t9.5 -41l30 -4l21 2 q9 51 44.5 210t45.5 243l51 321q2 13 9 80.5t10.5 93.5t11 78t15.5 91t18 77v6q5 21 18 21l6 -2v-6q0 -5 -2 -15.5t-2 -15.5q-23 -118 -31 -217l-6 -66q-5 -34 -8 -41l-6 -35q-8 -73 -31 -196.5t-31 -188.5l-4 -20q-9 -71 -24 -135l-15 -62q-28 -111 -36 -166q0 -16 -2 -18 l-15 -57l-20 -2l-62 6q-8 17 -15.5 60.5t-14.5 58.5l-7 14q-7 17 -12.5 43t-11 61.5t-8.5 51.5q-6 23 -11 49t-10 59t-8 51l-21 111q-14 40 -28.5 143t-26.5 156l-16 72q-3 16 -10 43.5t-11.5 50t-7.5 43.5z" />
<glyph unicode="X" horiz-adv-x="1034" d="M795 88l-25 57l-6 21q-4 8 -20 48t-22 53.5t-20.5 46.5t-24 52t-23.5 45t-27 48q-18 31 -52.5 101.5t-56.5 105.5q-8 -20 -53 -117l-51 -113q-20 -41 -55 -118.5t-52 -112.5l-37 -78l-6 -16q-1 -2 -7 -18.5t-11 -24.5l-2 -2q-6 -9 -15 -9h-2l-2 2q-4 12 -4 13q0 9 12 24 l7 8q15 63 49 121l14 29q19 34 50 107.5t50 113.5l33 68q7 13 66 155q-34 79 -107.5 232.5t-107.5 232.5l-37 86l-37 82q0 3 -6 14t-6 17q0 4 2 6t5 4l3 2q9 0 25 -33l45 -104q38 -89 116.5 -256t114.5 -250q113 283 211 492l41 77l47 78l4 2q6 0 12 -6l2 -2 q-1 -10 -10.5 -24.5t-9.5 -16.5q-26 -36 -47 -86l-14 -35q-97 -199 -222 -512q20 -45 80 -153l23 -41q14 -33 50 -97t54 -108l70 -172l20 -39q0 -3 6.5 -14t6.5 -19q0 -10 -7 -10h-4q-8 1 -24 35z" />
<glyph unicode="Y" horiz-adv-x="1032" d="M827 1376h2l2 -6l-10 -31l-4 -12l-2 -6l-49 -137l-33 -84q-95 -235 -119 -283l-65 -153q-12 -20 -12 -48q0 -8 2 -25.5t2 -25.5q0 -69 -5.5 -211.5t-5.5 -197.5q0 -23 2 -29v-41q0 -3 1.5 -5t1.5 -5q0 -13 -17 -13h-4q-6 5 -6 25q0 1 1 4t1 4l-4 41q0 5 -1 14.5t-1 14.5 q0 46 4 142.5t4 144.5q0 72 -4 182q-35 40 -49 80l-4 6q-14 30 -32 86t-28 80l-43 119q-7 19 -45.5 120t-62.5 160l-29 68q-8 5 -8 16q0 1 1 3t1 3l12 6q12 0 80 -182l76 -184l49 -139q2 -6 7.5 -24t9.5 -30t10 -31.5t11 -33.5t11.5 -31t12 -28.5t11 -22.5t10.5 -16t9 -5 q1 0 13 32.5t31.5 78.5t33.5 72l10 20q12 22 23 48t24.5 60.5t20.5 51.5l37 94q6 17 18 46.5t22 56t17 51.5l31 86q2 3 4.5 8.5t4 9.5t5 7t6.5 3q4 0 8 -4z" />
<glyph unicode="Z" horiz-adv-x="913" d="M750 121h8q16 0 16 -17v-2q-9 -6 -18 -6h-8q-2 2 -7 2h-2q-14 2 -47 2h-65h-11q-9 0 -29.5 -1t-29.5 -1h-39l-12 2l-9 1.5t-5 0.5h-9q-11 0 -32 -2t-33 -2h-21h-53h-20q-5 0 -15.5 -1t-15.5 -1q-3 0 -8.5 1t-8.5 1t-7 -1t-7 -1q-1 0 -4 1t-4 1h-29q-3 0 -8 -2t-8 -2 t-11 1t-12 1h-6q-4 4 -4 15q0 4 1 14t1 14v4q0 3 1 7.5t1 7.5v4q23 53 31 76l35 79q47 86 121 239t86 177q72 141 129 291q14 44 63 143l17 33q28 62 57 103v26h-35q-12 0 -34 1t-34 1q-11 0 -33.5 -1t-35.5 -1q-11 0 -32 1t-32 1t-31 -1t-32 -1q-9 4 -35 4h-25 q-65 0 -104 2q-9 0 -25.5 -1t-25.5 -1h-12q-9 0 -11 -2q-6 1 -14 2.5t-11.5 2t-7 2t-5 4t-1.5 6.5q0 6 2 8l2 2h15q15 0 48.5 2t51.5 2q12 0 34 -3t34 -3t31 1t30 1q25 0 79 -2t79 -2q30 0 92 4q10 -2 47 -2h21q24 0 34 -8l2 -2q-2 -4 -2 -23v-18q0 -4 -20.5 -40t-20.5 -40 q-6 -11 -20 -43l-12 -29q-33 -53 -74.5 -160t-56.5 -139q-19 -56 -68 -139q-30 -55 -74 -149t-67 -138l-8 -16q-29 -67 -62 -125l-33 -84q-3 -3 -4 -7.5t-4 -7.5l-16 -26q-4 -16 -4 -17q0 -4 4 -24q7 0 22.5 2t22.5 2q27 -2 88 -2h117q16 0 45.5 -1t42.5 -1q17 0 34 1t27 1 q13 0 46 1t57 0.5t45 -3.5z" />
<glyph unicode="[" horiz-adv-x="509" d="M367 1616h8q18 0 24 -6h2l-2 -2q0 -17 -18 -17q-14 0 -20 2t-7 2h-16q-23 0 -37 -2h-61q-33 0 -40 -7q-10 -9 -10 -36q0 -8 1.5 -24.5t1.5 -24.5v-78q0 -29 3 -90.5t3 -93.5q1 -15 -0.5 -45t-1.5 -41v-90q0 -53 -5.5 -156t-5.5 -151q0 -14 1 -39t1 -39q0 -24 -2 -75 t-2 -75q0 -5 1 -15t1 -15v-68q1 -13 -0.5 -59.5t2.5 -59.5l5 -32q4 -36 4 -56q0 -17 -1 -48t-1 -46v-145q-2 -18 -2 -56q4 -16 4 -51q0 -14 -2 -18l43 -4q26 -5 84 -5h2q26 0 26 -14q0 -12 -16 -12l-31 4h-8q-18 2 -62 3t-61 7l-2 2q-4 12 -4 13q0 5 4 16t4 18q0 9 -3 29 t-3 27q0 4 2 15.5t2 18.5v107v90q0 104 -4 135l-2 4q-4 44 -4 205q0 132 2 187v10q0 55 3 160t3 147q0 5 -1 15.5t-1 15.5v80q4 4 4 79q0 26 -3 97t-3 114q0 52 4 146v12q0 14 7 22t22 10.5t30 3t39 0.5t41 1h21q23 0 37 -2z" />
<glyph unicode="\" horiz-adv-x="899" d="M692 98q0 -4 5 -14t5 -14q0 -8 -10 -11l-8 2l-12 33q-6 19 -14.5 41t-18.5 48.5t-16 41.5l-37 94q-5 12 -13 35.5t-15 41.5t-13 26l-76 205q-5 12 -28.5 78t-41.5 98q-47 110 -127 313t-98 248l2 2l4 4q4 4 10 4l3 -2q5 -9 14 -35.5t22 -44.5l50 -123q4 -9 11.5 -28 t10.5 -27l68 -168q12 -36 22 -59l27 -62q49 -110 102 -268l29 -86l37 -80l37 -98q6 -15 23.5 -58.5t28 -74t17.5 -62.5z" />
<glyph unicode="]" horiz-adv-x="507" d="M342 362q0 -28 3 -81t3 -80q0 -15 -1 -47t-1 -48v-24q0 -18 -2 -53t-2 -52v-40q0 -58 2 -89l-2 -4h-74q-85 0 -106 -4h-17q-24 0 -24 19v2q4 4 8 4q1 0 4 -1t4 -1h6q23 0 76.5 3t79.5 3h18v72v32q0 34 3.5 99.5t3.5 109.5q0 14 -5 121v10q-8 73 -8 162q0 52 2 149.5 t2 149.5v176q0 43 2 66v133q-2 23 -2 68q0 33 3.5 104t3.5 113v63v33q0 36 -5 55q-98 4 -127 4h-20q-11 0 -23 6v2q0 1 -1 3.5t-1 3.5q0 3 9 12h2q62 -4 92 -4h37q43 0 55 -4l2 -2q4 -21 4 -93q0 -38 -3 -115t-3 -114q0 -35 2 -51v-115q-6 -141 -6 -276q0 -22 1 -64t1 -63 q0 -37 -1 -108t-1 -107q0 -24 3 -69t3 -69z" />
<glyph unicode="^" horiz-adv-x="1040" d="M195 838q-11 0 -11 10q0 13 27 55.5t67 102.5t60 98l141 223l10 23h46l32 -58l78 -137q71 -128 107 -186l4 -8q30 -51 57 -87l6 -8q12 -15 12 -22q0 -13 -14 -13h-2q-3 1 -6 4.5t-7 8.5t-7 8l-4 8q-37 47 -101 160l-33 59q-51 86 -61 111l-74 135h-16 q-125 -180 -289 -471q-16 -16 -22 -16z" />
<glyph unicode="_" horiz-adv-x="854" d="M166 -68h86q60 0 159 4.5t142 4.5q40 0 104 -2t91 -2h4q32 0 32 -13q0 -14 -34 -14q-23 0 -33 2h-115q-35 0 -49 2h-35q-79 0 -178 -6h-10q-4 -2 -33 -2q-8 0 -25.5 1t-25.5 1h-70q-26 0 -104 -4h-6q-6 0 -9 1t-5.5 5.5t-2.5 13.5q0 3 17 6h6q25 2 94 2z" />
<glyph unicode="`" horiz-adv-x="344" d="M143 1812q8 0 21 -30l20 -27q7 -15 29 -51l16 -27q13 -22 13 -28v-2q-7 -7 -11 -7q-10 0 -19 14t-9 25l-4 9q-8 13 -23 35.5t-26 41t-17 35.5l-2 6q6 6 12 6z" />
<glyph unicode="a" horiz-adv-x="1034" d="M827 178l11 -39q0 -1 3 -16t3 -19q0 -8 -8 -8q-9 0 -13 4v-2q-4 3 -6.5 9t-5 15.5t-4.5 14.5l-10 51q-6 36 -14 73t-17 80t-14 65q-65 0 -208.5 -7.5t-217.5 -7.5q-12 0 -32 1t-32 1l-39 -186q0 -1 -1 -6t-1 -8v2q-1 0 -3.5 -18.5t-2.5 -29.5l-6 -49q-3 -12 -16 -12 q-10 0 -13 8q2 14 8 54.5t9 60.5l18 100q3 9 8 47l15 70v-2l22 90v-2q21 80 53 245.5t47 227.5q7 53 46 182v-2q4 16 9.5 44t10 50t10 44t12.5 34.5t15 12.5h6q8 0 10 2h33l31 -6l49 -166l4 -13v2l31 -116q5 -23 16.5 -65.5t13.5 -49.5l25 -90q23 -80 29 -107v2 q14 -48 26 -108l17 -82q3 -12 7 -38t7 -38l6 -39q8 -45 21 -98v2q8 -28 17 -82.5t15 -81.5zM279 471l-15 -51q12 0 36 -1t36 -1q69 0 203.5 8t210.5 8q-17 103 -44.5 213t-67 254t-56.5 209l-19 72l-8 24v-2l-33 115h-26q-3 0 -10.5 1t-10.5 1l-8 -2q0 -19 -3 -38.5 t-7.5 -34.5t-8.5 -26.5t-7 -18.5l-3 -7q0 -1 -1 -3t-1 -3l-12 -58q-8 -32 -22.5 -94t-23 -98t-19.5 -88t-19 -98q-11 -73 -61 -283v2zM260 420l4 -4v4h-4z" />
<glyph unicode="b" horiz-adv-x="1015" d="M817 477v-2q4 -28 4 -43q0 -33 -2.5 -57.5t-5 -34t-8.5 -25t-8 -20.5l-6 -14q-3 -5 -6.5 -16.5t-6.5 -16.5l-12 -19h2q-17 -38 -72 -63v2q-6 -6 -10 -9t-6 -3.5t-6 -1t-6 -0.5l-37 -11q-35 -10 -78.5 -13t-101.5 -3.5t-95 -3.5h-47q-8 2 -30 2h-19q-11 0 -22 5t-11 11 q0 2 2 4q0 3 -2 8.5t-2 8.5q0 8 3 20.5t3 14.5v114q0 70 -2 210t-2 214q0 80 4 103q0 32 -2 90.5t-2 62.5v41q0 7 1 20.5t1 20.5t-1 21.5t-1 21.5v39q0 19 5.5 62t5.5 65v14q0 1 -1 3.5t-1 3.5q0 11 8 22h20q11 0 27 4h12q21 0 63 2t62 2q70 0 141 -12t109 -35l12 -12 q66 -66 84.5 -124t18.5 -134q0 -62 -20.5 -122.5t-39.5 -86.5l-18 -21h2q-27 -44 -53 -59q16 0 61 -45h-2l14 -18l19 -19q3 -10 16 -27h-2l12 -16q9 -11 21 -61l6 -25q0 -31 8 -39zM791 393q0 34 -3 68v-2q-10 10 -10 51q-5 5 -12 24t-11 36t-3 18q-3 3 -15.5 26.5 t-17.5 30.5h2l-10 12q-5 0 -9 7l-14 12v-2q-6 4 -15.5 11.5t-14.5 11.5t-13 7t-16 3q-9 0 -28 -3.5t-28 -3.5h-317q-2 -39 -2 -116q0 -50 2 -147t2 -144v-92q0 -9 -2 -11v-34h2h14q3 -1 6 -3l5 -1q4 0 6 2q3 0 7.5 -1t8.5 -1h115q140 0 235 26q1 0 4.5 1t4.5 1l20 8l12 9 q14 5 35 26l8 10l-2 -2q0 3 6 9h-2q6 6 13.5 20t7.5 21l18 57q11 26 11 55zM258 1253v-12q-2 -23 -2 -61v-449q28 0 78 -1t74 -1h163q34 0 58 8v-2q0 -1 2.5 1t9.5 9q7 4 13 9t15.5 15t12.5 13l8 9h-2q4 8 8 12q70 111 70 223q0 45 -16 111h2q-9 9 -9 24v-2 q-18 30 -40.5 53.5t-42 38.5t-52 25.5t-52 16t-61 8t-61 2.5h-69.5h-10.5h-9.5h-11h-51q-21 0 -21 -13v-4l-1 -6q-1 -5 -2 -13t-1 -14z" />
<glyph unicode="c" d="M752 408v-119q-2 -27 -19 -60l-10 -14h2q-32 -70 -86 -88v2l-14 -10q-62 -21 -74 -23l-27 -4q-21 -8 -53 -8h-18q-120 11 -172 78h2l-19 16q-12 12 -22 41h2l-13 19q-6 13 -18 77v19q0 7 -4 29t-4 34v23q-4 78 -4 125q0 55 2 78v12q-2 2 -2 14v21q-4 86 -4 143q0 17 1 49 t1 47v27q0 129 8 192q0 12 17 68l7 25q0 3 7 10h-2q42 86 133 115q9 0 48.5 10t63.5 10q117 0 179 -64.5t73 -175.5v-16q0 -8 1 -19t1 -16q0 -24 -22 -24q-6 30 -6 36v19q-2 32 -9 62t-23 62t-40 55.5t-62.5 38.5t-87.5 15q-27 0 -79 -10h2q-40 -16 -58 -24.5t-44 -29 t-40 -48.5l-6 -10h2l-10 -25q-4 -4 -4 -14l-4 -17q-17 -53 -17 -92q0 -33 2 -49q0 -51 -2 -74v-22q0 -16 -1 -50.5t-1 -52.5q0 -49 4 -147v-21q0 -10 2 -12v-14q0 -23 -2 -69t-2 -69q0 -48 2 -71v-10q0 -44 15 -111l18 -61l21 -37q43 -43 85 -62.5t109 -25.5h8q24 0 66 14 l33 8q81 21 118 96l11 15h-2q16 29 16 75q0 9 -1 30t-1 30q0 45 14 45q13 0 13 -16z" />
<glyph unicode="d" horiz-adv-x="985" d="M248 1319l2 4q26 10 88 14h16h29q174 0 227 -24l19 -6q31 -7 52.5 -22.5t45.5 -45.5h-2q32 -32 48 -101t16.5 -139.5t1.5 -139.5t2 -101q4 -50 4 -78v-74q-2 -16 -2 -45q0 -18 1 -52t1 -50q0 -66 -6 -97l-15 -69q-2 -5 -6.5 -17t-7.5 -18l-12 -31q-20 -47 -71.5 -78.5 t-105.5 -31.5h-12q-15 -4 -67 -4h-23q-20 -1 -53.5 1.5t-46.5 2.5h-35q-53 0 -80 -2l-12 12v31q0 3 1 10t1 10v25q-4 20 -4 28v27q0 14 -1 45t-1 45q0 32 2 96t2 101q0 17 -1 53t-1 53q0 86 2 133v258q0 44 2 137t2 140zM451 141h24q55 0 70 4q4 -2 30 -2q46 0 84.5 25.5 t59.5 67.5l14 30l12 31q0 1 1 2.5t2 5t2 6.5l6 15q0 20 7 54.5t7 51.5q-2 14 -2 41v82q0 7 1 18.5t1 18.5q0 6 -4 26v35q0 126 -14 418q-1 8 -4.5 35.5t-8 47.5t-12.5 34l-14 22h2l-23 27q-8 10 -23.5 21.5t-27.5 11.5q-22 4 -65.5 16t-82.5 17.5t-98 5.5q-55 0 -119 -9 v-135q-4 -328 -4 -469v-278q-2 -31 -2 -88q-1 -18 0.5 -46.5t1.5 -39.5v-68q2 -8 2 -31h15q3 0 6 1t6 1h41q18 0 55 -3t54 -3z" />
<glyph unicode="e" horiz-adv-x="997" d="M748 1317h55q26 0 26 -17q-3 -10 -20 -10h-59q-56 0 -140 4t-98 4l-100 5q-8 0 -27 1t-31 1h-30q-4 -2 -31 -2h-27q0 -28 -3 -80.5t-3 -77.5q0 -41 5 -123.5t5 -124.5q0 -4 -1 -12.5t-1 -12.5v-65q2 -23 2 -64l295 -6q18 2 58 2h36q4 -4 22.5 -5t18.5 -11q0 -14 -12 -14 q-1 0 -28 3t-50 3q-38 0 -61 -2l-217 4h-58q-2 -18 -2 -55v-29q0 -13 -3 -40t-3 -40q0 -7 1 -19.5t1 -19.5l-4 -180q0 -19 2 -27v-18q0 -111 2 -152h45q23 0 71 2t71 2h98q35 0 113.5 -3t124.5 -3h2q22 0 25 -9q1 -3 1 -7q-2 -8 -24 -8h-7q-25 0 -76 4t-89 4q-28 1 -81 -1.5 t-73 -2.5h-80q-23 -2 -57 -2h-29q-5 0 -15 -1t-14 -1q-7 0 -11.5 0.5t-8 1t-5.5 3t-3 3.5t-1.5 6.5t-0.5 8.5v12v14v6q0 8 -1 26t-1 27v117q0 24 2 72t2 73q0 22 -2 37.5t-2 20.5q0 28 4 74t4 71q0 19 -2 33v28q-6 49 -6 103v51q0 43 -4.5 126t-4.5 122q0 15 5 92v23 q0 4 1 15t1 19q0 4 -1 7t-1 4q0 16 7.5 20t24.5 4q8 0 25 -2t24 -2q4 2 25 2h10q49 -2 163.5 -3t178.5 -7q14 -2 52 -2z" />
<glyph unicode="f" horiz-adv-x="987" d="M254 143q0 32 -3 95.5t-3 89.5q0 8 1 18t1 14l4 121q1 26 4.5 102t3.5 117q0 32 -3 97t-3 94q0 47 4 133.5t4 126.5v35v61q0 69 4 90h2q50 4 76 4q52 0 168.5 -5t194.5 -5h4q42 0 65 -2h6q37 0 37 -16q0 -3 -1 -5t-1 -3h-2q-5 -5 -12 -5h-10q-3 3 -9 3q-68 8 -208 8h-21 q-38 0 -113.5 2t-113.5 2h-37q-6 -47 -6 -158q0 -11 1 -29t1 -30q0 -31 -3 -95.5t-3 -97.5q0 -25 3 -80t3 -84v-4q14 2 41 2q21 0 63 -2t66 -2h39h14q24 0 70 4t67 4q58 0 58 -16q0 -12 -35 -12h-33q-7 0 -17.5 1t-17.5 1q-22 1 -66 -3t-65 -3l-80 4h-41q-3 0 -10.5 -1 t-11.5 -1q-7 0 -20.5 1t-20.5 1l-4 -64q0 -39 -5.5 -130t-5.5 -146q0 -36 3.5 -103.5t3.5 -115.5q0 -84 -19 -84h-6q-6 6 -6 26q0 7 2 22.5t2 22.5z" />
<glyph unicode="g" horiz-adv-x="946" d="M770 135l4 -24q0 -3 3 -13t3 -16t-10 -6t-18 23.5t-13 51.5t-6 29q-2 4 -7 15.5t-9 17.5l-45 -51q-58 -66 -176 -66q-126 0 -174 29l-35 20q-45 23 -64.5 76.5t-19.5 114.5l-4 31q0 5 -1 15t-1 15l-4 31q2 18 2 51q0 17 -1 51t-1 52q0 35 2 53q-2 14 -2 35v139q0 4 1 11 t1 11q0 17 -4.5 49t-4.5 48q0 7 2 23t2 28l7 55q5 48 8 56l4 28q10 87 49 142l16 22q29 31 99 59l41 13q18 6 45 6h10q133 0 202.5 -78t69.5 -190v-29v-4q0 -29 -14 -29h-4q-8 0 -8 19q0 5 2 18t2 20q-4 90 -37 134l-31 41h-2q-27 39 -66 54t-112 23q-36 0 -83.5 -17.5 t-87.5 -49t-48 -66.5l-6 -41l-21 -96l-6 -55q-6 -27 -6 -60v-30q3 -13 3 -33.5t1 -26.5v-59v-14q-1 -16 2.5 -46.5t3.5 -48.5v-32q0 -7 -2 -36t-2 -46q0 -41 4 -119q0 -3 -1 -7t-1 -7q0 -13 2 -36t2 -36v-33q0 -23 2 -33v-12q4 -67 29 -94l18 -21q14 -16 29 -24.5 t35.5 -14.5t28.5 -10l41 -6q4 -8 86 -8q81 0 137 37l37 35q19 14 29 35t12 38t2.5 47.5t1.5 44.5q0 7 -1 17.5t-1 17.5q0 27 2 41v49q0 13 1.5 53t0.5 62v45h-19q-15 0 -39.5 2t-31.5 2h-11h-36q-50 0 -50 12q0 15 27 15q19 0 42.5 -4t33.5 -4q35 0 47 4h22q26 0 37 -11 l2 -18q1 -27 -0.5 -78t-1.5 -69v-121v-17q0 -16 -3 -45t-3 -45q0 -22 15 -56.5t18 -49.5z" />
<glyph unicode="h" horiz-adv-x="1064" d="M823 1094v-127q2 -39 2 -119q-2 -85 -5 -285t-7 -291l-4 -73q0 -36 2 -54q0 -40 -2 -63v-2q0 -25 -12 -25h-4q-9 3 -9 17q2 2 2 4v94q0 94 7 209v65q0 33 3 105.5t3 103.5q0 5 1 13.5t0.5 12.5t-2 9.5t-7.5 7.5t-15 2q-4 0 -12 -1t-12 -1h-13q-2 2 -16 2q-10 0 -12 -2 q-4 0 -4 2h-48q-52 0 -173.5 3.5t-180.5 3.5h-35q0 -9 1 -27t1 -27q0 -91 -6 -114q-1 -18 0.5 -49t1.5 -42v-28q0 -16 -2 -48t-2 -48q0 -64 2 -95q-2 -4 -2 -28v-31q0 -27 -2 -31v-24q0 -31 -6 -31q-4 0 -7 2l-3 2h-4q-6 0 -6 25q-3 82 3.5 170t6.5 135v37q0 14 -1 36.5 t-1 34.5q0 26 4 78t4 76q0 7 -3 20.5t-3 20.5l-4 35q0 6 1 13t2.5 15t2.5 13q0 21 -2 65t-2 68v22v121q-2 23 -2 66q0 23 2 69.5t2 71.5q0 12 -1 37t-1 37v2v8q0 16 8 16q10 0 13 -6t3 -26v-9v-45q0 -31 -2 -97t-2 -101q0 -7 1 -20.5t1 -20.5l4 -133q0 -4 -1 -13.5t-1 -13.5 q2 -31 2 -84v-27q0 -7 -1 -21.5t-1 -21.5q0 -18 477 -18h54q4 46 4 55q0 11 -1 33t-1 35v86q0 186 -6 282v41q2 14 2 43q-4 4 -4 43q0 18 12 27h2q12 -6 12 -16q0 -3 -1 -5.5t-1 -5.5v-67q0 -5 -1 -15.5t-1 -15.5q0 -26 4 -74.5t4 -72.5z" />
<glyph unicode="i" horiz-adv-x="524" d="M250 561q0 32 -3 89t-3 85v113q6 117 6 395v21q-2 14 -2 41q0 10 2 12q0 3 -1 9t-1 9q0 8 10 15h10q4 -12 4 -15t-1 -9.5t-1 -10.5v-164q-6 -153 -6 -322q6 -48 6 -143t2 -133v-217q0 -4 -1 -13.5t-1 -13.5q0 -23 4.5 -69t4.5 -70q0 -18 -3 -39v-39v-10q0 -9 -6 -12h-2 q-6 0 -10 4l-2 2v39q2 14 2 45q0 28 -3.5 80.5t-4.5 70.5q0 5 1 15.5t1 15.5v127q0 61 -2 92z" />
<glyph unicode="j" horiz-adv-x="991" d="M217 438v78q0 35 12 41q4 2 9 2h2q4 -4 4 -14v-10v-7q0 -18 -3 -69t-3 -80q0 -37 3 -65.5t14.5 -63.5t31.5 -57.5t57 -38t88 -15.5q16 0 62 4l24 4q32 0 62 13l34 14q97 53 97 262v21l4 30q0 95 6 105q-4 54 -4 82q0 17 1 52.5t1 55.5l-4 45q-8 78 -8 289q0 64 4 174 l-78 4q-14 0 -46.5 1t-54.5 1h-143q-24 0 -24 17q3 8 22 8h191h28q39 0 51 -4h35q45 0 45 -14q0 -33 -4 -101t-4 -92q0 -63 8 -211t8 -248q0 -19 -3 -60.5t-3 -70.5v-37q0 -7 -1 -18.5t-1 -18.5l-4 -73q-3 -48 -10.5 -84t-19 -57.5t-19 -32.5t-20.5 -21l-13 -10l-30 -16 l-50 -21l-71 -12q-62 -4 -80 -4q-98 0 -152.5 73.5t-54.5 173.5q0 14 2 39t2 37z" />
<glyph unicode="k" horiz-adv-x="1048" d="M823 117q0 -7 10.5 -21.5t10.5 -21.5q0 -11 -13 -11q-11 0 -61 102.5t-84 184.5l-51 96l-203 388q-11 -11 -47.5 -49.5t-64 -65t-54.5 -45.5q-2 -14 -2 -41q0 -17 2 -52t2 -53q0 -9 -1 -27.5t-1 -27.5q0 -37 2 -110t2 -105v-43q0 -17 1 -49t1 -49v-33q0 -16 -8 -16 q-16 2 -16 45q0 11 2 32.5t2 34.5q0 23 -2 29v31q-2 23 -2 59q0 5 1 15.5t1 15.5q0 34 -3 58t-3 34v49q0 11 1 30t1 31q0 28 -2 81t-2 77t3 68t3 67t-3 72t-3 74q0 17 2 49t2 49v283v12q0 18 16 18h2q6 -6 6 -28v-25v-219q0 -22 -2 -62.5t-2 -60.5q0 -27 2 -79.5t2 -80.5 q0 -91 -4 -120q53 35 129 124l74 91l18 22q41 48 68 100l16 25q20 31 35 49l17 21q21 27 58.5 78.5t53.5 72.5l43 70q12 20 21 20q3 0 7.5 -3.5t4.5 -8.5q0 -3 -16 -31v-2q-9 -13 -23.5 -37t-23.5 -36q-11 -15 -42 -51t-50.5 -63t-26.5 -46l-37 -45q-7 -11 -26.5 -43.5 t-33.5 -53.5t-32 -42l-49 -62q42 -93 139.5 -273t142.5 -278l27 -57q39 -92 63 -131z" />
<glyph unicode="l" horiz-adv-x="890" d="M287 106h-23h-7.5t-5.5 1t-5.5 4t-1.5 8q0 4 1 10.5t1 9.5v39q0 24 2 70t2 69q0 437 -12 621q-1 15 -3 45.5t-2 43.5v42v88v39q0 15 1.5 47t1.5 49q0 10 -5 72q4 12 11 14h8q6 -6 6 -18v-10q4 -36 4 -56q0 -11 -1 -34.5t-1 -36.5v-58q0 -15 -1.5 -59t-0.5 -66l12 -270 q0 -79 3 -195t3 -182q0 -44 -2 -69v-66q0 -8 -1 -19.5t-1 -19.5v-86q23 0 73 2t75 2q23 0 75 -3t78 -3q28 0 74 4h35q18 0 20 2h27q23 0 23 -10q0 -14 -13 -14h-16q-17 0 -48 -2t-48 -2h-131q-66 4 -86 4q-94 0 -121 -7z" />
<glyph unicode="m" horiz-adv-x="1351" d="M1128 797v-232q0 -103 -10 -174v-29q0 -10 -1.5 -42t-0.5 -50v-6q0 -18 -3 -52t-3 -50q0 -12 2 -28.5t2 -24.5q0 -43 -10 -43h-1q-3 0 -5 0.5t-4 2.5t-3 8.5t-1 16.5q2 2 2 10q0 9 -3.5 28.5t-3.5 27.5q0 26 4.5 84t4.5 94v16q0 5 -1 13t-1 12q0 34 8 113.5t8 113.5 q0 37 -2 108.5t-2 108.5q0 15 1 45t1 45l-4 187q-3 38 -2 106t-2 103q-6 0 -31.5 4t-38.5 4h-12q-2 -4 -8 -33l-17 -57q-6 -11 -10 -24t-7.5 -32.5t-4.5 -25.5l-6 -12q0 -1 -1 -3.5t-2 -7t-2 -8.5l-16 -49l-39 -117q-16 -30 -28 -66.5t-24.5 -83.5t-19.5 -69l-34 -88 q-5 -22 -16.5 -52t-14.5 -40l-21 -66l-18 -61q-4 -6 -10 -25l-8 -14q-5 -6 -9.5 -21t-11 -25.5t-18.5 -10.5q-15 0 -22 12t-13 35l-8 22q0 33 -19 76.5t-20 50.5q-16 57 -32 111t-24.5 81.5t-11.5 41.5l-16 55q-29 79 -35 111l-43 127l-20 59q-2 4 -11.5 30t-13.5 40 l-35 114q-3 15 -20 15h-11h-55q-2 -16 -2 -45t2 -43q0 -62 -2 -93v-149q0 -18 -1 -51t-1 -49q0 -79 4 -101v-37q0 -34 2 -96.5t2 -95.5v-41v-25q0 -7 -1 -18.5t-1 -18.5v-34q2 -4 2 -27q0 -17 -3 -60.5t-3 -74.5v-8q-4 -7 -4 -82q0 -12 3 -33t3 -33v-8q0 -16 -10 -16 q-14 0 -14 16v10v10q-5 12 -5 43q0 158 9 314v51q0 70 -5.5 206t-5.5 200q0 46 2 71v33q0 28 1 77t1 77v36q0 3 1.5 10.5t1.5 10.5t-1.5 10t-1.5 10v19v18q0 21 9 29t43 8q8 0 25.5 -1t25.5 -1q16 0 20 2l21 -49l80 -246q9 -28 34.5 -105t38.5 -122l48 -164q0 -3 1 -6t1 -4 l14 -53q3 -7 7 -23.5t7 -24.5l35 -94l10 -43q5 -23 17 -43l22 56l29 83q30 64 86.5 249t71.5 214l12 31q4 5 5 13.5t1 9.5l6 20l23 72l28 88q3 24 16 60.5t13 43.5q3 8 4 22.5t5.5 21.5t19.5 7q17 0 49 -4l35 -4l5 1q5 1 9 1q14 0 14 -96q0 -23 -1 -57t-1 -49q0 -25 4 -75 t4 -73v-51q0 -20 -1 -56t-1 -55v-26z" />
<glyph unicode="n" horiz-adv-x="1095" d="M221 133l-4 53q0 10 -1 28t-1 24q0 20 3 61t3 61v15q0 25 5 77t5 78q0 22 -4 72v78q0 16 1 43.5t1 40.5q0 66 -4 197t-4 196q0 121 2 184h2q15 15 45 15h17l73 -174q59 -121 107 -248l98 -227l62 -150q4 -10 15 -38t20 -44l26 -63q2 -2 8 -21l17 -39q1 -3 4 -7t4 -7 l31 -74l28 -65q24 -60 33 -76h21q2 66 2 186v119q0 29 -2 43v39q0 42 -3.5 107t-3.5 100v18q0 27 -2 83t-2 83q0 32 6.5 102.5t6.5 108.5v4q0 16 2 50.5t2 52.5q0 17 -2 50t-2 50q0 9 4 37l2 2q4 4 8 4q6 0 8 -2h2q4 -12 4 -14q0 -4 -2 -12t-2 -11l4 -53q0 -10 1 -27t1 -24 q0 -21 -3 -62t-3 -61v-15q0 -31 -6 -92t-6 -92q0 -29 2 -43v-78q0 -82 5 -239t5 -238q0 -121 -2 -184h-2q-10 -13 -22 -13q-8 0 -21 3.5t-18 3.5l-74 165q-9 22 -33.5 76t-42 94.5t-31.5 77.5l-79 189l-19 39q-32 75 -50 120.5t-20.5 54.5t-7.5 20t-18 36l-27 63q-1 1 -8 21 l-16 39q-1 3 -4.5 7t-4.5 7l-30 74l-29 65q-24 60 -33 76h-2q-3 0 -6 -1t-6 -1q-4 0 -6 2q-2 -66 -2 -186v-119q0 -29 2 -43v-39q0 -20 2 -53t2 -49q0 -17 -1 -51t-1 -54v-18q0 -31 2 -92t2 -92t-4 -96t-4 -97v-4q0 -18 -3 -51t-3 -51t2 -51.5t2 -49.5q0 -23 -2 -37l-2 -2 q-4 -4 -9 -4q-6 0 -8 2h-2q-4 12 -4 15q0 4 2 11t2 11z" />
<glyph unicode="o" d="M776 504l-8 -139q0 -3 -2 -6.5t-2 -6.5q0 -2 2 -4q-3 -10 -7.5 -30t-6.5 -29l-7 -29q-20 -74 -81.5 -113t-143.5 -47l-41 -4h-18q-105 0 -182.5 80t-77.5 186q-6 55 -6 109q0 11 1 30t1 31v107q0 25 -3.5 74t-3.5 73q0 57 5 78l4 107q2 14 4 77.5t10 96.5l8 39 q20 103 121 151l41 13q41 8 96 8q27 0 99 -13l36 -14q138 -71 138 -201v-18q0 -5 1 -14t1 -13v-77q0 -72 9 -212t9 -212zM700 223q4 4 8 11t8 16t7 14l8 33q5 34 7 103.5t7 103.5q0 4 -1 13t-1 13v119q-14 229 -14 293q0 45 2 70v26q-4 16 -4 47q0 7 1 19.5t1 19.5 q0 87 -68.5 145t-144.5 58l-92 -4q-29 0 -53.5 -6t-41.5 -12.5t-32 -22t-22.5 -24.5t-16 -29.5t-11 -27.5t-8.5 -29t-6 -23l-6 -39q-6 -35 -6 -106v-54q0 -63 -4 -80v-26q0 -25 -2 -29v-45q0 -58 6 -117v-37v-28v-56q0 -17 1 -48.5t1.5 -50.5t2 -46t5.5 -51q5 -86 72 -151.5 t152 -65.5q173 0 245 104z" />
<glyph unicode="p" horiz-adv-x="978" d="M793 1071q0 -4 1 -12t1 -12v-19q0 -8 1 -25t1 -26q0 -2 -1 -25t-2 -31t-4 -24.5t-8 -28.5l-12 -32q-15 -36 -41.5 -68t-56.5 -45l-25 -10q-15 -6 -36 -10t-35.5 -5.5t-47.5 -4t-49 -3.5h-35q-14 0 -39.5 -1t-37.5 -1q-20 0 -56 4l-49 6q-2 -23 -2 -63q0 -25 3 -72.5 t3 -70.5q0 -12 -2 -33t-2 -33q0 -7 1 -22.5t1 -22.5v-55v-64q0 -88 -4 -115v-14q0 -1 -1 -3t-1 -3q0 -3 1 -7t1 -7v-7q0 -3 1 -7t1 -7q0 -10 -12 -10q-3 0 -5 0.5t-3.5 2t-2 2.5t-1 4t-0.5 4v5.5v5.5v15v4q4 34 4 160v112q0 8 -1 24.5t-1 24.5q0 5 1 16.5t1 16.5v27v10 q0 16 -2 48t-2 48q0 7 1 21.5t1 21.5v68q0 11 -1 30t-1 31q0 9 1 28t1 28q-4 31 -4 141q0 37 2 110.5t2 110.5v49q0 55 7 64q8 8 23 8h25q7 0 22.5 2t32.5 2h29q4 0 12 -1t12 -1h25q17 4 76 4q119 0 204 -79.5t85 -178.5zM772 965q0 3 1 10t1 10q0 112 -19 160t-75 96 q-82 69 -184 66q-45 0 -103 -7q-18 0 -24 3h-35q-3 0 -29.5 -4.5t-40.5 -4.5q0 -64 -4 -203t-4 -210q0 -123 4 -160q41 -8 100 -8q56 3 102 1t94 1.5t77 17.5l29 12q47 20 65 56l14 24q27 44 31 140z" />
<glyph unicode="q" horiz-adv-x="944" d="M223 285v2q-10 42 -10 69v11q0 3 -1 6t-1 6q0 1 1 3t1 3v21q0 12 1 31t1 30q0 40 -4 123.5t-4 128.5q0 123 2 182v8q0 28 -1 86t-1 90q0 108 64.5 174t183.5 66q72 0 134 -19.5t106 -67t44 -116.5q0 -22 -2 -32q6 -16 6 -148q0 -118 -4 -147v-103q0 -14 1 -39t1 -37 q0 -19 -4 -55l-4 -174q0 -11 1 -30t1 -31q0 -48 -15 -83.5t-32 -50.5t-42 -31.5t-32 -23.5q-16 -13 -26 -16q4 -3 8 -17q24 -55 64.5 -156.5t52.5 -131.5l2 -2q14 -14 14 -29q0 -4 -6 -10q-2 -2 -4 -2h-2q-8 0 -17.5 12t-9.5 22l-47 121q-10 23 -29.5 74t-31.5 76l-9 18 q-3 15 -18 15q-16 0 -50 -8.5t-52 -8.5q-24 0 -45 6l-17 6q-126 44 -168 179zM236 385v-14v-21l6 -53l6 -18q58 -95 114 -129q3 -3 9.5 -6.5t9.5 -6.5l35 -14q11 -4 51 -4q41 0 53 4l23 6q64 24 107.5 63t47.5 80q0 23 7.5 45.5t7.5 28.5v33q-2 10 -2 33q0 70 4 212t4 212 v36v46v34q0 51 -2 76v47q-1 7 -3.5 40t-5 46t-12 34.5t-26.5 35.5q-85 67 -201 67q-91 0 -163.5 -43.5t-72.5 -119.5v-2q0 -12 -2 -28t-2 -24q4 -34 4 -149q0 -18 1 -57t0.5 -66t-3.5 -53q0 -62 3.5 -161t3.5 -155q0 -37 -2 -55z" />
<glyph unicode="r" horiz-adv-x="993" d="M262 63h-12q-8 3 -8 56v37v14q0 19 4 47v27q4 17 4 106v19q-1 18 0.5 46.5t1.5 39.5l4 198v35v23v73q0 16 3 42t3 42v64q0 36 2 105.5t2 105.5q0 10 1 49t0 63.5t-5 38.5v21l8 16h90q27 2 80 2q97 0 194 -26l13 -2l21 -11q9 -5 32 -28l13 -19q14 -22 24.5 -51t14 -45.5 t10.5 -56.5q0 -15 2 -17v-16v-19q0 -21 -4 -71v-2q-2 -2 -2 -21q-10 -96 -25 -129q-4 -9 -8 -16l-12 -15q-2 0 -8 -6l-17 -16q-35 -33 -54.5 -43.5t-51.5 -17.5l-29 -7l16 -55q1 -9 15 -41l12 -31q24 -66 69.5 -180.5t69.5 -179.5q4 -12 15 -35.5t12 -36.5l12 -37 q0 -2 5 -11t5 -17t-3.5 -12t-8.5 -6l-4 -1l-2 -2v2q-4 7 -21 58l-22 65l-14 41q-6 16 -53.5 133.5t-71.5 182.5l-31 79l-4 12t-4 15l-19 51q-24 -6 -49 -6q-8 0 -31.5 3t-31.5 3h-31q-39 0 -86 6l-16 4q-2 -2 -2 -18q0 -3 1 -5t1 -5q0 -1 -2 -4t-3 -6q0 -16 3 -19v-18v-33 q0 -18 -5 -135v-19q0 -9 -1 -28.5t-1 -28.5v-18q-4 -62 -4 -91v-43q-6 -44 -6 -81q0 -12 4 -58v-6q0 -3 1 -5t1 -5q0 -1 -0.5 -2t-1.5 -3.5t-2 -4.5zM285 956v-155q0 -41 -2 -64v-14q21 -5 67 -5t66 -3h4q14 -3 27 -3.5t30.5 0.5t24.5 1q51 0 101 21.5t75 49.5l10 11 q2 2 8 7t8.5 8.5t7 12t7.5 21.5t6 33q14 103 14 178q0 121 -69 202l-33 27l-31 12q-19 7 -45 9.5t-62.5 3t-43.5 0.5h-4q-51 0 -76 -2h-92v-13q0 -26 3 -62t3 -54q0 -51 -4 -66v-20q-2 -16 -2 -45q0 -15 1 -45t1 -46z" />
<glyph unicode="s" horiz-adv-x="946" d="M745 1051v-15q0 -20 -12 -20t-12 12q0 1 1 4t1 4v8q-6 65 -12 91l-6 18q-13 40 -40.5 82t-60.5 59l-35 17q-38 14 -75 14h-2q-125 0 -195 -66.5t-70 -166.5q0 -54 19 -113l16 -31l24 -33t24.5 -33.5t23 -28t28.5 -30.5l17 -16q44 -44 67 -62l11 -8q23 -23 69 -59.5 t64 -52.5l49 -56l33 -39q7 -20 25.5 -56t23.5 -56l4 -21q4 -32 4 -47q0 -60 -24 -119l-9 -16q-21 -40 -63 -76l-15 -12q-3 -3 -8 -5t-8 -5l-31 -15q-44 -20 -114 -20q-73 0 -123 22t-90 82l-8 11q-39 53 -39 125q0 15 -2 32t-2 25q0 22 14 22q4 0 6.5 -3t4 -8.5t2 -10.5 t1 -12.5t0.5 -10.5v-20q1 -7 1 -24t1.5 -29.5t5.5 -22.5l17 -39q36 -57 94 -90l20 -8q19 -6 31 -8l17 -4q12 0 34 -1t33 -1q76 0 94 18l29 18q104 64 104 226q0 27 -2 41l-4 20q-6 30 -24 57l-21 27l-41 51l-53 54q-13 12 -48 38t-52 46l-19 16q-63 49 -115.5 105.5 t-72.5 93.5l-10 16q-14 32 -20 47t-10.5 41.5t-4.5 62.5q0 34 17 83t38 79q32 50 93.5 73.5t123.5 23.5q26 0 119 -19l16 -8q36 -15 63 -47.5t40 -68t19.5 -64t6.5 -45.5q0 -7 2 -21.5t2 -21.5z" />
<glyph unicode="t" horiz-adv-x="980" d="M842 1335q2 -2 2 -6q0 -14 -39 -14h-35q-2 2 -10 2h-66q-96 0 -188 -6q-8 -128 -8 -361q0 -31 2 -45v-57q0 -38 -1 -97.5t-1 -84.5q0 -35 1 -101t1 -94q0 -23 -2 -71t-2 -72q0 -5 1 -15.5t1 -15.5v-90q-6 -8 -6 -66q0 -3 1 -9t1 -9v-12v-11q0 -20 -11 -20q-14 0 -14 29v8 q0 19 2 58.5t2 60.5v22v98q0 18 1 45t1 37v17v104q0 11 -1.5 48t-0.5 59v20q2 14 2 35q0 16 -2 42.5t-2 39.5q0 17 4 45v16v15q0 11 -1 34.5t-1 36.5q0 236 6 361q-16 -2 -53 -2q-16 0 -43.5 1t-40.5 1h-125q-2 2 -18 2q-8 0 -23.5 -3t-23.5 -3q-35 0 -35 10q0 3 4 5t4 3h-2 q34 10 92 10h143q25 -2 64 -2q44 0 115.5 4t103.5 4q28 -4 41 -4q9 0 27.5 1t27.5 1h90q11 0 15 -4z" />
<glyph unicode="u" d="M195 1278v29q0 57 12 57q16 0 16 -23q0 -7 -3 -23t-3 -24v-20q0 -23 2 -63.5t2 -65.5v-129q0 -22 -1 -64t-1 -63q0 -40 4 -130.5t4 -131.5v-99v-22v-21q0 -16 -1 -43.5t-1 -40.5q0 -37 10.5 -86t24.5 -75l23 -27q65 -77 170 -80h16h47q8 0 18 1t13 1l45 15q1 0 4 1t4 1 l33 12q10 4 16.5 9.5t15 20t11.5 19.5l24 31q21 30 21 121q12 120 12 340v20v27v10v31q0 22 -2 61.5t-2 56.5v21v51q0 15 -3 47t-3 49q0 5 1 15.5t1 15.5v59q0 189 18 189q13 0 13 -55q0 -24 -5.5 -68.5t-5.5 -65.5q0 -3 1.5 -7t1.5 -7q0 -31 -3 -65q0 -24 4.5 -67t4.5 -67 q0 -5 -1 -14t-1 -14q0 -22 4 -68v-39q0 -13 1 -39.5t1 -42.5q0 -13 -1 -40.5t-1 -43.5v-108q0 -77 -13 -201v-8q-1 -5 -4 -27.5t-4.5 -31.5t-6.5 -24t-11 -26l-15 -18q-1 -2 -8.5 -11.5t-9.5 -12.5t-9 -11.5t-11 -12t-11.5 -9.5t-13.5 -9t-14 -6t-17 -4l-16 -6q-10 0 -29 -7 t-43 -7h-65q-104 -3 -168 61l-25 25q-28 28 -43.5 87t-15.5 128q0 16 2 49t2 51v14v19q0 64 -5 170.5t-5 157.5q0 7 1 20.5t1 20.5v55q-2 14 -2 33q0 17 1 49t1 53q0 126 -4 170z" />
<glyph unicode="v" horiz-adv-x="1046" d="M319 805q13 -26 19.5 -70t13.5 -61q2 -10 29 -115l20 -84q12 -34 23.5 -81t18 -80t18 -93.5t16.5 -85.5q12 -4 23 -4h18q2 2 23 2l10 35q3 8 8 26t8 27l17 45q0 3 2.5 10.5l3.5 10.5l6 22l4 21l10 41q1 5 10.5 31t8.5 44l4 23q3 25 15.5 58t15.5 51l34 141l31 129 q3 8 8 55q4 28 37 168l14 70q0 1 9 25.5t18.5 57t9.5 54.5l4 25q4 51 17 51q12 0 12 -11q0 -3 -0.5 -4.5t-1.5 -3t-2.5 -6t-3.5 -12.5l-27 -121q-5 -22 -15 -64t-13.5 -58t-8 -41t-6.5 -48v-16l-6 -23q-6 -18 -6 -20l-10 -49q-3 -17 -12 -47.5t-11 -41.5q-17 -61 -43.5 -182 t-42.5 -182l-37 -133l-12 -43q-1 -1 -4 -10l-21 -74q-8 -38 -22 -55h-2l-12 -2t-9.5 -2t-5.5 -1q-18 0 -38 2.5t-25 2.5l-2 2q-10 62 -24.5 126.5t-36.5 152.5t-33 134l-33 138q-5 19 -17 64.5t-18 70.5t-14.5 64t-14.5 73q-3 12 -7 35t-7 35l-14 40q-3 13 -13.5 42.5 t-13.5 46.5l-4 36q0 25 -12 62v12q-2 2 -2 17l-7 12q-2 4 -4 12v12q-1 0 -5.5 14t-4.5 19v4l2 2q29 0 29 -49l12 -29q0 -12 2 -14v-10q2 -4 4 -12l4 -33q0 -39 10.5 -83t30 -101.5t27.5 -88.5q12 -76 24 -110z" />
<glyph unicode="w" horiz-adv-x="1478" d="M762 1241l-4 14l-29 -2l-14 -63q-2 -12 -6.5 -45t-8.5 -51l-67 -346l-19 -89l-22 -114l-29 -142l-2 -4q-6 -30 -26.5 -109t-28.5 -124q-3 -31 -35 -31q-4 0 -12.5 2t-12.5 2q-1 0 -4 -0.5t-8.5 -1.5t-11.5 -2q-28 0 -40 26.5t-13 63.5t-2 39q-1 4 -2 8.5t-2 7t-1 3.5 l-16 96q-4 45 -8 61l-16 88q-3 12 -7.5 34.5t-7.5 33.5l-33 152q-14 51 -27.5 158t-23.5 151q0 23 -6 41l-24 139l-7 45q0 5 -6 25.5t-6 42.5q0 14 16 14q11 0 11 -27l16 -102q12 -79 39.5 -235t40.5 -240q6 -43 18 -82l29 -146l12 -69q16 -110 25 -156l25 -135q2 -2 2 -14 q4 2 22 2h47q6 10 10 37l56 233q28 115 28 141l31 140q7 33 30.5 164t43.5 208q8 22 13 62.5t9 56.5l19 70h57l21 -74q5 -25 39 -172t43 -229q3 -15 9.5 -62t14.5 -71l17 -86q2 -12 8 -61t14 -77l31 -135q2 -25 16 -65l4 -21q3 -10 7.5 -41t9.5 -41l30 -4l21 2 q9 51 44.5 210t45.5 243l51 321q2 13 9 80.5t10.5 93.5t11 78t15.5 91t18 77v6q5 21 18 21l6 -2v-6q0 -5 -2 -15.5t-2 -15.5q-23 -118 -31 -217l-6 -66q-5 -34 -8 -41l-6 -35q-8 -73 -31 -196.5t-31 -188.5l-4 -20q-9 -71 -24 -135l-15 -62q-28 -111 -36 -166q0 -16 -2 -18 l-15 -57l-20 -2l-62 6q-8 17 -15.5 60.5t-14.5 58.5l-7 14q-7 17 -12.5 43t-11 61.5t-8.5 51.5q-6 23 -11 49t-10 59t-8 51l-21 111q-14 40 -28.5 143t-26.5 156l-16 72q-3 16 -10 43.5t-11.5 50t-7.5 43.5z" />
<glyph unicode="x" horiz-adv-x="1034" d="M795 88l-25 57l-6 21q-4 8 -20 48t-22 53.5t-20.5 46.5t-24 52t-23.5 45t-27 48q-18 31 -52.5 101.5t-56.5 105.5q-8 -20 -53 -117l-51 -113q-20 -41 -55 -118.5t-52 -112.5l-37 -78l-6 -16q-1 -2 -7 -18.5t-11 -24.5l-2 -2q-6 -9 -15 -9h-2l-2 2q-4 12 -4 13q0 9 12 24 l7 8q15 63 49 121l14 29q19 34 50 107.5t50 113.5l33 68q7 13 66 155q-34 79 -107.5 232.5t-107.5 232.5l-37 86l-37 82q0 3 -6 14t-6 17q0 4 2 6t5 4l3 2q9 0 25 -33l45 -104q38 -89 116.5 -256t114.5 -250q113 283 211 492l41 77l47 78l4 2q6 0 12 -6l2 -2 q-1 -10 -10.5 -24.5t-9.5 -16.5q-26 -36 -47 -86l-14 -35q-97 -199 -222 -512q20 -45 80 -153l23 -41q14 -33 50 -97t54 -108l70 -172l20 -39q0 -3 6.5 -14t6.5 -19q0 -10 -7 -10h-4q-8 1 -24 35z" />
<glyph unicode="y" horiz-adv-x="1032" d="M827 1376h2l2 -6l-10 -31l-4 -12l-2 -6l-49 -137l-33 -84q-95 -235 -119 -283l-65 -153q-12 -20 -12 -48q0 -8 2 -25.5t2 -25.5q0 -69 -5.5 -211.5t-5.5 -197.5q0 -23 2 -29v-41q0 -3 1.5 -5t1.5 -5q0 -13 -17 -13h-4q-6 5 -6 25q0 1 1 4t1 4l-4 41q0 5 -1 14.5t-1 14.5 q0 46 4 142.5t4 144.5q0 72 -4 182q-35 40 -49 80l-4 6q-14 30 -32 86t-28 80l-43 119q-7 19 -45.5 120t-62.5 160l-29 68q-8 5 -8 16q0 1 1 3t1 3l12 6q12 0 80 -182l76 -184l49 -139q2 -6 7.5 -24t9.5 -30t10 -31.5t11 -33.5t11.5 -31t12 -28.5t11 -22.5t10.5 -16t9 -5 q1 0 13 32.5t31.5 78.5t33.5 72l10 20q12 22 23 48t24.5 60.5t20.5 51.5l37 94q6 17 18 46.5t22 56t17 51.5l31 86q2 3 4.5 8.5t4 9.5t5 7t6.5 3q4 0 8 -4z" />
<glyph unicode="z" horiz-adv-x="913" d="M750 121h8q16 0 16 -17v-2q-9 -6 -18 -6h-8q-2 2 -7 2h-2q-14 2 -47 2h-65h-11q-9 0 -29.5 -1t-29.5 -1h-39l-12 2l-9 1.5t-5 0.5h-9q-11 0 -32 -2t-33 -2h-21h-53h-20q-5 0 -15.5 -1t-15.5 -1q-3 0 -8.5 1t-8.5 1t-7 -1t-7 -1q-1 0 -4 1t-4 1h-29q-3 0 -8 -2t-8 -2 t-11 1t-12 1h-6q-4 4 -4 15q0 4 1 14t1 14v4q0 3 1 7.5t1 7.5v4q23 53 31 76l35 79q47 86 121 239t86 177q72 141 129 291q14 44 63 143l17 33q28 62 57 103v26h-35q-12 0 -34 1t-34 1q-11 0 -33.5 -1t-35.5 -1q-11 0 -32 1t-32 1t-31 -1t-32 -1q-9 4 -35 4h-25 q-65 0 -104 2q-9 0 -25.5 -1t-25.5 -1h-12q-9 0 -11 -2q-6 1 -14 2.5t-11.5 2t-7 2t-5 4t-1.5 6.5q0 6 2 8l2 2h15q15 0 48.5 2t51.5 2q12 0 34 -3t34 -3t31 1t30 1q25 0 79 -2t79 -2q30 0 92 4q10 -2 47 -2h21q24 0 34 -8l2 -2q-2 -4 -2 -23v-18q0 -4 -20.5 -40t-20.5 -40 q-6 -11 -20 -43l-12 -29q-33 -53 -74.5 -160t-56.5 -139q-19 -56 -68 -139q-30 -55 -74 -149t-67 -138l-8 -16q-29 -67 -62 -125l-33 -84q-3 -3 -4 -7.5t-4 -7.5l-16 -26q-4 -16 -4 -17q0 -4 4 -24q7 0 22.5 2t22.5 2q27 -2 88 -2h117q16 0 45.5 -1t42.5 -1q17 0 34 1t27 1 q13 0 46 1t57 0.5t45 -3.5z" />
<glyph unicode="{" horiz-adv-x="565" d="M129 733q0 2 7 6t17.5 9.5t16.5 11.5l23 18l12 8q16 16 43 76l2 4q31 68 31 144q0 26 -2.5 52t-7.5 59t-7 48l-4 29q-2 23 -2 66v41q-2 6 -2 28q0 45 15.5 96t50.5 95t81 51l25 6q4 4 10 4q4 0 8 -4l3 -2h-3q-4 -8 -15 -14t-27.5 -11t-18.5 -6q-39 -17 -67 -66t-35 -114 v-98q0 -52 11 -136t11 -126q0 -65 -22 -128t-54 -100l-28 -22l-6 -6q-24 -19 -33 -23q28 -13 59 -42t43 -64l19 -29l10 -43q10 -11 10 -68q2 -47 -8 -104l-8 -68q-15 -117 -15 -143q0 -68 21 -123l33 -53l2 -2q27 -52 59 -62l6 -6q12 -10 29 -20t28 -15t11 -6q0 -12 -15 -12 l-16 6q-3 1 -6.5 2t-5 1.5t-2.5 0.5l-13 8q-64 35 -98 93q-3 3 -7 10t-7 10l-19 29q-24 53 -24 133q0 70 16.5 179.5t16.5 154.5q0 4 -4.5 16t-4.5 20l-6 23q-2 6 -2.5 13t-4 14.5t-13.5 21.5l-10 19q-39 67 -97 88l-6 10q-6 3 -6 8q0 1 1 2t1 2z" />
<glyph unicode="|" horiz-adv-x="430" d="M227 -35v-170q0 -10 2 -12v-19q0 -26 -10 -26q-14 0 -14 16q0 21 4 21q0 2 -2 17t-4 35t-2 34t1 40t1 38v14v63q0 197 -4 252q0 67 2 199t2 207q0 182 -4 235v72q0 63 -2 174.5t-2 161.5q0 28 4 92.5t4 103.5v37q0 2 -1 5.5t-1 11.5q0 11 12 16h4q10 0 10 -47 q0 -60 -4 -191t-4 -206q0 -21 2 -66t2 -69q0 -12 -1 -36.5t-1 -37.5q0 -35 3 -112t3 -118q0 -24 -2 -73.5t-2 -69.5v-59q-2 -14 -2 -39q0 -62 3 -237t3 -257z" />
<glyph unicode="}" horiz-adv-x="561" d="M442 733v-4q0 -4 -4 -8l-6 -10q-57 -20 -96 -88l-10 -19q-10 -14 -14 -21.5t-4.5 -15t-2.5 -12.5l-6 -23q0 -8 -4 -20t-4 -16q0 -45 16.5 -157.5t16.5 -176.5q0 -78 -25 -133l-18 -29q-3 -3 -7.5 -10t-7.5 -10q-34 -58 -98 -93l-12 -8q-1 0 -3 -0.5t-5.5 -1.5t-6.5 -2 l-16 -6q-14 0 -14 12l67 41l6 6q34 11 60 62l14 20l21 35q20 53 20 123q0 33 -14 143l-9 68q-10 57 -8 104q0 57 11 68l10 43l18 29q11 34 42.5 63.5t60.5 42.5q-9 4 -33 23l-19 16l-16 12q-32 37 -54 100t-22 128q0 44 11.5 131t11.5 131v98q-11 75 -44.5 126.5t-80.5 61.5 q-3 1 -9.5 3t-9.5 3.5l-8 4t-7.5 5.5t-4.5 7h-2l2 2q4 4 8 4q6 0 10 -4l25 -6q43 -8 77.5 -48t52 -92t17.5 -102q0 -5 -1 -14.5t-1 -13.5v-41q0 -43 -2 -66l-4 -29q-16 -102 -16 -159q0 -76 31 -144l2 -4q27 -60 43 -76l26 -18l8 -8q8 -8 16.5 -13t13.5 -6t8 -3t3 -5z" />
<glyph unicode="~" horiz-adv-x="1120" d="M317 664h-18q-57 -15 -90 -58q-13 -9 -21.5 -35t-13.5 -32l-8 -7q-6 6 -6 13q4 47 26 69l19 19q57 57 114 57q14 1 32.5 -2t33 -6.5t43 -11t45.5 -11.5l45 -12q13 -4 46.5 -16t59 -18t50.5 -5q165 4 223 86q3 3 11 16t16.5 22t15.5 9q8 0 8 -8q0 -13 -13.5 -30t-25 -28 t-10.5 -11q-17 -23 -43 -38.5t-64 -23.5t-58 -10.5t-64 -5.5q-42 -2 -142 28l-88 27q-71 26 -123 23z" />
<glyph unicode="&#xa1;" horiz-adv-x="505" d="M233 504v33q0 15 1.5 43t1.5 43q0 19 -1.5 59t-1.5 61t4.5 60.5t4.5 58.5v10q-2 4 -2 17q0 20 14 20q12 0 12 -20v-33q0 -20 -3 -54t-3 -54v-93q0 -46 -2 -69v-64q0 -56 6 -112v-50q0 -24 -2 -61t-2 -57q0 -32 1 -93t1 -90v-22v-21q0 -29 -2 -45l-6 -2l-4 2q-12 0 -12 23 q0 3 1 9.5t1 10.5v11q0 36 -1 103.5t-1 100.5q-1 20 0.5 56.5t1.5 48.5v76l-4 47q0 8 -1.5 24t-1.5 23zM262 1255v-28v-13q0 -22 -12 -22q-5 0 -8.5 2t-4.5 7t-1.5 8t0 10.5t0.5 9.5v24q0 1 -0.5 8.5t0 11t1.5 8.5t4.5 7t8.5 2q12 0 12 -22v-13z" />
<glyph unicode="&#xa2;" horiz-adv-x="1005" d="M666 268l-19 -16l-20 -12q-11 -4 -33 -8t-37 -7.5t-27 -16.5t-12 -36q0 -12 3 -31t3 -30q0 -27 -4 -39v-6q0 -25 -14 -25l-6 2q-6 9 -6 20t3 33t3 33q0 88 -6 88q-55 0 -101.5 26.5t-73.5 67t-42 85t-15 83.5v6q0 29 -5 108.5t-5 121.5q0 100 8 176v20q3 46 7.5 79 t12.5 57t13 38.5t18.5 27t21 18t27 17t29.5 17.5l55 27q16 8 58 8q-4 5 -4 27v18v2q-1 12 0 25.5t3 30.5t3 28l4 47q9 6 16 6l8 -2v-2q-8 -41 -8 -125v-14q0 -3 1 -9t1 -9q0 -5 -4 -21h-2l-2 -2q86 0 153.5 -40.5t86.5 -127.5l8 -41q0 -5 2 -17t2 -30q0 -26 -12 -26 q-13 0 -13 28q3 3 3 12q-24 125 -79 174.5t-161 49.5q-12 0 -23 -1.5t-18 -3t-18 -5.5t-14.5 -5.5t-16 -8t-15.5 -7.5q-11 -11 -46 -34t-44 -48q-9 -20 -15.5 -43t-10.5 -52.5t-6.5 -50t-3.5 -58t-1 -52.5v-57.5v-50.5q-2 -57 11 -197l6 -72q0 -68 56.5 -129t123.5 -65 l41 -4q3 0 8 -1t8 -1q34 0 61.5 11.5t45 27.5t34 43t25.5 49t22.5 55.5t22.5 52.5q0 29 13 29l14 -4v-2q0 -39 -18 -84.5t-34.5 -71.5t-49.5 -74z" />
<glyph unicode="&#xa3;" horiz-adv-x="1261" d="M397 238q-86 0 -119 -15.5t-77 -75.5l-13 -53q-4 -27 -18 -33l-2 2q-4 12 -4 17q0 20 8 39v2q44 139 172 139h10q4 34 4 166v192q0 98 4 125h-110q-6 -2 -35 -2h-12q-25 0 -25 13q0 12 15 12h8q1 0 3 -1t3 -1l80 4h49h22q5 58 5 63q0 39 -8.5 120.5t-8.5 127.5 q0 135 60 195l6 8q17 20 25 28t22.5 18t34.5 18l59 22q28 4 43 4q25 0 70 -10l22 -8q119 -51 164 -150l8 -22q18 -57 21 -109l-2 -2q-3 0 -6 -2t-9 -2l-4 2q-20 106 -57 158.5t-115 95.5l-18 8q-49 17 -78 17h-16q-56 -10 -88.5 -30.5t-67.5 -60.5h-2q-29 -33 -39 -71 t-10 -96q0 -30 8 -113t8 -139q0 -45 -2 -70q7 0 24 -1t29 -1q66 -3 150 8l39 4q31 0 45 -2h2q1 0 6 -1.5t8.5 -2.5t6.5 -4t3 -6q0 -1 -1 -4t-1 -4h-2q-2 -2 -10 -2q-12 0 -14 2h-8q-2 2 -11 2q-2 0 -20 -3t-31 -3l-74 -5q-28 0 -32 -2h-107q-4 -33 -4 -143v-92v-76 q0 -11 1 -38t1 -40t-3 -30.5t-3 -38.5q2 -4 2 -23h37q71 -3 143 -41l27 -14q110 -88 203 -88q60 0 128.5 53t92.5 123q0 29 16 29q10 0 10 -17q0 -69 -106 -153l-23 -15q-48 -45 -114 -45q-89 0 -203 82l-23 10q-90 52 -172 52z" />
<glyph unicode="&#xa4;" horiz-adv-x="1249" d="M983 1034q-16 -17 -57 -57t-60 -64q-2 -2 -2 -4q0 -6 9.5 -23.5t11.5 -23.5l6 -28q12 -47 12 -140q0 -147 -53 -229l55 -55q11 -11 26 -30.5t27 -31.5l60 -57q11 -13 25 -25.5t21 -19.5t7 -13q-3 -14 -12 -14q-11 0 -51 39t-68 72l-53 59l-53 55l-13 -10 q-21 -21 -35 -32.5t-42 -24t-60 -12.5l-12 -5q-28 -4 -37 -4q-85 4 -147 39.5t-80 65.5l-52 -53l-49 -58l-69 -59q-7 -10 -17 -17l-16 -16q-2 0 -15.5 -12.5t-21.5 -12.5t-14 9q1 5 16 20l8 6q21 16 29 27l49 45q30 24 31 25l26 32q10 7 17 17l20 20q22 25 47 47 q-22 44 -40.5 112t-18.5 134q0 87 47 164q-21 21 -41.5 43.5t-51.5 60t-52 60.5l-37 41l-15 16q-8 7 -14.5 15.5t-9 13.5t-2.5 6q0 14 12 14q3 0 5.5 -1t5.5 -4t4.5 -5t5 -6t4.5 -6l47 -54q31 -31 45 -49l16 -20q58 -73 92 -105q71 71 129 97l31 10q37 12 72 12 q92 0 182 -67q1 -1 16 -7t19 -20q73 59 162 154l37 34l6 9q18 18 22 18h2q8 -3 8 -10t-47 -54l-26 -24q-3 -3 -9.5 -9t-11 -11t-8.5 -9zM373 641q6 -29 8 -33l16 -67q2 -9 11 -23l8 -18q4 -4 4 -11l12 -26q29 -44 92.5 -65t114.5 -21q110 0 175 81.5t65 237.5l-2 11 q0 63 -9 122l-8 29q-19 69 -93 108.5t-153 39.5q-95 0 -173.5 -82.5t-78.5 -196.5q0 -43 11 -86z" />
<glyph unicode="&#xa5;" horiz-adv-x="1032" d="M786 1231l-6 -17q-18 -57 -57 -122l-21 -39q-70 -129 -127 -217l-61 -91h-2q0 -6 18 -6h21q46 -4 59 -4h15h32q24 0 75 -3t79 -3q5 0 16.5 1t16.5 1h22q16 0 20.5 -2.5t4.5 -9.5q0 -12 -17 -12h-47q-25 0 -73 2t-72 2h-72q-63 0 -94 2q0 -15 -1 -45t-1 -47q0 -86 6 -197 h39q51 0 78 2h90h49q50 0 62 -4h8q25 0 33 -8v-2q0 -17 -17 -17q-14 0 -51.5 3t-60.5 3h-99q-33 -2 -100 -2h-31q0 -82 4 -177t4 -124v-28l-2 -2q-5 -5 -8 -5q-2 0 -4 0.5t-3 2t-2 2.5t-1.5 3.5t-1 4t-0.5 4.5v4.5v4.5v5v10q-12 160 -12 248q0 8 1 23t1 22h-39 q-33 0 -100 -2t-103 -2q-34 0 -96 4h-4q-11 0 -16 1t-9 6t-4 16l92 2q27 -2 78 -2h18q142 0 181 4l-5 289q-43 -2 -180 -2h-92q-16 0 -18 2h-39q-11 0 -16 2t-6 4t-1 6q0 6 2 8l2 2q20 4 21 4h8q2 -2 12 -2h64q18 -2 57 -2l184 6q-2 15 -18 43l-6 13q-25 44 -25 57l-32 72 q-85 184 -134 321q-17 44 -18 47l-14 39q0 4 -5.5 13.5t-5.5 13.5q0 12 13 12q6 0 10 -5t7 -14t5 -12l8 -20l7 -18l18 -52l29 -67l32 -72l39 -100q4 -14 10 -28t13 -30t10 -24l33 -74l18 -41q18 -31 23 -45l43 68q71 110 90 147l2 4q79 143 115 234q9 37 34 84l17 34 q1 2 7 16t12 24t12 10q7 0 14 -7v-2q-2 -7 -27 -65l-10 -17q-19 -43 -27 -69z" />
<glyph unicode="&#xa6;" horiz-adv-x="428" d="M205 6q0 32 -3 96.5t-3 102.5q0 8 1 25.5t1 25.5v31q0 21 2 61t2 62l2 2q4 4 8 4h6q8 -3 8 -41v-4q0 -15 -3 -47t-3 -48q0 -8 1 -20t1 -16q0 -12 -1 -39t-1 -43q0 -101 6 -148q0 -9 -2 -27.5t-2 -27.5l4 -119q0 -18 2 -49t2 -49q0 -16 -12 -19h-2q-12 0 -12 29 q0 7 2 18.5t2 18.5q0 25 -5 63.5t-5 51.5q0 20 2 54.5t2 51.5zM201 1061q0 40 -6.5 140t-6.5 147q0 12 1 31.5t1 27.5l5 49q0 11 1 34t1 36v6q0 39 16 39l-2 -2h4q4 -12 4 -17q0 -3 -1 -8t-1 -8v-12q-4 -110 -4 -168q0 -71 7 -205t7 -197q0 -67 -14 -67q-7 0 -9.5 4.5 t-2.5 23.5q0 7 2 30.5t2 31.5q-4 22 -4 84z" />
<glyph unicode="&#xa7;" horiz-adv-x="886" d="M485 -174q-4 -2 -30 -2q-33 4 -46 5.5t-39.5 7.5t-39.5 14.5t-30.5 22.5t-28.5 36t-19 51q-8 24 -8 43t14 19q4 -3 7.5 -17.5t9.5 -35.5t16 -38l20 -34q53 -56 125 -56h29q57 5 107 40.5t61 88.5l12 68v20q0 82 -47 156.5t-92 112.5l-29 24q-14 14 -35.5 31t-36.5 27.5 t-47.5 32t-42.5 28.5l-22 18q-66 58 -66 138q0 97 60 180l20 20q34 46 109 64l-33 22q-35 25 -43 33l-8 6l-13 13t-12.5 12t-10 11t-10 13t-9 13.5t-10 17.5t-9.5 21l-6 12q-27 64 -27 123q0 93 66.5 157t154.5 64q45 0 89 -20l40 -27q43 -28 74 -96l2 -2q6 -12 6 -25 q0 -18 -16 -18q-32 81 -55 104q-57 64 -146 64q-76 0 -132 -56.5t-56 -142.5q0 -130 74 -197l34 -30q35 -35 119 -93t105 -79l8 -9q65 -65 65 -176q-8 -83 -60 -148t-120 -65q-14 0 -16 2l35 -30q32 -28 45.5 -41t35 -39t41.5 -60l7 -12q47 -77 47 -150q-4 -47 -13 -77 l-14 -43q-29 -85 -160 -117zM381 858l-10 -4q-60 -27 -88.5 -94t-28.5 -139q0 -73 57 -123l23 -15q8 -5 27 -18.5t29 -19.5t27 -15t33.5 -12.5t34.5 -3.5q49 0 98.5 65t49.5 142q0 79 -62 145l-4 6q-22 23 -66.5 54t-68.5 53q-2 0 -4 -3.5t-8 -3.5h-2z" />
<glyph unicode="&#xa8;" horiz-adv-x="585" d="M111 1696v28q0 1 -1 5.5t-1 7.5q0 22 14 22q3 0 5 -0.5t3.5 -2t2.5 -3t1.5 -4.5t1 -5t0.5 -5.5v-5.5v-5.5v-5.5v-24q0 -1 0.5 -8.5t0 -11t-1.5 -8.5t-4.5 -7t-8.5 -2q-14 0 -14 22q0 3 1 6.5t1 6.5zM453 1696v28q0 1 -1 5.5t-1 7.5q0 22 14 22q3 0 5 -0.5t3.5 -2t2.5 -3 t1.5 -4.5t1 -5t0.5 -5.5v-5.5v-5.5v-5.5v-24q0 -1 0.5 -8.5t0 -11t-1.5 -8.5t-4.5 -7t-8.5 -2q-14 0 -14 22q0 3 1 6.5t1 6.5z" />
<glyph unicode="&#xa9;" horiz-adv-x="1105" d="M995 934v-19q0 -21 -4 -57l-6 -24q-6 -11 -8 -23l-8 -20q-2 -4 -9 -23t-9.5 -25.5t-9.5 -22t-12.5 -24t-14 -20.5t-17.5 -21l-47 -47q-135 -104 -281 -104q-87 0 -143 16l-55 17l-49 24l-25 17q-43 33 -82 84l-16 22q-11 13 -17 25l-14 18q-59 120 -59 217q0 118 55 217 v2q16 35 80 103l12 16l35 27q112 86 246 86q7 0 22.5 -1t22.5 -1l26 -4q12 -3 53.5 -12.5t61 -16t51.5 -19t54.5 -29.5t39.5 -40l19 -21q31 -36 53 -82l14 -28q24 -46 39 -131l4 -27q-2 -16 -2 -49zM963 823l6 27q8 36 8 84v29l-4 30q-15 93 -47 152l-39 67 q-24 33 -52.5 58.5t-51.5 40t-62 28t-60.5 19t-70.5 16.5q-6 0 -18 1t-25 1q-130 0 -225 -71l-33 -25l-15 -14q-131 -115 -143 -283v-35q0 -146 84 -252l16 -20q52 -69 134 -111.5t192 -42.5q57 0 119 19l31 10q68 24 110 59l31 25q23 15 42 40t28 43t24 55t21 50zM662 1122 l-9 6q-41 35 -110 35q-31 0 -53 -9.5t-33.5 -21t-19 -35t-9 -37t-2.5 -43t-2 -38.5v-76l4 -31l2 -12l1.5 -9t0.5 -5q0 -3 -1 -7.5t-1 -7.5q0 -41 26.5 -67.5t65.5 -26.5q3 0 7.5 1t7.5 1q10 -2 28 -2q19 0 29 0.5t20.5 7t14.5 10t20 20.5t27 28q2 2 2 4l6 8q3 1 5 3.5t5 2.5 q6 0 6 -10q0 -8 -12 -23l-16 -22q-28 -47 -107 -47h-14q-1 0 -4 -1t-4 -1q-51 0 -91 27.5t-40 74.5q0 15 2 21q-11 52 -11 106v19q0 7 1.5 31t2.5 33.5t3.5 31.5t7 32.5t11 27.5t16.5 25.5t23 18t31.5 13.5t41.5 4q70 -3 104 -23l29 -20q26 -26 26 -52v-4l-4 -2q-1 0 -6.5 7 t-13.5 17.5t-14 16.5z" />
<glyph unicode="&#xaa;" horiz-adv-x="778" d="M604 668l8 -4q2 -2 7.5 -5t7.5 -5t2 -5q0 -8 -11 -8q-6 0 -12.5 2.5t-12 5.5t-7.5 4l-19 23q-3 1 -4.5 2.5t-2 3t-1.5 2.5l-6 6q-3 3 -7 8.5t-6 9.5t-3 3q-24 -10 -71.5 -37t-86 -40t-88.5 -13q-49 0 -84 35t-48.5 78t-13.5 85q0 47 23 88l25 45q58 90 227 90h14h15 q43 0 67 -8q2 6 2 31q0 24 -6 51l-4 33q-6 101 -47 152t-111 51q-54 0 -104.5 -25t-50.5 -65q-4 -31 -13 -31h-4q-6 3 -6 8q0 1 0.5 1.5t1 2t0.5 4.5v4q3 3 2 10.5t2 10.5q11 47 65 73.5t111 26.5q89 0 137 -73.5t48 -223.5v-35v-2q0 -3 -1 -6t-1 -6q0 -9 2 -29t2 -28 q0 -13 -1 -27t-1 -22l-4 -50q0 -6 0.5 -37t2 -43t7.5 -34t18 -39l19 -27q13 -16 22 -22zM524 735l-6 25q-8 44 -8 90v20l4 60q0 3 3 20t3 25q0 14 -4.5 23t-9.5 14t-17 7.5t-19 2.5h-23h-9h-43q-2 -2 -18 -2q-76 -9 -115.5 -27.5t-62.5 -70.5l-13 -21q-18 -37 -18 -80 q0 -78 45 -135l20 -18q27 -27 86 -27q37 0 77 16t62.5 31t65.5 47z" />
<glyph unicode="&#xab;" horiz-adv-x="1101" d="M211 547l-66 63l-2 39q16 12 47.5 47.5t49.5 48.5l86 76l24 25q30 30 82 74.5t66 58.5h2q2 -6 12 -16v-2q-28 -29 -82.5 -77t-64.5 -57l-109 -100q-2 -3 -9.5 -11t-14.5 -14.5t-14 -13.5l-7 -6q-18 -21 -21 -23l-22 -20v-18q61 -64 158 -136l86 -73q7 -4 26 -23l41 -31 q13 -13 13 -18q0 -10 -9 -10h-4q-2 2 -4 2h-4l-88 69l-84 76l-45 33zM678 553l-66 63v35q8 4 11 19h2q15 11 41 40.5t41 41.5l86 75l24 25q30 30 82 74.5t66 58.5h2q2 -6 12 -16v-2q-27 -28 -80 -73.5t-68 -59.5l-108 -101q-2 -3 -9.5 -11t-14.5 -14.5t-14 -13.5l-7 -6 q-16 -20 -21 -22l-22 -21v-18q58 -61 158 -135l86 -74q7 -4 26 -23l41 -30q12 -12 12 -19q0 -10 -8 -10h-4q-2 2 -4 2h-4l-88 70l-84 75l-45 33z" />
<glyph unicode="&#xac;" horiz-adv-x="1077" d="M813 838h-27q-98 0 -108 6h-103q-23 0 -70 2t-71 2q-37 0 -107 -3t-106 -3q-38 0 -61 2l-3 -1q-3 -1 -7 -1h-11q-14 0 -14 16q5 8 20 8h7q62 -4 84 -4q45 0 129 4t124 4q15 0 41.5 -1t44.5 -1q27 0 31 2h33q45 0 85 -4t60 -4q17 0 45 4l2 -2q11 -43 11 -192q0 -14 -1 -40 t-1 -38t2 -30.5t2 -26.5v-9q4 -46 4 -47q0 -26 -14 -26h-5q-8 5 -8 16q0 3 1 6t1 6v13q-6 35 -6 114q0 16 1 49.5t1 51.5q0 19 -3 61t-3 66z" />
<glyph unicode="&#xad;" horiz-adv-x="788" d="M365 621h-164q-19 0 -19 10q0 16 41 16h62q10 -2 28 -2h41h76q93 0 119 -4h41q14 0 14 -12q0 -15 -35 -15h-18q-13 0 -32 2t-32 2h-28q-45 0 -94 3z" />
<glyph unicode="&#xae;" horiz-adv-x="1095" d="M995 934v-19q0 -21 -4 -57l-6 -24q-6 -11 -8 -23l-8 -20q-2 -4 -9 -23t-9.5 -25.5t-9.5 -22t-12.5 -24t-14 -20.5t-17.5 -21l-47 -47q-135 -104 -281 -104q-87 0 -143 16l-55 17l-49 24l-25 17q-43 33 -82 84l-16 22q-11 13 -17 25l-14 18q-59 120 -59 217q0 118 55 217 v2q16 35 80 103l12 16l35 27q112 86 246 86q7 0 22.5 -1t22.5 -1l26 -4q12 -3 53.5 -12.5t61 -16t51.5 -19t54.5 -29.5t39.5 -40l19 -21q31 -36 53 -82l14 -28q24 -46 39 -131l4 -27q-2 -16 -2 -49zM963 823l6 27q8 36 8 84v29l-4 30q-15 93 -47 152l-39 67 q-24 33 -52.5 58.5t-51.5 40t-62 28t-60.5 19t-70.5 16.5q-6 0 -18 1t-25 1q-130 0 -225 -71l-33 -25l-15 -14q-131 -115 -143 -283v-35q0 -146 84 -252l16 -20q52 -69 134 -111.5t192 -42.5q57 0 119 19l31 10q68 24 110 59l31 25q23 15 42 40t28 43t24 55t21 50zM616 907 q-2 0 -2 -4q0 -6 18.5 -33t18.5 -41l11 -24q28 -62 32 -80q-3 0 -7 -4t-7 -4q-2 0 -4 2l-17 39q-4 8 -10 20.5t-9 20t-7 18t-6 21.5q-4 9 -18 29t-17 38h-2q-7 0 -23.5 0.5t-27 0.5t-25.5 -1t-24.5 -4t-19.5 -8t-14.5 -14t-4.5 -21q0 -4 1 -12t1 -12v-19q0 -7 1 -24t1 -25 q0 -45 -17 -45q-1 0 -8 10v41v23q0 87 12 247l4 54q-2 2 -2 18v6q0 23 5.5 37t17 18.5t20 5t23 -1t18.5 -1.5q35 0 62 -4.5t55.5 -16.5t44 -39.5t15.5 -68.5q0 -42 -23.5 -79.5t-65.5 -62.5zM457 922h47q25 0 38 0.5t38.5 3.5t39.5 10.5t30.5 20t24 33.5t7.5 50q0 40 -29 84 l-18 15q-18 14 -51.5 16t-38.5 4q-51 0 -78 -8v-23q-8 -31 -6 -57.5t0 -30.5q-4 -78 -4 -118z" />
<glyph unicode="&#xb0;" horiz-adv-x="636" d="M178 1055q-17 15 -36 45.5t-23 56.5l-4 29q-2 6 -2 28q0 77 52.5 138t131.5 61q19 0 29 -2l28 -6q66 -14 107 -59.5t45 -114.5q0 -99 -59 -161t-142 -62h-29q-73 11 -98 47zM184 1333v-2q-47 -59 -47 -131q0 -16 2 -22l6 -33q19 -48 55.5 -83.5t80.5 -35.5h12l29 4 q58 8 105 54t54 106q0 7 2 19.5t2 19.5q0 64 -44.5 109t-108.5 53h-27q-99 0 -121 -58z" />
<glyph unicode="&#xb1;" horiz-adv-x="1091" d="M522 373v2q0 26 2 87t2 97v49q-40 0 -135.5 5t-146.5 5q-8 0 -24.5 -1t-24.5 -1l-2 2q-3 3 -3.5 9.5t-3.5 9.5l2 2q23 2 64 2q42 0 123.5 -3t126.5 -3h24q-4 37 -4 153q0 122 4 160v6q0 25 3.5 34t13.5 9q6 0 8 -2v-2v-51q0 -26 -4 -81t-4 -87q0 -22 4 -67t4 -74h49 q96 3 229 -8l76 -4q1 -3 3 -6q1 -4 1 -5q0 -14 -14 -14q-10 0 -12 2l-121 4q-34 3 -209 8l-6 -229l-2 -2q-18 -6 -19 -6h-4zM176 94q3 6 41 6h14q14 2 54 2h59q23 -2 57 -2h7q12 0 33 1t32 1h82q32 0 79 -2t64 -2q20 0 53 2t52 2q27 0 41 -2h20q5 -2 19 -2.5t23 -4t9 -13.5 q-2 -8 -24 -8q-5 0 -18.5 1t-20.5 1l-45 4q-14 0 -38 -2t-36 -2h-80q-23 2 -59 2q-37 0 -53 -2h-41q-145 0 -183 6h-51q-17 0 -34.5 -1.5t-28.5 -3t-13 -1.5h-4q-10 3 -10 20z" />
<glyph unicode="&#xb2;" horiz-adv-x="663" d="M350 926l19 24q9 8 21 23.5t18 21.5l18 19q31 36 48 66t24 73l6 35q0 67 -52 119.5t-118 52.5q-60 0 -106.5 -31.5t-53.5 -103.5q0 -5 1 -16.5t1 -16.5q0 -29 -14 -29q-8 3 -8 21v4v24q0 86 55 128t133 42q69 0 126.5 -55.5t57.5 -124.5q0 -18 -2 -24l-4 -21 q-2 -2 -2 -12q-16 -67 -57 -123l-21 -23q-2 -2 -20 -26q-5 -5 -58.5 -73t-60.5 -79l-12 -18q-32 -32 -59 -113.5t-27 -136.5l-4 -21q27 -2 88 -2h82q5 0 15 1t15 1q3 0 11 -1t12 -1q5 0 15.5 1t15.5 1h16q3 0 9 1.5t9 1.5q37 0 37 -17v-6v-2l-16 -4h-10q-1 0 -3 1t-3 1h-35 h-11q-12 0 -36 -2t-37 -2q-19 0 -69 2t-75 2h-12q-3 0 -8 -1t-8 -1q-27 0 -27 18q0 72 32 166t75 137q13 17 35.5 50.5t33.5 48.5z" />
<glyph unicode="&#xb3;" horiz-adv-x="653" d="M397 954h-2l-24 -12l26 -12q62 -36 88 -79.5t33 -137.5v-35q-15 -126 -100 -170l-25 -12q-17 -13 -57 -13q-100 4 -127 33l-23 25q-20 17 -28.5 43.5t-12 64t-6.5 51.5q0 23 15 23q7 0 12.5 -38t16.5 -84.5t30 -61.5l16 -15q37 -24 90 -24q13 0 41 4l41 16 q44 29 68.5 78.5t24.5 106.5q0 4 -1 25.5t-2 32.5t-5.5 29.5t-12.5 32.5l-12 25q-16 22 -47 47l-31 12l-10 6q-11 7 -15.5 8.5t-15 3.5t-20.5 5v2q1 7 6.5 12t10.5 6.5t9 1.5q55 19 86 64.5t31 107.5v15q0 9 2 26t2 23v29q-7 65 -42 105t-103 40q-67 0 -115.5 -42 t-48.5 -138v-19v-8l-2 -2l-4 -2q-4 -2 -7 -2q-2 0 -2 2h-2q-8 19 -8 45q0 77 68 145l28 21q46 22 97 22q79 0 122.5 -47.5t43.5 -138.5q0 -4 -1 -17t-1 -20l-3 -8q-6 -57 -10.5 -77.5t-23 -52t-58.5 -71.5z" />
<glyph unicode="&#xb4;" horiz-adv-x="335" d="M199 1812q6 0 12 -6l-2 -6q-6 -17 -17 -35.5t-26 -41t-23 -35.5l-4 -9q0 -11 -9 -25t-19 -14q-4 0 -11 7v2q0 6 13 28l16 27q22 36 29 51l20 27q13 30 21 30z" />
<glyph unicode="&#xb5;" horiz-adv-x="1067" d="M819 301q8 -79 8 -172q-1 -10 -1 -46t-3 -56l-4 -39q0 -13 2 -15q0 -28 -8 -30h-4q-13 0 -16 10v14q4 4 7 57t3 89q0 37 -3 94.5t-3 93.5l-13 -20q-4 -8 -19 -34.5t-20.5 -35.5t-19.5 -28.5t-25 -28.5t-28 -19t-37 -16q-82 -30 -111 -31h-8q-24 0 -51 6h-4 q-64 12 -118 56.5t-73 101.5l-4 8q0 -15 -1 -46t-1 -48q0 -48 5 -145.5t5 -145.5v-65q0 -14 -2 -44t-2 -51v-8q0 -18 -8 -18q-6 0 -12 7t-6 17q0 1 1 3t1 3v9q4 28 4 39q0 9 -1 27.5t-1 27.5v35q0 54 -4 155t-4 148q0 12 1 30t1 29v39q0 16 1 46t1 46q0 50 -3 137.5 t-3 126.5q0 22 1 63.5t1 61.5v82q0 71 -4 78q0 21 2 69t2 74q0 8 -1 23t-1 22q0 17 14 17q4 0 7 -8.5t3 -14.5v-2q2 -4 2 -30v-78q0 -11 -1.5 -49t-0.5 -60q2 -51 2 -153q0 -17 -1 -48.5t-1 -46.5q0 -74 4 -96v-82v-41q0 -62 17 -106q2 -2 2 -6l16 -37q10 -22 39 -60l2 -4 q71 -65 174 -71l25 4q74 10 123 49.5t90 107.5q3 5 8.5 13.5t7.5 12t4.5 10t3.5 13t2 15.5l6 24q0 4 3.5 10t3.5 7q0 18 -2 22v17q-9 209 -9 430v45q1 18 -0.5 48.5t-1.5 41.5v47v31q0 47 13 47q4 0 6 -1t4 -7t2 -19v-12q0 -61 3 -156t3 -137q0 -28 -2 -84.5t-2 -81.5 q0 -50 6 -155t6 -152z" />
<glyph unicode="&#xb6;" horiz-adv-x="1148" d="M160 987v27q-2 23 -2 67q0 68 27.5 137.5t90.5 106.5q24 12 93 25l47 10q3 0 29.5 5t39.5 5q4 0 9 -2t8 -2t9 2t15 2q6 0 15 -3t12 -3h25q22 0 24 2h170l68 -8q8 -2 30 -2q25 0 39 2h2q3 -3 4 -11t5 -8l2 -2q0 -33 2 -100t2 -104q0 -17 -1 -49.5t-1 -47.5q0 -14 1 -41 t1 -41q0 -34 -1 -101t-1 -103q0 -77 8 -140l6 -98q0 -40 1 -120.5t1 -121.5q0 -40 -1 -122t-1 -123v-21q0 -76 2 -115v-147v-21q0 -15 -10 -18q-17 0 -17 18q0 13 2 15v4q3 27 3 55q0 85 -5 119q0 119 2 182v2v47q1 22 -0.5 68t-1.5 61v86q0 7 1 20.5t1 20.5q0 74 -8 211 t-8 201q0 21 2 50t2 44q0 45 -2 68v22q0 7 -1 18.5t-1 18.5q0 24 2 75t2 77q0 20 -5 56t-5 56q0 4 1 15t1 18q-11 0 -29 2t-41 2l-30 4q-7 0 -20.5 1t-20.5 1h-15q-8 0 -25.5 1t-25.5 1q-61 0 -88 -8v2q-18 6 -37 6h-14q-8 -19 -8 -51q0 -4 1 -13t1 -13v-11q0 -54 3 -115.5 t8 -136t7 -120.5q0 -7 -2 -19.5t-2 -19.5q0 -3 2 -6.5t2 -6.5q0 -16 -2 -20v-14q-2 -14 -2 -33q0 -25 2 -31v-39v-53q0 -103 8 -287.5t8 -277.5q0 -15 -1 -47t-1 -49q0 -152 2 -207v-17q-2 -2 -2 -12q0 -8 2 -10v-6q0 -3 1.5 -6.5t1.5 -6.5q0 -5 -5 -10h-2q-2 -2 -8 -2 q-7 0 -9.5 4t-2.5 23q0 4 1 13.5t1 14.5q0 4 -1 15t-1 18v399v41q0 69 -9.5 201t-9.5 201q0 35 3 69q-5 -2 -56 -6h-2q-5 0 -10 -2t-8 -2h-2q-1 0 -43 6l-43 7q-3 -3 -11 -3h-6l-30 17q-8 4 -48 29l-20 12l-16 10q-39 30 -59.5 105t-20.5 112zM518 1204v31q-2 18 -2 57 q0 42 4 54h-61q-48 0 -99 -19q-8 -2 -21.5 -3t-20 -2.5t-16 -6t-19.5 -12.5l-19 -13l-37 -41q-45 -60 -45 -205q3 -6 3.5 -45t4.5 -55q23 -95 45 -130t56 -48l12 -6q17 -13 34 -22t27 -13.5t28 -7t23 -3t26.5 0t23.5 0.5h6q14 0 21.5 0.5t18.5 3t16 9t5 17.5v39v39 q0 13 2.5 22t2.5 15q0 22 -3.5 68t-3.5 65l-6 92q0 22 -4 55t-4 38q0 4 1 12.5t1 13.5z" />
<glyph unicode="&#xb7;" horiz-adv-x="548" d="M319 813q15 -6 23.5 -14.5t10.5 -16t4 -20.5t5 -21q0 -45 -24 -72.5t-76 -27.5q-26 0 -53 27l-19 37q-8 13 -8 34q0 17 4 27.5t21 36.5l12 10q25 18 53 18q29 0 47 -18zM303 786q-15 15 -33 15q-28 -1 -42 -16.5t-14 -30.5l-1 -15q0 -29 15 -47t34 -18q33 0 51.5 14.5 t18.5 52.5q-2 5 -4.5 16.5t-7.5 18.5t-17 10z" />
<glyph unicode="&#xb8;" horiz-adv-x="352" d="M61 -340h5h6q5 0 14 -1t14 -1h15q7 0 19 -1t16 -1q43 0 75.5 26t32.5 76q0 35 -16 62t-39 39.5t-41.5 18t-30.5 5.5q-21 0 -25 3t-4 20q0 3 1 7t1 7v14q0 68 11 68q12 0 12 -31q0 -7 -1 -22.5t-1 -22.5v-24h4q65 0 109.5 -37.5t44.5 -106.5q0 -53 -39.5 -89t-91.5 -36 q-3 0 -7.5 1t-7.5 1q-4 -2 -16 -2t-33 4.5t-29 4.5l-14 2l-2 2q0 14 10 14h8z" />
<glyph unicode="&#xb9;" horiz-adv-x="425" d="M264 1268q0 21 4 71q-46 -8 -94 -30l-49 -19q-6 0 -8 -2l-17 -4q-4 -4 -8 -4q-2 -2 -6 -2q-10 0 -10 8t18 14l33 13l41 14q13 4 39.5 14.5t41.5 14.5t30 4l6 -8q0 -2 4 -6h2l-8 -152q0 -20 -2 -57t-2 -56q0 -36 4 -107.5t4 -107.5v-39q-8 -91 -8 -202q0 -11 1 -34t1 -34 q-4 -4 -4.5 -24t-10.5 -23h-2q-10 0 -10 18q0 15 2 21q0 21 -1 64t-1 65q0 89 8 162v22q-6 72 -6 230q0 100 8 176z" />
<glyph unicode="&#xba;" horiz-adv-x="673" d="M524 1149l6 -29v-30q0 -19 -2 -29v-14q0 -21 -2 -64t-2 -65q0 -5 2 -18.5t2 -31.5q-3 -22 -12 -43l-6 -12q-5 -15 -19.5 -35.5t-26 -35t-11.5 -17.5q-49 -43 -115 -43h-4q-47 0 -101 27l-4 2q-41 22 -54 37q-38 42 -38 149v33v2q6 74 6 174q0 12 -2 33t-2 32q0 3 1 7.5 t1 7.5l6 14q1 4 2 8.5t2 7t1 3.5l4 16q0 46 53 87.5t108 41.5q7 0 9 2h12q61 0 100 -27l17 -14q69 -54 69 -176zM164 971q0 -16 -2 -33.5t-2 -28.5v-5q0 -20 0.5 -32t4 -36t10 -40t20 -35.5t32.5 -31.5t49 -20.5t68 -8.5q64 0 113 56.5t49 115.5q0 18 -2 31.5t-2 18.5 q0 3 1 5t1 5v115q2 4 2 20v43q-1 10 -2.5 39t-3.5 43t-7.5 36t-15.5 38.5t-26 29.5l-15 17q-37 30 -80 30h-20h-27q-48 0 -91.5 -40t-43.5 -89l-4 -16q-1 -4 -3.5 -15.5t-2.5 -19.5v-45q2 -14 2 -37v-18v-49q-2 -14 -2 -43z" />
<glyph unicode="&#xbb;" horiz-adv-x="1097" d="M940 610l-66 -63l-43 -37l-45 -33l-84 -76l-88 -69h-4q-2 -2 -4 -2h-4q-8 0 -8 10q0 6 12 18l41 31q17 17 27 23l86 73q97 72 158 136v18l-23 20q-5 2 -11 7t-10.5 9.5t-11.5 12t-10 10.5q-14 14 -23 29l-108 100q-13 12 -67 58.5t-81 75.5v2q3 3 6.5 8t6.5 8h2 q10 0 41 -29t64 -63.5t42 -40.5l101 -90l10 -11q18 -13 48 -48.5t48 -47.5zM473 616l-65 -63l-43 -37l-46 -33l-83 -75l-89 -70h-4q-2 -2 -4 -2h-4q-8 0 -8 10q0 7 12 19l41 30q17 17 27 23l86 74q100 74 158 135v18l-23 21q-5 2 -11 7t-10.5 9.5t-11.5 12t-10 10.5 q-15 15 -23 28l-108 101q-15 14 -68 59.5t-80 73.5v2q3 3 6.5 8t6.5 8h2q10 0 41 -29t64 -63.5t42 -40.5l101 -90l10 -10q15 -11 41 -41t41 -41h2q3 -16 10 -19v-35z" />
<glyph unicode="&#xbc;" horiz-adv-x="1439" d="M1188 209v41h-113q-11 0 -33.5 1t-35.5 1q-73 0 -109 -8l-2 2q0 2 -6 2h-2q-3 1 -6 6.5t-4 5.5l-3 2q3 9 3 35q-3 3 -3 12q0 7 3 10v3q36 80 61 159l18 43l33 88l35 82l20 51l17 41l18 27l13 29l8 16l7.5 15t7 13t6.5 9.5t9 8t12.5 4t18.5 1.5l31 6l2 -2q10 -34 10 -75 v-58q0 -63 3 -178t3 -170q1 -20 -0.5 -56t-1.5 -48v-54h9q7 0 17 1t17 1h35q35 0 35 -8q0 -5 -12 -9.5t-25 -4.5h-18q-33 0 -58 -2v-27q0 -20 -1 -64.5t-1 -66.5v-8q0 -4 1 -8l1 -4q0 -6 -5.5 -9.5t-8.5 -3.5q-4 3 -12 5v2q6 49 6 141zM1141 885q-5 -5 -16 -25t-11 -24 l-80 -170q-12 -27 -26 -68l-54 -137l-12 -35q-10 -16 -18 -36.5t-15.5 -47.5t-11.5 -39q2 -2 2 -12l4 -19q39 0 62 2h82q5 0 16 -1t18 -1h105q0 20 2 66t2 70v32q-8 91 -8 205v29q0 4 1 12t1 12q-6 16 -6 72q0 3 1 8t1 8v15q2 2 2 22v15q0 37 -6 53q-11 0 -35 -6zM455 94 q7 32 17.5 62.5t28 74t23.5 58.5l37 98l37 80l29 86q80 219 102 268l27 62q10 23 22 59l68 168q3 8 10.5 27t11.5 28l50 123q21 58 36 80l2 2q7 0 11 -4l6 -4v-2q-44 -104 -118.5 -293.5t-106.5 -267.5q-18 -32 -41.5 -98t-28.5 -78l-76 -205q-6 -8 -13 -26t-15 -41.5 t-13 -35.5l-37 -94q-2 -6 -49 -131l-12 -33l-8 -2q-11 4 -11 11q0 4 5.5 14t5.5 14zM309 1268q0 21 4 71q-46 -8 -94 -30l-49 -19q-6 0 -8 -2l-17 -4q-4 -4 -8 -4q-2 -2 -6 -2q-10 0 -10 8t18 14l33 13l41 14q13 4 39.5 14.5t41.5 14.5t30 4l6 -8q0 -2 4 -6h2l-8 -152 q0 -20 -2 -57t-2 -56q0 -36 4 -107.5t4 -107.5v-39q-8 -91 -8 -202q0 -11 1 -34t1 -34q-4 -4 -4.5 -24t-10.5 -23h-2q-10 0 -10 18q0 15 2 21q0 21 -1 64t-1 65q0 89 8 162v22q-6 72 -6 230q0 100 8 176z" />
<glyph unicode="&#xbd;" horiz-adv-x="1507" d="M1190 494l18 24q9 8 21 23.5t18 21.5l19 19q30 36 47 66t24 73l6 35q0 67 -51.5 119.5t-117.5 52.5q-60 0 -106.5 -31.5t-53.5 -103.5q0 -5 1 -16.5t1 -16.5q0 -29 -15 -29q-8 3 -8 21v4v24q0 86 55.5 128t133.5 42q69 0 126.5 -55.5t57.5 -124.5q0 -19 -2 -25l-4 -20 q-2 -2 -2 -12q-15 -65 -58 -123l-20 -23q-2 -2 -20 -26q-5 -5 -58.5 -73t-60.5 -79l-13 -18q-32 -32 -59 -113.5t-27 -136.5l-4 -21q27 -2 88 -2h82q5 0 15.5 1t15.5 1q3 0 11 -1t12 -1q5 0 15 1t15 1h17q3 0 9 1t9 1q37 0 37 -16v-6v-2l-16 -4h-11q-1 0 -3 1t-3 1h-35h-10 q-12 0 -37 -2t-37 -2q-18 0 -68 2t-75 2h-12q-3 0 -8.5 -1t-8.5 -1q-26 0 -26 18q0 72 31.5 166t74.5 137q7 10 32 44.5t38 54.5zM420 94q7 32 17.5 62.5t28 74t23.5 58.5l37 98l37 80l29 86q80 219 102 268l27 62q10 23 22 59l68 168q3 7 11 26.5t12 28.5l49 123 q20 55 37 80l2 2q6 0 10 -4l6 -4v-2q-44 -104 -118.5 -293.5t-106.5 -267.5q-18 -32 -41.5 -98t-28.5 -78l-76 -205q-6 -8 -13 -26t-15 -41.5t-13 -35.5l-37 -94q-2 -6 -49 -131l-12 -33l-8 -2q-10 3 -10 11q0 4 5 14t5 14zM295 1266q0 21 4 71q-46 -8 -94 -30l-49 -19 q-7 0 -9 -2l-16 -4q-4 -4 -8 -4q-2 -2 -6 -2q-11 0 -11 8t19 14l33 13l41 14l39 15t41 14t30 4l6 -8q0 -3 4 -7h3l-9 -151q0 -20 -2 -57t-2 -56q0 -36 4 -107.5t4 -107.5v-39q-8 -91 -8 -202q0 -11 1 -34t1 -34q-4 -4 -4 -24t-10 -23h-2q-10 0 -10 18q0 15 2 21q0 21 -1 64 t-1 65q0 89 8 162v22q-6 72 -6 230q0 100 8 176z" />
<glyph unicode="&#xbe;" horiz-adv-x="1556" d="M1311 207v41h-113q-11 0 -34 1t-36 1q-72 0 -108 -8l-2 2q0 2 -6 2h-2q-3 1 -6.5 6.5t-4.5 5.5l-2 2q2 6 2 35q-2 2 -2 12q0 8 2 10v2q38 85 62 160l18 43l33 88l35 82l20 51l17 41l18 27l12 29l9 16l7.5 15t7 13t6.5 9.5t9 8t12.5 4t18.5 1.5l31 6l2 -2q10 -34 10 -75 v-58q0 -63 3 -178t3 -170q1 -20 -0.5 -56t-1.5 -48v-54h8q7 0 17.5 1t17.5 1h35q35 0 35 -8q0 -5 -12 -9.5t-25 -4.5h-18q-33 0 -58 -2v-27q0 -20 -1 -64.5t-1 -66.5v-8q0 -4 1 -8l1 -4q0 -6 -5.5 -9.5t-8.5 -3.5q-4 2 -12 4v3q6 49 6 141zM1264 883q-5 -5 -16 -25t-11 -24 l-80 -170q-17 -39 -27 -68l-53 -137l-12 -35q-10 -16 -18 -36.5t-15.5 -47.5t-11.5 -39q2 -2 2 -12l4 -19q38 0 61 2h82q5 0 16 -1t19 -1h105q0 20 2 66t2 70v32q-8 91 -8 205v29q0 4 1 12t1 12q-7 19 -7 72q0 3 1.5 8t1.5 8v15q2 2 2 22v15q0 34 -7 53q-10 0 -34 -6z M397 938h-2l-24 -12l26 -13q62 -36 88 -79.5t33 -137.5v-34q-15 -126 -100 -170l-25 -13q-16 -12 -57 -12q-100 4 -127 33l-23 24q-20 17 -28.5 43.5t-12 64.5t-6.5 52q0 23 15 23q7 0 12.5 -38.5t16.5 -85t30 -61.5l16 -14q39 -25 90 -25q13 0 41 4l41 17q44 29 68.5 78 t24.5 106q0 4 -1 25.5t-2 33t-5.5 30t-12.5 32.5l-12 25q-16 22 -47 47l-31 12l-10 6q-11 6 -15.5 8t-14.5 3.5t-21 4.5v3q1 7 6.5 12t10.5 6.5t9 1.5q55 19 86 64.5t31 107.5v14q0 10 2 27t2 23v28q-7 65 -42 105.5t-103 40.5q-67 0 -115.5 -42.5t-48.5 -138.5v-18v-8 l-2 -2l-4 -2q-4 -2 -7 -2q-2 0 -2 2h-2q-8 19 -8 45q0 77 68 145l28 21q46 22 97 22q79 0 122.5 -47.5t43.5 -138.5q0 -4 -1 -17t-1 -20l-3 -8q-6 -57 -10.5 -77.5t-23 -52t-58.5 -71.5zM567 94q7 32 18 63t28 72.5t24 59.5l37 98l37 80l28 86q76 206 103 268l26 62 q14 33 23 59l67 168q3 7 11 26.5t12 28.5l49 123q20 55 37 80l2 2q6 0 10 -4l6 -4v-2q-44 -104 -118.5 -293.5t-106.5 -267.5q-18 -32 -40.5 -97.5t-28.5 -78.5l-76 -205q-6 -8 -13 -26t-15 -41.5t-13 -35.5l-37 -94q-2 -6 -49 -131l-13 -33l-8 -2q-10 3 -10 11q0 4 5 14 t5 14z" />
<glyph unicode="&#xbf;" horiz-adv-x="1001" d="M342 29l-12 12q-7 11 -24.5 28t-24.5 29l-9 21q-24 24 -24 110q0 51 18.5 105t38 87t63 98.5t62.5 96.5l33 74q32 71 41 164v8v12q0 23 12 23q14 0 14 -23q0 -74 -43 -186l-16 -39q-40 -85 -55 -94q-144 -179 -144 -322q0 -65 19 -96l10 -14q19 -60 79 -90.5t128 -30.5 l41 4q10 0 22 6l19 6q79 34 118.5 88.5t39.5 143.5q0 4 -1.5 13t-1.5 13q0 25 15 25h2q10 -10 10 -27q0 -8 -1 -18.5t-1 -13.5v-11q0 -77 -43 -135l-8 -12q-33 -47 -88 -72l-33 -16l-18 -4q-5 -3 -19.5 -5t-19.5 -5l-43 -2q-13 0 -41 4l-21 4q-2 1 -16 5l-17.5 5t-15 5.5 t-17 7.5t-13.5 7.5t-15 10.5zM510 1231v29l-1 4q-1 4 -1 8q0 22 14 22q15 0 15 -37v-24v-5.5v-6v-6t-0.5 -6t-1.5 -5.5t-3 -4.5t-4.5 -2.5t-5.5 -1q-14 0 -14 23q0 3 1 6t1 6z" />
<glyph unicode="&#xc0;" horiz-adv-x="1034" d="M827 178l11 -39q0 -1 3 -16t3 -19q0 -8 -8 -8q-9 0 -13 4v-2q-4 3 -6.5 9t-5 15.5t-4.5 14.5l-10 51q-6 36 -14 73t-17 80t-14 65q-65 0 -208.5 -7.5t-217.5 -7.5q-12 0 -32 1t-32 1l-39 -186q0 -1 -1 -6t-1 -8v2q-1 0 -3.5 -18.5t-2.5 -29.5l-6 -49q-3 -12 -16 -12 q-10 0 -13 8q2 14 8 54.5t9 60.5l18 100q3 9 8 47l15 70v-2l22 90v-2q21 80 53 245.5t47 227.5q7 53 46 182v-2q4 16 9.5 44t10 50t10 44t12.5 34.5t15 12.5h6q8 0 10 2h33l31 -6l49 -166l4 -13v2l31 -116q5 -23 16.5 -65.5t13.5 -49.5l25 -90q23 -80 29 -107v2 q14 -48 26 -108l17 -82q3 -12 7 -38t7 -38l6 -39q8 -45 21 -98v2q8 -28 17 -82.5t15 -81.5zM279 471l-15 -51q12 0 36 -1t36 -1q69 0 203.5 8t210.5 8q-17 103 -44.5 213t-67 254t-56.5 209l-19 72l-8 24v-2l-33 115h-26q-3 0 -10.5 1t-10.5 1l-8 -2q0 -19 -3 -38.5 t-7.5 -34.5t-8.5 -26.5t-7 -18.5l-3 -7q0 -1 -1 -3t-1 -3l-12 -58q-8 -32 -22.5 -94t-23 -98t-19.5 -88t-19 -98q-11 -73 -61 -283v2zM406 1812q3 0 5.5 -1.5t4.5 -5t3 -6.5t3.5 -8.5t3.5 -8.5l20 -27q7 -15 29 -51l17 -27q12 -20 12 -28v-2q-7 -7 -10 -7q-10 0 -19.5 14 t-9.5 25l-4 9q-8 13 -23 35.5t-26 41t-17 35.5l-2 6q6 6 13 6zM260 420l4 -4v4h-4z" />
<glyph unicode="&#xc1;" horiz-adv-x="1034" d="M827 178l11 -39q0 -1 3 -16t3 -19q0 -8 -8 -8q-9 0 -13 4v-2q-4 3 -6.5 9t-5 15.5t-4.5 14.5l-10 51q-6 36 -14 73t-17 80t-14 65q-65 0 -208.5 -7.5t-217.5 -7.5q-12 0 -32 1t-32 1l-39 -186q0 -1 -1 -6t-1 -8v2q-1 0 -3.5 -18.5t-2.5 -29.5l-6 -49q-3 -12 -16 -12 q-10 0 -13 8q2 14 8 54.5t9 60.5l18 100q3 9 8 47l15 70v-2l22 90v-2q21 80 53 245.5t47 227.5q7 53 46 182v-2q4 16 9.5 44t10 50t10 44t12.5 34.5t15 12.5h6q8 0 10 2h33l31 -6l49 -166l4 -13v2l31 -116q5 -23 16.5 -65.5t13.5 -49.5l25 -90q23 -80 29 -107v2 q14 -48 26 -108l17 -82q3 -12 7 -38t7 -38l6 -39q8 -45 21 -98v2q8 -28 17 -82.5t15 -81.5zM279 471l-15 -51q12 0 36 -1t36 -1q69 0 203.5 8t210.5 8q-17 103 -44.5 213t-67 254t-56.5 209l-19 72l-8 24v-2l-33 115h-26q-3 0 -10.5 1t-10.5 1l-8 -2q0 -19 -3 -38.5 t-7.5 -34.5t-8.5 -26.5t-7 -18.5l-3 -7q0 -1 -1 -3t-1 -3l-12 -58q-8 -32 -22.5 -94t-23 -98t-19.5 -88t-19 -98q-11 -73 -61 -283v2zM623 1812q6 0 12 -6l-2 -6q-6 -17 -17 -35.5t-26 -41t-23 -35.5l-4 -9q0 -11 -9 -25t-19 -14q-4 0 -11 7v2q0 6 13 28l16 27q22 36 29 51 l20 27q13 30 21 30zM260 420l4 -4v4h-4z" />
<glyph unicode="&#xc2;" horiz-adv-x="1034" d="M827 178l11 -39q0 -1 3 -16t3 -19q0 -8 -8 -8q-9 0 -13 4v-2q-4 3 -6.5 9t-5 15.5t-4.5 14.5l-10 51q-6 36 -14 73t-17 80t-14 65q-65 0 -208.5 -7.5t-217.5 -7.5q-12 0 -32 1t-32 1l-39 -186q0 -1 -1 -6t-1 -8v2q-1 0 -3.5 -18.5t-2.5 -29.5l-6 -49q-3 -12 -16 -12 q-10 0 -13 8q2 14 8 54.5t9 60.5l18 100q3 9 8 47l15 70v-2l22 90v-2q21 80 53 245.5t47 227.5q7 53 46 182v-2q4 16 9.5 44t10 50t10 44t12.5 34.5t15 12.5h6q8 0 10 2h33l31 -6l49 -166l4 -13v2l31 -116q5 -23 16.5 -65.5t13.5 -49.5l25 -90q23 -80 29 -107v2 q14 -48 26 -108l17 -82q3 -12 7 -38t7 -38l6 -39q8 -45 21 -98v2q8 -28 17 -82.5t15 -81.5zM279 471l-15 -51q12 0 36 -1t36 -1q69 0 203.5 8t210.5 8q-17 103 -44.5 213t-67 254t-56.5 209l-19 72l-8 24v-2l-33 115h-26q-3 0 -10.5 1t-10.5 1l-8 -2q0 -19 -3 -38.5 t-7.5 -34.5t-8.5 -26.5t-7 -18.5l-3 -7q0 -1 -1 -3t-1 -3l-12 -58q-8 -32 -22.5 -94t-23 -98t-19.5 -88t-19 -98q-11 -73 -61 -283v2zM367 1645q-9 6 -9 14q0 5 7.5 15t17.5 16l6 6q5 8 15.5 20t11.5 13l41 49q15 34 37 34h6h30q8 -5 16 -18t11 -16l33 -41q13 -22 22 -29 l23 -33l10 -8q23 -19 25 -27q0 -14 -8 -14q-23 0 -77 74q-4 4 -5 6l-19 25q-6 9 -18.5 25.5t-14.5 19.5l-12 16q-2 2 -10 2q-14 0 -27 -22l-10 -13l-16 -22q0 -5 -15 -20t-18 -21l-29 -29q-5 -5 -8 -9t-4 -6.5t-2.5 -4t-3.5 -2t-6 -0.5zM260 420l4 -4v4h-4z" />
<glyph unicode="&#xc3;" horiz-adv-x="1034" d="M827 178l11 -39q0 -1 3 -16t3 -19q0 -8 -8 -8q-9 0 -13 4v-2q-4 3 -6.5 9t-5 15.5t-4.5 14.5l-10 51q-6 36 -14 73t-17 80t-14 65q-65 0 -208.5 -7.5t-217.5 -7.5q-12 0 -32 1t-32 1l-39 -186q0 -1 -1 -6t-1 -8v2q-1 0 -3.5 -18.5t-2.5 -29.5l-6 -49q-3 -12 -16 -12 q-10 0 -13 8q2 14 8 54.5t9 60.5l18 100q3 9 8 47l15 70v-2l22 90v-2q21 80 53 245.5t47 227.5q7 53 46 182v-2q4 16 9.5 44t10 50t10 44t12.5 34.5t15 12.5h6q8 0 10 2h33l31 -6l49 -166l4 -13v2l31 -116q5 -23 16.5 -65.5t13.5 -49.5l25 -90q23 -80 29 -107v2 q14 -48 26 -108l17 -82q3 -12 7 -38t7 -38l6 -39q8 -45 21 -98v2q8 -28 17 -82.5t15 -81.5zM279 471l-15 -51q12 0 36 -1t36 -1q69 0 203.5 8t210.5 8q-17 103 -44.5 213t-67 254t-56.5 209l-19 72l-8 24v-2l-33 115h-26q-3 0 -10.5 1t-10.5 1l-8 -2q0 -19 -3 -38.5 t-7.5 -34.5t-8.5 -26.5t-7 -18.5l-3 -7q0 -1 -1 -3t-1 -3l-12 -58q-8 -32 -22.5 -94t-23 -98t-19.5 -88t-19 -98q-11 -73 -61 -283v2zM289 1634h-4q-4 4 -4 15q0 51 41 83.5t88 32.5q25 0 53.5 -10t44.5 -26l22 -15q31 -33 99 -33q40 0 61 21l10 14q2 2 2 4l7 9q13 39 14 40 h2q6 0 8 -2l4 -2q0 -43 -32 -74.5t-80 -31.5q-46 0 -82.5 13.5t-55.5 29.5t-41.5 29.5t-42.5 13.5q-38 0 -67 -25t-37 -63v-6q0 -17 -10 -17zM260 420l4 -4v4h-4z" />
<glyph unicode="&#xc4;" horiz-adv-x="1034" d="M827 178l11 -39q0 -1 3 -16t3 -19q0 -8 -8 -8q-9 0 -13 4v-2q-4 3 -6.5 9t-5 15.5t-4.5 14.5l-10 51q-6 36 -14 73t-17 80t-14 65q-65 0 -208.5 -7.5t-217.5 -7.5q-12 0 -32 1t-32 1l-39 -186q0 -1 -1 -6t-1 -8v2q-1 0 -3.5 -18.5t-2.5 -29.5l-6 -49q-3 -12 -16 -12 q-10 0 -13 8q2 14 8 54.5t9 60.5l18 100q3 9 8 47l15 70v-2l22 90v-2q21 80 53 245.5t47 227.5q7 53 46 182v-2q4 16 9.5 44t10 50t10 44t12.5 34.5t15 12.5h6q8 0 10 2h33l31 -6l49 -166l4 -13v2l31 -116q5 -23 16.5 -65.5t13.5 -49.5l25 -90q23 -80 29 -107v2 q14 -48 26 -108l17 -82q3 -12 7 -38t7 -38l6 -39q8 -45 21 -98v2q8 -28 17 -82.5t15 -81.5zM279 471l-15 -51q12 0 36 -1t36 -1q69 0 203.5 8t210.5 8q-17 103 -44.5 213t-67 254t-56.5 209l-19 72l-8 24v-2l-33 115h-26q-3 0 -10.5 1t-10.5 1l-8 -2q0 -19 -3 -38.5 t-7.5 -34.5t-8.5 -26.5t-7 -18.5l-3 -7q0 -1 -1 -3t-1 -3l-12 -58q-8 -32 -22.5 -94t-23 -98t-19.5 -88t-19 -98q-11 -73 -61 -283v2zM332 1696v28q0 1 -1 5.5t-1 7.5q0 22 14 22q3 0 5 -0.5t3.5 -2t2.5 -3t1.5 -4.5t1 -5t0.5 -5.5v-5.5v-5.5v-5.5v-24q0 -1 0.5 -8.5t0 -11 t-1.5 -8.5t-4.5 -7t-8.5 -2q-14 0 -14 22q0 3 1 6.5t1 6.5zM674 1696v28q0 1 -1 5.5t-1 7.5q0 22 14 22q3 0 5 -0.5t3.5 -2t2.5 -3t1.5 -4.5t1 -5t0.5 -5.5v-5.5v-5.5v-5.5v-24q0 -1 0.5 -8.5t0 -11t-1.5 -8.5t-4.5 -7t-8.5 -2q-14 0 -14 22q0 3 1 6.5t1 6.5zM260 420l4 -4 v4h-4z" />
<glyph unicode="&#xc5;" horiz-adv-x="1034" d="M827 178l11 -39q0 -1 3 -16t3 -19q0 -8 -8 -8q-9 0 -13 4v-2q-4 3 -6.5 9t-5 15.5t-4.5 14.5l-10 51q-6 36 -14 73t-17 80t-14 65q-65 0 -208.5 -7.5t-217.5 -7.5q-12 0 -32 1t-32 1l-39 -186q0 -1 -1 -6t-1 -8v2q-1 0 -3.5 -18.5t-2.5 -29.5l-6 -49q-3 -12 -16 -12 q-10 0 -13 8q2 14 8 54.5t9 60.5l18 100q3 9 8 47l15 70v-2l22 90v-2q21 80 53 245.5t47 227.5q7 53 46 182v-2q4 16 9.5 44t10 50t10 44t12.5 34.5t15 12.5h6q8 0 10 2h33l31 -6l49 -166l4 -13v2l31 -116q5 -23 16.5 -65.5t13.5 -49.5l25 -90q23 -80 29 -107v2 q14 -48 26 -108l17 -82q3 -12 7 -38t7 -38l6 -39q8 -45 21 -98v2q8 -28 17 -82.5t15 -81.5zM279 471l-15 -51q12 0 36 -1t36 -1q69 0 203.5 8t210.5 8q-17 103 -44.5 213t-67 254t-56.5 209l-19 72l-8 24v-2l-33 115h-26q-3 0 -10.5 1t-10.5 1l-8 -2q0 -19 -3 -38.5 t-7.5 -34.5t-8.5 -26.5t-7 -18.5l-3 -7q0 -1 -1 -3t-1 -3l-12 -58q-8 -32 -22.5 -94t-23 -98t-19.5 -88t-19 -98q-11 -73 -61 -283v2zM649 1806q8 -19 8 -47q0 -63 -44.5 -103t-100.5 -40q-64 0 -107 41t-43 104q0 38 31 90l10 9q16 26 80 47h13q10 0 22 4q3 -1 26 -5 t31 -12q25 -14 46 -38t28 -50zM629 1798q-3 10 -6.5 18.5t-9 16t-8.5 12.5t-12 10t-12 7.5t-14.5 7t-14 5.5t-17 5.5t-17.5 5.5q-82 -13 -98 -39l-6 -8q-25 -41 -27 -63v-27q0 -43 36.5 -77t90.5 -34q51 0 86 33.5t35 87.5q0 18 -6 39zM260 420l4 -4v4h-4z" />
<glyph unicode="&#xc6;" horiz-adv-x="1554" d="M754 399q-23 -2 -70 -2h-166q-32 -3 -205 -8h-24q-7 -14 -11.5 -29.5t-9 -40t-6.5 -32.5l-22 -99q-6 -19 -13 -49t-12 -47t-8 -18h-2q-12 0 -12 14q1 29 14.5 79.5t13.5 51.5l6 27q17 50 27 103t16 71l31 117q5 18 20.5 77.5t22 85t19 77t19 85t13.5 77t11 81.5 q28 154 30 162q1 4 2 8.5t1.5 6.5t0.5 3l6 17q3 3 3 18l4 22l6 11q7 7 8 30.5t8 30.5v2q10 -2 29 -2q234 0 495 12h43q16 0 49 1t50 1q11 0 32 -1t33 -1h49h19h10h21q17 0 30 -3.5t13 -8.5q0 -14 -23 -14q-38 0 -39 4q-12 0 -35.5 -2t-31.5 -2q-27 2 -80 2q-7 0 -22 -1 t-25 -1q-16 2 -50 2q-14 0 -45 -1t-51 -1h-41q-27 0 -121 -4v-207v-148q0 -166 4 -211h117q17 0 52 1.5t53 1.5q22 0 58.5 -2.5t55.5 -2.5q8 0 22 1t21 1h15q3 3 20 3q31 0 31 -21v-2q-18 -6 -41 -6h-135q-14 2 -43 2h-96q-83 0 -130 -2q-2 -18 -2 -55q0 -38 2 -54v-96 l-6 -74q-8 -57 -8 -133q0 -21 3 -63t3 -64q0 -29 -2 -43q15 4 90 4q13 0 57.5 1t75.5 0.5t52 -3.5h41q63 -6 186 -6h43q25 0 25 -12t-17 -12h-12q-18 2 -49 2h-66q-23 2 -65 2l-66 4h-168q-59 0 -86 -2h-16q-15 0 -20.5 -3t-10.5 -3q-3 0 -7 2t-7 2h-2l-4 8q0 6 2 24t2 31 q0 27 -3 82t-3 84q0 11 4 57zM758 1282v10q0 15 -4 19h-4q-11 -4 -50 -4h-28h-183l-20 -99q-2 -11 -13 -55t-14 -68q-46 -303 -147 -671h4q107 0 227 10h21q13 0 41.5 -2t44.5 -2h14q33 6 111 6q6 60 6 274q-2 39 -2 107v160q0 22 -1 63.5t-1 61.5v69q0 4 -1 13.5t-1 13.5 q0 12 1 25t1 24v14v13q0 3 -1 9t-1 9z" />
<glyph unicode="&#xc7;" horiz-adv-x="1034" d="M455 -315h4h6q5 0 14.5 -1t14.5 -1h14q8 0 19 -1t16 -1q43 0 75.5 26t32.5 76q0 35 -16 62t-39 39.5t-41.5 18t-30.5 5.5q-21 0 -24.5 2.5t-3.5 19.5q0 3 1 7.5t1 7.5v14q0 7 1 58.5t1 66.5h-2q-120 11 -172 78h2l-19 16q-13 12 -22 41h2l-13 19q-6 13 -18 77v19 q0 7 -4 29t-4 34v23q-4 78 -4 125q0 55 2 78v12q-2 2 -2 14v21q-4 86 -4 143q0 17 1 49t1 47v27q0 129 8 192q0 12 17 68l7 25q0 3 7 10h-2q42 86 133 115q9 0 48.5 10t63.5 10q117 0 179 -64.5t73 -175.5v-16q0 -8 1 -19t1 -16q0 -24 -22 -24q-6 30 -6 36v19q-2 32 -9 62 t-23 62t-40 55.5t-62.5 38.5t-87.5 15q-27 0 -79 -10h2q-40 -16 -58 -24.5t-44 -29t-40 -48.5l-6 -10h2l-10 -25q-4 -4 -4 -14l-4 -17q-17 -53 -17 -92q0 -33 2 -49q0 -51 -2 -74v-22q0 -16 -1 -50.5t-1 -52.5q0 -49 4 -147v-21q0 -10 2 -12v-14q0 -23 -2 -69t-2 -69 q0 -48 2 -71v-10q0 -44 15 -111l18 -61l21 -37q43 -43 85 -62.5t109 -25.5h8q24 0 66 14l33 8q82 21 119 96l10 15h-2q16 29 16 75q0 9 -1 30t-1 30q0 45 14 45q13 0 13 -16v-119q-2 -27 -19 -60l-10 -14h2q-32 -70 -86 -88v2l-14 -10q-21 -9 -74 -23l-76 -12 q0 -18 -1 -70.5t-1 -62.5v-25h4q66 0 110 -37t44 -106q0 -53 -39.5 -89t-91.5 -36q-3 0 -7.5 1t-7.5 1q-4 -2 -16 -2t-32.5 4t-28.5 4l-15 2l-2 2q0 15 10 15h9z" />
<glyph unicode="&#xc8;" horiz-adv-x="997" d="M748 1317h55q26 0 26 -17q-3 -10 -20 -10h-59q-56 0 -140 4t-98 4l-100 5q-8 0 -27 1t-31 1h-30q-4 -2 -31 -2h-27q0 -28 -3 -80.5t-3 -77.5q0 -41 5 -123.5t5 -124.5q0 -4 -1 -12.5t-1 -12.5v-65q2 -23 2 -64l295 -6q18 2 58 2h36q4 -4 22.5 -5t18.5 -11q0 -14 -12 -14 q-1 0 -28 3t-50 3q-38 0 -61 -2l-217 4h-58q-2 -18 -2 -55v-29q0 -13 -3 -40t-3 -40q0 -7 1 -19.5t1 -19.5l-4 -180q0 -19 2 -27v-18q0 -111 2 -152h45q23 0 71 2t71 2h98q35 0 113.5 -3t124.5 -3h2q22 0 25 -9q1 -3 1 -7q-2 -8 -24 -8h-7q-25 0 -76 4t-89 4q-28 1 -81 -1.5 t-73 -2.5h-80q-23 -2 -57 -2h-29q-5 0 -15 -1t-14 -1q-7 0 -11.5 0.5t-8 1t-5.5 3t-3 3.5t-1.5 6.5t-0.5 8.5v12v14v6q0 8 -1 26t-1 27v117q0 24 2 72t2 73q0 22 -2 37.5t-2 20.5q0 28 4 74t4 71q0 19 -2 33v28q-6 49 -6 103v51q0 43 -4.5 126t-4.5 122q0 15 5 92v23 q0 4 1 15t1 19q0 4 -1 7t-1 4q0 16 7.5 20t24.5 4q8 0 25 -2t24 -2q4 2 25 2h10q49 -2 163.5 -3t178.5 -7q14 -2 52 -2zM469 1812q3 0 5.5 -1.5t4.5 -5t3 -6.5t3.5 -8.5t3.5 -8.5l21 -27q7 -15 29 -51l16 -27q12 -20 12 -28v-2q-7 -7 -10 -7q-10 0 -19.5 14t-9.5 25l-4 9 q-7 13 -22.5 35.5t-26 41t-16.5 35.5l-2 6q6 6 12 6z" />
<glyph unicode="&#xc9;" horiz-adv-x="997" d="M748 1317h55q26 0 26 -17q-3 -10 -20 -10h-59q-56 0 -140 4t-98 4l-100 5q-8 0 -27 1t-31 1h-30q-4 -2 -31 -2h-27q0 -28 -3 -80.5t-3 -77.5q0 -41 5 -123.5t5 -124.5q0 -4 -1 -12.5t-1 -12.5v-65q2 -23 2 -64l295 -6q18 2 58 2h36q4 -4 22.5 -5t18.5 -11q0 -14 -12 -14 q-1 0 -28 3t-50 3q-38 0 -61 -2l-217 4h-58q-2 -18 -2 -55v-29q0 -13 -3 -40t-3 -40q0 -7 1 -19.5t1 -19.5l-4 -180q0 -19 2 -27v-18q0 -111 2 -152h45q23 0 71 2t71 2h98q35 0 113.5 -3t124.5 -3h2q22 0 25 -9q1 -3 1 -7q-2 -8 -24 -8h-7q-25 0 -76 4t-89 4q-28 1 -81 -1.5 t-73 -2.5h-80q-23 -2 -57 -2h-29q-5 0 -15 -1t-14 -1q-7 0 -11.5 0.5t-8 1t-5.5 3t-3 3.5t-1.5 6.5t-0.5 8.5v12v14v6q0 8 -1 26t-1 27v117q0 24 2 72t2 73q0 22 -2 37.5t-2 20.5q0 28 4 74t4 71q0 19 -2 33v28q-6 49 -6 103v51q0 43 -4.5 126t-4.5 122q0 15 5 92v23 q0 4 1 15t1 19q0 4 -1 7t-1 4q0 16 7.5 20t24.5 4q8 0 25 -2t24 -2q4 2 25 2h10q49 -2 163.5 -3t178.5 -7q14 -2 52 -2zM522 1812q7 0 13 -6l-3 -6q-6 -17 -16.5 -35.5t-26 -41t-22.5 -35.5l-4 -9q0 -11 -9.5 -25t-19.5 -14q-3 0 -10 7v2q0 8 12 28l17 27q19 31 28 51l21 27 q1 3 3.5 8.5t3.5 8.5t3 6.5t4.5 5t5.5 1.5z" />
<glyph unicode="&#xca;" horiz-adv-x="997" d="M748 1317h55q26 0 26 -17q-3 -10 -20 -10h-59q-56 0 -140 4t-98 4l-100 5q-8 0 -27 1t-31 1h-30q-4 -2 -31 -2h-27q0 -28 -3 -80.5t-3 -77.5q0 -41 5 -123.5t5 -124.5q0 -4 -1 -12.5t-1 -12.5v-65q2 -23 2 -64l295 -6q18 2 58 2h36q4 -4 22.5 -5t18.5 -11q0 -14 -12 -14 q-1 0 -28 3t-50 3q-38 0 -61 -2l-217 4h-58q-2 -18 -2 -55v-29q0 -13 -3 -40t-3 -40q0 -7 1 -19.5t1 -19.5l-4 -180q0 -19 2 -27v-18q0 -111 2 -152h45q23 0 71 2t71 2h98q35 0 113.5 -3t124.5 -3h2q22 0 25 -9q1 -3 1 -7q-2 -8 -24 -8h-7q-25 0 -76 4t-89 4q-28 1 -81 -1.5 t-73 -2.5h-80q-23 -2 -57 -2h-29q-5 0 -15 -1t-14 -1q-7 0 -11.5 0.5t-8 1t-5.5 3t-3 3.5t-1.5 6.5t-0.5 8.5v12v14v6q0 8 -1 26t-1 27v117q0 24 2 72t2 73q0 22 -2 37.5t-2 20.5q0 28 4 74t4 71q0 19 -2 33v28q-6 49 -6 103v51q0 43 -4.5 126t-4.5 122q0 15 5 92v23 q0 4 1 15t1 19q0 4 -1 7t-1 4q0 16 7.5 20t24.5 4q8 0 25 -2t24 -2q4 2 25 2h10q49 -2 163.5 -3t178.5 -7q14 -2 52 -2zM348 1645q-8 5 -8 14q0 5 7.5 15t17.5 16l6 6q1 2 26 33l41 49q15 34 37 34h6h31q8 -5 16 -18t11 -16l32 -41q12 -20 23 -29l22 -33l11 -8 q22 -18 24 -27q0 -14 -8 -14q-23 0 -77 74q-4 4 -5 6l-18 25q-6 9 -18.5 25.5t-14.5 19.5l-12 16q-2 2 -11 2q-13 0 -26 -22l-10 -13l-17 -22q0 -5 -15 -20t-18 -21l-28 -29q-6 -6 -9.5 -11t-4.5 -7t-3.5 -3t-7.5 -1z" />
<glyph unicode="&#xcb;" horiz-adv-x="997" d="M748 1317h55q26 0 26 -17q-3 -10 -20 -10h-59q-56 0 -140 4t-98 4l-100 5q-8 0 -27 1t-31 1h-30q-4 -2 -31 -2h-27q0 -28 -3 -80.5t-3 -77.5q0 -41 5 -123.5t5 -124.5q0 -4 -1 -12.5t-1 -12.5v-65q2 -23 2 -64l295 -6q18 2 58 2h36q4 -4 22.5 -5t18.5 -11q0 -14 -12 -14 q-1 0 -28 3t-50 3q-38 0 -61 -2l-217 4h-58q-2 -18 -2 -55v-29q0 -13 -3 -40t-3 -40q0 -7 1 -19.5t1 -19.5l-4 -180q0 -19 2 -27v-18q0 -111 2 -152h45q23 0 71 2t71 2h98q35 0 113.5 -3t124.5 -3h2q22 0 25 -9q1 -3 1 -7q-2 -8 -24 -8h-7q-25 0 -76 4t-89 4q-28 1 -81 -1.5 t-73 -2.5h-80q-23 -2 -57 -2h-29q-5 0 -15 -1t-14 -1q-7 0 -11.5 0.5t-8 1t-5.5 3t-3 3.5t-1.5 6.5t-0.5 8.5v12v14v6q0 8 -1 26t-1 27v117q0 24 2 72t2 73q0 22 -2 37.5t-2 20.5q0 28 4 74t4 71q0 19 -2 33v28q-6 49 -6 103v51q0 43 -4.5 126t-4.5 122q0 15 5 92v23 q0 4 1 15t1 19q0 4 -1 7t-1 4q0 16 7.5 20t24.5 4q8 0 25 -2t24 -2q4 2 25 2h10q49 -2 163.5 -3t178.5 -7q14 -2 52 -2zM313 1696v28q0 1 -1 5.5t-1 7.5q0 22 15 22q3 0 5 -0.5t3.5 -2t2.5 -3t1.5 -4.5t1 -5t0.5 -5.5v-5.5v-5.5v-5.5v-24q0 -1 0.5 -8.5t0 -11t-1.5 -8.5 t-4.5 -7t-8.5 -2q-15 0 -15 22q0 3 1 6.5t1 6.5zM655 1696v28q0 1 -1 5.5t-1 7.5q0 22 15 22q3 0 5 -0.5t3.5 -2t2.5 -3t1.5 -4.5t1 -5t0.5 -5.5v-5.5v-5.5v-5.5v-24q0 -1 0.5 -8.5t0 -11t-1.5 -8.5t-4.5 -7t-8.5 -2q-15 0 -15 22q0 3 1 6.5t1 6.5z" />
<glyph unicode="&#xcc;" horiz-adv-x="524" d="M250 561q0 32 -3 89t-3 85v113q6 117 6 395v21q-2 14 -2 41q0 10 2 12q0 3 -1 9t-1 9q0 8 10 15h10q4 -12 4 -15t-1 -9.5t-1 -10.5v-164q-6 -153 -6 -322q6 -48 6 -143t2 -133v-217q0 -4 -1 -13.5t-1 -13.5q0 -23 4.5 -69t4.5 -70q0 -18 -3 -39v-39v-10q0 -9 -6 -12h-2 q-6 0 -10 4l-2 2v39q2 14 2 45q0 28 -3.5 80.5t-4.5 70.5q0 5 1 15.5t1 15.5v127q0 61 -2 92zM152 1812q3 0 5.5 -1.5t4.5 -5t3 -6.5t3.5 -8.5t3.5 -8.5l21 -27q9 -20 28 -51l17 -27q12 -20 12 -28v-2q-7 -7 -10 -7q-10 0 -19.5 14t-9.5 25l-4 9q-8 13 -23 35.5t-26 41 t-17 35.5l-2 6q6 6 13 6z" />
<glyph unicode="&#xcd;" horiz-adv-x="524" d="M250 561q0 32 -3 89t-3 85v113q6 117 6 395v21q-2 14 -2 41q0 10 2 12q0 3 -1 9t-1 9q0 8 10 15h10q4 -12 4 -15t-1 -9.5t-1 -10.5v-164q-6 -153 -6 -322q6 -48 6 -143t2 -133v-217q0 -4 -1 -13.5t-1 -13.5q0 -23 4.5 -69t4.5 -70q0 -18 -3 -39v-39v-10q0 -9 -6 -12h-2 q-6 0 -10 4l-2 2v39q2 14 2 45q0 28 -3.5 80.5t-4.5 70.5q0 5 1 15.5t1 15.5v127q0 61 -2 92zM367 1812q6 0 12 -6l-2 -6q-6 -17 -17 -35.5t-26 -41t-23 -35.5l-4 -9q0 -11 -9 -25t-19 -14q-4 0 -11 7v2q0 6 13 28l16 27q22 36 29 51l20 27q13 30 21 30z" />
<glyph unicode="&#xce;" horiz-adv-x="524" d="M250 561q0 32 -3 89t-3 85v113q6 117 6 395v21q-2 14 -2 41q0 10 2 12q0 3 -1 9t-1 9q0 8 10 15h10q4 -12 4 -15t-1 -9.5t-1 -10.5v-164q-6 -153 -6 -322q6 -48 6 -143t2 -133v-217q0 -4 -1 -13.5t-1 -13.5q0 -23 4.5 -69t4.5 -70q0 -18 -3 -39v-39v-10q0 -9 -6 -12h-2 q-6 0 -10 4l-2 2v39q2 14 2 45q0 28 -3.5 80.5t-4.5 70.5q0 5 1 15.5t1 15.5v127q0 61 -2 92zM113 1645q-9 6 -9 14q0 5 7.5 15t17.5 16l6 6q5 8 15.5 20t11.5 13l41 49q15 34 37 34h6h30q8 -5 16 -18t11 -16l33 -41q13 -22 22 -29l23 -33l10 -8q23 -19 25 -27q0 -14 -8 -14 q-23 0 -77 74q-4 4 -5 6l-19 25q-6 9 -18.5 25.5t-14.5 19.5l-12 16q-2 2 -10 2q-14 0 -27 -22l-10 -13l-16 -22q0 -5 -15 -20t-18 -21l-29 -29q-5 -5 -8 -9t-4 -6.5t-2.5 -4t-3.5 -2t-6 -0.5z" />
<glyph unicode="&#xcf;" horiz-adv-x="524" d="M250 561q0 32 -3 89t-3 85v113q6 117 6 395v21q-2 14 -2 41q0 10 2 12q0 3 -1 9t-1 9q0 8 10 15h10q4 -12 4 -15t-1 -9.5t-1 -10.5v-164q-6 -153 -6 -322q6 -48 6 -143t2 -133v-217q0 -4 -1 -13.5t-1 -13.5q0 -23 4.5 -69t4.5 -70q0 -18 -3 -39v-39v-10q0 -9 -6 -12h-2 q-6 0 -10 4l-2 2v39q2 14 2 45q0 28 -3.5 80.5t-4.5 70.5q0 5 1 15.5t1 15.5v127q0 61 -2 92zM420 1696v28q0 1 -1 5.5t-1 7.5q0 22 14 22q3 0 5 -0.5t3.5 -2t2.5 -3t1.5 -4.5t1 -5t0.5 -5.5v-5.5v-5.5v-5.5v-24q0 -1 0.5 -8.5t0 -11t-1.5 -8.5t-4.5 -7t-8.5 -2 q-14 0 -14 22q0 3 1 6.5t1 6.5zM78 1696v28q0 1 -1 5.5t-1 7.5q0 22 14 22q3 0 5 -0.5t3.5 -2t2.5 -3t1.5 -4.5t1 -5t0.5 -5.5v-5.5v-5.5v-5.5v-24q0 -1 0.5 -8.5t0 -11t-1.5 -8.5t-4.5 -7t-8.5 -2q-14 0 -14 22q0 3 1 6.5t1 6.5z" />
<glyph unicode="&#xd0;" horiz-adv-x="1026" d="M727 1260l16 -21q28 -42 42 -82.5t18 -112.5v-26q-4 -12 -4 -115v-254q0 -31 2 -93t2 -93q0 -9 -1 -28.5t-1 -28.5l-4 -58v-14q0 -67 -35.5 -120.5t-97.5 -76.5q-4 -3 -13.5 -6t-13.5 -6l-31 -6q-25 -5 -49.5 -7t-39 -2t-39.5 0.5t-38 0.5h-20q-23 0 -64 2t-65 2l-17 2 l-6 2h-4q-4 0 -4 6q0 10 2 10v205v43v51q0 21 1 63t1 66q0 50 -4 148q-18 2 -61 2q-11 0 -31 -1t-31 -1h-12h-4q-18 0 -23.5 3.5t-5.5 16.5l2 2q4 4 33 4q6 0 8 -2h10h15q12 0 39 1t43 1h18v203q-8 91 -8 221q0 4 1 13t1 14q0 27 -2 41v57v6q0 4 -1 13.5t-1 13.5q0 24 22 24 h9q28 0 79 7h46q150 0 233 -39l33 -15q12 -10 30 -17t25 -19zM774 989q2 14 2 43v23q-12 148 -88 205q-39 30 -113.5 47.5t-164.5 17.5q-14 0 -43 -3t-50 -3h-22q-5 0 -9 -0.5t-6 -3t-3.5 -4t-2 -5.5t-0.5 -6.5v-8.5v-9q0 -51 5.5 -137t5.5 -119v-57q0 -24 -1 -69t-1 -66 q0 -35 4 -97q18 0 52.5 -1t51.5 -1h33h14q3 0 8.5 1t8.5 1h12q18 0 18 -12q0 -14 -32 -14q-7 0 -9 2h-4q-12 0 -29.5 -1t-25.5 -1q-13 0 -38 1t-38 1q-18 0 -22 -2v-80q0 -21 -1 -67t-1 -70q0 -16 1 -42.5t1 -39.5q0 -9 -1 -27t-1 -27q0 -18 2 -24v-2q0 -2 -0.5 -7 t-0.5 -11.5v-15t-0.5 -18t-0.5 -20v-20.5v-99q11 -4 55 -4h41h63q13 0 39.5 -1t42.5 -1q125 0 186.5 68.5t61.5 189.5q0 31 -2 47v33q0 19 -1 54t-1 55q-1 17 1.5 44t2.5 40v26q0 25 -2 39v57q0 8 1.5 37t0.5 47q-2 18 -2 58q0 36 2 59z" />
<glyph unicode="&#xd1;" horiz-adv-x="1095" d="M221 133l-4 53q0 10 -1 28t-1 24q0 20 3 61t3 61v15q0 25 5 77t5 78q0 22 -4 72v78q0 16 1 43.5t1 40.5q0 66 -4 197t-4 196q0 121 2 184h2q15 15 45 15h17l73 -174q59 -121 107 -248l98 -227l62 -150q4 -10 15 -38t20 -44l26 -63q2 -2 8 -21l17 -39q1 -3 4 -7t4 -7 l31 -74l28 -65q24 -60 33 -76h21q2 66 2 186v119q0 29 -2 43v39q0 42 -3.5 107t-3.5 100v18q0 27 -2 83t-2 83q0 32 6.5 102.5t6.5 108.5v4q0 16 2 50.5t2 52.5q0 17 -2 50t-2 50q0 9 4 37l2 2q4 4 8 4q6 0 8 -2h2q4 -12 4 -14q0 -4 -2 -12t-2 -11l4 -53q0 -10 1 -27t1 -24 q0 -21 -3 -62t-3 -61v-15q0 -31 -6 -92t-6 -92q0 -29 2 -43v-78q0 -82 5 -239t5 -238q0 -121 -2 -184h-2q-10 -13 -22 -13q-8 0 -21 3.5t-18 3.5l-74 165q-9 22 -33.5 76t-42 94.5t-31.5 77.5l-79 189l-19 39q-32 75 -50 120.5t-20.5 54.5t-7.5 20t-18 36l-27 63q-1 1 -8 21 l-16 39q-1 3 -4.5 7t-4.5 7l-30 74l-29 65q-24 60 -33 76h-2q-3 0 -6 -1t-6 -1q-4 0 -6 2q-2 -66 -2 -186v-119q0 -29 2 -43v-39q0 -20 2 -53t2 -49q0 -17 -1 -51t-1 -54v-18q0 -31 2 -92t2 -92t-4 -96t-4 -97v-4q0 -18 -3 -51t-3 -51t2 -51.5t2 -49.5q0 -23 -2 -37l-2 -2 q-4 -4 -9 -4q-6 0 -8 2h-2q-4 12 -4 15q0 4 2 11t2 11zM319 1634h-4q-4 4 -4 15q0 51 41 83.5t88 32.5q25 0 54 -10t45 -26l22 -15q31 -33 98 -33q41 0 62 21l10 14q2 2 2 4l6 9q13 37 15 40h2q6 0 8 -2l4 -2q0 -42 -32.5 -74t-80.5 -32q-46 0 -82.5 13.5t-55.5 29.5 t-41 29.5t-42 13.5q-38 0 -67 -25t-37 -63v-6q0 -17 -11 -17z" />
<glyph unicode="&#xd2;" d="M776 504l-8 -139q0 -3 -2 -6.5t-2 -6.5q0 -2 2 -4q-3 -10 -7.5 -30t-6.5 -29l-7 -29q-20 -74 -81.5 -113t-143.5 -47l-41 -4h-18q-105 0 -182.5 80t-77.5 186q-6 55 -6 109q0 11 1 30t1 31v107q0 25 -3.5 74t-3.5 73q0 57 5 78l4 107q2 14 4 77.5t10 96.5l8 39 q20 103 121 151l41 13q41 8 96 8q27 0 99 -13l36 -14q138 -71 138 -201v-18q0 -5 1 -14t1 -13v-77q0 -72 9 -212t9 -212zM700 223q4 4 8 11t8 16t7 14l8 33q5 34 7 103.5t7 103.5q0 4 -1 13t-1 13v119q-14 229 -14 293q0 45 2 70v26q-4 16 -4 47q0 7 1 19.5t1 19.5 q0 87 -68.5 145t-144.5 58l-92 -4q-29 0 -53.5 -6t-41.5 -12.5t-32 -22t-22.5 -24.5t-16 -29.5t-11 -27.5t-8.5 -29t-6 -23l-6 -39q-6 -35 -6 -106v-54q0 -63 -4 -80v-26q0 -25 -2 -29v-45q0 -58 6 -117v-37v-28v-56q0 -17 1 -48.5t1.5 -50.5t2 -46t5.5 -51q5 -86 72 -151.5 t152 -65.5q173 0 245 104zM362 1812q8 0 21 -30l20 -27q7 -15 29 -51l17 -27q12 -20 12 -28v-2q-7 -7 -10 -7q-10 0 -19.5 14t-9.5 25l-4 9q-8 13 -23 35.5t-26 41t-17 35.5l-2 6q6 6 12 6z" />
<glyph unicode="&#xd3;" d="M776 504l-8 -139q0 -3 -2 -6.5t-2 -6.5q0 -2 2 -4q-3 -10 -7.5 -30t-6.5 -29l-7 -29q-20 -74 -81.5 -113t-143.5 -47l-41 -4h-18q-105 0 -182.5 80t-77.5 186q-6 55 -6 109q0 11 1 30t1 31v107q0 25 -3.5 74t-3.5 73q0 57 5 78l4 107q2 14 4 77.5t10 96.5l8 39 q20 103 121 151l41 13q41 8 96 8q27 0 99 -13l36 -14q138 -71 138 -201v-18q0 -5 1 -14t1 -13v-77q0 -72 9 -212t9 -212zM700 223q4 4 8 11t8 16t7 14l8 33q5 34 7 103.5t7 103.5q0 4 -1 13t-1 13v119q-14 229 -14 293q0 45 2 70v26q-4 16 -4 47q0 7 1 19.5t1 19.5 q0 87 -68.5 145t-144.5 58l-92 -4q-29 0 -53.5 -6t-41.5 -12.5t-32 -22t-22.5 -24.5t-16 -29.5t-11 -27.5t-8.5 -29t-6 -23l-6 -39q-6 -35 -6 -106v-54q0 -63 -4 -80v-26q0 -25 -2 -29v-45q0 -58 6 -117v-37v-28v-56q0 -17 1 -48.5t1.5 -50.5t2 -46t5.5 -51q5 -86 72 -151.5 t152 -65.5q173 0 245 104zM580 1812q6 0 12 -6l-2 -6q-6 -17 -17 -35.5t-26 -41t-23 -35.5l-4 -9q0 -11 -9 -25t-19 -14q-4 0 -11 7v2q0 6 13 28l16 27q22 36 29 51l20 27q13 30 21 30z" />
<glyph unicode="&#xd4;" d="M776 504l-8 -139q0 -3 -2 -6.5t-2 -6.5q0 -2 2 -4q-3 -10 -7.5 -30t-6.5 -29l-7 -29q-20 -74 -81.5 -113t-143.5 -47l-41 -4h-18q-105 0 -182.5 80t-77.5 186q-6 55 -6 109q0 11 1 30t1 31v107q0 25 -3.5 74t-3.5 73q0 57 5 78l4 107q2 14 4 77.5t10 96.5l8 39 q20 103 121 151l41 13q41 8 96 8q27 0 99 -13l36 -14q138 -71 138 -201v-18q0 -5 1 -14t1 -13v-77q0 -72 9 -212t9 -212zM700 223q4 4 8 11t8 16t7 14l8 33q5 34 7 103.5t7 103.5q0 4 -1 13t-1 13v119q-14 229 -14 293q0 45 2 70v26q-4 16 -4 47q0 7 1 19.5t1 19.5 q0 87 -68.5 145t-144.5 58l-92 -4q-29 0 -53.5 -6t-41.5 -12.5t-32 -22t-22.5 -24.5t-16 -29.5t-11 -27.5t-8.5 -29t-6 -23l-6 -39q-6 -35 -6 -106v-54q0 -63 -4 -80v-26q0 -25 -2 -29v-45q0 -58 6 -117v-37v-28v-56q0 -17 1 -48.5t1.5 -50.5t2 -46t5.5 -51q5 -86 72 -151.5 t152 -65.5q173 0 245 104zM324 1645q-9 6 -9 14q0 5 7.5 15t17.5 16l6 6q5 8 15.5 20t11.5 13l41 49q15 34 37 34h6h30q8 -5 16 -18t11 -16l33 -41q13 -22 22 -29l23 -33l10 -8q23 -19 25 -27q0 -14 -9 -14q-4 0 -8.5 1.5t-9.5 5.5t-9.5 7.5t-10 10t-9.5 11t-9.5 12t-9 11.5 t-8.5 11t-7 10l-19 25q-6 9 -18.5 25.5t-14.5 19.5l-12 16q-2 2 -10 2q-14 0 -27 -22l-10 -13l-16 -22q0 -5 -15 -20t-18 -21l-29 -29q-5 -5 -8 -9t-4 -6.5t-2.5 -4t-3.5 -2t-6 -0.5z" />
<glyph unicode="&#xd5;" d="M776 504l-8 -139q0 -3 -2 -6.5t-2 -6.5q0 -2 2 -4q-3 -10 -7.5 -30t-6.5 -29l-7 -29q-20 -74 -81.5 -113t-143.5 -47l-41 -4h-18q-105 0 -182.5 80t-77.5 186q-6 55 -6 109q0 11 1 30t1 31v107q0 25 -3.5 74t-3.5 73q0 57 5 78l4 107q2 14 4 77.5t10 96.5l8 39 q20 103 121 151l41 13q41 8 96 8q27 0 99 -13l36 -14q138 -71 138 -201v-18q0 -5 1 -14t1 -13v-77q0 -72 9 -212t9 -212zM700 223q4 4 8 11t8 16t7 14l8 33q5 34 7 103.5t7 103.5q0 4 -1 13t-1 13v119q-14 229 -14 293q0 45 2 70v26q-4 16 -4 47q0 7 1 19.5t1 19.5 q0 87 -68.5 145t-144.5 58l-92 -4q-29 0 -53.5 -6t-41.5 -12.5t-32 -22t-22.5 -24.5t-16 -29.5t-11 -27.5t-8.5 -29t-6 -23l-6 -39q-6 -35 -6 -106v-54q0 -63 -4 -80v-26q0 -25 -2 -29v-45q0 -58 6 -117v-37v-28v-56q0 -17 1 -48.5t1.5 -50.5t2 -46t5.5 -51q5 -86 72 -151.5 t152 -65.5q173 0 245 104zM246 1634h-4q-4 4 -4 15q0 51 41 83.5t88 32.5q25 0 53.5 -10t44.5 -26l22 -15q31 -33 99 -33q40 0 61 21l10 14q2 2 2 4l7 9q13 39 14 40h2q6 0 8 -2l4 -2q0 -43 -32 -74.5t-80 -31.5q-46 0 -82.5 13.5t-55.5 29.5t-41.5 29.5t-42.5 13.5 q-38 0 -67 -25t-37 -63v-6q0 -17 -10 -17z" />
<glyph unicode="&#xd6;" d="M776 504l-8 -139q0 -3 -2 -6.5t-2 -6.5q0 -2 2 -4q-3 -10 -7.5 -30t-6.5 -29l-7 -29q-20 -74 -81.5 -113t-143.5 -47l-41 -4h-18q-105 0 -182.5 80t-77.5 186q-6 55 -6 109q0 11 1 30t1 31v107q0 25 -3.5 74t-3.5 73q0 57 5 78l4 107q2 14 4 77.5t10 96.5l8 39 q20 103 121 151l41 13q41 8 96 8q27 0 99 -13l36 -14q138 -71 138 -201v-18q0 -5 1 -14t1 -13v-77q0 -72 9 -212t9 -212zM700 223q4 4 8 11t8 16t7 14l8 33q5 34 7 103.5t7 103.5q0 4 -1 13t-1 13v119q-14 229 -14 293q0 45 2 70v26q-4 16 -4 47q0 7 1 19.5t1 19.5 q0 87 -68.5 145t-144.5 58l-92 -4q-29 0 -53.5 -6t-41.5 -12.5t-32 -22t-22.5 -24.5t-16 -29.5t-11 -27.5t-8.5 -29t-6 -23l-6 -39q-6 -35 -6 -106v-54q0 -63 -4 -80v-26q0 -25 -2 -29v-45q0 -58 6 -117v-37v-28v-56q0 -17 1 -48.5t1.5 -50.5t2 -46t5.5 -51q5 -86 72 -151.5 t152 -65.5q173 0 245 104zM289 1696v28q0 1 -1 5.5t-1 7.5q0 22 14 22q3 0 5 -0.5t3.5 -2t2.5 -3t1.5 -4.5t1 -5t0.5 -5.5v-5.5v-5.5v-5.5v-24q0 -1 0.5 -8.5t0 -11t-1.5 -8.5t-4.5 -7t-8.5 -2q-14 0 -14 22q0 3 1 6.5t1 6.5zM631 1696v28q0 1 -1 5.5t-1 7.5q0 22 14 22 q3 0 5 -0.5t3.5 -2t2.5 -3t1.5 -4.5t1 -5t0.5 -5.5v-5.5v-5.5v-5.5v-24q0 -1 0.5 -8.5t0 -11t-1.5 -8.5t-4.5 -7t-8.5 -2q-14 0 -14 22q0 3 1 6.5t1 6.5z" />
<glyph unicode="&#xd7;" horiz-adv-x="827" d="M641 852q-71 -85 -143 -154l-62 -57q10 -17 53 -55l19 -17q25 -21 63.5 -62.5t61.5 -60.5l10 -8q29 -17 29 -30q0 -7 -1.5 -10t-3 -3h-5.5q-18 0 -244 226q-13 -7 -47 -50l-31 -34l-37 -33q-8 -8 -22 -20t-24 -22.5t-17 -21.5l-33 -37q-6 -5 -16 -13t-15 -11h-2 q-8 4 -14 10h-2l16 19q9 8 24 24.5t21 22.5l19 20q2 2 45.5 41.5t66.5 73.5q8 6 20.5 20.5t14.5 16.5l14 14q-33 29 -105.5 105.5t-111.5 107.5l-10 6q-14 14 -14 19q0 6 8 14l2 2v-2q51 -36 136.5 -124t111.5 -112q45 40 63 58l64 65q7 7 29 34.5t40 41.5l23 21 q10 10 16 10q12 0 15 -6l2 -2l-9 -11q-2 -2 -5.5 -6t-6 -6.5t-6.5 -3.5z" />
<glyph unicode="&#xd8;" horiz-adv-x="1144" d="M158 510l2 2q16 7 45.5 24t44.5 25l45 23q2 16 2 53v27q-2 23 -2 67q0 31 2 94t2 95q0 29 -3 88.5t-3 87.5q0 181 119 239l14 4l12 7q10 7 21.5 11t26.5 5.5t23 2t26.5 0t21.5 -0.5q254 0 272 -252l5 -33q14 -103 14 -184q85 53 129 74l2 2q24 8 27 8q15 0 18 -14v-4 l-31 -11q-28 -14 -75 -43.5t-70 -40.5q2 -115 2 -336v-43v-53q0 -59 -4 -74l-6 -30q-11 -41 -23.5 -72t-35 -63.5t-52 -53.5t-74.5 -34t-102 -13q-41 0 -68 8l-32 11q-48 17 -83 56.5t-42 86.5l-4 27q-2 10 -7 32.5t-7.5 40.5t-2.5 35q0 3 1 6t1 6q-2 15 -3 69.5t-9 82.5 q-2 -1 -39 -18t-69.5 -34.5t-32.5 -23.5q-1 0 -7 -3t-10 -3l-2 2q-6 6 -6 12q2 8 27 23zM823 883v10q0 77 -16 192l-4 48q-6 60 -23 101t-63 62l-37 17q-49 20 -131 20q-121 0 -176.5 -62.5t-55.5 -158.5q0 -36 4.5 -103.5t4.5 -103.5q0 -37 -1 -111t-1 -112q2 -14 2 -41 t-2 -41q25 14 69 36t58 30l30 16q14 9 72 41l27 12q42 18 109 59t79 48q3 3 27 19t28 22zM326 571q0 -1 -1 -2t-1 -2q0 -29 6 -35l4 -120q2 -15 5 -47t5.5 -50.5t9 -48t15 -47t24 -39t36 -33.5t51.5 -20t69 -8q83 0 149 31l27 18q53 37 84 143l4 21q0 24 6 55.5t6 52.5v43v9 q-2 27 -2 83q0 15 1 44t1 45q0 127 -2 186q-28 -19 -62.5 -40t-58 -34.5t-66.5 -37t-61 -33.5l-178 -95l-12 -6l-29 -14q-30 -13 -30 -19z" />
<glyph unicode="&#xd9;" d="M195 1278v29q0 57 12 57q16 0 16 -23q0 -7 -3 -23t-3 -24v-20q0 -23 2 -63.5t2 -65.5v-129q0 -22 -1 -64t-1 -63q0 -40 4 -130.5t4 -131.5v-99v-22v-21q0 -16 -1 -43.5t-1 -40.5q0 -37 10.5 -86t24.5 -75l23 -27q65 -77 170 -80h16h47q8 0 18 1t13 1l45 15q1 0 4 1t4 1 l33 12q10 4 16.5 9.5t15 20t11.5 19.5l24 31q21 30 21 121q12 120 12 340v20v27v10v31q0 22 -2 61.5t-2 56.5v21v51q0 15 -3 47t-3 49q0 5 1 15.5t1 15.5v59q0 189 18 189q13 0 13 -55q0 -24 -5.5 -68.5t-5.5 -65.5q0 -3 1.5 -7t1.5 -7q0 -31 -3 -65q0 -24 4.5 -67t4.5 -67 q0 -5 -1 -14t-1 -14q0 -22 4 -68v-39q0 -13 1 -39.5t1 -42.5q0 -13 -1 -40.5t-1 -43.5v-108q0 -77 -13 -201v-8q-1 -5 -4 -27.5t-4.5 -31.5t-6.5 -24t-11 -26l-15 -18q-1 -2 -8.5 -11.5t-9.5 -12.5t-9 -11.5t-11 -12t-11.5 -9.5t-13.5 -9t-14 -6t-17 -4l-16 -6q-10 0 -29 -7 t-43 -7h-65q-104 -3 -168 61l-25 25q-28 28 -43.5 87t-15.5 128q0 16 2 49t2 51v14v19q0 64 -5 170.5t-5 157.5q0 7 1 20.5t1 20.5v55q-2 14 -2 33q0 17 1 49t1 53q0 126 -4 170zM362 1812q8 0 21 -30l20 -27q7 -15 29 -51l17 -27q12 -20 12 -28v-2q-7 -7 -10 -7 q-10 0 -19.5 14t-9.5 25l-4 9q-8 13 -23 35.5t-26 41t-17 35.5l-2 6q6 6 12 6z" />
<glyph unicode="&#xda;" d="M195 1278v29q0 57 12 57q16 0 16 -23q0 -7 -3 -23t-3 -24v-20q0 -23 2 -63.5t2 -65.5v-129q0 -22 -1 -64t-1 -63q0 -40 4 -130.5t4 -131.5v-99v-22v-21q0 -16 -1 -43.5t-1 -40.5q0 -37 10.5 -86t24.5 -75l23 -27q65 -77 170 -80h16h47q8 0 18 1t13 1l45 15q1 0 4 1t4 1 l33 12q10 4 16.5 9.5t15 20t11.5 19.5l24 31q21 30 21 121q12 120 12 340v20v27v10v31q0 22 -2 61.5t-2 56.5v21v51q0 15 -3 47t-3 49q0 5 1 15.5t1 15.5v59q0 189 18 189q13 0 13 -55q0 -24 -5.5 -68.5t-5.5 -65.5q0 -3 1.5 -7t1.5 -7q0 -31 -3 -65q0 -24 4.5 -67t4.5 -67 q0 -5 -1 -14t-1 -14q0 -22 4 -68v-39q0 -13 1 -39.5t1 -42.5q0 -13 -1 -40.5t-1 -43.5v-108q0 -77 -13 -201v-8q-1 -5 -4 -27.5t-4.5 -31.5t-6.5 -24t-11 -26l-15 -18q-1 -2 -8.5 -11.5t-9.5 -12.5t-9 -11.5t-11 -12t-11.5 -9.5t-13.5 -9t-14 -6t-17 -4l-16 -6q-10 0 -29 -7 t-43 -7h-65q-104 -3 -168 61l-25 25q-28 28 -43.5 87t-15.5 128q0 16 2 49t2 51v14v19q0 64 -5 170.5t-5 157.5q0 7 1 20.5t1 20.5v55q-2 14 -2 33q0 17 1 49t1 53q0 126 -4 170zM580 1812q6 0 12 -6l-2 -6q-6 -17 -17 -35.5t-26 -41t-23 -35.5l-4 -9q0 -11 -9 -25t-19 -14 q-4 0 -11 7v2q0 6 13 28l16 27q22 36 29 51l20 27q13 30 21 30z" />
<glyph unicode="&#xdb;" d="M195 1278v29q0 57 12 57q16 0 16 -23q0 -7 -3 -23t-3 -24v-20q0 -23 2 -63.5t2 -65.5v-129q0 -22 -1 -64t-1 -63q0 -40 4 -130.5t4 -131.5v-99v-22v-21q0 -16 -1 -43.5t-1 -40.5q0 -37 10.5 -86t24.5 -75l23 -27q65 -77 170 -80h16h47q8 0 18 1t13 1l45 15q1 0 4 1t4 1 l33 12q10 4 16.5 9.5t15 20t11.5 19.5l24 31q21 30 21 121q12 120 12 340v20v27v10v31q0 22 -2 61.5t-2 56.5v21v51q0 15 -3 47t-3 49q0 5 1 15.5t1 15.5v59q0 189 18 189q13 0 13 -55q0 -24 -5.5 -68.5t-5.5 -65.5q0 -3 1.5 -7t1.5 -7q0 -31 -3 -65q0 -24 4.5 -67t4.5 -67 q0 -5 -1 -14t-1 -14q0 -22 4 -68v-39q0 -13 1 -39.5t1 -42.5q0 -13 -1 -40.5t-1 -43.5v-108q0 -77 -13 -201v-8q-1 -5 -4 -27.5t-4.5 -31.5t-6.5 -24t-11 -26l-15 -18q-1 -2 -8.5 -11.5t-9.5 -12.5t-9 -11.5t-11 -12t-11.5 -9.5t-13.5 -9t-14 -6t-17 -4l-16 -6q-10 0 -29 -7 t-43 -7h-65q-104 -3 -168 61l-25 25q-28 28 -43.5 87t-15.5 128q0 16 2 49t2 51v14v19q0 64 -5 170.5t-5 157.5q0 7 1 20.5t1 20.5v55q-2 14 -2 33q0 17 1 49t1 53q0 126 -4 170zM324 1645q-9 6 -9 14q0 5 7.5 15t17.5 16l6 6q5 8 15.5 20t11.5 13l41 49q15 34 37 34h6h30 q8 -5 16 -18t11 -16l33 -41q13 -22 22 -29l23 -33l10 -8q23 -19 25 -27q0 -14 -9 -14q-4 0 -8.5 1.5t-9.5 5.5t-9.5 7.5t-10 10t-9.5 11t-9.5 12t-9 11.5t-8.5 11t-7 10l-19 25q-6 9 -18.5 25.5t-14.5 19.5l-12 16q-2 2 -10 2q-14 0 -27 -22l-10 -13l-16 -22q0 -5 -15 -20 t-18 -21l-29 -29q-5 -5 -8 -9t-4 -6.5t-2.5 -4t-3.5 -2t-6 -0.5z" />
<glyph unicode="&#xdc;" d="M195 1278v29q0 57 12 57q16 0 16 -23q0 -7 -3 -23t-3 -24v-20q0 -23 2 -63.5t2 -65.5v-129q0 -22 -1 -64t-1 -63q0 -40 4 -130.5t4 -131.5v-99v-22v-21q0 -16 -1 -43.5t-1 -40.5q0 -37 10.5 -86t24.5 -75l23 -27q65 -77 170 -80h16h47q8 0 18 1t13 1l45 15q1 0 4 1t4 1 l33 12q10 4 16.5 9.5t15 20t11.5 19.5l24 31q21 30 21 121q12 120 12 340v20v27v10v31q0 22 -2 61.5t-2 56.5v21v51q0 15 -3 47t-3 49q0 5 1 15.5t1 15.5v59q0 189 18 189q13 0 13 -55q0 -24 -5.5 -68.5t-5.5 -65.5q0 -3 1.5 -7t1.5 -7q0 -31 -3 -65q0 -24 4.5 -67t4.5 -67 q0 -5 -1 -14t-1 -14q0 -22 4 -68v-39q0 -13 1 -39.5t1 -42.5q0 -13 -1 -40.5t-1 -43.5v-108q0 -77 -13 -201v-8q-1 -5 -4 -27.5t-4.5 -31.5t-6.5 -24t-11 -26l-15 -18q-1 -2 -8.5 -11.5t-9.5 -12.5t-9 -11.5t-11 -12t-11.5 -9.5t-13.5 -9t-14 -6t-17 -4l-16 -6q-10 0 -29 -7 t-43 -7h-65q-104 -3 -168 61l-25 25q-28 28 -43.5 87t-15.5 128q0 16 2 49t2 51v14v19q0 64 -5 170.5t-5 157.5q0 7 1 20.5t1 20.5v55q-2 14 -2 33q0 17 1 49t1 53q0 126 -4 170zM289 1696v28q0 1 -1 5.5t-1 7.5q0 22 14 22q3 0 5 -0.5t3.5 -2t2.5 -3t1.5 -4.5t1 -5 t0.5 -5.5v-5.5v-5.5v-5.5v-24q0 -1 0.5 -8.5t0 -11t-1.5 -8.5t-4.5 -7t-8.5 -2q-14 0 -14 22q0 3 1 6.5t1 6.5zM631 1696v28q0 1 -1 5.5t-1 7.5q0 22 14 22q3 0 5 -0.5t3.5 -2t2.5 -3t1.5 -4.5t1 -5t0.5 -5.5v-5.5v-5.5v-5.5v-24q0 -1 0.5 -8.5t0 -11t-1.5 -8.5t-4.5 -7 t-8.5 -2q-14 0 -14 22q0 3 1 6.5t1 6.5z" />
<glyph unicode="&#xdd;" horiz-adv-x="1032" d="M827 1376h2l2 -6l-10 -31l-4 -12l-2 -6l-49 -137l-33 -84q-95 -235 -119 -283l-65 -153q-12 -20 -12 -48q0 -8 2 -25.5t2 -25.5q0 -69 -5.5 -211.5t-5.5 -197.5q0 -23 2 -29v-41q0 -3 1.5 -5t1.5 -5q0 -13 -17 -13h-4q-6 5 -6 25q0 1 1 4t1 4l-4 41q0 5 -1 14.5t-1 14.5 q0 46 4 142.5t4 144.5q0 72 -4 182q-35 40 -49 80l-4 6q-14 30 -32 86t-28 80l-43 119q-7 19 -45.5 120t-62.5 160l-29 68q-8 5 -8 16q0 1 1 3t1 3l12 6q12 0 80 -182l76 -184l49 -139q2 -6 7.5 -24t9.5 -30t10 -31.5t11 -33.5t11.5 -31t12 -28.5t11 -22.5t10.5 -16t9 -5 q1 0 13 32.5t31.5 78.5t33.5 72l10 20q12 22 23 48t24.5 60.5t20.5 51.5l37 94q6 17 18 46.5t22 56t17 51.5l31 86q2 3 4.5 8.5t4 9.5t5 7t6.5 3q4 0 8 -4zM629 1812q6 0 12 -6l-2 -6q-6 -17 -17 -35.5t-26 -41t-23 -35.5l-4 -9q0 -11 -9 -25t-19 -14q-4 0 -11 7v2 q0 6 13 28l16 27q22 36 29 51l20 27q13 30 21 30z" />
<glyph unicode="&#xde;" horiz-adv-x="968" d="M258 1358v4q0 3 -1 7t-1 7q0 23 12 23q11 0 11 -10v-5q4 -28 4 -45q0 -5 -1 -16t-1 -16v-29q0 -52 6 -96v-33q4 -2 24 -2h31h14h45q144 0 236 -55l20 -15q115 -101 123 -211l2 -4q9 -35 9 -65v-15v-14q0 -13 -1.5 -36t-1.5 -34v-28q0 -7 1.5 -18.5t1.5 -18.5 q0 -64 -32.5 -117t-82 -85t-101.5 -50.5t-98 -20.5q-18 0 -22 2h-58q-15 0 -42 -2t-42 -2q-22 0 -26 2l-6 -170q-5 -8 -5 -53q0 -4 2.5 -11.5t2.5 -10.5q0 -8 -7 -15h-6q-4 0 -7 1t-4 5t-1 6v8v5v6q-2 8 -2 27q0 52 5 140.5t5 145.5q0 33 -2 102t-2 103q0 57 4 74v22 q4 44 4 209q0 14 0.5 39t0.5 45t-1 37l-6 105q0 19 -4 51q0 38 2 61q0 43 -2 66zM768 618v46q0 3 -1 9t-1 9q0 11 4 39q0 135 -32 218.5t-124 139.5l-22 13q-38 23 -143 34h-72q-71 0 -86 4q0 -3 -1 -9t-1 -9q0 -11 1 -31.5t1 -33.5q0 -69 -4 -223t-4 -228q0 -91 4 -217 q2 -2 24 -2h37q6 0 22 2t38 2h43q3 0 8 -1t8 -1q69 0 134.5 26.5t113.5 82.5t53 130z" />
<glyph unicode="&#xdf;" horiz-adv-x="1071" d="M244 164l-4 26q0 5 -1 15.5t-1 15.5q0 37 3 110t3 126v114q3 62 8 261t14 276l4 25q4 28 4 34l9 33q20 78 79 121t136 43q16 0 46 -4t46 -4l47 -15q91 -30 125 -110l22 -53q7 -40 7 -72q0 -44 -9 -84l-6 -21q-8 -40 -12.5 -57.5t-17.5 -43.5t-35.5 -46.5t-59.5 -44.5 q5 -4 26 -15t50 -34q56 -35 81.5 -107t25.5 -153q0 -49 -2 -84t-8 -79.5t-19.5 -78.5t-34.5 -68.5t-54.5 -62t-78.5 -47.5q-33 -10 -51 -10t-33 6l-8 6q-2 0 -2 2q0 6 12 6h12q73 0 128 46.5t80.5 111.5t25.5 133v22v37q0 13 2 40.5t2 43.5q0 80 -25 137.5t-90 96.5l-2 2 q-47 41 -108 41q-4 0 -12.5 -1t-12.5 -1q-6 0 -6 10q9 12 29 12q7 0 21.5 -2t21.5 -2q28 0 50.5 15t36 40.5t21.5 47.5t15 49.5t8 31.5q10 49 10 101q0 123 -63 180t-207 57q-74 0 -129.5 -48t-61.5 -124v-14q-2 -2 -2 -16q-11 -51 -15.5 -108.5t-5 -120t-2.5 -87.5 q-6 -123 -6 -127v-51q0 -39 -2 -118t-2 -124v-24v-19q0 -21 -2 -61.5t-2 -60.5t2 -56t2 -51v-23v-2q-6 -15 -12 -16l-3 1q-3 1 -7 1v2q-4 16 -4 21q0 6 2 22t2 29z" />
<glyph unicode="&#xe0;" horiz-adv-x="1034" d="M827 178l11 -39q0 -1 3 -16t3 -19q0 -8 -8 -8q-9 0 -13 4v-2q-4 3 -6.5 9t-5 15.5t-4.5 14.5l-10 51q-6 36 -14 73t-17 80t-14 65q-65 0 -208.5 -7.5t-217.5 -7.5q-12 0 -32 1t-32 1l-39 -186q0 -1 -1 -6t-1 -8v2q-1 0 -3.5 -18.5t-2.5 -29.5l-6 -49q-3 -12 -16 -12 q-10 0 -13 8q2 14 8 54.5t9 60.5l18 100q3 9 8 47l15 70v-2l22 90v-2q21 80 53 245.5t47 227.5q7 53 46 182v-2q4 16 9.5 44t10 50t10 44t12.5 34.5t15 12.5h6q8 0 10 2h33l31 -6l49 -166l4 -13v2l31 -116q5 -23 16.5 -65.5t13.5 -49.5l25 -90q23 -80 29 -107v2 q14 -48 26 -108l17 -82q3 -12 7 -38t7 -38l6 -39q8 -45 21 -98v2q8 -28 17 -82.5t15 -81.5zM279 471l-15 -51q12 0 36 -1t36 -1q69 0 203.5 8t210.5 8q-17 103 -44.5 213t-67 254t-56.5 209l-19 72l-8 24v-2l-33 115h-26q-3 0 -10.5 1t-10.5 1l-8 -2q0 -19 -3 -38.5 t-7.5 -34.5t-8.5 -26.5t-7 -18.5l-3 -7q0 -1 -1 -3t-1 -3l-12 -58q-8 -32 -22.5 -94t-23 -98t-19.5 -88t-19 -98q-11 -73 -61 -283v2zM260 420l4 -4v4h-4zM406 1812q3 0 5.5 -1.5t4.5 -5t3 -6.5t3.5 -8.5t3.5 -8.5l20 -27q7 -15 29 -51l17 -27q12 -20 12 -28v-2 q-7 -7 -10 -7q-10 0 -19.5 14t-9.5 25l-4 9q-8 13 -23 35.5t-26 41t-17 35.5l-2 6q6 6 13 6z" />
<glyph unicode="&#xe1;" horiz-adv-x="1034" d="M827 178l11 -39q0 -1 3 -16t3 -19q0 -8 -8 -8q-9 0 -13 4v-2q-4 3 -6.5 9t-5 15.5t-4.5 14.5l-10 51q-6 36 -14 73t-17 80t-14 65q-65 0 -208.5 -7.5t-217.5 -7.5q-12 0 -32 1t-32 1l-39 -186q0 -1 -1 -6t-1 -8v2q-1 0 -3.5 -18.5t-2.5 -29.5l-6 -49q-3 -12 -16 -12 q-10 0 -13 8q2 14 8 54.5t9 60.5l18 100q3 9 8 47l15 70v-2l22 90v-2q21 80 53 245.5t47 227.5q7 53 46 182v-2q4 16 9.5 44t10 50t10 44t12.5 34.5t15 12.5h6q8 0 10 2h33l31 -6l49 -166l4 -13v2l31 -116q5 -23 16.5 -65.5t13.5 -49.5l25 -90q23 -80 29 -107v2 q14 -48 26 -108l17 -82q3 -12 7 -38t7 -38l6 -39q8 -45 21 -98v2q8 -28 17 -82.5t15 -81.5zM279 471l-15 -51q12 0 36 -1t36 -1q69 0 203.5 8t210.5 8q-17 103 -44.5 213t-67 254t-56.5 209l-19 72l-8 24v-2l-33 115h-26q-3 0 -10.5 1t-10.5 1l-8 -2q0 -19 -3 -38.5 t-7.5 -34.5t-8.5 -26.5t-7 -18.5l-3 -7q0 -1 -1 -3t-1 -3l-12 -58q-8 -32 -22.5 -94t-23 -98t-19.5 -88t-19 -98q-11 -73 -61 -283v2zM623 1812q6 0 12 -6l-2 -6q-6 -17 -17 -35.5t-26 -41t-23 -35.5l-4 -9q0 -11 -9 -25t-19 -14q-4 0 -11 7v2q0 6 13 28l16 27q22 36 29 51 l20 27q13 30 21 30zM260 420l4 -4v4h-4z" />
<glyph unicode="&#xe2;" horiz-adv-x="1034" d="M827 178l11 -39q0 -1 3 -16t3 -19q0 -8 -8 -8q-9 0 -13 4v-2q-4 3 -6.5 9t-5 15.5t-4.5 14.5l-10 51q-6 36 -14 73t-17 80t-14 65q-65 0 -208.5 -7.5t-217.5 -7.5q-12 0 -32 1t-32 1l-39 -186q0 -1 -1 -6t-1 -8v2q-1 0 -3.5 -18.5t-2.5 -29.5l-6 -49q-3 -12 -16 -12 q-10 0 -13 8q2 14 8 54.5t9 60.5l18 100q3 9 8 47l15 70v-2l22 90v-2q21 80 53 245.5t47 227.5q7 53 46 182v-2q4 16 9.5 44t10 50t10 44t12.5 34.5t15 12.5h6q8 0 10 2h33l31 -6l49 -166l4 -13v2l31 -116q5 -23 16.5 -65.5t13.5 -49.5l25 -90q23 -80 29 -107v2 q14 -48 26 -108l17 -82q3 -12 7 -38t7 -38l6 -39q8 -45 21 -98v2q8 -28 17 -82.5t15 -81.5zM279 471l-15 -51q12 0 36 -1t36 -1q69 0 203.5 8t210.5 8q-17 103 -44.5 213t-67 254t-56.5 209l-19 72l-8 24v-2l-33 115h-26q-3 0 -10.5 1t-10.5 1l-8 -2q0 -19 -3 -38.5 t-7.5 -34.5t-8.5 -26.5t-7 -18.5l-3 -7q0 -1 -1 -3t-1 -3l-12 -58q-8 -32 -22.5 -94t-23 -98t-19.5 -88t-19 -98q-11 -73 -61 -283v2zM367 1645q-9 6 -9 14q0 5 7.5 15t17.5 16l6 6q5 8 15.5 20t11.5 13l41 49q15 34 37 34h6h30q8 -5 16 -18t11 -16l33 -41q13 -22 22 -29 l23 -33l10 -8q23 -19 25 -27q0 -14 -8 -14q-23 0 -77 74q-4 4 -5 6l-19 25q-6 9 -18.5 25.5t-14.5 19.5l-12 16q-2 2 -10 2q-14 0 -27 -22l-10 -13l-16 -22q0 -5 -15 -20t-18 -21l-29 -29q-5 -5 -8 -9t-4 -6.5t-2.5 -4t-3.5 -2t-6 -0.5zM260 420l4 -4v4h-4z" />
<glyph unicode="&#xe3;" horiz-adv-x="1034" d="M827 178l11 -39q0 -1 3 -16t3 -19q0 -8 -8 -8q-9 0 -13 4v-2q-4 3 -6.5 9t-5 15.5t-4.5 14.5l-10 51q-6 36 -14 73t-17 80t-14 65q-65 0 -208.5 -7.5t-217.5 -7.5q-12 0 -32 1t-32 1l-39 -186q0 -1 -1 -6t-1 -8v2q-1 0 -3.5 -18.5t-2.5 -29.5l-6 -49q-3 -12 -16 -12 q-10 0 -13 8q2 14 8 54.5t9 60.5l18 100q3 9 8 47l15 70v-2l22 90v-2q21 80 53 245.5t47 227.5q7 53 46 182v-2q4 16 9.5 44t10 50t10 44t12.5 34.5t15 12.5h6q8 0 10 2h33l31 -6l49 -166l4 -13v2l31 -116q5 -23 16.5 -65.5t13.5 -49.5l25 -90q23 -80 29 -107v2 q14 -48 26 -108l17 -82q3 -12 7 -38t7 -38l6 -39q8 -45 21 -98v2q8 -28 17 -82.5t15 -81.5zM279 471l-15 -51q12 0 36 -1t36 -1q69 0 203.5 8t210.5 8q-17 103 -44.5 213t-67 254t-56.5 209l-19 72l-8 24v-2l-33 115h-26q-3 0 -10.5 1t-10.5 1l-8 -2q0 -19 -3 -38.5 t-7.5 -34.5t-8.5 -26.5t-7 -18.5l-3 -7q0 -1 -1 -3t-1 -3l-12 -58q-8 -32 -22.5 -94t-23 -98t-19.5 -88t-19 -98q-11 -73 -61 -283v2zM289 1634h-4q-4 4 -4 15q0 51 41 83.5t88 32.5q25 0 53.5 -10t44.5 -26l22 -15q31 -33 99 -33q40 0 61 21l10 14q2 2 2 4l7 9q13 39 14 40 h2q6 0 8 -2l4 -2q0 -43 -32 -74.5t-80 -31.5q-46 0 -82.5 13.5t-55.5 29.5t-41.5 29.5t-42.5 13.5q-38 0 -67 -25t-37 -63v-6q0 -17 -10 -17zM260 420l4 -4v4h-4z" />
<glyph unicode="&#xe4;" horiz-adv-x="1034" d="M827 178l11 -39q0 -1 3 -16t3 -19q0 -8 -8 -8q-9 0 -13 4v-2q-4 3 -6.5 9t-5 15.5t-4.5 14.5l-10 51q-6 36 -14 73t-17 80t-14 65q-65 0 -208.5 -7.5t-217.5 -7.5q-12 0 -32 1t-32 1l-39 -186q0 -1 -1 -6t-1 -8v2q-1 0 -3.5 -18.5t-2.5 -29.5l-6 -49q-3 -12 -16 -12 q-10 0 -13 8q2 14 8 54.5t9 60.5l18 100q3 9 8 47l15 70v-2l22 90v-2q21 80 53 245.5t47 227.5q7 53 46 182v-2q4 16 9.5 44t10 50t10 44t12.5 34.5t15 12.5h6q8 0 10 2h33l31 -6l49 -166l4 -13v2l31 -116q5 -23 16.5 -65.5t13.5 -49.5l25 -90q23 -80 29 -107v2 q14 -48 26 -108l17 -82q3 -12 7 -38t7 -38l6 -39q8 -45 21 -98v2q8 -28 17 -82.5t15 -81.5zM279 471l-15 -51q12 0 36 -1t36 -1q69 0 203.5 8t210.5 8q-17 103 -44.5 213t-67 254t-56.5 209l-19 72l-8 24v-2l-33 115h-26q-3 0 -10.5 1t-10.5 1l-8 -2q0 -19 -3 -38.5 t-7.5 -34.5t-8.5 -26.5t-7 -18.5l-3 -7q0 -1 -1 -3t-1 -3l-12 -58q-8 -32 -22.5 -94t-23 -98t-19.5 -88t-19 -98q-11 -73 -61 -283v2zM332 1696v28q0 1 -1 5.5t-1 7.5q0 22 14 22q3 0 5 -0.5t3.5 -2t2.5 -3t1.5 -4.5t1 -5t0.5 -5.5v-5.5v-5.5v-5.5v-24q0 -1 0.5 -8.5t0 -11 t-1.5 -8.5t-4.5 -7t-8.5 -2q-14 0 -14 22q0 3 1 6.5t1 6.5zM674 1696v28q0 1 -1 5.5t-1 7.5q0 22 14 22q3 0 5 -0.5t3.5 -2t2.5 -3t1.5 -4.5t1 -5t0.5 -5.5v-5.5v-5.5v-5.5v-24q0 -1 0.5 -8.5t0 -11t-1.5 -8.5t-4.5 -7t-8.5 -2q-14 0 -14 22q0 3 1 6.5t1 6.5zM260 420l4 -4 v4h-4z" />
<glyph unicode="&#xe5;" horiz-adv-x="1034" d="M827 178l11 -39q0 -1 3 -16t3 -19q0 -8 -8 -8q-9 0 -13 4v-2q-4 3 -6.5 9t-5 15.5t-4.5 14.5l-10 51q-6 36 -14 73t-17 80t-14 65q-65 0 -208.5 -7.5t-217.5 -7.5q-12 0 -32 1t-32 1l-39 -186q0 -1 -1 -6t-1 -8v2q-1 0 -3.5 -18.5t-2.5 -29.5l-6 -49q-3 -12 -16 -12 q-10 0 -13 8q2 14 8 54.5t9 60.5l18 100q3 9 8 47l15 70v-2l22 90v-2q21 80 53 245.5t47 227.5q7 53 46 182v-2q4 16 9.5 44t10 50t10 44t12.5 34.5t15 12.5h6q8 0 10 2h33l31 -6l49 -166l4 -13v2l31 -116q5 -23 16.5 -65.5t13.5 -49.5l25 -90q23 -80 29 -107v2 q14 -48 26 -108l17 -82q3 -12 7 -38t7 -38l6 -39q8 -45 21 -98v2q8 -28 17 -82.5t15 -81.5zM279 471l-15 -51q12 0 36 -1t36 -1q69 0 203.5 8t210.5 8q-17 103 -44.5 213t-67 254t-56.5 209l-19 72l-8 24v-2l-33 115h-26q-3 0 -10.5 1t-10.5 1l-8 -2q0 -19 -3 -38.5 t-7.5 -34.5t-8.5 -26.5t-7 -18.5l-3 -7q0 -1 -1 -3t-1 -3l-12 -58q-8 -32 -22.5 -94t-23 -98t-19.5 -88t-19 -98q-11 -73 -61 -283v2zM649 1806q8 -19 8 -47q0 -63 -44.5 -103t-100.5 -40q-64 0 -107 41t-43 104q0 38 31 90l10 9q16 26 80 47h13q10 0 22 4q3 -1 26 -5 t31 -12q25 -14 46 -38t28 -50zM629 1798q-3 10 -6.5 18.5t-9 16t-8.5 12.5t-12 10t-12 7.5t-14.5 7t-14 5.5t-17 5.5t-17.5 5.5q-82 -13 -98 -39l-6 -8q-25 -41 -27 -63v-27q0 -43 36.5 -77t90.5 -34q51 0 86 33.5t35 87.5q0 18 -6 39zM260 420l4 -4v4h-4z" />
<glyph unicode="&#xe6;" horiz-adv-x="1554" d="M754 399q-23 -2 -70 -2h-166q-32 -3 -205 -8h-24q-7 -14 -11.5 -29.5t-9 -40t-6.5 -32.5l-22 -99q-6 -19 -13 -49t-12 -47t-8 -18h-2q-12 0 -12 14q1 29 14.5 79.5t13.5 51.5l6 27q17 50 27 103t16 71l31 117q5 18 20.5 77.5t22 85t19 77t19 85t13.5 77t11 81.5 q28 154 30 162q1 4 2 8.5t1.5 6.5t0.5 3l6 17q3 3 3 18l4 22l6 11q7 7 8 30.5t8 30.5v2q10 -2 29 -2q234 0 495 12h43q16 0 49 1t50 1q11 0 32 -1t33 -1h49h19h10h21q17 0 30 -3.5t13 -8.5q0 -14 -23 -14q-38 0 -39 4q-12 0 -35.5 -2t-31.5 -2q-27 2 -80 2q-7 0 -22 -1 t-25 -1q-16 2 -50 2q-14 0 -45 -1t-51 -1h-41q-27 0 -121 -4v-207v-148q0 -166 4 -211h117q17 0 52 1.5t53 1.5q22 0 58.5 -2.5t55.5 -2.5q8 0 22 1t21 1h15q3 3 20 3q31 0 31 -21v-2q-18 -6 -41 -6h-135q-14 2 -43 2h-96q-83 0 -130 -2q-2 -18 -2 -55q0 -38 2 -54v-96 l-6 -74q-8 -57 -8 -133q0 -21 3 -63t3 -64q0 -29 -2 -43q15 4 90 4q13 0 57.5 1t75.5 0.5t52 -3.5h41q63 -6 186 -6h43q25 0 25 -12t-17 -12h-12q-18 2 -49 2h-66q-23 2 -65 2l-66 4h-168q-59 0 -86 -2h-16q-15 0 -20.5 -3t-10.5 -3q-3 0 -7 2t-7 2h-2l-4 8q0 6 2 24t2 31 q0 27 -3 82t-3 84q0 11 4 57zM758 1282v10q0 15 -4 19h-4q-11 -4 -50 -4h-28h-183l-20 -99q-2 -11 -13 -55t-14 -68q-46 -303 -147 -671h4q107 0 227 10h21q13 0 41.5 -2t44.5 -2h14q33 6 111 6q6 60 6 274q-2 39 -2 107v160q0 22 -1 63.5t-1 61.5v69q0 4 -1 13.5t-1 13.5 q0 12 1 25t1 24v14v13q0 3 -1 9t-1 9z" />
<glyph unicode="&#xe7;" horiz-adv-x="1034" d="M455 -315h4h6q5 0 14.5 -1t14.5 -1h14q8 0 19 -1t16 -1q43 0 75.5 26t32.5 76q0 35 -16 62t-39 39.5t-41.5 18t-30.5 5.5q-21 0 -24.5 2.5t-3.5 19.5q0 3 1 7.5t1 7.5v14q0 7 1 58.5t1 66.5h-2q-120 11 -172 78h2l-19 16q-13 12 -22 41h2l-13 19q-6 13 -18 77v19 q0 7 -4 29t-4 34v23q-4 78 -4 125q0 55 2 78v12q-2 2 -2 14v21q-4 86 -4 143q0 17 1 49t1 47v27q0 129 8 192q0 12 17 68l7 25q0 3 7 10h-2q42 86 133 115q9 0 48.5 10t63.5 10q117 0 179 -64.5t73 -175.5v-16q0 -8 1 -19t1 -16q0 -24 -22 -24q-6 30 -6 36v19q-2 32 -9 62 t-23 62t-40 55.5t-62.5 38.5t-87.5 15q-27 0 -79 -10h2q-40 -16 -58 -24.5t-44 -29t-40 -48.5l-6 -10h2l-10 -25q-4 -4 -4 -14l-4 -17q-17 -53 -17 -92q0 -33 2 -49q0 -51 -2 -74v-22q0 -16 -1 -50.5t-1 -52.5q0 -49 4 -147v-21q0 -10 2 -12v-14q0 -23 -2 -69t-2 -69 q0 -48 2 -71v-10q0 -44 15 -111l18 -61l21 -37q43 -43 85 -62.5t109 -25.5h8q24 0 66 14l33 8q82 21 119 96l10 15h-2q16 29 16 75q0 9 -1 30t-1 30q0 45 14 45q13 0 13 -16v-119q-2 -27 -19 -60l-10 -14h2q-32 -70 -86 -88v2l-14 -10q-21 -9 -74 -23l-76 -12 q0 -18 -1 -70.5t-1 -62.5v-25h4q66 0 110 -37t44 -106q0 -53 -39.5 -89t-91.5 -36q-3 0 -7.5 1t-7.5 1q-4 -2 -16 -2t-32.5 4t-28.5 4l-15 2l-2 2q0 15 10 15h9z" />
<glyph unicode="&#xe8;" horiz-adv-x="997" d="M748 1317h55q26 0 26 -17q-3 -10 -20 -10h-59q-56 0 -140 4t-98 4l-100 5q-8 0 -27 1t-31 1h-30q-4 -2 -31 -2h-27q0 -28 -3 -80.5t-3 -77.5q0 -41 5 -123.5t5 -124.5q0 -4 -1 -12.5t-1 -12.5v-65q2 -23 2 -64l295 -6q18 2 58 2h36q4 -4 22.5 -5t18.5 -11q0 -14 -12 -14 q-1 0 -28 3t-50 3q-38 0 -61 -2l-217 4h-58q-2 -18 -2 -55v-29q0 -13 -3 -40t-3 -40q0 -7 1 -19.5t1 -19.5l-4 -180q0 -19 2 -27v-18q0 -111 2 -152h45q23 0 71 2t71 2h98q35 0 113.5 -3t124.5 -3h2q22 0 25 -9q1 -3 1 -7q-2 -8 -24 -8h-7q-25 0 -76 4t-89 4q-28 1 -81 -1.5 t-73 -2.5h-80q-23 -2 -57 -2h-29q-5 0 -15 -1t-14 -1q-7 0 -11.5 0.5t-8 1t-5.5 3t-3 3.5t-1.5 6.5t-0.5 8.5v12v14v6q0 8 -1 26t-1 27v117q0 24 2 72t2 73q0 22 -2 37.5t-2 20.5q0 28 4 74t4 71q0 19 -2 33v28q-6 49 -6 103v51q0 43 -4.5 126t-4.5 122q0 15 5 92v23 q0 4 1 15t1 19q0 4 -1 7t-1 4q0 16 7.5 20t24.5 4q8 0 25 -2t24 -2q4 2 25 2h10q49 -2 163.5 -3t178.5 -7q14 -2 52 -2zM469 1812q3 0 5.5 -1.5t4.5 -5t3 -6.5t3.5 -8.5t3.5 -8.5l21 -27q7 -15 29 -51l16 -27q12 -20 12 -28v-2q-7 -7 -10 -7q-10 0 -19.5 14t-9.5 25l-4 9 q-7 13 -22.5 35.5t-26 41t-16.5 35.5l-2 6q6 6 12 6z" />
<glyph unicode="&#xe9;" horiz-adv-x="997" d="M748 1317h55q26 0 26 -17q-3 -10 -20 -10h-59q-56 0 -140 4t-98 4l-100 5q-8 0 -27 1t-31 1h-30q-4 -2 -31 -2h-27q0 -28 -3 -80.5t-3 -77.5q0 -41 5 -123.5t5 -124.5q0 -4 -1 -12.5t-1 -12.5v-65q2 -23 2 -64l295 -6q18 2 58 2h36q4 -4 22.5 -5t18.5 -11q0 -14 -12 -14 q-1 0 -28 3t-50 3q-38 0 -61 -2l-217 4h-58q-2 -18 -2 -55v-29q0 -13 -3 -40t-3 -40q0 -7 1 -19.5t1 -19.5l-4 -180q0 -19 2 -27v-18q0 -111 2 -152h45q23 0 71 2t71 2h98q35 0 113.5 -3t124.5 -3h2q22 0 25 -9q1 -3 1 -7q-2 -8 -24 -8h-7q-25 0 -76 4t-89 4q-28 1 -81 -1.5 t-73 -2.5h-80q-23 -2 -57 -2h-29q-5 0 -15 -1t-14 -1q-7 0 -11.5 0.5t-8 1t-5.5 3t-3 3.5t-1.5 6.5t-0.5 8.5v12v14v6q0 8 -1 26t-1 27v117q0 24 2 72t2 73q0 22 -2 37.5t-2 20.5q0 28 4 74t4 71q0 19 -2 33v28q-6 49 -6 103v51q0 43 -4.5 126t-4.5 122q0 15 5 92v23 q0 4 1 15t1 19q0 4 -1 7t-1 4q0 16 7.5 20t24.5 4q8 0 25 -2t24 -2q4 2 25 2h10q49 -2 163.5 -3t178.5 -7q14 -2 52 -2zM522 1812q7 0 13 -6l-3 -6q-6 -17 -16.5 -35.5t-26 -41t-22.5 -35.5l-4 -9q0 -11 -9.5 -25t-19.5 -14q-3 0 -10 7v2q0 8 12 28l17 27q19 31 28 51l21 27 q1 3 3.5 8.5t3.5 8.5t3 6.5t4.5 5t5.5 1.5z" />
<glyph unicode="&#xea;" horiz-adv-x="997" d="M748 1317h55q26 0 26 -17q-3 -10 -20 -10h-59q-56 0 -140 4t-98 4l-100 5q-8 0 -27 1t-31 1h-30q-4 -2 -31 -2h-27q0 -28 -3 -80.5t-3 -77.5q0 -41 5 -123.5t5 -124.5q0 -4 -1 -12.5t-1 -12.5v-65q2 -23 2 -64l295 -6q18 2 58 2h36q4 -4 22.5 -5t18.5 -11q0 -14 -12 -14 q-1 0 -28 3t-50 3q-38 0 -61 -2l-217 4h-58q-2 -18 -2 -55v-29q0 -13 -3 -40t-3 -40q0 -7 1 -19.5t1 -19.5l-4 -180q0 -19 2 -27v-18q0 -111 2 -152h45q23 0 71 2t71 2h98q35 0 113.5 -3t124.5 -3h2q22 0 25 -9q1 -3 1 -7q-2 -8 -24 -8h-7q-25 0 -76 4t-89 4q-28 1 -81 -1.5 t-73 -2.5h-80q-23 -2 -57 -2h-29q-5 0 -15 -1t-14 -1q-7 0 -11.5 0.5t-8 1t-5.5 3t-3 3.5t-1.5 6.5t-0.5 8.5v12v14v6q0 8 -1 26t-1 27v117q0 24 2 72t2 73q0 22 -2 37.5t-2 20.5q0 28 4 74t4 71q0 19 -2 33v28q-6 49 -6 103v51q0 43 -4.5 126t-4.5 122q0 15 5 92v23 q0 4 1 15t1 19q0 4 -1 7t-1 4q0 16 7.5 20t24.5 4q8 0 25 -2t24 -2q4 2 25 2h10q49 -2 163.5 -3t178.5 -7q14 -2 52 -2zM348 1645q-8 5 -8 14q0 5 7.5 15t17.5 16l6 6q1 2 26 33l41 49q15 34 37 34h6h31q8 -5 16 -18t11 -16l32 -41q12 -20 23 -29l22 -33l11 -8 q22 -18 24 -27q0 -14 -8 -14q-23 0 -77 74q-4 4 -5 6l-18 25q-6 9 -18.5 25.5t-14.5 19.5l-12 16q-2 2 -11 2q-13 0 -26 -22l-10 -13l-17 -22q0 -5 -15 -20t-18 -21l-28 -29q-6 -6 -9.5 -11t-4.5 -7t-3.5 -3t-7.5 -1z" />
<glyph unicode="&#xeb;" horiz-adv-x="997" d="M748 1317h55q26 0 26 -17q-3 -10 -20 -10h-59q-56 0 -140 4t-98 4l-100 5q-8 0 -27 1t-31 1h-30q-4 -2 -31 -2h-27q0 -28 -3 -80.5t-3 -77.5q0 -41 5 -123.5t5 -124.5q0 -4 -1 -12.5t-1 -12.5v-65q2 -23 2 -64l295 -6q18 2 58 2h36q4 -4 22.5 -5t18.5 -11q0 -14 -12 -14 q-1 0 -28 3t-50 3q-38 0 -61 -2l-217 4h-58q-2 -18 -2 -55v-29q0 -13 -3 -40t-3 -40q0 -7 1 -19.5t1 -19.5l-4 -180q0 -19 2 -27v-18q0 -111 2 -152h45q23 0 71 2t71 2h98q35 0 113.5 -3t124.5 -3h2q22 0 25 -9q1 -3 1 -7q-2 -8 -24 -8h-7q-25 0 -76 4t-89 4q-28 1 -81 -1.5 t-73 -2.5h-80q-23 -2 -57 -2h-29q-5 0 -15 -1t-14 -1q-7 0 -11.5 0.5t-8 1t-5.5 3t-3 3.5t-1.5 6.5t-0.5 8.5v12v14v6q0 8 -1 26t-1 27v117q0 24 2 72t2 73q0 22 -2 37.5t-2 20.5q0 28 4 74t4 71q0 19 -2 33v28q-6 49 -6 103v51q0 43 -4.5 126t-4.5 122q0 15 5 92v23 q0 4 1 15t1 19q0 4 -1 7t-1 4q0 16 7.5 20t24.5 4q8 0 25 -2t24 -2q4 2 25 2h10q49 -2 163.5 -3t178.5 -7q14 -2 52 -2zM313 1696v28q0 1 -1 5.5t-1 7.5q0 22 15 22q3 0 5 -0.5t3.5 -2t2.5 -3t1.5 -4.5t1 -5t0.5 -5.5v-5.5v-5.5v-5.5v-24q0 -1 0.5 -8.5t0 -11t-1.5 -8.5 t-4.5 -7t-8.5 -2q-15 0 -15 22q0 3 1 6.5t1 6.5zM655 1696v28q0 1 -1 5.5t-1 7.5q0 22 15 22q3 0 5 -0.5t3.5 -2t2.5 -3t1.5 -4.5t1 -5t0.5 -5.5v-5.5v-5.5v-5.5v-24q0 -1 0.5 -8.5t0 -11t-1.5 -8.5t-4.5 -7t-8.5 -2q-15 0 -15 22q0 3 1 6.5t1 6.5z" />
<glyph unicode="&#xec;" horiz-adv-x="524" d="M250 561q0 32 -3 89t-3 85v113q6 117 6 395v21q-2 14 -2 41q0 10 2 12q0 3 -1 9t-1 9q0 8 10 15h10q4 -12 4 -15t-1 -9.5t-1 -10.5v-164q-6 -153 -6 -322q6 -48 6 -143t2 -133v-217q0 -4 -1 -13.5t-1 -13.5q0 -23 4.5 -69t4.5 -70q0 -18 -3 -39v-39v-10q0 -9 -6 -12h-2 q-6 0 -10 4l-2 2v39q2 14 2 45q0 28 -3.5 80.5t-4.5 70.5q0 5 1 15.5t1 15.5v127q0 61 -2 92zM152 1812q3 0 5.5 -1.5t4.5 -5t3 -6.5t3.5 -8.5t3.5 -8.5l21 -27q9 -20 28 -51l17 -27q12 -20 12 -28v-2q-7 -7 -10 -7q-10 0 -19.5 14t-9.5 25l-4 9q-8 13 -23 35.5t-26 41 t-17 35.5l-2 6q6 6 13 6z" />
<glyph unicode="&#xed;" horiz-adv-x="524" d="M250 561q0 32 -3 89t-3 85v113q6 117 6 395v21q-2 14 -2 41q0 10 2 12q0 3 -1 9t-1 9q0 8 10 15h10q4 -12 4 -15t-1 -9.5t-1 -10.5v-164q-6 -153 -6 -322q6 -48 6 -143t2 -133v-217q0 -4 -1 -13.5t-1 -13.5q0 -23 4.5 -69t4.5 -70q0 -18 -3 -39v-39v-10q0 -9 -6 -12h-2 q-6 0 -10 4l-2 2v39q2 14 2 45q0 28 -3.5 80.5t-4.5 70.5q0 5 1 15.5t1 15.5v127q0 61 -2 92zM367 1812q6 0 12 -6l-2 -6q-6 -17 -17 -35.5t-26 -41t-23 -35.5l-4 -9q0 -11 -9 -25t-19 -14q-4 0 -11 7v2q0 6 13 28l16 27q22 36 29 51l20 27q13 30 21 30z" />
<glyph unicode="&#xee;" horiz-adv-x="524" d="M250 561q0 32 -3 89t-3 85v113q6 117 6 395v21q-2 14 -2 41q0 10 2 12q0 3 -1 9t-1 9q0 8 10 15h10q4 -12 4 -15t-1 -9.5t-1 -10.5v-164q-6 -153 -6 -322q6 -48 6 -143t2 -133v-217q0 -4 -1 -13.5t-1 -13.5q0 -23 4.5 -69t4.5 -70q0 -18 -3 -39v-39v-10q0 -9 -6 -12h-2 q-6 0 -10 4l-2 2v39q2 14 2 45q0 28 -3.5 80.5t-4.5 70.5q0 5 1 15.5t1 15.5v127q0 61 -2 92zM113 1645q-9 6 -9 14q0 5 7.5 15t17.5 16l6 6q5 8 15.5 20t11.5 13l41 49q15 34 37 34h6h30q8 -5 16 -18t11 -16l33 -41q13 -22 22 -29l23 -33l10 -8q23 -19 25 -27q0 -14 -8 -14 q-23 0 -77 74q-4 4 -5 6l-19 25q-6 9 -18.5 25.5t-14.5 19.5l-12 16q-2 2 -10 2q-14 0 -27 -22l-10 -13l-16 -22q0 -5 -15 -20t-18 -21l-29 -29q-5 -5 -8 -9t-4 -6.5t-2.5 -4t-3.5 -2t-6 -0.5z" />
<glyph unicode="&#xef;" horiz-adv-x="524" d="M250 561q0 32 -3 89t-3 85v113q6 117 6 395v21q-2 14 -2 41q0 10 2 12q0 3 -1 9t-1 9q0 8 10 15h10q4 -12 4 -15t-1 -9.5t-1 -10.5v-164q-6 -153 -6 -322q6 -48 6 -143t2 -133v-217q0 -4 -1 -13.5t-1 -13.5q0 -23 4.5 -69t4.5 -70q0 -18 -3 -39v-39v-10q0 -9 -6 -12h-2 q-6 0 -10 4l-2 2v39q2 14 2 45q0 28 -3.5 80.5t-4.5 70.5q0 5 1 15.5t1 15.5v127q0 61 -2 92zM420 1696v28q0 1 -1 5.5t-1 7.5q0 22 14 22q3 0 5 -0.5t3.5 -2t2.5 -3t1.5 -4.5t1 -5t0.5 -5.5v-5.5v-5.5v-5.5v-24q0 -1 0.5 -8.5t0 -11t-1.5 -8.5t-4.5 -7t-8.5 -2 q-14 0 -14 22q0 3 1 6.5t1 6.5zM78 1696v28q0 1 -1 5.5t-1 7.5q0 22 14 22q3 0 5 -0.5t3.5 -2t2.5 -3t1.5 -4.5t1 -5t0.5 -5.5v-5.5v-5.5v-5.5v-24q0 -1 0.5 -8.5t0 -11t-1.5 -8.5t-4.5 -7t-8.5 -2q-14 0 -14 22q0 3 1 6.5t1 6.5z" />
<glyph unicode="&#xf0;" horiz-adv-x="1026" d="M727 1260l16 -21q28 -42 42 -82.5t18 -112.5v-26q-4 -12 -4 -115v-254q0 -31 2 -93t2 -93q0 -9 -1 -28.5t-1 -28.5l-4 -58v-14q0 -67 -35.5 -120.5t-97.5 -76.5q-4 -3 -13.5 -6t-13.5 -6l-31 -6q-25 -5 -49.5 -7t-39 -2t-39.5 0.5t-38 0.5h-20q-23 0 -64 2t-65 2l-17 2 l-6 2h-4q-4 0 -4 6q0 10 2 10v205v43v51q0 21 1 63t1 66q0 50 -4 148q-18 2 -61 2q-11 0 -31 -1t-31 -1h-12h-4q-18 0 -23.5 3.5t-5.5 16.5l2 2q4 4 33 4q6 0 8 -2h10h15q12 0 39 1t43 1h18v203q-8 91 -8 221q0 4 1 13t1 14q0 27 -2 41v57v6q0 4 -1 13.5t-1 13.5q0 24 22 24 h9q28 0 79 7h46q150 0 233 -39l33 -15q12 -10 30 -17t25 -19zM774 989q2 14 2 43v23q-12 148 -88 205q-39 30 -113.5 47.5t-164.5 17.5q-14 0 -43 -3t-50 -3h-22q-5 0 -9 -0.5t-6 -3t-3.5 -4t-2 -5.5t-0.5 -6.5v-8.5v-9q0 -51 5.5 -137t5.5 -119v-57q0 -24 -1 -69t-1 -66 q0 -35 4 -97q18 0 52.5 -1t51.5 -1h33h14q3 0 8.5 1t8.5 1h12q18 0 18 -12q0 -14 -32 -14q-7 0 -9 2h-4q-12 0 -29.5 -1t-25.5 -1q-13 0 -38 1t-38 1q-18 0 -22 -2v-80q0 -21 -1 -67t-1 -70q0 -16 1 -42.5t1 -39.5q0 -9 -1 -27t-1 -27q0 -18 2 -24v-2q0 -2 -0.5 -7 t-0.5 -11.5v-15t-0.5 -18t-0.5 -20v-20.5v-99q11 -4 55 -4h41h63q13 0 39.5 -1t42.5 -1q125 0 186.5 68.5t61.5 189.5q0 31 -2 47v33q0 19 -1 54t-1 55q-1 17 1.5 44t2.5 40v26q0 25 -2 39v57q0 8 1.5 37t0.5 47q-2 18 -2 58q0 36 2 59z" />
<glyph unicode="&#xf1;" horiz-adv-x="1095" d="M221 133l-4 53q0 10 -1 28t-1 24q0 20 3 61t3 61v15q0 25 5 77t5 78q0 22 -4 72v78q0 16 1 43.5t1 40.5q0 66 -4 197t-4 196q0 121 2 184h2q15 15 45 15h17l73 -174q59 -121 107 -248l98 -227l62 -150q4 -10 15 -38t20 -44l26 -63q2 -2 8 -21l17 -39q1 -3 4 -7t4 -7 l31 -74l28 -65q24 -60 33 -76h21q2 66 2 186v119q0 29 -2 43v39q0 42 -3.5 107t-3.5 100v18q0 27 -2 83t-2 83q0 32 6.5 102.5t6.5 108.5v4q0 16 2 50.5t2 52.5q0 17 -2 50t-2 50q0 9 4 37l2 2q4 4 8 4q6 0 8 -2h2q4 -12 4 -14q0 -4 -2 -12t-2 -11l4 -53q0 -10 1 -27t1 -24 q0 -21 -3 -62t-3 -61v-15q0 -31 -6 -92t-6 -92q0 -29 2 -43v-78q0 -82 5 -239t5 -238q0 -121 -2 -184h-2q-10 -13 -22 -13q-8 0 -21 3.5t-18 3.5l-74 165q-9 22 -33.5 76t-42 94.5t-31.5 77.5l-79 189l-19 39q-32 75 -50 120.5t-20.5 54.5t-7.5 20t-18 36l-27 63q-1 1 -8 21 l-16 39q-1 3 -4.5 7t-4.5 7l-30 74l-29 65q-24 60 -33 76h-2q-3 0 -6 -1t-6 -1q-4 0 -6 2q-2 -66 -2 -186v-119q0 -29 2 -43v-39q0 -20 2 -53t2 -49q0 -17 -1 -51t-1 -54v-18q0 -31 2 -92t2 -92t-4 -96t-4 -97v-4q0 -18 -3 -51t-3 -51t2 -51.5t2 -49.5q0 -23 -2 -37l-2 -2 q-4 -4 -9 -4q-6 0 -8 2h-2q-4 12 -4 15q0 4 2 11t2 11zM319 1634h-4q-4 4 -4 15q0 51 41 83.5t88 32.5q25 0 54 -10t45 -26l22 -15q31 -33 98 -33q41 0 62 21l10 14q2 2 2 4l6 9q13 37 15 40h2q6 0 8 -2l4 -2q0 -42 -32.5 -74t-80.5 -32q-46 0 -82.5 13.5t-55.5 29.5 t-41 29.5t-42 13.5q-38 0 -67 -25t-37 -63v-6q0 -17 -11 -17z" />
<glyph unicode="&#xf2;" d="M776 504l-8 -139q0 -3 -2 -6.5t-2 -6.5q0 -2 2 -4q-3 -10 -7.5 -30t-6.5 -29l-7 -29q-20 -74 -81.5 -113t-143.5 -47l-41 -4h-18q-105 0 -182.5 80t-77.5 186q-6 55 -6 109q0 11 1 30t1 31v107q0 25 -3.5 74t-3.5 73q0 57 5 78l4 107q2 14 4 77.5t10 96.5l8 39 q20 103 121 151l41 13q41 8 96 8q27 0 99 -13l36 -14q138 -71 138 -201v-18q0 -5 1 -14t1 -13v-77q0 -72 9 -212t9 -212zM700 223q4 4 8 11t8 16t7 14l8 33q5 34 7 103.5t7 103.5q0 4 -1 13t-1 13v119q-14 229 -14 293q0 45 2 70v26q-4 16 -4 47q0 7 1 19.5t1 19.5 q0 87 -68.5 145t-144.5 58l-92 -4q-29 0 -53.5 -6t-41.5 -12.5t-32 -22t-22.5 -24.5t-16 -29.5t-11 -27.5t-8.5 -29t-6 -23l-6 -39q-6 -35 -6 -106v-54q0 -63 -4 -80v-26q0 -25 -2 -29v-45q0 -58 6 -117v-37v-28v-56q0 -17 1 -48.5t1.5 -50.5t2 -46t5.5 -51q5 -86 72 -151.5 t152 -65.5q173 0 245 104zM362 1812q8 0 21 -30l20 -27q7 -15 29 -51l17 -27q12 -20 12 -28v-2q-7 -7 -10 -7q-10 0 -19.5 14t-9.5 25l-4 9q-8 13 -23 35.5t-26 41t-17 35.5l-2 6q6 6 12 6z" />
<glyph unicode="&#xf3;" d="M776 504l-8 -139q0 -3 -2 -6.5t-2 -6.5q0 -2 2 -4q-3 -10 -7.5 -30t-6.5 -29l-7 -29q-20 -74 -81.5 -113t-143.5 -47l-41 -4h-18q-105 0 -182.5 80t-77.5 186q-6 55 -6 109q0 11 1 30t1 31v107q0 25 -3.5 74t-3.5 73q0 57 5 78l4 107q2 14 4 77.5t10 96.5l8 39 q20 103 121 151l41 13q41 8 96 8q27 0 99 -13l36 -14q138 -71 138 -201v-18q0 -5 1 -14t1 -13v-77q0 -72 9 -212t9 -212zM700 223q4 4 8 11t8 16t7 14l8 33q5 34 7 103.5t7 103.5q0 4 -1 13t-1 13v119q-14 229 -14 293q0 45 2 70v26q-4 16 -4 47q0 7 1 19.5t1 19.5 q0 87 -68.5 145t-144.5 58l-92 -4q-29 0 -53.5 -6t-41.5 -12.5t-32 -22t-22.5 -24.5t-16 -29.5t-11 -27.5t-8.5 -29t-6 -23l-6 -39q-6 -35 -6 -106v-54q0 -63 -4 -80v-26q0 -25 -2 -29v-45q0 -58 6 -117v-37v-28v-56q0 -17 1 -48.5t1.5 -50.5t2 -46t5.5 -51q5 -86 72 -151.5 t152 -65.5q173 0 245 104zM580 1812q6 0 12 -6l-2 -6q-6 -17 -17 -35.5t-26 -41t-23 -35.5l-4 -9q0 -11 -9 -25t-19 -14q-4 0 -11 7v2q0 6 13 28l16 27q22 36 29 51l20 27q13 30 21 30z" />
<glyph unicode="&#xf4;" d="M776 504l-8 -139q0 -3 -2 -6.5t-2 -6.5q0 -2 2 -4q-3 -10 -7.5 -30t-6.5 -29l-7 -29q-20 -74 -81.5 -113t-143.5 -47l-41 -4h-18q-105 0 -182.5 80t-77.5 186q-6 55 -6 109q0 11 1 30t1 31v107q0 25 -3.5 74t-3.5 73q0 57 5 78l4 107q2 14 4 77.5t10 96.5l8 39 q20 103 121 151l41 13q41 8 96 8q27 0 99 -13l36 -14q138 -71 138 -201v-18q0 -5 1 -14t1 -13v-77q0 -72 9 -212t9 -212zM700 223q4 4 8 11t8 16t7 14l8 33q5 34 7 103.5t7 103.5q0 4 -1 13t-1 13v119q-14 229 -14 293q0 45 2 70v26q-4 16 -4 47q0 7 1 19.5t1 19.5 q0 87 -68.5 145t-144.5 58l-92 -4q-29 0 -53.5 -6t-41.5 -12.5t-32 -22t-22.5 -24.5t-16 -29.5t-11 -27.5t-8.5 -29t-6 -23l-6 -39q-6 -35 -6 -106v-54q0 -63 -4 -80v-26q0 -25 -2 -29v-45q0 -58 6 -117v-37v-28v-56q0 -17 1 -48.5t1.5 -50.5t2 -46t5.5 -51q5 -86 72 -151.5 t152 -65.5q173 0 245 104zM324 1645q-9 6 -9 14q0 5 7.5 15t17.5 16l6 6q5 8 15.5 20t11.5 13l41 49q15 34 37 34h6h30q8 -5 16 -18t11 -16l33 -41q13 -22 22 -29l23 -33l10 -8q23 -19 25 -27q0 -14 -9 -14q-4 0 -8.5 1.5t-9.5 5.5t-9.5 7.5t-10 10t-9.5 11t-9.5 12t-9 11.5 t-8.5 11t-7 10l-19 25q-6 9 -18.5 25.5t-14.5 19.5l-12 16q-2 2 -10 2q-14 0 -27 -22l-10 -13l-16 -22q0 -5 -15 -20t-18 -21l-29 -29q-5 -5 -8 -9t-4 -6.5t-2.5 -4t-3.5 -2t-6 -0.5z" />
<glyph unicode="&#xf5;" d="M776 504l-8 -139q0 -3 -2 -6.5t-2 -6.5q0 -2 2 -4q-3 -10 -7.5 -30t-6.5 -29l-7 -29q-20 -74 -81.5 -113t-143.5 -47l-41 -4h-18q-105 0 -182.5 80t-77.5 186q-6 55 -6 109q0 11 1 30t1 31v107q0 25 -3.5 74t-3.5 73q0 57 5 78l4 107q2 14 4 77.5t10 96.5l8 39 q20 103 121 151l41 13q41 8 96 8q27 0 99 -13l36 -14q138 -71 138 -201v-18q0 -5 1 -14t1 -13v-77q0 -72 9 -212t9 -212zM700 223q4 4 8 11t8 16t7 14l8 33q5 34 7 103.5t7 103.5q0 4 -1 13t-1 13v119q-14 229 -14 293q0 45 2 70v26q-4 16 -4 47q0 7 1 19.5t1 19.5 q0 87 -68.5 145t-144.5 58l-92 -4q-29 0 -53.5 -6t-41.5 -12.5t-32 -22t-22.5 -24.5t-16 -29.5t-11 -27.5t-8.5 -29t-6 -23l-6 -39q-6 -35 -6 -106v-54q0 -63 -4 -80v-26q0 -25 -2 -29v-45q0 -58 6 -117v-37v-28v-56q0 -17 1 -48.5t1.5 -50.5t2 -46t5.5 -51q5 -86 72 -151.5 t152 -65.5q173 0 245 104zM246 1634h-4q-4 4 -4 15q0 51 41 83.5t88 32.5q25 0 53.5 -10t44.5 -26l22 -15q31 -33 99 -33q40 0 61 21l10 14q2 2 2 4l7 9q13 39 14 40h2q6 0 8 -2l4 -2q0 -43 -32 -74.5t-80 -31.5q-46 0 -82.5 13.5t-55.5 29.5t-41.5 29.5t-42.5 13.5 q-38 0 -67 -25t-37 -63v-6q0 -17 -10 -17z" />
<glyph unicode="&#xf6;" d="M776 504l-8 -139q0 -3 -2 -6.5t-2 -6.5q0 -2 2 -4q-3 -10 -7.5 -30t-6.5 -29l-7 -29q-20 -74 -81.5 -113t-143.5 -47l-41 -4h-18q-105 0 -182.5 80t-77.5 186q-6 55 -6 109q0 11 1 30t1 31v107q0 25 -3.5 74t-3.5 73q0 57 5 78l4 107q2 14 4 77.5t10 96.5l8 39 q20 103 121 151l41 13q41 8 96 8q27 0 99 -13l36 -14q138 -71 138 -201v-18q0 -5 1 -14t1 -13v-77q0 -72 9 -212t9 -212zM700 223q4 4 8 11t8 16t7 14l8 33q5 34 7 103.5t7 103.5q0 4 -1 13t-1 13v119q-14 229 -14 293q0 45 2 70v26q-4 16 -4 47q0 7 1 19.5t1 19.5 q0 87 -68.5 145t-144.5 58l-92 -4q-29 0 -53.5 -6t-41.5 -12.5t-32 -22t-22.5 -24.5t-16 -29.5t-11 -27.5t-8.5 -29t-6 -23l-6 -39q-6 -35 -6 -106v-54q0 -63 -4 -80v-26q0 -25 -2 -29v-45q0 -58 6 -117v-37v-28v-56q0 -17 1 -48.5t1.5 -50.5t2 -46t5.5 -51q5 -86 72 -151.5 t152 -65.5q173 0 245 104zM289 1696v28q0 1 -1 5.5t-1 7.5q0 22 14 22q3 0 5 -0.5t3.5 -2t2.5 -3t1.5 -4.5t1 -5t0.5 -5.5v-5.5v-5.5v-5.5v-24q0 -1 0.5 -8.5t0 -11t-1.5 -8.5t-4.5 -7t-8.5 -2q-14 0 -14 22q0 3 1 6.5t1 6.5zM631 1696v28q0 1 -1 5.5t-1 7.5q0 22 14 22 q3 0 5 -0.5t3.5 -2t2.5 -3t1.5 -4.5t1 -5t0.5 -5.5v-5.5v-5.5v-5.5v-24q0 -1 0.5 -8.5t0 -11t-1.5 -8.5t-4.5 -7t-8.5 -2q-14 0 -14 22q0 3 1 6.5t1 6.5z" />
<glyph unicode="&#xf7;" horiz-adv-x="1079" d="M365 621h-164q-19 0 -19 10q0 16 41 16h62q10 -2 28 -2h41h172q267 0 293 -4h41q14 0 14 -12q0 -15 -34 -15h-19q-13 0 -31 2t-32 2h-29q-14 0 -180.5 1.5t-183.5 1.5zM522 987h29h12q23 0 23 -12q0 -5 -2 -8.5t-7 -4.5t-8 -1.5t-10.5 0t-9.5 0.5h-25q-1 0 -8.5 -0.5 t-11 0t-8.5 1.5t-7 4.5t-2 8.5q0 12 23 12h12zM522 293h29h12q23 0 23 -12q0 -4 -1 -6.5t-3.5 -4t-5 -2.5t-6.5 -1.5t-6.5 -0.5h-7.5h-7h-25h-5.5h-6h-6t-6 0.5t-5.5 1.5t-4.5 3t-2.5 4.5t-1 5.5q0 12 23 12h12z" />
<glyph unicode="&#xf8;" horiz-adv-x="1144" d="M158 510l2 2q16 7 45.5 24t44.5 25l45 23q2 16 2 53v27q-2 23 -2 67q0 31 2 94t2 95q0 29 -3 88.5t-3 87.5q0 181 119 239l14 4l12 7q10 7 21.5 11t26.5 5.5t23 2t26.5 0t21.5 -0.5q254 0 272 -252l5 -33q14 -103 14 -184q85 53 129 74l2 2q24 8 27 8q15 0 18 -14v-4 l-31 -11q-28 -14 -75 -43.5t-70 -40.5q2 -115 2 -336v-43v-53q0 -59 -4 -74l-6 -30q-11 -41 -23.5 -72t-35 -63.5t-52 -53.5t-74.5 -34t-102 -13q-41 0 -68 8l-32 11q-48 17 -83 56.5t-42 86.5l-4 27q-2 10 -7 32.5t-7.5 40.5t-2.5 35q0 3 1 6t1 6q-2 15 -3 69.5t-9 82.5 q-2 -1 -39 -18t-69.5 -34.5t-32.5 -23.5q-1 0 -7 -3t-10 -3l-2 2q-6 6 -6 12q2 8 27 23zM823 883v10q0 77 -16 192l-4 48q-6 60 -23 101t-63 62l-37 17q-49 20 -131 20q-121 0 -176.5 -62.5t-55.5 -158.5q0 -36 4.5 -103.5t4.5 -103.5q0 -37 -1 -111t-1 -112q2 -14 2 -41 t-2 -41q25 14 69 36t58 30l30 16q14 9 72 41l27 12q42 18 109 59t79 48q3 3 27 19t28 22zM326 571q0 -1 -1 -2t-1 -2q0 -29 6 -35l4 -120q2 -15 5 -47t5.5 -50.5t9 -48t15 -47t24 -39t36 -33.5t51.5 -20t69 -8q83 0 149 31l27 18q53 37 84 143l4 21q0 24 6 55.5t6 52.5v43v9 q-2 27 -2 83q0 15 1 44t1 45q0 127 -2 186q-28 -19 -62.5 -40t-58 -34.5t-66.5 -37t-61 -33.5l-178 -95l-12 -6l-29 -14q-30 -13 -30 -19z" />
<glyph unicode="&#xf9;" d="M195 1278v29q0 57 12 57q16 0 16 -23q0 -7 -3 -23t-3 -24v-20q0 -23 2 -63.5t2 -65.5v-129q0 -22 -1 -64t-1 -63q0 -40 4 -130.5t4 -131.5v-99v-22v-21q0 -16 -1 -43.5t-1 -40.5q0 -37 10.5 -86t24.5 -75l23 -27q65 -77 170 -80h16h47q8 0 18 1t13 1l45 15q1 0 4 1t4 1 l33 12q10 4 16.5 9.5t15 20t11.5 19.5l24 31q21 30 21 121q12 120 12 340v20v27v10v31q0 22 -2 61.5t-2 56.5v21v51q0 15 -3 47t-3 49q0 5 1 15.5t1 15.5v59q0 189 18 189q13 0 13 -55q0 -24 -5.5 -68.5t-5.5 -65.5q0 -3 1.5 -7t1.5 -7q0 -31 -3 -65q0 -24 4.5 -67t4.5 -67 q0 -5 -1 -14t-1 -14q0 -22 4 -68v-39q0 -13 1 -39.5t1 -42.5q0 -13 -1 -40.5t-1 -43.5v-108q0 -77 -13 -201v-8q-1 -5 -4 -27.5t-4.5 -31.5t-6.5 -24t-11 -26l-15 -18q-1 -2 -8.5 -11.5t-9.5 -12.5t-9 -11.5t-11 -12t-11.5 -9.5t-13.5 -9t-14 -6t-17 -4l-16 -6q-10 0 -29 -7 t-43 -7h-65q-104 -3 -168 61l-25 25q-28 28 -43.5 87t-15.5 128q0 16 2 49t2 51v14v19q0 64 -5 170.5t-5 157.5q0 7 1 20.5t1 20.5v55q-2 14 -2 33q0 17 1 49t1 53q0 126 -4 170zM362 1812q8 0 21 -30l20 -27q7 -15 29 -51l17 -27q12 -20 12 -28v-2q-7 -7 -10 -7 q-10 0 -19.5 14t-9.5 25l-4 9q-8 13 -23 35.5t-26 41t-17 35.5l-2 6q6 6 12 6z" />
<glyph unicode="&#xfa;" d="M195 1278v29q0 57 12 57q16 0 16 -23q0 -7 -3 -23t-3 -24v-20q0 -23 2 -63.5t2 -65.5v-129q0 -22 -1 -64t-1 -63q0 -40 4 -130.5t4 -131.5v-99v-22v-21q0 -16 -1 -43.5t-1 -40.5q0 -37 10.5 -86t24.5 -75l23 -27q65 -77 170 -80h16h47q8 0 18 1t13 1l45 15q1 0 4 1t4 1 l33 12q10 4 16.5 9.5t15 20t11.5 19.5l24 31q21 30 21 121q12 120 12 340v20v27v10v31q0 22 -2 61.5t-2 56.5v21v51q0 15 -3 47t-3 49q0 5 1 15.5t1 15.5v59q0 189 18 189q13 0 13 -55q0 -24 -5.5 -68.5t-5.5 -65.5q0 -3 1.5 -7t1.5 -7q0 -31 -3 -65q0 -24 4.5 -67t4.5 -67 q0 -5 -1 -14t-1 -14q0 -22 4 -68v-39q0 -13 1 -39.5t1 -42.5q0 -13 -1 -40.5t-1 -43.5v-108q0 -77 -13 -201v-8q-1 -5 -4 -27.5t-4.5 -31.5t-6.5 -24t-11 -26l-15 -18q-1 -2 -8.5 -11.5t-9.5 -12.5t-9 -11.5t-11 -12t-11.5 -9.5t-13.5 -9t-14 -6t-17 -4l-16 -6q-10 0 -29 -7 t-43 -7h-65q-104 -3 -168 61l-25 25q-28 28 -43.5 87t-15.5 128q0 16 2 49t2 51v14v19q0 64 -5 170.5t-5 157.5q0 7 1 20.5t1 20.5v55q-2 14 -2 33q0 17 1 49t1 53q0 126 -4 170zM580 1812q6 0 12 -6l-2 -6q-6 -17 -17 -35.5t-26 -41t-23 -35.5l-4 -9q0 -11 -9 -25t-19 -14 q-4 0 -11 7v2q0 6 13 28l16 27q22 36 29 51l20 27q13 30 21 30z" />
<glyph unicode="&#xfb;" d="M195 1278v29q0 57 12 57q16 0 16 -23q0 -7 -3 -23t-3 -24v-20q0 -23 2 -63.5t2 -65.5v-129q0 -22 -1 -64t-1 -63q0 -40 4 -130.5t4 -131.5v-99v-22v-21q0 -16 -1 -43.5t-1 -40.5q0 -37 10.5 -86t24.5 -75l23 -27q65 -77 170 -80h16h47q8 0 18 1t13 1l45 15q1 0 4 1t4 1 l33 12q10 4 16.5 9.5t15 20t11.5 19.5l24 31q21 30 21 121q12 120 12 340v20v27v10v31q0 22 -2 61.5t-2 56.5v21v51q0 15 -3 47t-3 49q0 5 1 15.5t1 15.5v59q0 189 18 189q13 0 13 -55q0 -24 -5.5 -68.5t-5.5 -65.5q0 -3 1.5 -7t1.5 -7q0 -31 -3 -65q0 -24 4.5 -67t4.5 -67 q0 -5 -1 -14t-1 -14q0 -22 4 -68v-39q0 -13 1 -39.5t1 -42.5q0 -13 -1 -40.5t-1 -43.5v-108q0 -77 -13 -201v-8q-1 -5 -4 -27.5t-4.5 -31.5t-6.5 -24t-11 -26l-15 -18q-1 -2 -8.5 -11.5t-9.5 -12.5t-9 -11.5t-11 -12t-11.5 -9.5t-13.5 -9t-14 -6t-17 -4l-16 -6q-10 0 -29 -7 t-43 -7h-65q-104 -3 -168 61l-25 25q-28 28 -43.5 87t-15.5 128q0 16 2 49t2 51v14v19q0 64 -5 170.5t-5 157.5q0 7 1 20.5t1 20.5v55q-2 14 -2 33q0 17 1 49t1 53q0 126 -4 170zM324 1645q-9 6 -9 14q0 5 7.5 15t17.5 16l6 6q5 8 15.5 20t11.5 13l41 49q15 34 37 34h6h30 q8 -5 16 -18t11 -16l33 -41q13 -22 22 -29l23 -33l10 -8q23 -19 25 -27q0 -14 -9 -14q-4 0 -8.5 1.5t-9.5 5.5t-9.5 7.5t-10 10t-9.5 11t-9.5 12t-9 11.5t-8.5 11t-7 10l-19 25q-6 9 -18.5 25.5t-14.5 19.5l-12 16q-2 2 -10 2q-14 0 -27 -22l-10 -13l-16 -22q0 -5 -15 -20 t-18 -21l-29 -29q-5 -5 -8 -9t-4 -6.5t-2.5 -4t-3.5 -2t-6 -0.5z" />
<glyph unicode="&#xfc;" d="M195 1278v29q0 57 12 57q16 0 16 -23q0 -7 -3 -23t-3 -24v-20q0 -23 2 -63.5t2 -65.5v-129q0 -22 -1 -64t-1 -63q0 -40 4 -130.5t4 -131.5v-99v-22v-21q0 -16 -1 -43.5t-1 -40.5q0 -37 10.5 -86t24.5 -75l23 -27q65 -77 170 -80h16h47q8 0 18 1t13 1l45 15q1 0 4 1t4 1 l33 12q10 4 16.5 9.5t15 20t11.5 19.5l24 31q21 30 21 121q12 120 12 340v20v27v10v31q0 22 -2 61.5t-2 56.5v21v51q0 15 -3 47t-3 49q0 5 1 15.5t1 15.5v59q0 189 18 189q13 0 13 -55q0 -24 -5.5 -68.5t-5.5 -65.5q0 -3 1.5 -7t1.5 -7q0 -31 -3 -65q0 -24 4.5 -67t4.5 -67 q0 -5 -1 -14t-1 -14q0 -22 4 -68v-39q0 -13 1 -39.5t1 -42.5q0 -13 -1 -40.5t-1 -43.5v-108q0 -77 -13 -201v-8q-1 -5 -4 -27.5t-4.5 -31.5t-6.5 -24t-11 -26l-15 -18q-1 -2 -8.5 -11.5t-9.5 -12.5t-9 -11.5t-11 -12t-11.5 -9.5t-13.5 -9t-14 -6t-17 -4l-16 -6q-10 0 -29 -7 t-43 -7h-65q-104 -3 -168 61l-25 25q-28 28 -43.5 87t-15.5 128q0 16 2 49t2 51v14v19q0 64 -5 170.5t-5 157.5q0 7 1 20.5t1 20.5v55q-2 14 -2 33q0 17 1 49t1 53q0 126 -4 170zM289 1696v28q0 1 -1 5.5t-1 7.5q0 22 14 22q3 0 5 -0.5t3.5 -2t2.5 -3t1.5 -4.5t1 -5 t0.5 -5.5v-5.5v-5.5v-5.5v-24q0 -1 0.5 -8.5t0 -11t-1.5 -8.5t-4.5 -7t-8.5 -2q-14 0 -14 22q0 3 1 6.5t1 6.5zM631 1696v28q0 1 -1 5.5t-1 7.5q0 22 14 22q3 0 5 -0.5t3.5 -2t2.5 -3t1.5 -4.5t1 -5t0.5 -5.5v-5.5v-5.5v-5.5v-24q0 -1 0.5 -8.5t0 -11t-1.5 -8.5t-4.5 -7 t-8.5 -2q-14 0 -14 22q0 3 1 6.5t1 6.5z" />
<glyph unicode="&#xfd;" horiz-adv-x="1032" d="M827 1376h2l2 -6l-10 -31l-4 -12l-2 -6l-49 -137l-33 -84q-95 -235 -119 -283l-65 -153q-12 -20 -12 -48q0 -8 2 -25.5t2 -25.5q0 -69 -5.5 -211.5t-5.5 -197.5q0 -23 2 -29v-41q0 -3 1.5 -5t1.5 -5q0 -13 -17 -13h-4q-6 5 -6 25q0 1 1 4t1 4l-4 41q0 5 -1 14.5t-1 14.5 q0 46 4 142.5t4 144.5q0 72 -4 182q-35 40 -49 80l-4 6q-14 30 -32 86t-28 80l-43 119q-7 19 -45.5 120t-62.5 160l-29 68q-8 5 -8 16q0 1 1 3t1 3l12 6q12 0 80 -182l76 -184l49 -139q2 -6 7.5 -24t9.5 -30t10 -31.5t11 -33.5t11.5 -31t12 -28.5t11 -22.5t10.5 -16t9 -5 q1 0 13 32.5t31.5 78.5t33.5 72l10 20q12 22 23 48t24.5 60.5t20.5 51.5l37 94q6 17 18 46.5t22 56t17 51.5l31 86q2 3 4.5 8.5t4 9.5t5 7t6.5 3q4 0 8 -4zM629 1812q6 0 12 -6l-2 -6q-6 -17 -17 -35.5t-26 -41t-23 -35.5l-4 -9q0 -11 -9 -25t-19 -14q-4 0 -11 7v2 q0 6 13 28l16 27q22 36 29 51l20 27q13 30 21 30z" />
<glyph unicode="&#xfe;" horiz-adv-x="968" d="M252 139v4q2 23 2 66q-2 23 -2 61q4 32 4 52l6 104q1 17 1 36.5t-0.5 44t-0.5 38.5q0 167 -4 211v22q-4 15 -4 74q0 34 2 103t2 102q0 71 -5 170t-5 114q0 23 2 29v6q0 21 5 24q3 1 7 1h6q4 -4 4 -15q0 -4 -1 -11.5t-1 -10.5q0 -46 4 -53l7 -170q4 2 26 2q15 0 42 -2 t42 -2h58q4 2 22 2q41 -3 80 -11.5t83 -28.5t76 -49t53 -76.5t21 -107.5q0 -7 -1 -18.5t-1 -18.5v-28q0 -11 1 -35t1 -35v-14v-14q0 -35 -8 -66l-2 -4q-8 -110 -123 -211l-20 -14q-94 -56 -236 -56h-45q-3 0 -7 -1t-7 -1q-5 0 -15.5 1t-15.5 1q-20 0 -24 -2v-33 q-7 -51 -7 -96v-28q0 -7 1 -17.5t1 -15.5q0 -17 -4 -45v-4q0 -13 -10 -13q-12 0 -12 23q0 3 1 8t1 8zM762 838v45q-3 46 -23 85.5t-51 67t-70 47.5t-79 29.5t-78 9.5q-3 0 -8.5 -1t-8.5 -1h-43q-22 0 -37.5 2t-21.5 2h-37q-22 0 -24 -2q-5 -157 -5 -217q0 -75 4.5 -229 t4.5 -223q0 -11 -1 -31.5t-1 -32.5q0 -3 1 -9t1 -9q46 4 86 4h71q104 11 144 35l22 12q92 56 124 140t32 218q-4 28 -4 39q0 3 1 9.5t1 9.5z" />
<glyph unicode="&#xff;" horiz-adv-x="1032" d="M827 1376h2l2 -6l-10 -31l-4 -12l-2 -6l-49 -137l-33 -84q-95 -235 -119 -283l-65 -153q-12 -20 -12 -48q0 -8 2 -25.5t2 -25.5q0 -69 -5.5 -211.5t-5.5 -197.5q0 -23 2 -29v-41q0 -3 1.5 -5t1.5 -5q0 -13 -17 -13h-4q-6 5 -6 25q0 1 1 4t1 4l-4 41q0 5 -1 14.5t-1 14.5 q0 46 4 142.5t4 144.5q0 72 -4 182q-35 40 -49 80l-4 6q-14 30 -32 86t-28 80l-43 119q-7 19 -45.5 120t-62.5 160l-29 68q-8 5 -8 16q0 1 1 3t1 3l12 6q12 0 80 -182l76 -184l49 -139q2 -6 7.5 -24t9.5 -30t10 -31.5t11 -33.5t11.5 -31t12 -28.5t11 -22.5t10.5 -16t9 -5 q1 0 13 32.5t31.5 78.5t33.5 72l10 20q12 22 23 48t24.5 60.5t20.5 51.5l37 94q6 17 18 46.5t22 56t17 51.5l31 86q2 3 4.5 8.5t4 9.5t5 7t6.5 3q4 0 8 -4zM672 1696v28q0 1 -1 5.5t-1 7.5q0 22 14 22q3 0 5 -0.5t3.5 -2t2.5 -3t1.5 -4.5t1 -5t0.5 -5.5v-5.5v-5.5v-5.5v-24 q0 -1 0.5 -8.5t0 -11t-1.5 -8.5t-4.5 -7t-8.5 -2q-14 0 -14 22q0 3 1 6.5t1 6.5zM330 1696v28q0 1 -1 5.5t-1 7.5q0 22 14 22q3 0 5 -0.5t3.5 -2t2.5 -3t1.5 -4.5t1 -5t0.5 -5.5v-5.5v-5.5v-5.5v-24q0 -1 0.5 -8.5t0 -11t-1.5 -8.5t-4.5 -7t-8.5 -2q-14 0 -14 22q0 3 1 6.5 t1 6.5z" />
<glyph unicode="&#x152;" horiz-adv-x="1531" d="M1186 1313h-74q-8 0 -23 2t-22 2q-15 0 -45 -2t-45 -2h-2q-22 1 -59.5 -1.5t-53.5 -2.5h-53v-52q0 -77 -6 -153q0 -45 4 -159t4 -175v-41q27 -6 53 -6h107q12 0 30 -1t25 -1q12 0 31 1t30 1q14 0 36.5 -1t33.5 -1q7 0 18 1t15 1h18q10 0 15.5 -3t5.5 -4.5v-4.5 q0 -15 -33 -15h-18q-8 0 -18 1t-15 1h-8h-62q-7 0 -21 -1t-22 -1h-10h-125q-53 0 -84 6q-2 -94 8 -247l4 -121v-23q0 -15 -1 -48t-1 -48q0 -52 11 -84q4 0 19 1t19 1h15h82q36 0 101 -3t101 -3q25 0 73 1t67 1h37q22 -3 22 -12q0 -15 -20 -15h-9q-16 2 -53 2h-69 q-20 0 -56 -1t-53 -1q-35 0 -105.5 3.5t-101.5 3.5h-55q-16 0 -49 1t-49 1q-25 0 -73.5 -4.5t-72.5 -4.5q-152 0 -248 60.5t-106 177.5q-5 20 -9 44.5t-5.5 42t-4.5 46t-4 41.5v61q0 41 -7 123t-7 127q0 19 -2 27q4 137 12 207l6 31q10 74 38.5 122.5t78 73.5t106.5 34 t140 9q19 0 59.5 -1t61.5 -1q25 0 75 4h21q34 0 114.5 5t127.5 5q14 0 39.5 -1t37.5 -1h21h176q25 -6 25 -14q0 -12 -23 -12h-14q-2 2 -10 2h-21q-16 0 -48 -1t-48 -1zM805 133q0 4 -1 13.5t-1 13.5q2 16 2 49q0 61 -7 191.5t-7 187.5v49q-3 9 -3 29q0 19 3 28q0 20 -3.5 60 t-3.5 59q0 23 2 37v20q0 40 -5 118t-5 118q0 14 4 40.5t4 49.5v111q-36 0 -107.5 1t-107.5 1q-56 0 -100.5 -6.5t-86.5 -24.5t-70 -46.5t-45 -75.5t-17 -109q-14 -115 -14 -197q0 -36 7 -115t7 -125q0 -82 14 -215q4 -44 8 -55l13 -47q33 -72 85.5 -107.5t127.5 -50.5l28 -6 q18 -2 58 -2h28q26 0 79 4t79 4q7 0 17.5 -1t17.5 -1z" />
<glyph unicode="&#x153;" horiz-adv-x="1572" d="M1186 1313h-74q-8 0 -23 2t-22 2q-15 0 -45 -2t-45 -2h-2q-22 1 -59.5 -1.5t-53.5 -2.5h-53v-52q0 -77 -6 -153q0 -45 4 -159t4 -175v-41q27 -6 53 -6h107q12 0 30 -1t25 -1q12 0 31 1t30 1q14 0 36.5 -1t33.5 -1q7 0 18 1t15 1h18q10 0 15.5 -3t5.5 -4.5v-4.5 q0 -15 -33 -15h-18q-8 0 -18 1t-15 1h-8h-62q-7 0 -21 -1t-22 -1h-10h-125q-53 0 -84 6q-2 -94 8 -247l4 -121v-23q0 -15 -1 -48t-1 -48q0 -52 11 -84q4 0 19 1t19 1h15h82q36 0 101 -3t101 -3q25 0 73 1t67 1h37q22 -3 22 -12q0 -15 -20 -15h-9q-16 2 -53 2h-69 q-20 0 -56 -1t-53 -1q-35 0 -105.5 3.5t-101.5 3.5h-55q-16 0 -49 1t-49 1q-25 0 -73.5 -4.5t-72.5 -4.5q-152 0 -248 60.5t-106 177.5q-5 20 -9 44.5t-5.5 42t-4.5 46t-4 41.5v61q0 41 -7 123t-7 127q0 19 -2 27q4 137 12 207l6 31q10 74 38.5 122.5t78 73.5t106.5 34 t140 9q19 0 59.5 -1t61.5 -1q25 0 75 4h21q34 0 114.5 5t127.5 5q14 0 39.5 -1t37.5 -1h21h176q25 -6 25 -14q0 -12 -23 -12h-14q-2 2 -10 2h-21q-16 0 -48 -1t-48 -1zM805 133q0 4 -1 13.5t-1 13.5q2 16 2 49q0 61 -7 191.5t-7 187.5v49q-3 9 -3 29q0 19 3 28q0 20 -3.5 60 t-3.5 59q0 23 2 37v20q0 40 -5 118t-5 118q0 14 4 40.5t4 49.5v111q-36 0 -107.5 1t-107.5 1q-56 0 -100.5 -6.5t-86.5 -24.5t-70 -46.5t-45 -75.5t-17 -109q-14 -115 -14 -197q0 -36 7 -115t7 -125q0 -82 14 -215q4 -44 8 -55l13 -47q33 -72 85.5 -107.5t127.5 -50.5l28 -6 q18 -2 58 -2h28q26 0 79 4t79 4q7 0 17.5 -1t17.5 -1z" />
<glyph unicode="&#x178;" horiz-adv-x="1032" d="M827 1376h2l2 -6l-10 -31l-4 -12l-2 -6l-49 -137l-33 -84q-95 -235 -119 -283l-65 -153q-12 -20 -12 -48q0 -8 2 -25.5t2 -25.5q0 -69 -5.5 -211.5t-5.5 -197.5q0 -23 2 -29v-41q0 -3 1.5 -5t1.5 -5q0 -13 -17 -13h-4q-6 5 -6 25q0 1 1 4t1 4l-4 41q0 5 -1 14.5t-1 14.5 q0 46 4 142.5t4 144.5q0 72 -4 182q-35 40 -49 80l-4 6q-14 30 -32 86t-28 80l-43 119q-7 19 -45.5 120t-62.5 160l-29 68q-8 5 -8 16q0 1 1 3t1 3l12 6q12 0 80 -182l76 -184l49 -139q2 -6 7.5 -24t9.5 -30t10 -31.5t11 -33.5t11.5 -31t12 -28.5t11 -22.5t10.5 -16t9 -5 q1 0 13 32.5t31.5 78.5t33.5 72l10 20q12 22 23 48t24.5 60.5t20.5 51.5l37 94q6 17 18 46.5t22 56t17 51.5l31 86q2 3 4.5 8.5t4 9.5t5 7t6.5 3q4 0 8 -4zM672 1696v28q0 1 -1 5.5t-1 7.5q0 22 14 22q3 0 5 -0.5t3.5 -2t2.5 -3t1.5 -4.5t1 -5t0.5 -5.5v-5.5v-5.5v-5.5v-24 q0 -1 0.5 -8.5t0 -11t-1.5 -8.5t-4.5 -7t-8.5 -2q-14 0 -14 22q0 3 1 6.5t1 6.5zM330 1696v28q0 1 -1 5.5t-1 7.5q0 22 14 22q3 0 5 -0.5t3.5 -2t2.5 -3t1.5 -4.5t1 -5t0.5 -5.5v-5.5v-5.5v-5.5v-24q0 -1 0.5 -8.5t0 -11t-1.5 -8.5t-4.5 -7t-8.5 -2q-14 0 -14 22q0 3 1 6.5 t1 6.5z" />
<glyph unicode="&#x2c6;" horiz-adv-x="534" d="M121 1645q-8 5 -8 14q0 5 7 15t17 16l6 6q5 8 15.5 20t11.5 13l41 49q15 34 37 34h6h31q8 -5 15 -17.5t11 -16.5l33 -41q12 -20 23 -29l22 -33l10 -8q23 -19 25 -27q0 -14 -8 -14q-23 0 -77 74q-4 4 -5 6l-19 25q-1 2 -32 45l-13 16q-2 2 -10 2q-14 0 -27 -22l-10 -13 l-16 -22q0 -5 -15 -20t-18 -21l-29 -29q-5 -5 -8 -9t-4 -6.5t-2.5 -4t-3.5 -2t-6 -0.5z" />
<glyph unicode="&#x2dc;" horiz-adv-x="571" d="M63 1634h-4q-4 4 -4 15q0 51 41 83.5t88 32.5q25 0 54 -10t45 -26l22 -15q31 -33 98 -33q41 0 62 21l10 14q2 2 2 4l6 9q13 37 15 40h2q6 0 8 -2l4 -2q0 -42 -32.5 -74t-80.5 -32q-46 0 -82.5 13.5t-55.5 29.5t-41 29.5t-42 13.5q-38 0 -67 -25t-37 -63v-6q0 -17 -11 -17 z" />
<glyph unicode="&#x2000;" horiz-adv-x="955" />
<glyph unicode="&#x2001;" horiz-adv-x="1911" />
<glyph unicode="&#x2002;" horiz-adv-x="955" />
<glyph unicode="&#x2003;" horiz-adv-x="1911" />
<glyph unicode="&#x2004;" horiz-adv-x="637" />
<glyph unicode="&#x2005;" horiz-adv-x="477" />
<glyph unicode="&#x2006;" horiz-adv-x="318" />
<glyph unicode="&#x2007;" horiz-adv-x="318" />
<glyph unicode="&#x2008;" horiz-adv-x="238" />
<glyph unicode="&#x2009;" horiz-adv-x="382" />
<glyph unicode="&#x200a;" horiz-adv-x="106" />
<glyph unicode="&#x2010;" horiz-adv-x="788" d="M365 621h-164q-19 0 -19 10q0 16 41 16h62q10 -2 28 -2h41h76q93 0 119 -4h41q14 0 14 -12q0 -15 -35 -15h-18q-13 0 -32 2t-32 2h-28q-45 0 -94 3z" />
<glyph unicode="&#x2011;" horiz-adv-x="788" d="M365 621h-164q-19 0 -19 10q0 16 41 16h62q10 -2 28 -2h41h76q93 0 119 -4h41q14 0 14 -12q0 -15 -35 -15h-18q-13 0 -32 2t-32 2h-28q-45 0 -94 3z" />
<glyph unicode="&#x2012;" horiz-adv-x="788" d="M365 621h-164q-19 0 -19 10q0 16 41 16h62q10 -2 28 -2h41h76q93 0 119 -4h41q14 0 14 -12q0 -15 -35 -15h-18q-13 0 -32 2t-32 2h-28q-45 0 -94 3z" />
<glyph unicode="&#x2013;" horiz-adv-x="968" d="M188 631q-8 3 -8 12q0 1 1 3t1 3v2q0 4 4 4h2q34 0 108 -3t120 -3q65 0 96 2h125q25 -2 88 -2h10q4 2 25 2q26 0 26 -10q0 -7 -4 -10t-7.5 -4t-16.5 -2h-4q-4 0 -13 -1t-14 -1q-17 0 -49 4h-27q-14 2 -45 2q-40 0 -117 -3t-114 -3h-37q-13 0 -38.5 3t-33.5 3h-30 q-32 0 -48 2z" />
<glyph unicode="&#x2014;" horiz-adv-x="1222" d="M911 655h93q32 0 32 -12q0 -5 -0.5 -7t-5.5 -3.5t-16 -1.5h-23q-3 0 -6 1t-6 1h-59q-122 0 -344 -7.5t-306 -7.5h-69q-25 0 -25 17q0 1 1 3t1 3l8 2q113 0 335 7t304 7h17q42 0 69 -2z" />
<glyph unicode="&#x2018;" horiz-adv-x="419" d="M256 1053q-45 0 -66 4l-2 51q0 7 -1 7t-1 7q0 11 2 17q4 17 5 18l18 109l18 75l7 27q4 18 16 18l8 -6q-38 -168 -43 -223l-4 -35q0 -22 -2 -45q3 0 14 -1t19 -1q4 0 12 1t12 1h33l4 -10l-4 -10q-28 -4 -45 -4z" />
<glyph unicode="&#x2019;" horiz-adv-x="417" d="M150 1364q44 0 65 -4l2 -51q0 -7 1 -7.5t1 -7.5q0 -10 -2 -16q-2 -2 -2 -12q0 -4 -2 -6l-18 -109l-19 -76l-6 -26q-5 -19 -16 -19l-9 6q33 139 43 224l5 34q0 22 2 45q-3 0 -14 1t-19 1q-4 0 -12.5 -1t-12.5 -1h-33l-4 11l4 10q28 4 46 4z" />
<glyph unicode="&#x201a;" horiz-adv-x="497" d="M225 141q45 0 66 -4l2 -51q0 -7 1 -7t1 -7q0 -11 -2 -17q-2 -2 -2 -12q0 -4 -2 -6l-19 -109l-18 -75l-6 -27q-5 -19 -17 -19l-8 7q33 140 43 223l4 35q0 22 2 45q-3 0 -13.5 1t-18.5 1q-4 0 -12.5 -1t-12.5 -1h-33l-4 10l4 10q28 4 45 4z" />
<glyph unicode="&#x201c;" horiz-adv-x="759" d="M262 1042q-39 0 -65 5l-2 51q0 7 -1 7t-1 7q0 10 2 16q1 3 1.5 7.5t1 7.5t1.5 4l18 108l19 76l6 27q4 18 16 18l8 -6q-38 -168 -43 -223l-4 -35q0 -22 -2 -45q3 0 14 -1t19 -1q4 0 12 1t12 1h33l4 -10l-4 -10q-35 -5 -45 -5zM598 1049q-45 0 -66 4l-2 51q0 7 -1 7t-1 7 q0 11 2 17q4 17 5 18l18 109l18 75l7 27q4 18 16 18l8 -6q-38 -168 -43 -223l-4 -35q0 -22 -2 -45q3 0 14 -1t19 -1q4 0 12 1t12 1h33l4 -10l-4 -10q-28 -4 -45 -4z" />
<glyph unicode="&#x201d;" horiz-adv-x="755" d="M496 1378q44 0 65 -4l2 -51q0 -7 1 -7t1 -7q0 -11 -2 -17q-2 -2 -2 -12q0 -4 -2 -6l-18 -109l-19 -75l-6 -27q-5 -19 -16 -19l-8 7q33 140 43 223l4 35q0 22 2 45q-3 0 -14 1t-19 1q-4 0 -12.5 -1t-12.5 -1h-32l-5 10l5 10q28 4 45 4zM160 1372q44 0 65 -4l2 -51 q0 -7 1 -7t1 -7q0 -11 -2 -17q-2 -2 -2 -12q0 -4 -2 -6l-18 -109l-19 -76l-6 -26q-5 -19 -16 -19l-8 6q33 139 43 224l4 35q0 22 2 45q-3 0 -14 1t-19 1q-4 0 -12.5 -1t-12.5 -1h-32l-4 10l4 10q28 4 45 4z" />
<glyph unicode="&#x201e;" horiz-adv-x="815" d="M219 141q45 0 66 -4l2 -51q0 -7 1 -7t1 -7q0 -11 -2 -17q-2 -2 -2 -12q0 -4 -2 -6l-19 -109l-18 -75l-6 -27q-5 -19 -17 -19l-8 7q33 140 43 223l4 35q0 22 2 45q-3 0 -14 1t-19 1q-4 0 -12 -1t-12 -1h-33l-4 10l4 10q28 4 45 4zM557 145q45 0 66 -4l2 -51q0 -7 1 -7 t1 -7q0 -11 -2 -17q-2 -2 -2 -12q0 -4 -2 -6l-19 -109l-18 -75l-6 -27q-4 -18 -17 -18l-8 6q33 140 43 223l4 35q0 22 2 45q-3 0 -14 1t-19 1q-4 0 -12 -1t-12 -1h-33l-4 10l4 10q28 4 45 4z" />
<glyph unicode="&#x2022;" horiz-adv-x="747" d="M375 774h12q52 0 83.5 -39.5t31.5 -91.5q0 -64 -38.5 -101.5t-94.5 -37.5q-4 0 -12.5 1t-12.5 1l-22 6q-23 10 -39 23l-17 14q-35 32 -35 88q0 58 42.5 96.5t101.5 40.5zM301 723l-14 -14q-35 -35 -35 -80q0 -36 28.5 -69.5t79.5 -33.5q48 0 84.5 36t36.5 89 q0 39 -25.5 71t-66.5 32q-54 0 -88 -31z" />
<glyph unicode="&#x2026;" horiz-adv-x="1376" d="M223 129h29h12q23 0 23 -12q0 -4 -1 -6.5t-3.5 -4t-5 -2.5t-6.5 -1.5t-6.5 -0.5h-7.5h-7h-25h-5.5h-6h-6t-6 0.5t-5.5 1.5t-4.5 3t-2.5 4.5t-1 5.5q0 12 23 12h12zM678 131h29h12q22 0 22 -12q0 -4 -1 -6.5t-3.5 -4t-4.5 -2.5t-6 -1.5t-6.5 -0.5h-7.5h-7h-25h-5.5h-6h-6 t-6 0.5t-5.5 1.5t-4.5 3t-2.5 4.5t-1 5.5q0 12 23 12h12zM1130 123h29h12q23 0 23 -12q0 -4 -1 -6.5t-3.5 -4t-5 -2.5t-6.5 -1.5t-6.5 -0.5h-7.5h-7h-24h-5.5h-6h-6t-6 0.5t-5.5 1.5t-4.5 3t-2.5 4.5t-1 5.5q0 12 22 12h12z" />
<glyph unicode="&#x202f;" horiz-adv-x="382" />
<glyph unicode="&#x2039;" horiz-adv-x="622" d="M205 532l-66 64l-2 39q16 12 47 47.5t49 48.5l86 76l25 24q30 30 82 75t66 59h2q2 -7 12 -17v-2q-27 -28 -80 -73.5t-68 -59.5l-108 -100q-2 -3 -9.5 -11t-14.5 -14.5t-14 -13.5l-7 -6q-18 -21 -21 -23l-22 -20v-19q60 -63 157 -135l87 -74q10 -6 26 -22l41 -31 q12 -12 12 -18q0 -11 -8 -11h-4q-2 2 -4 2h-4l-88 70l-84 76l-45 33z" />
<glyph unicode="&#x203a;" horiz-adv-x="612" d="M477 614l-65 -63l-43 -37l-45 -33l-84 -75l-88 -70h-5q-2 -2 -4 -2h-4q-8 0 -8 10q0 6 12 18l41 31q17 17 27 23l86 73q97 72 158 136v18l-23 21q-9 4 -43 38q-11 12 -22 29l-109 100q-10 9 -64.5 57t-82.5 77v2q3 3 6 8t6 8h2q10 0 41 -29t64 -63.5t42 -40.5l101 -90 l10 -10q18 -12 48.5 -48.5t47.5 -48.5z" />
<glyph unicode="&#x205f;" horiz-adv-x="477" />
<glyph unicode="&#x20ac;" horiz-adv-x="1005" d="M530 1337q-4 0 -12 1t-12 1q-223 0 -223 -268v-53v-72q0 -73 4 -94q7 0 21 1t22 1q26 1 81 -1.5t74 -2.5h58q2 2 22 2h10q31 0 31 -12q0 -1 -1 -4.5t-1 -4.5l-2 -2q-14 -2 -51 -2h-55q-18 2 -56 2h-80q-10 0 -33 -1t-40 -1v-45q0 -1 0.5 -45t-0.5 -45l-4 -82l274 -4 q35 0 35 -14q0 -10 -25 -10h-67q-12 0 -62 2t-80 2h-43q-4 -2 -30 -2q-2 -16 -2 -49q5 -97 10 -123l16 -78q4 -20 4 -21l13 -57q10 -23 14 -27l18 -24q53 -74 134 -74q89 0 143 39.5t96 136.5l12 37q0 26 9 29l2 2l12 -6q2 -2 2 -13q0 -12 -6 -24v-4q-31 -77 -51 -103 l-17 -22q-31 -43 -82.5 -65.5t-107.5 -22.5q-38 0 -49 4l-25 8q-125 52 -137 176l-6 29q-27 127 -27 207v47q-25 2 -78 2h-22h-14h-16.5h-16t-15.5 1.5t-12 3.5t-9 6t-3 9q0 1 1 2t1 2l22 2q2 -2 8 -2h64q26 0 88 -4q4 27 4 137v82q-14 -2 -43 -2h-35q-14 2 -39 2 q-9 0 -24 -1t-21 -1h-18q-16 0 -16 15v2q18 8 57 8h24q3 0 10.5 -1t10.5 -1l92 4q-2 39 -2 106v24q0 141 12 200.5t66 113.5q64 64 174 64h29q96 -8 170.5 -82t74.5 -170q0 -14 -12 -14q-5 0 -12.5 19t-17 47.5t-17.5 43.5q-35 63 -79 92.5t-116 40.5z" />
<glyph unicode="&#x2122;" horiz-adv-x="1363" d="M1237 1135q-2 -14 -2 -37q2 -27 2 -74q0 -33 -6 -94t-6 -92q0 -7 2 -17.5t2 -17.5v-8h-2q-2 -1 -4.5 -2t-3.5 -1.5t-2 -0.5q-7 0 -12 11t-5 25q0 24 4 52v2q10 82 10 151q0 13 -1 40.5t-1 43.5q0 20 1 57t1 56q0 24 -3 69t-3 66h-14q-4 0 -6 2q-13 -13 -25 -49l-8 -23 q-6 -10 -10 -26l-37 -80l-33 -72q-7 -15 -20 -43.5t-24 -50.5t-23 -41l-15 -23l-10 -28l-7 -2q-7 -2 -11 -2l-25 22q-13 12 -21.5 30t-19.5 30l-6 10q-14 14 -16 22l-23 39q-13 23 -54.5 105.5t-70.5 132.5v-109q0 -20 -1 -57t-1 -57q0 -37 2 -75.5t4 -61.5l2 -23 q0 -12 -3 -38t-3 -40v-16q0 -21 -2 -25v-4q0 -23 -12 -23q-13 0 -13 19q0 4 2.5 11.5t2.5 10.5v52q2 14 2 30q0 25 -3.5 95t-3.5 108v127q0 9 1.5 26t1.5 25t-1.5 23.5t-1.5 23.5q0 29 15 29h2q8 -3 8 -8l12 -2l25 -51q10 -19 38 -84t50 -97l27 -41l24 -45l15 -20 q16 -27 47 -66l14 25q23 33 46 87t32 69q5 13 15 33t13 28l37 80q21 94 39 88q3 -1 5 -4l-3 6q11 19 20 22q3 1 5 1l2 -3h4q3 3 10 3l10 -7l15 -6v-2q10 -74 10 -180v-29q0 -5 -1 -15t-1 -15zM274 1378h177q22 0 22 -10t-8 -13t-37 -3h-14q-46 0 -64 2h-33q0 -46 4.5 -130.5 t4.5 -123.5v-160q0 -31 2 -45v-70q0 -22 -15 -22l-6 2q-6 35 -6 115v16q0 86 -4 266l-4 152q-4 -2 -27 -2q-20 0 -58 2t-52 2h-31q-25 0 -25 12q0 4 2 6v2q16 4 29 4h66q25 -2 77 -2z" />
<glyph unicode="&#x25fc;" horiz-adv-x="1382" d="M0 1382h1382v-1382h-1382v1382z" />
</font>
</defs>
</svg>
